<svg width="1152" height="587" viewBox="0 0 1152 587" fill="none" xmlns="http://www.w3.org/2000/svg">
<path d="M0 0H1152V587H0V0Z" fill="white" fill-opacity="0.01"/>
<rect x="286.031" y="367.209" width="18" height="41" rx="5" transform="rotate(-64.2277 286.031 367.209)" fill="black"/>
<rect x="287.031" y="211.209" width="18" height="41" rx="5" transform="rotate(-64.2277 287.031 211.209)" fill="black"/>
<path d="M282.739 355.626L291.675 356.094L288.662 362.333L282.739 355.626Z" fill="black"/>
<path d="M283.739 199.626L292.675 200.094L289.662 206.333L283.739 199.626Z" fill="black"/>
<path d="M299.791 361.219L299.535 361.811C300.137 361.545 300.764 361.569 301.415 361.884C302.147 362.237 302.51 362.758 302.503 363.447C302.799 363.279 303.122 363.185 303.475 363.164C303.83 363.145 304.198 363.227 304.578 363.411C305.726 363.965 306.016 364.855 305.449 366.08L303.756 369.586L302.861 369.154L304.528 365.701C304.709 365.327 304.758 365.007 304.676 364.74C304.595 364.471 304.353 364.239 303.95 364.044C303.618 363.884 303.294 363.851 302.978 363.945C302.664 364.036 302.408 364.24 302.211 364.558L300.534 368.031L299.635 367.597L301.29 364.167C301.658 363.406 301.469 362.846 300.724 362.487C300.137 362.203 299.615 362.259 299.158 362.655L297.313 366.476L296.418 366.044L298.945 360.81L299.791 361.219ZM308.341 371.8C308.339 371.672 308.386 371.468 308.481 371.188C307.857 371.419 307.256 371.396 306.679 371.117C306.163 370.868 305.809 370.518 305.617 370.068C305.43 369.615 305.444 369.165 305.661 368.717C305.924 368.172 306.334 367.849 306.892 367.749C307.454 367.646 308.111 367.777 308.862 368.139L309.733 368.56L309.931 368.149C310.082 367.836 310.108 367.542 310.01 367.268C309.913 366.991 309.683 366.764 309.319 366.588C308.999 366.434 308.693 366.386 308.399 366.443C308.105 366.499 307.903 366.642 307.792 366.871L306.893 366.437C307.019 366.176 307.232 365.969 307.533 365.816C307.838 365.661 308.183 365.589 308.567 365.599C308.955 365.612 309.339 365.71 309.72 365.893C310.323 366.184 310.722 366.564 310.917 367.032C311.114 367.497 311.092 367.997 310.849 368.532L309.686 370.941C309.454 371.421 309.331 371.833 309.317 372.176L309.279 372.253L308.341 371.8ZM307.185 370.401C307.466 370.537 307.767 370.593 308.088 370.569C308.41 370.545 308.683 370.445 308.908 370.267L309.427 369.193L308.725 368.855C307.629 368.325 306.926 368.381 306.616 369.023C306.481 369.304 306.468 369.568 306.579 369.816C306.69 370.065 306.892 370.26 307.185 370.401ZM311.47 373.311L310.576 372.879L313.102 367.646L313.997 368.078L311.47 373.311ZM313.7 366.223C313.77 366.078 313.873 365.976 314.008 365.918C314.147 365.862 314.303 365.876 314.477 365.96C314.651 366.044 314.759 366.158 314.801 366.301C314.843 366.445 314.829 366.589 314.759 366.734C314.689 366.879 314.586 366.978 314.449 367.031C314.312 367.085 314.156 367.069 313.982 366.985C313.808 366.901 313.699 366.789 313.655 366.648C313.615 366.51 313.63 366.368 313.7 366.223ZM316.28 369.18L315.992 369.852C316.634 369.542 317.278 369.543 317.923 369.854C319.029 370.388 319.286 371.281 318.693 372.534L317.023 375.992L316.128 375.56L317.8 372.097C317.979 371.718 318.027 371.397 317.943 371.134C317.863 370.873 317.643 370.655 317.285 370.483C316.995 370.343 316.703 370.297 316.409 370.346C316.115 370.395 315.846 370.515 315.602 370.708L313.802 374.437L312.907 374.005L315.434 368.771L316.28 369.18Z" fill="white"/>
<path d="M300.791 205.219L300.535 205.811C301.137 205.545 301.764 205.569 302.415 205.884C303.147 206.237 303.51 206.758 303.503 207.447C303.799 207.279 304.122 207.185 304.475 207.164C304.83 207.145 305.198 207.227 305.578 207.411C306.726 207.965 307.016 208.855 306.449 210.08L304.756 213.586L303.861 213.154L305.528 209.701C305.709 209.327 305.758 209.007 305.676 208.74C305.595 208.471 305.353 208.239 304.95 208.044C304.618 207.884 304.294 207.851 303.978 207.945C303.664 208.036 303.408 208.24 303.211 208.558L301.534 212.031L300.635 211.597L302.29 208.167C302.658 207.406 302.469 206.846 301.724 206.487C301.137 206.203 300.615 206.259 300.158 206.655L298.313 210.476L297.418 210.044L299.945 204.81L300.791 205.219ZM309.341 215.8C309.339 215.672 309.386 215.468 309.481 215.188C308.857 215.419 308.256 215.396 307.679 215.117C307.163 214.868 306.809 214.518 306.617 214.068C306.43 213.615 306.444 213.165 306.661 212.717C306.924 212.172 307.334 211.849 307.892 211.749C308.454 211.646 309.111 211.777 309.862 212.139L310.733 212.56L310.931 212.149C311.082 211.836 311.108 211.542 311.01 211.268C310.913 210.991 310.683 210.764 310.319 210.588C309.999 210.434 309.693 210.386 309.399 210.443C309.105 210.499 308.903 210.642 308.792 210.871L307.893 210.437C308.019 210.176 308.232 209.969 308.533 209.816C308.838 209.661 309.183 209.589 309.567 209.599C309.955 209.612 310.339 209.71 310.72 209.893C311.323 210.184 311.722 210.564 311.917 211.032C312.114 211.497 312.092 211.997 311.849 212.532L310.686 214.941C310.454 215.421 310.331 215.833 310.317 216.176L310.279 216.253L309.341 215.8ZM308.185 214.401C308.466 214.537 308.767 214.593 309.088 214.569C309.41 214.545 309.683 214.445 309.908 214.267L310.427 213.193L309.725 212.855C308.629 212.325 307.926 212.381 307.616 213.023C307.481 213.304 307.468 213.568 307.579 213.816C307.69 214.065 307.892 214.26 308.185 214.401ZM312.47 217.311L311.576 216.879L314.102 211.646L314.997 212.078L312.47 217.311ZM314.7 210.223C314.77 210.078 314.873 209.976 315.008 209.918C315.147 209.862 315.303 209.876 315.477 209.96C315.651 210.044 315.759 210.158 315.801 210.301C315.843 210.445 315.829 210.589 315.759 210.734C315.689 210.879 315.586 210.978 315.449 211.031C315.312 211.085 315.156 211.069 314.982 210.985C314.808 210.901 314.699 210.789 314.655 210.648C314.615 210.51 314.63 210.368 314.7 210.223ZM317.28 213.18L316.992 213.852C317.634 213.542 318.278 213.543 318.923 213.854C320.029 214.388 320.286 215.281 319.693 216.534L318.023 219.992L317.128 219.56L318.8 216.097C318.979 215.718 319.027 215.397 318.943 215.134C318.863 214.873 318.643 214.655 318.285 214.483C317.995 214.343 317.703 214.297 317.409 214.346C317.115 214.395 316.846 214.515 316.602 214.708L314.802 218.437L313.907 218.005L316.434 212.771L317.28 213.18Z" fill="white"/>
<circle cx="104.5" cy="350.5" r="9.5" fill="#4000C7"/>
<circle cx="104.5" cy="194.5" r="9.5" fill="#4000C7"/>
<circle cx="184.5" cy="350.5" r="9.5" fill="#4000C7"/>
<circle cx="184.5" cy="194.5" r="9.5" fill="#4000C7"/>
<circle cx="265.5" cy="350.5" r="9.5" fill="#4000C7"/>
<circle cx="265.5" cy="194.5" r="9.5" fill="#4000C7"/>
<line x1="98" y1="350.5" x2="261" y2="350.5" stroke="#4000C7"/>
<line x1="108" y1="194.5" x2="261" y2="194.5" stroke="#4000C7"/>
<path d="M266.354 212.646C266.158 212.451 265.842 212.451 265.646 212.646L262.464 215.828C262.269 216.024 262.269 216.34 262.464 216.536C262.66 216.731 262.976 216.731 263.172 216.536L266 213.707L268.828 216.536C269.024 216.731 269.34 216.731 269.536 216.536C269.731 216.34 269.731 216.024 269.536 215.828L266.354 212.646ZM266.5 343L266.5 213L265.5 213L265.5 343L266.5 343Z" fill="#4000C7"/>
</svg>
