<svg width="1152" height="587" viewBox="0 0 1152 587" fill="none" xmlns="http://www.w3.org/2000/svg">
<path d="M0 0H1152V587H0V0Z" fill="white" fill-opacity="0.01"/>
<path d="M552.874 299.886V300.652H552.708C552.005 300.665 551.445 300.874 551.028 301.277C550.612 301.681 550.371 302.249 550.306 302.981C550.68 302.552 551.191 302.337 551.839 302.337C552.457 302.337 552.951 302.555 553.318 302.991C553.689 303.427 553.875 303.991 553.875 304.681C553.875 305.413 553.675 305.999 553.274 306.438C552.877 306.878 552.343 307.098 551.673 307.098C550.993 307.098 550.441 306.837 550.018 306.316C549.594 305.792 549.383 305.118 549.383 304.295V303.948C549.383 302.64 549.661 301.64 550.218 300.95C550.778 300.257 551.609 299.902 552.713 299.886H552.874ZM551.688 303.089C551.378 303.089 551.093 303.182 550.833 303.367C550.573 303.553 550.392 303.785 550.291 304.065V304.397C550.291 304.983 550.423 305.455 550.687 305.813C550.95 306.172 551.279 306.351 551.673 306.351C552.08 306.351 552.399 306.201 552.63 305.901C552.864 305.602 552.981 305.21 552.981 304.725C552.981 304.236 552.863 303.842 552.625 303.543C552.391 303.24 552.078 303.089 551.688 303.089ZM555.481 307V302.415H554.646V301.717H555.481V301.175C555.481 300.608 555.633 300.171 555.936 299.861C556.238 299.552 556.666 299.397 557.22 299.397C557.428 299.397 557.635 299.425 557.84 299.48L557.791 300.213C557.638 300.184 557.475 300.169 557.303 300.169C557.01 300.169 556.784 300.255 556.624 300.428C556.465 300.597 556.385 300.841 556.385 301.16V301.717H557.513V302.415H556.385V307H555.481ZM560.516 306.36C560.838 306.36 561.119 306.263 561.36 306.067C561.601 305.872 561.735 305.628 561.761 305.335H562.615C562.599 305.638 562.495 305.926 562.303 306.199C562.111 306.473 561.854 306.691 561.531 306.854C561.212 307.016 560.874 307.098 560.516 307.098C559.796 307.098 559.223 306.858 558.797 306.38C558.374 305.898 558.162 305.241 558.162 304.407V304.256C558.162 303.742 558.257 303.284 558.445 302.884C558.634 302.483 558.904 302.173 559.256 301.951C559.611 301.73 560.029 301.619 560.511 301.619C561.103 301.619 561.595 301.797 561.985 302.151C562.379 302.506 562.589 302.967 562.615 303.533H561.761C561.735 303.191 561.604 302.911 561.37 302.693C561.139 302.472 560.853 302.361 560.511 302.361C560.052 302.361 559.695 302.527 559.441 302.859C559.191 303.188 559.065 303.665 559.065 304.29V304.461C559.065 305.07 559.191 305.538 559.441 305.867C559.692 306.196 560.05 306.36 560.516 306.36ZM568.196 307H563.538V306.351L565.999 303.616C566.364 303.203 566.614 302.868 566.751 302.61C566.891 302.35 566.961 302.081 566.961 301.805C566.961 301.434 566.849 301.129 566.624 300.892C566.399 300.654 566.1 300.535 565.726 300.535C565.276 300.535 564.926 300.664 564.676 300.921C564.428 301.175 564.305 301.53 564.305 301.985H563.401C563.401 301.331 563.611 300.802 564.031 300.398C564.454 299.995 565.019 299.793 565.726 299.793C566.386 299.793 566.909 299.967 567.293 300.315C567.677 300.66 567.869 301.121 567.869 301.697C567.869 302.397 567.423 303.23 566.531 304.197L564.627 306.263H568.196V307ZM569.568 303.436L569.93 299.891H573.572V300.726H570.696L570.481 302.664C570.83 302.459 571.225 302.356 571.668 302.356C572.316 302.356 572.83 302.571 573.211 303.001C573.592 303.427 573.782 304.005 573.782 304.734C573.782 305.467 573.584 306.045 573.187 306.468C572.793 306.888 572.241 307.098 571.531 307.098C570.903 307.098 570.39 306.924 569.993 306.575C569.596 306.227 569.37 305.745 569.314 305.13H570.169C570.224 305.537 570.369 305.844 570.604 306.053C570.838 306.258 571.147 306.36 571.531 306.36C571.951 306.36 572.28 306.217 572.518 305.931C572.758 305.644 572.879 305.249 572.879 304.744C572.879 304.269 572.749 303.888 572.488 303.602C572.231 303.312 571.888 303.167 571.458 303.167C571.064 303.167 570.755 303.253 570.53 303.426L570.291 303.621L569.568 303.436ZM578.123 307C578.071 306.896 578.029 306.71 577.996 306.443C577.576 306.88 577.075 307.098 576.492 307.098C575.971 307.098 575.543 306.951 575.208 306.658C574.876 306.362 574.71 305.988 574.71 305.535C574.71 304.985 574.918 304.559 575.335 304.256C575.755 303.95 576.344 303.797 577.103 303.797H577.981V303.382C577.981 303.066 577.887 302.815 577.698 302.63C577.509 302.441 577.231 302.347 576.863 302.347C576.541 302.347 576.271 302.428 576.053 302.591C575.835 302.754 575.726 302.951 575.726 303.182H574.817C574.817 302.918 574.91 302.664 575.096 302.42C575.285 302.173 575.538 301.977 575.857 301.834C576.18 301.691 576.533 301.619 576.917 301.619C577.526 301.619 578.003 301.772 578.348 302.078C578.693 302.381 578.872 302.799 578.885 303.333V305.765C578.885 306.25 578.947 306.635 579.07 306.922V307H578.123ZM576.624 306.312C576.907 306.312 577.176 306.238 577.43 306.092C577.684 305.945 577.868 305.755 577.981 305.521V304.437H577.273C576.167 304.437 575.613 304.76 575.613 305.408C575.613 305.691 575.708 305.913 575.896 306.072C576.085 306.232 576.328 306.312 576.624 306.312ZM580.081 304.314C580.081 303.504 580.273 302.853 580.657 302.361C581.041 301.867 581.544 301.619 582.166 301.619C582.785 301.619 583.274 301.831 583.636 302.254V299.5H584.539V307H583.709L583.665 306.434C583.304 306.876 582.801 307.098 582.156 307.098C581.544 307.098 581.045 306.847 580.657 306.346C580.273 305.844 580.081 305.19 580.081 304.383V304.314ZM580.984 304.417C580.984 305.016 581.108 305.485 581.355 305.823C581.603 306.162 581.945 306.331 582.381 306.331C582.954 306.331 583.372 306.074 583.636 305.56V303.133C583.366 302.635 582.951 302.386 582.391 302.386C581.948 302.386 581.603 302.557 581.355 302.898C581.108 303.24 580.984 303.746 580.984 304.417ZM553.061 314.38H550.831V311.94H553.061V314.38ZM550.011 314.38H548.691V315.05H555.201V314.38H553.881V311.94H555.231V311.27H548.661V311.94H550.011V314.38ZM556.011 316.09H547.881V316.76H551.531V319.74H552.361V316.76H556.011V316.09ZM558.321 314.77H561.261V314.11H558.321V312.26H561.651V311.58H557.501V317.59H558.191C559.901 317.59 560.991 317.54 562.291 317.31L562.201 316.64C560.981 316.86 559.941 316.92 558.321 316.92V314.77ZM563.661 310.76V314.15H561.811V314.83H563.661V319.75H564.481V310.76H563.661ZM575.33 313.08V314.35H573.26V313.08H575.33ZM572.45 315.22H570.03V313.6H572.45V315.22ZM573.26 315.02H575.33V317.41H576.16V310.78H575.33V312.42H573.26V311.37H572.45V312.95H570.03V311.37H569.22V315.88H573.26V315.02ZM571.21 318.87V316.76H570.39V319.54H576.37V318.87H571.21ZM584.529 313.09V314.29H582.179V314.96H584.529V316.14H585.359V310.78H584.529V312.42H582.499C582.559 312.11 582.599 311.78 582.599 311.45H578.549V312.11H581.709C581.559 313.66 580.229 314.85 578.089 315.49L578.419 316.14C580.349 315.58 581.709 314.53 582.289 313.09H584.529ZM582.429 319.06C581.109 319.06 580.269 318.65 580.269 317.97C580.269 317.3 581.109 316.89 582.429 316.89C583.749 316.89 584.589 317.3 584.589 317.97C584.589 318.65 583.749 319.06 582.429 319.06ZM582.429 316.24C580.619 316.24 579.459 316.89 579.459 317.97C579.459 319.05 580.619 319.7 582.429 319.7C584.239 319.7 585.399 319.05 585.399 317.97C585.399 316.89 584.239 316.24 582.429 316.24Z" fill="black"/>
<path d="M657.332 345.73C658.812 345.57 660.112 345.04 660.662 344.16C661.202 345.04 662.512 345.57 663.992 345.73L664.242 345.09C662.562 344.95 661.202 344.27 661.112 343.3H663.882V342.65H661.072V341.74H660.252V342.65H657.442V343.3H660.202C660.112 344.27 658.752 344.95 657.082 345.09L657.332 345.73ZM662.892 349.24C662.892 349.8 662.072 350.11 660.652 350.11C659.232 350.11 658.412 349.8 658.412 349.24C658.412 348.69 659.232 348.37 660.652 348.37C662.072 348.37 662.892 348.69 662.892 349.24ZM664.712 346.86V346.2H656.602V346.86H660.252V347.76C658.562 347.83 657.582 348.35 657.582 349.24C657.582 350.21 658.722 350.73 660.662 350.73C662.582 350.73 663.722 350.21 663.722 349.24C663.722 348.35 662.742 347.83 661.062 347.76V346.86H664.712ZM667.601 349.1H672.871V347.08H666.771V347.71H672.061V348.5H666.801V350.63H673.141V350H667.601V349.1ZM670.271 345.67V344.82H672.951V344.16H667.701V342.77H672.861V342.11H666.881V344.82H669.451V345.67H665.791V346.33H673.911V345.67H670.271ZM681.201 345.4H678.661V344.06H681.201V345.4ZM682.001 342.14H681.201V343.43H678.661V342.14H677.851V346.06H682.001V342.14ZM679.571 349.01H684.441V346.83H678.741V347.48H683.631V348.4H678.771V350.64H684.771V349.99H679.571V349.01ZM684.441 343.7V341.78H683.621V346.41H684.441V344.38H685.771V343.7H684.441ZM692.32 344.85H693.46V347.31H694.25V341.78H693.46V344.18H692.32V341.95H691.54V347.02H692.32V344.85ZM691.17 345.98C690.02 345.54 689.35 344.53 689.35 343.54V342.33H688.56V343.54C688.56 344.54 687.86 345.7 686.69 346.22L687.13 346.86C688 346.47 688.64 345.71 688.96 344.87C689.28 345.63 689.89 346.27 690.73 346.61L691.17 345.98ZM691.29 350.1C689.95 350.1 689.11 349.74 689.11 349.12C689.11 348.5 689.95 348.15 691.29 348.15C692.65 348.15 693.48 348.5 693.48 349.12C693.48 349.74 692.65 350.1 691.29 350.1ZM691.29 347.51C689.45 347.51 688.3 348.1 688.3 349.12C688.3 350.14 689.45 350.73 691.29 350.73C693.14 350.73 694.29 350.14 694.29 349.12C694.29 348.1 693.14 347.51 691.29 347.51ZM697.044 347.993H696.229L696.165 342.891H697.112L697.044 347.993ZM696.131 349.546C696.131 349.399 696.175 349.277 696.263 349.18C696.354 349.079 696.487 349.028 696.663 349.028C696.839 349.028 696.972 349.079 697.063 349.18C697.155 349.277 697.2 349.399 697.2 349.546C697.2 349.692 697.155 349.814 697.063 349.912C696.972 350.007 696.839 350.054 696.663 350.054C696.487 350.054 696.354 350.007 696.263 349.912C696.175 349.814 696.131 349.692 696.131 349.546Z" fill="#FF0000"/>
<path d="M408.534 360C403.887 350.974 427.635 330.981 557 332.041" stroke="#4000C7"/>
<path d="M648.738 361C651.015 351.652 639.38 330.945 576 332.042" stroke="#4000C7"/>
<rect x="678.824" y="375.124" width="18" height="41" rx="5" transform="rotate(-90.1738 678.824 375.124)" fill="black"/>
<path d="M671.001 366.193L679.251 362.73L679.25 369.659L671.001 366.193Z" fill="black"/>
<path d="M688.603 363.737L688.63 364.382C689.056 363.88 689.631 363.629 690.354 363.629C691.167 363.629 691.72 363.941 692.014 364.564C692.207 364.284 692.458 364.059 692.766 363.887C693.077 363.715 693.444 363.629 693.867 363.629C695.142 363.628 695.79 364.303 695.812 365.653L695.812 369.547L694.819 369.547L694.818 365.712C694.818 365.297 694.723 364.987 694.533 364.783C694.343 364.576 694.025 364.472 693.577 364.472C693.208 364.472 692.902 364.583 692.659 364.805C692.415 365.024 692.274 365.319 692.235 365.691L692.235 369.548L691.236 369.548L691.235 365.74C691.235 364.895 690.822 364.472 689.995 364.473C689.343 364.473 688.897 364.75 688.657 365.305L688.658 369.549L687.664 369.549L687.663 363.737L688.603 363.737ZM700.904 369.546C700.847 369.432 700.8 369.228 700.764 368.934C700.303 369.414 699.751 369.654 699.11 369.654C698.537 369.654 698.066 369.493 697.698 369.171C697.332 368.845 697.15 368.433 697.149 367.936C697.149 367.331 697.378 366.861 697.837 366.528C698.299 366.192 698.947 366.023 699.781 366.023L700.748 366.023L700.748 365.566C700.748 365.219 700.644 364.943 700.436 364.739C700.228 364.532 699.922 364.428 699.517 364.428C699.163 364.428 698.866 364.518 698.626 364.697C698.386 364.876 698.266 365.092 698.266 365.347L697.267 365.347C697.267 365.057 697.369 364.777 697.573 364.509C697.781 364.237 698.06 364.022 698.411 363.864C698.765 363.707 699.154 363.628 699.576 363.628C700.246 363.627 700.771 363.796 701.15 364.132C701.53 364.465 701.727 364.925 701.741 365.512L701.742 368.187C701.742 368.721 701.81 369.145 701.946 369.46L701.946 369.546L700.904 369.546ZM699.255 368.789C699.567 368.789 699.862 368.709 700.141 368.547C700.421 368.386 700.623 368.177 700.748 367.919L700.748 366.726L699.969 366.727C698.752 366.727 698.143 367.083 698.143 367.796C698.143 368.107 698.247 368.351 698.455 368.526C698.662 368.702 698.929 368.789 699.255 368.789ZM704.379 369.546L703.386 369.546L703.385 363.734L704.378 363.734L704.379 369.546ZM703.304 362.193C703.304 362.032 703.352 361.896 703.449 361.785C703.549 361.674 703.696 361.618 703.889 361.618C704.082 361.618 704.229 361.673 704.33 361.784C704.43 361.895 704.48 362.031 704.48 362.193C704.48 362.354 704.43 362.488 704.33 362.595C704.229 362.703 704.083 362.757 703.889 362.757C703.696 362.757 703.549 362.703 703.449 362.596C703.352 362.488 703.304 362.354 703.304 362.193ZM706.913 363.734L706.946 364.464C707.39 363.905 707.97 363.626 708.686 363.626C709.914 363.626 710.534 364.318 710.545 365.704L710.545 369.545L709.552 369.545L709.551 365.699C709.547 365.28 709.451 364.97 709.261 364.77C709.074 364.569 708.783 364.469 708.385 364.469C708.063 364.469 707.78 364.555 707.537 364.727C707.293 364.899 707.103 365.125 706.967 365.404L706.968 369.545L705.974 369.545L705.973 363.734L706.913 363.734Z" fill="white"/>
<circle cx="648.5" cy="366.5" r="9" fill="white" stroke="#4000C7" stroke-dasharray="2 2"/>
<circle cx="566.5" cy="331.5" r="9.5" fill="#4000C7"/>
<line x1="497" y1="366.5" x2="639" y2="366.5" stroke="#4000C7"/>
<path d="M625.128 547V542.415H624.293V541.717H625.128V541.175C625.128 540.608 625.279 540.171 625.582 539.861C625.885 539.552 626.313 539.397 626.866 539.397C627.075 539.397 627.281 539.425 627.486 539.48L627.438 540.213C627.285 540.184 627.122 540.169 626.949 540.169C626.656 540.169 626.43 540.255 626.271 540.428C626.111 540.597 626.031 540.841 626.031 541.16V541.717H627.159V542.415H626.031V547H625.128ZM627.921 544.31C627.921 543.792 628.022 543.326 628.224 542.913C628.429 542.5 628.712 542.181 629.073 541.956C629.438 541.731 629.853 541.619 630.318 541.619C631.038 541.619 631.619 541.868 632.062 542.366C632.507 542.864 632.73 543.527 632.73 544.354V544.417C632.73 544.931 632.631 545.394 632.433 545.804C632.237 546.211 631.956 546.528 631.588 546.756C631.223 546.984 630.803 547.098 630.328 547.098C629.612 547.098 629.031 546.849 628.585 546.351C628.142 545.853 627.921 545.193 627.921 544.373V544.31ZM628.829 544.417C628.829 545.003 628.964 545.473 629.234 545.828C629.508 546.183 629.872 546.36 630.328 546.36C630.787 546.36 631.152 546.181 631.422 545.823C631.692 545.462 631.827 544.957 631.827 544.31C631.827 543.73 631.689 543.261 631.412 542.903C631.139 542.542 630.774 542.361 630.318 542.361C629.872 542.361 629.513 542.539 629.239 542.894C628.966 543.248 628.829 543.756 628.829 544.417ZM633.624 544.31C633.624 543.792 633.725 543.326 633.927 542.913C634.132 542.5 634.415 542.181 634.776 541.956C635.141 541.731 635.556 541.619 636.021 541.619C636.741 541.619 637.322 541.868 637.765 542.366C638.211 542.864 638.434 543.527 638.434 544.354V544.417C638.434 544.931 638.334 545.394 638.136 545.804C637.94 546.211 637.659 546.528 637.291 546.756C636.926 546.984 636.507 547.098 636.031 547.098C635.315 547.098 634.734 546.849 634.288 546.351C633.845 545.853 633.624 545.193 633.624 544.373V544.31ZM634.532 544.417C634.532 545.003 634.667 545.473 634.938 545.828C635.211 546.183 635.576 546.36 636.031 546.36C636.49 546.36 636.855 546.181 637.125 545.823C637.395 545.462 637.53 544.957 637.53 544.31C637.53 543.73 637.392 543.261 637.115 542.903C636.842 542.542 636.477 542.361 636.021 542.361C635.576 542.361 635.216 542.539 634.942 542.894C634.669 543.248 634.532 543.756 634.532 544.417ZM640.792 540.438V541.717H641.778V542.415H640.792V545.691C640.792 545.903 640.836 546.062 640.924 546.17C641.012 546.274 641.161 546.326 641.373 546.326C641.477 546.326 641.62 546.307 641.803 546.268V547C641.565 547.065 641.334 547.098 641.109 547.098C640.706 547.098 640.401 546.976 640.196 546.731C639.991 546.487 639.889 546.141 639.889 545.691V542.415H638.927V541.717H639.889V540.438H640.792ZM645.03 547.098C644.314 547.098 643.731 546.863 643.282 546.395C642.833 545.923 642.608 545.293 642.608 544.505V544.339C642.608 543.815 642.708 543.348 642.906 542.938C643.108 542.524 643.388 542.202 643.746 541.971C644.107 541.736 644.498 541.619 644.918 541.619C645.605 541.619 646.139 541.845 646.52 542.298C646.9 542.75 647.091 543.398 647.091 544.241V544.617H643.512C643.525 545.138 643.676 545.56 643.966 545.882C644.259 546.201 644.63 546.36 645.079 546.36C645.398 546.36 645.668 546.295 645.89 546.165C646.111 546.035 646.305 545.862 646.471 545.647L647.022 546.077C646.58 546.757 645.916 547.098 645.03 547.098ZM644.918 542.361C644.553 542.361 644.247 542.495 644 542.762C643.753 543.025 643.6 543.396 643.541 543.875H646.188V543.807C646.161 543.348 646.038 542.993 645.816 542.742C645.595 542.488 645.296 542.361 644.918 542.361ZM650.694 542.527C650.558 542.505 650.41 542.493 650.25 542.493C649.658 542.493 649.256 542.745 649.044 543.25V547H648.141V541.717H649.02L649.034 542.327C649.33 541.855 649.75 541.619 650.294 541.619C650.47 541.619 650.603 541.642 650.694 541.688V542.527ZM650.943 546.526C650.943 546.37 650.989 546.24 651.08 546.136C651.174 546.032 651.314 545.979 651.5 545.979C651.686 545.979 651.826 546.032 651.92 546.136C652.018 546.24 652.066 546.37 652.066 546.526C652.066 546.676 652.018 546.801 651.92 546.902C651.826 547.003 651.686 547.054 651.5 547.054C651.314 547.054 651.174 547.003 651.08 546.902C650.989 546.801 650.943 546.676 650.943 546.526ZM654.464 542.356C654.864 541.865 655.385 541.619 656.026 541.619C657.143 541.619 657.706 542.249 657.716 543.509V547H656.812V543.504C656.809 543.123 656.721 542.841 656.549 542.659C656.38 542.477 656.114 542.386 655.753 542.386C655.46 542.386 655.203 542.464 654.981 542.62C654.76 542.776 654.588 542.981 654.464 543.235V547H653.561V539.5H654.464V542.356ZM660.294 540.438V541.717H661.28V542.415H660.294V545.691C660.294 545.903 660.338 546.062 660.426 546.17C660.514 546.274 660.663 546.326 660.875 546.326C660.979 546.326 661.122 546.307 661.305 546.268V547C661.067 547.065 660.836 547.098 660.611 547.098C660.208 547.098 659.903 546.976 659.698 546.731C659.493 546.487 659.391 546.141 659.391 545.691V542.415H658.429V541.717H659.391V540.438H660.294ZM663.189 541.717L663.214 542.303C663.601 541.847 664.124 541.619 664.781 541.619C665.52 541.619 666.023 541.902 666.29 542.469C666.466 542.215 666.694 542.01 666.974 541.854C667.257 541.697 667.59 541.619 667.975 541.619C669.133 541.619 669.723 542.233 669.742 543.46V547H668.839V543.514C668.839 543.136 668.753 542.854 668.58 542.669C668.408 542.48 668.118 542.386 667.711 542.386C667.376 542.386 667.097 542.487 666.876 542.688C666.655 542.887 666.526 543.156 666.49 543.494V547H665.582V543.538C665.582 542.77 665.206 542.386 664.454 542.386C663.862 542.386 663.456 542.638 663.238 543.143V547H662.335V541.717H663.189ZM672.091 547H671.188V539.5H672.091V547Z" fill="#4000C7"/>
<path d="M657.746 514.016L651.938 508.252C651.776 508.091 651.558 508 651.328 508H639.864C639.386 508 639 508.383 639 508.857V531.143C639 531.617 639.386 532 639.864 532H657.136C657.614 532 658 531.617 658 531.143V514.624C658 514.396 657.908 514.177 657.746 514.016ZM656.008 515.018H650.929V509.977L656.008 515.018ZM656.057 530.071H640.943V509.929H649.094V515.714C649.094 516.013 649.213 516.299 649.426 516.51C649.638 516.721 649.927 516.839 650.227 516.839H656.057V530.071ZM648.284 522.839H643.318C643.199 522.839 643.102 522.936 643.102 523.054V524.339C643.102 524.457 643.199 524.554 643.318 524.554H648.284C648.403 524.554 648.5 524.457 648.5 524.339V523.054C648.5 522.936 648.403 522.839 648.284 522.839ZM643.102 519.411V520.696C643.102 520.814 643.199 520.911 643.318 520.911H653.682C653.801 520.911 653.898 520.814 653.898 520.696V519.411C653.898 519.293 653.801 519.196 653.682 519.196H643.318C643.199 519.196 643.102 519.293 643.102 519.411Z" fill="#4000C7"/>
<path d="M566.646 287.354C566.842 287.549 567.158 287.549 567.354 287.354L570.536 284.172C570.731 283.976 570.731 283.66 570.536 283.464C570.34 283.269 570.024 283.269 569.828 283.464L567 286.293L564.172 283.464C563.976 283.269 563.66 283.269 563.464 283.464C563.269 283.66 563.269 283.976 563.464 284.172L566.646 287.354ZM566.5 95L566.5 287L567.5 287L567.5 95L566.5 95Z" fill="#4000C7"/>
<path d="M647.646 498.354C647.842 498.549 648.158 498.549 648.354 498.354L651.536 495.172C651.731 494.976 651.731 494.66 651.536 494.464C651.34 494.269 651.024 494.269 650.828 494.464L648 497.293L645.172 494.464C644.976 494.269 644.66 494.269 644.464 494.464C644.269 494.66 644.269 494.976 644.464 495.172L647.646 498.354ZM647.5 376L647.5 498L648.5 498L648.5 376L647.5 376Z" fill="#4000C7"/>
</svg>
