<svg width="1152" height="587" viewBox="0 0 1152 587" fill="none" xmlns="http://www.w3.org/2000/svg">
<path d="M0 0H1152V587H0V0Z" fill="white" fill-opacity="0.01"/>
<circle cx="140.5" cy="68.5" r="9.5" fill="#4000C7"/>
<rect x="158.031" y="85.2095" width="18" height="41" rx="5" transform="rotate(-64.2277 158.031 85.2095)" fill="black"/>
<path d="M154.739 73.6266L163.675 74.0942L160.662 80.3332L154.739 73.6266Z" fill="black"/>
<path d="M171.791 79.2192L171.535 79.8113C172.137 79.5452 172.764 79.5693 173.415 79.8838C174.147 80.2372 174.51 80.7583 174.503 81.4471C174.799 81.2796 175.122 81.1854 175.475 81.1646C175.83 81.1452 176.198 81.2274 176.578 81.4111C177.726 81.9654 178.016 82.855 177.449 84.08L175.756 87.5867L174.861 87.1547L176.528 83.7012C176.709 83.3271 176.758 83.0069 176.676 82.7406C176.595 82.4711 176.353 82.239 175.95 82.0444C175.618 81.884 175.294 81.8509 174.978 81.9449C174.664 82.0358 174.408 82.2403 174.211 82.5585L172.534 86.0314L171.635 85.597L173.29 82.1677C173.658 81.4067 173.469 80.8464 172.724 80.4867C172.137 80.2034 171.615 80.2595 171.158 80.655L169.313 84.4761L168.418 84.044L170.945 78.8106L171.791 79.2192ZM180.341 89.8006C180.339 89.6725 180.386 89.4685 180.481 89.1885C179.857 89.4197 179.256 89.396 178.679 89.1173C178.163 88.8682 177.809 88.5184 177.617 88.0678C177.43 87.6156 177.444 87.1654 177.661 86.7172C177.924 86.1722 178.334 85.8494 178.892 85.7488C179.454 85.6466 180.111 85.7768 180.862 86.1396L181.733 86.5599L181.931 86.1488C182.082 85.836 182.108 85.5426 182.01 85.2685C181.913 84.9911 181.683 84.7645 181.319 84.5886C180.999 84.4345 180.693 84.3858 180.399 84.4428C180.105 84.4997 179.903 84.6426 179.792 84.8715L178.893 84.4372C179.019 84.176 179.232 83.9688 179.533 83.8157C179.838 83.661 180.183 83.5889 180.567 83.5996C180.955 83.6119 181.339 83.7099 181.72 83.8936C182.323 84.1847 182.722 84.5644 182.917 85.0325C183.114 85.4974 183.092 85.9974 182.849 86.5324L181.686 88.9412C181.454 89.4216 181.331 89.8333 181.317 90.1763L181.279 90.2536L180.341 89.8006ZM179.185 88.4017C179.466 88.5371 179.767 88.593 180.088 88.5693C180.41 88.5457 180.683 88.445 180.908 88.2673L181.427 87.1935L180.725 86.8549C179.629 86.3256 178.926 86.3817 178.616 87.0234C178.481 87.304 178.468 87.5684 178.579 87.8167C178.69 88.065 178.892 88.26 179.185 88.4017ZM183.47 91.3115L182.576 90.8795L185.102 85.6461L185.997 86.0781L183.47 91.3115ZM185.7 84.2229C185.77 84.0778 185.873 83.9762 186.008 83.9183C186.147 83.862 186.303 83.8758 186.477 83.9599C186.651 84.0439 186.759 84.1578 186.801 84.3013C186.843 84.4449 186.829 84.5892 186.759 84.7343C186.689 84.8794 186.586 84.9785 186.449 85.0317C186.312 85.0848 186.156 85.0694 185.982 84.9853C185.808 84.9012 185.699 84.789 185.655 84.6487C185.615 84.5099 185.63 84.368 185.7 84.2229ZM188.28 87.1804L187.992 87.8522C188.634 87.5422 189.278 87.5429 189.923 87.8543C191.029 88.3883 191.286 89.2816 190.693 90.5342L189.023 93.9925L188.128 93.5605L189.8 90.0973C189.979 89.7185 190.027 89.3975 189.943 89.1344C189.863 88.8729 189.643 88.6557 189.285 88.4829C188.995 88.3428 188.703 88.2972 188.409 88.3461C188.115 88.395 187.846 88.5156 187.602 88.708L185.802 92.4372L184.907 92.0051L187.434 86.7717L188.28 87.1804Z" fill="white"/>
</svg>
