<svg width="1152" height="587" viewBox="0 0 1152 587" fill="none" xmlns="http://www.w3.org/2000/svg">
<path d="M0 0H1152V587H0V0Z" fill="white" fill-opacity="0.01"/>
<circle cx="139.5" cy="70.5" r="9.5" fill="#4000C7"/>
<circle cx="139.5" cy="348.5" r="9.5" fill="#4000C7"/>
<circle cx="139.5" cy="182.5" r="9.5" fill="#4000C7"/>
<path d="M288.735 314.398L285.791 321H284.844L287.778 314.633H283.931V313.891H288.735V314.398ZM289.634 318.314C289.634 317.504 289.826 316.853 290.21 316.361C290.594 315.867 291.097 315.619 291.719 315.619C292.337 315.619 292.827 315.831 293.188 316.254V313.5H294.092V321H293.262L293.218 320.434C292.856 320.876 292.354 321.098 291.709 321.098C291.097 321.098 290.597 320.847 290.21 320.346C289.826 319.844 289.634 319.19 289.634 318.383V318.314ZM290.537 318.417C290.537 319.016 290.661 319.485 290.908 319.823C291.156 320.162 291.497 320.331 291.934 320.331C292.507 320.331 292.925 320.074 293.188 319.56V317.133C292.918 316.635 292.503 316.386 291.943 316.386C291.501 316.386 291.156 316.557 290.908 316.898C290.661 317.24 290.537 317.746 290.537 318.417ZM295.283 318.314C295.283 317.491 295.474 316.837 295.854 316.352C296.235 315.863 296.74 315.619 297.368 315.619C298.013 315.619 298.516 315.847 298.877 316.303L298.921 315.717H299.746V320.873C299.746 321.557 299.543 322.095 299.136 322.489C298.732 322.883 298.188 323.08 297.505 323.08C297.124 323.08 296.751 322.999 296.387 322.836C296.022 322.673 295.744 322.45 295.552 322.167L296.021 321.625C296.408 322.104 296.882 322.343 297.441 322.343C297.881 322.343 298.223 322.219 298.467 321.972C298.714 321.724 298.838 321.376 298.838 320.927V320.473C298.477 320.889 297.983 321.098 297.358 321.098C296.74 321.098 296.239 320.849 295.854 320.351C295.474 319.853 295.283 319.174 295.283 318.314ZM296.191 318.417C296.191 319.013 296.313 319.481 296.558 319.823C296.802 320.162 297.144 320.331 297.583 320.331C298.153 320.331 298.571 320.072 298.838 319.555V317.143C298.561 316.638 298.146 316.386 297.593 316.386C297.153 316.386 296.81 316.557 296.562 316.898C296.315 317.24 296.191 317.746 296.191 318.417ZM302.588 318.554L302.021 319.145V321H301.118V313.5H302.021V318.036L302.505 317.455L304.15 315.717H305.249L303.193 317.924L305.488 321H304.429L302.588 318.554ZM309.443 321C309.391 320.896 309.349 320.71 309.316 320.443C308.896 320.88 308.395 321.098 307.812 321.098C307.292 321.098 306.864 320.951 306.528 320.658C306.196 320.362 306.03 319.988 306.03 319.535C306.03 318.985 306.239 318.559 306.655 318.256C307.075 317.95 307.664 317.797 308.423 317.797H309.302V317.382C309.302 317.066 309.207 316.815 309.019 316.63C308.83 316.441 308.551 316.347 308.184 316.347C307.861 316.347 307.591 316.428 307.373 316.591C307.155 316.754 307.046 316.951 307.046 317.182H306.138C306.138 316.918 306.23 316.664 306.416 316.42C306.605 316.173 306.859 315.977 307.178 315.834C307.5 315.691 307.853 315.619 308.237 315.619C308.846 315.619 309.323 315.772 309.668 316.078C310.013 316.381 310.192 316.799 310.205 317.333V319.765C310.205 320.25 310.267 320.635 310.391 320.922V321H309.443ZM307.944 320.312C308.228 320.312 308.496 320.238 308.75 320.092C309.004 319.945 309.188 319.755 309.302 319.521V318.437H308.594C307.487 318.437 306.934 318.76 306.934 319.408C306.934 319.691 307.028 319.913 307.217 320.072C307.406 320.232 307.648 320.312 307.944 320.312ZM312.524 316.356C312.925 315.865 313.446 315.619 314.087 315.619C315.203 315.619 315.767 316.249 315.776 317.509V321H314.873V317.504C314.87 317.123 314.782 316.841 314.609 316.659C314.44 316.477 314.175 316.386 313.813 316.386C313.521 316.386 313.263 316.464 313.042 316.62C312.821 316.776 312.648 316.981 312.524 317.235V321H311.621V313.5H312.524V316.356ZM281.621 328.73C283.101 328.57 284.401 328.04 284.951 327.16C285.491 328.04 286.801 328.57 288.281 328.73L288.531 328.09C286.851 327.95 285.491 327.27 285.401 326.3H288.171V325.65H285.361V324.74H284.541V325.65H281.731V326.3H284.491C284.401 327.27 283.041 327.95 281.371 328.09L281.621 328.73ZM287.181 332.24C287.181 332.8 286.361 333.11 284.941 333.11C283.521 333.11 282.701 332.8 282.701 332.24C282.701 331.69 283.521 331.37 284.941 331.37C286.361 331.37 287.181 331.69 287.181 332.24ZM289.001 329.86V329.2H280.891V329.86H284.541V330.76C282.851 330.83 281.871 331.35 281.871 332.24C281.871 333.21 283.011 333.73 284.951 333.73C286.871 333.73 288.011 333.21 288.011 332.24C288.011 331.35 287.031 330.83 285.351 330.76V329.86H289.001ZM291.891 332.1H297.161V330.08H291.061V330.71H296.351V331.5H291.091V333.63H297.431V333H291.891V332.1ZM294.561 328.67V327.82H297.241V327.16H291.991V325.77H297.151V325.11H291.171V327.82H293.741V328.67H290.081V329.33H298.201V328.67H294.561ZM309.49 328.19C307.86 327.95 306.26 326.84 306.26 325.59V325.09H305.4V325.59C305.4 326.87 303.82 327.95 302.19 328.19L302.52 328.85C303.92 328.61 305.27 327.84 305.83 326.75C306.41 327.83 307.76 328.61 309.15 328.85L309.49 328.19ZM309.88 329.82H301.78V330.5H305.4V333.75H306.22V330.5H309.89L309.88 329.82ZM315.759 327.1V327.77H317.529V330.12H318.359V324.78H317.529V327.1H315.759ZM316.259 329.14C314.959 328.68 314.079 327.55 314.079 326.4V326.09H316.049V325.43H311.259V326.09H313.259V326.4C313.259 327.69 312.339 328.9 310.999 329.39L311.429 330.04C312.479 329.64 313.309 328.8 313.689 327.76C314.079 328.68 314.849 329.42 315.849 329.78L316.259 329.14ZM315.399 333.1C314.049 333.1 313.229 332.72 313.229 332.07C313.229 331.42 314.049 331.03 315.399 331.03C316.749 331.03 317.569 331.42 317.569 332.07C317.569 332.72 316.749 333.1 315.399 333.1ZM315.399 330.4C313.559 330.4 312.409 331.01 312.409 332.07C312.409 333.13 313.559 333.74 315.399 333.74C317.239 333.74 318.389 333.13 318.389 332.07C318.389 331.01 317.239 330.4 315.399 330.4Z" fill="black"/>
<path d="M289.735 145.398L286.791 152H285.844L288.778 145.633H284.931V144.891H289.735V145.398ZM290.634 149.314C290.634 148.504 290.826 147.853 291.21 147.361C291.594 146.867 292.097 146.619 292.719 146.619C293.337 146.619 293.827 146.831 294.188 147.254V144.5H295.092V152H294.262L294.218 151.434C293.856 151.876 293.354 152.098 292.709 152.098C292.097 152.098 291.597 151.847 291.21 151.346C290.826 150.844 290.634 150.19 290.634 149.383V149.314ZM291.537 149.417C291.537 150.016 291.661 150.485 291.908 150.823C292.156 151.162 292.497 151.331 292.934 151.331C293.507 151.331 293.925 151.074 294.188 150.56V148.133C293.918 147.635 293.503 147.386 292.943 147.386C292.501 147.386 292.156 147.557 291.908 147.898C291.661 148.24 291.537 148.746 291.537 149.417ZM296.283 149.314C296.283 148.491 296.474 147.837 296.854 147.352C297.235 146.863 297.74 146.619 298.368 146.619C299.013 146.619 299.516 146.847 299.877 147.303L299.921 146.717H300.746V151.873C300.746 152.557 300.543 153.095 300.136 153.489C299.732 153.883 299.188 154.08 298.505 154.08C298.124 154.08 297.751 153.999 297.387 153.836C297.022 153.673 296.744 153.45 296.552 153.167L297.021 152.625C297.408 153.104 297.882 153.343 298.441 153.343C298.881 153.343 299.223 153.219 299.467 152.972C299.714 152.724 299.838 152.376 299.838 151.927V151.473C299.477 151.889 298.983 152.098 298.358 152.098C297.74 152.098 297.239 151.849 296.854 151.351C296.474 150.853 296.283 150.174 296.283 149.314ZM297.191 149.417C297.191 150.013 297.313 150.481 297.558 150.823C297.802 151.162 298.144 151.331 298.583 151.331C299.153 151.331 299.571 151.072 299.838 150.555V148.143C299.561 147.638 299.146 147.386 298.593 147.386C298.153 147.386 297.81 147.557 297.562 147.898C297.315 148.24 297.191 148.746 297.191 149.417ZM303.588 149.554L303.021 150.145V152H302.118V144.5H303.021V149.036L303.505 148.455L305.15 146.717H306.249L304.193 148.924L306.488 152H305.429L303.588 149.554ZM310.443 152C310.391 151.896 310.349 151.71 310.316 151.443C309.896 151.88 309.395 152.098 308.812 152.098C308.292 152.098 307.864 151.951 307.528 151.658C307.196 151.362 307.03 150.988 307.03 150.535C307.03 149.985 307.239 149.559 307.655 149.256C308.075 148.95 308.664 148.797 309.423 148.797H310.302V148.382C310.302 148.066 310.207 147.815 310.019 147.63C309.83 147.441 309.551 147.347 309.184 147.347C308.861 147.347 308.591 147.428 308.373 147.591C308.155 147.754 308.046 147.951 308.046 148.182H307.138C307.138 147.918 307.23 147.664 307.416 147.42C307.605 147.173 307.859 146.977 308.178 146.834C308.5 146.691 308.853 146.619 309.237 146.619C309.846 146.619 310.323 146.772 310.668 147.078C311.013 147.381 311.192 147.799 311.205 148.333V150.765C311.205 151.25 311.267 151.635 311.391 151.922V152H310.443ZM308.944 151.312C309.228 151.312 309.496 151.238 309.75 151.092C310.004 150.945 310.188 150.755 310.302 150.521V149.437H309.594C308.487 149.437 307.934 149.76 307.934 150.408C307.934 150.691 308.028 150.913 308.217 151.072C308.406 151.232 308.648 151.312 308.944 151.312ZM313.524 147.356C313.925 146.865 314.446 146.619 315.087 146.619C316.203 146.619 316.767 147.249 316.776 148.509V152H315.873V148.504C315.87 148.123 315.782 147.841 315.609 147.659C315.44 147.477 315.175 147.386 314.813 147.386C314.521 147.386 314.263 147.464 314.042 147.62C313.821 147.776 313.648 147.981 313.524 148.235V152H312.621V144.5H313.524V147.356ZM282.621 159.73C284.101 159.57 285.401 159.04 285.951 158.16C286.491 159.04 287.801 159.57 289.281 159.73L289.531 159.09C287.851 158.95 286.491 158.27 286.401 157.3H289.171V156.65H286.361V155.74H285.541V156.65H282.731V157.3H285.491C285.401 158.27 284.041 158.95 282.371 159.09L282.621 159.73ZM288.181 163.24C288.181 163.8 287.361 164.11 285.941 164.11C284.521 164.11 283.701 163.8 283.701 163.24C283.701 162.69 284.521 162.37 285.941 162.37C287.361 162.37 288.181 162.69 288.181 163.24ZM290.001 160.86V160.2H281.891V160.86H285.541V161.76C283.851 161.83 282.871 162.35 282.871 163.24C282.871 164.21 284.011 164.73 285.951 164.73C287.871 164.73 289.011 164.21 289.011 163.24C289.011 162.35 288.031 161.83 286.351 161.76V160.86H290.001ZM292.891 163.1H298.161V161.08H292.061V161.71H297.351V162.5H292.091V164.63H298.431V164H292.891V163.1ZM295.561 159.67V158.82H298.241V158.16H292.991V156.77H298.151V156.11H292.171V158.82H294.741V159.67H291.081V160.33H299.201V159.67H295.561ZM310.49 159.19C308.86 158.95 307.26 157.84 307.26 156.59V156.09H306.4V156.59C306.4 157.87 304.82 158.95 303.19 159.19L303.52 159.85C304.92 159.61 306.27 158.84 306.83 157.75C307.41 158.83 308.76 159.61 310.15 159.85L310.49 159.19ZM310.88 160.82H302.78V161.5H306.4V164.75H307.22V161.5H310.89L310.88 160.82ZM316.759 158.1V158.77H318.529V161.12H319.359V155.78H318.529V158.1H316.759ZM317.259 160.14C315.959 159.68 315.079 158.55 315.079 157.4V157.09H317.049V156.43H312.259V157.09H314.259V157.4C314.259 158.69 313.339 159.9 311.999 160.39L312.429 161.04C313.479 160.64 314.309 159.8 314.689 158.76C315.079 159.68 315.849 160.42 316.849 160.78L317.259 160.14ZM316.399 164.1C315.049 164.1 314.229 163.72 314.229 163.07C314.229 162.42 315.049 162.03 316.399 162.03C317.749 162.03 318.569 162.42 318.569 163.07C318.569 163.72 317.749 164.1 316.399 164.1ZM316.399 161.4C314.559 161.4 313.409 162.01 313.409 163.07C313.409 164.13 314.559 164.74 316.399 164.74C318.239 164.74 319.389 164.13 319.389 163.07C319.389 162.01 318.239 161.4 316.399 161.4Z" fill="black"/>
<path d="M300.354 209.646C300.158 209.451 299.842 209.451 299.646 209.646L296.464 212.828C296.269 213.024 296.269 213.34 296.464 213.536C296.66 213.731 296.976 213.731 297.172 213.536L300 210.707L302.828 213.536C303.024 213.731 303.34 213.731 303.536 213.536C303.731 213.34 303.731 213.024 303.536 212.828L300.354 209.646ZM300.5 303L300.5 210L299.5 210L299.5 303L300.5 303Z" fill="#4000C7"/>
<circle cx="219.5" cy="348.5" r="9" fill="#4000C7" stroke="#4000C7" stroke-dasharray="2 2"/>
<circle cx="219.5" cy="182.5" r="9.5" fill="#4000C7"/>
<circle cx="299.5" cy="182.5" r="9.5" fill="#4000C7"/>
<rect x="320.031" y="365.209" width="18" height="41" rx="5" transform="rotate(-64.2277 320.031 365.209)" fill="black"/>
<rect x="316.031" y="199.209" width="18" height="41" rx="5" transform="rotate(-64.2277 316.031 199.209)" fill="black"/>
<path d="M316.739 353.626L325.456 353.988L322.443 360.227L316.739 353.626Z" fill="black"/>
<path d="M312.739 187.626L321.456 187.988L318.443 194.227L312.739 187.626Z" fill="black"/>
<path d="M333.791 359.219L333.535 359.811C334.137 359.545 334.764 359.569 335.415 359.884C336.147 360.237 336.51 360.758 336.503 361.447C336.799 361.279 337.122 361.185 337.475 361.164C337.83 361.145 338.198 361.227 338.578 361.411C339.726 361.965 340.016 362.855 339.449 364.08L337.756 367.586L336.861 367.154L338.528 363.701C338.709 363.327 338.758 363.007 338.676 362.74C338.595 362.471 338.353 362.239 337.95 362.044C337.618 361.884 337.294 361.851 336.978 361.945C336.664 362.036 336.408 362.24 336.211 362.558L334.534 366.031L333.635 365.597L335.29 362.167C335.658 361.406 335.469 360.846 334.724 360.487C334.137 360.203 333.615 360.259 333.158 360.655L331.313 364.476L330.418 364.044L332.945 358.81L333.791 359.219ZM342.341 369.8C342.339 369.672 342.386 369.468 342.481 369.188C341.857 369.419 341.256 369.396 340.679 369.117C340.163 368.868 339.809 368.518 339.617 368.068C339.43 367.615 339.444 367.165 339.661 366.717C339.924 366.172 340.334 365.849 340.892 365.749C341.454 365.646 342.111 365.777 342.862 366.139L343.733 366.56L343.931 366.149C344.082 365.836 344.108 365.542 344.01 365.268C343.913 364.991 343.683 364.764 343.319 364.588C342.999 364.434 342.693 364.386 342.399 364.443C342.105 364.499 341.903 364.642 341.792 364.871L340.893 364.437C341.019 364.176 341.232 363.969 341.533 363.816C341.838 363.661 342.183 363.589 342.567 363.599C342.955 363.612 343.339 363.71 343.72 363.893C344.323 364.184 344.722 364.564 344.917 365.032C345.114 365.497 345.092 365.997 344.849 366.532L343.686 368.941C343.454 369.421 343.331 369.833 343.317 370.176L343.279 370.253L342.341 369.8ZM341.185 368.401C341.466 368.537 341.767 368.593 342.088 368.569C342.41 368.545 342.683 368.445 342.908 368.267L343.427 367.193L342.725 366.855C341.629 366.325 340.926 366.381 340.616 367.023C340.481 367.304 340.468 367.568 340.579 367.816C340.69 368.065 340.892 368.26 341.185 368.401ZM345.47 371.311L344.576 370.879L347.102 365.646L347.997 366.078L345.47 371.311ZM347.7 364.223C347.77 364.078 347.873 363.976 348.008 363.918C348.147 363.862 348.303 363.876 348.477 363.96C348.651 364.044 348.759 364.158 348.801 364.301C348.843 364.445 348.829 364.589 348.759 364.734C348.689 364.879 348.586 364.978 348.449 365.031C348.312 365.085 348.156 365.069 347.982 364.985C347.808 364.901 347.699 364.789 347.655 364.648C347.615 364.51 347.63 364.368 347.7 364.223ZM350.28 367.18L349.992 367.852C350.634 367.542 351.278 367.543 351.923 367.854C353.029 368.388 353.286 369.281 352.693 370.534L351.023 373.992L350.128 373.56L351.8 370.097C351.979 369.718 352.027 369.397 351.943 369.134C351.863 368.873 351.643 368.655 351.285 368.483C350.995 368.343 350.703 368.297 350.409 368.346C350.115 368.395 349.846 368.515 349.602 368.708L347.802 372.437L346.907 372.005L349.434 366.771L350.28 367.18Z" fill="white"/>
<path d="M329.791 193.219L329.535 193.811C330.137 193.545 330.764 193.569 331.415 193.884C332.147 194.237 332.51 194.758 332.503 195.447C332.799 195.279 333.122 195.185 333.475 195.164C333.83 195.145 334.198 195.227 334.578 195.411C335.726 195.965 336.016 196.855 335.449 198.08L333.756 201.586L332.861 201.154L334.528 197.701C334.709 197.327 334.758 197.007 334.676 196.74C334.595 196.471 334.353 196.239 333.95 196.044C333.618 195.884 333.294 195.851 332.978 195.945C332.664 196.036 332.408 196.24 332.211 196.558L330.534 200.031L329.635 199.597L331.29 196.167C331.658 195.406 331.469 194.846 330.724 194.487C330.137 194.203 329.615 194.259 329.158 194.655L327.313 198.476L326.418 198.044L328.945 192.81L329.791 193.219ZM338.341 203.8C338.339 203.672 338.386 203.468 338.481 203.188C337.857 203.419 337.256 203.396 336.679 203.117C336.163 202.868 335.809 202.518 335.617 202.068C335.43 201.615 335.444 201.165 335.661 200.717C335.924 200.172 336.334 199.849 336.892 199.749C337.454 199.646 338.111 199.777 338.862 200.139L339.733 200.56L339.931 200.149C340.082 199.836 340.108 199.542 340.01 199.268C339.913 198.991 339.683 198.764 339.319 198.588C338.999 198.434 338.693 198.386 338.399 198.443C338.105 198.499 337.903 198.642 337.792 198.871L336.893 198.437C337.019 198.176 337.232 197.969 337.533 197.816C337.838 197.661 338.183 197.589 338.567 197.599C338.955 197.612 339.339 197.71 339.72 197.893C340.323 198.184 340.722 198.564 340.917 199.032C341.114 199.497 341.092 199.997 340.849 200.532L339.686 202.941C339.454 203.421 339.331 203.833 339.317 204.176L339.279 204.253L338.341 203.8ZM337.185 202.401C337.466 202.537 337.767 202.593 338.088 202.569C338.41 202.545 338.683 202.445 338.908 202.267L339.427 201.193L338.725 200.855C337.629 200.325 336.926 200.381 336.616 201.023C336.481 201.304 336.468 201.568 336.579 201.816C336.69 202.065 336.892 202.26 337.185 202.401ZM341.47 205.311L340.576 204.879L343.102 199.646L343.997 200.078L341.47 205.311ZM343.7 198.223C343.77 198.078 343.873 197.976 344.008 197.918C344.147 197.862 344.303 197.876 344.477 197.96C344.651 198.044 344.759 198.158 344.801 198.301C344.843 198.445 344.829 198.589 344.759 198.734C344.689 198.879 344.586 198.978 344.449 199.031C344.312 199.085 344.156 199.069 343.982 198.985C343.808 198.901 343.699 198.789 343.655 198.648C343.615 198.51 343.63 198.368 343.7 198.223ZM346.28 201.18L345.992 201.852C346.634 201.542 347.278 201.543 347.923 201.854C349.029 202.388 349.286 203.281 348.693 204.534L347.023 207.992L346.128 207.56L347.8 204.097C347.979 203.718 348.027 203.397 347.943 203.134C347.863 202.873 347.643 202.655 347.285 202.483C346.995 202.343 346.703 202.297 346.409 202.346C346.115 202.395 345.846 202.515 345.602 202.708L343.802 206.437L342.907 206.005L345.434 200.771L346.28 201.18Z" fill="white"/>
<rect x="318.031" y="87.2095" width="18" height="41" rx="5" transform="rotate(-64.2277 318.031 87.2095)" fill="black"/>
<path d="M314.739 75.6264L323.675 76.0939L320.662 82.333L314.739 75.6264Z" fill="black"/>
<path d="M331.791 81.219L331.535 81.8111C332.137 81.5449 332.764 81.5691 333.415 81.8836C334.147 82.237 334.51 82.7581 334.503 83.4468C334.799 83.2794 335.122 83.1852 335.475 83.1643C335.83 83.145 336.198 83.2272 336.578 83.4109C337.726 83.9651 338.016 84.8548 337.449 86.0798L335.756 89.5865L334.861 89.1544L336.528 85.7009C336.709 85.3269 336.758 85.0067 336.676 84.7404C336.595 84.4708 336.353 84.2388 335.95 84.0442C335.618 83.8838 335.294 83.8507 334.978 83.9447C334.664 84.0355 334.408 84.2401 334.211 84.5583L332.534 88.0311L331.635 87.5968L333.29 84.1675C333.658 83.4065 333.469 82.8461 332.724 82.4865C332.137 82.2031 331.615 82.2592 331.158 82.6547L329.313 86.4758L328.418 86.0438L330.945 80.8103L331.791 81.219ZM340.341 91.8003C340.339 91.6723 340.386 91.4682 340.481 91.1882C339.857 91.4195 339.256 91.3958 338.679 91.1171C338.163 90.868 337.809 90.5181 337.617 90.0676C337.43 89.6153 337.444 89.1651 337.661 88.7169C337.924 88.172 338.334 87.8492 338.892 87.7486C339.454 87.6463 340.111 87.7766 340.862 88.1393L341.733 88.5597L341.931 88.1485C342.082 87.8358 342.108 87.5423 342.01 87.2682C341.913 86.9909 341.683 86.7643 341.319 86.5883C340.999 86.4342 340.693 86.3856 340.399 86.4425C340.105 86.4994 339.903 86.6424 339.792 86.8713L338.893 86.4369C339.019 86.1757 339.232 85.9686 339.533 85.8155C339.838 85.6607 340.183 85.5887 340.567 85.5994C340.955 85.6116 341.339 85.7096 341.72 85.8933C342.323 86.1845 342.722 86.5641 342.917 87.0323C343.114 87.4972 343.092 87.9971 342.849 88.5322L341.686 90.9409C341.454 91.4214 341.331 91.8331 341.317 92.176L341.279 92.2534L340.341 91.8003ZM339.185 90.4014C339.466 90.5369 339.767 90.5927 340.088 90.5691C340.41 90.5454 340.683 90.4447 340.908 90.2671L341.427 89.1933L340.725 88.8547C339.629 88.3253 338.926 88.3815 338.616 89.0232C338.481 89.3037 338.468 89.5681 338.579 89.8164C338.69 90.0647 338.892 90.2597 339.185 90.4014ZM343.47 93.3113L342.576 92.8793L345.102 87.6458L345.997 88.0779L343.47 93.3113ZM345.7 86.2226C345.77 86.0775 345.873 85.976 346.008 85.9181C346.147 85.8617 346.303 85.8756 346.477 85.9596C346.651 86.0437 346.759 86.1575 346.801 86.3011C346.843 86.4446 346.829 86.589 346.759 86.7341C346.689 86.8792 346.586 86.9783 346.449 87.0314C346.312 87.0846 346.156 87.0691 345.982 86.985C345.808 86.901 345.699 86.7888 345.655 86.6484C345.615 86.5097 345.63 86.3677 345.7 86.2226ZM348.28 89.1801L347.992 89.852C348.634 89.542 349.278 89.5427 349.923 89.8541C351.029 90.3881 351.286 91.2814 350.693 92.5339L349.023 95.9923L348.128 95.5602L349.8 92.0971C349.979 91.7182 350.027 91.3973 349.943 91.1342C349.863 90.8726 349.643 90.6555 349.285 90.4827C348.995 90.3425 348.703 90.2969 348.409 90.3458C348.115 90.3948 347.846 90.5154 347.602 90.7077L345.802 94.4369L344.907 94.0049L347.434 88.7714L348.28 89.1801Z" fill="white"/>
<circle cx="219.5" cy="70.5" r="9.5" fill="#4000C7"/>
<circle cx="300.5" cy="70.5" r="9.5" fill="#4000C7"/>
<line x1="140" y1="70.5" x2="301" y2="70.5" stroke="#4000C7"/>
<line x1="140" y1="348.5" x2="301" y2="348.5" stroke="#4000C7"/>
<line x1="140" y1="182.5" x2="296" y2="182.5" stroke="#4000C7"/>
<circle cx="300.5" cy="349.5" r="9.5" fill="#4000C7"/>
</svg>
