<svg width="1152" height="587" viewBox="0 0 1152 587" fill="none" xmlns="http://www.w3.org/2000/svg">
<path d="M0 0H1152V587H0V0Z" fill="white" fill-opacity="0.01"/>
<path d="M331.048 323H330.14V316.979L328.318 317.648V316.828L330.906 315.856H331.048V323ZM333.567 320.314C333.567 319.504 333.759 318.853 334.144 318.361C334.528 317.867 335.031 317.619 335.652 317.619C336.271 317.619 336.761 317.831 337.122 318.254V315.5H338.025V323H337.195L337.151 322.434C336.79 322.876 336.287 323.098 335.643 323.098C335.031 323.098 334.531 322.847 334.144 322.346C333.759 321.844 333.567 321.19 333.567 320.383V320.314ZM334.471 320.417C334.471 321.016 334.594 321.485 334.842 321.823C335.089 322.162 335.431 322.331 335.867 322.331C336.44 322.331 336.858 322.074 337.122 321.56V319.133C336.852 318.635 336.437 318.386 335.877 318.386C335.434 318.386 335.089 318.557 334.842 318.898C334.594 319.24 334.471 319.746 334.471 320.417ZM341.624 323.098C340.908 323.098 340.325 322.863 339.876 322.395C339.427 321.923 339.202 321.293 339.202 320.505V320.339C339.202 319.815 339.301 319.348 339.5 318.938C339.702 318.524 339.982 318.202 340.34 317.971C340.701 317.736 341.092 317.619 341.512 317.619C342.199 317.619 342.732 317.845 343.113 318.298C343.494 318.75 343.685 319.398 343.685 320.241V320.617H340.105C340.118 321.138 340.27 321.56 340.56 321.882C340.853 322.201 341.224 322.36 341.673 322.36C341.992 322.36 342.262 322.295 342.483 322.165C342.705 322.035 342.898 321.862 343.064 321.647L343.616 322.077C343.174 322.757 342.509 323.098 341.624 323.098ZM341.512 318.361C341.147 318.361 340.841 318.495 340.594 318.762C340.346 319.025 340.193 319.396 340.135 319.875H342.781V319.807C342.755 319.348 342.632 318.993 342.41 318.742C342.189 318.488 341.889 318.361 341.512 318.361ZM348.953 317.746C348.953 318.101 348.859 318.417 348.67 318.693C348.484 318.97 348.232 319.187 347.913 319.343C348.284 319.502 348.577 319.735 348.792 320.041C349.01 320.347 349.119 320.694 349.119 321.081C349.119 321.696 348.911 322.186 348.494 322.551C348.081 322.915 347.535 323.098 346.858 323.098C346.175 323.098 345.626 322.915 345.213 322.551C344.803 322.183 344.598 321.693 344.598 321.081C344.598 320.697 344.702 320.35 344.91 320.041C345.122 319.732 345.413 319.497 345.784 319.338C345.468 319.182 345.219 318.965 345.037 318.688C344.855 318.412 344.764 318.098 344.764 317.746C344.764 317.147 344.956 316.672 345.34 316.32C345.724 315.969 346.23 315.793 346.858 315.793C347.483 315.793 347.988 315.969 348.372 316.32C348.759 316.672 348.953 317.147 348.953 317.746ZM348.216 321.062C348.216 320.664 348.089 320.34 347.835 320.09C347.584 319.839 347.256 319.714 346.849 319.714C346.442 319.714 346.115 319.838 345.867 320.085C345.623 320.332 345.501 320.658 345.501 321.062C345.501 321.465 345.62 321.783 345.857 322.014C346.098 322.245 346.432 322.36 346.858 322.36C347.282 322.36 347.614 322.245 347.854 322.014C348.095 321.779 348.216 321.462 348.216 321.062ZM346.858 316.535C346.504 316.535 346.215 316.646 345.994 316.867C345.776 317.085 345.667 317.383 345.667 317.761C345.667 318.122 345.774 318.415 345.989 318.64C346.207 318.861 346.497 318.972 346.858 318.972C347.22 318.972 347.508 318.861 347.723 318.64C347.941 318.415 348.05 318.122 348.05 317.761C348.05 317.399 347.938 317.105 347.713 316.877C347.488 316.649 347.203 316.535 346.858 316.535ZM354.847 316.398L351.902 323H350.955L353.89 316.633H350.042V315.891H354.847V316.398ZM360.53 323H355.872V322.351L358.333 319.616C358.698 319.203 358.948 318.868 359.085 318.61C359.225 318.35 359.295 318.081 359.295 317.805C359.295 317.434 359.183 317.129 358.958 316.892C358.733 316.654 358.434 316.535 358.06 316.535C357.61 316.535 357.26 316.664 357.01 316.921C356.762 317.175 356.639 317.53 356.639 317.985H355.735C355.735 317.331 355.945 316.802 356.365 316.398C356.788 315.995 357.353 315.793 358.06 315.793C358.72 315.793 359.243 315.967 359.627 316.315C360.011 316.66 360.203 317.121 360.203 317.697C360.203 318.397 359.757 319.23 358.865 320.197L356.961 322.263H360.53V323ZM366.053 320.417C366.053 321.224 365.867 321.874 365.496 322.365C365.125 322.854 364.627 323.098 364.002 323.098C363.335 323.098 362.819 322.862 362.454 322.39L362.41 323H361.58V315.5H362.483V318.298C362.848 317.845 363.351 317.619 363.992 317.619C364.633 317.619 365.136 317.862 365.501 318.347C365.869 318.832 366.053 319.496 366.053 320.339V320.417ZM365.149 320.314C365.149 319.699 365.031 319.224 364.793 318.889C364.555 318.553 364.214 318.386 363.768 318.386C363.172 318.386 362.744 318.662 362.483 319.216V321.501C362.76 322.054 363.191 322.331 363.777 322.331C364.21 322.331 364.547 322.163 364.788 321.828C365.029 321.493 365.149 320.988 365.149 320.314ZM332.291 328.31H330.481V327H329.671V328.31H327.881V328.97H332.291V328.31ZM330.081 332.99C329.401 332.99 328.921 332.42 328.921 331.63C328.921 330.84 329.401 330.27 330.081 330.27C330.741 330.27 331.231 330.84 331.231 331.63C331.231 332.42 330.741 332.99 330.081 332.99ZM330.081 329.58C328.991 329.58 328.201 330.42 328.201 331.63C328.201 332.84 328.991 333.68 330.081 333.68C331.161 333.68 331.951 332.84 331.951 331.63C331.951 330.42 331.161 329.58 330.081 329.58ZM333.041 330.23H332.041V330.92H333.041V335.29H333.821V326.97H333.041V330.23ZM334.731 326.77V335.74H335.511V326.77H334.731ZM338.361 328.3H341.621V327.62H337.541V333.54H338.231C339.931 333.54 341.011 333.48 342.311 333.24L342.211 332.56C341.001 332.79 339.951 332.85 338.361 332.85V328.3ZM343.661 326.77V330.02H341.091V330.7H343.661V335.76H344.481V326.77H343.661ZM356.49 330.19C354.86 329.95 353.26 328.84 353.26 327.59V327.09H352.4V327.59C352.4 328.87 350.82 329.95 349.19 330.19L349.52 330.85C350.92 330.61 352.27 329.84 352.83 328.75C353.41 329.83 354.76 330.61 356.15 330.85L356.49 330.19ZM356.88 331.82H348.78V332.5H352.4V335.75H353.22V332.5H356.89L356.88 331.82ZM362.759 329.1V329.77H364.529V332.12H365.359V326.78H364.529V329.1H362.759ZM363.259 331.14C361.959 330.68 361.079 329.55 361.079 328.4V328.09H363.049V327.43H358.259V328.09H360.259V328.4C360.259 329.69 359.339 330.9 357.999 331.39L358.429 332.04C359.479 331.64 360.309 330.8 360.689 329.76C361.079 330.68 361.849 331.42 362.849 331.78L363.259 331.14ZM362.399 335.1C361.049 335.1 360.229 334.72 360.229 334.07C360.229 333.42 361.049 333.03 362.399 333.03C363.749 333.03 364.569 333.42 364.569 334.07C364.569 334.72 363.749 335.1 362.399 335.1ZM362.399 332.4C360.559 332.4 359.409 333.01 359.409 334.07C359.409 335.13 360.559 335.74 362.399 335.74C364.239 335.74 365.389 335.13 365.389 334.07C365.389 333.01 364.239 332.4 362.399 332.4Z" fill="black"/>
<path d="M332.048 44H331.14V37.9795L329.318 38.6484V37.8281L331.906 36.8564H332.048V44ZM334.567 41.3145C334.567 40.5039 334.759 39.8529 335.144 39.3613C335.528 38.8665 336.031 38.6191 336.652 38.6191C337.271 38.6191 337.761 38.8307 338.122 39.2539V36.5H339.025V44H338.195L338.151 43.4336C337.79 43.8763 337.287 44.0977 336.643 44.0977C336.031 44.0977 335.531 43.847 335.144 43.3457C334.759 42.8444 334.567 42.1901 334.567 41.3828V41.3145ZM335.471 41.417C335.471 42.016 335.594 42.4847 335.842 42.8232C336.089 43.1618 336.431 43.3311 336.867 43.3311C337.44 43.3311 337.858 43.0739 338.122 42.5596V40.1328C337.852 39.6348 337.437 39.3857 336.877 39.3857C336.434 39.3857 336.089 39.5566 335.842 39.8984C335.594 40.2402 335.471 40.7464 335.471 41.417ZM342.624 44.0977C341.908 44.0977 341.325 43.8633 340.876 43.3945C340.427 42.9225 340.202 42.2926 340.202 41.5049V41.3389C340.202 40.8148 340.301 40.3477 340.5 39.9375C340.702 39.5241 340.982 39.2018 341.34 38.9707C341.701 38.7363 342.092 38.6191 342.512 38.6191C343.199 38.6191 343.732 38.8454 344.113 39.2979C344.494 39.7503 344.685 40.3981 344.685 41.2412V41.6172H341.105C341.118 42.138 341.27 42.5596 341.56 42.8818C341.853 43.2008 342.224 43.3604 342.673 43.3604C342.992 43.3604 343.262 43.2952 343.483 43.165C343.705 43.0348 343.898 42.8623 344.064 42.6475L344.616 43.0771C344.174 43.7575 343.509 44.0977 342.624 44.0977ZM342.512 39.3613C342.147 39.3613 341.841 39.4948 341.594 39.7617C341.346 40.0254 341.193 40.3965 341.135 40.875H343.781V40.8066C343.755 40.3477 343.632 39.9928 343.41 39.7422C343.189 39.4883 342.889 39.3613 342.512 39.3613ZM349.953 38.7461C349.953 39.1009 349.859 39.4167 349.67 39.6934C349.484 39.9701 349.232 40.1865 348.913 40.3428C349.284 40.5023 349.577 40.735 349.792 41.041C350.01 41.347 350.119 41.6937 350.119 42.0811C350.119 42.6963 349.911 43.1862 349.494 43.5508C349.081 43.9154 348.535 44.0977 347.858 44.0977C347.175 44.0977 346.626 43.9154 346.213 43.5508C345.803 43.1829 345.598 42.693 345.598 42.0811C345.598 41.6969 345.702 41.3503 345.91 41.041C346.122 40.7318 346.413 40.4974 346.784 40.3379C346.468 40.1816 346.219 39.9652 346.037 39.6885C345.855 39.4118 345.764 39.0977 345.764 38.7461C345.764 38.1471 345.956 37.6719 346.34 37.3203C346.724 36.9688 347.23 36.793 347.858 36.793C348.483 36.793 348.988 36.9688 349.372 37.3203C349.759 37.6719 349.953 38.1471 349.953 38.7461ZM349.216 42.0615C349.216 41.6644 349.089 41.3405 348.835 41.0898C348.584 40.8392 348.256 40.7139 347.849 40.7139C347.442 40.7139 347.115 40.8376 346.867 41.085C346.623 41.3324 346.501 41.6579 346.501 42.0615C346.501 42.4652 346.62 42.7826 346.857 43.0137C347.098 43.2448 347.432 43.3604 347.858 43.3604C348.282 43.3604 348.614 43.2448 348.854 43.0137C349.095 42.7793 349.216 42.4619 349.216 42.0615ZM347.858 37.5352C347.504 37.5352 347.215 37.6458 346.994 37.8672C346.776 38.0853 346.667 38.3831 346.667 38.7607C346.667 39.1221 346.774 39.415 346.989 39.6396C347.207 39.861 347.497 39.9717 347.858 39.9717C348.22 39.9717 348.508 39.861 348.723 39.6396C348.941 39.415 349.05 39.1221 349.05 38.7607C349.05 38.3994 348.938 38.1048 348.713 37.877C348.488 37.6491 348.203 37.5352 347.858 37.5352ZM355.847 37.3984L352.902 44H351.955L354.89 37.6328H351.042V36.8906H355.847V37.3984ZM361.53 44H356.872V43.3506L359.333 40.6162C359.698 40.2028 359.948 39.8675 360.085 39.6104C360.225 39.3499 360.295 39.0814 360.295 38.8047C360.295 38.4336 360.183 38.1292 359.958 37.8916C359.733 37.654 359.434 37.5352 359.06 37.5352C358.61 37.5352 358.26 37.6637 358.01 37.9209C357.762 38.1748 357.639 38.5296 357.639 38.9854H356.735C356.735 38.3311 356.945 37.8021 357.365 37.3984C357.788 36.9948 358.353 36.793 359.06 36.793C359.72 36.793 360.243 36.9671 360.627 37.3154C361.011 37.6605 361.203 38.1211 361.203 38.6973C361.203 39.3971 360.757 40.2305 359.865 41.1973L357.961 43.2627H361.53V44ZM367.053 41.417C367.053 42.2243 366.867 42.8737 366.496 43.3652C366.125 43.8535 365.627 44.0977 365.002 44.0977C364.335 44.0977 363.819 43.8617 363.454 43.3896L363.41 44H362.58V36.5H363.483V39.2979C363.848 38.8454 364.351 38.6191 364.992 38.6191C365.633 38.6191 366.136 38.8617 366.501 39.3467C366.869 39.8317 367.053 40.4958 367.053 41.3389V41.417ZM366.149 41.3145C366.149 40.6992 366.031 40.224 365.793 39.8887C365.555 39.5534 365.214 39.3857 364.768 39.3857C364.172 39.3857 363.744 39.6624 363.483 40.2158V42.501C363.76 43.0544 364.191 43.3311 364.777 43.3311C365.21 43.3311 365.547 43.1634 365.788 42.8281C366.029 42.4928 366.149 41.9883 366.149 41.3145ZM333.291 49.31H331.481V48H330.671V49.31H328.881V49.97H333.291V49.31ZM331.081 53.99C330.401 53.99 329.921 53.42 329.921 52.63C329.921 51.84 330.401 51.27 331.081 51.27C331.741 51.27 332.231 51.84 332.231 52.63C332.231 53.42 331.741 53.99 331.081 53.99ZM331.081 50.58C329.991 50.58 329.201 51.42 329.201 52.63C329.201 53.84 329.991 54.68 331.081 54.68C332.161 54.68 332.951 53.84 332.951 52.63C332.951 51.42 332.161 50.58 331.081 50.58ZM334.041 51.23H333.041V51.92H334.041V56.29H334.821V47.97H334.041V51.23ZM335.731 47.77V56.74H336.511V47.77H335.731ZM339.361 49.3H342.621V48.62H338.541V54.54H339.231C340.931 54.54 342.011 54.48 343.311 54.24L343.211 53.56C342.001 53.79 340.951 53.85 339.361 53.85V49.3ZM344.661 47.77V51.02H342.091V51.7H344.661V56.76H345.481V47.77H344.661ZM357.49 51.19C355.86 50.95 354.26 49.84 354.26 48.59V48.09H353.4V48.59C353.4 49.87 351.82 50.95 350.19 51.19L350.52 51.85C351.92 51.61 353.27 50.84 353.83 49.75C354.41 50.83 355.76 51.61 357.15 51.85L357.49 51.19ZM357.88 52.82H349.78V53.5H353.4V56.75H354.22V53.5H357.89L357.88 52.82ZM363.759 50.1V50.77H365.529V53.12H366.359V47.78H365.529V50.1H363.759ZM364.259 52.14C362.959 51.68 362.079 50.55 362.079 49.4V49.09H364.049V48.43H359.259V49.09H361.259V49.4C361.259 50.69 360.339 51.9 358.999 52.39L359.429 53.04C360.479 52.64 361.309 51.8 361.689 50.76C362.079 51.68 362.849 52.42 363.849 52.78L364.259 52.14ZM363.399 56.1C362.049 56.1 361.229 55.72 361.229 55.07C361.229 54.42 362.049 54.03 363.399 54.03C364.749 54.03 365.569 54.42 365.569 55.07C365.569 55.72 364.749 56.1 363.399 56.1ZM363.399 53.4C361.559 53.4 360.409 54.01 360.409 55.07C360.409 56.13 361.559 56.74 363.399 56.74C365.239 56.74 366.389 56.13 366.389 55.07C366.389 54.01 365.239 53.4 363.399 53.4Z" fill="black"/>
<rect x="386" y="302" width="88" height="27" rx="13.5" fill="#7D7D7D"/>
<path d="M406.241 312.408V313.279H408.204V314.852H406.241V315.723H408.204V318.193H409.283V309.314H408.204V312.408H406.241ZM406.241 310.731H403.563V309.288H402.497V310.731H399.715V311.589H406.241V310.731ZM401.392 314.449C401.392 313.63 402.055 313.071 403.017 313.071C403.979 313.071 404.642 313.63 404.642 314.449C404.642 315.281 403.979 315.853 403.017 315.853C402.055 315.853 401.392 315.281 401.392 314.449ZM405.656 314.449C405.656 313.123 404.564 312.239 403.017 312.239C401.47 312.239 400.378 313.123 400.378 314.449C400.378 315.788 401.47 316.685 403.017 316.685C404.564 316.685 405.656 315.788 405.656 314.449ZM402.861 319.831V317.439H401.795V320.702H409.556V319.831H402.861ZM415.093 311.55H417.212V310.679H411.804V311.55H414.066V312.46C414.066 314.826 413.195 316.815 411.531 317.751L412.181 318.557C413.39 317.855 414.209 316.594 414.599 315.008C415.015 316.386 415.821 317.517 416.965 318.154L417.589 317.335C415.938 316.477 415.093 314.592 415.093 312.46V311.55ZM420.566 309.288V314.007H419.032V309.561H418.031V320.39H419.032V314.891H420.566V320.962H421.593V309.288H420.566ZM436.4 309.314H435.334V317.842H436.4V309.314ZM433.956 315.333C432.24 314.761 431.031 313.344 431.031 311.771V311.134H433.67V310.276H427.274V311.134H429.939V311.771C429.939 313.435 428.756 314.956 426.988 315.567L427.547 316.399C428.925 315.905 430.004 314.852 430.498 313.526C431.031 314.748 432.097 315.71 433.436 316.178L433.956 315.333ZM429.965 319.831V317.036H428.899V320.702H436.751V319.831H429.965ZM446.123 313.344H447.605V316.685H448.632V309.301H447.605V312.473H446.123V309.522H445.109V316.256H446.123V313.344ZM444.641 310.692H442.223V309.392H441.17V310.692H438.726V311.537H444.654L444.641 310.692ZM440.169 314.137C440.169 313.422 440.78 312.941 441.703 312.941C442.613 312.941 443.237 313.422 443.237 314.137C443.237 314.865 442.613 315.346 441.703 315.346C440.78 315.346 440.169 314.865 440.169 314.137ZM444.186 314.137C444.186 312.941 443.172 312.148 441.703 312.148C440.234 312.148 439.207 312.941 439.207 314.137C439.207 315.359 440.234 316.139 441.703 316.139C443.172 316.139 444.186 315.359 444.186 314.137ZM444.797 320.13C443.016 320.13 441.95 319.688 441.95 318.921C441.95 318.141 443.016 317.699 444.797 317.699C446.565 317.699 447.631 318.141 447.631 318.921C447.631 319.688 446.565 320.13 444.797 320.13ZM444.797 316.88C442.366 316.88 440.897 317.608 440.897 318.921C440.897 320.221 442.366 320.949 444.797 320.949C447.228 320.949 448.697 320.221 448.697 318.921C448.697 317.608 447.228 316.88 444.797 316.88ZM451.725 314.059C453.636 313.825 455.391 312.967 456.028 311.68C456.678 312.967 458.42 313.825 460.331 314.059L460.708 313.214C458.667 312.98 456.808 311.979 456.717 310.692H460.344V309.834H451.725V310.692H455.339C455.248 311.979 453.389 312.98 451.348 313.214L451.725 314.059ZM458.927 318.895C458.927 319.675 457.835 320.13 456.015 320.13C454.182 320.13 453.103 319.675 453.103 318.895C453.103 318.115 454.182 317.673 456.015 317.673C457.835 317.673 458.927 318.115 458.927 318.895ZM461.293 315.619V314.761H450.75V315.619H455.482V316.867C453.311 316.971 452.024 317.686 452.024 318.895C452.024 320.221 453.532 320.949 456.028 320.949C458.511 320.949 460.006 320.221 460.006 318.895C460.006 317.686 458.732 316.971 456.561 316.867V315.619H461.293Z" fill="white"/>
<rect x="451.031" y="367.209" width="18" height="41" rx="5" transform="rotate(-64.2277 451.031 367.209)" fill="black"/>
<rect x="370.031" y="211.209" width="18" height="41" rx="5" transform="rotate(-64.2277 370.031 211.209)" fill="black"/>
<rect x="370.031" y="89.209" width="18" height="41" rx="5" transform="rotate(-64.2277 370.031 89.209)" fill="black"/>
<path d="M447.739 355.626L456.675 356.094L453.662 362.333L447.739 355.626Z" fill="black"/>
<path d="M366.739 199.626L375.675 200.094L372.662 206.333L366.739 199.626Z" fill="black"/>
<path d="M366.739 77.6264L375.675 78.0939L372.662 84.333L366.739 77.6264Z" fill="black"/>
<path d="M464.791 361.219L464.535 361.811C465.137 361.545 465.764 361.569 466.415 361.884C467.147 362.237 467.51 362.758 467.503 363.447C467.799 363.279 468.122 363.185 468.475 363.164C468.83 363.145 469.198 363.227 469.578 363.411C470.726 363.965 471.016 364.855 470.449 366.08L468.756 369.586L467.861 369.154L469.528 365.701C469.709 365.327 469.758 365.007 469.676 364.74C469.595 364.471 469.353 364.239 468.95 364.044C468.618 363.884 468.294 363.851 467.978 363.945C467.664 364.036 467.408 364.24 467.211 364.558L465.534 368.031L464.635 367.597L466.29 364.167C466.658 363.406 466.469 362.846 465.724 362.487C465.137 362.203 464.615 362.259 464.158 362.655L462.313 366.476L461.418 366.044L463.945 360.81L464.791 361.219ZM473.341 371.8C473.339 371.672 473.386 371.468 473.481 371.188C472.857 371.419 472.256 371.396 471.679 371.117C471.163 370.868 470.809 370.518 470.617 370.068C470.43 369.615 470.444 369.165 470.661 368.717C470.924 368.172 471.334 367.849 471.892 367.749C472.454 367.646 473.111 367.777 473.862 368.139L474.733 368.56L474.931 368.149C475.082 367.836 475.108 367.542 475.01 367.268C474.913 366.991 474.683 366.764 474.319 366.588C473.999 366.434 473.693 366.386 473.399 366.443C473.105 366.499 472.903 366.642 472.792 366.871L471.893 366.437C472.019 366.176 472.232 365.969 472.533 365.816C472.838 365.661 473.183 365.589 473.567 365.599C473.955 365.612 474.339 365.71 474.72 365.893C475.323 366.184 475.722 366.564 475.917 367.032C476.114 367.497 476.092 367.997 475.849 368.532L474.686 370.941C474.454 371.421 474.331 371.833 474.317 372.176L474.279 372.253L473.341 371.8ZM472.185 370.401C472.466 370.537 472.767 370.593 473.088 370.569C473.41 370.545 473.683 370.445 473.908 370.267L474.427 369.193L473.725 368.855C472.629 368.325 471.926 368.381 471.616 369.023C471.481 369.304 471.468 369.568 471.579 369.816C471.69 370.065 471.892 370.26 472.185 370.401ZM476.47 373.311L475.576 372.879L478.102 367.646L478.997 368.078L476.47 373.311ZM478.7 366.223C478.77 366.078 478.873 365.976 479.008 365.918C479.147 365.862 479.303 365.876 479.477 365.96C479.651 366.044 479.759 366.158 479.801 366.301C479.843 366.445 479.829 366.589 479.759 366.734C479.689 366.879 479.586 366.978 479.449 367.031C479.312 367.085 479.156 367.069 478.982 366.985C478.808 366.901 478.699 366.789 478.655 366.648C478.615 366.51 478.63 366.368 478.7 366.223ZM481.28 369.18L480.992 369.852C481.634 369.542 482.278 369.543 482.923 369.854C484.029 370.388 484.286 371.281 483.693 372.534L482.023 375.992L481.128 375.56L482.8 372.097C482.979 371.718 483.027 371.397 482.943 371.134C482.863 370.873 482.643 370.655 482.285 370.483C481.995 370.343 481.703 370.297 481.409 370.346C481.115 370.395 480.846 370.515 480.602 370.708L478.802 374.437L477.907 374.005L480.434 368.771L481.28 369.18Z" fill="white"/>
<path d="M383.791 205.219L383.535 205.811C384.137 205.545 384.764 205.569 385.415 205.884C386.147 206.237 386.51 206.758 386.503 207.447C386.799 207.279 387.122 207.185 387.475 207.164C387.83 207.145 388.198 207.227 388.578 207.411C389.726 207.965 390.016 208.855 389.449 210.08L387.756 213.586L386.861 213.154L388.528 209.701C388.709 209.327 388.758 209.007 388.676 208.74C388.595 208.471 388.353 208.239 387.95 208.044C387.618 207.884 387.294 207.851 386.978 207.945C386.664 208.036 386.408 208.24 386.211 208.558L384.534 212.031L383.635 211.597L385.29 208.167C385.658 207.406 385.469 206.846 384.724 206.487C384.137 206.203 383.615 206.259 383.158 206.655L381.313 210.476L380.418 210.044L382.945 204.81L383.791 205.219ZM392.341 215.8C392.339 215.672 392.386 215.468 392.481 215.188C391.857 215.419 391.256 215.396 390.679 215.117C390.163 214.868 389.809 214.518 389.617 214.068C389.43 213.615 389.444 213.165 389.661 212.717C389.924 212.172 390.334 211.849 390.892 211.749C391.454 211.646 392.111 211.777 392.862 212.139L393.733 212.56L393.931 212.149C394.082 211.836 394.108 211.542 394.01 211.268C393.913 210.991 393.683 210.764 393.319 210.588C392.999 210.434 392.693 210.386 392.399 210.443C392.105 210.499 391.903 210.642 391.792 210.871L390.893 210.437C391.019 210.176 391.232 209.969 391.533 209.816C391.838 209.661 392.183 209.589 392.567 209.599C392.955 209.612 393.339 209.71 393.72 209.893C394.323 210.184 394.722 210.564 394.917 211.032C395.114 211.497 395.092 211.997 394.849 212.532L393.686 214.941C393.454 215.421 393.331 215.833 393.317 216.176L393.279 216.253L392.341 215.8ZM391.185 214.401C391.466 214.537 391.767 214.593 392.088 214.569C392.41 214.545 392.683 214.445 392.908 214.267L393.427 213.193L392.725 212.855C391.629 212.325 390.926 212.381 390.616 213.023C390.481 213.304 390.468 213.568 390.579 213.816C390.69 214.065 390.892 214.26 391.185 214.401ZM395.47 217.311L394.576 216.879L397.102 211.646L397.997 212.078L395.47 217.311ZM397.7 210.223C397.77 210.078 397.873 209.976 398.008 209.918C398.147 209.862 398.303 209.876 398.477 209.96C398.651 210.044 398.759 210.158 398.801 210.301C398.843 210.445 398.829 210.589 398.759 210.734C398.689 210.879 398.586 210.978 398.449 211.031C398.312 211.085 398.156 211.069 397.982 210.985C397.808 210.901 397.699 210.789 397.655 210.648C397.615 210.51 397.63 210.368 397.7 210.223ZM400.28 213.18L399.992 213.852C400.634 213.542 401.278 213.543 401.923 213.854C403.029 214.388 403.286 215.281 402.693 216.534L401.023 219.992L400.128 219.56L401.8 216.097C401.979 215.718 402.027 215.397 401.943 215.134C401.863 214.873 401.643 214.655 401.285 214.483C400.995 214.343 400.703 214.297 400.409 214.346C400.115 214.395 399.846 214.515 399.602 214.708L397.802 218.437L396.907 218.005L399.434 212.771L400.28 213.18Z" fill="white"/>
<path d="M383.791 83.219L383.535 83.8111C384.137 83.5449 384.764 83.5691 385.415 83.8836C386.147 84.237 386.51 84.7581 386.503 85.4468C386.799 85.2794 387.122 85.1852 387.475 85.1643C387.83 85.145 388.198 85.2272 388.578 85.4109C389.726 85.9651 390.016 86.8548 389.449 88.0798L387.756 91.5865L386.861 91.1544L388.528 87.7009C388.709 87.3269 388.758 87.0067 388.676 86.7404C388.595 86.4708 388.353 86.2388 387.95 86.0442C387.618 85.8838 387.294 85.8507 386.978 85.9447C386.664 86.0355 386.408 86.2401 386.211 86.5583L384.534 90.0311L383.635 89.5968L385.29 86.1675C385.658 85.4065 385.469 84.8461 384.724 84.4865C384.137 84.2031 383.615 84.2592 383.158 84.6547L381.313 88.4758L380.418 88.0438L382.945 82.8103L383.791 83.219ZM392.341 93.8003C392.339 93.6723 392.386 93.4682 392.481 93.1882C391.857 93.4195 391.256 93.3958 390.679 93.1171C390.163 92.868 389.809 92.5181 389.617 92.0676C389.43 91.6153 389.444 91.1651 389.661 90.7169C389.924 90.172 390.334 89.8492 390.892 89.7486C391.454 89.6463 392.111 89.7766 392.862 90.1393L393.733 90.5597L393.931 90.1485C394.082 89.8358 394.108 89.5423 394.01 89.2682C393.913 88.9909 393.683 88.7643 393.319 88.5883C392.999 88.4342 392.693 88.3856 392.399 88.4425C392.105 88.4994 391.903 88.6424 391.792 88.8713L390.893 88.4369C391.019 88.1757 391.232 87.9686 391.533 87.8155C391.838 87.6607 392.183 87.5887 392.567 87.5994C392.955 87.6116 393.339 87.7096 393.72 87.8933C394.323 88.1845 394.722 88.5641 394.917 89.0323C395.114 89.4972 395.092 89.9971 394.849 90.5322L393.686 92.9409C393.454 93.4214 393.331 93.8331 393.317 94.176L393.279 94.2534L392.341 93.8003ZM391.185 92.4014C391.466 92.5369 391.767 92.5927 392.088 92.5691C392.41 92.5454 392.683 92.4447 392.908 92.2671L393.427 91.1933L392.725 90.8547C391.629 90.3253 390.926 90.3815 390.616 91.0232C390.481 91.3037 390.468 91.5681 390.579 91.8164C390.69 92.0647 390.892 92.2597 391.185 92.4014ZM395.47 95.3113L394.576 94.8793L397.102 89.6458L397.997 90.0779L395.47 95.3113ZM397.7 88.2226C397.77 88.0775 397.873 87.976 398.008 87.9181C398.147 87.8617 398.303 87.8756 398.477 87.9596C398.651 88.0437 398.759 88.1575 398.801 88.3011C398.843 88.4446 398.829 88.589 398.759 88.7341C398.689 88.8792 398.586 88.9783 398.449 89.0314C398.312 89.0846 398.156 89.0691 397.982 88.985C397.808 88.901 397.699 88.7888 397.655 88.6484C397.615 88.5097 397.63 88.3677 397.7 88.2226ZM400.28 91.1801L399.992 91.852C400.634 91.542 401.278 91.5427 401.923 91.8541C403.029 92.3881 403.286 93.2814 402.693 94.5339L401.023 97.9923L400.128 97.5602L401.8 94.0971C401.979 93.7182 402.027 93.3973 401.943 93.1342C401.863 92.8726 401.643 92.6555 401.285 92.4827C400.995 92.3425 400.703 92.2969 400.409 92.3458C400.115 92.3948 399.846 92.5154 399.602 92.7077L397.802 96.4369L396.907 96.0049L399.434 90.7714L400.28 91.1801Z" fill="white"/>
<circle cx="104.5" cy="350.5" r="9.5" fill="#4000C7"/>
<circle cx="104.5" cy="194.5" r="9.5" fill="#4000C7"/>
<circle cx="104.5" cy="72.5" r="9.5" fill="#4000C7"/>
<circle cx="184.5" cy="350.5" r="9.5" fill="#4000C7"/>
<circle cx="184.5" cy="194.5" r="9.5" fill="#4000C7"/>
<circle cx="184.5" cy="72.5" r="9.5" fill="#4000C7"/>
<circle cx="265.5" cy="350.5" r="9.5" fill="#4000C7"/>
<circle cx="265.5" cy="194.5" r="9.5" fill="#4000C7"/>
<circle cx="347.5" cy="194.5" r="9.5" fill="#4000C7"/>
<circle cx="347.5" cy="350.5" r="9.5" fill="#4000C7"/>
<circle cx="429.5" cy="350.5" r="9" fill="white" stroke="#4000C7" stroke-dasharray="2 2"/>
<circle cx="265.5" cy="72.5" r="9.5" fill="#4000C7"/>
<circle cx="347.5" cy="72.5" r="9.5" fill="#4000C7"/>
<line x1="111" y1="350.5" x2="420" y2="350.5" stroke="#4000C7"/>
<line x1="108" y1="194.5" x2="344" y2="194.5" stroke="#4000C7"/>
<line x1="108" y1="72.5" x2="344" y2="72.5" stroke="#4000C7"/>
<path d="M412.665 458H411.762V450.5H412.665V458ZM413.876 455.31C413.876 454.792 413.977 454.326 414.179 453.913C414.384 453.5 414.667 453.181 415.028 452.956C415.393 452.731 415.808 452.619 416.273 452.619C416.993 452.619 417.574 452.868 418.017 453.366C418.463 453.864 418.686 454.527 418.686 455.354V455.417C418.686 455.931 418.586 456.394 418.388 456.804C418.192 457.211 417.911 457.528 417.543 457.756C417.178 457.984 416.758 458.098 416.283 458.098C415.567 458.098 414.986 457.849 414.54 457.351C414.097 456.853 413.876 456.193 413.876 455.373V455.31ZM414.784 455.417C414.784 456.003 414.919 456.473 415.189 456.828C415.463 457.183 415.827 457.36 416.283 457.36C416.742 457.36 417.107 457.181 417.377 456.823C417.647 456.462 417.782 455.957 417.782 455.31C417.782 454.73 417.644 454.261 417.367 453.903C417.094 453.542 416.729 453.361 416.273 453.361C415.827 453.361 415.468 453.539 415.194 453.894C414.921 454.248 414.784 454.756 414.784 455.417ZM419.604 455.314C419.604 454.491 419.794 453.837 420.175 453.352C420.556 452.863 421.06 452.619 421.688 452.619C422.333 452.619 422.836 452.847 423.197 453.303L423.241 452.717H424.066V457.873C424.066 458.557 423.863 459.095 423.456 459.489C423.052 459.883 422.509 460.08 421.825 460.08C421.444 460.08 421.072 459.999 420.707 459.836C420.342 459.673 420.064 459.45 419.872 459.167L420.341 458.625C420.728 459.104 421.202 459.343 421.762 459.343C422.201 459.343 422.543 459.219 422.787 458.972C423.035 458.724 423.158 458.376 423.158 457.927V457.473C422.797 457.889 422.304 458.098 421.679 458.098C421.06 458.098 420.559 457.849 420.175 457.351C419.794 456.853 419.604 456.174 419.604 455.314ZM420.512 455.417C420.512 456.013 420.634 456.481 420.878 456.823C421.122 457.162 421.464 457.331 421.903 457.331C422.473 457.331 422.891 457.072 423.158 456.555V454.143C422.882 453.638 422.466 453.386 421.913 453.386C421.474 453.386 421.13 453.557 420.883 453.898C420.635 454.24 420.512 454.746 420.512 455.417ZM426.415 458H425.512V452.717H426.415V458ZM425.438 451.315C425.438 451.169 425.482 451.045 425.57 450.944C425.661 450.843 425.795 450.793 425.971 450.793C426.146 450.793 426.28 450.843 426.371 450.944C426.462 451.045 426.508 451.169 426.508 451.315C426.508 451.462 426.462 451.584 426.371 451.682C426.28 451.779 426.146 451.828 425.971 451.828C425.795 451.828 425.661 451.779 425.57 451.682C425.482 451.584 425.438 451.462 425.438 451.315ZM428.72 452.717L428.749 453.381C429.153 452.873 429.68 452.619 430.331 452.619C431.448 452.619 432.011 453.249 432.021 454.509V458H431.117V454.504C431.114 454.123 431.026 453.841 430.854 453.659C430.684 453.477 430.419 453.386 430.058 453.386C429.765 453.386 429.507 453.464 429.286 453.62C429.065 453.776 428.892 453.981 428.769 454.235V458H427.865V452.717H428.72ZM433.402 457.526C433.402 457.37 433.448 457.24 433.539 457.136C433.633 457.032 433.773 456.979 433.959 456.979C434.145 456.979 434.285 457.032 434.379 457.136C434.477 457.24 434.525 457.37 434.525 457.526C434.525 457.676 434.477 457.801 434.379 457.902C434.285 458.003 434.145 458.054 433.959 458.054C433.773 458.054 433.633 458.003 433.539 457.902C433.448 457.801 433.402 457.676 433.402 457.526ZM436.952 452.717V458.61C436.952 459.626 436.492 460.134 435.57 460.134C435.372 460.134 435.188 460.104 435.019 460.046V459.323C435.123 459.349 435.259 459.362 435.429 459.362C435.631 459.362 435.784 459.307 435.888 459.196C435.995 459.089 436.049 458.9 436.049 458.63V452.717H436.952ZM435.956 451.315C435.956 451.172 436 451.05 436.088 450.949C436.179 450.845 436.311 450.793 436.483 450.793C436.659 450.793 436.793 450.843 436.884 450.944C436.975 451.045 437.021 451.169 437.021 451.315C437.021 451.462 436.975 451.584 436.884 451.682C436.793 451.779 436.659 451.828 436.483 451.828C436.308 451.828 436.176 451.779 436.088 451.682C436 451.584 435.956 451.462 435.956 451.315ZM441.488 456.599C441.488 456.354 441.396 456.166 441.21 456.032C441.028 455.896 440.707 455.778 440.248 455.681C439.792 455.583 439.429 455.466 439.159 455.329C438.892 455.192 438.694 455.03 438.563 454.841C438.437 454.652 438.373 454.427 438.373 454.167C438.373 453.734 438.555 453.368 438.92 453.068C439.288 452.769 439.757 452.619 440.326 452.619C440.925 452.619 441.41 452.774 441.781 453.083C442.156 453.392 442.343 453.788 442.343 454.27H441.435C441.435 454.022 441.329 453.809 441.117 453.63C440.909 453.451 440.645 453.361 440.326 453.361C439.997 453.361 439.74 453.433 439.555 453.576C439.369 453.719 439.276 453.907 439.276 454.138C439.276 454.356 439.363 454.52 439.535 454.631C439.708 454.742 440.019 454.847 440.468 454.948C440.92 455.049 441.286 455.17 441.566 455.31C441.846 455.45 442.053 455.619 442.187 455.817C442.323 456.013 442.392 456.252 442.392 456.535C442.392 457.007 442.203 457.386 441.825 457.673C441.448 457.956 440.958 458.098 440.355 458.098C439.932 458.098 439.558 458.023 439.232 457.873C438.907 457.723 438.651 457.515 438.466 457.248C438.284 456.978 438.192 456.687 438.192 456.374H439.096C439.112 456.677 439.232 456.918 439.457 457.097C439.685 457.272 439.984 457.36 440.355 457.36C440.697 457.36 440.971 457.292 441.176 457.155C441.384 457.015 441.488 456.83 441.488 456.599Z" fill="#4000C7"/>
<path d="M437.746 428.016L431.938 422.252C431.776 422.091 431.558 422 431.328 422H419.864C419.386 422 419 422.383 419 422.857V445.143C419 445.617 419.386 446 419.864 446H437.136C437.614 446 438 445.617 438 445.143V428.624C438 428.396 437.908 428.177 437.746 428.016ZM436.008 429.018H430.929V423.977L436.008 429.018ZM436.057 444.071H420.943V423.929H429.094V429.714C429.094 430.013 429.213 430.299 429.426 430.51C429.638 430.721 429.927 430.839 430.227 430.839H436.057V444.071ZM428.284 436.839H423.318C423.199 436.839 423.102 436.936 423.102 437.054V438.339C423.102 438.457 423.199 438.554 423.318 438.554H428.284C428.403 438.554 428.5 438.457 428.5 438.339V437.054C428.5 436.936 428.403 436.839 428.284 436.839ZM423.102 433.411V434.696C423.102 434.814 423.199 434.911 423.318 434.911H433.682C433.801 434.911 433.898 434.814 433.898 434.696V433.411C433.898 433.293 433.801 433.196 433.682 433.196H423.318C423.199 433.196 423.102 433.293 423.102 433.411Z" fill="#4000C7"/>
</svg>
