<svg width="1152" height="587" viewBox="0 0 1152 587" fill="none" xmlns="http://www.w3.org/2000/svg">
<path d="M0 0H1152V587H0V0Z" fill="white" fill-opacity="0.01"/>
<circle cx="140.5" cy="68.5" r="9.5" fill="#4000C7"/>
<circle cx="140.5" cy="346.5" r="9.5" fill="#4000C7"/>
<circle cx="140.5" cy="180.5" r="9.5" fill="#4000C7"/>
<circle cx="220.5" cy="346.5" r="9.5" fill="#4000C7"/>
<circle cx="220.5" cy="180.5" r="9.5" fill="#4000C7"/>
<rect x="239.031" y="363.209" width="18" height="41" rx="5" transform="rotate(-64.2277 239.031 363.209)" fill="black"/>
<rect x="239.031" y="197.209" width="18" height="41" rx="5" transform="rotate(-64.2277 239.031 197.209)" fill="black"/>
<path d="M235.739 351.626L244.456 351.988L241.443 358.227L235.739 351.626Z" fill="black"/>
<path d="M235.739 185.626L244.456 185.988L241.443 192.227L235.739 185.626Z" fill="black"/>
<path d="M252.791 357.219L252.535 357.811C253.137 357.545 253.764 357.569 254.415 357.884C255.147 358.237 255.51 358.758 255.503 359.447C255.799 359.279 256.122 359.185 256.475 359.164C256.83 359.145 257.198 359.227 257.578 359.411C258.726 359.965 259.016 360.855 258.449 362.08L256.756 365.586L255.861 365.154L257.528 361.701C257.709 361.327 257.758 361.007 257.676 360.74C257.595 360.471 257.353 360.239 256.95 360.044C256.618 359.884 256.294 359.851 255.978 359.945C255.664 360.036 255.408 360.24 255.211 360.558L253.534 364.031L252.635 363.597L254.29 360.167C254.658 359.406 254.469 358.846 253.724 358.487C253.137 358.203 252.615 358.259 252.158 358.655L250.313 362.476L249.418 362.044L251.945 356.81L252.791 357.219ZM261.341 367.8C261.339 367.672 261.386 367.468 261.481 367.188C260.857 367.419 260.256 367.396 259.679 367.117C259.163 366.868 258.809 366.518 258.617 366.068C258.43 365.615 258.444 365.165 258.661 364.717C258.924 364.172 259.334 363.849 259.892 363.749C260.454 363.646 261.111 363.777 261.862 364.139L262.733 364.56L262.931 364.149C263.082 363.836 263.108 363.542 263.01 363.268C262.913 362.991 262.683 362.764 262.319 362.588C261.999 362.434 261.693 362.386 261.399 362.443C261.105 362.499 260.903 362.642 260.792 362.871L259.893 362.437C260.019 362.176 260.232 361.969 260.533 361.816C260.838 361.661 261.183 361.589 261.567 361.599C261.955 361.612 262.339 361.71 262.72 361.893C263.323 362.184 263.722 362.564 263.917 363.032C264.114 363.497 264.092 363.997 263.849 364.532L262.686 366.941C262.454 367.421 262.331 367.833 262.317 368.176L262.279 368.253L261.341 367.8ZM260.185 366.401C260.466 366.537 260.767 366.593 261.088 366.569C261.41 366.545 261.683 366.445 261.908 366.267L262.427 365.193L261.725 364.855C260.629 364.325 259.926 364.381 259.616 365.023C259.481 365.304 259.468 365.568 259.579 365.816C259.69 366.065 259.892 366.26 260.185 366.401ZM264.47 369.311L263.576 368.879L266.102 363.646L266.997 364.078L264.47 369.311ZM266.7 362.223C266.77 362.078 266.873 361.976 267.008 361.918C267.147 361.862 267.303 361.876 267.477 361.96C267.651 362.044 267.759 362.158 267.801 362.301C267.843 362.445 267.829 362.589 267.759 362.734C267.689 362.879 267.586 362.978 267.449 363.031C267.312 363.085 267.156 363.069 266.982 362.985C266.808 362.901 266.699 362.789 266.655 362.648C266.615 362.51 266.63 362.368 266.7 362.223ZM269.28 365.18L268.992 365.852C269.634 365.542 270.278 365.543 270.923 365.854C272.029 366.388 272.286 367.281 271.693 368.534L270.023 371.992L269.128 371.56L270.8 368.097C270.979 367.718 271.027 367.397 270.943 367.134C270.863 366.873 270.643 366.655 270.285 366.483C269.995 366.343 269.703 366.297 269.409 366.346C269.115 366.395 268.846 366.515 268.602 366.708L266.802 370.437L265.907 370.005L268.434 364.771L269.28 365.18Z" fill="white"/>
<path d="M252.791 191.219L252.535 191.811C253.137 191.545 253.764 191.569 254.415 191.884C255.147 192.237 255.51 192.758 255.503 193.447C255.799 193.279 256.122 193.185 256.475 193.164C256.83 193.145 257.198 193.227 257.578 193.411C258.726 193.965 259.016 194.855 258.449 196.08L256.756 199.586L255.861 199.154L257.528 195.701C257.709 195.327 257.758 195.007 257.676 194.74C257.595 194.471 257.353 194.239 256.95 194.044C256.618 193.884 256.294 193.851 255.978 193.945C255.664 194.036 255.408 194.24 255.211 194.558L253.534 198.031L252.635 197.597L254.29 194.167C254.658 193.406 254.469 192.846 253.724 192.487C253.137 192.203 252.615 192.259 252.158 192.655L250.313 196.476L249.418 196.044L251.945 190.81L252.791 191.219ZM261.341 201.8C261.339 201.672 261.386 201.468 261.481 201.188C260.857 201.419 260.256 201.396 259.679 201.117C259.163 200.868 258.809 200.518 258.617 200.068C258.43 199.615 258.444 199.165 258.661 198.717C258.924 198.172 259.334 197.849 259.892 197.749C260.454 197.646 261.111 197.777 261.862 198.139L262.733 198.56L262.931 198.149C263.082 197.836 263.108 197.542 263.01 197.268C262.913 196.991 262.683 196.764 262.319 196.588C261.999 196.434 261.693 196.386 261.399 196.443C261.105 196.499 260.903 196.642 260.792 196.871L259.893 196.437C260.019 196.176 260.232 195.969 260.533 195.816C260.838 195.661 261.183 195.589 261.567 195.599C261.955 195.612 262.339 195.71 262.72 195.893C263.323 196.184 263.722 196.564 263.917 197.032C264.114 197.497 264.092 197.997 263.849 198.532L262.686 200.941C262.454 201.421 262.331 201.833 262.317 202.176L262.279 202.253L261.341 201.8ZM260.185 200.401C260.466 200.537 260.767 200.593 261.088 200.569C261.41 200.545 261.683 200.445 261.908 200.267L262.427 199.193L261.725 198.855C260.629 198.325 259.926 198.381 259.616 199.023C259.481 199.304 259.468 199.568 259.579 199.816C259.69 200.065 259.892 200.26 260.185 200.401ZM264.47 203.311L263.576 202.879L266.102 197.646L266.997 198.078L264.47 203.311ZM266.7 196.223C266.77 196.078 266.873 195.976 267.008 195.918C267.147 195.862 267.303 195.876 267.477 195.96C267.651 196.044 267.759 196.158 267.801 196.301C267.843 196.445 267.829 196.589 267.759 196.734C267.689 196.879 267.586 196.978 267.449 197.031C267.312 197.085 267.156 197.069 266.982 196.985C266.808 196.901 266.699 196.789 266.655 196.648C266.615 196.51 266.63 196.368 266.7 196.223ZM269.28 199.18L268.992 199.852C269.634 199.542 270.278 199.543 270.923 199.854C272.029 200.388 272.286 201.281 271.693 202.534L270.023 205.992L269.128 205.56L270.8 202.097C270.979 201.718 271.027 201.397 270.943 201.134C270.863 200.873 270.643 200.655 270.285 200.483C269.995 200.343 269.703 200.297 269.409 200.346C269.115 200.395 268.846 200.515 268.602 200.708L266.802 204.437L265.907 204.005L268.434 198.771L269.28 199.18Z" fill="white"/>
<rect x="319.031" y="85.2095" width="18" height="41" rx="5" transform="rotate(-64.2277 319.031 85.2095)" fill="black"/>
<path d="M315.739 73.6264L324.675 74.0939L321.662 80.333L315.739 73.6264Z" fill="black"/>
<path d="M332.791 79.219L332.535 79.8111C333.137 79.5449 333.764 79.5691 334.415 79.8836C335.147 80.237 335.51 80.7581 335.503 81.4468C335.799 81.2794 336.122 81.1852 336.475 81.1643C336.83 81.145 337.198 81.2272 337.578 81.4109C338.726 81.9651 339.016 82.8548 338.449 84.0798L336.756 87.5865L335.861 87.1544L337.528 83.7009C337.709 83.3269 337.758 83.0067 337.676 82.7404C337.595 82.4708 337.353 82.2388 336.95 82.0442C336.618 81.8838 336.294 81.8507 335.978 81.9447C335.664 82.0355 335.408 82.2401 335.211 82.5583L333.534 86.0311L332.635 85.5968L334.29 82.1675C334.658 81.4065 334.469 80.8461 333.724 80.4865C333.137 80.2031 332.615 80.2592 332.158 80.6547L330.313 84.4758L329.418 84.0438L331.945 78.8103L332.791 79.219ZM341.341 89.8003C341.339 89.6723 341.386 89.4682 341.481 89.1882C340.857 89.4195 340.256 89.3958 339.679 89.1171C339.163 88.868 338.809 88.5181 338.617 88.0676C338.43 87.6153 338.444 87.1651 338.661 86.7169C338.924 86.172 339.334 85.8492 339.892 85.7486C340.454 85.6463 341.111 85.7766 341.862 86.1393L342.733 86.5597L342.931 86.1485C343.082 85.8358 343.108 85.5423 343.01 85.2682C342.913 84.9909 342.683 84.7643 342.319 84.5883C341.999 84.4342 341.693 84.3856 341.399 84.4425C341.105 84.4994 340.903 84.6424 340.792 84.8713L339.893 84.4369C340.019 84.1757 340.232 83.9686 340.533 83.8155C340.838 83.6607 341.183 83.5887 341.567 83.5994C341.955 83.6116 342.339 83.7096 342.72 83.8933C343.323 84.1845 343.722 84.5641 343.917 85.0323C344.114 85.4972 344.092 85.9971 343.849 86.5322L342.686 88.9409C342.454 89.4214 342.331 89.8331 342.317 90.176L342.279 90.2534L341.341 89.8003ZM340.185 88.4014C340.466 88.5369 340.767 88.5927 341.088 88.5691C341.41 88.5454 341.683 88.4447 341.908 88.2671L342.427 87.1933L341.725 86.8547C340.629 86.3253 339.926 86.3815 339.616 87.0232C339.481 87.3037 339.468 87.5681 339.579 87.8164C339.69 88.0647 339.892 88.2597 340.185 88.4014ZM344.47 91.3113L343.576 90.8793L346.102 85.6458L346.997 86.0779L344.47 91.3113ZM346.7 84.2226C346.77 84.0775 346.873 83.976 347.008 83.9181C347.147 83.8617 347.303 83.8756 347.477 83.9596C347.651 84.0437 347.759 84.1575 347.801 84.3011C347.843 84.4446 347.829 84.589 347.759 84.7341C347.689 84.8792 347.586 84.9783 347.449 85.0314C347.312 85.0846 347.156 85.0691 346.982 84.985C346.808 84.901 346.699 84.7888 346.655 84.6484C346.615 84.5097 346.63 84.3677 346.7 84.2226ZM349.28 87.1801L348.992 87.852C349.634 87.542 350.278 87.5427 350.923 87.8541C352.029 88.3881 352.286 89.2814 351.693 90.5339L350.023 93.9923L349.128 93.5602L350.8 90.0971C350.979 89.7182 351.027 89.3973 350.943 89.1342C350.863 88.8726 350.643 88.6555 350.285 88.4827C349.995 88.3425 349.703 88.2969 349.409 88.3458C349.115 88.3948 348.846 88.5154 348.602 88.7077L346.802 92.4369L345.907 92.0049L348.434 86.7714L349.28 87.1801Z" fill="white"/>
<circle cx="220.5" cy="68.5" r="9.5" fill="#4000C7"/>
<circle cx="301.5" cy="68.5" r="9.5" fill="#4000C7"/>
<line x1="141" y1="68.5" x2="302" y2="68.5" stroke="#4000C7"/>
<line x1="141" y1="346.5" x2="217" y2="346.5" stroke="#4000C7"/>
<line x1="141" y1="180.5" x2="217" y2="180.5" stroke="#4000C7"/>
</svg>
