<svg width="1152" height="587" viewBox="0 0 1152 587" fill="none" xmlns="http://www.w3.org/2000/svg">
<path d="M0 0H1152V587H0V0Z" fill="white" fill-opacity="0.01"/>
<rect x="303" y="302" width="88" height="27" rx="13.5" fill="#7D7D7D"/>
<path d="M323.241 312.408V313.279H325.204V314.852H323.241V315.723H325.204V318.193H326.283V309.314H325.204V312.408H323.241ZM323.241 310.731H320.563V309.288H319.497V310.731H316.715V311.589H323.241V310.731ZM318.392 314.449C318.392 313.63 319.055 313.071 320.017 313.071C320.979 313.071 321.642 313.63 321.642 314.449C321.642 315.281 320.979 315.853 320.017 315.853C319.055 315.853 318.392 315.281 318.392 314.449ZM322.656 314.449C322.656 313.123 321.564 312.239 320.017 312.239C318.47 312.239 317.378 313.123 317.378 314.449C317.378 315.788 318.47 316.685 320.017 316.685C321.564 316.685 322.656 315.788 322.656 314.449ZM319.861 319.831V317.439H318.795V320.702H326.556V319.831H319.861ZM332.093 311.55H334.212V310.679H328.804V311.55H331.066V312.46C331.066 314.826 330.195 316.815 328.531 317.751L329.181 318.557C330.39 317.855 331.209 316.594 331.599 315.008C332.015 316.386 332.821 317.517 333.965 318.154L334.589 317.335C332.938 316.477 332.093 314.592 332.093 312.46V311.55ZM337.566 309.288V314.007H336.032V309.561H335.031V320.39H336.032V314.891H337.566V320.962H338.593V309.288H337.566ZM353.4 309.314H352.334V317.842H353.4V309.314ZM350.956 315.333C349.24 314.761 348.031 313.344 348.031 311.771V311.134H350.67V310.276H344.274V311.134H346.939V311.771C346.939 313.435 345.756 314.956 343.988 315.567L344.547 316.399C345.925 315.905 347.004 314.852 347.498 313.526C348.031 314.748 349.097 315.71 350.436 316.178L350.956 315.333ZM346.965 319.831V317.036H345.899V320.702H353.751V319.831H346.965ZM363.123 313.344H364.605V316.685H365.632V309.301H364.605V312.473H363.123V309.522H362.109V316.256H363.123V313.344ZM361.641 310.692H359.223V309.392H358.17V310.692H355.726V311.537H361.654L361.641 310.692ZM357.169 314.137C357.169 313.422 357.78 312.941 358.703 312.941C359.613 312.941 360.237 313.422 360.237 314.137C360.237 314.865 359.613 315.346 358.703 315.346C357.78 315.346 357.169 314.865 357.169 314.137ZM361.186 314.137C361.186 312.941 360.172 312.148 358.703 312.148C357.234 312.148 356.207 312.941 356.207 314.137C356.207 315.359 357.234 316.139 358.703 316.139C360.172 316.139 361.186 315.359 361.186 314.137ZM361.797 320.13C360.016 320.13 358.95 319.688 358.95 318.921C358.95 318.141 360.016 317.699 361.797 317.699C363.565 317.699 364.631 318.141 364.631 318.921C364.631 319.688 363.565 320.13 361.797 320.13ZM361.797 316.88C359.366 316.88 357.897 317.608 357.897 318.921C357.897 320.221 359.366 320.949 361.797 320.949C364.228 320.949 365.697 320.221 365.697 318.921C365.697 317.608 364.228 316.88 361.797 316.88ZM368.725 314.059C370.636 313.825 372.391 312.967 373.028 311.68C373.678 312.967 375.42 313.825 377.331 314.059L377.708 313.214C375.667 312.98 373.808 311.979 373.717 310.692H377.344V309.834H368.725V310.692H372.339C372.248 311.979 370.389 312.98 368.348 313.214L368.725 314.059ZM375.927 318.895C375.927 319.675 374.835 320.13 373.015 320.13C371.182 320.13 370.103 319.675 370.103 318.895C370.103 318.115 371.182 317.673 373.015 317.673C374.835 317.673 375.927 318.115 375.927 318.895ZM378.293 315.619V314.761H367.75V315.619H372.482V316.867C370.311 316.971 369.024 317.686 369.024 318.895C369.024 320.221 370.532 320.949 373.028 320.949C375.511 320.949 377.006 320.221 377.006 318.895C377.006 317.686 375.732 316.971 373.561 316.867V315.619H378.293Z" fill="white"/>
<rect x="367.031" y="367.209" width="18" height="41" rx="5" transform="rotate(-64.2277 367.031 367.209)" fill="black"/>
<rect x="287.031" y="211.209" width="18" height="41" rx="5" transform="rotate(-64.2277 287.031 211.209)" fill="black"/>
<rect x="368.031" y="89.209" width="18" height="41" rx="5" transform="rotate(-64.2277 368.031 89.209)" fill="black"/>
<path d="M363.739 355.626L372.675 356.094L369.662 362.333L363.739 355.626Z" fill="black"/>
<path d="M283.739 199.626L292.675 200.094L289.662 206.333L283.739 199.626Z" fill="black"/>
<path d="M364.739 77.6264L373.675 78.0939L370.662 84.333L364.739 77.6264Z" fill="black"/>
<path d="M380.791 361.219L380.535 361.811C381.137 361.545 381.764 361.569 382.415 361.884C383.147 362.237 383.51 362.758 383.503 363.447C383.799 363.279 384.122 363.185 384.475 363.164C384.83 363.145 385.198 363.227 385.578 363.411C386.726 363.965 387.016 364.855 386.449 366.08L384.756 369.586L383.861 369.154L385.528 365.701C385.709 365.327 385.758 365.007 385.676 364.74C385.595 364.471 385.353 364.239 384.95 364.044C384.618 363.884 384.294 363.851 383.978 363.945C383.664 364.036 383.408 364.24 383.211 364.558L381.534 368.031L380.635 367.597L382.29 364.167C382.658 363.406 382.469 362.846 381.724 362.487C381.137 362.203 380.615 362.259 380.158 362.655L378.313 366.476L377.418 366.044L379.945 360.81L380.791 361.219ZM389.341 371.8C389.339 371.672 389.386 371.468 389.481 371.188C388.857 371.419 388.256 371.396 387.679 371.117C387.163 370.868 386.809 370.518 386.617 370.068C386.43 369.615 386.444 369.165 386.661 368.717C386.924 368.172 387.334 367.849 387.892 367.749C388.454 367.646 389.111 367.777 389.862 368.139L390.733 368.56L390.931 368.149C391.082 367.836 391.108 367.542 391.01 367.268C390.913 366.991 390.683 366.764 390.319 366.588C389.999 366.434 389.693 366.386 389.399 366.443C389.105 366.499 388.903 366.642 388.792 366.871L387.893 366.437C388.019 366.176 388.232 365.969 388.533 365.816C388.838 365.661 389.183 365.589 389.567 365.599C389.955 365.612 390.339 365.71 390.72 365.893C391.323 366.184 391.722 366.564 391.917 367.032C392.114 367.497 392.092 367.997 391.849 368.532L390.686 370.941C390.454 371.421 390.331 371.833 390.317 372.176L390.279 372.253L389.341 371.8ZM388.185 370.401C388.466 370.537 388.767 370.593 389.088 370.569C389.41 370.545 389.683 370.445 389.908 370.267L390.427 369.193L389.725 368.855C388.629 368.325 387.926 368.381 387.616 369.023C387.481 369.304 387.468 369.568 387.579 369.816C387.69 370.065 387.892 370.26 388.185 370.401ZM392.47 373.311L391.576 372.879L394.102 367.646L394.997 368.078L392.47 373.311ZM394.7 366.223C394.77 366.078 394.873 365.976 395.008 365.918C395.147 365.862 395.303 365.876 395.477 365.96C395.651 366.044 395.759 366.158 395.801 366.301C395.843 366.445 395.829 366.589 395.759 366.734C395.689 366.879 395.586 366.978 395.449 367.031C395.312 367.085 395.156 367.069 394.982 366.985C394.808 366.901 394.699 366.789 394.655 366.648C394.615 366.51 394.63 366.368 394.7 366.223ZM397.28 369.18L396.992 369.852C397.634 369.542 398.278 369.543 398.923 369.854C400.029 370.388 400.286 371.281 399.693 372.534L398.023 375.992L397.128 375.56L398.8 372.097C398.979 371.718 399.027 371.397 398.943 371.134C398.863 370.873 398.643 370.655 398.285 370.483C397.995 370.343 397.703 370.297 397.409 370.346C397.115 370.395 396.846 370.515 396.602 370.708L394.802 374.437L393.907 374.005L396.434 368.771L397.28 369.18Z" fill="white"/>
<path d="M300.791 205.219L300.535 205.811C301.137 205.545 301.764 205.569 302.415 205.884C303.147 206.237 303.51 206.758 303.503 207.447C303.799 207.279 304.122 207.185 304.475 207.164C304.83 207.145 305.198 207.227 305.578 207.411C306.726 207.965 307.016 208.855 306.449 210.08L304.756 213.586L303.861 213.154L305.528 209.701C305.709 209.327 305.758 209.007 305.676 208.74C305.595 208.471 305.353 208.239 304.95 208.044C304.618 207.884 304.294 207.851 303.978 207.945C303.664 208.036 303.408 208.24 303.211 208.558L301.534 212.031L300.635 211.597L302.29 208.167C302.658 207.406 302.469 206.846 301.724 206.487C301.137 206.203 300.615 206.259 300.158 206.655L298.313 210.476L297.418 210.044L299.945 204.81L300.791 205.219ZM309.341 215.8C309.339 215.672 309.386 215.468 309.481 215.188C308.857 215.419 308.256 215.396 307.679 215.117C307.163 214.868 306.809 214.518 306.617 214.068C306.43 213.615 306.444 213.165 306.661 212.717C306.924 212.172 307.334 211.849 307.892 211.749C308.454 211.646 309.111 211.777 309.862 212.139L310.733 212.56L310.931 212.149C311.082 211.836 311.108 211.542 311.01 211.268C310.913 210.991 310.683 210.764 310.319 210.588C309.999 210.434 309.693 210.386 309.399 210.443C309.105 210.499 308.903 210.642 308.792 210.871L307.893 210.437C308.019 210.176 308.232 209.969 308.533 209.816C308.838 209.661 309.183 209.589 309.567 209.599C309.955 209.612 310.339 209.71 310.72 209.893C311.323 210.184 311.722 210.564 311.917 211.032C312.114 211.497 312.092 211.997 311.849 212.532L310.686 214.941C310.454 215.421 310.331 215.833 310.317 216.176L310.279 216.253L309.341 215.8ZM308.185 214.401C308.466 214.537 308.767 214.593 309.088 214.569C309.41 214.545 309.683 214.445 309.908 214.267L310.427 213.193L309.725 212.855C308.629 212.325 307.926 212.381 307.616 213.023C307.481 213.304 307.468 213.568 307.579 213.816C307.69 214.065 307.892 214.26 308.185 214.401ZM312.47 217.311L311.576 216.879L314.102 211.646L314.997 212.078L312.47 217.311ZM314.7 210.223C314.77 210.078 314.873 209.976 315.008 209.918C315.147 209.862 315.303 209.876 315.477 209.96C315.651 210.044 315.759 210.158 315.801 210.301C315.843 210.445 315.829 210.589 315.759 210.734C315.689 210.879 315.586 210.978 315.449 211.031C315.312 211.085 315.156 211.069 314.982 210.985C314.808 210.901 314.699 210.789 314.655 210.648C314.615 210.51 314.63 210.368 314.7 210.223ZM317.28 213.18L316.992 213.852C317.634 213.542 318.278 213.543 318.923 213.854C320.029 214.388 320.286 215.281 319.693 216.534L318.023 219.992L317.128 219.56L318.8 216.097C318.979 215.718 319.027 215.397 318.943 215.134C318.863 214.873 318.643 214.655 318.285 214.483C317.995 214.343 317.703 214.297 317.409 214.346C317.115 214.395 316.846 214.515 316.602 214.708L314.802 218.437L313.907 218.005L316.434 212.771L317.28 213.18Z" fill="white"/>
<path d="M381.791 83.219L381.535 83.8111C382.137 83.5449 382.764 83.5691 383.415 83.8836C384.147 84.237 384.51 84.7581 384.503 85.4468C384.799 85.2794 385.122 85.1852 385.475 85.1643C385.83 85.145 386.198 85.2272 386.578 85.4109C387.726 85.9651 388.016 86.8548 387.449 88.0798L385.756 91.5865L384.861 91.1544L386.528 87.7009C386.709 87.3269 386.758 87.0067 386.676 86.7404C386.595 86.4708 386.353 86.2388 385.95 86.0442C385.618 85.8838 385.294 85.8507 384.978 85.9447C384.664 86.0355 384.408 86.2401 384.211 86.5583L382.534 90.0311L381.635 89.5968L383.29 86.1675C383.658 85.4065 383.469 84.8461 382.724 84.4865C382.137 84.2031 381.615 84.2592 381.158 84.6547L379.313 88.4758L378.418 88.0438L380.945 82.8103L381.791 83.219ZM390.341 93.8003C390.339 93.6723 390.386 93.4682 390.481 93.1882C389.857 93.4195 389.256 93.3958 388.679 93.1171C388.163 92.868 387.809 92.5181 387.617 92.0676C387.43 91.6153 387.444 91.1651 387.661 90.7169C387.924 90.172 388.334 89.8492 388.892 89.7486C389.454 89.6463 390.111 89.7766 390.862 90.1393L391.733 90.5597L391.931 90.1485C392.082 89.8358 392.108 89.5423 392.01 89.2682C391.913 88.9909 391.683 88.7643 391.319 88.5883C390.999 88.4342 390.693 88.3856 390.399 88.4425C390.105 88.4994 389.903 88.6424 389.792 88.8713L388.893 88.4369C389.019 88.1757 389.232 87.9686 389.533 87.8155C389.838 87.6607 390.183 87.5887 390.567 87.5994C390.955 87.6116 391.339 87.7096 391.72 87.8933C392.323 88.1845 392.722 88.5641 392.917 89.0323C393.114 89.4972 393.092 89.9971 392.849 90.5322L391.686 92.9409C391.454 93.4214 391.331 93.8331 391.317 94.176L391.279 94.2534L390.341 93.8003ZM389.185 92.4014C389.466 92.5369 389.767 92.5927 390.088 92.5691C390.41 92.5454 390.683 92.4447 390.908 92.2671L391.427 91.1933L390.725 90.8547C389.629 90.3253 388.926 90.3815 388.616 91.0232C388.481 91.3037 388.468 91.5681 388.579 91.8164C388.69 92.0647 388.892 92.2597 389.185 92.4014ZM393.47 95.3113L392.576 94.8793L395.102 89.6458L395.997 90.0779L393.47 95.3113ZM395.7 88.2226C395.77 88.0775 395.873 87.976 396.008 87.9181C396.147 87.8617 396.303 87.8756 396.477 87.9596C396.651 88.0437 396.759 88.1575 396.801 88.3011C396.843 88.4446 396.829 88.589 396.759 88.7341C396.689 88.8792 396.586 88.9783 396.449 89.0314C396.312 89.0846 396.156 89.0691 395.982 88.985C395.808 88.901 395.699 88.7888 395.655 88.6484C395.615 88.5097 395.63 88.3677 395.7 88.2226ZM398.28 91.1801L397.992 91.852C398.634 91.542 399.278 91.5427 399.923 91.8541C401.029 92.3881 401.286 93.2814 400.693 94.5339L399.023 97.9923L398.128 97.5602L399.8 94.0971C399.979 93.7182 400.027 93.3973 399.943 93.1342C399.863 92.8726 399.643 92.6555 399.285 92.4827C398.995 92.3425 398.703 92.2969 398.409 92.3458C398.115 92.3948 397.846 92.5154 397.602 92.7077L395.802 96.4369L394.907 96.0049L397.434 90.7714L398.28 91.1801Z" fill="white"/>
<circle cx="104.5" cy="350.5" r="9.5" fill="#4000C7"/>
<circle cx="104.5" cy="194.5" r="9.5" fill="#4000C7"/>
<circle cx="104.5" cy="72.5" r="9.5" fill="#4000C7"/>
<circle cx="184.5" cy="350.5" r="9.5" fill="#4000C7"/>
<circle cx="184.5" cy="194.5" r="9.5" fill="#4000C7"/>
<circle cx="184.5" cy="72.5" r="9.5" fill="#4000C7"/>
<circle cx="265.5" cy="350.5" r="9.5" fill="#4000C7"/>
<circle cx="265.5" cy="194.5" r="9.5" fill="#4000C7"/>
<circle cx="265.5" cy="72.5" r="9.5" fill="#4000C7"/>
<circle cx="347.5" cy="72.5" r="9.5" fill="#4000C7"/>
<line x1="98" y1="350.5" x2="341" y2="350.5" stroke="#4000C7"/>
<line x1="108" y1="194.5" x2="261" y2="194.5" stroke="#4000C7"/>
<line x1="108" y1="72.5" x2="341" y2="72.5" stroke="#4000C7"/>
<path d="M329.665 542H328.762V534.5H329.665V542ZM330.876 539.31C330.876 538.792 330.977 538.326 331.179 537.913C331.384 537.5 331.667 537.181 332.028 536.956C332.393 536.731 332.808 536.619 333.273 536.619C333.993 536.619 334.574 536.868 335.017 537.366C335.463 537.864 335.686 538.527 335.686 539.354V539.417C335.686 539.931 335.586 540.394 335.388 540.804C335.192 541.211 334.911 541.528 334.543 541.756C334.178 541.984 333.758 542.098 333.283 542.098C332.567 542.098 331.986 541.849 331.54 541.351C331.097 540.853 330.876 540.193 330.876 539.373V539.31ZM331.784 539.417C331.784 540.003 331.919 540.473 332.189 540.828C332.463 541.183 332.827 541.36 333.283 541.36C333.742 541.36 334.107 541.181 334.377 540.823C334.647 540.462 334.782 539.957 334.782 539.31C334.782 538.73 334.644 538.261 334.367 537.903C334.094 537.542 333.729 537.361 333.273 537.361C332.827 537.361 332.468 537.539 332.194 537.894C331.921 538.248 331.784 538.756 331.784 539.417ZM336.604 539.314C336.604 538.491 336.794 537.837 337.175 537.352C337.556 536.863 338.06 536.619 338.688 536.619C339.333 536.619 339.836 536.847 340.197 537.303L340.241 536.717H341.066V541.873C341.066 542.557 340.863 543.095 340.456 543.489C340.052 543.883 339.509 544.08 338.825 544.08C338.444 544.08 338.072 543.999 337.707 543.836C337.342 543.673 337.064 543.45 336.872 543.167L337.341 542.625C337.728 543.104 338.202 543.343 338.762 543.343C339.201 543.343 339.543 543.219 339.787 542.972C340.035 542.724 340.158 542.376 340.158 541.927V541.473C339.797 541.889 339.304 542.098 338.679 542.098C338.06 542.098 337.559 541.849 337.175 541.351C336.794 540.853 336.604 540.174 336.604 539.314ZM337.512 539.417C337.512 540.013 337.634 540.481 337.878 540.823C338.122 541.162 338.464 541.331 338.903 541.331C339.473 541.331 339.891 541.072 340.158 540.555V538.143C339.882 537.638 339.466 537.386 338.913 537.386C338.474 537.386 338.13 537.557 337.883 537.898C337.635 538.24 337.512 538.746 337.512 539.417ZM343.415 542H342.512V536.717H343.415V542ZM342.438 535.315C342.438 535.169 342.482 535.045 342.57 534.944C342.661 534.843 342.795 534.793 342.971 534.793C343.146 534.793 343.28 534.843 343.371 534.944C343.462 535.045 343.508 535.169 343.508 535.315C343.508 535.462 343.462 535.584 343.371 535.682C343.28 535.779 343.146 535.828 342.971 535.828C342.795 535.828 342.661 535.779 342.57 535.682C342.482 535.584 342.438 535.462 342.438 535.315ZM345.72 536.717L345.749 537.381C346.153 536.873 346.68 536.619 347.331 536.619C348.448 536.619 349.011 537.249 349.021 538.509V542H348.117V538.504C348.114 538.123 348.026 537.841 347.854 537.659C347.684 537.477 347.419 537.386 347.058 537.386C346.765 537.386 346.507 537.464 346.286 537.62C346.065 537.776 345.892 537.981 345.769 538.235V542H344.865V536.717H345.72ZM350.402 541.526C350.402 541.37 350.448 541.24 350.539 541.136C350.633 541.032 350.773 540.979 350.959 540.979C351.145 540.979 351.285 541.032 351.379 541.136C351.477 541.24 351.525 541.37 351.525 541.526C351.525 541.676 351.477 541.801 351.379 541.902C351.285 542.003 351.145 542.054 350.959 542.054C350.773 542.054 350.633 542.003 350.539 541.902C350.448 541.801 350.402 541.676 350.402 541.526ZM353.952 536.717V542.61C353.952 543.626 353.492 544.134 352.57 544.134C352.372 544.134 352.188 544.104 352.019 544.046V543.323C352.123 543.349 352.259 543.362 352.429 543.362C352.631 543.362 352.784 543.307 352.888 543.196C352.995 543.089 353.049 542.9 353.049 542.63V536.717H353.952ZM352.956 535.315C352.956 535.172 353 535.05 353.088 534.949C353.179 534.845 353.311 534.793 353.483 534.793C353.659 534.793 353.793 534.843 353.884 534.944C353.975 535.045 354.021 535.169 354.021 535.315C354.021 535.462 353.975 535.584 353.884 535.682C353.793 535.779 353.659 535.828 353.483 535.828C353.308 535.828 353.176 535.779 353.088 535.682C353 535.584 352.956 535.462 352.956 535.315ZM358.488 540.599C358.488 540.354 358.396 540.166 358.21 540.032C358.028 539.896 357.707 539.778 357.248 539.681C356.792 539.583 356.429 539.466 356.159 539.329C355.892 539.192 355.694 539.03 355.563 538.841C355.437 538.652 355.373 538.427 355.373 538.167C355.373 537.734 355.555 537.368 355.92 537.068C356.288 536.769 356.757 536.619 357.326 536.619C357.925 536.619 358.41 536.774 358.781 537.083C359.156 537.392 359.343 537.788 359.343 538.27H358.435C358.435 538.022 358.329 537.809 358.117 537.63C357.909 537.451 357.645 537.361 357.326 537.361C356.997 537.361 356.74 537.433 356.555 537.576C356.369 537.719 356.276 537.907 356.276 538.138C356.276 538.356 356.363 538.52 356.535 538.631C356.708 538.742 357.019 538.847 357.468 538.948C357.92 539.049 358.286 539.17 358.566 539.31C358.846 539.45 359.053 539.619 359.187 539.817C359.323 540.013 359.392 540.252 359.392 540.535C359.392 541.007 359.203 541.386 358.825 541.673C358.448 541.956 357.958 542.098 357.355 542.098C356.932 542.098 356.558 542.023 356.232 541.873C355.907 541.723 355.651 541.515 355.466 541.248C355.284 540.978 355.192 540.687 355.192 540.374H356.096C356.112 540.677 356.232 540.918 356.457 541.097C356.685 541.272 356.984 541.36 357.355 541.36C357.697 541.36 357.971 541.292 358.176 541.155C358.384 541.015 358.488 540.83 358.488 540.599Z" fill="#4000C7"/>
<path d="M354.746 512.016L348.938 506.252C348.776 506.091 348.558 506 348.328 506H336.864C336.386 506 336 506.383 336 506.857V529.143C336 529.617 336.386 530 336.864 530H354.136C354.614 530 355 529.617 355 529.143V512.624C355 512.396 354.908 512.177 354.746 512.016ZM353.008 513.018H347.929V507.977L353.008 513.018ZM353.057 528.071H337.943V507.929H346.094V513.714C346.094 514.013 346.213 514.299 346.426 514.51C346.638 514.721 346.927 514.839 347.227 514.839H353.057V528.071ZM345.284 520.839H340.318C340.199 520.839 340.102 520.936 340.102 521.054V522.339C340.102 522.457 340.199 522.554 340.318 522.554H345.284C345.403 522.554 345.5 522.457 345.5 522.339V521.054C345.5 520.936 345.403 520.839 345.284 520.839ZM340.102 517.411V518.696C340.102 518.814 340.199 518.911 340.318 518.911H350.682C350.801 518.911 350.898 518.814 350.898 518.696V517.411C350.898 517.293 350.801 517.196 350.682 517.196H340.318C340.199 517.196 340.102 517.293 340.102 517.411Z" fill="#4000C7"/>
<circle cx="346.5" cy="350.5" r="9" fill="white" stroke="#4000C7" stroke-dasharray="2 2"/>
</svg>
