<svg width="1152" height="587" viewBox="0 0 1152 587" fill="none" xmlns="http://www.w3.org/2000/svg">
<path d="M0 0H1152V587H0V0Z" fill="white" fill-opacity="0.01"/>
<path d="M491.252 167H486.594V166.351L489.055 163.616C489.419 163.203 489.67 162.868 489.807 162.61C489.947 162.35 490.017 162.081 490.017 161.805C490.017 161.434 489.904 161.129 489.68 160.892C489.455 160.654 489.156 160.535 488.781 160.535C488.332 160.535 487.982 160.664 487.731 160.921C487.484 161.175 487.36 161.53 487.36 161.985H486.457C486.457 161.331 486.667 160.802 487.087 160.398C487.51 159.995 488.075 159.793 488.781 159.793C489.442 159.793 489.965 159.967 490.349 160.315C490.733 160.66 490.925 161.121 490.925 161.697C490.925 162.397 490.479 163.23 489.587 164.197L487.683 166.263H491.252V167ZM494.494 167.098C493.778 167.098 493.195 166.863 492.746 166.395C492.297 165.923 492.072 165.293 492.072 164.505V164.339C492.072 163.815 492.172 163.348 492.37 162.938C492.572 162.524 492.852 162.202 493.21 161.971C493.571 161.736 493.962 161.619 494.382 161.619C495.069 161.619 495.603 161.845 495.983 162.298C496.364 162.75 496.555 163.398 496.555 164.241V164.617H492.976C492.989 165.138 493.14 165.56 493.43 165.882C493.723 166.201 494.094 166.36 494.543 166.36C494.862 166.36 495.132 166.295 495.354 166.165C495.575 166.035 495.769 165.862 495.935 165.647L496.486 166.077C496.044 166.757 495.38 167.098 494.494 167.098ZM494.382 162.361C494.017 162.361 493.711 162.495 493.464 162.762C493.216 163.025 493.063 163.396 493.005 163.875H495.651V163.807C495.625 163.348 495.502 162.993 495.28 162.742C495.059 162.488 494.759 162.361 494.382 162.361ZM501.057 159.886V160.652H500.891C500.188 160.665 499.628 160.874 499.211 161.277C498.794 161.681 498.553 162.249 498.488 162.981C498.863 162.552 499.374 162.337 500.021 162.337C500.64 162.337 501.133 162.555 501.501 162.991C501.872 163.427 502.058 163.991 502.058 164.681C502.058 165.413 501.857 165.999 501.457 166.438C501.06 166.878 500.526 167.098 499.855 167.098C499.175 167.098 498.623 166.837 498.2 166.316C497.777 165.792 497.565 165.118 497.565 164.295V163.948C497.565 162.64 497.844 161.64 498.4 160.95C498.96 160.257 499.792 159.902 500.896 159.886H501.057ZM499.87 163.089C499.561 163.089 499.276 163.182 499.016 163.367C498.755 163.553 498.575 163.785 498.474 164.065V164.397C498.474 164.983 498.605 165.455 498.869 165.813C499.133 166.172 499.462 166.351 499.855 166.351C500.262 166.351 500.581 166.201 500.812 165.901C501.047 165.602 501.164 165.21 501.164 164.725C501.164 164.236 501.045 163.842 500.808 163.543C500.573 163.24 500.261 163.089 499.87 163.089ZM506.94 164.612H507.927V165.35H506.94V167H506.032V165.35H502.795V164.817L505.979 159.891H506.94V164.612ZM503.82 164.612H506.032V161.126L505.925 161.321L503.82 164.612ZM513.054 161.746C513.054 162.101 512.959 162.417 512.771 162.693C512.585 162.97 512.333 163.187 512.014 163.343C512.385 163.502 512.678 163.735 512.893 164.041C513.111 164.347 513.22 164.694 513.22 165.081C513.22 165.696 513.011 166.186 512.595 166.551C512.181 166.915 511.636 167.098 510.959 167.098C510.275 167.098 509.727 166.915 509.313 166.551C508.903 166.183 508.698 165.693 508.698 165.081C508.698 164.697 508.802 164.35 509.011 164.041C509.222 163.732 509.514 163.497 509.885 163.338C509.569 163.182 509.32 162.965 509.138 162.688C508.955 162.412 508.864 162.098 508.864 161.746C508.864 161.147 509.056 160.672 509.44 160.32C509.825 159.969 510.331 159.793 510.959 159.793C511.584 159.793 512.089 159.969 512.473 160.32C512.86 160.672 513.054 161.147 513.054 161.746ZM512.316 165.062C512.316 164.664 512.189 164.34 511.936 164.09C511.685 163.839 511.356 163.714 510.949 163.714C510.542 163.714 510.215 163.838 509.968 164.085C509.724 164.332 509.602 164.658 509.602 165.062C509.602 165.465 509.72 165.783 509.958 166.014C510.199 166.245 510.533 166.36 510.959 166.36C511.382 166.36 511.714 166.245 511.955 166.014C512.196 165.779 512.316 165.462 512.316 165.062ZM510.959 160.535C510.604 160.535 510.316 160.646 510.095 160.867C509.877 161.085 509.768 161.383 509.768 161.761C509.768 162.122 509.875 162.415 510.09 162.64C510.308 162.861 510.598 162.972 510.959 162.972C511.32 162.972 511.608 162.861 511.823 162.64C512.041 162.415 512.15 162.122 512.15 161.761C512.15 161.399 512.038 161.105 511.813 160.877C511.589 160.649 511.304 160.535 510.959 160.535ZM514.772 163.436L515.134 159.891H518.776V160.726H515.9L515.686 162.664C516.034 162.459 516.429 162.356 516.872 162.356C517.52 162.356 518.034 162.571 518.415 163.001C518.796 163.427 518.986 164.005 518.986 164.734C518.986 165.467 518.788 166.045 518.391 166.468C517.997 166.888 517.445 167.098 516.735 167.098C516.107 167.098 515.594 166.924 515.197 166.575C514.8 166.227 514.574 165.745 514.519 165.13H515.373C515.428 165.537 515.573 165.844 515.808 166.053C516.042 166.258 516.351 166.36 516.735 166.36C517.155 166.36 517.484 166.217 517.722 165.931C517.963 165.644 518.083 165.249 518.083 164.744C518.083 164.269 517.953 163.888 517.692 163.602C517.435 163.312 517.092 163.167 516.662 163.167C516.268 163.167 515.959 163.253 515.734 163.426L515.495 163.621L514.772 163.436ZM524.538 164.417C524.538 165.224 524.353 165.874 523.981 166.365C523.61 166.854 523.112 167.098 522.487 167.098C521.82 167.098 521.304 166.862 520.939 166.39L520.896 167H520.065V159.5H520.969V162.298C521.333 161.845 521.836 161.619 522.478 161.619C523.119 161.619 523.622 161.862 523.986 162.347C524.354 162.832 524.538 163.496 524.538 164.339V164.417ZM523.635 164.314C523.635 163.699 523.516 163.224 523.278 162.889C523.041 162.553 522.699 162.386 522.253 162.386C521.657 162.386 521.229 162.662 520.969 163.216V165.501C521.245 166.054 521.677 166.331 522.263 166.331C522.696 166.331 523.033 166.163 523.273 165.828C523.514 165.493 523.635 164.988 523.635 164.314ZM474.562 173.717L474.587 174.303C474.974 173.847 475.497 173.619 476.154 173.619C476.893 173.619 477.396 173.902 477.663 174.469C477.839 174.215 478.067 174.01 478.347 173.854C478.63 173.697 478.964 173.619 479.348 173.619C480.507 173.619 481.096 174.233 481.115 175.46V179H480.212V175.514C480.212 175.136 480.126 174.854 479.953 174.669C479.781 174.48 479.491 174.386 479.084 174.386C478.749 174.386 478.47 174.487 478.249 174.688C478.028 174.887 477.899 175.156 477.863 175.494V179H476.955V175.538C476.955 174.77 476.579 174.386 475.827 174.386C475.235 174.386 474.829 174.638 474.611 175.143V179H473.708V173.717H474.562ZM484.675 179.098C483.959 179.098 483.376 178.863 482.927 178.395C482.478 177.923 482.253 177.293 482.253 176.505V176.339C482.253 175.815 482.352 175.348 482.551 174.938C482.753 174.524 483.033 174.202 483.391 173.971C483.752 173.736 484.143 173.619 484.562 173.619C485.249 173.619 485.783 173.845 486.164 174.298C486.545 174.75 486.735 175.398 486.735 176.241V176.617H483.156C483.169 177.138 483.321 177.56 483.61 177.882C483.903 178.201 484.274 178.36 484.724 178.36C485.043 178.36 485.313 178.295 485.534 178.165C485.756 178.035 485.949 177.862 486.115 177.647L486.667 178.077C486.224 178.757 485.56 179.098 484.675 179.098ZM484.562 174.361C484.198 174.361 483.892 174.495 483.645 174.762C483.397 175.025 483.244 175.396 483.186 175.875H485.832V175.807C485.806 175.348 485.682 174.993 485.461 174.742C485.24 174.488 484.94 174.361 484.562 174.361ZM490.339 174.527C490.202 174.505 490.054 174.493 489.895 174.493C489.302 174.493 488.9 174.745 488.688 175.25V179H487.785V173.717H488.664L488.679 174.327C488.975 173.855 489.395 173.619 489.938 173.619C490.114 173.619 490.248 173.642 490.339 173.688V174.527ZM490.861 176.314C490.861 175.491 491.052 174.837 491.433 174.352C491.813 173.863 492.318 173.619 492.946 173.619C493.591 173.619 494.094 173.847 494.455 174.303L494.499 173.717H495.324V178.873C495.324 179.557 495.121 180.095 494.714 180.489C494.31 180.883 493.767 181.08 493.083 181.08C492.702 181.08 492.329 180.999 491.965 180.836C491.6 180.673 491.322 180.45 491.13 180.167L491.599 179.625C491.986 180.104 492.46 180.343 493.02 180.343C493.459 180.343 493.801 180.219 494.045 179.972C494.292 179.724 494.416 179.376 494.416 178.927V178.473C494.055 178.889 493.562 179.098 492.937 179.098C492.318 179.098 491.817 178.849 491.433 178.351C491.052 177.853 490.861 177.174 490.861 176.314ZM491.77 176.417C491.77 177.013 491.892 177.481 492.136 177.823C492.38 178.162 492.722 178.331 493.161 178.331C493.731 178.331 494.149 178.072 494.416 177.555V175.143C494.139 174.638 493.724 174.386 493.171 174.386C492.731 174.386 492.388 174.557 492.141 174.898C491.893 175.24 491.77 175.746 491.77 176.417ZM498.884 179.098C498.168 179.098 497.585 178.863 497.136 178.395C496.687 177.923 496.462 177.293 496.462 176.505V176.339C496.462 175.815 496.561 175.348 496.76 174.938C496.962 174.524 497.242 174.202 497.6 173.971C497.961 173.736 498.352 173.619 498.771 173.619C499.458 173.619 499.992 173.845 500.373 174.298C500.754 174.75 500.944 175.398 500.944 176.241V176.617H497.365C497.378 177.138 497.53 177.56 497.819 177.882C498.112 178.201 498.483 178.36 498.933 178.36C499.252 178.36 499.522 178.295 499.743 178.165C499.965 178.035 500.158 177.862 500.324 177.647L500.876 178.077C500.433 178.757 499.769 179.098 498.884 179.098ZM498.771 174.361C498.407 174.361 498.101 174.495 497.854 174.762C497.606 175.025 497.453 175.396 497.395 175.875H500.041V175.807C500.015 175.348 499.891 174.993 499.67 174.742C499.449 174.488 499.149 174.361 498.771 174.361ZM506.594 178.36C506.916 178.36 507.198 178.263 507.438 178.067C507.679 177.872 507.813 177.628 507.839 177.335H508.693C508.677 177.638 508.573 177.926 508.381 178.199C508.189 178.473 507.932 178.691 507.609 178.854C507.29 179.016 506.952 179.098 506.594 179.098C505.874 179.098 505.301 178.858 504.875 178.38C504.452 177.898 504.24 177.241 504.24 176.407V176.256C504.24 175.742 504.335 175.284 504.523 174.884C504.712 174.483 504.982 174.173 505.334 173.951C505.689 173.73 506.107 173.619 506.589 173.619C507.181 173.619 507.673 173.797 508.063 174.151C508.457 174.506 508.667 174.967 508.693 175.533H507.839C507.813 175.191 507.683 174.911 507.448 174.693C507.217 174.472 506.931 174.361 506.589 174.361C506.13 174.361 505.773 174.527 505.52 174.859C505.269 175.188 505.144 175.665 505.144 176.29V176.461C505.144 177.07 505.269 177.538 505.52 177.867C505.77 178.196 506.128 178.36 506.594 178.36ZM509.47 176.31C509.47 175.792 509.571 175.326 509.772 174.913C509.978 174.5 510.261 174.181 510.622 173.956C510.987 173.731 511.402 173.619 511.867 173.619C512.587 173.619 513.168 173.868 513.61 174.366C514.056 174.864 514.279 175.527 514.279 176.354V176.417C514.279 176.931 514.18 177.394 513.981 177.804C513.786 178.211 513.505 178.528 513.137 178.756C512.772 178.984 512.352 179.098 511.877 179.098C511.161 179.098 510.58 178.849 510.134 178.351C509.691 177.853 509.47 177.193 509.47 176.373V176.31ZM510.378 176.417C510.378 177.003 510.513 177.473 510.783 177.828C511.057 178.183 511.421 178.36 511.877 178.36C512.336 178.36 512.701 178.181 512.971 177.823C513.241 177.462 513.376 176.957 513.376 176.31C513.376 175.73 513.238 175.261 512.961 174.903C512.688 174.542 512.323 174.361 511.867 174.361C511.421 174.361 511.062 174.539 510.788 174.894C510.515 175.248 510.378 175.756 510.378 176.417ZM516.262 173.717L516.286 174.303C516.674 173.847 517.196 173.619 517.854 173.619C518.592 173.619 519.095 173.902 519.362 174.469C519.538 174.215 519.766 174.01 520.046 173.854C520.329 173.697 520.663 173.619 521.047 173.619C522.206 173.619 522.795 174.233 522.814 175.46V179H521.911V175.514C521.911 175.136 521.825 174.854 521.652 174.669C521.48 174.48 521.19 174.386 520.783 174.386C520.448 174.386 520.17 174.487 519.948 174.688C519.727 174.887 519.598 175.156 519.562 175.494V179H518.654V175.538C518.654 174.77 518.278 174.386 517.526 174.386C516.934 174.386 516.529 174.638 516.311 175.143V179H515.407V173.717H516.262ZM525.031 173.717L525.056 174.303C525.443 173.847 525.965 173.619 526.623 173.619C527.362 173.619 527.865 173.902 528.132 174.469C528.308 174.215 528.535 174.01 528.815 173.854C529.099 173.697 529.432 173.619 529.816 173.619C530.975 173.619 531.564 174.233 531.584 175.46V179H530.681V175.514C530.681 175.136 530.594 174.854 530.422 174.669C530.249 174.48 529.96 174.386 529.553 174.386C529.217 174.386 528.939 174.487 528.718 174.688C528.496 174.887 528.368 175.156 528.332 175.494V179H527.424V175.538C527.424 174.77 527.048 174.386 526.296 174.386C525.703 174.386 525.298 174.638 525.08 175.143V179H524.177V173.717H525.031ZM533.933 179H533.029V173.717H533.933V179ZM532.956 172.315C532.956 172.169 533 172.045 533.088 171.944C533.179 171.843 533.312 171.793 533.488 171.793C533.664 171.793 533.798 171.843 533.889 171.944C533.98 172.045 534.025 172.169 534.025 172.315C534.025 172.462 533.98 172.584 533.889 172.682C533.798 172.779 533.664 172.828 533.488 172.828C533.312 172.828 533.179 172.779 533.088 172.682C533 172.584 532.956 172.462 532.956 172.315ZM536.608 172.438V173.717H537.595V174.415H536.608V177.691C536.608 177.903 536.652 178.062 536.74 178.17C536.828 178.274 536.978 178.326 537.189 178.326C537.294 178.326 537.437 178.307 537.619 178.268V179C537.382 179.065 537.15 179.098 536.926 179.098C536.522 179.098 536.218 178.976 536.013 178.731C535.808 178.487 535.705 178.141 535.705 177.691V174.415H534.743V173.717H535.705V172.438H536.608Z" fill="black"/>
<path d="M347.262 192C344.985 182.652 356.62 161.945 420 163.042" stroke="#4000C7"/>
<path d="M505.738 192C508.015 182.652 496.38 161.945 433 163.042" stroke="#4000C7"/>
<circle cx="426.5" cy="162.5" r="9.5" fill="#4000C7"/>
<path d="M333.159 163.875C332.97 164.1 332.744 164.28 332.48 164.417C332.22 164.554 331.934 164.622 331.621 164.622C331.211 164.622 330.853 164.521 330.547 164.319C330.244 164.118 330.01 163.834 329.844 163.47C329.678 163.102 329.595 162.697 329.595 162.254C329.595 161.779 329.684 161.351 329.863 160.97C330.046 160.589 330.303 160.298 330.635 160.096C330.967 159.894 331.354 159.793 331.797 159.793C332.5 159.793 333.053 160.057 333.457 160.584C333.864 161.108 334.067 161.824 334.067 162.732V162.996C334.067 164.38 333.794 165.39 333.247 166.028C332.7 166.663 331.875 166.989 330.771 167.005H330.596V166.243H330.786C331.532 166.23 332.104 166.036 332.505 165.662C332.905 165.285 333.123 164.689 333.159 163.875ZM331.768 163.875C332.07 163.875 332.349 163.782 332.603 163.597C332.86 163.411 333.047 163.182 333.164 162.908V162.547C333.164 161.954 333.035 161.473 332.778 161.102C332.521 160.73 332.196 160.545 331.802 160.545C331.405 160.545 331.086 160.698 330.845 161.004C330.604 161.307 330.483 161.707 330.483 162.205C330.483 162.69 330.599 163.09 330.83 163.406C331.064 163.719 331.377 163.875 331.768 163.875ZM339.878 164.417C339.878 165.224 339.692 165.874 339.321 166.365C338.95 166.854 338.452 167.098 337.827 167.098C337.16 167.098 336.644 166.862 336.279 166.39L336.235 167H335.405V159.5H336.309V162.298C336.673 161.845 337.176 161.619 337.817 161.619C338.459 161.619 338.962 161.862 339.326 162.347C339.694 162.832 339.878 163.496 339.878 164.339V164.417ZM338.975 164.314C338.975 163.699 338.856 163.224 338.618 162.889C338.381 162.553 338.039 162.386 337.593 162.386C336.997 162.386 336.569 162.662 336.309 163.216V165.501C336.585 166.054 337.017 166.331 337.603 166.331C338.035 166.331 338.372 166.163 338.613 165.828C338.854 165.493 338.975 164.988 338.975 164.314ZM341.465 167V162.415H340.63V161.717H341.465V161.175C341.465 160.608 341.616 160.171 341.919 159.861C342.222 159.552 342.65 159.397 343.203 159.397C343.411 159.397 343.618 159.425 343.823 159.48L343.774 160.213C343.621 160.184 343.459 160.169 343.286 160.169C342.993 160.169 342.767 160.255 342.607 160.428C342.448 160.597 342.368 160.841 342.368 161.16V161.717H343.496V162.415H342.368V167H341.465ZM345.718 163.006H346.396C346.823 162.999 347.158 162.887 347.402 162.669C347.646 162.451 347.769 162.156 347.769 161.785C347.769 160.952 347.354 160.535 346.523 160.535C346.133 160.535 345.82 160.647 345.586 160.872C345.355 161.093 345.239 161.388 345.239 161.756H344.336C344.336 161.193 344.541 160.726 344.951 160.354C345.365 159.98 345.889 159.793 346.523 159.793C347.194 159.793 347.72 159.97 348.101 160.325C348.481 160.68 348.672 161.173 348.672 161.805C348.672 162.114 348.571 162.413 348.369 162.703C348.171 162.993 347.899 163.209 347.554 163.353C347.944 163.476 348.245 163.681 348.457 163.968C348.672 164.254 348.779 164.604 348.779 165.018C348.779 165.656 348.571 166.162 348.154 166.536C347.738 166.91 347.196 167.098 346.528 167.098C345.861 167.098 345.317 166.917 344.897 166.556C344.481 166.194 344.272 165.717 344.272 165.125H345.181C345.181 165.499 345.303 165.799 345.547 166.023C345.791 166.248 346.118 166.36 346.528 166.36C346.965 166.36 347.298 166.246 347.529 166.019C347.76 165.791 347.876 165.464 347.876 165.037C347.876 164.624 347.749 164.306 347.495 164.085C347.241 163.864 346.875 163.75 346.396 163.743H345.718V163.006ZM354.609 160.398L351.665 167H350.718L353.652 160.633H349.805V159.891H354.609V160.398ZM356.948 163.006H357.627C358.053 162.999 358.389 162.887 358.633 162.669C358.877 162.451 358.999 162.156 358.999 161.785C358.999 160.952 358.584 160.535 357.754 160.535C357.363 160.535 357.051 160.647 356.816 160.872C356.585 161.093 356.47 161.388 356.47 161.756H355.566C355.566 161.193 355.771 160.726 356.182 160.354C356.595 159.98 357.119 159.793 357.754 159.793C358.424 159.793 358.95 159.97 359.331 160.325C359.712 160.68 359.902 161.173 359.902 161.805C359.902 162.114 359.801 162.413 359.6 162.703C359.401 162.993 359.129 163.209 358.784 163.353C359.175 163.476 359.476 163.681 359.688 163.968C359.902 164.254 360.01 164.604 360.01 165.018C360.01 165.656 359.801 166.162 359.385 166.536C358.968 166.91 358.426 167.098 357.759 167.098C357.091 167.098 356.548 166.917 356.128 166.556C355.711 166.194 355.503 165.717 355.503 165.125H356.411C356.411 165.499 356.533 165.799 356.777 166.023C357.021 166.248 357.349 166.36 357.759 166.36C358.195 166.36 358.529 166.246 358.76 166.019C358.991 165.791 359.106 165.464 359.106 165.037C359.106 164.624 358.979 164.306 358.726 164.085C358.472 163.864 358.105 163.75 357.627 163.743H356.948V163.006ZM363.462 166.36C363.784 166.36 364.066 166.263 364.307 166.067C364.548 165.872 364.681 165.628 364.707 165.335H365.562C365.545 165.638 365.441 165.926 365.249 166.199C365.057 166.473 364.8 166.691 364.478 166.854C364.159 167.016 363.82 167.098 363.462 167.098C362.743 167.098 362.17 166.858 361.743 166.38C361.32 165.898 361.108 165.241 361.108 164.407V164.256C361.108 163.742 361.203 163.284 361.392 162.884C361.58 162.483 361.851 162.173 362.202 161.951C362.557 161.73 362.975 161.619 363.457 161.619C364.049 161.619 364.541 161.797 364.932 162.151C365.326 162.506 365.535 162.967 365.562 163.533H364.707C364.681 163.191 364.551 162.911 364.316 162.693C364.085 162.472 363.799 162.361 363.457 162.361C362.998 162.361 362.642 162.527 362.388 162.859C362.137 163.188 362.012 163.665 362.012 164.29V164.461C362.012 165.07 362.137 165.538 362.388 165.867C362.638 166.196 362.996 166.36 363.462 166.36ZM313.223 177.96V176.27H316.093V175.61H310.573V174.16H315.883V171.43H309.743V172.1H315.083V173.5H309.763V176.27H312.393V177.96H308.743V178.63H316.893V177.96H313.223ZM324.172 172.62C324.172 173.73 324.172 175.07 323.812 176.9L324.632 176.99C324.982 175.05 324.982 173.76 324.982 172.62V171.72H318.832V172.39H324.172V172.62ZM317.962 177.75V178.43H326.072V177.75H317.962ZM334.511 170.78H333.691V177.33H334.511V170.78ZM328.161 173.6C328.161 172.73 328.821 172.11 329.691 172.11C330.581 172.11 331.241 172.73 331.241 173.6C331.241 174.49 330.581 175.11 329.691 175.11C328.821 175.11 328.161 174.49 328.161 173.6ZM332.041 173.6C332.041 172.31 331.031 171.4 329.691 171.4C328.361 171.4 327.361 172.31 327.361 173.6C327.361 174.9 328.361 175.82 329.691 175.82C331.031 175.82 332.041 174.9 332.041 173.6ZM329.561 178.87V176.66H328.741V179.54H334.781V178.87H329.561ZM340.401 172.57H341.521V176.78C341.141 176.8 340.771 176.81 340.401 176.82V172.57ZM342.271 172.57H343.011V171.91H338.911V172.57H339.651V176.84C339.311 176.85 339.011 176.85 338.741 176.85L338.821 177.53C339.991 177.53 341.871 177.49 343.261 177.23L343.211 176.63C342.921 176.67 342.591 176.7 342.271 176.73V172.57ZM343.971 174.19H342.741V174.91H343.971V179.27H344.741V170.99H343.971V174.19ZM345.701 170.78V179.74H346.491V170.78H345.701ZM354.55 170.77V179.76H355.37V170.77H354.55ZM350.64 171.46C349.31 171.46 348.36 172.68 348.36 174.59C348.36 176.5 349.31 177.72 350.64 177.72C351.97 177.72 352.92 176.5 352.92 174.59C352.92 172.68 351.97 171.46 350.64 171.46ZM350.64 172.2C351.51 172.2 352.13 173.14 352.13 174.59C352.13 176.05 351.51 176.99 350.64 176.99C349.76 176.99 349.14 176.05 349.14 174.59C349.14 173.14 349.76 172.2 350.64 172.2ZM360.429 172.37H362.539V171.69H357.529V172.37H359.609V173.51C359.609 175.06 358.519 176.75 357.229 177.36L357.709 178.02C358.729 177.5 359.609 176.37 360.019 175.06C360.449 176.29 361.329 177.32 362.369 177.8L362.829 177.14C361.509 176.58 360.429 175.03 360.429 173.51V172.37ZM363.749 170.78V179.74H364.569V170.78H363.749ZM377.029 175.21H375.699C375.949 173.92 375.949 172.97 375.949 172.13V171.35H369.929V172.01H375.149V172.13C375.149 172.97 375.149 173.92 374.869 175.21H368.919V175.88H372.539V179.75H373.369V175.88H377.029V175.21ZM383.148 173.16V173.83H384.658V175.04H383.148V175.71H384.658V177.61H385.488V170.78H384.658V173.16H383.148ZM383.148 171.87H381.088V170.76H380.268V171.87H378.128V172.53H383.148V171.87ZM379.418 174.73C379.418 174.1 379.928 173.67 380.668 173.67C381.408 173.67 381.918 174.1 381.918 174.73C381.918 175.37 381.408 175.81 380.668 175.81C379.928 175.81 379.418 175.37 379.418 174.73ZM382.698 174.73C382.698 173.71 381.858 173.03 380.668 173.03C379.478 173.03 378.638 173.71 378.638 174.73C378.638 175.76 379.478 176.45 380.668 176.45C381.858 176.45 382.698 175.76 382.698 174.73ZM380.548 178.87V177.03H379.728V179.54H385.698V178.87H380.548Z" fill="black"/>
<rect x="524.031" y="211.209" width="18" height="41" rx="5" transform="rotate(-64.2277 524.031 211.209)" fill="black"/>
<path d="M520.739 199.626L529.675 200.094L526.662 206.333L520.739 199.626Z" fill="black"/>
<path d="M537.791 205.219L537.535 205.811C538.137 205.545 538.764 205.569 539.415 205.884C540.147 206.237 540.51 206.758 540.503 207.447C540.799 207.279 541.122 207.185 541.475 207.164C541.83 207.145 542.198 207.227 542.578 207.411C543.726 207.965 544.016 208.855 543.449 210.08L541.756 213.586L540.861 213.154L542.528 209.701C542.709 209.327 542.758 209.007 542.676 208.74C542.595 208.471 542.353 208.239 541.95 208.044C541.618 207.884 541.294 207.851 540.978 207.945C540.664 208.036 540.408 208.24 540.211 208.558L538.534 212.031L537.635 211.597L539.29 208.167C539.658 207.406 539.469 206.846 538.724 206.487C538.137 206.203 537.615 206.259 537.158 206.655L535.313 210.476L534.418 210.044L536.945 204.81L537.791 205.219ZM546.341 215.8C546.339 215.672 546.386 215.468 546.481 215.188C545.857 215.419 545.256 215.396 544.679 215.117C544.163 214.868 543.809 214.518 543.617 214.068C543.43 213.615 543.444 213.165 543.661 212.717C543.924 212.172 544.334 211.849 544.892 211.749C545.454 211.646 546.111 211.777 546.862 212.139L547.733 212.56L547.931 212.149C548.082 211.836 548.108 211.542 548.01 211.268C547.913 210.991 547.683 210.764 547.319 210.588C546.999 210.434 546.693 210.386 546.399 210.443C546.105 210.499 545.903 210.642 545.792 210.871L544.893 210.437C545.019 210.176 545.232 209.969 545.533 209.816C545.838 209.661 546.183 209.589 546.567 209.599C546.955 209.612 547.339 209.71 547.72 209.893C548.323 210.184 548.722 210.564 548.917 211.032C549.114 211.497 549.092 211.997 548.849 212.532L547.686 214.941C547.454 215.421 547.331 215.833 547.317 216.176L547.279 216.253L546.341 215.8ZM545.185 214.401C545.466 214.537 545.767 214.593 546.088 214.569C546.41 214.545 546.683 214.445 546.908 214.267L547.427 213.193L546.725 212.855C545.629 212.325 544.926 212.381 544.616 213.023C544.481 213.304 544.468 213.568 544.579 213.816C544.69 214.065 544.892 214.26 545.185 214.401ZM549.47 217.311L548.576 216.879L551.102 211.646L551.997 212.078L549.47 217.311ZM551.7 210.223C551.77 210.078 551.873 209.976 552.008 209.918C552.147 209.862 552.303 209.876 552.477 209.96C552.651 210.044 552.759 210.158 552.801 210.301C552.843 210.445 552.829 210.589 552.759 210.734C552.689 210.879 552.586 210.978 552.449 211.031C552.312 211.085 552.156 211.069 551.982 210.985C551.808 210.901 551.699 210.789 551.655 210.648C551.615 210.51 551.63 210.368 551.7 210.223ZM554.28 213.18L553.992 213.852C554.634 213.542 555.278 213.543 555.923 213.854C557.029 214.388 557.286 215.281 556.693 216.534L555.023 219.992L554.128 219.56L555.8 216.097C555.979 215.718 556.027 215.397 555.943 215.134C555.863 214.873 555.643 214.655 555.285 214.483C554.995 214.343 554.703 214.297 554.409 214.346C554.115 214.395 553.846 214.515 553.602 214.708L551.802 218.437L550.907 218.005L553.434 212.771L554.28 213.18Z" fill="white"/>
<circle cx="346.5" cy="194.5" r="9.5" fill="#4000C7"/>
<circle cx="505.5" cy="194.5" r="9.5" fill="#4000C7"/>
<line x1="347" y1="194.5" x2="496" y2="194.5" stroke="#4000C7"/>
<path d="M507.354 211.646C507.158 211.451 506.842 211.451 506.646 211.646L503.464 214.828C503.269 215.024 503.269 215.34 503.464 215.536C503.66 215.731 503.976 215.731 504.172 215.536L507 212.707L509.828 215.536C510.024 215.731 510.34 215.731 510.536 215.536C510.731 215.34 510.731 215.024 510.536 214.828L507.354 211.646ZM507.5 344L507.5 212L506.5 212L506.5 344L507.5 344Z" fill="#4000C7"/>
</svg>
