<svg width="1152" height="587" viewBox="0 0 1152 587" fill="none" xmlns="http://www.w3.org/2000/svg">
<path d="M0 0H1152V587H0V0Z" fill="white" fill-opacity="0.01"/>
<path d="M497.166 43H496.258V36.9795L494.437 37.6484V36.8281L497.024 35.8564H497.166V43ZM502.024 42.3604C502.347 42.3604 502.628 42.2627 502.869 42.0674C503.11 41.8721 503.243 41.6279 503.27 41.335H504.124C504.108 41.6377 504.004 41.9258 503.812 42.1992C503.619 42.4727 503.362 42.6908 503.04 42.8535C502.721 43.0163 502.382 43.0977 502.024 43.0977C501.305 43.0977 500.732 42.8584 500.306 42.3799C499.882 41.8981 499.671 41.2406 499.671 40.4072V40.2559C499.671 39.7415 499.765 39.2842 499.954 38.8838C500.143 38.4834 500.413 38.1725 500.765 37.9512C501.119 37.7298 501.538 37.6191 502.02 37.6191C502.612 37.6191 503.104 37.7965 503.494 38.1514C503.888 38.5062 504.098 38.9668 504.124 39.5332H503.27C503.243 39.1914 503.113 38.9115 502.879 38.6934C502.648 38.472 502.361 38.3613 502.02 38.3613C501.561 38.3613 501.204 38.5273 500.95 38.8594C500.7 39.1882 500.574 39.665 500.574 40.29V40.4609C500.574 41.0697 500.7 41.5384 500.95 41.8672C501.201 42.196 501.559 42.3604 502.024 42.3604ZM505.584 43V38.415H504.749V37.7168H505.584V37.1748C505.584 36.6084 505.735 36.1706 506.038 35.8613C506.341 35.5521 506.769 35.3975 507.322 35.3975C507.531 35.3975 507.737 35.4251 507.942 35.4805L507.894 36.2129C507.741 36.1836 507.578 36.1689 507.405 36.1689C507.112 36.1689 506.886 36.2552 506.727 36.4277C506.567 36.597 506.487 36.8411 506.487 37.1602V37.7168H507.615V38.415H506.487V43H505.584ZM513.182 43H508.523V42.3506L510.984 39.6162C511.349 39.2028 511.6 38.8675 511.736 38.6104C511.876 38.3499 511.946 38.0814 511.946 37.8047C511.946 37.4336 511.834 37.1292 511.609 36.8916C511.385 36.654 511.085 36.5352 510.711 36.5352C510.262 36.5352 509.912 36.6637 509.661 36.9209C509.414 37.1748 509.29 37.5296 509.29 37.9854H508.387C508.387 37.3311 508.597 36.8021 509.017 36.3984C509.44 35.9948 510.005 35.793 510.711 35.793C511.372 35.793 511.894 35.9671 512.278 36.3154C512.662 36.6605 512.854 37.1211 512.854 37.6973C512.854 38.3971 512.409 39.2305 511.517 40.1973L509.612 42.2627H513.182V43ZM517.952 40.6123H518.938V41.3496H517.952V43H517.044V41.3496H513.807V40.8174L516.99 35.8906H517.952V40.6123ZM514.832 40.6123H517.044V37.126L516.937 37.3213L514.832 40.6123ZM524.344 36.3984L521.399 43H520.452L523.387 36.6328H519.539V35.8906H524.344V36.3984ZM529.935 40.417C529.935 41.2243 529.749 41.8737 529.378 42.3652C529.007 42.8535 528.509 43.0977 527.884 43.0977C527.216 43.0977 526.701 42.8617 526.336 42.3896L526.292 43H525.462V35.5H526.365V38.2979C526.73 37.8454 527.233 37.6191 527.874 37.6191C528.515 37.6191 529.018 37.8617 529.383 38.3467C529.751 38.8317 529.935 39.4958 529.935 40.3389V40.417ZM529.031 40.3145C529.031 39.6992 528.912 39.224 528.675 38.8887C528.437 38.5534 528.095 38.3857 527.649 38.3857C527.054 38.3857 526.626 38.6624 526.365 39.2158V41.501C526.642 42.0544 527.073 42.3311 527.659 42.3311C528.092 42.3311 528.429 42.1634 528.67 41.8281C528.911 41.4928 529.031 40.9883 529.031 40.3145ZM474.343 47.87H472.033V46.77H471.213V47.87H468.893V48.53H474.343V47.87ZM470.243 50.7C470.243 50.07 470.803 49.67 471.623 49.67C472.433 49.67 472.993 50.07 472.993 50.7C472.993 51.32 472.433 51.72 471.623 51.72C470.803 51.72 470.243 51.32 470.243 50.7ZM472.033 52.34C473.093 52.21 473.773 51.59 473.773 50.7C473.773 49.69 472.903 49.04 471.623 49.04C470.343 49.04 469.463 49.69 469.463 50.7C469.463 51.6 470.153 52.22 471.213 52.35V53.31C470.323 53.34 469.463 53.35 468.703 53.35L468.823 54.04C470.473 54.04 472.633 54.01 474.633 53.68L474.573 53.07C473.753 53.18 472.883 53.24 472.033 53.28V52.34ZM475.143 46.77V55.74H475.963V46.77H475.143ZM482.552 52.07V52.68H484.372V53.6H485.192V46.77H484.372V52.07H482.552ZM480.722 47.74C481.572 47.74 482.152 48.12 482.152 48.69C482.152 49.27 481.572 49.65 480.722 49.65C479.872 49.65 479.292 49.27 479.292 48.69C479.292 48.12 479.872 47.74 480.722 47.74ZM480.722 50.26C482.032 50.26 482.932 49.65 482.932 48.69C482.932 47.75 482.032 47.13 480.722 47.13C479.412 47.13 478.512 47.75 478.512 48.69C478.512 49.65 479.412 50.26 480.722 50.26ZM480.402 53.28H481.222V51.51C482.032 51.46 482.862 51.37 483.652 51.25L483.582 50.66C481.682 50.9 479.462 50.92 477.802 50.92L477.912 51.6C478.652 51.6 479.512 51.59 480.402 51.55V53.28ZM479.902 54.87V52.93H479.082V55.54H485.422V54.87H479.902ZM487.531 47.73V48.41H490.821C490.631 50.53 489.401 52.25 487.111 53.4L487.561 54.04C490.461 52.59 491.631 50.28 491.631 47.73H487.531ZM495.391 50.41H493.951V46.77H493.131V55.74H493.951V51.09H495.391V50.41ZM502.791 46.78V51.59H503.611V46.78H502.791ZM497.831 52.03V55.62H503.611V52.03H502.801V53.13H498.641V52.03H497.831ZM498.641 53.77H502.801V54.96H498.641V53.77ZM498.791 47.2C497.441 47.2 496.461 48.04 496.461 49.26C496.461 50.5 497.441 51.33 498.791 51.33C500.151 51.33 501.141 50.5 501.141 49.26C501.141 48.04 500.151 47.2 498.791 47.2ZM498.791 47.88C499.701 47.88 500.341 48.45 500.341 49.26C500.341 50.08 499.701 50.65 498.791 50.65C497.901 50.65 497.261 50.08 497.261 49.26C497.261 48.45 497.901 47.88 498.791 47.88ZM509.5 48.57H510.62V52.78C510.24 52.8 509.87 52.81 509.5 52.82V48.57ZM511.37 48.57H512.11V47.91H508.01V48.57H508.75V52.84C508.41 52.85 508.11 52.85 507.84 52.85L507.92 53.53C509.09 53.53 510.97 53.49 512.36 53.23L512.31 52.63C512.02 52.67 511.69 52.7 511.37 52.73V48.57ZM513.07 50.19H511.84V50.91H513.07V55.27H513.84V46.99H513.07V50.19ZM514.8 46.78V55.74H515.59V46.78H514.8ZM523.65 46.77V55.76H524.47V46.77H523.65ZM519.74 47.46C518.41 47.46 517.46 48.68 517.46 50.59C517.46 52.5 518.41 53.72 519.74 53.72C521.07 53.72 522.02 52.5 522.02 50.59C522.02 48.68 521.07 47.46 519.74 47.46ZM519.74 48.2C520.61 48.2 521.23 49.14 521.23 50.59C521.23 52.05 520.61 52.99 519.74 52.99C518.86 52.99 518.24 52.05 518.24 50.59C518.24 49.14 518.86 48.2 519.74 48.2ZM529.529 48.37H531.639V47.69H526.629V48.37H528.709V49.51C528.709 51.06 527.619 52.75 526.329 53.36L526.809 54.02C527.829 53.5 528.709 52.37 529.119 51.06C529.549 52.29 530.429 53.32 531.469 53.8L531.929 53.14C530.609 52.58 529.529 51.03 529.529 49.51V48.37ZM532.849 46.78V55.74H533.669V46.78H532.849ZM546.129 51.21H544.799C545.049 49.92 545.049 48.97 545.049 48.13V47.35H539.029V48.01H544.249V48.13C544.249 48.97 544.249 49.92 543.969 51.21H538.019V51.88H541.639V55.75H542.469V51.88H546.129V51.21ZM552.248 49.16V49.83H553.758V51.04H552.248V51.71H553.758V53.61H554.588V46.78H553.758V49.16H552.248ZM552.248 47.87H550.188V46.76H549.368V47.87H547.228V48.53H552.248V47.87ZM548.518 50.73C548.518 50.1 549.028 49.67 549.768 49.67C550.508 49.67 551.018 50.1 551.018 50.73C551.018 51.37 550.508 51.81 549.768 51.81C549.028 51.81 548.518 51.37 548.518 50.73ZM551.798 50.73C551.798 49.71 550.958 49.03 549.768 49.03C548.578 49.03 547.738 49.71 547.738 50.73C547.738 51.76 548.578 52.45 549.768 52.45C550.958 52.45 551.798 51.76 551.798 50.73ZM549.648 54.87V53.03H548.828V55.54H554.798V54.87H549.648Z" fill="black"/>
<rect x="370.031" y="211.209" width="18" height="41" rx="5" transform="rotate(-64.2277 370.031 211.209)" fill="black"/>
<rect x="536.031" y="89.209" width="18" height="41" rx="5" transform="rotate(-64.2277 536.031 89.209)" fill="black"/>
<path d="M366.739 199.626L375.675 200.094L372.662 206.333L366.739 199.626Z" fill="black"/>
<path d="M532.739 77.6264L541.675 78.0939L538.662 84.333L532.739 77.6264Z" fill="black"/>
<path d="M383.791 205.219L383.535 205.811C384.137 205.545 384.764 205.569 385.415 205.884C386.147 206.237 386.51 206.758 386.503 207.447C386.799 207.279 387.122 207.185 387.475 207.164C387.83 207.145 388.198 207.227 388.578 207.411C389.726 207.965 390.016 208.855 389.449 210.08L387.756 213.586L386.861 213.154L388.528 209.701C388.709 209.327 388.758 209.007 388.676 208.74C388.595 208.471 388.353 208.239 387.95 208.044C387.618 207.884 387.294 207.851 386.978 207.945C386.664 208.036 386.408 208.24 386.211 208.558L384.534 212.031L383.635 211.597L385.29 208.167C385.658 207.406 385.469 206.846 384.724 206.487C384.137 206.203 383.615 206.259 383.158 206.655L381.313 210.476L380.418 210.044L382.945 204.81L383.791 205.219ZM392.341 215.8C392.339 215.672 392.386 215.468 392.481 215.188C391.857 215.419 391.256 215.396 390.679 215.117C390.163 214.868 389.809 214.518 389.617 214.068C389.43 213.615 389.444 213.165 389.661 212.717C389.924 212.172 390.334 211.849 390.892 211.749C391.454 211.646 392.111 211.777 392.862 212.139L393.733 212.56L393.931 212.149C394.082 211.836 394.108 211.542 394.01 211.268C393.913 210.991 393.683 210.764 393.319 210.588C392.999 210.434 392.693 210.386 392.399 210.443C392.105 210.499 391.903 210.642 391.792 210.871L390.893 210.437C391.019 210.176 391.232 209.969 391.533 209.816C391.838 209.661 392.183 209.589 392.567 209.599C392.955 209.612 393.339 209.71 393.72 209.893C394.323 210.184 394.722 210.564 394.917 211.032C395.114 211.497 395.092 211.997 394.849 212.532L393.686 214.941C393.454 215.421 393.331 215.833 393.317 216.176L393.279 216.253L392.341 215.8ZM391.185 214.401C391.466 214.537 391.767 214.593 392.088 214.569C392.41 214.545 392.683 214.445 392.908 214.267L393.427 213.193L392.725 212.855C391.629 212.325 390.926 212.381 390.616 213.023C390.481 213.304 390.468 213.568 390.579 213.816C390.69 214.065 390.892 214.26 391.185 214.401ZM395.47 217.311L394.576 216.879L397.102 211.646L397.997 212.078L395.47 217.311ZM397.7 210.223C397.77 210.078 397.873 209.976 398.008 209.918C398.147 209.862 398.303 209.876 398.477 209.96C398.651 210.044 398.759 210.158 398.801 210.301C398.843 210.445 398.829 210.589 398.759 210.734C398.689 210.879 398.586 210.978 398.449 211.031C398.312 211.085 398.156 211.069 397.982 210.985C397.808 210.901 397.699 210.789 397.655 210.648C397.615 210.51 397.63 210.368 397.7 210.223ZM400.28 213.18L399.992 213.852C400.634 213.542 401.278 213.543 401.923 213.854C403.029 214.388 403.286 215.281 402.693 216.534L401.023 219.992L400.128 219.56L401.8 216.097C401.979 215.718 402.027 215.397 401.943 215.134C401.863 214.873 401.643 214.655 401.285 214.483C400.995 214.343 400.703 214.297 400.409 214.346C400.115 214.395 399.846 214.515 399.602 214.708L397.802 218.437L396.907 218.005L399.434 212.771L400.28 213.18Z" fill="white"/>
<path d="M549.791 83.22L549.535 83.8121C550.137 83.5459 550.764 83.5701 551.415 83.8846C552.147 84.238 552.51 84.759 552.503 85.4478C552.799 85.2803 553.122 85.1862 553.475 85.1653C553.83 85.146 554.198 85.2282 554.578 85.4119C555.726 85.9661 556.016 86.8557 555.449 88.0807L553.756 91.5874L552.861 91.1554L554.528 87.7019C554.709 87.3279 554.758 87.0077 554.676 86.7414C554.595 86.4718 554.353 86.2397 553.95 86.0451C553.618 85.8848 553.294 85.8516 552.978 85.9457C552.664 86.0365 552.408 86.241 552.211 86.5593L550.534 90.0321L549.635 89.5977L551.29 86.1684C551.658 85.4074 551.469 84.8471 550.724 84.4875C550.137 84.2041 549.615 84.2602 549.158 84.6557L547.313 88.4768L546.418 88.0447L548.945 82.8113L549.791 83.22ZM558.341 93.8013C558.339 93.6732 558.386 93.4692 558.481 93.1892C557.857 93.4205 557.256 93.3967 556.679 93.1181C556.163 92.869 555.809 92.5191 555.617 92.0686C555.43 91.6163 555.444 91.1661 555.661 90.7179C555.924 90.1729 556.334 89.8502 556.892 89.7496C557.454 89.6473 558.111 89.7775 558.862 90.1403L559.733 90.5606L559.931 90.1495C560.082 89.8367 560.108 89.5433 560.01 89.2692C559.913 88.9919 559.683 88.7652 559.319 88.5893C558.999 88.4352 558.693 88.3866 558.399 88.4435C558.105 88.5004 557.903 88.6433 557.792 88.8723L556.893 88.4379C557.019 88.1767 557.232 87.9696 557.533 87.8165C557.838 87.6617 558.183 87.5897 558.567 87.6004C558.955 87.6126 559.339 87.7106 559.72 87.8943C560.323 88.1855 560.722 88.5651 560.917 89.0332C561.114 89.4981 561.092 89.9981 560.849 90.5332L559.686 92.9419C559.454 93.4224 559.331 93.8341 559.317 94.177L559.279 94.2544L558.341 93.8013ZM557.185 92.4024C557.466 92.5378 557.767 92.5937 558.088 92.5701C558.41 92.5464 558.683 92.4457 558.908 92.268L559.427 91.1943L558.725 90.8556C557.629 90.3263 556.926 90.3825 556.616 91.0242C556.481 91.3047 556.468 91.5691 556.579 91.8174C556.69 92.0657 556.892 92.2607 557.185 92.4024ZM561.47 95.3123L560.576 94.8802L563.102 89.6468L563.997 90.0788L561.47 95.3123ZM563.7 88.2236C563.77 88.0785 563.873 87.977 564.008 87.9191C564.147 87.8627 564.303 87.8765 564.477 87.9606C564.651 88.0447 564.759 88.1585 564.801 88.302C564.843 88.4456 564.829 88.5899 564.759 88.735C564.689 88.8801 564.586 88.9793 564.449 89.0324C564.312 89.0856 564.156 89.0701 563.982 88.986C563.808 88.9019 563.699 88.7897 563.655 88.6494C563.615 88.5106 563.63 88.3687 563.7 88.2236ZM566.28 91.1811L565.992 91.8529C566.634 91.543 567.278 91.5437 567.923 91.855C569.029 92.389 569.286 93.2823 568.693 94.5349L567.023 97.9932L566.128 97.5612L567.8 94.098C567.979 93.7192 568.027 93.3982 567.943 93.1352C567.863 92.8736 567.643 92.6564 567.285 92.4836C566.995 92.3435 566.703 92.2979 566.409 92.3468C566.115 92.3957 565.846 92.5164 565.602 92.7087L563.802 96.4379L562.907 96.0059L565.434 90.7724L566.28 91.1811Z" fill="white"/>
<circle cx="104.5" cy="350.5" r="9.5" fill="#4000C7"/>
<circle cx="104.5" cy="194.5" r="9.5" fill="#4000C7"/>
<circle cx="104.5" cy="72.5" r="9.5" fill="#4000C7"/>
<circle cx="184.5" cy="350.5" r="9.5" fill="#4000C7"/>
<circle cx="184.5" cy="194.5" r="9.5" fill="#4000C7"/>
<circle cx="184.5" cy="72.5" r="9.5" fill="#4000C7"/>
<circle cx="265.5" cy="350.5" r="9.5" fill="#4000C7"/>
<circle cx="265.5" cy="194.5" r="9.5" fill="#4000C7"/>
<circle cx="347.5" cy="194.5" r="9.5" fill="#4000C7"/>
<circle cx="347.5" cy="350.5" r="9.5" fill="#4000C7"/>
<circle cx="429.5" cy="350.5" r="9.5" fill="#4000C7"/>
<circle cx="265.5" cy="72.5" r="9.5" fill="#4000C7"/>
<circle cx="347.5" cy="72.5" r="9.5" fill="#4000C7"/>
<circle cx="431.5" cy="72.5" r="9.5" fill="#4000C7"/>
<circle cx="511.5" cy="72.5" r="9.5" fill="#4000C7"/>
<line x1="105" y1="350.5" x2="420" y2="350.5" stroke="#4000C7"/>
<line x1="108" y1="194.5" x2="344" y2="194.5" stroke="#4000C7"/>
<line x1="108" y1="72.5" x2="508" y2="72.5" stroke="#4000C7"/>
</svg>
