<svg width="1152" height="587" viewBox="0 0 1152 587" fill="none" xmlns="http://www.w3.org/2000/svg">
<path d="M0 0H1152V587H0V0Z" fill="white" fill-opacity="0.01"/>
<path d="M415.159 316.875C414.97 317.1 414.744 317.28 414.48 317.417C414.22 317.554 413.934 317.622 413.621 317.622C413.211 317.622 412.853 317.521 412.547 317.319C412.244 317.118 412.01 316.834 411.844 316.47C411.678 316.102 411.595 315.697 411.595 315.254C411.595 314.779 411.684 314.351 411.863 313.97C412.046 313.589 412.303 313.298 412.635 313.096C412.967 312.894 413.354 312.793 413.797 312.793C414.5 312.793 415.053 313.057 415.457 313.584C415.864 314.108 416.067 314.824 416.067 315.732V315.996C416.067 317.38 415.794 318.39 415.247 319.028C414.7 319.663 413.875 319.989 412.771 320.005H412.596V319.243H412.786C413.532 319.23 414.104 319.036 414.505 318.662C414.905 318.285 415.123 317.689 415.159 316.875ZM413.768 316.875C414.07 316.875 414.349 316.782 414.603 316.597C414.86 316.411 415.047 316.182 415.164 315.908V315.547C415.164 314.954 415.035 314.473 414.778 314.102C414.521 313.73 414.196 313.545 413.802 313.545C413.405 313.545 413.086 313.698 412.845 314.004C412.604 314.307 412.483 314.707 412.483 315.205C412.483 315.69 412.599 316.09 412.83 316.406C413.064 316.719 413.377 316.875 413.768 316.875ZM421.878 317.417C421.878 318.224 421.692 318.874 421.321 319.365C420.95 319.854 420.452 320.098 419.827 320.098C419.16 320.098 418.644 319.862 418.279 319.39L418.235 320H417.405V312.5H418.309V315.298C418.673 314.845 419.176 314.619 419.817 314.619C420.459 314.619 420.962 314.862 421.326 315.347C421.694 315.832 421.878 316.496 421.878 317.339V317.417ZM420.975 317.314C420.975 316.699 420.856 316.224 420.618 315.889C420.381 315.553 420.039 315.386 419.593 315.386C418.997 315.386 418.569 315.662 418.309 316.216V318.501C418.585 319.054 419.017 319.331 419.603 319.331C420.035 319.331 420.372 319.163 420.613 318.828C420.854 318.493 420.975 317.988 420.975 317.314ZM423.465 320V315.415H422.63V314.717H423.465V314.175C423.465 313.608 423.616 313.171 423.919 312.861C424.222 312.552 424.65 312.397 425.203 312.397C425.411 312.397 425.618 312.425 425.823 312.48L425.774 313.213C425.621 313.184 425.459 313.169 425.286 313.169C424.993 313.169 424.767 313.255 424.607 313.428C424.448 313.597 424.368 313.841 424.368 314.16V314.717H425.496V315.415H424.368V320H423.465ZM427.718 316.006H428.396C428.823 315.999 429.158 315.887 429.402 315.669C429.646 315.451 429.769 315.156 429.769 314.785C429.769 313.952 429.354 313.535 428.523 313.535C428.133 313.535 427.82 313.647 427.586 313.872C427.355 314.093 427.239 314.388 427.239 314.756H426.336C426.336 314.193 426.541 313.726 426.951 313.354C427.365 312.98 427.889 312.793 428.523 312.793C429.194 312.793 429.72 312.97 430.101 313.325C430.481 313.68 430.672 314.173 430.672 314.805C430.672 315.114 430.571 315.413 430.369 315.703C430.171 315.993 429.899 316.209 429.554 316.353C429.944 316.476 430.245 316.681 430.457 316.968C430.672 317.254 430.779 317.604 430.779 318.018C430.779 318.656 430.571 319.162 430.154 319.536C429.738 319.91 429.196 320.098 428.528 320.098C427.861 320.098 427.317 319.917 426.897 319.556C426.481 319.194 426.272 318.717 426.272 318.125H427.181C427.181 318.499 427.303 318.799 427.547 319.023C427.791 319.248 428.118 319.36 428.528 319.36C428.965 319.36 429.298 319.246 429.529 319.019C429.76 318.791 429.876 318.464 429.876 318.037C429.876 317.624 429.749 317.306 429.495 317.085C429.241 316.864 428.875 316.75 428.396 316.743H427.718V316.006ZM436.609 313.398L433.665 320H432.718L435.652 313.633H431.805V312.891H436.609V313.398ZM438.948 316.006H439.627C440.053 315.999 440.389 315.887 440.633 315.669C440.877 315.451 440.999 315.156 440.999 314.785C440.999 313.952 440.584 313.535 439.754 313.535C439.363 313.535 439.051 313.647 438.816 313.872C438.585 314.093 438.47 314.388 438.47 314.756H437.566C437.566 314.193 437.771 313.726 438.182 313.354C438.595 312.98 439.119 312.793 439.754 312.793C440.424 312.793 440.95 312.97 441.331 313.325C441.712 313.68 441.902 314.173 441.902 314.805C441.902 315.114 441.801 315.413 441.6 315.703C441.401 315.993 441.129 316.209 440.784 316.353C441.175 316.476 441.476 316.681 441.688 316.968C441.902 317.254 442.01 317.604 442.01 318.018C442.01 318.656 441.801 319.162 441.385 319.536C440.968 319.91 440.426 320.098 439.759 320.098C439.091 320.098 438.548 319.917 438.128 319.556C437.711 319.194 437.503 318.717 437.503 318.125H438.411C438.411 318.499 438.533 318.799 438.777 319.023C439.021 319.248 439.349 319.36 439.759 319.36C440.195 319.36 440.529 319.246 440.76 319.019C440.991 318.791 441.106 318.464 441.106 318.037C441.106 317.624 440.979 317.306 440.726 317.085C440.472 316.864 440.105 316.75 439.627 316.743H438.948V316.006ZM445.462 319.36C445.784 319.36 446.066 319.263 446.307 319.067C446.548 318.872 446.681 318.628 446.707 318.335H447.562C447.545 318.638 447.441 318.926 447.249 319.199C447.057 319.473 446.8 319.691 446.478 319.854C446.159 320.016 445.82 320.098 445.462 320.098C444.743 320.098 444.17 319.858 443.743 319.38C443.32 318.898 443.108 318.241 443.108 317.407V317.256C443.108 316.742 443.203 316.284 443.392 315.884C443.58 315.483 443.851 315.173 444.202 314.951C444.557 314.73 444.975 314.619 445.457 314.619C446.049 314.619 446.541 314.797 446.932 315.151C447.326 315.506 447.535 315.967 447.562 316.533H446.707C446.681 316.191 446.551 315.911 446.316 315.693C446.085 315.472 445.799 315.361 445.457 315.361C444.998 315.361 444.642 315.527 444.388 315.859C444.137 316.188 444.012 316.665 444.012 317.29V317.461C444.012 318.07 444.137 318.538 444.388 318.867C444.638 319.196 444.996 319.36 445.462 319.36ZM395.223 330.96V329.27H398.093V328.61H392.573V327.16H397.883V324.43H391.743V325.1H397.083V326.5H391.763V329.27H394.393V330.96H390.743V331.63H398.893V330.96H395.223ZM406.172 325.62C406.172 326.73 406.172 328.07 405.812 329.9L406.632 329.99C406.982 328.05 406.982 326.76 406.982 325.62V324.72H400.832V325.39H406.172V325.62ZM399.962 330.75V331.43H408.072V330.75H399.962ZM416.511 323.78H415.691V330.33H416.511V323.78ZM410.161 326.6C410.161 325.73 410.821 325.11 411.691 325.11C412.581 325.11 413.241 325.73 413.241 326.6C413.241 327.49 412.581 328.11 411.691 328.11C410.821 328.11 410.161 327.49 410.161 326.6ZM414.041 326.6C414.041 325.31 413.031 324.4 411.691 324.4C410.361 324.4 409.361 325.31 409.361 326.6C409.361 327.9 410.361 328.82 411.691 328.82C413.031 328.82 414.041 327.9 414.041 326.6ZM411.561 331.87V329.66H410.741V332.54H416.781V331.87H411.561ZM422.401 325.57H423.521V329.78C423.141 329.8 422.771 329.81 422.401 329.82V325.57ZM424.271 325.57H425.011V324.91H420.911V325.57H421.651V329.84C421.311 329.85 421.011 329.85 420.741 329.85L420.821 330.53C421.991 330.53 423.871 330.49 425.261 330.23L425.211 329.63C424.921 329.67 424.591 329.7 424.271 329.73V325.57ZM425.971 327.19H424.741V327.91H425.971V332.27H426.741V323.99H425.971V327.19ZM427.701 323.78V332.74H428.491V323.78H427.701ZM436.55 323.77V332.76H437.37V323.77H436.55ZM432.64 324.46C431.31 324.46 430.36 325.68 430.36 327.59C430.36 329.5 431.31 330.72 432.64 330.72C433.97 330.72 434.92 329.5 434.92 327.59C434.92 325.68 433.97 324.46 432.64 324.46ZM432.64 325.2C433.51 325.2 434.13 326.14 434.13 327.59C434.13 329.05 433.51 329.99 432.64 329.99C431.76 329.99 431.14 329.05 431.14 327.59C431.14 326.14 431.76 325.2 432.64 325.2ZM442.429 325.37H444.539V324.69H439.529V325.37H441.609V326.51C441.609 328.06 440.519 329.75 439.229 330.36L439.709 331.02C440.729 330.5 441.609 329.37 442.019 328.06C442.449 329.29 443.329 330.32 444.369 330.8L444.829 330.14C443.509 329.58 442.429 328.03 442.429 326.51V325.37ZM445.749 323.78V332.74H446.569V323.78H445.749ZM459.029 328.21H457.699C457.949 326.92 457.949 325.97 457.949 325.13V324.35H451.929V325.01H457.149V325.13C457.149 325.97 457.149 326.92 456.869 328.21H450.919V328.88H454.539V332.75H455.369V328.88H459.029V328.21ZM465.148 326.16V326.83H466.658V328.04H465.148V328.71H466.658V330.61H467.488V323.78H466.658V326.16H465.148ZM465.148 324.87H463.088V323.76H462.268V324.87H460.128V325.53H465.148V324.87ZM461.418 327.73C461.418 327.1 461.928 326.67 462.668 326.67C463.408 326.67 463.918 327.1 463.918 327.73C463.918 328.37 463.408 328.81 462.668 328.81C461.928 328.81 461.418 328.37 461.418 327.73ZM464.698 327.73C464.698 326.71 463.858 326.03 462.668 326.03C461.478 326.03 460.638 326.71 460.638 327.73C460.638 328.76 461.478 329.45 462.668 329.45C463.858 329.45 464.698 328.76 464.698 327.73ZM462.548 331.87V330.03H461.728V332.54H467.698V331.87H462.548Z" fill="black"/>
<path d="M603.332 333.73C604.812 333.57 606.112 333.04 606.662 332.16C607.202 333.04 608.512 333.57 609.992 333.73L610.242 333.09C608.562 332.95 607.202 332.27 607.112 331.3H609.882V330.65H607.072V329.74H606.252V330.65H603.442V331.3H606.202C606.112 332.27 604.752 332.95 603.082 333.09L603.332 333.73ZM608.892 337.24C608.892 337.8 608.072 338.11 606.652 338.11C605.232 338.11 604.412 337.8 604.412 337.24C604.412 336.69 605.232 336.37 606.652 336.37C608.072 336.37 608.892 336.69 608.892 337.24ZM610.712 334.86V334.2H602.602V334.86H606.252V335.76C604.562 335.83 603.582 336.35 603.582 337.24C603.582 338.21 604.722 338.73 606.662 338.73C608.582 338.73 609.722 338.21 609.722 337.24C609.722 336.35 608.742 335.83 607.062 335.76V334.86H610.712ZM613.601 337.1H618.871V335.08H612.771V335.71H618.061V336.5H612.801V338.63H619.141V338H613.601V337.1ZM616.271 333.67V332.82H618.951V332.16H613.701V330.77H618.861V330.11H612.881V332.82H615.451V333.67H611.791V334.33H619.911V333.67H616.271ZM627.201 333.4H624.661V332.06H627.201V333.4ZM628.001 330.14H627.201V331.43H624.661V330.14H623.851V334.06H628.001V330.14ZM625.571 337.01H630.441V334.83H624.741V335.48H629.631V336.4H624.771V338.64H630.771V337.99H625.571V337.01ZM630.441 331.7V329.78H629.621V334.41H630.441V332.38H631.771V331.7H630.441ZM638.32 332.85H639.46V335.31H640.25V329.78H639.46V332.18H638.32V329.95H637.54V335.02H638.32V332.85ZM637.17 333.98C636.02 333.54 635.35 332.53 635.35 331.54V330.33H634.56V331.54C634.56 332.54 633.86 333.7 632.69 334.22L633.13 334.86C634 334.47 634.64 333.71 634.96 332.87C635.28 333.63 635.89 334.27 636.73 334.61L637.17 333.98ZM637.29 338.1C635.95 338.1 635.11 337.74 635.11 337.12C635.11 336.5 635.95 336.15 637.29 336.15C638.65 336.15 639.48 336.5 639.48 337.12C639.48 337.74 638.65 338.1 637.29 338.1ZM637.29 335.51C635.45 335.51 634.3 336.1 634.3 337.12C634.3 338.14 635.45 338.73 637.29 338.73C639.14 338.73 640.29 338.14 640.29 337.12C640.29 336.1 639.14 335.51 637.29 335.51ZM643.044 335.993H642.229L642.165 330.891H643.112L643.044 335.993ZM642.131 337.546C642.131 337.399 642.175 337.277 642.263 337.18C642.354 337.079 642.487 337.028 642.663 337.028C642.839 337.028 642.972 337.079 643.063 337.18C643.155 337.277 643.2 337.399 643.2 337.546C643.2 337.692 643.155 337.814 643.063 337.912C642.972 338.007 642.839 338.054 642.663 338.054C642.487 338.054 642.354 338.007 642.263 337.912C642.175 337.814 642.131 337.692 642.131 337.546Z" fill="#FF0000"/>
<path d="M432.262 348C429.985 338.652 441.62 317.945 505 319.042" stroke="#4000C7"/>
<path d="M590.738 348C593.015 338.652 581.38 317.945 518 319.042" stroke="#4000C7"/>
<rect x="609.031" y="367.209" width="18" height="41" rx="5" transform="rotate(-64.2277 609.031 367.209)" fill="black"/>
<path d="M605.739 355.626L614.675 356.094L611.662 362.333L605.739 355.626Z" fill="black"/>
<path d="M622.791 361.219L622.535 361.811C623.137 361.545 623.764 361.569 624.415 361.884C625.147 362.237 625.51 362.758 625.503 363.447C625.799 363.279 626.122 363.185 626.475 363.164C626.83 363.145 627.198 363.227 627.578 363.411C628.726 363.965 629.016 364.855 628.449 366.08L626.756 369.586L625.861 369.154L627.528 365.701C627.709 365.327 627.758 365.007 627.676 364.74C627.595 364.471 627.353 364.239 626.95 364.044C626.618 363.884 626.294 363.851 625.978 363.945C625.664 364.036 625.408 364.24 625.211 364.558L623.534 368.031L622.635 367.597L624.29 364.167C624.658 363.406 624.469 362.846 623.724 362.487C623.137 362.203 622.615 362.259 622.158 362.655L620.313 366.476L619.418 366.044L621.945 360.81L622.791 361.219ZM631.341 371.8C631.339 371.672 631.386 371.468 631.481 371.188C630.857 371.419 630.256 371.396 629.679 371.117C629.163 370.868 628.809 370.518 628.617 370.068C628.43 369.615 628.444 369.165 628.661 368.717C628.924 368.172 629.334 367.849 629.892 367.749C630.454 367.646 631.111 367.777 631.862 368.139L632.733 368.56L632.931 368.149C633.082 367.836 633.108 367.542 633.01 367.268C632.913 366.991 632.683 366.764 632.319 366.588C631.999 366.434 631.693 366.386 631.399 366.443C631.105 366.499 630.903 366.642 630.792 366.871L629.893 366.437C630.019 366.176 630.232 365.969 630.533 365.816C630.838 365.661 631.183 365.589 631.567 365.599C631.955 365.612 632.339 365.71 632.72 365.893C633.323 366.184 633.722 366.564 633.917 367.032C634.114 367.497 634.092 367.997 633.849 368.532L632.686 370.941C632.454 371.421 632.331 371.833 632.317 372.176L632.279 372.253L631.341 371.8ZM630.185 370.401C630.466 370.537 630.767 370.593 631.088 370.569C631.41 370.545 631.683 370.445 631.908 370.267L632.427 369.193L631.725 368.855C630.629 368.325 629.926 368.381 629.616 369.023C629.481 369.304 629.468 369.568 629.579 369.816C629.69 370.065 629.892 370.26 630.185 370.401ZM634.47 373.311L633.576 372.879L636.102 367.646L636.997 368.078L634.47 373.311ZM636.7 366.223C636.77 366.078 636.873 365.976 637.008 365.918C637.147 365.862 637.303 365.876 637.477 365.96C637.651 366.044 637.759 366.158 637.801 366.301C637.843 366.445 637.829 366.589 637.759 366.734C637.689 366.879 637.586 366.978 637.449 367.031C637.312 367.085 637.156 367.069 636.982 366.985C636.808 366.901 636.699 366.789 636.655 366.648C636.615 366.51 636.63 366.368 636.7 366.223ZM639.28 369.18L638.992 369.852C639.634 369.542 640.278 369.543 640.923 369.854C642.029 370.388 642.286 371.281 641.693 372.534L640.023 375.992L639.128 375.56L640.8 372.097C640.979 371.718 641.027 371.397 640.943 371.134C640.863 370.873 640.643 370.655 640.285 370.483C639.995 370.343 639.703 370.297 639.409 370.346C639.115 370.395 638.846 370.515 638.602 370.708L636.802 374.437L635.907 374.005L638.434 368.771L639.28 369.18Z" fill="white"/>
<circle cx="511.5" cy="318.5" r="9.5" fill="#4000C7"/>
<line x1="432" y1="350.5" x2="590" y2="350.5" stroke="#4000C7"/>
<path d="M573.665 542H572.762V534.5H573.665V542ZM574.876 539.31C574.876 538.792 574.977 538.326 575.179 537.913C575.384 537.5 575.667 537.181 576.028 536.956C576.393 536.731 576.808 536.619 577.273 536.619C577.993 536.619 578.574 536.868 579.017 537.366C579.463 537.864 579.686 538.527 579.686 539.354V539.417C579.686 539.931 579.586 540.394 579.388 540.804C579.192 541.211 578.911 541.528 578.543 541.756C578.178 541.984 577.758 542.098 577.283 542.098C576.567 542.098 575.986 541.849 575.54 541.351C575.097 540.853 574.876 540.193 574.876 539.373V539.31ZM575.784 539.417C575.784 540.003 575.919 540.473 576.189 540.828C576.463 541.183 576.827 541.36 577.283 541.36C577.742 541.36 578.107 541.181 578.377 540.823C578.647 540.462 578.782 539.957 578.782 539.31C578.782 538.73 578.644 538.261 578.367 537.903C578.094 537.542 577.729 537.361 577.273 537.361C576.827 537.361 576.468 537.539 576.194 537.894C575.921 538.248 575.784 538.756 575.784 539.417ZM580.604 539.314C580.604 538.491 580.794 537.837 581.175 537.352C581.556 536.863 582.06 536.619 582.688 536.619C583.333 536.619 583.836 536.847 584.197 537.303L584.241 536.717H585.066V541.873C585.066 542.557 584.863 543.095 584.456 543.489C584.052 543.883 583.509 544.08 582.825 544.08C582.444 544.08 582.072 543.999 581.707 543.836C581.342 543.673 581.064 543.45 580.872 543.167L581.341 542.625C581.728 543.104 582.202 543.343 582.762 543.343C583.201 543.343 583.543 543.219 583.787 542.972C584.035 542.724 584.158 542.376 584.158 541.927V541.473C583.797 541.889 583.304 542.098 582.679 542.098C582.06 542.098 581.559 541.849 581.175 541.351C580.794 540.853 580.604 540.174 580.604 539.314ZM581.512 539.417C581.512 540.013 581.634 540.481 581.878 540.823C582.122 541.162 582.464 541.331 582.903 541.331C583.473 541.331 583.891 541.072 584.158 540.555V538.143C583.882 537.638 583.466 537.386 582.913 537.386C582.474 537.386 582.13 537.557 581.883 537.898C581.635 538.24 581.512 538.746 581.512 539.417ZM587.415 542H586.512V536.717H587.415V542ZM586.438 535.315C586.438 535.169 586.482 535.045 586.57 534.944C586.661 534.843 586.795 534.793 586.971 534.793C587.146 534.793 587.28 534.843 587.371 534.944C587.462 535.045 587.508 535.169 587.508 535.315C587.508 535.462 587.462 535.584 587.371 535.682C587.28 535.779 587.146 535.828 586.971 535.828C586.795 535.828 586.661 535.779 586.57 535.682C586.482 535.584 586.438 535.462 586.438 535.315ZM589.72 536.717L589.749 537.381C590.153 536.873 590.68 536.619 591.331 536.619C592.448 536.619 593.011 537.249 593.021 538.509V542H592.117V538.504C592.114 538.123 592.026 537.841 591.854 537.659C591.684 537.477 591.419 537.386 591.058 537.386C590.765 537.386 590.507 537.464 590.286 537.62C590.065 537.776 589.892 537.981 589.769 538.235V542H588.865V536.717H589.72ZM594.402 541.526C594.402 541.37 594.448 541.24 594.539 541.136C594.633 541.032 594.773 540.979 594.959 540.979C595.145 540.979 595.285 541.032 595.379 541.136C595.477 541.24 595.525 541.37 595.525 541.526C595.525 541.676 595.477 541.801 595.379 541.902C595.285 542.003 595.145 542.054 594.959 542.054C594.773 542.054 594.633 542.003 594.539 541.902C594.448 541.801 594.402 541.676 594.402 541.526ZM597.952 536.717V542.61C597.952 543.626 597.492 544.134 596.57 544.134C596.372 544.134 596.188 544.104 596.019 544.046V543.323C596.123 543.349 596.259 543.362 596.429 543.362C596.631 543.362 596.784 543.307 596.888 543.196C596.995 543.089 597.049 542.9 597.049 542.63V536.717H597.952ZM596.956 535.315C596.956 535.172 597 535.05 597.088 534.949C597.179 534.845 597.311 534.793 597.483 534.793C597.659 534.793 597.793 534.843 597.884 534.944C597.975 535.045 598.021 535.169 598.021 535.315C598.021 535.462 597.975 535.584 597.884 535.682C597.793 535.779 597.659 535.828 597.483 535.828C597.308 535.828 597.176 535.779 597.088 535.682C597 535.584 596.956 535.462 596.956 535.315ZM602.488 540.599C602.488 540.354 602.396 540.166 602.21 540.032C602.028 539.896 601.707 539.778 601.248 539.681C600.792 539.583 600.429 539.466 600.159 539.329C599.892 539.192 599.694 539.03 599.563 538.841C599.437 538.652 599.373 538.427 599.373 538.167C599.373 537.734 599.555 537.368 599.92 537.068C600.288 536.769 600.757 536.619 601.326 536.619C601.925 536.619 602.41 536.774 602.781 537.083C603.156 537.392 603.343 537.788 603.343 538.27H602.435C602.435 538.022 602.329 537.809 602.117 537.63C601.909 537.451 601.645 537.361 601.326 537.361C600.997 537.361 600.74 537.433 600.555 537.576C600.369 537.719 600.276 537.907 600.276 538.138C600.276 538.356 600.363 538.52 600.535 538.631C600.708 538.742 601.019 538.847 601.468 538.948C601.92 539.049 602.286 539.17 602.566 539.31C602.846 539.45 603.053 539.619 603.187 539.817C603.323 540.013 603.392 540.252 603.392 540.535C603.392 541.007 603.203 541.386 602.825 541.673C602.448 541.956 601.958 542.098 601.355 542.098C600.932 542.098 600.558 542.023 600.232 541.873C599.907 541.723 599.651 541.515 599.466 541.248C599.284 540.978 599.192 540.687 599.192 540.374H600.096C600.112 540.677 600.232 540.918 600.457 541.097C600.685 541.272 600.984 541.36 601.355 541.36C601.697 541.36 601.971 541.292 602.176 541.155C602.384 541.015 602.488 540.83 602.488 540.599Z" fill="#4000C7"/>
<path d="M598.746 512.016L592.938 506.252C592.776 506.091 592.558 506 592.328 506H580.864C580.386 506 580 506.383 580 506.857V529.143C580 529.617 580.386 530 580.864 530H598.136C598.614 530 599 529.617 599 529.143V512.624C599 512.396 598.908 512.177 598.746 512.016ZM597.008 513.018H591.929V507.977L597.008 513.018ZM597.057 528.071H581.943V507.929H590.094V513.714C590.094 514.013 590.213 514.299 590.426 514.51C590.638 514.721 590.927 514.839 591.227 514.839H597.057V528.071ZM589.284 520.839H584.318C584.199 520.839 584.102 520.936 584.102 521.054V522.339C584.102 522.457 584.199 522.554 584.318 522.554H589.284C589.403 522.554 589.5 522.457 589.5 522.339V521.054C589.5 520.936 589.403 520.839 589.284 520.839ZM584.102 517.411V518.696C584.102 518.814 584.199 518.911 584.318 518.911H594.682C594.801 518.911 594.898 518.814 594.898 518.696V517.411C594.898 517.293 594.801 517.196 594.682 517.196H584.318C584.199 517.196 584.102 517.293 584.102 517.411Z" fill="#4000C7"/>
<path d="M511.646 300.354C511.842 300.549 512.158 300.549 512.354 300.354L515.536 297.172C515.731 296.976 515.731 296.66 515.536 296.464C515.34 296.269 515.024 296.269 514.828 296.464L512 299.293L509.172 296.464C508.976 296.269 508.66 296.269 508.464 296.464C508.269 296.66 508.269 296.976 508.464 297.172L511.646 300.354ZM511.5 80L511.5 300L512.5 300L512.5 80L511.5 80Z" fill="#4000C7"/>
<path d="M589.646 497.354C589.842 497.549 590.158 497.549 590.354 497.354L593.536 494.172C593.731 493.976 593.731 493.66 593.536 493.464C593.34 493.269 593.024 493.269 592.828 493.464L590 496.293L587.172 493.464C586.976 493.269 586.66 493.269 586.464 493.464C586.269 493.66 586.269 493.976 586.464 494.172L589.646 497.354ZM589.5 360L589.5 497L590.5 497L590.5 360L589.5 360Z" fill="#4000C7"/>
<circle cx="590.5" cy="350.5" r="9" fill="white" stroke="#4000C7" stroke-dasharray="2 2"/>
</svg>
