<svg width="1152" height="587" viewBox="0 0 1152 587" fill="none" xmlns="http://www.w3.org/2000/svg">
<path d="M0 0H1152V587H0V0Z" fill="white" fill-opacity="0.01"/>
<path d="M330.269 319.436L330.63 315.891H334.272V316.726H331.396L331.182 318.664C331.53 318.459 331.925 318.356 332.368 318.356C333.016 318.356 333.53 318.571 333.911 319.001C334.292 319.427 334.482 320.005 334.482 320.734C334.482 321.467 334.284 322.045 333.887 322.468C333.493 322.888 332.941 323.098 332.231 323.098C331.603 323.098 331.09 322.924 330.693 322.575C330.296 322.227 330.07 321.745 330.015 321.13H330.869C330.924 321.537 331.069 321.844 331.304 322.053C331.538 322.258 331.847 322.36 332.231 322.36C332.651 322.36 332.98 322.217 333.218 321.931C333.459 321.644 333.579 321.249 333.579 320.744C333.579 320.269 333.449 319.888 333.188 319.602C332.931 319.312 332.588 319.167 332.158 319.167C331.764 319.167 331.455 319.253 331.23 319.426L330.991 319.621L330.269 319.436ZM337.754 323.098C337.038 323.098 336.455 322.863 336.006 322.395C335.557 321.923 335.332 321.293 335.332 320.505V320.339C335.332 319.815 335.431 319.348 335.63 318.938C335.832 318.524 336.112 318.202 336.47 317.971C336.831 317.736 337.222 317.619 337.642 317.619C338.328 317.619 338.862 317.845 339.243 318.298C339.624 318.75 339.814 319.398 339.814 320.241V320.617H336.235C336.248 321.138 336.4 321.56 336.689 321.882C336.982 322.201 337.354 322.36 337.803 322.36C338.122 322.36 338.392 322.295 338.613 322.165C338.835 322.035 339.028 321.862 339.194 321.647L339.746 322.077C339.303 322.757 338.639 323.098 337.754 323.098ZM337.642 318.361C337.277 318.361 336.971 318.495 336.724 318.762C336.476 319.025 336.323 319.396 336.265 319.875H338.911V319.807C338.885 319.348 338.761 318.993 338.54 318.742C338.319 318.488 338.019 318.361 337.642 318.361ZM342.983 322.36C343.306 322.36 343.587 322.263 343.828 322.067C344.069 321.872 344.202 321.628 344.229 321.335H345.083C345.067 321.638 344.963 321.926 344.771 322.199C344.578 322.473 344.321 322.691 343.999 322.854C343.68 323.016 343.341 323.098 342.983 323.098C342.264 323.098 341.691 322.858 341.265 322.38C340.841 321.898 340.63 321.241 340.63 320.407V320.256C340.63 319.742 340.724 319.284 340.913 318.884C341.102 318.483 341.372 318.173 341.724 317.951C342.078 317.73 342.497 317.619 342.979 317.619C343.571 317.619 344.062 317.797 344.453 318.151C344.847 318.506 345.057 318.967 345.083 319.533H344.229C344.202 319.191 344.072 318.911 343.838 318.693C343.607 318.472 343.32 318.361 342.979 318.361C342.52 318.361 342.163 318.527 341.909 318.859C341.659 319.188 341.533 319.665 341.533 320.29V320.461C341.533 321.07 341.659 321.538 341.909 321.867C342.16 322.196 342.518 322.36 342.983 322.36ZM347.319 319.006H347.998C348.424 318.999 348.76 318.887 349.004 318.669C349.248 318.451 349.37 318.156 349.37 317.785C349.37 316.952 348.955 316.535 348.125 316.535C347.734 316.535 347.422 316.647 347.188 316.872C346.956 317.093 346.841 317.388 346.841 317.756H345.938C345.938 317.193 346.143 316.726 346.553 316.354C346.966 315.98 347.49 315.793 348.125 315.793C348.796 315.793 349.321 315.97 349.702 316.325C350.083 316.68 350.273 317.173 350.273 317.805C350.273 318.114 350.173 318.413 349.971 318.703C349.772 318.993 349.5 319.209 349.155 319.353C349.546 319.476 349.847 319.681 350.059 319.968C350.273 320.254 350.381 320.604 350.381 321.018C350.381 321.656 350.173 322.162 349.756 322.536C349.339 322.91 348.797 323.098 348.13 323.098C347.463 323.098 346.919 322.917 346.499 322.556C346.082 322.194 345.874 321.717 345.874 321.125H346.782C346.782 321.499 346.904 321.799 347.148 322.023C347.393 322.248 347.72 322.36 348.13 322.36C348.566 322.36 348.9 322.246 349.131 322.019C349.362 321.791 349.478 321.464 349.478 321.037C349.478 320.624 349.351 320.306 349.097 320.085C348.843 319.864 348.477 319.75 347.998 319.743H347.319V319.006ZM354.59 323H353.682V316.979L351.86 317.648V316.828L354.448 315.856H354.59V323ZM361.895 323H357.236V322.351L359.697 319.616C360.062 319.203 360.312 318.868 360.449 318.61C360.589 318.35 360.659 318.081 360.659 317.805C360.659 317.434 360.547 317.129 360.322 316.892C360.098 316.654 359.798 316.535 359.424 316.535C358.975 316.535 358.625 316.664 358.374 316.921C358.127 317.175 358.003 317.53 358.003 317.985H357.1C357.1 317.331 357.31 316.802 357.729 316.398C358.153 315.995 358.717 315.793 359.424 315.793C360.085 315.793 360.607 315.967 360.991 316.315C361.375 316.66 361.567 317.121 361.567 317.697C361.567 318.397 361.121 319.23 360.229 320.197L358.325 322.263H361.895V323ZM363.389 323V318.415H362.554V317.717H363.389V317.175C363.389 316.608 363.54 316.171 363.843 315.861C364.146 315.552 364.574 315.397 365.127 315.397C365.335 315.397 365.542 315.425 365.747 315.48L365.698 316.213C365.545 316.184 365.382 316.169 365.21 316.169C364.917 316.169 364.691 316.255 364.531 316.428C364.372 316.597 364.292 316.841 364.292 317.16V317.717H365.42V318.415H364.292V323H363.389ZM317.085 327.891L319.409 333.691L321.733 327.891H322.949V335H322.012V332.231L322.1 329.243L319.766 335H319.048L316.719 329.258L316.812 332.231V335H315.874V327.891H317.085ZM326.655 335.098C325.939 335.098 325.356 334.863 324.907 334.395C324.458 333.923 324.233 333.293 324.233 332.505V332.339C324.233 331.815 324.333 331.348 324.531 330.938C324.733 330.524 325.013 330.202 325.371 329.971C325.732 329.736 326.123 329.619 326.543 329.619C327.23 329.619 327.764 329.845 328.145 330.298C328.525 330.75 328.716 331.398 328.716 332.241V332.617H325.137C325.15 333.138 325.301 333.56 325.591 333.882C325.884 334.201 326.255 334.36 326.704 334.36C327.023 334.36 327.293 334.295 327.515 334.165C327.736 334.035 327.93 333.862 328.096 333.647L328.647 334.077C328.205 334.757 327.541 335.098 326.655 335.098ZM326.543 330.361C326.178 330.361 325.872 330.495 325.625 330.762C325.378 331.025 325.225 331.396 325.166 331.875H327.812V331.807C327.786 331.348 327.663 330.993 327.441 330.742C327.22 330.488 326.921 330.361 326.543 330.361ZM332.319 330.527C332.183 330.505 332.035 330.493 331.875 330.493C331.283 330.493 330.881 330.745 330.669 331.25V335H329.766V329.717H330.645L330.659 330.327C330.955 329.855 331.375 329.619 331.919 329.619C332.095 329.619 332.228 329.642 332.319 329.688V330.527ZM332.842 332.314C332.842 331.491 333.032 330.837 333.413 330.352C333.794 329.863 334.299 329.619 334.927 329.619C335.571 329.619 336.074 329.847 336.436 330.303L336.479 329.717H337.305V334.873C337.305 335.557 337.101 336.095 336.694 336.489C336.291 336.883 335.747 337.08 335.063 337.08C334.683 337.08 334.31 336.999 333.945 336.836C333.581 336.673 333.302 336.45 333.11 336.167L333.579 335.625C333.966 336.104 334.44 336.343 335 336.343C335.439 336.343 335.781 336.219 336.025 335.972C336.273 335.724 336.396 335.376 336.396 334.927V334.473C336.035 334.889 335.542 335.098 334.917 335.098C334.299 335.098 333.797 334.849 333.413 334.351C333.032 333.853 332.842 333.174 332.842 332.314ZM333.75 332.417C333.75 333.013 333.872 333.481 334.116 333.823C334.36 334.162 334.702 334.331 335.142 334.331C335.711 334.331 336.13 334.072 336.396 333.555V331.143C336.12 330.638 335.705 330.386 335.151 330.386C334.712 330.386 334.368 330.557 334.121 330.898C333.874 331.24 333.75 331.746 333.75 332.417ZM340.864 335.098C340.148 335.098 339.565 334.863 339.116 334.395C338.667 333.923 338.442 333.293 338.442 332.505V332.339C338.442 331.815 338.542 331.348 338.74 330.938C338.942 330.524 339.222 330.202 339.58 329.971C339.941 329.736 340.332 329.619 340.752 329.619C341.439 329.619 341.973 329.845 342.354 330.298C342.734 330.75 342.925 331.398 342.925 332.241V332.617H339.346C339.359 333.138 339.51 333.56 339.8 333.882C340.093 334.201 340.464 334.36 340.913 334.36C341.232 334.36 341.502 334.295 341.724 334.165C341.945 334.035 342.139 333.862 342.305 333.647L342.856 334.077C342.414 334.757 341.75 335.098 340.864 335.098ZM340.752 330.361C340.387 330.361 340.081 330.495 339.834 330.762C339.587 331.025 339.434 331.396 339.375 331.875H342.021V331.807C341.995 331.348 341.872 330.993 341.65 330.742C341.429 330.488 341.13 330.361 340.752 330.361ZM348.574 334.36C348.896 334.36 349.178 334.263 349.419 334.067C349.66 333.872 349.793 333.628 349.819 333.335H350.674C350.658 333.638 350.553 333.926 350.361 334.199C350.169 334.473 349.912 334.691 349.59 334.854C349.271 335.016 348.932 335.098 348.574 335.098C347.855 335.098 347.282 334.858 346.855 334.38C346.432 333.898 346.221 333.241 346.221 332.407V332.256C346.221 331.742 346.315 331.284 346.504 330.884C346.693 330.483 346.963 330.173 347.314 329.951C347.669 329.73 348.088 329.619 348.569 329.619C349.162 329.619 349.653 329.797 350.044 330.151C350.438 330.506 350.648 330.967 350.674 331.533H349.819C349.793 331.191 349.663 330.911 349.429 330.693C349.198 330.472 348.911 330.361 348.569 330.361C348.11 330.361 347.754 330.527 347.5 330.859C347.249 331.188 347.124 331.665 347.124 332.29V332.461C347.124 333.07 347.249 333.538 347.5 333.867C347.751 334.196 348.109 334.36 348.574 334.36ZM351.45 332.31C351.45 331.792 351.551 331.326 351.753 330.913C351.958 330.5 352.241 330.181 352.603 329.956C352.967 329.731 353.382 329.619 353.848 329.619C354.567 329.619 355.148 329.868 355.591 330.366C356.037 330.864 356.26 331.527 356.26 332.354V332.417C356.26 332.931 356.16 333.394 355.962 333.804C355.767 334.211 355.485 334.528 355.117 334.756C354.753 334.984 354.333 335.098 353.857 335.098C353.141 335.098 352.56 334.849 352.114 334.351C351.672 333.853 351.45 333.193 351.45 332.373V332.31ZM352.358 332.417C352.358 333.003 352.493 333.473 352.764 333.828C353.037 334.183 353.402 334.36 353.857 334.36C354.316 334.36 354.681 334.181 354.951 333.823C355.221 333.462 355.356 332.957 355.356 332.31C355.356 331.73 355.218 331.261 354.941 330.903C354.668 330.542 354.303 330.361 353.848 330.361C353.402 330.361 353.042 330.539 352.769 330.894C352.495 331.248 352.358 331.756 352.358 332.417ZM358.242 329.717L358.267 330.303C358.654 329.847 359.176 329.619 359.834 329.619C360.573 329.619 361.076 329.902 361.343 330.469C361.519 330.215 361.746 330.01 362.026 329.854C362.31 329.697 362.643 329.619 363.027 329.619C364.186 329.619 364.775 330.233 364.795 331.46V335H363.892V331.514C363.892 331.136 363.805 330.854 363.633 330.669C363.46 330.48 363.171 330.386 362.764 330.386C362.428 330.386 362.15 330.487 361.929 330.688C361.707 330.887 361.579 331.156 361.543 331.494V335H360.635V331.538C360.635 330.77 360.259 330.386 359.507 330.386C358.914 330.386 358.509 330.638 358.291 331.143V335H357.388V329.717H358.242ZM367.012 329.717L367.036 330.303C367.424 329.847 367.946 329.619 368.604 329.619C369.342 329.619 369.845 329.902 370.112 330.469C370.288 330.215 370.516 330.01 370.796 329.854C371.079 329.697 371.413 329.619 371.797 329.619C372.956 329.619 373.545 330.233 373.564 331.46V335H372.661V331.514C372.661 331.136 372.575 330.854 372.402 330.669C372.23 330.48 371.94 330.386 371.533 330.386C371.198 330.386 370.92 330.487 370.698 330.688C370.477 330.887 370.348 331.156 370.312 331.494V335H369.404V331.538C369.404 330.77 369.028 330.386 368.276 330.386C367.684 330.386 367.279 330.638 367.061 331.143V335H366.157V329.717H367.012ZM375.913 335H375.01V329.717H375.913V335ZM374.937 328.315C374.937 328.169 374.98 328.045 375.068 327.944C375.16 327.843 375.293 327.793 375.469 327.793C375.645 327.793 375.778 327.843 375.869 327.944C375.96 328.045 376.006 328.169 376.006 328.315C376.006 328.462 375.96 328.584 375.869 328.682C375.778 328.779 375.645 328.828 375.469 328.828C375.293 328.828 375.16 328.779 375.068 328.682C374.98 328.584 374.937 328.462 374.937 328.315ZM378.589 328.438V329.717H379.575V330.415H378.589V333.691C378.589 333.903 378.633 334.062 378.721 334.17C378.809 334.274 378.958 334.326 379.17 334.326C379.274 334.326 379.417 334.307 379.6 334.268V335C379.362 335.065 379.131 335.098 378.906 335.098C378.503 335.098 378.198 334.976 377.993 334.731C377.788 334.487 377.686 334.141 377.686 333.691V330.415H376.724V329.717H377.686V328.438H378.589Z" fill="black"/>
<rect x="386" y="302" width="88" height="27" rx="13.5" fill="#7D7D7D"/>
<path d="M406.241 312.408V313.279H408.204V314.852H406.241V315.723H408.204V318.193H409.283V309.314H408.204V312.408H406.241ZM406.241 310.731H403.563V309.288H402.497V310.731H399.715V311.589H406.241V310.731ZM401.392 314.449C401.392 313.63 402.055 313.071 403.017 313.071C403.979 313.071 404.642 313.63 404.642 314.449C404.642 315.281 403.979 315.853 403.017 315.853C402.055 315.853 401.392 315.281 401.392 314.449ZM405.656 314.449C405.656 313.123 404.564 312.239 403.017 312.239C401.47 312.239 400.378 313.123 400.378 314.449C400.378 315.788 401.47 316.685 403.017 316.685C404.564 316.685 405.656 315.788 405.656 314.449ZM402.861 319.831V317.439H401.795V320.702H409.556V319.831H402.861ZM415.093 311.55H417.212V310.679H411.804V311.55H414.066V312.46C414.066 314.826 413.195 316.815 411.531 317.751L412.181 318.557C413.39 317.855 414.209 316.594 414.599 315.008C415.015 316.386 415.821 317.517 416.965 318.154L417.589 317.335C415.938 316.477 415.093 314.592 415.093 312.46V311.55ZM420.566 309.288V314.007H419.032V309.561H418.031V320.39H419.032V314.891H420.566V320.962H421.593V309.288H420.566ZM436.4 309.314H435.334V317.842H436.4V309.314ZM433.956 315.333C432.24 314.761 431.031 313.344 431.031 311.771V311.134H433.67V310.276H427.274V311.134H429.939V311.771C429.939 313.435 428.756 314.956 426.988 315.567L427.547 316.399C428.925 315.905 430.004 314.852 430.498 313.526C431.031 314.748 432.097 315.71 433.436 316.178L433.956 315.333ZM429.965 319.831V317.036H428.899V320.702H436.751V319.831H429.965ZM446.123 313.344H447.605V316.685H448.632V309.301H447.605V312.473H446.123V309.522H445.109V316.256H446.123V313.344ZM444.641 310.692H442.223V309.392H441.17V310.692H438.726V311.537H444.654L444.641 310.692ZM440.169 314.137C440.169 313.422 440.78 312.941 441.703 312.941C442.613 312.941 443.237 313.422 443.237 314.137C443.237 314.865 442.613 315.346 441.703 315.346C440.78 315.346 440.169 314.865 440.169 314.137ZM444.186 314.137C444.186 312.941 443.172 312.148 441.703 312.148C440.234 312.148 439.207 312.941 439.207 314.137C439.207 315.359 440.234 316.139 441.703 316.139C443.172 316.139 444.186 315.359 444.186 314.137ZM444.797 320.13C443.016 320.13 441.95 319.688 441.95 318.921C441.95 318.141 443.016 317.699 444.797 317.699C446.565 317.699 447.631 318.141 447.631 318.921C447.631 319.688 446.565 320.13 444.797 320.13ZM444.797 316.88C442.366 316.88 440.897 317.608 440.897 318.921C440.897 320.221 442.366 320.949 444.797 320.949C447.228 320.949 448.697 320.221 448.697 318.921C448.697 317.608 447.228 316.88 444.797 316.88ZM451.725 314.059C453.636 313.825 455.391 312.967 456.028 311.68C456.678 312.967 458.42 313.825 460.331 314.059L460.708 313.214C458.667 312.98 456.808 311.979 456.717 310.692H460.344V309.834H451.725V310.692H455.339C455.248 311.979 453.389 312.98 451.348 313.214L451.725 314.059ZM458.927 318.895C458.927 319.675 457.835 320.13 456.015 320.13C454.182 320.13 453.103 319.675 453.103 318.895C453.103 318.115 454.182 317.673 456.015 317.673C457.835 317.673 458.927 318.115 458.927 318.895ZM461.293 315.619V314.761H450.75V315.619H455.482V316.867C453.311 316.971 452.024 317.686 452.024 318.895C452.024 320.221 453.532 320.949 456.028 320.949C458.511 320.949 460.006 320.221 460.006 318.895C460.006 317.686 458.732 316.971 456.561 316.867V315.619H461.293Z" fill="white"/>
<rect x="451.031" y="367.209" width="18" height="41" rx="5" transform="rotate(-64.2277 451.031 367.209)" fill="black"/>
<path d="M447.739 355.626L456.675 356.094L453.662 362.333L447.739 355.626Z" fill="black"/>
<path d="M464.791 361.219L464.535 361.811C465.137 361.545 465.764 361.569 466.415 361.884C467.147 362.237 467.51 362.758 467.503 363.447C467.799 363.279 468.122 363.185 468.475 363.164C468.83 363.145 469.198 363.227 469.578 363.411C470.726 363.965 471.016 364.855 470.449 366.08L468.756 369.586L467.861 369.154L469.528 365.701C469.709 365.327 469.758 365.007 469.676 364.74C469.595 364.471 469.353 364.239 468.95 364.044C468.618 363.884 468.294 363.851 467.978 363.945C467.664 364.036 467.408 364.24 467.211 364.558L465.534 368.031L464.635 367.597L466.29 364.167C466.658 363.406 466.469 362.846 465.724 362.487C465.137 362.203 464.615 362.259 464.158 362.655L462.313 366.476L461.418 366.044L463.945 360.81L464.791 361.219ZM473.341 371.8C473.339 371.672 473.386 371.468 473.481 371.188C472.857 371.419 472.256 371.396 471.679 371.117C471.163 370.868 470.809 370.518 470.617 370.068C470.43 369.615 470.444 369.165 470.661 368.717C470.924 368.172 471.334 367.849 471.892 367.749C472.454 367.646 473.111 367.777 473.862 368.139L474.733 368.56L474.931 368.149C475.082 367.836 475.108 367.542 475.01 367.268C474.913 366.991 474.683 366.764 474.319 366.588C473.999 366.434 473.693 366.386 473.399 366.443C473.105 366.499 472.903 366.642 472.792 366.871L471.893 366.437C472.019 366.176 472.232 365.969 472.533 365.816C472.838 365.661 473.183 365.589 473.567 365.599C473.955 365.612 474.339 365.71 474.72 365.893C475.323 366.184 475.722 366.564 475.917 367.032C476.114 367.497 476.092 367.997 475.849 368.532L474.686 370.941C474.454 371.421 474.331 371.833 474.317 372.176L474.279 372.253L473.341 371.8ZM472.185 370.401C472.466 370.537 472.767 370.593 473.088 370.569C473.41 370.545 473.683 370.445 473.908 370.267L474.427 369.193L473.725 368.855C472.629 368.325 471.926 368.381 471.616 369.023C471.481 369.304 471.468 369.568 471.579 369.816C471.69 370.065 471.892 370.26 472.185 370.401ZM476.47 373.311L475.576 372.879L478.102 367.646L478.997 368.078L476.47 373.311ZM478.7 366.223C478.77 366.078 478.873 365.976 479.008 365.918C479.147 365.862 479.303 365.876 479.477 365.96C479.651 366.044 479.759 366.158 479.801 366.301C479.843 366.445 479.829 366.589 479.759 366.734C479.689 366.879 479.586 366.978 479.449 367.031C479.312 367.085 479.156 367.069 478.982 366.985C478.808 366.901 478.699 366.789 478.655 366.648C478.615 366.51 478.63 366.368 478.7 366.223ZM481.28 369.18L480.992 369.852C481.634 369.542 482.278 369.543 482.923 369.854C484.029 370.388 484.286 371.281 483.693 372.534L482.023 375.992L481.128 375.56L482.8 372.097C482.979 371.718 483.027 371.397 482.943 371.134C482.863 370.873 482.643 370.655 482.285 370.483C481.995 370.343 481.703 370.297 481.409 370.346C481.115 370.395 480.846 370.515 480.602 370.708L478.802 374.437L477.907 374.005L480.434 368.771L481.28 369.18Z" fill="white"/>
<circle cx="347.5" cy="350.5" r="9.5" fill="#4000C7"/>
<circle cx="429.5" cy="350.5" r="9" fill="white" stroke="#4000C7" stroke-dasharray="2 2"/>
<line x1="348" y1="350.5" x2="420" y2="350.5" stroke="#4000C7"/>
<path d="M412.665 536H411.762V528.5H412.665V536ZM413.876 533.31C413.876 532.792 413.977 532.326 414.179 531.913C414.384 531.5 414.667 531.181 415.028 530.956C415.393 530.731 415.808 530.619 416.273 530.619C416.993 530.619 417.574 530.868 418.017 531.366C418.463 531.864 418.686 532.527 418.686 533.354V533.417C418.686 533.931 418.586 534.394 418.388 534.804C418.192 535.211 417.911 535.528 417.543 535.756C417.178 535.984 416.758 536.098 416.283 536.098C415.567 536.098 414.986 535.849 414.54 535.351C414.097 534.853 413.876 534.193 413.876 533.373V533.31ZM414.784 533.417C414.784 534.003 414.919 534.473 415.189 534.828C415.463 535.183 415.827 535.36 416.283 535.36C416.742 535.36 417.107 535.181 417.377 534.823C417.647 534.462 417.782 533.957 417.782 533.31C417.782 532.73 417.644 532.261 417.367 531.903C417.094 531.542 416.729 531.361 416.273 531.361C415.827 531.361 415.468 531.539 415.194 531.894C414.921 532.248 414.784 532.756 414.784 533.417ZM419.604 533.314C419.604 532.491 419.794 531.837 420.175 531.352C420.556 530.863 421.06 530.619 421.688 530.619C422.333 530.619 422.836 530.847 423.197 531.303L423.241 530.717H424.066V535.873C424.066 536.557 423.863 537.095 423.456 537.489C423.052 537.883 422.509 538.08 421.825 538.08C421.444 538.08 421.072 537.999 420.707 537.836C420.342 537.673 420.064 537.45 419.872 537.167L420.341 536.625C420.728 537.104 421.202 537.343 421.762 537.343C422.201 537.343 422.543 537.219 422.787 536.972C423.035 536.724 423.158 536.376 423.158 535.927V535.473C422.797 535.889 422.304 536.098 421.679 536.098C421.06 536.098 420.559 535.849 420.175 535.351C419.794 534.853 419.604 534.174 419.604 533.314ZM420.512 533.417C420.512 534.013 420.634 534.481 420.878 534.823C421.122 535.162 421.464 535.331 421.903 535.331C422.473 535.331 422.891 535.072 423.158 534.555V532.143C422.882 531.638 422.466 531.386 421.913 531.386C421.474 531.386 421.13 531.557 420.883 531.898C420.635 532.24 420.512 532.746 420.512 533.417ZM426.415 536H425.512V530.717H426.415V536ZM425.438 529.315C425.438 529.169 425.482 529.045 425.57 528.944C425.661 528.843 425.795 528.793 425.971 528.793C426.146 528.793 426.28 528.843 426.371 528.944C426.462 529.045 426.508 529.169 426.508 529.315C426.508 529.462 426.462 529.584 426.371 529.682C426.28 529.779 426.146 529.828 425.971 529.828C425.795 529.828 425.661 529.779 425.57 529.682C425.482 529.584 425.438 529.462 425.438 529.315ZM428.72 530.717L428.749 531.381C429.153 530.873 429.68 530.619 430.331 530.619C431.448 530.619 432.011 531.249 432.021 532.509V536H431.117V532.504C431.114 532.123 431.026 531.841 430.854 531.659C430.684 531.477 430.419 531.386 430.058 531.386C429.765 531.386 429.507 531.464 429.286 531.62C429.065 531.776 428.892 531.981 428.769 532.235V536H427.865V530.717H428.72ZM433.402 535.526C433.402 535.37 433.448 535.24 433.539 535.136C433.633 535.032 433.773 534.979 433.959 534.979C434.145 534.979 434.285 535.032 434.379 535.136C434.477 535.24 434.525 535.37 434.525 535.526C434.525 535.676 434.477 535.801 434.379 535.902C434.285 536.003 434.145 536.054 433.959 536.054C433.773 536.054 433.633 536.003 433.539 535.902C433.448 535.801 433.402 535.676 433.402 535.526ZM436.952 530.717V536.61C436.952 537.626 436.492 538.134 435.57 538.134C435.372 538.134 435.188 538.104 435.019 538.046V537.323C435.123 537.349 435.259 537.362 435.429 537.362C435.631 537.362 435.784 537.307 435.888 537.196C435.995 537.089 436.049 536.9 436.049 536.63V530.717H436.952ZM435.956 529.315C435.956 529.172 436 529.05 436.088 528.949C436.179 528.845 436.311 528.793 436.483 528.793C436.659 528.793 436.793 528.843 436.884 528.944C436.975 529.045 437.021 529.169 437.021 529.315C437.021 529.462 436.975 529.584 436.884 529.682C436.793 529.779 436.659 529.828 436.483 529.828C436.308 529.828 436.176 529.779 436.088 529.682C436 529.584 435.956 529.462 435.956 529.315ZM441.488 534.599C441.488 534.354 441.396 534.166 441.21 534.032C441.028 533.896 440.707 533.778 440.248 533.681C439.792 533.583 439.429 533.466 439.159 533.329C438.892 533.192 438.694 533.03 438.563 532.841C438.437 532.652 438.373 532.427 438.373 532.167C438.373 531.734 438.555 531.368 438.92 531.068C439.288 530.769 439.757 530.619 440.326 530.619C440.925 530.619 441.41 530.774 441.781 531.083C442.156 531.392 442.343 531.788 442.343 532.27H441.435C441.435 532.022 441.329 531.809 441.117 531.63C440.909 531.451 440.645 531.361 440.326 531.361C439.997 531.361 439.74 531.433 439.555 531.576C439.369 531.719 439.276 531.907 439.276 532.138C439.276 532.356 439.363 532.52 439.535 532.631C439.708 532.742 440.019 532.847 440.468 532.948C440.92 533.049 441.286 533.17 441.566 533.31C441.846 533.45 442.053 533.619 442.187 533.817C442.323 534.013 442.392 534.252 442.392 534.535C442.392 535.007 442.203 535.386 441.825 535.673C441.448 535.956 440.958 536.098 440.355 536.098C439.932 536.098 439.558 536.023 439.232 535.873C438.907 535.723 438.651 535.515 438.466 535.248C438.284 534.978 438.192 534.687 438.192 534.374H439.096C439.112 534.677 439.232 534.918 439.457 535.097C439.685 535.272 439.984 535.36 440.355 535.36C440.697 535.36 440.971 535.292 441.176 535.155C441.384 535.015 441.488 534.83 441.488 534.599Z" fill="#4000C7"/>
<path d="M437.746 506.016L431.938 500.252C431.776 500.091 431.558 500 431.328 500H419.864C419.386 500 419 500.383 419 500.857V523.143C419 523.617 419.386 524 419.864 524H437.136C437.614 524 438 523.617 438 523.143V506.624C438 506.396 437.908 506.177 437.746 506.016ZM436.008 507.018H430.929V501.977L436.008 507.018ZM436.057 522.071H420.943V501.929H429.094V507.714C429.094 508.013 429.213 508.299 429.426 508.51C429.638 508.721 429.927 508.839 430.227 508.839H436.057V522.071ZM428.284 514.839H423.318C423.199 514.839 423.102 514.936 423.102 515.054V516.339C423.102 516.457 423.199 516.554 423.318 516.554H428.284C428.403 516.554 428.5 516.457 428.5 516.339V515.054C428.5 514.936 428.403 514.839 428.284 514.839ZM423.102 511.411V512.696C423.102 512.814 423.199 512.911 423.318 512.911H433.682C433.801 512.911 433.898 512.814 433.898 512.696V511.411C433.898 511.293 433.801 511.196 433.682 511.196H423.318C423.199 511.196 423.102 511.293 423.102 511.411Z" fill="#4000C7"/>
<path d="M348.354 211.646C348.158 211.451 347.842 211.451 347.646 211.646L344.464 214.828C344.269 215.024 344.269 215.34 344.464 215.536C344.66 215.731 344.976 215.731 345.172 215.536L348 212.707L350.828 215.536C351.024 215.731 351.34 215.731 351.536 215.536C351.731 215.34 351.731 215.024 351.536 214.828L348.354 211.646ZM348.5 346V212H347.5V346H348.5Z" fill="#4000C7"/>
<path d="M429.354 494.354C429.158 494.549 428.842 494.549 428.646 494.354L425.464 491.172C425.269 490.976 425.269 490.66 425.464 490.464C425.66 490.269 425.976 490.269 426.172 490.464L429 493.293L431.828 490.464C432.024 490.269 432.34 490.269 432.536 490.464C432.731 490.66 432.731 490.976 432.536 491.172L429.354 494.354ZM429.5 360V494H428.5V360H429.5Z" fill="#4000C7"/>
</svg>
