<svg width="1152" height="587" viewBox="0 0 1152 587" fill="none" xmlns="http://www.w3.org/2000/svg">
<path d="M0 0H1152V587H0V0Z" fill="white" fill-opacity="0.01"/>
<path d="M411.166 46H410.258V39.9795L408.437 40.6484V39.8281L411.024 38.8564H411.166V46ZM416.024 45.3604C416.347 45.3604 416.628 45.2627 416.869 45.0674C417.11 44.8721 417.243 44.6279 417.27 44.335H418.124C418.108 44.6377 418.004 44.9258 417.812 45.1992C417.619 45.4727 417.362 45.6908 417.04 45.8535C416.721 46.0163 416.382 46.0977 416.024 46.0977C415.305 46.0977 414.732 45.8584 414.306 45.3799C413.882 44.8981 413.671 44.2406 413.671 43.4072V43.2559C413.671 42.7415 413.765 42.2842 413.954 41.8838C414.143 41.4834 414.413 41.1725 414.765 40.9512C415.119 40.7298 415.538 40.6191 416.02 40.6191C416.612 40.6191 417.104 40.7965 417.494 41.1514C417.888 41.5062 418.098 41.9668 418.124 42.5332H417.27C417.243 42.1914 417.113 41.9115 416.879 41.6934C416.648 41.472 416.361 41.3613 416.02 41.3613C415.561 41.3613 415.204 41.5273 414.95 41.8594C414.7 42.1882 414.574 42.665 414.574 43.29V43.4609C414.574 44.0697 414.7 44.5384 414.95 44.8672C415.201 45.196 415.559 45.3604 416.024 45.3604ZM419.584 46V41.415H418.749V40.7168H419.584V40.1748C419.584 39.6084 419.735 39.1706 420.038 38.8613C420.341 38.5521 420.769 38.3975 421.322 38.3975C421.531 38.3975 421.737 38.4251 421.942 38.4805L421.894 39.2129C421.741 39.1836 421.578 39.1689 421.405 39.1689C421.112 39.1689 420.886 39.2552 420.727 39.4277C420.567 39.597 420.487 39.8411 420.487 40.1602V40.7168H421.615V41.415H420.487V46H419.584ZM427.182 46H422.523V45.3506L424.984 42.6162C425.349 42.2028 425.6 41.8675 425.736 41.6104C425.876 41.3499 425.946 41.0814 425.946 40.8047C425.946 40.4336 425.834 40.1292 425.609 39.8916C425.385 39.654 425.085 39.5352 424.711 39.5352C424.262 39.5352 423.912 39.6637 423.661 39.9209C423.414 40.1748 423.29 40.5296 423.29 40.9854H422.387C422.387 40.3311 422.597 39.8021 423.017 39.3984C423.44 38.9948 424.005 38.793 424.711 38.793C425.372 38.793 425.894 38.9671 426.278 39.3154C426.662 39.6605 426.854 40.1211 426.854 40.6973C426.854 41.3971 426.409 42.2305 425.517 43.1973L423.612 45.2627H427.182V46ZM431.952 43.6123H432.938V44.3496H431.952V46H431.044V44.3496H427.807V43.8174L430.99 38.8906H431.952V43.6123ZM428.832 43.6123H431.044V40.126L430.937 40.3213L428.832 43.6123ZM438.344 39.3984L435.399 46H434.452L437.387 39.6328H433.539V38.8906H438.344V39.3984ZM443.935 43.417C443.935 44.2243 443.749 44.8737 443.378 45.3652C443.007 45.8535 442.509 46.0977 441.884 46.0977C441.216 46.0977 440.701 45.8617 440.336 45.3896L440.292 46H439.462V38.5H440.365V41.2979C440.73 40.8454 441.233 40.6191 441.874 40.6191C442.515 40.6191 443.018 40.8617 443.383 41.3467C443.751 41.8317 443.935 42.4958 443.935 43.3389V43.417ZM443.031 43.3145C443.031 42.6992 442.912 42.224 442.675 41.8887C442.437 41.5534 442.095 41.3857 441.649 41.3857C441.054 41.3857 440.626 41.6624 440.365 42.2158V44.501C440.642 45.0544 441.073 45.3311 441.659 45.3311C442.092 45.3311 442.429 45.1634 442.67 44.8281C442.911 44.4928 443.031 43.9883 443.031 43.3145ZM388.343 50.87H386.033V49.77H385.213V50.87H382.893V51.53H388.343V50.87ZM384.243 53.7C384.243 53.07 384.803 52.67 385.623 52.67C386.433 52.67 386.993 53.07 386.993 53.7C386.993 54.32 386.433 54.72 385.623 54.72C384.803 54.72 384.243 54.32 384.243 53.7ZM386.033 55.34C387.093 55.21 387.773 54.59 387.773 53.7C387.773 52.69 386.903 52.04 385.623 52.04C384.343 52.04 383.463 52.69 383.463 53.7C383.463 54.6 384.153 55.22 385.213 55.35V56.31C384.323 56.34 383.463 56.35 382.703 56.35L382.823 57.04C384.473 57.04 386.633 57.01 388.633 56.68L388.573 56.07C387.753 56.18 386.883 56.24 386.033 56.28V55.34ZM389.143 49.77V58.74H389.963V49.77H389.143ZM396.552 55.07V55.68H398.372V56.6H399.192V49.77H398.372V55.07H396.552ZM394.722 50.74C395.572 50.74 396.152 51.12 396.152 51.69C396.152 52.27 395.572 52.65 394.722 52.65C393.872 52.65 393.292 52.27 393.292 51.69C393.292 51.12 393.872 50.74 394.722 50.74ZM394.722 53.26C396.032 53.26 396.932 52.65 396.932 51.69C396.932 50.75 396.032 50.13 394.722 50.13C393.412 50.13 392.512 50.75 392.512 51.69C392.512 52.65 393.412 53.26 394.722 53.26ZM394.402 56.28H395.222V54.51C396.032 54.46 396.862 54.37 397.652 54.25L397.582 53.66C395.682 53.9 393.462 53.92 391.802 53.92L391.912 54.6C392.652 54.6 393.512 54.59 394.402 54.55V56.28ZM393.902 57.87V55.93H393.082V58.54H399.422V57.87H393.902ZM401.531 50.73V51.41H404.821C404.631 53.53 403.401 55.25 401.111 56.4L401.561 57.04C404.461 55.59 405.631 53.28 405.631 50.73H401.531ZM409.391 53.41H407.951V49.77H407.131V58.74H407.951V54.09H409.391V53.41ZM416.791 49.78V54.59H417.611V49.78H416.791ZM411.831 55.03V58.62H417.611V55.03H416.801V56.13H412.641V55.03H411.831ZM412.641 56.77H416.801V57.96H412.641V56.77ZM412.791 50.2C411.441 50.2 410.461 51.04 410.461 52.26C410.461 53.5 411.441 54.33 412.791 54.33C414.151 54.33 415.141 53.5 415.141 52.26C415.141 51.04 414.151 50.2 412.791 50.2ZM412.791 50.88C413.701 50.88 414.341 51.45 414.341 52.26C414.341 53.08 413.701 53.65 412.791 53.65C411.901 53.65 411.261 53.08 411.261 52.26C411.261 51.45 411.901 50.88 412.791 50.88ZM423.5 51.57H424.62V55.78C424.24 55.8 423.87 55.81 423.5 55.82V51.57ZM425.37 51.57H426.11V50.91H422.01V51.57H422.75V55.84C422.41 55.85 422.11 55.85 421.84 55.85L421.92 56.53C423.09 56.53 424.97 56.49 426.36 56.23L426.31 55.63C426.02 55.67 425.69 55.7 425.37 55.73V51.57ZM427.07 53.19H425.84V53.91H427.07V58.27H427.84V49.99H427.07V53.19ZM428.8 49.78V58.74H429.59V49.78H428.8ZM437.65 49.77V58.76H438.47V49.77H437.65ZM433.74 50.46C432.41 50.46 431.46 51.68 431.46 53.59C431.46 55.5 432.41 56.72 433.74 56.72C435.07 56.72 436.02 55.5 436.02 53.59C436.02 51.68 435.07 50.46 433.74 50.46ZM433.74 51.2C434.61 51.2 435.23 52.14 435.23 53.59C435.23 55.05 434.61 55.99 433.74 55.99C432.86 55.99 432.24 55.05 432.24 53.59C432.24 52.14 432.86 51.2 433.74 51.2ZM443.529 51.37H445.639V50.69H440.629V51.37H442.709V52.51C442.709 54.06 441.619 55.75 440.329 56.36L440.809 57.02C441.829 56.5 442.709 55.37 443.119 54.06C443.549 55.29 444.429 56.32 445.469 56.8L445.929 56.14C444.609 55.58 443.529 54.03 443.529 52.51V51.37ZM446.849 49.78V58.74H447.669V49.78H446.849ZM460.129 54.21H458.799C459.049 52.92 459.049 51.97 459.049 51.13V50.35H453.029V51.01H458.249V51.13C458.249 51.97 458.249 52.92 457.969 54.21H452.019V54.88H455.639V58.75H456.469V54.88H460.129V54.21ZM466.248 52.16V52.83H467.758V54.04H466.248V54.71H467.758V56.61H468.588V49.78H467.758V52.16H466.248ZM466.248 50.87H464.188V49.76H463.368V50.87H461.228V51.53H466.248V50.87ZM462.518 53.73C462.518 53.1 463.028 52.67 463.768 52.67C464.508 52.67 465.018 53.1 465.018 53.73C465.018 54.37 464.508 54.81 463.768 54.81C463.028 54.81 462.518 54.37 462.518 53.73ZM465.798 53.73C465.798 52.71 464.958 52.03 463.768 52.03C462.578 52.03 461.738 52.71 461.738 53.73C461.738 54.76 462.578 55.45 463.768 55.45C464.958 55.45 465.798 54.76 465.798 53.73ZM463.648 57.87V56.03H462.828V58.54H468.798V57.87H463.648Z" fill="black"/>
<rect x="367.031" y="367.209" width="18" height="41" rx="5" transform="rotate(-64.2277 367.031 367.209)" fill="black"/>
<rect x="287.031" y="211.209" width="18" height="41" rx="5" transform="rotate(-64.2277 287.031 211.209)" fill="black"/>
<rect x="448.031" y="89.209" width="18" height="41" rx="5" transform="rotate(-64.2277 448.031 89.209)" fill="black"/>
<path d="M363.739 355.626L372.675 356.094L369.662 362.333L363.739 355.626Z" fill="black"/>
<path d="M283.739 199.626L292.675 200.094L289.662 206.333L283.739 199.626Z" fill="black"/>
<path d="M444.739 77.6264L453.675 78.0939L450.662 84.333L444.739 77.6264Z" fill="black"/>
<path d="M380.791 361.219L380.535 361.811C381.137 361.545 381.764 361.569 382.415 361.884C383.147 362.237 383.51 362.758 383.503 363.447C383.799 363.279 384.122 363.185 384.475 363.164C384.83 363.145 385.198 363.227 385.578 363.411C386.726 363.965 387.016 364.855 386.449 366.08L384.756 369.586L383.861 369.154L385.528 365.701C385.709 365.327 385.758 365.007 385.676 364.74C385.595 364.471 385.353 364.239 384.95 364.044C384.618 363.884 384.294 363.851 383.978 363.945C383.664 364.036 383.408 364.24 383.211 364.558L381.534 368.031L380.635 367.597L382.29 364.167C382.658 363.406 382.469 362.846 381.724 362.487C381.137 362.203 380.615 362.259 380.158 362.655L378.313 366.476L377.418 366.044L379.945 360.81L380.791 361.219ZM389.341 371.8C389.339 371.672 389.386 371.468 389.481 371.188C388.857 371.419 388.256 371.396 387.679 371.117C387.163 370.868 386.809 370.518 386.617 370.068C386.43 369.615 386.444 369.165 386.661 368.717C386.924 368.172 387.334 367.849 387.892 367.749C388.454 367.646 389.111 367.777 389.862 368.139L390.733 368.56L390.931 368.149C391.082 367.836 391.108 367.542 391.01 367.268C390.913 366.991 390.683 366.764 390.319 366.588C389.999 366.434 389.693 366.386 389.399 366.443C389.105 366.499 388.903 366.642 388.792 366.871L387.893 366.437C388.019 366.176 388.232 365.969 388.533 365.816C388.838 365.661 389.183 365.589 389.567 365.599C389.955 365.612 390.339 365.71 390.72 365.893C391.323 366.184 391.722 366.564 391.917 367.032C392.114 367.497 392.092 367.997 391.849 368.532L390.686 370.941C390.454 371.421 390.331 371.833 390.317 372.176L390.279 372.253L389.341 371.8ZM388.185 370.401C388.466 370.537 388.767 370.593 389.088 370.569C389.41 370.545 389.683 370.445 389.908 370.267L390.427 369.193L389.725 368.855C388.629 368.325 387.926 368.381 387.616 369.023C387.481 369.304 387.468 369.568 387.579 369.816C387.69 370.065 387.892 370.26 388.185 370.401ZM392.47 373.311L391.576 372.879L394.102 367.646L394.997 368.078L392.47 373.311ZM394.7 366.223C394.77 366.078 394.873 365.976 395.008 365.918C395.147 365.862 395.303 365.876 395.477 365.96C395.651 366.044 395.759 366.158 395.801 366.301C395.843 366.445 395.829 366.589 395.759 366.734C395.689 366.879 395.586 366.978 395.449 367.031C395.312 367.085 395.156 367.069 394.982 366.985C394.808 366.901 394.699 366.789 394.655 366.648C394.615 366.51 394.63 366.368 394.7 366.223ZM397.28 369.18L396.992 369.852C397.634 369.542 398.278 369.543 398.923 369.854C400.029 370.388 400.286 371.281 399.693 372.534L398.023 375.992L397.128 375.56L398.8 372.097C398.979 371.718 399.027 371.397 398.943 371.134C398.863 370.873 398.643 370.655 398.285 370.483C397.995 370.343 397.703 370.297 397.409 370.346C397.115 370.395 396.846 370.515 396.602 370.708L394.802 374.437L393.907 374.005L396.434 368.771L397.28 369.18Z" fill="white"/>
<path d="M300.791 205.219L300.535 205.811C301.137 205.545 301.764 205.569 302.415 205.884C303.147 206.237 303.51 206.758 303.503 207.447C303.799 207.279 304.122 207.185 304.475 207.164C304.83 207.145 305.198 207.227 305.578 207.411C306.726 207.965 307.016 208.855 306.449 210.08L304.756 213.586L303.861 213.154L305.528 209.701C305.709 209.327 305.758 209.007 305.676 208.74C305.595 208.471 305.353 208.239 304.95 208.044C304.618 207.884 304.294 207.851 303.978 207.945C303.664 208.036 303.408 208.24 303.211 208.558L301.534 212.031L300.635 211.597L302.29 208.167C302.658 207.406 302.469 206.846 301.724 206.487C301.137 206.203 300.615 206.259 300.158 206.655L298.313 210.476L297.418 210.044L299.945 204.81L300.791 205.219ZM309.341 215.8C309.339 215.672 309.386 215.468 309.481 215.188C308.857 215.419 308.256 215.396 307.679 215.117C307.163 214.868 306.809 214.518 306.617 214.068C306.43 213.615 306.444 213.165 306.661 212.717C306.924 212.172 307.334 211.849 307.892 211.749C308.454 211.646 309.111 211.777 309.862 212.139L310.733 212.56L310.931 212.149C311.082 211.836 311.108 211.542 311.01 211.268C310.913 210.991 310.683 210.764 310.319 210.588C309.999 210.434 309.693 210.386 309.399 210.443C309.105 210.499 308.903 210.642 308.792 210.871L307.893 210.437C308.019 210.176 308.232 209.969 308.533 209.816C308.838 209.661 309.183 209.589 309.567 209.599C309.955 209.612 310.339 209.71 310.72 209.893C311.323 210.184 311.722 210.564 311.917 211.032C312.114 211.497 312.092 211.997 311.849 212.532L310.686 214.941C310.454 215.421 310.331 215.833 310.317 216.176L310.279 216.253L309.341 215.8ZM308.185 214.401C308.466 214.537 308.767 214.593 309.088 214.569C309.41 214.545 309.683 214.445 309.908 214.267L310.427 213.193L309.725 212.855C308.629 212.325 307.926 212.381 307.616 213.023C307.481 213.304 307.468 213.568 307.579 213.816C307.69 214.065 307.892 214.26 308.185 214.401ZM312.47 217.311L311.576 216.879L314.102 211.646L314.997 212.078L312.47 217.311ZM314.7 210.223C314.77 210.078 314.873 209.976 315.008 209.918C315.147 209.862 315.303 209.876 315.477 209.96C315.651 210.044 315.759 210.158 315.801 210.301C315.843 210.445 315.829 210.589 315.759 210.734C315.689 210.879 315.586 210.978 315.449 211.031C315.312 211.085 315.156 211.069 314.982 210.985C314.808 210.901 314.699 210.789 314.655 210.648C314.615 210.51 314.63 210.368 314.7 210.223ZM317.28 213.18L316.992 213.852C317.634 213.542 318.278 213.543 318.923 213.854C320.029 214.388 320.286 215.281 319.693 216.534L318.023 219.992L317.128 219.56L318.8 216.097C318.979 215.718 319.027 215.397 318.943 215.134C318.863 214.873 318.643 214.655 318.285 214.483C317.995 214.343 317.703 214.297 317.409 214.346C317.115 214.395 316.846 214.515 316.602 214.708L314.802 218.437L313.907 218.005L316.434 212.771L317.28 213.18Z" fill="white"/>
<path d="M461.791 83.219L461.535 83.8111C462.137 83.5449 462.764 83.5691 463.415 83.8836C464.147 84.237 464.51 84.7581 464.503 85.4468C464.799 85.2794 465.122 85.1852 465.475 85.1643C465.83 85.145 466.198 85.2272 466.578 85.4109C467.726 85.9651 468.016 86.8548 467.449 88.0798L465.756 91.5865L464.861 91.1544L466.528 87.7009C466.709 87.3269 466.758 87.0067 466.676 86.7404C466.595 86.4708 466.353 86.2388 465.95 86.0442C465.618 85.8838 465.294 85.8507 464.978 85.9447C464.664 86.0355 464.408 86.2401 464.211 86.5583L462.534 90.0311L461.635 89.5968L463.29 86.1675C463.658 85.4065 463.469 84.8461 462.724 84.4865C462.137 84.2031 461.615 84.2592 461.158 84.6547L459.313 88.4758L458.418 88.0438L460.945 82.8103L461.791 83.219ZM470.341 93.8003C470.339 93.6723 470.386 93.4682 470.481 93.1882C469.857 93.4195 469.256 93.3958 468.679 93.1171C468.163 92.868 467.809 92.5181 467.617 92.0676C467.43 91.6153 467.444 91.1651 467.661 90.7169C467.924 90.172 468.334 89.8492 468.892 89.7486C469.454 89.6463 470.111 89.7766 470.862 90.1393L471.733 90.5597L471.931 90.1485C472.082 89.8358 472.108 89.5423 472.01 89.2682C471.913 88.9909 471.683 88.7643 471.319 88.5883C470.999 88.4342 470.693 88.3856 470.399 88.4425C470.105 88.4994 469.903 88.6424 469.792 88.8713L468.893 88.4369C469.019 88.1757 469.232 87.9686 469.533 87.8155C469.838 87.6607 470.183 87.5887 470.567 87.5994C470.955 87.6116 471.339 87.7096 471.72 87.8933C472.323 88.1845 472.722 88.5641 472.917 89.0323C473.114 89.4972 473.092 89.9971 472.849 90.5322L471.686 92.9409C471.454 93.4214 471.331 93.8331 471.317 94.176L471.279 94.2534L470.341 93.8003ZM469.185 92.4014C469.466 92.5369 469.767 92.5927 470.088 92.5691C470.41 92.5454 470.683 92.4447 470.908 92.2671L471.427 91.1933L470.725 90.8547C469.629 90.3253 468.926 90.3815 468.616 91.0232C468.481 91.3037 468.468 91.5681 468.579 91.8164C468.69 92.0647 468.892 92.2597 469.185 92.4014ZM473.47 95.3113L472.576 94.8793L475.102 89.6458L475.997 90.0779L473.47 95.3113ZM475.7 88.2226C475.77 88.0775 475.873 87.976 476.008 87.9181C476.147 87.8617 476.303 87.8756 476.477 87.9596C476.651 88.0437 476.759 88.1575 476.801 88.3011C476.843 88.4446 476.829 88.589 476.759 88.7341C476.689 88.8792 476.586 88.9783 476.449 89.0314C476.312 89.0846 476.156 89.0691 475.982 88.985C475.808 88.901 475.699 88.7888 475.655 88.6484C475.615 88.5097 475.63 88.3677 475.7 88.2226ZM478.28 91.1801L477.992 91.852C478.634 91.542 479.278 91.5427 479.923 91.8541C481.029 92.3881 481.286 93.2814 480.693 94.5339L479.023 97.9923L478.128 97.5602L479.8 94.0971C479.979 93.7182 480.027 93.3973 479.943 93.1342C479.863 92.8726 479.643 92.6555 479.285 92.4827C478.995 92.3425 478.703 92.2969 478.409 92.3458C478.115 92.3948 477.846 92.5154 477.602 92.7077L475.802 96.4369L474.907 96.0049L477.434 90.7714L478.28 91.1801Z" fill="white"/>
<circle cx="104.5" cy="350.5" r="9.5" fill="#4000C7"/>
<circle cx="104.5" cy="194.5" r="9.5" fill="#4000C7"/>
<circle cx="104.5" cy="72.5" r="9.5" fill="#4000C7"/>
<circle cx="184.5" cy="350.5" r="9.5" fill="#4000C7"/>
<circle cx="184.5" cy="194.5" r="9.5" fill="#4000C7"/>
<circle cx="184.5" cy="72.5" r="9.5" fill="#4000C7"/>
<circle cx="265.5" cy="350.5" r="9.5" fill="#4000C7"/>
<circle cx="265.5" cy="194.5" r="9.5" fill="#4000C7"/>
<circle cx="265.5" cy="72.5" r="9.5" fill="#4000C7"/>
<circle cx="347.5" cy="72.5" r="9.5" fill="#4000C7"/>
<circle cx="426.5" cy="72.5" r="9.5" fill="#4000C7"/>
<line x1="98" y1="350.5" x2="341" y2="350.5" stroke="#4000C7"/>
<line x1="108" y1="194.5" x2="261" y2="194.5" stroke="#4000C7"/>
<line x1="108" y1="72.5" x2="427" y2="72.5" stroke="#4000C7"/>
<path d="M329.665 461H328.762V453.5H329.665V461ZM330.876 458.31C330.876 457.792 330.977 457.326 331.179 456.913C331.384 456.5 331.667 456.181 332.028 455.956C332.393 455.731 332.808 455.619 333.273 455.619C333.993 455.619 334.574 455.868 335.017 456.366C335.463 456.864 335.686 457.527 335.686 458.354V458.417C335.686 458.931 335.586 459.394 335.388 459.804C335.192 460.211 334.911 460.528 334.543 460.756C334.178 460.984 333.758 461.098 333.283 461.098C332.567 461.098 331.986 460.849 331.54 460.351C331.097 459.853 330.876 459.193 330.876 458.373V458.31ZM331.784 458.417C331.784 459.003 331.919 459.473 332.189 459.828C332.463 460.183 332.827 460.36 333.283 460.36C333.742 460.36 334.107 460.181 334.377 459.823C334.647 459.462 334.782 458.957 334.782 458.31C334.782 457.73 334.644 457.261 334.367 456.903C334.094 456.542 333.729 456.361 333.273 456.361C332.827 456.361 332.468 456.539 332.194 456.894C331.921 457.248 331.784 457.756 331.784 458.417ZM336.604 458.314C336.604 457.491 336.794 456.837 337.175 456.352C337.556 455.863 338.06 455.619 338.688 455.619C339.333 455.619 339.836 455.847 340.197 456.303L340.241 455.717H341.066V460.873C341.066 461.557 340.863 462.095 340.456 462.489C340.052 462.883 339.509 463.08 338.825 463.08C338.444 463.08 338.072 462.999 337.707 462.836C337.342 462.673 337.064 462.45 336.872 462.167L337.341 461.625C337.728 462.104 338.202 462.343 338.762 462.343C339.201 462.343 339.543 462.219 339.787 461.972C340.035 461.724 340.158 461.376 340.158 460.927V460.473C339.797 460.889 339.304 461.098 338.679 461.098C338.06 461.098 337.559 460.849 337.175 460.351C336.794 459.853 336.604 459.174 336.604 458.314ZM337.512 458.417C337.512 459.013 337.634 459.481 337.878 459.823C338.122 460.162 338.464 460.331 338.903 460.331C339.473 460.331 339.891 460.072 340.158 459.555V457.143C339.882 456.638 339.466 456.386 338.913 456.386C338.474 456.386 338.13 456.557 337.883 456.898C337.635 457.24 337.512 457.746 337.512 458.417ZM343.415 461H342.512V455.717H343.415V461ZM342.438 454.315C342.438 454.169 342.482 454.045 342.57 453.944C342.661 453.843 342.795 453.793 342.971 453.793C343.146 453.793 343.28 453.843 343.371 453.944C343.462 454.045 343.508 454.169 343.508 454.315C343.508 454.462 343.462 454.584 343.371 454.682C343.28 454.779 343.146 454.828 342.971 454.828C342.795 454.828 342.661 454.779 342.57 454.682C342.482 454.584 342.438 454.462 342.438 454.315ZM345.72 455.717L345.749 456.381C346.153 455.873 346.68 455.619 347.331 455.619C348.448 455.619 349.011 456.249 349.021 457.509V461H348.117V457.504C348.114 457.123 348.026 456.841 347.854 456.659C347.684 456.477 347.419 456.386 347.058 456.386C346.765 456.386 346.507 456.464 346.286 456.62C346.065 456.776 345.892 456.981 345.769 457.235V461H344.865V455.717H345.72ZM350.402 460.526C350.402 460.37 350.448 460.24 350.539 460.136C350.633 460.032 350.773 459.979 350.959 459.979C351.145 459.979 351.285 460.032 351.379 460.136C351.477 460.24 351.525 460.37 351.525 460.526C351.525 460.676 351.477 460.801 351.379 460.902C351.285 461.003 351.145 461.054 350.959 461.054C350.773 461.054 350.633 461.003 350.539 460.902C350.448 460.801 350.402 460.676 350.402 460.526ZM353.952 455.717V461.61C353.952 462.626 353.492 463.134 352.57 463.134C352.372 463.134 352.188 463.104 352.019 463.046V462.323C352.123 462.349 352.259 462.362 352.429 462.362C352.631 462.362 352.784 462.307 352.888 462.196C352.995 462.089 353.049 461.9 353.049 461.63V455.717H353.952ZM352.956 454.315C352.956 454.172 353 454.05 353.088 453.949C353.179 453.845 353.311 453.793 353.483 453.793C353.659 453.793 353.793 453.843 353.884 453.944C353.975 454.045 354.021 454.169 354.021 454.315C354.021 454.462 353.975 454.584 353.884 454.682C353.793 454.779 353.659 454.828 353.483 454.828C353.308 454.828 353.176 454.779 353.088 454.682C353 454.584 352.956 454.462 352.956 454.315ZM358.488 459.599C358.488 459.354 358.396 459.166 358.21 459.032C358.028 458.896 357.707 458.778 357.248 458.681C356.792 458.583 356.429 458.466 356.159 458.329C355.892 458.192 355.694 458.03 355.563 457.841C355.437 457.652 355.373 457.427 355.373 457.167C355.373 456.734 355.555 456.368 355.92 456.068C356.288 455.769 356.757 455.619 357.326 455.619C357.925 455.619 358.41 455.774 358.781 456.083C359.156 456.392 359.343 456.788 359.343 457.27H358.435C358.435 457.022 358.329 456.809 358.117 456.63C357.909 456.451 357.645 456.361 357.326 456.361C356.997 456.361 356.74 456.433 356.555 456.576C356.369 456.719 356.276 456.907 356.276 457.138C356.276 457.356 356.363 457.52 356.535 457.631C356.708 457.742 357.019 457.847 357.468 457.948C357.92 458.049 358.286 458.17 358.566 458.31C358.846 458.45 359.053 458.619 359.187 458.817C359.323 459.013 359.392 459.252 359.392 459.535C359.392 460.007 359.203 460.386 358.825 460.673C358.448 460.956 357.958 461.098 357.355 461.098C356.932 461.098 356.558 461.023 356.232 460.873C355.907 460.723 355.651 460.515 355.466 460.248C355.284 459.978 355.192 459.687 355.192 459.374H356.096C356.112 459.677 356.232 459.918 356.457 460.097C356.685 460.272 356.984 460.36 357.355 460.36C357.697 460.36 357.971 460.292 358.176 460.155C358.384 460.015 358.488 459.83 358.488 459.599Z" fill="#4000C7"/>
<path d="M354.746 431.016L348.938 425.252C348.776 425.091 348.558 425 348.328 425H336.864C336.386 425 336 425.383 336 425.857V448.143C336 448.617 336.386 449 336.864 449H354.136C354.614 449 355 448.617 355 448.143V431.624C355 431.396 354.908 431.177 354.746 431.016ZM353.008 432.018H347.929V426.977L353.008 432.018ZM353.057 447.071H337.943V426.929H346.094V432.714C346.094 433.013 346.213 433.299 346.426 433.51C346.638 433.721 346.927 433.839 347.227 433.839H353.057V447.071ZM345.284 439.839H340.318C340.199 439.839 340.102 439.936 340.102 440.054V441.339C340.102 441.457 340.199 441.554 340.318 441.554H345.284C345.403 441.554 345.5 441.457 345.5 441.339V440.054C345.5 439.936 345.403 439.839 345.284 439.839ZM340.102 436.411V437.696C340.102 437.814 340.199 437.911 340.318 437.911H350.682C350.801 437.911 350.898 437.814 350.898 437.696V436.411C350.898 436.293 350.801 436.196 350.682 436.196H340.318C340.199 436.196 340.102 436.293 340.102 436.411Z" fill="#4000C7"/>
<circle cx="346.5" cy="350.5" r="9" fill="white" stroke="#4000C7" stroke-dasharray="2 2"/>
</svg>
