<svg width="1152" height="587" viewBox="0 0 1152 587" fill="none" xmlns="http://www.w3.org/2000/svg">
<path d="M0 0H1152V587H0V0Z" fill="white" fill-opacity="0.01"/>
<path d="M312.048 152H311.14V145.979L309.318 146.648V145.828L311.906 144.856H312.048V152ZM314.567 149.314C314.567 148.504 314.759 147.853 315.144 147.361C315.528 146.867 316.031 146.619 316.652 146.619C317.271 146.619 317.761 146.831 318.122 147.254V144.5H319.025V152H318.195L318.151 151.434C317.79 151.876 317.287 152.098 316.643 152.098C316.031 152.098 315.531 151.847 315.144 151.346C314.759 150.844 314.567 150.19 314.567 149.383V149.314ZM315.471 149.417C315.471 150.016 315.594 150.485 315.842 150.823C316.089 151.162 316.431 151.331 316.867 151.331C317.44 151.331 317.858 151.074 318.122 150.56V148.133C317.852 147.635 317.437 147.386 316.877 147.386C316.434 147.386 316.089 147.557 315.842 147.898C315.594 148.24 315.471 148.746 315.471 149.417ZM322.624 152.098C321.908 152.098 321.325 151.863 320.876 151.395C320.427 150.923 320.202 150.293 320.202 149.505V149.339C320.202 148.815 320.301 148.348 320.5 147.938C320.702 147.524 320.982 147.202 321.34 146.971C321.701 146.736 322.092 146.619 322.512 146.619C323.199 146.619 323.732 146.845 324.113 147.298C324.494 147.75 324.685 148.398 324.685 149.241V149.617H321.105C321.118 150.138 321.27 150.56 321.56 150.882C321.853 151.201 322.224 151.36 322.673 151.36C322.992 151.36 323.262 151.295 323.483 151.165C323.705 151.035 323.898 150.862 324.064 150.647L324.616 151.077C324.174 151.757 323.509 152.098 322.624 152.098ZM322.512 147.361C322.147 147.361 321.841 147.495 321.594 147.762C321.346 148.025 321.193 148.396 321.135 148.875H323.781V148.807C323.755 148.348 323.632 147.993 323.41 147.742C323.189 147.488 322.889 147.361 322.512 147.361ZM329.953 146.746C329.953 147.101 329.859 147.417 329.67 147.693C329.484 147.97 329.232 148.187 328.913 148.343C329.284 148.502 329.577 148.735 329.792 149.041C330.01 149.347 330.119 149.694 330.119 150.081C330.119 150.696 329.911 151.186 329.494 151.551C329.081 151.915 328.535 152.098 327.858 152.098C327.175 152.098 326.626 151.915 326.213 151.551C325.803 151.183 325.598 150.693 325.598 150.081C325.598 149.697 325.702 149.35 325.91 149.041C326.122 148.732 326.413 148.497 326.784 148.338C326.468 148.182 326.219 147.965 326.037 147.688C325.855 147.412 325.764 147.098 325.764 146.746C325.764 146.147 325.956 145.672 326.34 145.32C326.724 144.969 327.23 144.793 327.858 144.793C328.483 144.793 328.988 144.969 329.372 145.32C329.759 145.672 329.953 146.147 329.953 146.746ZM329.216 150.062C329.216 149.664 329.089 149.34 328.835 149.09C328.584 148.839 328.256 148.714 327.849 148.714C327.442 148.714 327.115 148.838 326.867 149.085C326.623 149.332 326.501 149.658 326.501 150.062C326.501 150.465 326.62 150.783 326.857 151.014C327.098 151.245 327.432 151.36 327.858 151.36C328.282 151.36 328.614 151.245 328.854 151.014C329.095 150.779 329.216 150.462 329.216 150.062ZM327.858 145.535C327.504 145.535 327.215 145.646 326.994 145.867C326.776 146.085 326.667 146.383 326.667 146.761C326.667 147.122 326.774 147.415 326.989 147.64C327.207 147.861 327.497 147.972 327.858 147.972C328.22 147.972 328.508 147.861 328.723 147.64C328.941 147.415 329.05 147.122 329.05 146.761C329.05 146.399 328.938 146.105 328.713 145.877C328.488 145.649 328.203 145.535 327.858 145.535ZM335.847 145.398L332.902 152H331.955L334.89 145.633H331.042V144.891H335.847V145.398ZM341.53 152H336.872V151.351L339.333 148.616C339.698 148.203 339.948 147.868 340.085 147.61C340.225 147.35 340.295 147.081 340.295 146.805C340.295 146.434 340.183 146.129 339.958 145.892C339.733 145.654 339.434 145.535 339.06 145.535C338.61 145.535 338.26 145.664 338.01 145.921C337.762 146.175 337.639 146.53 337.639 146.985H336.735C336.735 146.331 336.945 145.802 337.365 145.398C337.788 144.995 338.353 144.793 339.06 144.793C339.72 144.793 340.243 144.967 340.627 145.315C341.011 145.66 341.203 146.121 341.203 146.697C341.203 147.397 340.757 148.23 339.865 149.197L337.961 151.263H341.53V152ZM347.053 149.417C347.053 150.224 346.867 150.874 346.496 151.365C346.125 151.854 345.627 152.098 345.002 152.098C344.335 152.098 343.819 151.862 343.454 151.39L343.41 152H342.58V144.5H343.483V147.298C343.848 146.845 344.351 146.619 344.992 146.619C345.633 146.619 346.136 146.862 346.501 147.347C346.869 147.832 347.053 148.496 347.053 149.339V149.417ZM346.149 149.314C346.149 148.699 346.031 148.224 345.793 147.889C345.555 147.553 345.214 147.386 344.768 147.386C344.172 147.386 343.744 147.662 343.483 148.216V150.501C343.76 151.054 344.191 151.331 344.777 151.331C345.21 151.331 345.547 151.163 345.788 150.828C346.029 150.493 346.149 149.988 346.149 149.314ZM313.291 157.31H311.481V156H310.671V157.31H308.881V157.97H313.291V157.31ZM311.081 161.99C310.401 161.99 309.921 161.42 309.921 160.63C309.921 159.84 310.401 159.27 311.081 159.27C311.741 159.27 312.231 159.84 312.231 160.63C312.231 161.42 311.741 161.99 311.081 161.99ZM311.081 158.58C309.991 158.58 309.201 159.42 309.201 160.63C309.201 161.84 309.991 162.68 311.081 162.68C312.161 162.68 312.951 161.84 312.951 160.63C312.951 159.42 312.161 158.58 311.081 158.58ZM314.041 159.23H313.041V159.92H314.041V164.29H314.821V155.97H314.041V159.23ZM315.731 155.77V164.74H316.511V155.77H315.731ZM319.361 157.3H322.621V156.62H318.541V162.54H319.231C320.931 162.54 322.011 162.48 323.311 162.24L323.211 161.56C322.001 161.79 320.951 161.85 319.361 161.85V157.3ZM324.661 155.77V159.02H322.091V159.7H324.661V164.76H325.481V155.77H324.661ZM330.58 160.51C331.97 160.3 333.26 159.61 333.83 158.64C334.4 159.61 335.68 160.3 337.07 160.51L337.36 159.85C335.76 159.63 334.24 158.64 334.24 157.54H337.1V156.88H334.24V155.77H333.42V156.88H330.56V157.54H333.41C333.41 158.65 331.9 159.63 330.28 159.85L330.58 160.51ZM337.89 161.19H329.78V161.86H333.42V164.75H334.24V161.86H337.89V161.19ZM339.449 156.73V157.41H342.739C342.549 159.53 341.319 161.25 339.029 162.4L339.479 163.04C342.379 161.59 343.549 159.28 343.549 156.73H339.449ZM347.309 159.41H345.869V155.77H345.049V164.74H345.869V160.09H347.309V159.41Z" fill="black"/>
<path d="M392.905 180.746C392.905 181.101 392.811 181.417 392.622 181.693C392.437 181.97 392.184 182.187 391.865 182.343C392.236 182.502 392.529 182.735 392.744 183.041C392.962 183.347 393.071 183.694 393.071 184.081C393.071 184.696 392.863 185.186 392.446 185.551C392.033 185.915 391.488 186.098 390.811 186.098C390.127 186.098 389.578 185.915 389.165 185.551C388.755 185.183 388.55 184.693 388.55 184.081C388.55 183.697 388.654 183.35 388.862 183.041C389.074 182.732 389.365 182.497 389.736 182.338C389.421 182.182 389.172 181.965 388.989 181.688C388.807 181.412 388.716 181.098 388.716 180.746C388.716 180.147 388.908 179.672 389.292 179.32C389.676 178.969 390.182 178.793 390.811 178.793C391.436 178.793 391.94 178.969 392.324 179.32C392.712 179.672 392.905 180.147 392.905 180.746ZM392.168 184.062C392.168 183.664 392.041 183.34 391.787 183.09C391.536 182.839 391.208 182.714 390.801 182.714C390.394 182.714 390.067 182.838 389.819 183.085C389.575 183.332 389.453 183.658 389.453 184.062C389.453 184.465 389.572 184.783 389.81 185.014C390.05 185.245 390.384 185.36 390.811 185.36C391.234 185.36 391.566 185.245 391.807 185.014C392.048 184.779 392.168 184.462 392.168 184.062ZM390.811 179.535C390.456 179.535 390.168 179.646 389.946 179.867C389.728 180.085 389.619 180.383 389.619 180.761C389.619 181.122 389.727 181.415 389.941 181.64C390.16 181.861 390.449 181.972 390.811 181.972C391.172 181.972 391.46 181.861 391.675 181.64C391.893 181.415 392.002 181.122 392.002 180.761C392.002 180.399 391.89 180.105 391.665 179.877C391.44 179.649 391.156 179.535 390.811 179.535ZM398.867 186H394.209V185.351L396.67 182.616C397.035 182.203 397.285 181.868 397.422 181.61C397.562 181.35 397.632 181.081 397.632 180.805C397.632 180.434 397.52 180.129 397.295 179.892C397.07 179.654 396.771 179.535 396.396 179.535C395.947 179.535 395.597 179.664 395.347 179.921C395.099 180.175 394.976 180.53 394.976 180.985H394.072C394.072 180.331 394.282 179.802 394.702 179.398C395.125 178.995 395.69 178.793 396.396 178.793C397.057 178.793 397.58 178.967 397.964 179.315C398.348 179.66 398.54 180.121 398.54 180.697C398.54 181.397 398.094 182.23 397.202 183.197L395.298 185.263H398.867V186ZM404.414 179.398L401.47 186H400.522L403.457 179.633H399.609V178.891H404.414V179.398ZM408.901 182.875C408.713 183.1 408.486 183.28 408.223 183.417C407.962 183.554 407.676 183.622 407.363 183.622C406.953 183.622 406.595 183.521 406.289 183.319C405.986 183.118 405.752 182.834 405.586 182.47C405.42 182.102 405.337 181.697 405.337 181.254C405.337 180.779 405.426 180.351 405.605 179.97C405.788 179.589 406.045 179.298 406.377 179.096C406.709 178.894 407.096 178.793 407.539 178.793C408.242 178.793 408.796 179.057 409.199 179.584C409.606 180.108 409.81 180.824 409.81 181.732V181.996C409.81 183.38 409.536 184.39 408.989 185.028C408.442 185.663 407.617 185.989 406.514 186.005H406.338V185.243H406.528C407.274 185.23 407.847 185.036 408.247 184.662C408.647 184.285 408.866 183.689 408.901 182.875ZM407.51 182.875C407.812 182.875 408.091 182.782 408.345 182.597C408.602 182.411 408.789 182.182 408.906 181.908V181.547C408.906 180.954 408.778 180.473 408.521 180.102C408.263 179.73 407.938 179.545 407.544 179.545C407.147 179.545 406.828 179.698 406.587 180.004C406.346 180.307 406.226 180.707 406.226 181.205C406.226 181.69 406.341 182.09 406.572 182.406C406.807 182.719 407.119 182.875 407.51 182.875ZM415.513 182.968C415.513 184.026 415.332 184.812 414.971 185.326C414.609 185.84 414.045 186.098 413.276 186.098C412.518 186.098 411.956 185.847 411.592 185.346C411.227 184.841 411.038 184.089 411.025 183.09V181.884C411.025 180.839 411.206 180.062 411.567 179.555C411.929 179.047 412.495 178.793 413.267 178.793C414.032 178.793 414.595 179.039 414.956 179.53C415.317 180.019 415.503 180.774 415.513 181.796V182.968ZM414.609 181.732C414.609 180.967 414.502 180.411 414.287 180.062C414.072 179.711 413.732 179.535 413.267 179.535C412.804 179.535 412.467 179.709 412.256 180.058C412.044 180.406 411.935 180.941 411.929 181.664V183.109C411.929 183.878 412.039 184.446 412.261 184.813C412.485 185.178 412.824 185.36 413.276 185.36C413.722 185.36 414.053 185.188 414.268 184.843C414.486 184.498 414.6 183.954 414.609 183.212V181.732ZM421.328 186H416.67V185.351L419.131 182.616C419.495 182.203 419.746 181.868 419.883 181.61C420.023 181.35 420.093 181.081 420.093 180.805C420.093 180.434 419.98 180.129 419.756 179.892C419.531 179.654 419.232 179.535 418.857 179.535C418.408 179.535 418.058 179.664 417.808 179.921C417.56 180.175 417.437 180.53 417.437 180.985H416.533C416.533 180.331 416.743 179.802 417.163 179.398C417.586 178.995 418.151 178.793 418.857 178.793C419.518 178.793 420.041 178.967 420.425 179.315C420.809 179.66 421.001 180.121 421.001 180.697C421.001 181.397 420.555 182.23 419.663 183.197L417.759 185.263H421.328V186ZM424.57 186.098C423.854 186.098 423.271 185.863 422.822 185.395C422.373 184.923 422.148 184.293 422.148 183.505V183.339C422.148 182.815 422.248 182.348 422.446 181.938C422.648 181.524 422.928 181.202 423.286 180.971C423.647 180.736 424.038 180.619 424.458 180.619C425.145 180.619 425.679 180.845 426.06 181.298C426.44 181.75 426.631 182.398 426.631 183.241V183.617H423.052C423.065 184.138 423.216 184.56 423.506 184.882C423.799 185.201 424.17 185.36 424.619 185.36C424.938 185.36 425.208 185.295 425.43 185.165C425.651 185.035 425.845 184.862 426.011 184.647L426.562 185.077C426.12 185.757 425.456 186.098 424.57 186.098ZM424.458 181.361C424.093 181.361 423.787 181.495 423.54 181.762C423.293 182.025 423.14 182.396 423.081 182.875H425.728V182.807C425.701 182.348 425.578 181.993 425.356 181.742C425.135 181.488 424.836 181.361 424.458 181.361ZM376.562 192.717L376.587 193.303C376.974 192.847 377.497 192.619 378.154 192.619C378.893 192.619 379.396 192.902 379.663 193.469C379.839 193.215 380.067 193.01 380.347 192.854C380.63 192.697 380.964 192.619 381.348 192.619C382.507 192.619 383.096 193.233 383.115 194.46V198H382.212V194.514C382.212 194.136 382.126 193.854 381.953 193.669C381.781 193.48 381.491 193.386 381.084 193.386C380.749 193.386 380.47 193.487 380.249 193.688C380.028 193.887 379.899 194.156 379.863 194.494V198H378.955V194.538C378.955 193.77 378.579 193.386 377.827 193.386C377.235 193.386 376.829 193.638 376.611 194.143V198H375.708V192.717H376.562ZM386.675 198.098C385.959 198.098 385.376 197.863 384.927 197.395C384.478 196.923 384.253 196.293 384.253 195.505V195.339C384.253 194.815 384.352 194.348 384.551 193.938C384.753 193.524 385.033 193.202 385.391 192.971C385.752 192.736 386.143 192.619 386.562 192.619C387.249 192.619 387.783 192.845 388.164 193.298C388.545 193.75 388.735 194.398 388.735 195.241V195.617H385.156C385.169 196.138 385.321 196.56 385.61 196.882C385.903 197.201 386.274 197.36 386.724 197.36C387.043 197.36 387.313 197.295 387.534 197.165C387.756 197.035 387.949 196.862 388.115 196.647L388.667 197.077C388.224 197.757 387.56 198.098 386.675 198.098ZM386.562 193.361C386.198 193.361 385.892 193.495 385.645 193.762C385.397 194.025 385.244 194.396 385.186 194.875H387.832V194.807C387.806 194.348 387.682 193.993 387.461 193.742C387.24 193.488 386.94 193.361 386.562 193.361ZM392.339 193.527C392.202 193.505 392.054 193.493 391.895 193.493C391.302 193.493 390.9 193.745 390.688 194.25V198H389.785V192.717H390.664L390.679 193.327C390.975 192.855 391.395 192.619 391.938 192.619C392.114 192.619 392.248 192.642 392.339 192.688V193.527ZM392.861 195.314C392.861 194.491 393.052 193.837 393.433 193.352C393.813 192.863 394.318 192.619 394.946 192.619C395.591 192.619 396.094 192.847 396.455 193.303L396.499 192.717H397.324V197.873C397.324 198.557 397.121 199.095 396.714 199.489C396.31 199.883 395.767 200.08 395.083 200.08C394.702 200.08 394.329 199.999 393.965 199.836C393.6 199.673 393.322 199.45 393.13 199.167L393.599 198.625C393.986 199.104 394.46 199.343 395.02 199.343C395.459 199.343 395.801 199.219 396.045 198.972C396.292 198.724 396.416 198.376 396.416 197.927V197.473C396.055 197.889 395.562 198.098 394.937 198.098C394.318 198.098 393.817 197.849 393.433 197.351C393.052 196.853 392.861 196.174 392.861 195.314ZM393.77 195.417C393.77 196.013 393.892 196.481 394.136 196.823C394.38 197.162 394.722 197.331 395.161 197.331C395.731 197.331 396.149 197.072 396.416 196.555V194.143C396.139 193.638 395.724 193.386 395.171 193.386C394.731 193.386 394.388 193.557 394.141 193.898C393.893 194.24 393.77 194.746 393.77 195.417ZM400.884 198.098C400.168 198.098 399.585 197.863 399.136 197.395C398.687 196.923 398.462 196.293 398.462 195.505V195.339C398.462 194.815 398.561 194.348 398.76 193.938C398.962 193.524 399.242 193.202 399.6 192.971C399.961 192.736 400.352 192.619 400.771 192.619C401.458 192.619 401.992 192.845 402.373 193.298C402.754 193.75 402.944 194.398 402.944 195.241V195.617H399.365C399.378 196.138 399.53 196.56 399.819 196.882C400.112 197.201 400.483 197.36 400.933 197.36C401.252 197.36 401.522 197.295 401.743 197.165C401.965 197.035 402.158 196.862 402.324 196.647L402.876 197.077C402.433 197.757 401.769 198.098 400.884 198.098ZM400.771 193.361C400.407 193.361 400.101 193.495 399.854 193.762C399.606 194.025 399.453 194.396 399.395 194.875H402.041V194.807C402.015 194.348 401.891 193.993 401.67 193.742C401.449 193.488 401.149 193.361 400.771 193.361ZM408.594 197.36C408.916 197.36 409.198 197.263 409.438 197.067C409.679 196.872 409.813 196.628 409.839 196.335H410.693C410.677 196.638 410.573 196.926 410.381 197.199C410.189 197.473 409.932 197.691 409.609 197.854C409.29 198.016 408.952 198.098 408.594 198.098C407.874 198.098 407.301 197.858 406.875 197.38C406.452 196.898 406.24 196.241 406.24 195.407V195.256C406.24 194.742 406.335 194.284 406.523 193.884C406.712 193.483 406.982 193.173 407.334 192.951C407.689 192.73 408.107 192.619 408.589 192.619C409.181 192.619 409.673 192.797 410.063 193.151C410.457 193.506 410.667 193.967 410.693 194.533H409.839C409.813 194.191 409.683 193.911 409.448 193.693C409.217 193.472 408.931 193.361 408.589 193.361C408.13 193.361 407.773 193.527 407.52 193.859C407.269 194.188 407.144 194.665 407.144 195.29V195.461C407.144 196.07 407.269 196.538 407.52 196.867C407.77 197.196 408.128 197.36 408.594 197.36ZM411.47 195.31C411.47 194.792 411.571 194.326 411.772 193.913C411.978 193.5 412.261 193.181 412.622 192.956C412.987 192.731 413.402 192.619 413.867 192.619C414.587 192.619 415.168 192.868 415.61 193.366C416.056 193.864 416.279 194.527 416.279 195.354V195.417C416.279 195.931 416.18 196.394 415.981 196.804C415.786 197.211 415.505 197.528 415.137 197.756C414.772 197.984 414.352 198.098 413.877 198.098C413.161 198.098 412.58 197.849 412.134 197.351C411.691 196.853 411.47 196.193 411.47 195.373V195.31ZM412.378 195.417C412.378 196.003 412.513 196.473 412.783 196.828C413.057 197.183 413.421 197.36 413.877 197.36C414.336 197.36 414.701 197.181 414.971 196.823C415.241 196.462 415.376 195.957 415.376 195.31C415.376 194.73 415.238 194.261 414.961 193.903C414.688 193.542 414.323 193.361 413.867 193.361C413.421 193.361 413.062 193.539 412.788 193.894C412.515 194.248 412.378 194.756 412.378 195.417ZM418.262 192.717L418.286 193.303C418.674 192.847 419.196 192.619 419.854 192.619C420.592 192.619 421.095 192.902 421.362 193.469C421.538 193.215 421.766 193.01 422.046 192.854C422.329 192.697 422.663 192.619 423.047 192.619C424.206 192.619 424.795 193.233 424.814 194.46V198H423.911V194.514C423.911 194.136 423.825 193.854 423.652 193.669C423.48 193.48 423.19 193.386 422.783 193.386C422.448 193.386 422.17 193.487 421.948 193.688C421.727 193.887 421.598 194.156 421.562 194.494V198H420.654V194.538C420.654 193.77 420.278 193.386 419.526 193.386C418.934 193.386 418.529 193.638 418.311 194.143V198H417.407V192.717H418.262ZM427.031 192.717L427.056 193.303C427.443 192.847 427.965 192.619 428.623 192.619C429.362 192.619 429.865 192.902 430.132 193.469C430.308 193.215 430.535 193.01 430.815 192.854C431.099 192.697 431.432 192.619 431.816 192.619C432.975 192.619 433.564 193.233 433.584 194.46V198H432.681V194.514C432.681 194.136 432.594 193.854 432.422 193.669C432.249 193.48 431.96 193.386 431.553 193.386C431.217 193.386 430.939 193.487 430.718 193.688C430.496 193.887 430.368 194.156 430.332 194.494V198H429.424V194.538C429.424 193.77 429.048 193.386 428.296 193.386C427.703 193.386 427.298 193.638 427.08 194.143V198H426.177V192.717H427.031ZM435.933 198H435.029V192.717H435.933V198ZM434.956 191.315C434.956 191.169 435 191.045 435.088 190.944C435.179 190.843 435.312 190.793 435.488 190.793C435.664 190.793 435.798 190.843 435.889 190.944C435.98 191.045 436.025 191.169 436.025 191.315C436.025 191.462 435.98 191.584 435.889 191.682C435.798 191.779 435.664 191.828 435.488 191.828C435.312 191.828 435.179 191.779 435.088 191.682C435 191.584 434.956 191.462 434.956 191.315ZM438.608 191.438V192.717H439.595V193.415H438.608V196.691C438.608 196.903 438.652 197.062 438.74 197.17C438.828 197.274 438.978 197.326 439.189 197.326C439.294 197.326 439.437 197.307 439.619 197.268V198C439.382 198.065 439.15 198.098 438.926 198.098C438.522 198.098 438.218 197.976 438.013 197.731C437.808 197.487 437.705 197.141 437.705 196.691V193.415H436.743V192.717H437.705V191.438H438.608Z" fill="black"/>
<path d="M392.905 337.746C392.905 338.101 392.811 338.417 392.622 338.693C392.437 338.97 392.184 339.187 391.865 339.343C392.236 339.502 392.529 339.735 392.744 340.041C392.962 340.347 393.071 340.694 393.071 341.081C393.071 341.696 392.863 342.186 392.446 342.551C392.033 342.915 391.488 343.098 390.811 343.098C390.127 343.098 389.578 342.915 389.165 342.551C388.755 342.183 388.55 341.693 388.55 341.081C388.55 340.697 388.654 340.35 388.862 340.041C389.074 339.732 389.365 339.497 389.736 339.338C389.421 339.182 389.172 338.965 388.989 338.688C388.807 338.412 388.716 338.098 388.716 337.746C388.716 337.147 388.908 336.672 389.292 336.32C389.676 335.969 390.182 335.793 390.811 335.793C391.436 335.793 391.94 335.969 392.324 336.32C392.712 336.672 392.905 337.147 392.905 337.746ZM392.168 341.062C392.168 340.664 392.041 340.34 391.787 340.09C391.536 339.839 391.208 339.714 390.801 339.714C390.394 339.714 390.067 339.838 389.819 340.085C389.575 340.332 389.453 340.658 389.453 341.062C389.453 341.465 389.572 341.783 389.81 342.014C390.05 342.245 390.384 342.36 390.811 342.36C391.234 342.36 391.566 342.245 391.807 342.014C392.048 341.779 392.168 341.462 392.168 341.062ZM390.811 336.535C390.456 336.535 390.168 336.646 389.946 336.867C389.728 337.085 389.619 337.383 389.619 337.761C389.619 338.122 389.727 338.415 389.941 338.64C390.16 338.861 390.449 338.972 390.811 338.972C391.172 338.972 391.46 338.861 391.675 338.64C391.893 338.415 392.002 338.122 392.002 337.761C392.002 337.399 391.89 337.105 391.665 336.877C391.44 336.649 391.156 336.535 390.811 336.535ZM398.867 343H394.209V342.351L396.67 339.616C397.035 339.203 397.285 338.868 397.422 338.61C397.562 338.35 397.632 338.081 397.632 337.805C397.632 337.434 397.52 337.129 397.295 336.892C397.07 336.654 396.771 336.535 396.396 336.535C395.947 336.535 395.597 336.664 395.347 336.921C395.099 337.175 394.976 337.53 394.976 337.985H394.072C394.072 337.331 394.282 336.802 394.702 336.398C395.125 335.995 395.69 335.793 396.396 335.793C397.057 335.793 397.58 335.967 397.964 336.315C398.348 336.66 398.54 337.121 398.54 337.697C398.54 338.397 398.094 339.23 397.202 340.197L395.298 342.263H398.867V343ZM404.414 336.398L401.47 343H400.522L403.457 336.633H399.609V335.891H404.414V336.398ZM408.901 339.875C408.713 340.1 408.486 340.28 408.223 340.417C407.962 340.554 407.676 340.622 407.363 340.622C406.953 340.622 406.595 340.521 406.289 340.319C405.986 340.118 405.752 339.834 405.586 339.47C405.42 339.102 405.337 338.697 405.337 338.254C405.337 337.779 405.426 337.351 405.605 336.97C405.788 336.589 406.045 336.298 406.377 336.096C406.709 335.894 407.096 335.793 407.539 335.793C408.242 335.793 408.796 336.057 409.199 336.584C409.606 337.108 409.81 337.824 409.81 338.732V338.996C409.81 340.38 409.536 341.39 408.989 342.028C408.442 342.663 407.617 342.989 406.514 343.005H406.338V342.243H406.528C407.274 342.23 407.847 342.036 408.247 341.662C408.647 341.285 408.866 340.689 408.901 339.875ZM407.51 339.875C407.812 339.875 408.091 339.782 408.345 339.597C408.602 339.411 408.789 339.182 408.906 338.908V338.547C408.906 337.954 408.778 337.473 408.521 337.102C408.263 336.73 407.938 336.545 407.544 336.545C407.147 336.545 406.828 336.698 406.587 337.004C406.346 337.307 406.226 337.707 406.226 338.205C406.226 338.69 406.341 339.09 406.572 339.406C406.807 339.719 407.119 339.875 407.51 339.875ZM415.513 339.968C415.513 341.026 415.332 341.812 414.971 342.326C414.609 342.84 414.045 343.098 413.276 343.098C412.518 343.098 411.956 342.847 411.592 342.346C411.227 341.841 411.038 341.089 411.025 340.09V338.884C411.025 337.839 411.206 337.062 411.567 336.555C411.929 336.047 412.495 335.793 413.267 335.793C414.032 335.793 414.595 336.039 414.956 336.53C415.317 337.019 415.503 337.774 415.513 338.796V339.968ZM414.609 338.732C414.609 337.967 414.502 337.411 414.287 337.062C414.072 336.711 413.732 336.535 413.267 336.535C412.804 336.535 412.467 336.709 412.256 337.058C412.044 337.406 411.935 337.941 411.929 338.664V340.109C411.929 340.878 412.039 341.446 412.261 341.813C412.485 342.178 412.824 342.36 413.276 342.36C413.722 342.36 414.053 342.188 414.268 341.843C414.486 341.498 414.6 340.954 414.609 340.212V338.732ZM421.328 343H416.67V342.351L419.131 339.616C419.495 339.203 419.746 338.868 419.883 338.61C420.023 338.35 420.093 338.081 420.093 337.805C420.093 337.434 419.98 337.129 419.756 336.892C419.531 336.654 419.232 336.535 418.857 336.535C418.408 336.535 418.058 336.664 417.808 336.921C417.56 337.175 417.437 337.53 417.437 337.985H416.533C416.533 337.331 416.743 336.802 417.163 336.398C417.586 335.995 418.151 335.793 418.857 335.793C419.518 335.793 420.041 335.967 420.425 336.315C420.809 336.66 421.001 337.121 421.001 337.697C421.001 338.397 420.555 339.23 419.663 340.197L417.759 342.263H421.328V343ZM424.57 343.098C423.854 343.098 423.271 342.863 422.822 342.395C422.373 341.923 422.148 341.293 422.148 340.505V340.339C422.148 339.815 422.248 339.348 422.446 338.938C422.648 338.524 422.928 338.202 423.286 337.971C423.647 337.736 424.038 337.619 424.458 337.619C425.145 337.619 425.679 337.845 426.06 338.298C426.44 338.75 426.631 339.398 426.631 340.241V340.617H423.052C423.065 341.138 423.216 341.56 423.506 341.882C423.799 342.201 424.17 342.36 424.619 342.36C424.938 342.36 425.208 342.295 425.43 342.165C425.651 342.035 425.845 341.862 426.011 341.647L426.562 342.077C426.12 342.757 425.456 343.098 424.57 343.098ZM424.458 338.361C424.093 338.361 423.787 338.495 423.54 338.762C423.293 339.025 423.14 339.396 423.081 339.875H425.728V339.807C425.701 339.348 425.578 338.993 425.356 338.742C425.135 338.488 424.836 338.361 424.458 338.361ZM376.562 349.717L376.587 350.303C376.974 349.847 377.497 349.619 378.154 349.619C378.893 349.619 379.396 349.902 379.663 350.469C379.839 350.215 380.067 350.01 380.347 349.854C380.63 349.697 380.964 349.619 381.348 349.619C382.507 349.619 383.096 350.233 383.115 351.46V355H382.212V351.514C382.212 351.136 382.126 350.854 381.953 350.669C381.781 350.48 381.491 350.386 381.084 350.386C380.749 350.386 380.47 350.487 380.249 350.688C380.028 350.887 379.899 351.156 379.863 351.494V355H378.955V351.538C378.955 350.77 378.579 350.386 377.827 350.386C377.235 350.386 376.829 350.638 376.611 351.143V355H375.708V349.717H376.562ZM386.675 355.098C385.959 355.098 385.376 354.863 384.927 354.395C384.478 353.923 384.253 353.293 384.253 352.505V352.339C384.253 351.815 384.352 351.348 384.551 350.938C384.753 350.524 385.033 350.202 385.391 349.971C385.752 349.736 386.143 349.619 386.562 349.619C387.249 349.619 387.783 349.845 388.164 350.298C388.545 350.75 388.735 351.398 388.735 352.241V352.617H385.156C385.169 353.138 385.321 353.56 385.61 353.882C385.903 354.201 386.274 354.36 386.724 354.36C387.043 354.36 387.313 354.295 387.534 354.165C387.756 354.035 387.949 353.862 388.115 353.647L388.667 354.077C388.224 354.757 387.56 355.098 386.675 355.098ZM386.562 350.361C386.198 350.361 385.892 350.495 385.645 350.762C385.397 351.025 385.244 351.396 385.186 351.875H387.832V351.807C387.806 351.348 387.682 350.993 387.461 350.742C387.24 350.488 386.94 350.361 386.562 350.361ZM392.339 350.527C392.202 350.505 392.054 350.493 391.895 350.493C391.302 350.493 390.9 350.745 390.688 351.25V355H389.785V349.717H390.664L390.679 350.327C390.975 349.855 391.395 349.619 391.938 349.619C392.114 349.619 392.248 349.642 392.339 349.688V350.527ZM392.861 352.314C392.861 351.491 393.052 350.837 393.433 350.352C393.813 349.863 394.318 349.619 394.946 349.619C395.591 349.619 396.094 349.847 396.455 350.303L396.499 349.717H397.324V354.873C397.324 355.557 397.121 356.095 396.714 356.489C396.31 356.883 395.767 357.08 395.083 357.08C394.702 357.08 394.329 356.999 393.965 356.836C393.6 356.673 393.322 356.45 393.13 356.167L393.599 355.625C393.986 356.104 394.46 356.343 395.02 356.343C395.459 356.343 395.801 356.219 396.045 355.972C396.292 355.724 396.416 355.376 396.416 354.927V354.473C396.055 354.889 395.562 355.098 394.937 355.098C394.318 355.098 393.817 354.849 393.433 354.351C393.052 353.853 392.861 353.174 392.861 352.314ZM393.77 352.417C393.77 353.013 393.892 353.481 394.136 353.823C394.38 354.162 394.722 354.331 395.161 354.331C395.731 354.331 396.149 354.072 396.416 353.555V351.143C396.139 350.638 395.724 350.386 395.171 350.386C394.731 350.386 394.388 350.557 394.141 350.898C393.893 351.24 393.77 351.746 393.77 352.417ZM400.884 355.098C400.168 355.098 399.585 354.863 399.136 354.395C398.687 353.923 398.462 353.293 398.462 352.505V352.339C398.462 351.815 398.561 351.348 398.76 350.938C398.962 350.524 399.242 350.202 399.6 349.971C399.961 349.736 400.352 349.619 400.771 349.619C401.458 349.619 401.992 349.845 402.373 350.298C402.754 350.75 402.944 351.398 402.944 352.241V352.617H399.365C399.378 353.138 399.53 353.56 399.819 353.882C400.112 354.201 400.483 354.36 400.933 354.36C401.252 354.36 401.522 354.295 401.743 354.165C401.965 354.035 402.158 353.862 402.324 353.647L402.876 354.077C402.433 354.757 401.769 355.098 400.884 355.098ZM400.771 350.361C400.407 350.361 400.101 350.495 399.854 350.762C399.606 351.025 399.453 351.396 399.395 351.875H402.041V351.807C402.015 351.348 401.891 350.993 401.67 350.742C401.449 350.488 401.149 350.361 400.771 350.361ZM408.594 354.36C408.916 354.36 409.198 354.263 409.438 354.067C409.679 353.872 409.813 353.628 409.839 353.335H410.693C410.677 353.638 410.573 353.926 410.381 354.199C410.189 354.473 409.932 354.691 409.609 354.854C409.29 355.016 408.952 355.098 408.594 355.098C407.874 355.098 407.301 354.858 406.875 354.38C406.452 353.898 406.24 353.241 406.24 352.407V352.256C406.24 351.742 406.335 351.284 406.523 350.884C406.712 350.483 406.982 350.173 407.334 349.951C407.689 349.73 408.107 349.619 408.589 349.619C409.181 349.619 409.673 349.797 410.063 350.151C410.457 350.506 410.667 350.967 410.693 351.533H409.839C409.813 351.191 409.683 350.911 409.448 350.693C409.217 350.472 408.931 350.361 408.589 350.361C408.13 350.361 407.773 350.527 407.52 350.859C407.269 351.188 407.144 351.665 407.144 352.29V352.461C407.144 353.07 407.269 353.538 407.52 353.867C407.77 354.196 408.128 354.36 408.594 354.36ZM411.47 352.31C411.47 351.792 411.571 351.326 411.772 350.913C411.978 350.5 412.261 350.181 412.622 349.956C412.987 349.731 413.402 349.619 413.867 349.619C414.587 349.619 415.168 349.868 415.61 350.366C416.056 350.864 416.279 351.527 416.279 352.354V352.417C416.279 352.931 416.18 353.394 415.981 353.804C415.786 354.211 415.505 354.528 415.137 354.756C414.772 354.984 414.352 355.098 413.877 355.098C413.161 355.098 412.58 354.849 412.134 354.351C411.691 353.853 411.47 353.193 411.47 352.373V352.31ZM412.378 352.417C412.378 353.003 412.513 353.473 412.783 353.828C413.057 354.183 413.421 354.36 413.877 354.36C414.336 354.36 414.701 354.181 414.971 353.823C415.241 353.462 415.376 352.957 415.376 352.31C415.376 351.73 415.238 351.261 414.961 350.903C414.688 350.542 414.323 350.361 413.867 350.361C413.421 350.361 413.062 350.539 412.788 350.894C412.515 351.248 412.378 351.756 412.378 352.417ZM418.262 349.717L418.286 350.303C418.674 349.847 419.196 349.619 419.854 349.619C420.592 349.619 421.095 349.902 421.362 350.469C421.538 350.215 421.766 350.01 422.046 349.854C422.329 349.697 422.663 349.619 423.047 349.619C424.206 349.619 424.795 350.233 424.814 351.46V355H423.911V351.514C423.911 351.136 423.825 350.854 423.652 350.669C423.48 350.48 423.19 350.386 422.783 350.386C422.448 350.386 422.17 350.487 421.948 350.688C421.727 350.887 421.598 351.156 421.562 351.494V355H420.654V351.538C420.654 350.77 420.278 350.386 419.526 350.386C418.934 350.386 418.529 350.638 418.311 351.143V355H417.407V349.717H418.262ZM427.031 349.717L427.056 350.303C427.443 349.847 427.965 349.619 428.623 349.619C429.362 349.619 429.865 349.902 430.132 350.469C430.308 350.215 430.535 350.01 430.815 349.854C431.099 349.697 431.432 349.619 431.816 349.619C432.975 349.619 433.564 350.233 433.584 351.46V355H432.681V351.514C432.681 351.136 432.594 350.854 432.422 350.669C432.249 350.48 431.96 350.386 431.553 350.386C431.217 350.386 430.939 350.487 430.718 350.688C430.496 350.887 430.368 351.156 430.332 351.494V355H429.424V351.538C429.424 350.77 429.048 350.386 428.296 350.386C427.703 350.386 427.298 350.638 427.08 351.143V355H426.177V349.717H427.031ZM435.933 355H435.029V349.717H435.933V355ZM434.956 348.315C434.956 348.169 435 348.045 435.088 347.944C435.179 347.843 435.312 347.793 435.488 347.793C435.664 347.793 435.798 347.843 435.889 347.944C435.98 348.045 436.025 348.169 436.025 348.315C436.025 348.462 435.98 348.584 435.889 348.682C435.798 348.779 435.664 348.828 435.488 348.828C435.312 348.828 435.179 348.779 435.088 348.682C435 348.584 434.956 348.462 434.956 348.315ZM438.608 348.438V349.717H439.595V350.415H438.608V353.691C438.608 353.903 438.652 354.062 438.74 354.17C438.828 354.274 438.978 354.326 439.189 354.326C439.294 354.326 439.437 354.307 439.619 354.268V355C439.382 355.065 439.15 355.098 438.926 355.098C438.522 355.098 438.218 354.976 438.013 354.731C437.808 354.487 437.705 354.141 437.705 353.691V350.415H436.743V349.717H437.705V348.438H438.608Z" fill="black"/>
<path d="M312.048 307H311.14V300.979L309.318 301.648V300.828L311.906 299.856H312.048V307ZM314.567 304.314C314.567 303.504 314.759 302.853 315.144 302.361C315.528 301.867 316.031 301.619 316.652 301.619C317.271 301.619 317.761 301.831 318.122 302.254V299.5H319.025V307H318.195L318.151 306.434C317.79 306.876 317.287 307.098 316.643 307.098C316.031 307.098 315.531 306.847 315.144 306.346C314.759 305.844 314.567 305.19 314.567 304.383V304.314ZM315.471 304.417C315.471 305.016 315.594 305.485 315.842 305.823C316.089 306.162 316.431 306.331 316.867 306.331C317.44 306.331 317.858 306.074 318.122 305.56V303.133C317.852 302.635 317.437 302.386 316.877 302.386C316.434 302.386 316.089 302.557 315.842 302.898C315.594 303.24 315.471 303.746 315.471 304.417ZM322.624 307.098C321.908 307.098 321.325 306.863 320.876 306.395C320.427 305.923 320.202 305.293 320.202 304.505V304.339C320.202 303.815 320.301 303.348 320.5 302.938C320.702 302.524 320.982 302.202 321.34 301.971C321.701 301.736 322.092 301.619 322.512 301.619C323.199 301.619 323.732 301.845 324.113 302.298C324.494 302.75 324.685 303.398 324.685 304.241V304.617H321.105C321.118 305.138 321.27 305.56 321.56 305.882C321.853 306.201 322.224 306.36 322.673 306.36C322.992 306.36 323.262 306.295 323.483 306.165C323.705 306.035 323.898 305.862 324.064 305.647L324.616 306.077C324.174 306.757 323.509 307.098 322.624 307.098ZM322.512 302.361C322.147 302.361 321.841 302.495 321.594 302.762C321.346 303.025 321.193 303.396 321.135 303.875H323.781V303.807C323.755 303.348 323.632 302.993 323.41 302.742C323.189 302.488 322.889 302.361 322.512 302.361ZM329.953 301.746C329.953 302.101 329.859 302.417 329.67 302.693C329.484 302.97 329.232 303.187 328.913 303.343C329.284 303.502 329.577 303.735 329.792 304.041C330.01 304.347 330.119 304.694 330.119 305.081C330.119 305.696 329.911 306.186 329.494 306.551C329.081 306.915 328.535 307.098 327.858 307.098C327.175 307.098 326.626 306.915 326.213 306.551C325.803 306.183 325.598 305.693 325.598 305.081C325.598 304.697 325.702 304.35 325.91 304.041C326.122 303.732 326.413 303.497 326.784 303.338C326.468 303.182 326.219 302.965 326.037 302.688C325.855 302.412 325.764 302.098 325.764 301.746C325.764 301.147 325.956 300.672 326.34 300.32C326.724 299.969 327.23 299.793 327.858 299.793C328.483 299.793 328.988 299.969 329.372 300.32C329.759 300.672 329.953 301.147 329.953 301.746ZM329.216 305.062C329.216 304.664 329.089 304.34 328.835 304.09C328.584 303.839 328.256 303.714 327.849 303.714C327.442 303.714 327.115 303.838 326.867 304.085C326.623 304.332 326.501 304.658 326.501 305.062C326.501 305.465 326.62 305.783 326.857 306.014C327.098 306.245 327.432 306.36 327.858 306.36C328.282 306.36 328.614 306.245 328.854 306.014C329.095 305.779 329.216 305.462 329.216 305.062ZM327.858 300.535C327.504 300.535 327.215 300.646 326.994 300.867C326.776 301.085 326.667 301.383 326.667 301.761C326.667 302.122 326.774 302.415 326.989 302.64C327.207 302.861 327.497 302.972 327.858 302.972C328.22 302.972 328.508 302.861 328.723 302.64C328.941 302.415 329.05 302.122 329.05 301.761C329.05 301.399 328.938 301.105 328.713 300.877C328.488 300.649 328.203 300.535 327.858 300.535ZM335.847 300.398L332.902 307H331.955L334.89 300.633H331.042V299.891H335.847V300.398ZM341.53 307H336.872V306.351L339.333 303.616C339.698 303.203 339.948 302.868 340.085 302.61C340.225 302.35 340.295 302.081 340.295 301.805C340.295 301.434 340.183 301.129 339.958 300.892C339.733 300.654 339.434 300.535 339.06 300.535C338.61 300.535 338.26 300.664 338.01 300.921C337.762 301.175 337.639 301.53 337.639 301.985H336.735C336.735 301.331 336.945 300.802 337.365 300.398C337.788 299.995 338.353 299.793 339.06 299.793C339.72 299.793 340.243 299.967 340.627 300.315C341.011 300.66 341.203 301.121 341.203 301.697C341.203 302.397 340.757 303.23 339.865 304.197L337.961 306.263H341.53V307ZM347.053 304.417C347.053 305.224 346.867 305.874 346.496 306.365C346.125 306.854 345.627 307.098 345.002 307.098C344.335 307.098 343.819 306.862 343.454 306.39L343.41 307H342.58V299.5H343.483V302.298C343.848 301.845 344.351 301.619 344.992 301.619C345.633 301.619 346.136 301.862 346.501 302.347C346.869 302.832 347.053 303.496 347.053 304.339V304.417ZM346.149 304.314C346.149 303.699 346.031 303.224 345.793 302.889C345.555 302.553 345.214 302.386 344.768 302.386C344.172 302.386 343.744 302.662 343.483 303.216V305.501C343.76 306.054 344.191 306.331 344.777 306.331C345.21 306.331 345.547 306.163 345.788 305.828C346.029 305.493 346.149 304.988 346.149 304.314ZM313.291 312.31H311.481V311H310.671V312.31H308.881V312.97H313.291V312.31ZM311.081 316.99C310.401 316.99 309.921 316.42 309.921 315.63C309.921 314.84 310.401 314.27 311.081 314.27C311.741 314.27 312.231 314.84 312.231 315.63C312.231 316.42 311.741 316.99 311.081 316.99ZM311.081 313.58C309.991 313.58 309.201 314.42 309.201 315.63C309.201 316.84 309.991 317.68 311.081 317.68C312.161 317.68 312.951 316.84 312.951 315.63C312.951 314.42 312.161 313.58 311.081 313.58ZM314.041 314.23H313.041V314.92H314.041V319.29H314.821V310.97H314.041V314.23ZM315.731 310.77V319.74H316.511V310.77H315.731ZM319.361 312.3H322.621V311.62H318.541V317.54H319.231C320.931 317.54 322.011 317.48 323.311 317.24L323.211 316.56C322.001 316.79 320.951 316.85 319.361 316.85V312.3ZM324.661 310.77V314.02H322.091V314.7H324.661V319.76H325.481V310.77H324.661ZM330.58 315.51C331.97 315.3 333.26 314.61 333.83 313.64C334.4 314.61 335.68 315.3 337.07 315.51L337.36 314.85C335.76 314.63 334.24 313.64 334.24 312.54H337.1V311.88H334.24V310.77H333.42V311.88H330.56V312.54H333.41C333.41 313.65 331.9 314.63 330.28 314.85L330.58 315.51ZM337.89 316.19H329.78V316.86H333.42V319.75H334.24V316.86H337.89V316.19ZM339.449 311.73V312.41H342.739C342.549 314.53 341.319 316.25 339.029 317.4L339.479 318.04C342.379 316.59 343.549 314.28 343.549 311.73H339.449ZM347.309 314.41H345.869V310.77H345.049V319.74H345.869V315.09H347.309V314.41Z" fill="black"/>
<path d="M235.466 186H230.808V185.351L233.269 182.616C233.633 182.203 233.884 181.868 234.021 181.61C234.16 181.35 234.23 181.081 234.23 180.805C234.23 180.434 234.118 180.129 233.894 179.892C233.669 179.654 233.369 179.535 232.995 179.535C232.546 179.535 232.196 179.664 231.945 179.921C231.698 180.175 231.574 180.53 231.574 180.985H230.671C230.671 180.331 230.881 179.802 231.301 179.398C231.724 178.995 232.289 178.793 232.995 178.793C233.656 178.793 234.178 178.967 234.562 179.315C234.947 179.66 235.139 180.121 235.139 180.697C235.139 181.397 234.693 182.23 233.801 183.197L231.896 185.263H235.466V186ZM238.635 185.36C238.957 185.36 239.239 185.263 239.479 185.067C239.72 184.872 239.854 184.628 239.88 184.335H240.734C240.718 184.638 240.614 184.926 240.422 185.199C240.23 185.473 239.973 185.691 239.65 185.854C239.331 186.016 238.993 186.098 238.635 186.098C237.915 186.098 237.342 185.858 236.916 185.38C236.493 184.898 236.281 184.241 236.281 183.407V183.256C236.281 182.742 236.376 182.284 236.564 181.884C236.753 181.483 237.023 181.173 237.375 180.951C237.73 180.73 238.148 180.619 238.63 180.619C239.222 180.619 239.714 180.797 240.104 181.151C240.498 181.506 240.708 181.967 240.734 182.533H239.88C239.854 182.191 239.724 181.911 239.489 181.693C239.258 181.472 238.972 181.361 238.63 181.361C238.171 181.361 237.814 181.527 237.561 181.859C237.31 182.188 237.185 182.665 237.185 183.29V183.461C237.185 184.07 237.31 184.538 237.561 184.867C237.811 185.196 238.169 185.36 238.635 185.36ZM245.012 186C244.96 185.896 244.917 185.71 244.885 185.443C244.465 185.88 243.964 186.098 243.381 186.098C242.86 186.098 242.432 185.951 242.097 185.658C241.765 185.362 241.599 184.988 241.599 184.535C241.599 183.985 241.807 183.559 242.224 183.256C242.644 182.95 243.233 182.797 243.991 182.797H244.87V182.382C244.87 182.066 244.776 181.815 244.587 181.63C244.398 181.441 244.12 181.347 243.752 181.347C243.43 181.347 243.16 181.428 242.941 181.591C242.723 181.754 242.614 181.951 242.614 182.182H241.706C241.706 181.918 241.799 181.664 241.984 181.42C242.173 181.173 242.427 180.977 242.746 180.834C243.068 180.691 243.422 180.619 243.806 180.619C244.414 180.619 244.891 180.772 245.236 181.078C245.581 181.381 245.76 181.799 245.773 182.333V184.765C245.773 185.25 245.835 185.635 245.959 185.922V186H245.012ZM243.513 185.312C243.796 185.312 244.064 185.238 244.318 185.092C244.572 184.945 244.756 184.755 244.87 184.521V183.437H244.162C243.055 183.437 242.502 183.76 242.502 184.408C242.502 184.691 242.596 184.913 242.785 185.072C242.974 185.232 243.216 185.312 243.513 185.312ZM251.755 186H247.097V185.351L249.558 182.616C249.922 182.203 250.173 181.868 250.31 181.61C250.45 181.35 250.52 181.081 250.52 180.805C250.52 180.434 250.407 180.129 250.183 179.892C249.958 179.654 249.659 179.535 249.284 179.535C248.835 179.535 248.485 179.664 248.234 179.921C247.987 180.175 247.863 180.53 247.863 180.985H246.96C246.96 180.331 247.17 179.802 247.59 179.398C248.013 178.995 248.578 178.793 249.284 178.793C249.945 178.793 250.467 178.967 250.852 179.315C251.236 179.66 251.428 180.121 251.428 180.697C251.428 181.397 250.982 182.23 250.09 183.197L248.186 185.263H251.755V186ZM256.257 178.886V179.652H256.091C255.388 179.665 254.828 179.874 254.411 180.277C253.994 180.681 253.754 181.249 253.688 181.981C254.063 181.552 254.574 181.337 255.222 181.337C255.84 181.337 256.333 181.555 256.701 181.991C257.072 182.427 257.258 182.991 257.258 183.681C257.258 184.413 257.058 184.999 256.657 185.438C256.26 185.878 255.726 186.098 255.056 186.098C254.375 186.098 253.824 185.837 253.4 185.316C252.977 184.792 252.766 184.118 252.766 183.295V182.948C252.766 181.64 253.044 180.64 253.601 179.95C254.16 179.257 254.992 178.902 256.096 178.886H256.257ZM255.07 182.089C254.761 182.089 254.476 182.182 254.216 182.367C253.955 182.553 253.775 182.785 253.674 183.065V183.397C253.674 183.983 253.806 184.455 254.069 184.813C254.333 185.172 254.662 185.351 255.056 185.351C255.463 185.351 255.782 185.201 256.013 184.901C256.247 184.602 256.364 184.21 256.364 183.725C256.364 183.236 256.245 182.842 256.008 182.543C255.773 182.24 255.461 182.089 255.07 182.089ZM262.141 183.612H263.127V184.35H262.141V186H261.232V184.35H257.995V183.817L261.179 178.891H262.141V183.612ZM259.021 183.612H261.232V180.126L261.125 180.321L259.021 183.612ZM265.017 186H264.113V180.717H265.017V186ZM264.04 179.315C264.04 179.169 264.084 179.045 264.172 178.944C264.263 178.843 264.396 178.793 264.572 178.793C264.748 178.793 264.882 178.843 264.973 178.944C265.064 179.045 265.109 179.169 265.109 179.315C265.109 179.462 265.064 179.584 264.973 179.682C264.882 179.779 264.748 179.828 264.572 179.828C264.396 179.828 264.263 179.779 264.172 179.682C264.084 179.584 264.04 179.462 264.04 179.315ZM234.061 193.38H231.831V190.94H234.061V193.38ZM231.011 193.38H229.691V194.05H236.201V193.38H234.881V190.94H236.231V190.27H229.661V190.94H231.011V193.38ZM237.011 195.09H228.881V195.76H232.531V198.74H233.361V195.76H237.011V195.09ZM239.321 193.77H242.261V193.11H239.321V191.26H242.651V190.58H238.501V196.59H239.191C240.901 196.59 241.991 196.54 243.291 196.31L243.201 195.64C241.981 195.86 240.941 195.92 239.321 195.92V193.77ZM244.661 189.76V193.15H242.811V193.83H244.661V198.75H245.481V189.76H244.661ZM250.58 194.51C251.97 194.3 253.26 193.61 253.83 192.64C254.4 193.61 255.68 194.3 257.07 194.51L257.36 193.85C255.76 193.63 254.24 192.64 254.24 191.54H257.1V190.88H254.24V189.77H253.42V190.88H250.56V191.54H253.41C253.41 192.65 251.9 193.63 250.28 193.85L250.58 194.51ZM257.89 195.19H249.78V195.86H253.42V198.75H254.24V195.86H257.89V195.19ZM259.449 190.73V191.41H262.739C262.549 193.53 261.319 195.25 259.029 196.4L259.479 197.04C262.379 195.59 263.549 193.28 263.549 190.73H259.449ZM267.309 193.41H265.869V189.77H265.049V198.74H265.869V194.09H267.309V193.41Z" fill="black"/>
<path d="M235.466 340H230.808V339.351L233.269 336.616C233.633 336.203 233.884 335.868 234.021 335.61C234.16 335.35 234.23 335.081 234.23 334.805C234.23 334.434 234.118 334.129 233.894 333.892C233.669 333.654 233.369 333.535 232.995 333.535C232.546 333.535 232.196 333.664 231.945 333.921C231.698 334.175 231.574 334.53 231.574 334.985H230.671C230.671 334.331 230.881 333.802 231.301 333.398C231.724 332.995 232.289 332.793 232.995 332.793C233.656 332.793 234.178 332.967 234.562 333.315C234.947 333.66 235.139 334.121 235.139 334.697C235.139 335.397 234.693 336.23 233.801 337.197L231.896 339.263H235.466V340ZM238.635 339.36C238.957 339.36 239.239 339.263 239.479 339.067C239.72 338.872 239.854 338.628 239.88 338.335H240.734C240.718 338.638 240.614 338.926 240.422 339.199C240.23 339.473 239.973 339.691 239.65 339.854C239.331 340.016 238.993 340.098 238.635 340.098C237.915 340.098 237.342 339.858 236.916 339.38C236.493 338.898 236.281 338.241 236.281 337.407V337.256C236.281 336.742 236.376 336.284 236.564 335.884C236.753 335.483 237.023 335.173 237.375 334.951C237.73 334.73 238.148 334.619 238.63 334.619C239.222 334.619 239.714 334.797 240.104 335.151C240.498 335.506 240.708 335.967 240.734 336.533H239.88C239.854 336.191 239.724 335.911 239.489 335.693C239.258 335.472 238.972 335.361 238.63 335.361C238.171 335.361 237.814 335.527 237.561 335.859C237.31 336.188 237.185 336.665 237.185 337.29V337.461C237.185 338.07 237.31 338.538 237.561 338.867C237.811 339.196 238.169 339.36 238.635 339.36ZM245.012 340C244.96 339.896 244.917 339.71 244.885 339.443C244.465 339.88 243.964 340.098 243.381 340.098C242.86 340.098 242.432 339.951 242.097 339.658C241.765 339.362 241.599 338.988 241.599 338.535C241.599 337.985 241.807 337.559 242.224 337.256C242.644 336.95 243.233 336.797 243.991 336.797H244.87V336.382C244.87 336.066 244.776 335.815 244.587 335.63C244.398 335.441 244.12 335.347 243.752 335.347C243.43 335.347 243.16 335.428 242.941 335.591C242.723 335.754 242.614 335.951 242.614 336.182H241.706C241.706 335.918 241.799 335.664 241.984 335.42C242.173 335.173 242.427 334.977 242.746 334.834C243.068 334.691 243.422 334.619 243.806 334.619C244.414 334.619 244.891 334.772 245.236 335.078C245.581 335.381 245.76 335.799 245.773 336.333V338.765C245.773 339.25 245.835 339.635 245.959 339.922V340H245.012ZM243.513 339.312C243.796 339.312 244.064 339.238 244.318 339.092C244.572 338.945 244.756 338.755 244.87 338.521V337.437H244.162C243.055 337.437 242.502 337.76 242.502 338.408C242.502 338.691 242.596 338.913 242.785 339.072C242.974 339.232 243.216 339.312 243.513 339.312ZM251.755 340H247.097V339.351L249.558 336.616C249.922 336.203 250.173 335.868 250.31 335.61C250.45 335.35 250.52 335.081 250.52 334.805C250.52 334.434 250.407 334.129 250.183 333.892C249.958 333.654 249.659 333.535 249.284 333.535C248.835 333.535 248.485 333.664 248.234 333.921C247.987 334.175 247.863 334.53 247.863 334.985H246.96C246.96 334.331 247.17 333.802 247.59 333.398C248.013 332.995 248.578 332.793 249.284 332.793C249.945 332.793 250.467 332.967 250.852 333.315C251.236 333.66 251.428 334.121 251.428 334.697C251.428 335.397 250.982 336.23 250.09 337.197L248.186 339.263H251.755V340ZM256.257 332.886V333.652H256.091C255.388 333.665 254.828 333.874 254.411 334.277C253.994 334.681 253.754 335.249 253.688 335.981C254.063 335.552 254.574 335.337 255.222 335.337C255.84 335.337 256.333 335.555 256.701 335.991C257.072 336.427 257.258 336.991 257.258 337.681C257.258 338.413 257.058 338.999 256.657 339.438C256.26 339.878 255.726 340.098 255.056 340.098C254.375 340.098 253.824 339.837 253.4 339.316C252.977 338.792 252.766 338.118 252.766 337.295V336.948C252.766 335.64 253.044 334.64 253.601 333.95C254.16 333.257 254.992 332.902 256.096 332.886H256.257ZM255.07 336.089C254.761 336.089 254.476 336.182 254.216 336.367C253.955 336.553 253.775 336.785 253.674 337.065V337.397C253.674 337.983 253.806 338.455 254.069 338.813C254.333 339.172 254.662 339.351 255.056 339.351C255.463 339.351 255.782 339.201 256.013 338.901C256.247 338.602 256.364 338.21 256.364 337.725C256.364 337.236 256.245 336.842 256.008 336.543C255.773 336.24 255.461 336.089 255.07 336.089ZM262.141 337.612H263.127V338.35H262.141V340H261.232V338.35H257.995V337.817L261.179 332.891H262.141V337.612ZM259.021 337.612H261.232V334.126L261.125 334.321L259.021 337.612ZM265.017 340H264.113V334.717H265.017V340ZM264.04 333.315C264.04 333.169 264.084 333.045 264.172 332.944C264.263 332.843 264.396 332.793 264.572 332.793C264.748 332.793 264.882 332.843 264.973 332.944C265.064 333.045 265.109 333.169 265.109 333.315C265.109 333.462 265.064 333.584 264.973 333.682C264.882 333.779 264.748 333.828 264.572 333.828C264.396 333.828 264.263 333.779 264.172 333.682C264.084 333.584 264.04 333.462 264.04 333.315ZM234.061 347.38H231.831V344.94H234.061V347.38ZM231.011 347.38H229.691V348.05H236.201V347.38H234.881V344.94H236.231V344.27H229.661V344.94H231.011V347.38ZM237.011 349.09H228.881V349.76H232.531V352.74H233.361V349.76H237.011V349.09ZM239.321 347.77H242.261V347.11H239.321V345.26H242.651V344.58H238.501V350.59H239.191C240.901 350.59 241.991 350.54 243.291 350.31L243.201 349.64C241.981 349.86 240.941 349.92 239.321 349.92V347.77ZM244.661 343.76V347.15H242.811V347.83H244.661V352.75H245.481V343.76H244.661ZM250.58 348.51C251.97 348.3 253.26 347.61 253.83 346.64C254.4 347.61 255.68 348.3 257.07 348.51L257.36 347.85C255.76 347.63 254.24 346.64 254.24 345.54H257.1V344.88H254.24V343.77H253.42V344.88H250.56V345.54H253.41C253.41 346.65 251.9 347.63 250.28 347.85L250.58 348.51ZM257.89 349.19H249.78V349.86H253.42V352.75H254.24V349.86H257.89V349.19ZM259.449 344.73V345.41H262.739C262.549 347.53 261.319 349.25 259.029 350.4L259.479 351.04C262.379 349.59 263.549 347.28 263.549 344.73H259.449ZM267.309 347.41H265.869V343.77H265.049V352.74H265.869V348.09H267.309V347.41Z" fill="black"/>
<rect x="443" y="320" width="88" height="27" rx="13.5" fill="#7D7D7D"/>
<path d="M463.241 330.408V331.279H465.204V332.852H463.241V333.723H465.204V336.193H466.283V327.314H465.204V330.408H463.241ZM463.241 328.731H460.563V327.288H459.497V328.731H456.715V329.589H463.241V328.731ZM458.392 332.449C458.392 331.63 459.055 331.071 460.017 331.071C460.979 331.071 461.642 331.63 461.642 332.449C461.642 333.281 460.979 333.853 460.017 333.853C459.055 333.853 458.392 333.281 458.392 332.449ZM462.656 332.449C462.656 331.123 461.564 330.239 460.017 330.239C458.47 330.239 457.378 331.123 457.378 332.449C457.378 333.788 458.47 334.685 460.017 334.685C461.564 334.685 462.656 333.788 462.656 332.449ZM459.861 337.831V335.439H458.795V338.702H466.556V337.831H459.861ZM472.093 329.55H474.212V328.679H468.804V329.55H471.066V330.46C471.066 332.826 470.195 334.815 468.531 335.751L469.181 336.557C470.39 335.855 471.209 334.594 471.599 333.008C472.015 334.386 472.821 335.517 473.965 336.154L474.589 335.335C472.938 334.477 472.093 332.592 472.093 330.46V329.55ZM477.566 327.288V332.007H476.032V327.561H475.031V338.39H476.032V332.891H477.566V338.962H478.593V327.288H477.566ZM493.4 327.314H492.334V335.842H493.4V327.314ZM490.956 333.333C489.24 332.761 488.031 331.344 488.031 329.771V329.134H490.67V328.276H484.274V329.134H486.939V329.771C486.939 331.435 485.756 332.956 483.988 333.567L484.547 334.399C485.925 333.905 487.004 332.852 487.498 331.526C488.031 332.748 489.097 333.71 490.436 334.178L490.956 333.333ZM486.965 337.831V335.036H485.899V338.702H493.751V337.831H486.965ZM503.123 331.344H504.605V334.685H505.632V327.301H504.605V330.473H503.123V327.522H502.109V334.256H503.123V331.344ZM501.641 328.692H499.223V327.392H498.17V328.692H495.726V329.537H501.654L501.641 328.692ZM497.169 332.137C497.169 331.422 497.78 330.941 498.703 330.941C499.613 330.941 500.237 331.422 500.237 332.137C500.237 332.865 499.613 333.346 498.703 333.346C497.78 333.346 497.169 332.865 497.169 332.137ZM501.186 332.137C501.186 330.941 500.172 330.148 498.703 330.148C497.234 330.148 496.207 330.941 496.207 332.137C496.207 333.359 497.234 334.139 498.703 334.139C500.172 334.139 501.186 333.359 501.186 332.137ZM501.797 338.13C500.016 338.13 498.95 337.688 498.95 336.921C498.95 336.141 500.016 335.699 501.797 335.699C503.565 335.699 504.631 336.141 504.631 336.921C504.631 337.688 503.565 338.13 501.797 338.13ZM501.797 334.88C499.366 334.88 497.897 335.608 497.897 336.921C497.897 338.221 499.366 338.949 501.797 338.949C504.228 338.949 505.697 338.221 505.697 336.921C505.697 335.608 504.228 334.88 501.797 334.88ZM508.725 332.059C510.636 331.825 512.391 330.967 513.028 329.68C513.678 330.967 515.42 331.825 517.331 332.059L517.708 331.214C515.667 330.98 513.808 329.979 513.717 328.692H517.344V327.834H508.725V328.692H512.339C512.248 329.979 510.389 330.98 508.348 331.214L508.725 332.059ZM515.927 336.895C515.927 337.675 514.835 338.13 513.015 338.13C511.182 338.13 510.103 337.675 510.103 336.895C510.103 336.115 511.182 335.673 513.015 335.673C514.835 335.673 515.927 336.115 515.927 336.895ZM518.293 333.619V332.761H507.75V333.619H512.482V334.867C510.311 334.971 509.024 335.686 509.024 336.895C509.024 338.221 510.532 338.949 513.028 338.949C515.511 338.949 517.006 338.221 517.006 336.895C517.006 335.686 515.732 334.971 513.561 334.867V333.619H518.293Z" fill="white"/>
<path d="M165.559 361C160.694 351.652 185.557 330.945 321 332.042" stroke="#4000C7"/>
<path d="M165.559 206C160.694 196.652 185.557 175.945 321 177.042" stroke="#4000C7"/>
<path d="M406.738 361C409.015 351.652 397.38 330.945 334 332.042" stroke="#4000C7"/>
<path d="M406.738 206C409.015 196.652 397.38 175.945 334 177.042" stroke="#4000C7"/>
<rect x="358.824" y="100.124" width="18" height="41" rx="5" transform="rotate(-90.1738 358.824 100.124)" fill="black"/>
<rect x="434.824" y="220.124" width="18" height="41" rx="5" transform="rotate(-90.1738 434.824 220.124)" fill="black"/>
<rect x="514.824" y="375.124" width="18" height="41" rx="5" transform="rotate(-90.1738 514.824 375.124)" fill="black"/>
<path d="M351.001 91.1934L359.251 87.7304L359.25 94.6586L351.001 91.1934Z" fill="black"/>
<path d="M427.001 211.193L435.251 207.73L435.25 214.659L427.001 211.193Z" fill="black"/>
<path d="M507.001 366.193L515.251 362.73L515.25 369.659L507.001 366.193Z" fill="black"/>
<path d="M368.603 88.737L368.63 89.3815C369.056 88.8801 369.631 88.6294 370.354 88.6293C371.167 88.6291 371.72 88.9405 372.014 89.5635C372.207 89.2842 372.458 89.0586 372.766 88.8866C373.077 88.7147 373.444 88.6287 373.867 88.6286C375.142 88.6284 375.79 89.3032 375.812 90.6532L375.812 94.5472L374.819 94.5474L374.818 90.7124C374.818 90.2971 374.723 89.9874 374.533 89.7833C374.343 89.5756 374.025 89.4719 373.577 89.4719C373.208 89.472 372.902 89.5831 372.659 89.8051C372.415 90.0236 372.274 90.319 372.235 90.6914L372.235 94.5479L371.236 94.548L371.235 90.7399C371.235 89.8949 370.822 89.4724 369.995 89.4726C369.343 89.4727 368.897 89.7503 368.657 90.3053L368.658 94.5485L367.664 94.5487L367.663 88.7372L368.603 88.737ZM380.904 94.5463C380.847 94.4317 380.8 94.2276 380.764 93.934C380.303 94.4139 379.751 94.6539 379.11 94.654C378.537 94.6541 378.066 94.4931 377.698 94.1709C377.332 93.8451 377.15 93.4334 377.149 92.9356C377.149 92.3305 377.378 91.8614 377.837 91.5283C378.299 91.1916 378.947 91.0232 379.781 91.0231L380.748 91.0229L380.748 90.5663C380.748 90.219 380.644 89.9433 380.436 89.7393C380.228 89.5316 379.922 89.4278 379.517 89.4279C379.163 89.428 378.866 89.5175 378.626 89.6966C378.386 89.8757 378.266 90.0923 378.266 90.3466L377.267 90.3468C377.267 90.0567 377.369 89.7774 377.573 89.5088C377.781 89.2366 378.06 89.0217 378.411 88.8641C378.765 88.7065 379.154 88.6277 379.576 88.6276C380.246 88.6275 380.771 88.7957 381.15 89.1322C381.53 89.4651 381.727 89.9252 381.741 90.5125L381.742 93.1873C381.742 93.7208 381.81 94.1451 381.946 94.4602L381.946 94.5461L380.904 94.5463ZM379.255 93.7893C379.567 93.7892 379.862 93.7086 380.141 93.5474C380.421 93.3862 380.623 93.1767 380.748 92.9189L380.748 91.7265L379.969 91.7266C378.752 91.7269 378.143 92.0833 378.143 92.7958C378.143 93.1073 378.247 93.3508 378.455 93.5262C378.662 93.7016 378.929 93.7893 379.255 93.7893ZM384.379 94.5457L383.386 94.5458L383.385 88.7343L384.378 88.7341L384.379 94.5457ZM383.304 87.1928C383.304 87.0317 383.352 86.8956 383.449 86.7846C383.549 86.6736 383.696 86.6181 383.889 86.618C384.082 86.618 384.229 86.6735 384.33 86.7844C384.43 86.8954 384.48 87.0315 384.48 87.1926C384.48 87.3538 384.43 87.488 384.33 87.5955C384.229 87.7029 384.083 87.7567 383.889 87.7567C383.696 87.7567 383.549 87.703 383.449 87.5956C383.352 87.4882 383.304 87.354 383.304 87.1928ZM386.913 88.7337L386.946 89.4641C387.39 88.9055 387.97 88.6261 388.686 88.6259C389.914 88.6257 390.534 89.3185 390.545 90.7042L390.545 94.5445L389.552 94.5447L389.551 90.699C389.547 90.2801 389.451 89.9704 389.261 89.7699C389.074 89.5694 388.783 89.4692 388.385 89.4693C388.063 89.4693 387.78 89.5553 387.537 89.7272C387.293 89.8991 387.103 90.1248 386.967 90.4041L386.968 94.5452L385.974 94.5454L385.973 88.7339L386.913 88.7337Z" fill="white"/>
<path d="M444.603 208.737L444.63 209.382C445.056 208.88 445.631 208.629 446.354 208.629C447.167 208.629 447.72 208.941 448.014 209.564C448.207 209.284 448.458 209.059 448.766 208.887C449.077 208.715 449.444 208.629 449.867 208.629C451.142 208.628 451.79 209.303 451.812 210.653L451.812 214.547L450.819 214.547L450.818 210.712C450.818 210.297 450.723 209.987 450.533 209.783C450.343 209.576 450.025 209.472 449.577 209.472C449.208 209.472 448.902 209.583 448.659 209.805C448.415 210.024 448.274 210.319 448.235 210.691L448.235 214.548L447.236 214.548L447.235 210.74C447.235 209.895 446.822 209.472 445.995 209.473C445.343 209.473 444.897 209.75 444.657 210.305L444.658 214.549L443.664 214.549L443.663 208.737L444.603 208.737ZM456.904 214.546C456.847 214.432 456.8 214.228 456.764 213.934C456.303 214.414 455.751 214.654 455.11 214.654C454.537 214.654 454.066 214.493 453.698 214.171C453.332 213.845 453.15 213.433 453.149 212.936C453.149 212.331 453.378 211.861 453.837 211.528C454.299 211.192 454.947 211.023 455.781 211.023L456.748 211.023L456.748 210.566C456.748 210.219 456.644 209.943 456.436 209.739C456.228 209.532 455.922 209.428 455.517 209.428C455.163 209.428 454.866 209.518 454.626 209.697C454.386 209.876 454.266 210.092 454.266 210.347L453.267 210.347C453.267 210.057 453.369 209.777 453.573 209.509C453.781 209.237 454.06 209.022 454.411 208.864C454.765 208.707 455.154 208.628 455.576 208.628C456.246 208.627 456.771 208.796 457.15 209.132C457.53 209.465 457.727 209.925 457.741 210.512L457.742 213.187C457.742 213.721 457.81 214.145 457.946 214.46L457.946 214.546L456.904 214.546ZM455.255 213.789C455.567 213.789 455.862 213.709 456.141 213.547C456.421 213.386 456.623 213.177 456.748 212.919L456.748 211.726L455.969 211.727C454.752 211.727 454.143 212.083 454.143 212.796C454.143 213.107 454.247 213.351 454.455 213.526C454.662 213.702 454.929 213.789 455.255 213.789ZM460.379 214.546L459.386 214.546L459.385 208.734L460.378 208.734L460.379 214.546ZM459.304 207.193C459.304 207.032 459.352 206.896 459.449 206.785C459.549 206.674 459.696 206.618 459.889 206.618C460.082 206.618 460.229 206.673 460.33 206.784C460.43 206.895 460.48 207.031 460.48 207.193C460.48 207.354 460.43 207.488 460.33 207.595C460.229 207.703 460.083 207.757 459.889 207.757C459.696 207.757 459.549 207.703 459.449 207.596C459.352 207.488 459.304 207.354 459.304 207.193ZM462.913 208.734L462.946 209.464C463.39 208.905 463.97 208.626 464.686 208.626C465.914 208.626 466.534 209.318 466.545 210.704L466.545 214.545L465.552 214.545L465.551 210.699C465.547 210.28 465.451 209.97 465.261 209.77C465.074 209.569 464.783 209.469 464.385 209.469C464.063 209.469 463.78 209.555 463.537 209.727C463.293 209.899 463.103 210.125 462.967 210.404L462.968 214.545L461.974 214.545L461.973 208.734L462.913 208.734Z" fill="white"/>
<path d="M524.603 363.737L524.63 364.382C525.056 363.88 525.631 363.629 526.354 363.629C527.167 363.629 527.72 363.941 528.014 364.564C528.207 364.284 528.458 364.059 528.766 363.887C529.077 363.715 529.444 363.629 529.867 363.629C531.142 363.628 531.79 364.303 531.812 365.653L531.812 369.547L530.819 369.547L530.818 365.712C530.818 365.297 530.723 364.987 530.533 364.783C530.343 364.576 530.025 364.472 529.577 364.472C529.208 364.472 528.902 364.583 528.659 364.805C528.415 365.024 528.274 365.319 528.235 365.691L528.235 369.548L527.236 369.548L527.235 365.74C527.235 364.895 526.822 364.472 525.995 364.473C525.343 364.473 524.897 364.75 524.657 365.305L524.658 369.549L523.664 369.549L523.663 363.737L524.603 363.737ZM536.904 369.546C536.847 369.432 536.8 369.228 536.764 368.934C536.303 369.414 535.751 369.654 535.11 369.654C534.537 369.654 534.066 369.493 533.698 369.171C533.332 368.845 533.15 368.433 533.149 367.936C533.149 367.331 533.378 366.861 533.837 366.528C534.299 366.192 534.947 366.023 535.781 366.023L536.748 366.023L536.748 365.566C536.748 365.219 536.644 364.943 536.436 364.739C536.228 364.532 535.922 364.428 535.517 364.428C535.163 364.428 534.866 364.518 534.626 364.697C534.386 364.876 534.266 365.092 534.266 365.347L533.267 365.347C533.267 365.057 533.369 364.777 533.573 364.509C533.781 364.237 534.06 364.022 534.411 363.864C534.765 363.707 535.154 363.628 535.576 363.628C536.246 363.627 536.771 363.796 537.15 364.132C537.53 364.465 537.727 364.925 537.741 365.512L537.742 368.187C537.742 368.721 537.81 369.145 537.946 369.46L537.946 369.546L536.904 369.546ZM535.255 368.789C535.567 368.789 535.862 368.709 536.141 368.547C536.421 368.386 536.623 368.177 536.748 367.919L536.748 366.726L535.969 366.727C534.752 366.727 534.143 367.083 534.143 367.796C534.143 368.107 534.247 368.351 534.455 368.526C534.662 368.702 534.929 368.789 535.255 368.789ZM540.379 369.546L539.386 369.546L539.385 363.734L540.378 363.734L540.379 369.546ZM539.304 362.193C539.304 362.032 539.352 361.896 539.449 361.785C539.549 361.674 539.696 361.618 539.889 361.618C540.082 361.618 540.229 361.673 540.33 361.784C540.43 361.895 540.48 362.031 540.48 362.193C540.48 362.354 540.43 362.488 540.33 362.595C540.229 362.703 540.083 362.757 539.889 362.757C539.696 362.757 539.549 362.703 539.449 362.596C539.352 362.488 539.304 362.354 539.304 362.193ZM542.913 363.734L542.946 364.464C543.39 363.905 543.97 363.626 544.686 363.626C545.914 363.626 546.534 364.318 546.545 365.704L546.545 369.545L545.552 369.545L545.551 365.699C545.547 365.28 545.451 364.97 545.261 364.77C545.074 364.569 544.783 364.469 544.385 364.469C544.063 364.469 543.78 364.555 543.537 364.727C543.293 364.899 543.103 365.125 542.967 365.404L542.968 369.545L541.974 369.545L541.973 363.734L542.913 363.734Z" fill="white"/>
<circle cx="84.5" cy="366.5" r="9.5" fill="#4000C7"/>
<circle cx="84.5" cy="212.5" r="9.5" fill="#4000C7"/>
<circle cx="84.5" cy="91.5" r="9.5" fill="#4000C7"/>
<circle cx="165.5" cy="366.5" r="9.5" fill="#4000C7"/>
<circle cx="165.5" cy="212.5" r="9.5" fill="#4000C7"/>
<circle cx="247.5" cy="212.5" r="9.5" fill="#4000C7"/>
<circle cx="247.5" cy="366.5" r="9.5" fill="#4000C7"/>
<circle cx="406.5" cy="366.5" r="9.5" fill="#4000C7"/>
<circle cx="487.5" cy="366.5" r="9" fill="white" stroke="#4000C7" stroke-dasharray="2 2"/>
<circle cx="406.5" cy="211.5" r="9.5" fill="#4000C7"/>
<circle cx="327.5" cy="331.5" r="9.5" fill="#4000C7"/>
<circle cx="327.5" cy="176.5" r="9.5" fill="#4000C7"/>
<circle cx="165.5" cy="91.5" r="9.5" fill="#4000C7"/>
<line x1="85" y1="366.5" x2="479" y2="366.5" stroke="#4000C7"/>
<line x1="85" y1="212.5" x2="397" y2="212.5" stroke="#4000C7"/>
<line x1="89" y1="91.5" x2="321" y2="91.5" stroke="#4000C7"/>
<path d="M464.128 463V458.415H463.293V457.717H464.128V457.175C464.128 456.608 464.279 456.171 464.582 455.861C464.885 455.552 465.313 455.397 465.866 455.397C466.075 455.397 466.281 455.425 466.486 455.48L466.438 456.213C466.285 456.184 466.122 456.169 465.949 456.169C465.656 456.169 465.43 456.255 465.271 456.428C465.111 456.597 465.031 456.841 465.031 457.16V457.717H466.159V458.415H465.031V463H464.128ZM466.921 460.31C466.921 459.792 467.022 459.326 467.224 458.913C467.429 458.5 467.712 458.181 468.073 457.956C468.438 457.731 468.853 457.619 469.318 457.619C470.038 457.619 470.619 457.868 471.062 458.366C471.507 458.864 471.73 459.527 471.73 460.354V460.417C471.73 460.931 471.631 461.394 471.433 461.804C471.237 462.211 470.956 462.528 470.588 462.756C470.223 462.984 469.803 463.098 469.328 463.098C468.612 463.098 468.031 462.849 467.585 462.351C467.142 461.853 466.921 461.193 466.921 460.373V460.31ZM467.829 460.417C467.829 461.003 467.964 461.473 468.234 461.828C468.508 462.183 468.872 462.36 469.328 462.36C469.787 462.36 470.152 462.181 470.422 461.823C470.692 461.462 470.827 460.957 470.827 460.31C470.827 459.73 470.689 459.261 470.412 458.903C470.139 458.542 469.774 458.361 469.318 458.361C468.872 458.361 468.513 458.539 468.239 458.894C467.966 459.248 467.829 459.756 467.829 460.417ZM472.624 460.31C472.624 459.792 472.725 459.326 472.927 458.913C473.132 458.5 473.415 458.181 473.776 457.956C474.141 457.731 474.556 457.619 475.021 457.619C475.741 457.619 476.322 457.868 476.765 458.366C477.211 458.864 477.434 459.527 477.434 460.354V460.417C477.434 460.931 477.334 461.394 477.136 461.804C476.94 462.211 476.659 462.528 476.291 462.756C475.926 462.984 475.507 463.098 475.031 463.098C474.315 463.098 473.734 462.849 473.288 462.351C472.845 461.853 472.624 461.193 472.624 460.373V460.31ZM473.532 460.417C473.532 461.003 473.667 461.473 473.938 461.828C474.211 462.183 474.576 462.36 475.031 462.36C475.49 462.36 475.855 462.181 476.125 461.823C476.395 461.462 476.53 460.957 476.53 460.31C476.53 459.73 476.392 459.261 476.115 458.903C475.842 458.542 475.477 458.361 475.021 458.361C474.576 458.361 474.216 458.539 473.942 458.894C473.669 459.248 473.532 459.756 473.532 460.417ZM479.792 456.438V457.717H480.778V458.415H479.792V461.691C479.792 461.903 479.836 462.062 479.924 462.17C480.012 462.274 480.161 462.326 480.373 462.326C480.477 462.326 480.62 462.307 480.803 462.268V463C480.565 463.065 480.334 463.098 480.109 463.098C479.706 463.098 479.401 462.976 479.196 462.731C478.991 462.487 478.889 462.141 478.889 461.691V458.415H477.927V457.717H478.889V456.438H479.792ZM484.03 463.098C483.314 463.098 482.731 462.863 482.282 462.395C481.833 461.923 481.608 461.293 481.608 460.505V460.339C481.608 459.815 481.708 459.348 481.906 458.938C482.108 458.524 482.388 458.202 482.746 457.971C483.107 457.736 483.498 457.619 483.918 457.619C484.605 457.619 485.139 457.845 485.52 458.298C485.9 458.75 486.091 459.398 486.091 460.241V460.617H482.512C482.525 461.138 482.676 461.56 482.966 461.882C483.259 462.201 483.63 462.36 484.079 462.36C484.398 462.36 484.668 462.295 484.89 462.165C485.111 462.035 485.305 461.862 485.471 461.647L486.022 462.077C485.58 462.757 484.916 463.098 484.03 463.098ZM483.918 458.361C483.553 458.361 483.247 458.495 483 458.762C482.753 459.025 482.6 459.396 482.541 459.875H485.188V459.807C485.161 459.348 485.038 458.993 484.816 458.742C484.595 458.488 484.296 458.361 483.918 458.361ZM489.694 458.527C489.558 458.505 489.41 458.493 489.25 458.493C488.658 458.493 488.256 458.745 488.044 459.25V463H487.141V457.717H488.02L488.034 458.327C488.33 457.855 488.75 457.619 489.294 457.619C489.47 457.619 489.603 457.642 489.694 457.688V458.527ZM489.943 462.526C489.943 462.37 489.989 462.24 490.08 462.136C490.174 462.032 490.314 461.979 490.5 461.979C490.686 461.979 490.826 462.032 490.92 462.136C491.018 462.24 491.066 462.37 491.066 462.526C491.066 462.676 491.018 462.801 490.92 462.902C490.826 463.003 490.686 463.054 490.5 463.054C490.314 463.054 490.174 463.003 490.08 462.902C489.989 462.801 489.943 462.676 489.943 462.526ZM493.464 458.356C493.864 457.865 494.385 457.619 495.026 457.619C496.143 457.619 496.706 458.249 496.716 459.509V463H495.812V459.504C495.809 459.123 495.721 458.841 495.549 458.659C495.38 458.477 495.114 458.386 494.753 458.386C494.46 458.386 494.203 458.464 493.981 458.62C493.76 458.776 493.588 458.981 493.464 459.235V463H492.561V455.5H493.464V458.356ZM499.294 456.438V457.717H500.28V458.415H499.294V461.691C499.294 461.903 499.338 462.062 499.426 462.17C499.514 462.274 499.663 462.326 499.875 462.326C499.979 462.326 500.122 462.307 500.305 462.268V463C500.067 463.065 499.836 463.098 499.611 463.098C499.208 463.098 498.903 462.976 498.698 462.731C498.493 462.487 498.391 462.141 498.391 461.691V458.415H497.429V457.717H498.391V456.438H499.294ZM502.189 457.717L502.214 458.303C502.601 457.847 503.124 457.619 503.781 457.619C504.52 457.619 505.023 457.902 505.29 458.469C505.466 458.215 505.694 458.01 505.974 457.854C506.257 457.697 506.59 457.619 506.975 457.619C508.133 457.619 508.723 458.233 508.742 459.46V463H507.839V459.514C507.839 459.136 507.753 458.854 507.58 458.669C507.408 458.48 507.118 458.386 506.711 458.386C506.376 458.386 506.097 458.487 505.876 458.688C505.655 458.887 505.526 459.156 505.49 459.494V463H504.582V459.538C504.582 458.77 504.206 458.386 503.454 458.386C502.862 458.386 502.456 458.638 502.238 459.143V463H501.335V457.717H502.189ZM511.091 463H510.188V455.5H511.091V463Z" fill="#4000C7"/>
<path d="M497.746 433.016L491.938 427.252C491.776 427.091 491.558 427 491.328 427H479.864C479.386 427 479 427.383 479 427.857V450.143C479 450.617 479.386 451 479.864 451H497.136C497.614 451 498 450.617 498 450.143V433.624C498 433.396 497.908 433.177 497.746 433.016ZM496.008 434.018H490.929V428.977L496.008 434.018ZM496.057 449.071H480.943V428.929H489.094V434.714C489.094 435.013 489.213 435.299 489.426 435.51C489.638 435.721 489.927 435.839 490.227 435.839H496.057V449.071ZM488.284 441.839H483.318C483.199 441.839 483.102 441.936 483.102 442.054V443.339C483.102 443.457 483.199 443.554 483.318 443.554H488.284C488.403 443.554 488.5 443.457 488.5 443.339V442.054C488.5 441.936 488.403 441.839 488.284 441.839ZM483.102 438.411V439.696C483.102 439.814 483.199 439.911 483.318 439.911H493.682C493.801 439.911 493.898 439.814 493.898 439.696V438.411C493.898 438.293 493.801 438.196 493.682 438.196H483.318C483.199 438.196 483.102 438.293 483.102 438.411Z" fill="#4000C7"/>
<path d="M312.048 65H311.14V58.9795L309.318 59.6484V58.8281L311.906 57.8564H312.048V65ZM314.567 62.3145C314.567 61.5039 314.759 60.8529 315.144 60.3613C315.528 59.8665 316.031 59.6191 316.652 59.6191C317.271 59.6191 317.761 59.8307 318.122 60.2539V57.5H319.025V65H318.195L318.151 64.4336C317.79 64.8763 317.287 65.0977 316.643 65.0977C316.031 65.0977 315.531 64.847 315.144 64.3457C314.759 63.8444 314.567 63.1901 314.567 62.3828V62.3145ZM315.471 62.417C315.471 63.016 315.594 63.4847 315.842 63.8232C316.089 64.1618 316.431 64.3311 316.867 64.3311C317.44 64.3311 317.858 64.0739 318.122 63.5596V61.1328C317.852 60.6348 317.437 60.3857 316.877 60.3857C316.434 60.3857 316.089 60.5566 315.842 60.8984C315.594 61.2402 315.471 61.7464 315.471 62.417ZM322.624 65.0977C321.908 65.0977 321.325 64.8633 320.876 64.3945C320.427 63.9225 320.202 63.2926 320.202 62.5049V62.3389C320.202 61.8148 320.301 61.3477 320.5 60.9375C320.702 60.5241 320.982 60.2018 321.34 59.9707C321.701 59.7363 322.092 59.6191 322.512 59.6191C323.199 59.6191 323.732 59.8454 324.113 60.2979C324.494 60.7503 324.685 61.3981 324.685 62.2412V62.6172H321.105C321.118 63.138 321.27 63.5596 321.56 63.8818C321.853 64.2008 322.224 64.3604 322.673 64.3604C322.992 64.3604 323.262 64.2952 323.483 64.165C323.705 64.0348 323.898 63.8623 324.064 63.6475L324.616 64.0771C324.174 64.7575 323.509 65.0977 322.624 65.0977ZM322.512 60.3613C322.147 60.3613 321.841 60.4948 321.594 60.7617C321.346 61.0254 321.193 61.3965 321.135 61.875H323.781V61.8066C323.755 61.3477 323.632 60.9928 323.41 60.7422C323.189 60.4883 322.889 60.3613 322.512 60.3613ZM329.953 59.7461C329.953 60.1009 329.859 60.4167 329.67 60.6934C329.484 60.9701 329.232 61.1865 328.913 61.3428C329.284 61.5023 329.577 61.735 329.792 62.041C330.01 62.347 330.119 62.6937 330.119 63.0811C330.119 63.6963 329.911 64.1862 329.494 64.5508C329.081 64.9154 328.535 65.0977 327.858 65.0977C327.175 65.0977 326.626 64.9154 326.213 64.5508C325.803 64.1829 325.598 63.693 325.598 63.0811C325.598 62.6969 325.702 62.3503 325.91 62.041C326.122 61.7318 326.413 61.4974 326.784 61.3379C326.468 61.1816 326.219 60.9652 326.037 60.6885C325.855 60.4118 325.764 60.0977 325.764 59.7461C325.764 59.1471 325.956 58.6719 326.34 58.3203C326.724 57.9688 327.23 57.793 327.858 57.793C328.483 57.793 328.988 57.9688 329.372 58.3203C329.759 58.6719 329.953 59.1471 329.953 59.7461ZM329.216 63.0615C329.216 62.6644 329.089 62.3405 328.835 62.0898C328.584 61.8392 328.256 61.7139 327.849 61.7139C327.442 61.7139 327.115 61.8376 326.867 62.085C326.623 62.3324 326.501 62.6579 326.501 63.0615C326.501 63.4652 326.62 63.7826 326.857 64.0137C327.098 64.2448 327.432 64.3604 327.858 64.3604C328.282 64.3604 328.614 64.2448 328.854 64.0137C329.095 63.7793 329.216 63.4619 329.216 63.0615ZM327.858 58.5352C327.504 58.5352 327.215 58.6458 326.994 58.8672C326.776 59.0853 326.667 59.3831 326.667 59.7607C326.667 60.1221 326.774 60.415 326.989 60.6396C327.207 60.861 327.497 60.9717 327.858 60.9717C328.22 60.9717 328.508 60.861 328.723 60.6396C328.941 60.415 329.05 60.1221 329.05 59.7607C329.05 59.3994 328.938 59.1048 328.713 58.877C328.488 58.6491 328.203 58.5352 327.858 58.5352ZM335.847 58.3984L332.902 65H331.955L334.89 58.6328H331.042V57.8906H335.847V58.3984ZM341.53 65H336.872V64.3506L339.333 61.6162C339.698 61.2028 339.948 60.8675 340.085 60.6104C340.225 60.3499 340.295 60.0814 340.295 59.8047C340.295 59.4336 340.183 59.1292 339.958 58.8916C339.733 58.654 339.434 58.5352 339.06 58.5352C338.61 58.5352 338.26 58.6637 338.01 58.9209C337.762 59.1748 337.639 59.5296 337.639 59.9854H336.735C336.735 59.3311 336.945 58.8021 337.365 58.3984C337.788 57.9948 338.353 57.793 339.06 57.793C339.72 57.793 340.243 57.9671 340.627 58.3154C341.011 58.6605 341.203 59.1211 341.203 59.6973C341.203 60.3971 340.757 61.2305 339.865 62.1973L337.961 64.2627H341.53V65ZM347.053 62.417C347.053 63.2243 346.867 63.8737 346.496 64.3652C346.125 64.8535 345.627 65.0977 345.002 65.0977C344.335 65.0977 343.819 64.8617 343.454 64.3896L343.41 65H342.58V57.5H343.483V60.2979C343.848 59.8454 344.351 59.6191 344.992 59.6191C345.633 59.6191 346.136 59.8617 346.501 60.3467C346.869 60.8317 347.053 61.4958 347.053 62.3389V62.417ZM346.149 62.3145C346.149 61.6992 346.031 61.224 345.793 60.8887C345.555 60.5534 345.214 60.3857 344.768 60.3857C344.172 60.3857 343.744 60.6624 343.483 61.2158V63.501C343.76 64.0544 344.191 64.3311 344.777 64.3311C345.21 64.3311 345.547 64.1634 345.788 63.8281C346.029 63.4928 346.149 62.9883 346.149 62.3145ZM313.291 70.31H311.481V69H310.671V70.31H308.881V70.97H313.291V70.31ZM311.081 74.99C310.401 74.99 309.921 74.42 309.921 73.63C309.921 72.84 310.401 72.27 311.081 72.27C311.741 72.27 312.231 72.84 312.231 73.63C312.231 74.42 311.741 74.99 311.081 74.99ZM311.081 71.58C309.991 71.58 309.201 72.42 309.201 73.63C309.201 74.84 309.991 75.68 311.081 75.68C312.161 75.68 312.951 74.84 312.951 73.63C312.951 72.42 312.161 71.58 311.081 71.58ZM314.041 72.23H313.041V72.92H314.041V77.29H314.821V68.97H314.041V72.23ZM315.731 68.77V77.74H316.511V68.77H315.731ZM319.361 70.3H322.621V69.62H318.541V75.54H319.231C320.931 75.54 322.011 75.48 323.311 75.24L323.211 74.56C322.001 74.79 320.951 74.85 319.361 74.85V70.3ZM324.661 68.77V72.02H322.091V72.7H324.661V77.76H325.481V68.77H324.661ZM330.58 73.51C331.97 73.3 333.26 72.61 333.83 71.64C334.4 72.61 335.68 73.3 337.07 73.51L337.36 72.85C335.76 72.63 334.24 71.64 334.24 70.54H337.1V69.88H334.24V68.77H333.42V69.88H330.56V70.54H333.41C333.41 71.65 331.9 72.63 330.28 72.85L330.58 73.51ZM337.89 74.19H329.78V74.86H333.42V77.75H334.24V74.86H337.89V74.19ZM339.449 69.73V70.41H342.739C342.549 72.53 341.319 74.25 339.029 75.4L339.479 76.04C342.379 74.59 343.549 72.28 343.549 69.73H339.449ZM347.309 72.41H345.869V68.77H345.049V77.74H345.869V73.09H347.309V72.41Z" fill="black"/>
<circle cx="327.5" cy="91.5" r="9.5" fill="#4000C7"/>
</svg>
