<svg width="1152" height="587" viewBox="0 0 1152 587" fill="none" xmlns="http://www.w3.org/2000/svg">
<path d="M0 0H1152V587H0V0Z" fill="white" fill-opacity="0.01"/>
<circle cx="139.5" cy="70.5" r="9.5" fill="#4000C7"/>
<circle cx="139.5" cy="348.5" r="9.5" fill="#4000C7"/>
<circle cx="139.5" cy="182.5" r="9.5" fill="#4000C7"/>
<path d="M288.735 314.398L285.791 321H284.844L287.778 314.633H283.931V313.891H288.735V314.398ZM289.634 318.314C289.634 317.504 289.826 316.853 290.21 316.361C290.594 315.867 291.097 315.619 291.719 315.619C292.337 315.619 292.827 315.831 293.188 316.254V313.5H294.092V321H293.262L293.218 320.434C292.856 320.876 292.354 321.098 291.709 321.098C291.097 321.098 290.597 320.847 290.21 320.346C289.826 319.844 289.634 319.19 289.634 318.383V318.314ZM290.537 318.417C290.537 319.016 290.661 319.485 290.908 319.823C291.156 320.162 291.497 320.331 291.934 320.331C292.507 320.331 292.925 320.074 293.188 319.56V317.133C292.918 316.635 292.503 316.386 291.943 316.386C291.501 316.386 291.156 316.557 290.908 316.898C290.661 317.24 290.537 317.746 290.537 318.417ZM295.283 318.314C295.283 317.491 295.474 316.837 295.854 316.352C296.235 315.863 296.74 315.619 297.368 315.619C298.013 315.619 298.516 315.847 298.877 316.303L298.921 315.717H299.746V320.873C299.746 321.557 299.543 322.095 299.136 322.489C298.732 322.883 298.188 323.08 297.505 323.08C297.124 323.08 296.751 322.999 296.387 322.836C296.022 322.673 295.744 322.45 295.552 322.167L296.021 321.625C296.408 322.104 296.882 322.343 297.441 322.343C297.881 322.343 298.223 322.219 298.467 321.972C298.714 321.724 298.838 321.376 298.838 320.927V320.473C298.477 320.889 297.983 321.098 297.358 321.098C296.74 321.098 296.239 320.849 295.854 320.351C295.474 319.853 295.283 319.174 295.283 318.314ZM296.191 318.417C296.191 319.013 296.313 319.481 296.558 319.823C296.802 320.162 297.144 320.331 297.583 320.331C298.153 320.331 298.571 320.072 298.838 319.555V317.143C298.561 316.638 298.146 316.386 297.593 316.386C297.153 316.386 296.81 316.557 296.562 316.898C296.315 317.24 296.191 317.746 296.191 318.417ZM302.588 318.554L302.021 319.145V321H301.118V313.5H302.021V318.036L302.505 317.455L304.15 315.717H305.249L303.193 317.924L305.488 321H304.429L302.588 318.554ZM309.443 321C309.391 320.896 309.349 320.71 309.316 320.443C308.896 320.88 308.395 321.098 307.812 321.098C307.292 321.098 306.864 320.951 306.528 320.658C306.196 320.362 306.03 319.988 306.03 319.535C306.03 318.985 306.239 318.559 306.655 318.256C307.075 317.95 307.664 317.797 308.423 317.797H309.302V317.382C309.302 317.066 309.207 316.815 309.019 316.63C308.83 316.441 308.551 316.347 308.184 316.347C307.861 316.347 307.591 316.428 307.373 316.591C307.155 316.754 307.046 316.951 307.046 317.182H306.138C306.138 316.918 306.23 316.664 306.416 316.42C306.605 316.173 306.859 315.977 307.178 315.834C307.5 315.691 307.853 315.619 308.237 315.619C308.846 315.619 309.323 315.772 309.668 316.078C310.013 316.381 310.192 316.799 310.205 317.333V319.765C310.205 320.25 310.267 320.635 310.391 320.922V321H309.443ZM307.944 320.312C308.228 320.312 308.496 320.238 308.75 320.092C309.004 319.945 309.188 319.755 309.302 319.521V318.437H308.594C307.487 318.437 306.934 318.76 306.934 319.408C306.934 319.691 307.028 319.913 307.217 320.072C307.406 320.232 307.648 320.312 307.944 320.312ZM312.524 316.356C312.925 315.865 313.446 315.619 314.087 315.619C315.203 315.619 315.767 316.249 315.776 317.509V321H314.873V317.504C314.87 317.123 314.782 316.841 314.609 316.659C314.44 316.477 314.175 316.386 313.813 316.386C313.521 316.386 313.263 316.464 313.042 316.62C312.821 316.776 312.648 316.981 312.524 317.235V321H311.621V313.5H312.524V316.356ZM281.621 328.73C283.101 328.57 284.401 328.04 284.951 327.16C285.491 328.04 286.801 328.57 288.281 328.73L288.531 328.09C286.851 327.95 285.491 327.27 285.401 326.3H288.171V325.65H285.361V324.74H284.541V325.65H281.731V326.3H284.491C284.401 327.27 283.041 327.95 281.371 328.09L281.621 328.73ZM287.181 332.24C287.181 332.8 286.361 333.11 284.941 333.11C283.521 333.11 282.701 332.8 282.701 332.24C282.701 331.69 283.521 331.37 284.941 331.37C286.361 331.37 287.181 331.69 287.181 332.24ZM289.001 329.86V329.2H280.891V329.86H284.541V330.76C282.851 330.83 281.871 331.35 281.871 332.24C281.871 333.21 283.011 333.73 284.951 333.73C286.871 333.73 288.011 333.21 288.011 332.24C288.011 331.35 287.031 330.83 285.351 330.76V329.86H289.001ZM291.891 332.1H297.161V330.08H291.061V330.71H296.351V331.5H291.091V333.63H297.431V333H291.891V332.1ZM294.561 328.67V327.82H297.241V327.16H291.991V325.77H297.151V325.11H291.171V327.82H293.741V328.67H290.081V329.33H298.201V328.67H294.561ZM309.49 328.19C307.86 327.95 306.26 326.84 306.26 325.59V325.09H305.4V325.59C305.4 326.87 303.82 327.95 302.19 328.19L302.52 328.85C303.92 328.61 305.27 327.84 305.83 326.75C306.41 327.83 307.76 328.61 309.15 328.85L309.49 328.19ZM309.88 329.82H301.78V330.5H305.4V333.75H306.22V330.5H309.89L309.88 329.82ZM315.759 327.1V327.77H317.529V330.12H318.359V324.78H317.529V327.1H315.759ZM316.259 329.14C314.959 328.68 314.079 327.55 314.079 326.4V326.09H316.049V325.43H311.259V326.09H313.259V326.4C313.259 327.69 312.339 328.9 310.999 329.39L311.429 330.04C312.479 329.64 313.309 328.8 313.689 327.76C314.079 328.68 314.849 329.42 315.849 329.78L316.259 329.14ZM315.399 333.1C314.049 333.1 313.229 332.72 313.229 332.07C313.229 331.42 314.049 331.03 315.399 331.03C316.749 331.03 317.569 331.42 317.569 332.07C317.569 332.72 316.749 333.1 315.399 333.1ZM315.399 330.4C313.559 330.4 312.409 331.01 312.409 332.07C312.409 333.13 313.559 333.74 315.399 333.74C317.239 333.74 318.389 333.13 318.389 332.07C318.389 331.01 317.239 330.4 315.399 330.4Z" fill="black"/>
<path d="M302.354 363.646C302.158 363.451 301.842 363.451 301.646 363.646L298.464 366.828C298.269 367.024 298.269 367.34 298.464 367.536C298.66 367.731 298.976 367.731 299.172 367.536L302 364.707L304.828 367.536C305.024 367.731 305.34 367.731 305.536 367.536C305.731 367.34 305.731 367.024 305.536 366.828L302.354 363.646ZM302.5 431L302.5 364L301.5 364L301.5 431L302.5 431Z" fill="#4000C7"/>
<path d="M283.665 474H282.762V468.717H283.665V474ZM282.688 467.315C282.688 467.169 282.732 467.045 282.82 466.944C282.911 466.843 283.045 466.793 283.221 466.793C283.396 466.793 283.53 466.843 283.621 466.944C283.712 467.045 283.758 467.169 283.758 467.315C283.758 467.462 283.712 467.584 283.621 467.682C283.53 467.779 283.396 467.828 283.221 467.828C283.045 467.828 282.911 467.779 282.82 467.682C282.732 467.584 282.688 467.462 282.688 467.315ZM285.97 468.717L285.999 469.381C286.403 468.873 286.93 468.619 287.581 468.619C288.698 468.619 289.261 469.249 289.271 470.509V474H288.367V470.504C288.364 470.123 288.276 469.841 288.104 469.659C287.934 469.477 287.669 469.386 287.308 469.386C287.015 469.386 286.757 469.464 286.536 469.62C286.315 469.776 286.142 469.981 286.019 470.235V474H285.115V468.717H285.97ZM290.413 471.314C290.413 470.504 290.605 469.853 290.989 469.361C291.373 468.867 291.876 468.619 292.498 468.619C293.117 468.619 293.606 468.831 293.968 469.254V466.5H294.871V474H294.041L293.997 473.434C293.636 473.876 293.133 474.098 292.488 474.098C291.876 474.098 291.377 473.847 290.989 473.346C290.605 472.844 290.413 472.19 290.413 471.383V471.314ZM291.316 471.417C291.316 472.016 291.44 472.485 291.688 472.823C291.935 473.162 292.277 473.331 292.713 473.331C293.286 473.331 293.704 473.074 293.968 472.56V470.133C293.698 469.635 293.283 469.386 292.723 469.386C292.28 469.386 291.935 469.557 291.688 469.898C291.44 470.24 291.316 470.746 291.316 471.417ZM298.47 474.098C297.754 474.098 297.171 473.863 296.722 473.395C296.272 472.923 296.048 472.293 296.048 471.505V471.339C296.048 470.815 296.147 470.348 296.346 469.938C296.548 469.524 296.827 469.202 297.186 468.971C297.547 468.736 297.938 468.619 298.357 468.619C299.044 468.619 299.578 468.845 299.959 469.298C300.34 469.75 300.53 470.398 300.53 471.241V471.617H296.951C296.964 472.138 297.116 472.56 297.405 472.882C297.698 473.201 298.069 473.36 298.519 473.36C298.838 473.36 299.108 473.295 299.329 473.165C299.55 473.035 299.744 472.862 299.91 472.647L300.462 473.077C300.019 473.757 299.355 474.098 298.47 474.098ZM298.357 469.361C297.993 469.361 297.687 469.495 297.439 469.762C297.192 470.025 297.039 470.396 296.98 470.875H299.627V470.807C299.601 470.348 299.477 469.993 299.256 469.742C299.035 469.488 298.735 469.361 298.357 469.361ZM303.353 470.646L304.524 468.717H305.579L303.851 471.329L305.633 474H304.588L303.367 472.022L302.146 474H301.097L302.879 471.329L301.15 468.717H302.195L303.353 470.646ZM306.561 473.526C306.561 473.37 306.606 473.24 306.697 473.136C306.792 473.032 306.932 472.979 307.117 472.979C307.303 472.979 307.443 473.032 307.537 473.136C307.635 473.24 307.684 473.37 307.684 473.526C307.684 473.676 307.635 473.801 307.537 473.902C307.443 474.003 307.303 474.054 307.117 474.054C306.932 474.054 306.792 474.003 306.697 473.902C306.606 473.801 306.561 473.676 306.561 473.526ZM310.11 468.717V474.61C310.11 475.626 309.65 476.134 308.729 476.134C308.53 476.134 308.346 476.104 308.177 476.046V475.323C308.281 475.349 308.418 475.362 308.587 475.362C308.789 475.362 308.942 475.307 309.046 475.196C309.153 475.089 309.207 474.9 309.207 474.63V468.717H310.11ZM309.114 467.315C309.114 467.172 309.158 467.05 309.246 466.949C309.337 466.845 309.469 466.793 309.642 466.793C309.817 466.793 309.951 466.843 310.042 466.944C310.133 467.045 310.179 467.169 310.179 467.315C310.179 467.462 310.133 467.584 310.042 467.682C309.951 467.779 309.817 467.828 309.642 467.828C309.466 467.828 309.334 467.779 309.246 467.682C309.158 467.584 309.114 467.462 309.114 467.315ZM314.646 472.599C314.646 472.354 314.554 472.166 314.368 472.032C314.186 471.896 313.865 471.778 313.406 471.681C312.951 471.583 312.588 471.466 312.317 471.329C312.05 471.192 311.852 471.03 311.722 470.841C311.595 470.652 311.531 470.427 311.531 470.167C311.531 469.734 311.714 469.368 312.078 469.068C312.446 468.769 312.915 468.619 313.484 468.619C314.083 468.619 314.568 468.774 314.939 469.083C315.314 469.392 315.501 469.788 315.501 470.27H314.593C314.593 470.022 314.487 469.809 314.275 469.63C314.067 469.451 313.803 469.361 313.484 469.361C313.156 469.361 312.898 469.433 312.713 469.576C312.527 469.719 312.435 469.907 312.435 470.138C312.435 470.356 312.521 470.52 312.693 470.631C312.866 470.742 313.177 470.847 313.626 470.948C314.078 471.049 314.445 471.17 314.725 471.31C315.005 471.45 315.211 471.619 315.345 471.817C315.481 472.013 315.55 472.252 315.55 472.535C315.55 473.007 315.361 473.386 314.983 473.673C314.606 473.956 314.116 474.098 313.514 474.098C313.09 474.098 312.716 474.023 312.391 473.873C312.065 473.723 311.81 473.515 311.624 473.248C311.442 472.978 311.351 472.687 311.351 472.374H312.254C312.27 472.677 312.391 472.918 312.615 473.097C312.843 473.272 313.143 473.36 313.514 473.36C313.855 473.36 314.129 473.292 314.334 473.155C314.542 473.015 314.646 472.83 314.646 472.599Z" fill="#4000C7"/>
<path d="M308.746 444.016L302.938 438.252C302.776 438.091 302.558 438 302.328 438H290.864C290.386 438 290 438.383 290 438.857V461.143C290 461.617 290.386 462 290.864 462H308.136C308.614 462 309 461.617 309 461.143V444.624C309 444.396 308.908 444.177 308.746 444.016ZM307.008 445.018H301.929V439.977L307.008 445.018ZM307.057 460.071H291.943V439.929H300.094V445.714C300.094 446.013 300.213 446.299 300.426 446.51C300.638 446.721 300.927 446.839 301.227 446.839H307.057V460.071ZM299.284 452.839H294.318C294.199 452.839 294.102 452.936 294.102 453.054V454.339C294.102 454.457 294.199 454.554 294.318 454.554H299.284C299.403 454.554 299.5 454.457 299.5 454.339V453.054C299.5 452.936 299.403 452.839 299.284 452.839ZM294.102 449.411V450.696C294.102 450.814 294.199 450.911 294.318 450.911H304.682C304.801 450.911 304.898 450.814 304.898 450.696V449.411C304.898 449.293 304.801 449.196 304.682 449.196H294.318C294.199 449.196 294.102 449.293 294.102 449.411Z" fill="#4000C7"/>
<circle cx="219.5" cy="348.5" r="9" fill="#4000C7" stroke="#4000C7" stroke-dasharray="2 2"/>
<circle cx="219.5" cy="182.5" r="9.5" fill="#4000C7"/>
<rect x="320.031" y="365.209" width="18" height="41" rx="5" transform="rotate(-64.2277 320.031 365.209)" fill="black"/>
<rect x="238.031" y="199.209" width="18" height="41" rx="5" transform="rotate(-64.2277 238.031 199.209)" fill="black"/>
<path d="M316.739 353.626L325.456 353.988L322.443 360.227L316.739 353.626Z" fill="black"/>
<path d="M234.739 187.626L243.456 187.988L240.443 194.227L234.739 187.626Z" fill="black"/>
<path d="M333.791 359.219L333.535 359.811C334.137 359.545 334.764 359.569 335.415 359.884C336.147 360.237 336.51 360.758 336.503 361.447C336.799 361.279 337.122 361.185 337.475 361.164C337.83 361.145 338.198 361.227 338.578 361.411C339.726 361.965 340.016 362.855 339.449 364.08L337.756 367.586L336.861 367.154L338.528 363.701C338.709 363.327 338.758 363.007 338.676 362.74C338.595 362.471 338.353 362.239 337.95 362.044C337.618 361.884 337.294 361.851 336.978 361.945C336.664 362.036 336.408 362.24 336.211 362.558L334.534 366.031L333.635 365.597L335.29 362.167C335.658 361.406 335.469 360.846 334.724 360.487C334.137 360.203 333.615 360.259 333.158 360.655L331.313 364.476L330.418 364.044L332.945 358.81L333.791 359.219ZM342.341 369.8C342.339 369.672 342.386 369.468 342.481 369.188C341.857 369.419 341.256 369.396 340.679 369.117C340.163 368.868 339.809 368.518 339.617 368.068C339.43 367.615 339.444 367.165 339.661 366.717C339.924 366.172 340.334 365.849 340.892 365.749C341.454 365.646 342.111 365.777 342.862 366.139L343.733 366.56L343.931 366.149C344.082 365.836 344.108 365.542 344.01 365.268C343.913 364.991 343.683 364.764 343.319 364.588C342.999 364.434 342.693 364.386 342.399 364.443C342.105 364.499 341.903 364.642 341.792 364.871L340.893 364.437C341.019 364.176 341.232 363.969 341.533 363.816C341.838 363.661 342.183 363.589 342.567 363.599C342.955 363.612 343.339 363.71 343.72 363.893C344.323 364.184 344.722 364.564 344.917 365.032C345.114 365.497 345.092 365.997 344.849 366.532L343.686 368.941C343.454 369.421 343.331 369.833 343.317 370.176L343.279 370.253L342.341 369.8ZM341.185 368.401C341.466 368.537 341.767 368.593 342.088 368.569C342.41 368.545 342.683 368.445 342.908 368.267L343.427 367.193L342.725 366.855C341.629 366.325 340.926 366.381 340.616 367.023C340.481 367.304 340.468 367.568 340.579 367.816C340.69 368.065 340.892 368.26 341.185 368.401ZM345.47 371.311L344.576 370.879L347.102 365.646L347.997 366.078L345.47 371.311ZM347.7 364.223C347.77 364.078 347.873 363.976 348.008 363.918C348.147 363.862 348.303 363.876 348.477 363.96C348.651 364.044 348.759 364.158 348.801 364.301C348.843 364.445 348.829 364.589 348.759 364.734C348.689 364.879 348.586 364.978 348.449 365.031C348.312 365.085 348.156 365.069 347.982 364.985C347.808 364.901 347.699 364.789 347.655 364.648C347.615 364.51 347.63 364.368 347.7 364.223ZM350.28 367.18L349.992 367.852C350.634 367.542 351.278 367.543 351.923 367.854C353.029 368.388 353.286 369.281 352.693 370.534L351.023 373.992L350.128 373.56L351.8 370.097C351.979 369.718 352.027 369.397 351.943 369.134C351.863 368.873 351.643 368.655 351.285 368.483C350.995 368.343 350.703 368.297 350.409 368.346C350.115 368.395 349.846 368.515 349.602 368.708L347.802 372.437L346.907 372.005L349.434 366.771L350.28 367.18Z" fill="white"/>
<path d="M251.791 193.219L251.535 193.811C252.137 193.545 252.764 193.569 253.415 193.884C254.147 194.237 254.51 194.758 254.503 195.447C254.799 195.279 255.122 195.185 255.475 195.164C255.83 195.145 256.198 195.227 256.578 195.411C257.726 195.965 258.016 196.855 257.449 198.08L255.756 201.586L254.861 201.154L256.528 197.701C256.709 197.327 256.758 197.007 256.676 196.74C256.595 196.471 256.353 196.239 255.95 196.044C255.618 195.884 255.294 195.851 254.978 195.945C254.664 196.036 254.408 196.24 254.211 196.558L252.534 200.031L251.635 199.597L253.29 196.167C253.658 195.406 253.469 194.846 252.724 194.487C252.137 194.203 251.615 194.259 251.158 194.655L249.313 198.476L248.418 198.044L250.945 192.81L251.791 193.219ZM260.341 203.8C260.339 203.672 260.386 203.468 260.481 203.188C259.857 203.419 259.256 203.396 258.679 203.117C258.163 202.868 257.809 202.518 257.617 202.068C257.43 201.615 257.444 201.165 257.661 200.717C257.924 200.172 258.334 199.849 258.892 199.749C259.454 199.646 260.111 199.777 260.862 200.139L261.733 200.56L261.931 200.149C262.082 199.836 262.108 199.542 262.01 199.268C261.913 198.991 261.683 198.764 261.319 198.588C260.999 198.434 260.693 198.386 260.399 198.443C260.105 198.499 259.903 198.642 259.792 198.871L258.893 198.437C259.019 198.176 259.232 197.969 259.533 197.816C259.838 197.661 260.183 197.589 260.567 197.599C260.955 197.612 261.339 197.71 261.72 197.893C262.323 198.184 262.722 198.564 262.917 199.032C263.114 199.497 263.092 199.997 262.849 200.532L261.686 202.941C261.454 203.421 261.331 203.833 261.317 204.176L261.279 204.253L260.341 203.8ZM259.185 202.401C259.466 202.537 259.767 202.593 260.088 202.569C260.41 202.545 260.683 202.445 260.908 202.267L261.427 201.193L260.725 200.855C259.629 200.325 258.926 200.381 258.616 201.023C258.481 201.304 258.468 201.568 258.579 201.816C258.69 202.065 258.892 202.26 259.185 202.401ZM263.47 205.311L262.576 204.879L265.102 199.646L265.997 200.078L263.47 205.311ZM265.7 198.223C265.77 198.078 265.873 197.976 266.008 197.918C266.147 197.862 266.303 197.876 266.477 197.96C266.651 198.044 266.759 198.158 266.801 198.301C266.843 198.445 266.829 198.589 266.759 198.734C266.689 198.879 266.586 198.978 266.449 199.031C266.312 199.085 266.156 199.069 265.982 198.985C265.808 198.901 265.699 198.789 265.655 198.648C265.615 198.51 265.63 198.368 265.7 198.223ZM268.28 201.18L267.992 201.852C268.634 201.542 269.278 201.543 269.923 201.854C271.029 202.388 271.286 203.281 270.693 204.534L269.023 207.992L268.128 207.56L269.8 204.097C269.979 203.718 270.027 203.397 269.943 203.134C269.863 202.873 269.643 202.655 269.285 202.483C268.995 202.343 268.703 202.297 268.409 202.346C268.115 202.395 267.846 202.515 267.602 202.708L265.802 206.437L264.907 206.005L267.434 200.771L268.28 201.18Z" fill="white"/>
<path d="M300.646 301.354C300.842 301.549 301.158 301.549 301.354 301.354L304.536 298.172C304.731 297.976 304.731 297.66 304.536 297.464C304.34 297.269 304.024 297.269 303.828 297.464L301 300.293L298.172 297.464C297.976 297.269 297.66 297.269 297.464 297.464C297.269 297.66 297.269 297.976 297.464 298.172L300.646 301.354ZM300.5 76L300.5 301L301.5 301L301.5 76L300.5 76Z" fill="#4000C7"/>
<rect x="318.031" y="87.2095" width="18" height="41" rx="5" transform="rotate(-64.2277 318.031 87.2095)" fill="black"/>
<path d="M314.739 75.6264L323.675 76.0939L320.662 82.333L314.739 75.6264Z" fill="black"/>
<path d="M331.791 81.219L331.535 81.8111C332.137 81.5449 332.764 81.5691 333.415 81.8836C334.147 82.237 334.51 82.7581 334.503 83.4468C334.799 83.2794 335.122 83.1852 335.475 83.1643C335.83 83.145 336.198 83.2272 336.578 83.4109C337.726 83.9651 338.016 84.8548 337.449 86.0798L335.756 89.5865L334.861 89.1544L336.528 85.7009C336.709 85.3269 336.758 85.0067 336.676 84.7404C336.595 84.4708 336.353 84.2388 335.95 84.0442C335.618 83.8838 335.294 83.8507 334.978 83.9447C334.664 84.0355 334.408 84.2401 334.211 84.5583L332.534 88.0311L331.635 87.5968L333.29 84.1675C333.658 83.4065 333.469 82.8461 332.724 82.4865C332.137 82.2031 331.615 82.2592 331.158 82.6547L329.313 86.4758L328.418 86.0438L330.945 80.8103L331.791 81.219ZM340.341 91.8003C340.339 91.6723 340.386 91.4682 340.481 91.1882C339.857 91.4195 339.256 91.3958 338.679 91.1171C338.163 90.868 337.809 90.5181 337.617 90.0676C337.43 89.6153 337.444 89.1651 337.661 88.7169C337.924 88.172 338.334 87.8492 338.892 87.7486C339.454 87.6463 340.111 87.7766 340.862 88.1393L341.733 88.5597L341.931 88.1485C342.082 87.8358 342.108 87.5423 342.01 87.2682C341.913 86.9909 341.683 86.7643 341.319 86.5883C340.999 86.4342 340.693 86.3856 340.399 86.4425C340.105 86.4994 339.903 86.6424 339.792 86.8713L338.893 86.4369C339.019 86.1757 339.232 85.9686 339.533 85.8155C339.838 85.6607 340.183 85.5887 340.567 85.5994C340.955 85.6116 341.339 85.7096 341.72 85.8933C342.323 86.1845 342.722 86.5641 342.917 87.0323C343.114 87.4972 343.092 87.9971 342.849 88.5322L341.686 90.9409C341.454 91.4214 341.331 91.8331 341.317 92.176L341.279 92.2534L340.341 91.8003ZM339.185 90.4014C339.466 90.5369 339.767 90.5927 340.088 90.5691C340.41 90.5454 340.683 90.4447 340.908 90.2671L341.427 89.1933L340.725 88.8547C339.629 88.3253 338.926 88.3815 338.616 89.0232C338.481 89.3037 338.468 89.5681 338.579 89.8164C338.69 90.0647 338.892 90.2597 339.185 90.4014ZM343.47 93.3113L342.576 92.8793L345.102 87.6458L345.997 88.0779L343.47 93.3113ZM345.7 86.2226C345.77 86.0775 345.873 85.976 346.008 85.9181C346.147 85.8617 346.303 85.8756 346.477 85.9596C346.651 86.0437 346.759 86.1575 346.801 86.3011C346.843 86.4446 346.829 86.589 346.759 86.7341C346.689 86.8792 346.586 86.9783 346.449 87.0314C346.312 87.0846 346.156 87.0691 345.982 86.985C345.808 86.901 345.699 86.7888 345.655 86.6484C345.615 86.5097 345.63 86.3677 345.7 86.2226ZM348.28 89.1801L347.992 89.852C348.634 89.542 349.278 89.5427 349.923 89.8541C351.029 90.3881 351.286 91.2814 350.693 92.5339L349.023 95.9923L348.128 95.5602L349.8 92.0971C349.979 91.7182 350.027 91.3973 349.943 91.1342C349.863 90.8726 349.643 90.6555 349.285 90.4827C348.995 90.3425 348.703 90.2969 348.409 90.3458C348.115 90.3948 347.846 90.5154 347.602 90.7077L345.802 94.4369L344.907 94.0049L347.434 88.7714L348.28 89.1801Z" fill="white"/>
<circle cx="219.5" cy="70.5" r="9.5" fill="#4000C7"/>
<circle cx="300.5" cy="70.5" r="9.5" fill="#4000C7"/>
<line x1="140" y1="70.5" x2="301" y2="70.5" stroke="#4000C7"/>
<line x1="140" y1="348.5" x2="301" y2="348.5" stroke="#4000C7"/>
<line x1="140" y1="182.5" x2="216" y2="182.5" stroke="#4000C7"/>
<circle cx="300.5" cy="349.5" r="9.5" fill="#4000C7"/>
</svg>
