<svg width="1152" height="587" viewBox="0 0 1152 587" fill="none" xmlns="http://www.w3.org/2000/svg">
<path d="M0 0H1152V587H0V0Z" fill="white" fill-opacity="0.01"/>
<path d="M633.252 188H628.594V187.351L631.055 184.616C631.419 184.203 631.67 183.868 631.807 183.61C631.947 183.35 632.017 183.081 632.017 182.805C632.017 182.434 631.904 182.129 631.68 181.892C631.455 181.654 631.156 181.535 630.781 181.535C630.332 181.535 629.982 181.664 629.731 181.921C629.484 182.175 629.36 182.53 629.36 182.985H628.457C628.457 182.331 628.667 181.802 629.087 181.398C629.51 180.995 630.075 180.793 630.781 180.793C631.442 180.793 631.965 180.967 632.349 181.315C632.733 181.66 632.925 182.121 632.925 182.697C632.925 183.397 632.479 184.23 631.587 185.197L629.683 187.263H633.252V188ZM636.494 188.098C635.778 188.098 635.195 187.863 634.746 187.395C634.297 186.923 634.072 186.293 634.072 185.505V185.339C634.072 184.815 634.172 184.348 634.37 183.938C634.572 183.524 634.852 183.202 635.21 182.971C635.571 182.736 635.962 182.619 636.382 182.619C637.069 182.619 637.603 182.845 637.983 183.298C638.364 183.75 638.555 184.398 638.555 185.241V185.617H634.976C634.989 186.138 635.14 186.56 635.43 186.882C635.723 187.201 636.094 187.36 636.543 187.36C636.862 187.36 637.132 187.295 637.354 187.165C637.575 187.035 637.769 186.862 637.935 186.647L638.486 187.077C638.044 187.757 637.38 188.098 636.494 188.098ZM636.382 183.361C636.017 183.361 635.711 183.495 635.464 183.762C635.216 184.025 635.063 184.396 635.005 184.875H637.651V184.807C637.625 184.348 637.502 183.993 637.28 183.742C637.059 183.488 636.759 183.361 636.382 183.361ZM643.057 180.886V181.652H642.891C642.188 181.665 641.628 181.874 641.211 182.277C640.794 182.681 640.553 183.249 640.488 183.981C640.863 183.552 641.374 183.337 642.021 183.337C642.64 183.337 643.133 183.555 643.501 183.991C643.872 184.427 644.058 184.991 644.058 185.681C644.058 186.413 643.857 186.999 643.457 187.438C643.06 187.878 642.526 188.098 641.855 188.098C641.175 188.098 640.623 187.837 640.2 187.316C639.777 186.792 639.565 186.118 639.565 185.295V184.948C639.565 183.64 639.844 182.64 640.4 181.95C640.96 181.257 641.792 180.902 642.896 180.886H643.057ZM641.87 184.089C641.561 184.089 641.276 184.182 641.016 184.367C640.755 184.553 640.575 184.785 640.474 185.065V185.397C640.474 185.983 640.605 186.455 640.869 186.813C641.133 187.172 641.462 187.351 641.855 187.351C642.262 187.351 642.581 187.201 642.812 186.901C643.047 186.602 643.164 186.21 643.164 185.725C643.164 185.236 643.045 184.842 642.808 184.543C642.573 184.24 642.261 184.089 641.87 184.089ZM648.94 185.612H649.927V186.35H648.94V188H648.032V186.35H644.795V185.817L647.979 180.891H648.94V185.612ZM645.82 185.612H648.032V182.126L647.925 182.321L645.82 185.612ZM655.054 182.746C655.054 183.101 654.959 183.417 654.771 183.693C654.585 183.97 654.333 184.187 654.014 184.343C654.385 184.502 654.678 184.735 654.893 185.041C655.111 185.347 655.22 185.694 655.22 186.081C655.22 186.696 655.011 187.186 654.595 187.551C654.181 187.915 653.636 188.098 652.959 188.098C652.275 188.098 651.727 187.915 651.313 187.551C650.903 187.183 650.698 186.693 650.698 186.081C650.698 185.697 650.802 185.35 651.011 185.041C651.222 184.732 651.514 184.497 651.885 184.338C651.569 184.182 651.32 183.965 651.138 183.688C650.955 183.412 650.864 183.098 650.864 182.746C650.864 182.147 651.056 181.672 651.44 181.32C651.825 180.969 652.331 180.793 652.959 180.793C653.584 180.793 654.089 180.969 654.473 181.32C654.86 181.672 655.054 182.147 655.054 182.746ZM654.316 186.062C654.316 185.664 654.189 185.34 653.936 185.09C653.685 184.839 653.356 184.714 652.949 184.714C652.542 184.714 652.215 184.838 651.968 185.085C651.724 185.332 651.602 185.658 651.602 186.062C651.602 186.465 651.72 186.783 651.958 187.014C652.199 187.245 652.533 187.36 652.959 187.36C653.382 187.36 653.714 187.245 653.955 187.014C654.196 186.779 654.316 186.462 654.316 186.062ZM652.959 181.535C652.604 181.535 652.316 181.646 652.095 181.867C651.877 182.085 651.768 182.383 651.768 182.761C651.768 183.122 651.875 183.415 652.09 183.64C652.308 183.861 652.598 183.972 652.959 183.972C653.32 183.972 653.608 183.861 653.823 183.64C654.041 183.415 654.15 183.122 654.15 182.761C654.15 182.399 654.038 182.105 653.813 181.877C653.589 181.649 653.304 181.535 652.959 181.535ZM656.772 184.436L657.134 180.891H660.776V181.726H657.9L657.686 183.664C658.034 183.459 658.429 183.356 658.872 183.356C659.52 183.356 660.034 183.571 660.415 184.001C660.796 184.427 660.986 185.005 660.986 185.734C660.986 186.467 660.788 187.045 660.391 187.468C659.997 187.888 659.445 188.098 658.735 188.098C658.107 188.098 657.594 187.924 657.197 187.575C656.8 187.227 656.574 186.745 656.519 186.13H657.373C657.428 186.537 657.573 186.844 657.808 187.053C658.042 187.258 658.351 187.36 658.735 187.36C659.155 187.36 659.484 187.217 659.722 186.931C659.963 186.644 660.083 186.249 660.083 185.744C660.083 185.269 659.953 184.888 659.692 184.602C659.435 184.312 659.092 184.167 658.662 184.167C658.268 184.167 657.959 184.253 657.734 184.426L657.495 184.621L656.772 184.436ZM666.538 185.417C666.538 186.224 666.353 186.874 665.981 187.365C665.61 187.854 665.112 188.098 664.487 188.098C663.82 188.098 663.304 187.862 662.939 187.39L662.896 188H662.065V180.5H662.969V183.298C663.333 182.845 663.836 182.619 664.478 182.619C665.119 182.619 665.622 182.862 665.986 183.347C666.354 183.832 666.538 184.496 666.538 185.339V185.417ZM665.635 185.314C665.635 184.699 665.516 184.224 665.278 183.889C665.041 183.553 664.699 183.386 664.253 183.386C663.657 183.386 663.229 183.662 662.969 184.216V186.501C663.245 187.054 663.677 187.331 664.263 187.331C664.696 187.331 665.033 187.163 665.273 186.828C665.514 186.493 665.635 185.988 665.635 185.314ZM616.562 194.717L616.587 195.303C616.974 194.847 617.497 194.619 618.154 194.619C618.893 194.619 619.396 194.902 619.663 195.469C619.839 195.215 620.067 195.01 620.347 194.854C620.63 194.697 620.964 194.619 621.348 194.619C622.507 194.619 623.096 195.233 623.115 196.46V200H622.212V196.514C622.212 196.136 622.126 195.854 621.953 195.669C621.781 195.48 621.491 195.386 621.084 195.386C620.749 195.386 620.47 195.487 620.249 195.688C620.028 195.887 619.899 196.156 619.863 196.494V200H618.955V196.538C618.955 195.77 618.579 195.386 617.827 195.386C617.235 195.386 616.829 195.638 616.611 196.143V200H615.708V194.717H616.562ZM626.675 200.098C625.959 200.098 625.376 199.863 624.927 199.395C624.478 198.923 624.253 198.293 624.253 197.505V197.339C624.253 196.815 624.352 196.348 624.551 195.938C624.753 195.524 625.033 195.202 625.391 194.971C625.752 194.736 626.143 194.619 626.562 194.619C627.249 194.619 627.783 194.845 628.164 195.298C628.545 195.75 628.735 196.398 628.735 197.241V197.617H625.156C625.169 198.138 625.321 198.56 625.61 198.882C625.903 199.201 626.274 199.36 626.724 199.36C627.043 199.36 627.313 199.295 627.534 199.165C627.756 199.035 627.949 198.862 628.115 198.647L628.667 199.077C628.224 199.757 627.56 200.098 626.675 200.098ZM626.562 195.361C626.198 195.361 625.892 195.495 625.645 195.762C625.397 196.025 625.244 196.396 625.186 196.875H627.832V196.807C627.806 196.348 627.682 195.993 627.461 195.742C627.24 195.488 626.94 195.361 626.562 195.361ZM632.339 195.527C632.202 195.505 632.054 195.493 631.895 195.493C631.302 195.493 630.9 195.745 630.688 196.25V200H629.785V194.717H630.664L630.679 195.327C630.975 194.855 631.395 194.619 631.938 194.619C632.114 194.619 632.248 194.642 632.339 194.688V195.527ZM632.861 197.314C632.861 196.491 633.052 195.837 633.433 195.352C633.813 194.863 634.318 194.619 634.946 194.619C635.591 194.619 636.094 194.847 636.455 195.303L636.499 194.717H637.324V199.873C637.324 200.557 637.121 201.095 636.714 201.489C636.31 201.883 635.767 202.08 635.083 202.08C634.702 202.08 634.329 201.999 633.965 201.836C633.6 201.673 633.322 201.45 633.13 201.167L633.599 200.625C633.986 201.104 634.46 201.343 635.02 201.343C635.459 201.343 635.801 201.219 636.045 200.972C636.292 200.724 636.416 200.376 636.416 199.927V199.473C636.055 199.889 635.562 200.098 634.937 200.098C634.318 200.098 633.817 199.849 633.433 199.351C633.052 198.853 632.861 198.174 632.861 197.314ZM633.77 197.417C633.77 198.013 633.892 198.481 634.136 198.823C634.38 199.162 634.722 199.331 635.161 199.331C635.731 199.331 636.149 199.072 636.416 198.555V196.143C636.139 195.638 635.724 195.386 635.171 195.386C634.731 195.386 634.388 195.557 634.141 195.898C633.893 196.24 633.77 196.746 633.77 197.417ZM640.884 200.098C640.168 200.098 639.585 199.863 639.136 199.395C638.687 198.923 638.462 198.293 638.462 197.505V197.339C638.462 196.815 638.561 196.348 638.76 195.938C638.962 195.524 639.242 195.202 639.6 194.971C639.961 194.736 640.352 194.619 640.771 194.619C641.458 194.619 641.992 194.845 642.373 195.298C642.754 195.75 642.944 196.398 642.944 197.241V197.617H639.365C639.378 198.138 639.53 198.56 639.819 198.882C640.112 199.201 640.483 199.36 640.933 199.36C641.252 199.36 641.522 199.295 641.743 199.165C641.965 199.035 642.158 198.862 642.324 198.647L642.876 199.077C642.433 199.757 641.769 200.098 640.884 200.098ZM640.771 195.361C640.407 195.361 640.101 195.495 639.854 195.762C639.606 196.025 639.453 196.396 639.395 196.875H642.041V196.807C642.015 196.348 641.891 195.993 641.67 195.742C641.449 195.488 641.149 195.361 640.771 195.361ZM648.594 199.36C648.916 199.36 649.198 199.263 649.438 199.067C649.679 198.872 649.813 198.628 649.839 198.335H650.693C650.677 198.638 650.573 198.926 650.381 199.199C650.189 199.473 649.932 199.691 649.609 199.854C649.29 200.016 648.952 200.098 648.594 200.098C647.874 200.098 647.301 199.858 646.875 199.38C646.452 198.898 646.24 198.241 646.24 197.407V197.256C646.24 196.742 646.335 196.284 646.523 195.884C646.712 195.483 646.982 195.173 647.334 194.951C647.689 194.73 648.107 194.619 648.589 194.619C649.181 194.619 649.673 194.797 650.063 195.151C650.457 195.506 650.667 195.967 650.693 196.533H649.839C649.813 196.191 649.683 195.911 649.448 195.693C649.217 195.472 648.931 195.361 648.589 195.361C648.13 195.361 647.773 195.527 647.52 195.859C647.269 196.188 647.144 196.665 647.144 197.29V197.461C647.144 198.07 647.269 198.538 647.52 198.867C647.77 199.196 648.128 199.36 648.594 199.36ZM651.47 197.31C651.47 196.792 651.571 196.326 651.772 195.913C651.978 195.5 652.261 195.181 652.622 194.956C652.987 194.731 653.402 194.619 653.867 194.619C654.587 194.619 655.168 194.868 655.61 195.366C656.056 195.864 656.279 196.527 656.279 197.354V197.417C656.279 197.931 656.18 198.394 655.981 198.804C655.786 199.211 655.505 199.528 655.137 199.756C654.772 199.984 654.352 200.098 653.877 200.098C653.161 200.098 652.58 199.849 652.134 199.351C651.691 198.853 651.47 198.193 651.47 197.373V197.31ZM652.378 197.417C652.378 198.003 652.513 198.473 652.783 198.828C653.057 199.183 653.421 199.36 653.877 199.36C654.336 199.36 654.701 199.181 654.971 198.823C655.241 198.462 655.376 197.957 655.376 197.31C655.376 196.73 655.238 196.261 654.961 195.903C654.688 195.542 654.323 195.361 653.867 195.361C653.421 195.361 653.062 195.539 652.788 195.894C652.515 196.248 652.378 196.756 652.378 197.417ZM658.262 194.717L658.286 195.303C658.674 194.847 659.196 194.619 659.854 194.619C660.592 194.619 661.095 194.902 661.362 195.469C661.538 195.215 661.766 195.01 662.046 194.854C662.329 194.697 662.663 194.619 663.047 194.619C664.206 194.619 664.795 195.233 664.814 196.46V200H663.911V196.514C663.911 196.136 663.825 195.854 663.652 195.669C663.48 195.48 663.19 195.386 662.783 195.386C662.448 195.386 662.17 195.487 661.948 195.688C661.727 195.887 661.598 196.156 661.562 196.494V200H660.654V196.538C660.654 195.77 660.278 195.386 659.526 195.386C658.934 195.386 658.529 195.638 658.311 196.143V200H657.407V194.717H658.262ZM667.031 194.717L667.056 195.303C667.443 194.847 667.965 194.619 668.623 194.619C669.362 194.619 669.865 194.902 670.132 195.469C670.308 195.215 670.535 195.01 670.815 194.854C671.099 194.697 671.432 194.619 671.816 194.619C672.975 194.619 673.564 195.233 673.584 196.46V200H672.681V196.514C672.681 196.136 672.594 195.854 672.422 195.669C672.249 195.48 671.96 195.386 671.553 195.386C671.217 195.386 670.939 195.487 670.718 195.688C670.496 195.887 670.368 196.156 670.332 196.494V200H669.424V196.538C669.424 195.77 669.048 195.386 668.296 195.386C667.703 195.386 667.298 195.638 667.08 196.143V200H666.177V194.717H667.031ZM675.933 200H675.029V194.717H675.933V200ZM674.956 193.315C674.956 193.169 675 193.045 675.088 192.944C675.179 192.843 675.312 192.793 675.488 192.793C675.664 192.793 675.798 192.843 675.889 192.944C675.98 193.045 676.025 193.169 676.025 193.315C676.025 193.462 675.98 193.584 675.889 193.682C675.798 193.779 675.664 193.828 675.488 193.828C675.312 193.828 675.179 193.779 675.088 193.682C675 193.584 674.956 193.462 674.956 193.315ZM678.608 193.438V194.717H679.595V195.415H678.608V198.691C678.608 198.903 678.652 199.062 678.74 199.17C678.828 199.274 678.978 199.326 679.189 199.326C679.294 199.326 679.437 199.307 679.619 199.268V200C679.382 200.065 679.15 200.098 678.926 200.098C678.522 200.098 678.218 199.976 678.013 199.731C677.808 199.487 677.705 199.141 677.705 198.691V195.415H676.743V194.717H677.705V193.438H678.608Z" fill="black"/>
<path d="M552.874 144.886V145.652H552.708C552.005 145.665 551.445 145.874 551.028 146.277C550.612 146.681 550.371 147.249 550.306 147.981C550.68 147.552 551.191 147.337 551.839 147.337C552.457 147.337 552.951 147.555 553.318 147.991C553.689 148.427 553.875 148.991 553.875 149.681C553.875 150.413 553.675 150.999 553.274 151.438C552.877 151.878 552.343 152.098 551.673 152.098C550.993 152.098 550.441 151.837 550.018 151.316C549.594 150.792 549.383 150.118 549.383 149.295V148.948C549.383 147.64 549.661 146.64 550.218 145.95C550.778 145.257 551.609 144.902 552.713 144.886H552.874ZM551.688 148.089C551.378 148.089 551.093 148.182 550.833 148.367C550.573 148.553 550.392 148.785 550.291 149.065V149.397C550.291 149.983 550.423 150.455 550.687 150.813C550.95 151.172 551.279 151.351 551.673 151.351C552.08 151.351 552.399 151.201 552.63 150.901C552.864 150.602 552.981 150.21 552.981 149.725C552.981 149.236 552.863 148.842 552.625 148.543C552.391 148.24 552.078 148.089 551.688 148.089ZM555.481 152V147.415H554.646V146.717H555.481V146.175C555.481 145.608 555.633 145.171 555.936 144.861C556.238 144.552 556.666 144.397 557.22 144.397C557.428 144.397 557.635 144.425 557.84 144.48L557.791 145.213C557.638 145.184 557.475 145.169 557.303 145.169C557.01 145.169 556.784 145.255 556.624 145.428C556.465 145.597 556.385 145.841 556.385 146.16V146.717H557.513V147.415H556.385V152H555.481ZM560.516 151.36C560.838 151.36 561.119 151.263 561.36 151.067C561.601 150.872 561.735 150.628 561.761 150.335H562.615C562.599 150.638 562.495 150.926 562.303 151.199C562.111 151.473 561.854 151.691 561.531 151.854C561.212 152.016 560.874 152.098 560.516 152.098C559.796 152.098 559.223 151.858 558.797 151.38C558.374 150.898 558.162 150.241 558.162 149.407V149.256C558.162 148.742 558.257 148.284 558.445 147.884C558.634 147.483 558.904 147.173 559.256 146.951C559.611 146.73 560.029 146.619 560.511 146.619C561.103 146.619 561.595 146.797 561.985 147.151C562.379 147.506 562.589 147.967 562.615 148.533H561.761C561.735 148.191 561.604 147.911 561.37 147.693C561.139 147.472 560.853 147.361 560.511 147.361C560.052 147.361 559.695 147.527 559.441 147.859C559.191 148.188 559.065 148.665 559.065 149.29V149.461C559.065 150.07 559.191 150.538 559.441 150.867C559.692 151.196 560.05 151.36 560.516 151.36ZM568.196 152H563.538V151.351L565.999 148.616C566.364 148.203 566.614 147.868 566.751 147.61C566.891 147.35 566.961 147.081 566.961 146.805C566.961 146.434 566.849 146.129 566.624 145.892C566.399 145.654 566.1 145.535 565.726 145.535C565.276 145.535 564.926 145.664 564.676 145.921C564.428 146.175 564.305 146.53 564.305 146.985H563.401C563.401 146.331 563.611 145.802 564.031 145.398C564.454 144.995 565.019 144.793 565.726 144.793C566.386 144.793 566.909 144.967 567.293 145.315C567.677 145.66 567.869 146.121 567.869 146.697C567.869 147.397 567.423 148.23 566.531 149.197L564.627 151.263H568.196V152ZM569.568 148.436L569.93 144.891H573.572V145.726H570.696L570.481 147.664C570.83 147.459 571.225 147.356 571.668 147.356C572.316 147.356 572.83 147.571 573.211 148.001C573.592 148.427 573.782 149.005 573.782 149.734C573.782 150.467 573.584 151.045 573.187 151.468C572.793 151.888 572.241 152.098 571.531 152.098C570.903 152.098 570.39 151.924 569.993 151.575C569.596 151.227 569.37 150.745 569.314 150.13H570.169C570.224 150.537 570.369 150.844 570.604 151.053C570.838 151.258 571.147 151.36 571.531 151.36C571.951 151.36 572.28 151.217 572.518 150.931C572.758 150.644 572.879 150.249 572.879 149.744C572.879 149.269 572.749 148.888 572.488 148.602C572.231 148.312 571.888 148.167 571.458 148.167C571.064 148.167 570.755 148.253 570.53 148.426L570.291 148.621L569.568 148.436ZM578.123 152C578.071 151.896 578.029 151.71 577.996 151.443C577.576 151.88 577.075 152.098 576.492 152.098C575.971 152.098 575.543 151.951 575.208 151.658C574.876 151.362 574.71 150.988 574.71 150.535C574.71 149.985 574.918 149.559 575.335 149.256C575.755 148.95 576.344 148.797 577.103 148.797H577.981V148.382C577.981 148.066 577.887 147.815 577.698 147.63C577.509 147.441 577.231 147.347 576.863 147.347C576.541 147.347 576.271 147.428 576.053 147.591C575.835 147.754 575.726 147.951 575.726 148.182H574.817C574.817 147.918 574.91 147.664 575.096 147.42C575.285 147.173 575.538 146.977 575.857 146.834C576.18 146.691 576.533 146.619 576.917 146.619C577.526 146.619 578.003 146.772 578.348 147.078C578.693 147.381 578.872 147.799 578.885 148.333V150.765C578.885 151.25 578.947 151.635 579.07 151.922V152H578.123ZM576.624 151.312C576.907 151.312 577.176 151.238 577.43 151.092C577.684 150.945 577.868 150.755 577.981 150.521V149.437H577.273C576.167 149.437 575.613 149.76 575.613 150.408C575.613 150.691 575.708 150.913 575.896 151.072C576.085 151.232 576.328 151.312 576.624 151.312ZM580.081 149.314C580.081 148.504 580.273 147.853 580.657 147.361C581.041 146.867 581.544 146.619 582.166 146.619C582.785 146.619 583.274 146.831 583.636 147.254V144.5H584.539V152H583.709L583.665 151.434C583.304 151.876 582.801 152.098 582.156 152.098C581.544 152.098 581.045 151.847 580.657 151.346C580.273 150.844 580.081 150.19 580.081 149.383V149.314ZM580.984 149.417C580.984 150.016 581.108 150.485 581.355 150.823C581.603 151.162 581.945 151.331 582.381 151.331C582.954 151.331 583.372 151.074 583.636 150.56V148.133C583.366 147.635 582.951 147.386 582.391 147.386C581.948 147.386 581.603 147.557 581.355 147.898C581.108 148.24 580.984 148.746 580.984 149.417ZM553.061 159.38H550.831V156.94H553.061V159.38ZM550.011 159.38H548.691V160.05H555.201V159.38H553.881V156.94H555.231V156.27H548.661V156.94H550.011V159.38ZM556.011 161.09H547.881V161.76H551.531V164.74H552.361V161.76H556.011V161.09ZM558.321 159.77H561.261V159.11H558.321V157.26H561.651V156.58H557.501V162.59H558.191C559.901 162.59 560.991 162.54 562.291 162.31L562.201 161.64C560.981 161.86 559.941 161.92 558.321 161.92V159.77ZM563.661 155.76V159.15H561.811V159.83H563.661V164.75H564.481V155.76H563.661ZM575.33 158.08V159.35H573.26V158.08H575.33ZM572.45 160.22H570.03V158.6H572.45V160.22ZM573.26 160.02H575.33V162.41H576.16V155.78H575.33V157.42H573.26V156.37H572.45V157.95H570.03V156.37H569.22V160.88H573.26V160.02ZM571.21 163.87V161.76H570.39V164.54H576.37V163.87H571.21ZM584.529 158.09V159.29H582.179V159.96H584.529V161.14H585.359V155.78H584.529V157.42H582.499C582.559 157.11 582.599 156.78 582.599 156.45H578.549V157.11H581.709C581.559 158.66 580.229 159.85 578.089 160.49L578.419 161.14C580.349 160.58 581.709 159.53 582.289 158.09H584.529ZM582.429 164.06C581.109 164.06 580.269 163.65 580.269 162.97C580.269 162.3 581.109 161.89 582.429 161.89C583.749 161.89 584.589 162.3 584.589 162.97C584.589 163.65 583.749 164.06 582.429 164.06ZM582.429 161.24C580.619 161.24 579.459 161.89 579.459 162.97C579.459 164.05 580.619 164.7 582.429 164.7C584.239 164.7 585.399 164.05 585.399 162.97C585.399 161.89 584.239 161.24 582.429 161.24Z" fill="black"/>
<path d="M474.749 185.612H475.735V186.35H474.749V188H473.841V186.35H470.604V185.817L473.787 180.891H474.749V185.612ZM471.629 185.612H473.841V182.126L473.733 182.321L471.629 185.612ZM480.013 184.875C479.824 185.1 479.598 185.28 479.334 185.417C479.074 185.554 478.787 185.622 478.475 185.622C478.064 185.622 477.706 185.521 477.4 185.319C477.098 185.118 476.863 184.834 476.697 184.47C476.531 184.102 476.448 183.697 476.448 183.254C476.448 182.779 476.538 182.351 476.717 181.97C476.899 181.589 477.156 181.298 477.488 181.096C477.82 180.894 478.208 180.793 478.65 180.793C479.354 180.793 479.907 181.057 480.311 181.584C480.717 182.108 480.921 182.824 480.921 183.732V183.996C480.921 185.38 480.647 186.39 480.101 187.028C479.554 187.663 478.729 187.989 477.625 188.005H477.449V187.243H477.64C478.385 187.23 478.958 187.036 479.358 186.662C479.759 186.285 479.977 185.689 480.013 184.875ZM478.621 184.875C478.924 184.875 479.202 184.782 479.456 184.597C479.713 184.411 479.9 184.182 480.018 183.908V183.547C480.018 182.954 479.889 182.473 479.632 182.102C479.375 181.73 479.049 181.545 478.655 181.545C478.258 181.545 477.939 181.698 477.698 182.004C477.457 182.307 477.337 182.707 477.337 183.205C477.337 183.69 477.452 184.09 477.684 184.406C477.918 184.719 478.23 184.875 478.621 184.875ZM486.731 185.417C486.731 186.224 486.546 186.874 486.175 187.365C485.804 187.854 485.306 188.098 484.681 188.098C484.013 188.098 483.497 187.862 483.133 187.39L483.089 188H482.259V180.5H483.162V183.298C483.527 182.845 484.03 182.619 484.671 182.619C485.312 182.619 485.815 182.862 486.18 183.347C486.548 183.832 486.731 184.496 486.731 185.339V185.417ZM485.828 185.314C485.828 184.699 485.709 184.224 485.472 183.889C485.234 183.553 484.892 183.386 484.446 183.386C483.851 183.386 483.423 183.662 483.162 184.216V186.501C483.439 187.054 483.87 187.331 484.456 187.331C484.889 187.331 485.226 187.163 485.467 186.828C485.708 186.493 485.828 185.988 485.828 185.314ZM489.993 187.36C490.315 187.36 490.597 187.263 490.838 187.067C491.079 186.872 491.212 186.628 491.238 186.335H492.093C492.076 186.638 491.972 186.926 491.78 187.199C491.588 187.473 491.331 187.691 491.009 187.854C490.69 188.016 490.351 188.098 489.993 188.098C489.274 188.098 488.701 187.858 488.274 187.38C487.851 186.898 487.64 186.241 487.64 185.407V185.256C487.64 184.742 487.734 184.284 487.923 183.884C488.112 183.483 488.382 183.173 488.733 182.951C489.088 182.73 489.507 182.619 489.988 182.619C490.581 182.619 491.072 182.797 491.463 183.151C491.857 183.506 492.067 183.967 492.093 184.533H491.238C491.212 184.191 491.082 183.911 490.848 183.693C490.617 183.472 490.33 183.361 489.988 183.361C489.529 183.361 489.173 183.527 488.919 183.859C488.668 184.188 488.543 184.665 488.543 185.29V185.461C488.543 186.07 488.668 186.538 488.919 186.867C489.17 187.196 489.528 187.36 489.993 187.36ZM497.674 188H493.016V187.351L495.477 184.616C495.841 184.203 496.092 183.868 496.229 183.61C496.368 183.35 496.438 183.081 496.438 182.805C496.438 182.434 496.326 182.129 496.102 181.892C495.877 181.654 495.577 181.535 495.203 181.535C494.754 181.535 494.404 181.664 494.153 181.921C493.906 182.175 493.782 182.53 493.782 182.985H492.879C492.879 182.331 493.089 181.802 493.509 181.398C493.932 180.995 494.497 180.793 495.203 180.793C495.864 180.793 496.386 180.967 496.771 181.315C497.155 181.66 497.347 182.121 497.347 182.697C497.347 183.397 496.901 184.23 496.009 185.197L494.104 187.263H497.674V188ZM502.176 180.886V181.652H502.01C501.307 181.665 500.747 181.874 500.33 182.277C499.913 182.681 499.673 183.249 499.607 183.981C499.982 183.552 500.493 183.337 501.141 183.337C501.759 183.337 502.252 183.555 502.62 183.991C502.991 184.427 503.177 184.991 503.177 185.681C503.177 186.413 502.977 186.999 502.576 187.438C502.179 187.878 501.645 188.098 500.975 188.098C500.294 188.098 499.743 187.837 499.319 187.316C498.896 186.792 498.685 186.118 498.685 185.295V184.948C498.685 183.64 498.963 182.64 499.52 181.95C500.079 181.257 500.911 180.902 502.015 180.886H502.176ZM500.989 184.089C500.68 184.089 500.395 184.182 500.135 184.367C499.874 184.553 499.694 184.785 499.593 185.065V185.397C499.593 185.983 499.725 186.455 499.988 186.813C500.252 187.172 500.581 187.351 500.975 187.351C501.382 187.351 501.701 187.201 501.932 186.901C502.166 186.602 502.283 186.21 502.283 185.725C502.283 185.236 502.164 184.842 501.927 184.543C501.692 184.24 501.38 184.089 500.989 184.089ZM473.061 195.38H470.831V192.94H473.061V195.38ZM470.011 195.38H468.691V196.05H475.201V195.38H473.881V192.94H475.231V192.27H468.661V192.94H470.011V195.38ZM476.011 197.09H467.881V197.76H471.531V200.74H472.361V197.76H476.011V197.09ZM478.321 195.77H481.261V195.11H478.321V193.26H481.651V192.58H477.501V198.59H478.191C479.901 198.59 480.991 198.54 482.291 198.31L482.201 197.64C480.981 197.86 479.941 197.92 478.321 197.92V195.77ZM483.661 191.76V195.15H481.811V195.83H483.661V200.75H484.481V191.76H483.661ZM496.49 195.19C494.86 194.95 493.26 193.84 493.26 192.59V192.09H492.4V192.59C492.4 193.87 490.82 194.95 489.19 195.19L489.52 195.85C490.92 195.61 492.27 194.84 492.83 193.75C493.41 194.83 494.76 195.61 496.15 195.85L496.49 195.19ZM496.88 196.82H488.78V197.5H492.4V200.75H493.22V197.5H496.89L496.88 196.82ZM502.759 194.1V194.77H504.529V197.12H505.359V191.78H504.529V194.1H502.759ZM503.259 196.14C501.959 195.68 501.079 194.55 501.079 193.4V193.09H503.049V192.43H498.259V193.09H500.259V193.4C500.259 194.69 499.339 195.9 497.999 196.39L498.429 197.04C499.479 196.64 500.309 195.8 500.689 194.76C501.079 195.68 501.849 196.42 502.849 196.78L503.259 196.14ZM502.399 200.1C501.049 200.1 500.229 199.72 500.229 199.07C500.229 198.42 501.049 198.03 502.399 198.03C503.749 198.03 504.569 198.42 504.569 199.07C504.569 199.72 503.749 200.1 502.399 200.1ZM502.399 197.4C500.559 197.4 499.409 198.01 499.409 199.07C499.409 200.13 500.559 200.74 502.399 200.74C504.239 200.74 505.389 200.13 505.389 199.07C505.389 198.01 504.239 197.4 502.399 197.4Z" fill="black"/>
<path d="M408.534 205C403.887 195.974 427.635 175.981 557 177.041" stroke="#4000C7"/>
<path d="M648.738 206C651.015 196.652 639.38 175.945 576 177.042" stroke="#4000C7"/>
<rect x="678.824" y="220.124" width="18" height="41" rx="5" transform="rotate(-90.1738 678.824 220.124)" fill="black"/>
<path d="M671.001 211.193L679.251 207.73L679.25 214.659L671.001 211.193Z" fill="black"/>
<path d="M688.603 208.737L688.63 209.382C689.056 208.88 689.631 208.629 690.354 208.629C691.167 208.629 691.72 208.941 692.014 209.564C692.207 209.284 692.458 209.059 692.766 208.887C693.077 208.715 693.444 208.629 693.867 208.629C695.142 208.628 695.79 209.303 695.812 210.653L695.812 214.547L694.819 214.547L694.818 210.712C694.818 210.297 694.723 209.987 694.533 209.783C694.343 209.576 694.025 209.472 693.577 209.472C693.208 209.472 692.902 209.583 692.659 209.805C692.415 210.024 692.274 210.319 692.235 210.691L692.235 214.548L691.236 214.548L691.235 210.74C691.235 209.895 690.822 209.472 689.995 209.473C689.343 209.473 688.897 209.75 688.657 210.305L688.658 214.549L687.664 214.549L687.663 208.737L688.603 208.737ZM700.904 214.546C700.847 214.432 700.8 214.228 700.764 213.934C700.303 214.414 699.751 214.654 699.11 214.654C698.537 214.654 698.066 214.493 697.698 214.171C697.332 213.845 697.15 213.433 697.149 212.936C697.149 212.331 697.378 211.861 697.837 211.528C698.299 211.192 698.947 211.023 699.781 211.023L700.748 211.023L700.748 210.566C700.748 210.219 700.644 209.943 700.436 209.739C700.228 209.532 699.922 209.428 699.517 209.428C699.163 209.428 698.866 209.518 698.626 209.697C698.386 209.876 698.266 210.092 698.266 210.347L697.267 210.347C697.267 210.057 697.369 209.777 697.573 209.509C697.781 209.237 698.06 209.022 698.411 208.864C698.765 208.707 699.154 208.628 699.576 208.628C700.246 208.627 700.771 208.796 701.15 209.132C701.53 209.465 701.727 209.925 701.741 210.512L701.742 213.187C701.742 213.721 701.81 214.145 701.946 214.46L701.946 214.546L700.904 214.546ZM699.255 213.789C699.567 213.789 699.862 213.709 700.141 213.547C700.421 213.386 700.623 213.177 700.748 212.919L700.748 211.726L699.969 211.727C698.752 211.727 698.143 212.083 698.143 212.796C698.143 213.107 698.247 213.351 698.455 213.526C698.662 213.702 698.929 213.789 699.255 213.789ZM704.379 214.546L703.386 214.546L703.385 208.734L704.378 208.734L704.379 214.546ZM703.304 207.193C703.304 207.032 703.352 206.896 703.449 206.785C703.549 206.674 703.696 206.618 703.889 206.618C704.082 206.618 704.229 206.673 704.33 206.784C704.43 206.895 704.48 207.031 704.48 207.193C704.48 207.354 704.43 207.488 704.33 207.595C704.229 207.703 704.083 207.757 703.889 207.757C703.696 207.757 703.549 207.703 703.449 207.596C703.352 207.488 703.304 207.354 703.304 207.193ZM706.913 208.734L706.946 209.464C707.39 208.905 707.97 208.626 708.686 208.626C709.914 208.626 710.534 209.318 710.545 210.704L710.545 214.545L709.552 214.545L709.551 210.699C709.547 210.28 709.451 209.97 709.261 209.77C709.074 209.569 708.783 209.469 708.385 209.469C708.063 209.469 707.78 209.555 707.537 209.727C707.293 209.899 707.103 210.125 706.967 210.404L706.968 214.545L705.974 214.545L705.973 208.734L706.913 208.734Z" fill="white"/>
<circle cx="487.5" cy="211.5" r="9.5" fill="#4000C7"/>
<circle cx="648.5" cy="211.5" r="9.5" fill="#4000C7"/>
<circle cx="566.5" cy="176.5" r="9.5" fill="#4000C7"/>
<line x1="416" y1="212.5" x2="642" y2="212.5" stroke="#4000C7"/>
<path d="M649.354 228.646C649.158 228.451 648.842 228.451 648.646 228.646L645.464 231.828C645.269 232.024 645.269 232.34 645.464 232.536C645.66 232.731 645.976 232.731 646.172 232.536L649 229.707L651.828 232.536C652.024 232.731 652.34 232.731 652.536 232.536C652.731 232.34 652.731 232.024 652.536 231.828L649.354 228.646ZM649.5 327L649.5 229L648.5 229L648.5 327L649.5 327Z" fill="#4000C7"/>
</svg>
