<svg width="1152" height="587" viewBox="0 0 1152 587" fill="none" xmlns="http://www.w3.org/2000/svg">
<path d="M0 0H1152V587H0V0Z" fill="white" fill-opacity="0.01"/>
<path d="M518.332 333.73C519.812 333.57 521.112 333.04 521.662 332.16C522.202 333.04 523.512 333.57 524.992 333.73L525.242 333.09C523.562 332.95 522.202 332.27 522.112 331.3H524.882V330.65H522.072V329.74H521.252V330.65H518.442V331.3H521.202C521.112 332.27 519.752 332.95 518.082 333.09L518.332 333.73ZM523.892 337.24C523.892 337.8 523.072 338.11 521.652 338.11C520.232 338.11 519.412 337.8 519.412 337.24C519.412 336.69 520.232 336.37 521.652 336.37C523.072 336.37 523.892 336.69 523.892 337.24ZM525.712 334.86V334.2H517.602V334.86H521.252V335.76C519.562 335.83 518.582 336.35 518.582 337.24C518.582 338.21 519.722 338.73 521.662 338.73C523.582 338.73 524.722 338.21 524.722 337.24C524.722 336.35 523.742 335.83 522.062 335.76V334.86H525.712ZM528.601 337.1H533.871V335.08H527.771V335.71H533.061V336.5H527.801V338.63H534.141V338H528.601V337.1ZM531.271 333.67V332.82H533.951V332.16H528.701V330.77H533.861V330.11H527.881V332.82H530.451V333.67H526.791V334.33H534.911V333.67H531.271ZM542.201 333.4H539.661V332.06H542.201V333.4ZM543.001 330.14H542.201V331.43H539.661V330.14H538.851V334.06H543.001V330.14ZM540.571 337.01H545.441V334.83H539.741V335.48H544.631V336.4H539.771V338.64H545.771V337.99H540.571V337.01ZM545.441 331.7V329.78H544.621V334.41H545.441V332.38H546.771V331.7H545.441ZM553.32 332.85H554.46V335.31H555.25V329.78H554.46V332.18H553.32V329.95H552.54V335.02H553.32V332.85ZM552.17 333.98C551.02 333.54 550.35 332.53 550.35 331.54V330.33H549.56V331.54C549.56 332.54 548.86 333.7 547.69 334.22L548.13 334.86C549 334.47 549.64 333.71 549.96 332.87C550.28 333.63 550.89 334.27 551.73 334.61L552.17 333.98ZM552.29 338.1C550.95 338.1 550.11 337.74 550.11 337.12C550.11 336.5 550.95 336.15 552.29 336.15C553.65 336.15 554.48 336.5 554.48 337.12C554.48 337.74 553.65 338.1 552.29 338.1ZM552.29 335.51C550.45 335.51 549.3 336.1 549.3 337.12C549.3 338.14 550.45 338.73 552.29 338.73C554.14 338.73 555.29 338.14 555.29 337.12C555.29 336.1 554.14 335.51 552.29 335.51ZM558.044 335.993H557.229L557.165 330.891H558.112L558.044 335.993ZM557.131 337.546C557.131 337.399 557.175 337.277 557.263 337.18C557.354 337.079 557.487 337.028 557.663 337.028C557.839 337.028 557.972 337.079 558.063 337.18C558.155 337.277 558.2 337.399 558.2 337.546C558.2 337.692 558.155 337.814 558.063 337.912C557.972 338.007 557.839 338.054 557.663 338.054C557.487 338.054 557.354 338.007 557.263 337.912C557.175 337.814 557.131 337.692 557.131 337.546Z" fill="#FF0000"/>
<path d="M347.262 348C344.985 338.652 356.62 317.945 420 319.042" stroke="#4000C7"/>
<path d="M505.738 348C508.015 338.652 496.38 317.945 433 319.042" stroke="#4000C7"/>
<rect x="524.031" y="367.209" width="18" height="41" rx="5" transform="rotate(-64.2277 524.031 367.209)" fill="black"/>
<path d="M520.739 355.626L529.675 356.094L526.662 362.333L520.739 355.626Z" fill="black"/>
<path d="M537.791 361.219L537.535 361.811C538.137 361.545 538.764 361.569 539.415 361.884C540.147 362.237 540.51 362.758 540.503 363.447C540.799 363.279 541.122 363.185 541.475 363.164C541.83 363.145 542.198 363.227 542.578 363.411C543.726 363.965 544.016 364.855 543.449 366.08L541.756 369.586L540.861 369.154L542.528 365.701C542.709 365.327 542.758 365.007 542.676 364.74C542.595 364.471 542.353 364.239 541.95 364.044C541.618 363.884 541.294 363.851 540.978 363.945C540.664 364.036 540.408 364.24 540.211 364.558L538.534 368.031L537.635 367.597L539.29 364.167C539.658 363.406 539.469 362.846 538.724 362.487C538.137 362.203 537.615 362.259 537.158 362.655L535.313 366.476L534.418 366.044L536.945 360.81L537.791 361.219ZM546.341 371.8C546.339 371.672 546.386 371.468 546.481 371.188C545.857 371.419 545.256 371.396 544.679 371.117C544.163 370.868 543.809 370.518 543.617 370.068C543.43 369.615 543.444 369.165 543.661 368.717C543.924 368.172 544.334 367.849 544.892 367.749C545.454 367.646 546.111 367.777 546.862 368.139L547.733 368.56L547.931 368.149C548.082 367.836 548.108 367.542 548.01 367.268C547.913 366.991 547.683 366.764 547.319 366.588C546.999 366.434 546.693 366.386 546.399 366.443C546.105 366.499 545.903 366.642 545.792 366.871L544.893 366.437C545.019 366.176 545.232 365.969 545.533 365.816C545.838 365.661 546.183 365.589 546.567 365.599C546.955 365.612 547.339 365.71 547.72 365.893C548.323 366.184 548.722 366.564 548.917 367.032C549.114 367.497 549.092 367.997 548.849 368.532L547.686 370.941C547.454 371.421 547.331 371.833 547.317 372.176L547.279 372.253L546.341 371.8ZM545.185 370.401C545.466 370.537 545.767 370.593 546.088 370.569C546.41 370.545 546.683 370.445 546.908 370.267L547.427 369.193L546.725 368.855C545.629 368.325 544.926 368.381 544.616 369.023C544.481 369.304 544.468 369.568 544.579 369.816C544.69 370.065 544.892 370.26 545.185 370.401ZM549.47 373.311L548.576 372.879L551.102 367.646L551.997 368.078L549.47 373.311ZM551.7 366.223C551.77 366.078 551.873 365.976 552.008 365.918C552.147 365.862 552.303 365.876 552.477 365.96C552.651 366.044 552.759 366.158 552.801 366.301C552.843 366.445 552.829 366.589 552.759 366.734C552.689 366.879 552.586 366.978 552.449 367.031C552.312 367.085 552.156 367.069 551.982 366.985C551.808 366.901 551.699 366.789 551.655 366.648C551.615 366.51 551.63 366.368 551.7 366.223ZM554.28 369.18L553.992 369.852C554.634 369.542 555.278 369.543 555.923 369.854C557.029 370.388 557.286 371.281 556.693 372.534L555.023 375.992L554.128 375.56L555.8 372.097C555.979 371.718 556.027 371.397 555.943 371.134C555.863 370.873 555.643 370.655 555.285 370.483C554.995 370.343 554.703 370.297 554.409 370.346C554.115 370.395 553.846 370.515 553.602 370.708L551.802 374.437L550.907 374.005L553.434 368.771L554.28 369.18Z" fill="white"/>
<circle cx="505.5" cy="350.5" r="9" fill="white" stroke="#4000C7" stroke-dasharray="2 2"/>
<circle cx="426.5" cy="318.5" r="9.5" fill="#4000C7"/>
<line x1="356" y1="350.5" x2="496" y2="350.5" stroke="#4000C7"/>
<path d="M488.665 542H487.762V534.5H488.665V542ZM489.876 539.31C489.876 538.792 489.977 538.326 490.179 537.913C490.384 537.5 490.667 537.181 491.028 536.956C491.393 536.731 491.808 536.619 492.273 536.619C492.993 536.619 493.574 536.868 494.017 537.366C494.463 537.864 494.686 538.527 494.686 539.354V539.417C494.686 539.931 494.586 540.394 494.388 540.804C494.192 541.211 493.911 541.528 493.543 541.756C493.178 541.984 492.758 542.098 492.283 542.098C491.567 542.098 490.986 541.849 490.54 541.351C490.097 540.853 489.876 540.193 489.876 539.373V539.31ZM490.784 539.417C490.784 540.003 490.919 540.473 491.189 540.828C491.463 541.183 491.827 541.36 492.283 541.36C492.742 541.36 493.107 541.181 493.377 540.823C493.647 540.462 493.782 539.957 493.782 539.31C493.782 538.73 493.644 538.261 493.367 537.903C493.094 537.542 492.729 537.361 492.273 537.361C491.827 537.361 491.468 537.539 491.194 537.894C490.921 538.248 490.784 538.756 490.784 539.417ZM495.604 539.314C495.604 538.491 495.794 537.837 496.175 537.352C496.556 536.863 497.06 536.619 497.688 536.619C498.333 536.619 498.836 536.847 499.197 537.303L499.241 536.717H500.066V541.873C500.066 542.557 499.863 543.095 499.456 543.489C499.052 543.883 498.509 544.08 497.825 544.08C497.444 544.08 497.072 543.999 496.707 543.836C496.342 543.673 496.064 543.45 495.872 543.167L496.341 542.625C496.728 543.104 497.202 543.343 497.762 543.343C498.201 543.343 498.543 543.219 498.787 542.972C499.035 542.724 499.158 542.376 499.158 541.927V541.473C498.797 541.889 498.304 542.098 497.679 542.098C497.06 542.098 496.559 541.849 496.175 541.351C495.794 540.853 495.604 540.174 495.604 539.314ZM496.512 539.417C496.512 540.013 496.634 540.481 496.878 540.823C497.122 541.162 497.464 541.331 497.903 541.331C498.473 541.331 498.891 541.072 499.158 540.555V538.143C498.882 537.638 498.466 537.386 497.913 537.386C497.474 537.386 497.13 537.557 496.883 537.898C496.635 538.24 496.512 538.746 496.512 539.417ZM502.415 542H501.512V536.717H502.415V542ZM501.438 535.315C501.438 535.169 501.482 535.045 501.57 534.944C501.661 534.843 501.795 534.793 501.971 534.793C502.146 534.793 502.28 534.843 502.371 534.944C502.462 535.045 502.508 535.169 502.508 535.315C502.508 535.462 502.462 535.584 502.371 535.682C502.28 535.779 502.146 535.828 501.971 535.828C501.795 535.828 501.661 535.779 501.57 535.682C501.482 535.584 501.438 535.462 501.438 535.315ZM504.72 536.717L504.749 537.381C505.153 536.873 505.68 536.619 506.331 536.619C507.448 536.619 508.011 537.249 508.021 538.509V542H507.117V538.504C507.114 538.123 507.026 537.841 506.854 537.659C506.684 537.477 506.419 537.386 506.058 537.386C505.765 537.386 505.507 537.464 505.286 537.62C505.065 537.776 504.892 537.981 504.769 538.235V542H503.865V536.717H504.72ZM509.402 541.526C509.402 541.37 509.448 541.24 509.539 541.136C509.633 541.032 509.773 540.979 509.959 540.979C510.145 540.979 510.285 541.032 510.379 541.136C510.477 541.24 510.525 541.37 510.525 541.526C510.525 541.676 510.477 541.801 510.379 541.902C510.285 542.003 510.145 542.054 509.959 542.054C509.773 542.054 509.633 542.003 509.539 541.902C509.448 541.801 509.402 541.676 509.402 541.526ZM512.952 536.717V542.61C512.952 543.626 512.492 544.134 511.57 544.134C511.372 544.134 511.188 544.104 511.019 544.046V543.323C511.123 543.349 511.259 543.362 511.429 543.362C511.631 543.362 511.784 543.307 511.888 543.196C511.995 543.089 512.049 542.9 512.049 542.63V536.717H512.952ZM511.956 535.315C511.956 535.172 512 535.05 512.088 534.949C512.179 534.845 512.311 534.793 512.483 534.793C512.659 534.793 512.793 534.843 512.884 534.944C512.975 535.045 513.021 535.169 513.021 535.315C513.021 535.462 512.975 535.584 512.884 535.682C512.793 535.779 512.659 535.828 512.483 535.828C512.308 535.828 512.176 535.779 512.088 535.682C512 535.584 511.956 535.462 511.956 535.315ZM517.488 540.599C517.488 540.354 517.396 540.166 517.21 540.032C517.028 539.896 516.707 539.778 516.248 539.681C515.792 539.583 515.429 539.466 515.159 539.329C514.892 539.192 514.694 539.03 514.563 538.841C514.437 538.652 514.373 538.427 514.373 538.167C514.373 537.734 514.555 537.368 514.92 537.068C515.288 536.769 515.757 536.619 516.326 536.619C516.925 536.619 517.41 536.774 517.781 537.083C518.156 537.392 518.343 537.788 518.343 538.27H517.435C517.435 538.022 517.329 537.809 517.117 537.63C516.909 537.451 516.645 537.361 516.326 537.361C515.997 537.361 515.74 537.433 515.555 537.576C515.369 537.719 515.276 537.907 515.276 538.138C515.276 538.356 515.363 538.52 515.535 538.631C515.708 538.742 516.019 538.847 516.468 538.948C516.92 539.049 517.286 539.17 517.566 539.31C517.846 539.45 518.053 539.619 518.187 539.817C518.323 540.013 518.392 540.252 518.392 540.535C518.392 541.007 518.203 541.386 517.825 541.673C517.448 541.956 516.958 542.098 516.355 542.098C515.932 542.098 515.558 542.023 515.232 541.873C514.907 541.723 514.651 541.515 514.466 541.248C514.284 540.978 514.192 540.687 514.192 540.374H515.096C515.112 540.677 515.232 540.918 515.457 541.097C515.685 541.272 515.984 541.36 516.355 541.36C516.697 541.36 516.971 541.292 517.176 541.155C517.384 541.015 517.488 540.83 517.488 540.599Z" fill="#4000C7"/>
<path d="M513.746 512.016L507.938 506.252C507.776 506.091 507.558 506 507.328 506H495.864C495.386 506 495 506.383 495 506.857V529.143C495 529.617 495.386 530 495.864 530H513.136C513.614 530 514 529.617 514 529.143V512.624C514 512.396 513.908 512.177 513.746 512.016ZM512.008 513.018H506.929V507.977L512.008 513.018ZM512.057 528.071H496.943V507.929H505.094V513.714C505.094 514.013 505.213 514.299 505.426 514.51C505.638 514.721 505.927 514.839 506.227 514.839H512.057V528.071ZM504.284 520.839H499.318C499.199 520.839 499.102 520.936 499.102 521.054V522.339C499.102 522.457 499.199 522.554 499.318 522.554H504.284C504.403 522.554 504.5 522.457 504.5 522.339V521.054C504.5 520.936 504.403 520.839 504.284 520.839ZM499.102 517.411V518.696C499.102 518.814 499.199 518.911 499.318 518.911H509.682C509.801 518.911 509.898 518.814 509.898 518.696V517.411C509.898 517.293 509.801 517.196 509.682 517.196H499.318C499.199 517.196 499.102 517.293 499.102 517.411Z" fill="#4000C7"/>
<path d="M426.646 300.354C426.842 300.549 427.158 300.549 427.354 300.354L430.536 297.172C430.731 296.976 430.731 296.66 430.536 296.464C430.34 296.269 430.024 296.269 429.828 296.464L427 299.293L424.172 296.464C423.976 296.269 423.66 296.269 423.464 296.464C423.269 296.66 423.269 296.976 423.464 297.172L426.646 300.354ZM426.5 77L426.5 300L427.5 300L427.5 77L426.5 77Z" fill="#4000C7"/>
<path d="M504.646 497.354C504.842 497.549 505.158 497.549 505.354 497.354L508.536 494.172C508.731 493.976 508.731 493.66 508.536 493.464C508.34 493.269 508.024 493.269 507.828 493.464L505 496.293L502.172 493.464C501.976 493.269 501.66 493.269 501.464 493.464C501.269 493.66 501.269 493.976 501.464 494.172L504.646 497.354ZM504.5 360L504.5 497L505.5 497L505.5 360L504.5 360Z" fill="#4000C7"/>
</svg>
