<svg width="1152" height="587" viewBox="0 0 1152 587" fill="none" xmlns="http://www.w3.org/2000/svg">
<path d="M0 0H1152V587H0V0Z" fill="white" fill-opacity="0.01"/>
<path d="M322.168 295.145H319.189L318.521 297H317.554L320.269 289.891H321.089L323.809 297H322.847L322.168 295.145ZM319.473 294.373H321.89L320.679 291.048L319.473 294.373ZM327.827 296.478C327.476 296.891 326.96 297.098 326.279 297.098C325.716 297.098 325.286 296.935 324.99 296.609C324.697 296.281 324.549 295.796 324.546 295.154V291.717H325.449V295.13C325.449 295.931 325.775 296.331 326.426 296.331C327.116 296.331 327.575 296.074 327.803 295.56V291.717H328.706V297H327.847L327.827 296.478ZM331.309 290.438V291.717H332.295V292.415H331.309V295.691C331.309 295.903 331.353 296.062 331.44 296.17C331.528 296.274 331.678 296.326 331.89 296.326C331.994 296.326 332.137 296.307 332.319 296.268V297C332.082 297.065 331.851 297.098 331.626 297.098C331.222 297.098 330.918 296.976 330.713 296.731C330.508 296.487 330.405 296.141 330.405 295.691V292.415H329.443V291.717H330.405V290.438H331.309ZM333.018 294.31C333.018 293.792 333.118 293.326 333.32 292.913C333.525 292.5 333.809 292.181 334.17 291.956C334.535 291.731 334.95 291.619 335.415 291.619C336.134 291.619 336.715 291.868 337.158 292.366C337.604 292.864 337.827 293.527 337.827 294.354V294.417C337.827 294.931 337.728 295.394 337.529 295.804C337.334 296.211 337.052 296.528 336.685 296.756C336.32 296.984 335.9 297.098 335.425 297.098C334.709 297.098 334.128 296.849 333.682 296.351C333.239 295.853 333.018 295.193 333.018 294.373V294.31ZM333.926 294.417C333.926 295.003 334.061 295.473 334.331 295.828C334.604 296.183 334.969 296.36 335.425 296.36C335.884 296.36 336.248 296.181 336.519 295.823C336.789 295.462 336.924 294.957 336.924 294.31C336.924 293.73 336.785 293.261 336.509 292.903C336.235 292.542 335.871 292.361 335.415 292.361C334.969 292.361 334.609 292.539 334.336 292.894C334.062 293.248 333.926 293.756 333.926 294.417ZM340.84 294.349H338.457V293.611H340.84V294.349ZM342.573 291.717L342.598 292.303C342.985 291.847 343.507 291.619 344.165 291.619C344.904 291.619 345.407 291.902 345.674 292.469C345.85 292.215 346.077 292.01 346.357 291.854C346.641 291.697 346.974 291.619 347.358 291.619C348.517 291.619 349.106 292.233 349.126 293.46V297H348.223V293.514C348.223 293.136 348.136 292.854 347.964 292.669C347.791 292.48 347.502 292.386 347.095 292.386C346.759 292.386 346.481 292.487 346.26 292.688C346.038 292.887 345.91 293.156 345.874 293.494V297H344.966V293.538C344.966 292.77 344.59 292.386 343.838 292.386C343.245 292.386 342.84 292.638 342.622 293.143V297H341.719V291.717H342.573ZM352.686 297.098C351.969 297.098 351.387 296.863 350.938 296.395C350.488 295.923 350.264 295.293 350.264 294.505V294.339C350.264 293.815 350.363 293.348 350.562 292.938C350.763 292.524 351.043 292.202 351.401 291.971C351.763 291.736 352.153 291.619 352.573 291.619C353.26 291.619 353.794 291.845 354.175 292.298C354.556 292.75 354.746 293.398 354.746 294.241V294.617H351.167C351.18 295.138 351.331 295.56 351.621 295.882C351.914 296.201 352.285 296.36 352.734 296.36C353.053 296.36 353.324 296.295 353.545 296.165C353.766 296.035 353.96 295.862 354.126 295.647L354.678 296.077C354.235 296.757 353.571 297.098 352.686 297.098ZM352.573 292.361C352.209 292.361 351.903 292.495 351.655 292.762C351.408 293.025 351.255 293.396 351.196 293.875H353.843V293.807C353.817 293.348 353.693 292.993 353.472 292.742C353.25 292.488 352.951 292.361 352.573 292.361ZM358.35 292.527C358.213 292.505 358.065 292.493 357.905 292.493C357.313 292.493 356.911 292.745 356.699 293.25V297H355.796V291.717H356.675L356.689 292.327C356.986 291.855 357.406 291.619 357.949 291.619C358.125 291.619 358.258 291.642 358.35 291.688V292.527ZM358.872 294.314C358.872 293.491 359.062 292.837 359.443 292.352C359.824 291.863 360.329 291.619 360.957 291.619C361.602 291.619 362.104 291.847 362.466 292.303L362.51 291.717H363.335V296.873C363.335 297.557 363.132 298.095 362.725 298.489C362.321 298.883 361.777 299.08 361.094 299.08C360.713 299.08 360.34 298.999 359.976 298.836C359.611 298.673 359.333 298.45 359.141 298.167L359.609 297.625C359.997 298.104 360.47 298.343 361.03 298.343C361.47 298.343 361.812 298.219 362.056 297.972C362.303 297.724 362.427 297.376 362.427 296.927V296.473C362.065 296.889 361.572 297.098 360.947 297.098C360.329 297.098 359.827 296.849 359.443 296.351C359.062 295.853 358.872 295.174 358.872 294.314ZM359.78 294.417C359.78 295.013 359.902 295.481 360.146 295.823C360.391 296.162 360.732 296.331 361.172 296.331C361.742 296.331 362.16 296.072 362.427 295.555V293.143C362.15 292.638 361.735 292.386 361.182 292.386C360.742 292.386 360.399 292.557 360.151 292.898C359.904 293.24 359.78 293.746 359.78 294.417ZM365.684 297H364.78V291.717H365.684V297ZM364.707 290.315C364.707 290.169 364.751 290.045 364.839 289.944C364.93 289.843 365.063 289.793 365.239 289.793C365.415 289.793 365.549 289.843 365.64 289.944C365.731 290.045 365.776 290.169 365.776 290.315C365.776 290.462 365.731 290.584 365.64 290.682C365.549 290.779 365.415 290.828 365.239 290.828C365.063 290.828 364.93 290.779 364.839 290.682C364.751 290.584 364.707 290.462 364.707 290.315ZM367.988 291.717L368.018 292.381C368.421 291.873 368.949 291.619 369.6 291.619C370.716 291.619 371.279 292.249 371.289 293.509V297H370.386V293.504C370.382 293.123 370.295 292.841 370.122 292.659C369.953 292.477 369.688 292.386 369.326 292.386C369.033 292.386 368.776 292.464 368.555 292.62C368.333 292.776 368.161 292.981 368.037 293.235V297H367.134V291.717H367.988ZM372.437 294.314C372.437 293.491 372.627 292.837 373.008 292.352C373.389 291.863 373.893 291.619 374.521 291.619C375.166 291.619 375.669 291.847 376.03 292.303L376.074 291.717H376.899V296.873C376.899 297.557 376.696 298.095 376.289 298.489C375.885 298.883 375.342 299.08 374.658 299.08C374.277 299.08 373.905 298.999 373.54 298.836C373.175 298.673 372.897 298.45 372.705 298.167L373.174 297.625C373.561 298.104 374.035 298.343 374.595 298.343C375.034 298.343 375.376 298.219 375.62 297.972C375.868 297.724 375.991 297.376 375.991 296.927V296.473C375.63 296.889 375.137 297.098 374.512 297.098C373.893 297.098 373.392 296.849 373.008 296.351C372.627 295.853 372.437 295.174 372.437 294.314ZM373.345 294.417C373.345 295.013 373.467 295.481 373.711 295.823C373.955 296.162 374.297 296.331 374.736 296.331C375.306 296.331 375.724 296.072 375.991 295.555V293.143C375.715 292.638 375.299 292.386 374.746 292.386C374.307 292.386 373.963 292.557 373.716 292.898C373.468 293.24 373.345 293.746 373.345 294.417Z" fill="#19B500"/>
<rect x="380" y="301" width="88" height="27" rx="13.5" fill="#7D7D7D"/>
<path d="M400.241 311.408V312.279H402.204V313.852H400.241V314.723H402.204V317.193H403.283V308.314H402.204V311.408H400.241ZM400.241 309.731H397.563V308.288H396.497V309.731H393.715V310.589H400.241V309.731ZM395.392 313.449C395.392 312.63 396.055 312.071 397.017 312.071C397.979 312.071 398.642 312.63 398.642 313.449C398.642 314.281 397.979 314.853 397.017 314.853C396.055 314.853 395.392 314.281 395.392 313.449ZM399.656 313.449C399.656 312.123 398.564 311.239 397.017 311.239C395.47 311.239 394.378 312.123 394.378 313.449C394.378 314.788 395.47 315.685 397.017 315.685C398.564 315.685 399.656 314.788 399.656 313.449ZM396.861 318.831V316.439H395.795V319.702H403.556V318.831H396.861ZM409.093 310.55H411.212V309.679H405.804V310.55H408.066V311.46C408.066 313.826 407.195 315.815 405.531 316.751L406.181 317.557C407.39 316.855 408.209 315.594 408.599 314.008C409.015 315.386 409.821 316.517 410.965 317.154L411.589 316.335C409.938 315.477 409.093 313.592 409.093 311.46V310.55ZM414.566 308.288V313.007H413.032V308.561H412.031V319.39H413.032V313.891H414.566V319.962H415.593V308.288H414.566ZM430.4 308.314H429.334V316.842H430.4V308.314ZM427.956 314.333C426.24 313.761 425.031 312.344 425.031 310.771V310.134H427.67V309.276H421.274V310.134H423.939V310.771C423.939 312.435 422.756 313.956 420.988 314.567L421.547 315.399C422.925 314.905 424.004 313.852 424.498 312.526C425.031 313.748 426.097 314.71 427.436 315.178L427.956 314.333ZM423.965 318.831V316.036H422.899V319.702H430.751V318.831H423.965ZM440.123 312.344H441.605V315.685H442.632V308.301H441.605V311.473H440.123V308.522H439.109V315.256H440.123V312.344ZM438.641 309.692H436.223V308.392H435.17V309.692H432.726V310.537H438.654L438.641 309.692ZM434.169 313.137C434.169 312.422 434.78 311.941 435.703 311.941C436.613 311.941 437.237 312.422 437.237 313.137C437.237 313.865 436.613 314.346 435.703 314.346C434.78 314.346 434.169 313.865 434.169 313.137ZM438.186 313.137C438.186 311.941 437.172 311.148 435.703 311.148C434.234 311.148 433.207 311.941 433.207 313.137C433.207 314.359 434.234 315.139 435.703 315.139C437.172 315.139 438.186 314.359 438.186 313.137ZM438.797 319.13C437.016 319.13 435.95 318.688 435.95 317.921C435.95 317.141 437.016 316.699 438.797 316.699C440.565 316.699 441.631 317.141 441.631 317.921C441.631 318.688 440.565 319.13 438.797 319.13ZM438.797 315.88C436.366 315.88 434.897 316.608 434.897 317.921C434.897 319.221 436.366 319.949 438.797 319.949C441.228 319.949 442.697 319.221 442.697 317.921C442.697 316.608 441.228 315.88 438.797 315.88ZM445.725 313.059C447.636 312.825 449.391 311.967 450.028 310.68C450.678 311.967 452.42 312.825 454.331 313.059L454.708 312.214C452.667 311.98 450.808 310.979 450.717 309.692H454.344V308.834H445.725V309.692H449.339C449.248 310.979 447.389 311.98 445.348 312.214L445.725 313.059ZM452.927 317.895C452.927 318.675 451.835 319.13 450.015 319.13C448.182 319.13 447.103 318.675 447.103 317.895C447.103 317.115 448.182 316.673 450.015 316.673C451.835 316.673 452.927 317.115 452.927 317.895ZM455.293 314.619V313.761H444.75V314.619H449.482V315.867C447.311 315.971 446.024 316.686 446.024 317.895C446.024 319.221 447.532 319.949 450.028 319.949C452.511 319.949 454.006 319.221 454.006 317.895C454.006 316.686 452.732 315.971 450.561 315.867V314.619H455.293Z" fill="white"/>
<path d="M268.262 348C265.985 338.652 277.62 317.945 341 319.042" stroke="#4000C7"/>
<path d="M426.738 348C429.015 338.652 417.38 317.945 354 319.042" stroke="#4000C7"/>
<rect x="443.031" y="367.209" width="18" height="41" rx="5" transform="rotate(-64.2277 443.031 367.209)" fill="black"/>
<path d="M439.739 355.626L448.675 356.094L445.662 362.333L439.739 355.626Z" fill="black"/>
<path d="M456.791 361.219L456.535 361.811C457.137 361.545 457.764 361.569 458.415 361.884C459.147 362.237 459.51 362.758 459.503 363.447C459.799 363.279 460.122 363.185 460.475 363.164C460.83 363.145 461.198 363.227 461.578 363.411C462.726 363.965 463.016 364.855 462.449 366.08L460.756 369.586L459.861 369.154L461.528 365.701C461.709 365.327 461.758 365.007 461.676 364.74C461.595 364.471 461.353 364.239 460.95 364.044C460.618 363.884 460.294 363.851 459.978 363.945C459.664 364.036 459.408 364.24 459.211 364.558L457.534 368.031L456.635 367.597L458.29 364.167C458.658 363.406 458.469 362.846 457.724 362.487C457.137 362.203 456.615 362.259 456.158 362.655L454.313 366.476L453.418 366.044L455.945 360.81L456.791 361.219ZM465.341 371.8C465.339 371.672 465.386 371.468 465.481 371.188C464.857 371.419 464.256 371.396 463.679 371.117C463.163 370.868 462.809 370.518 462.617 370.068C462.43 369.615 462.444 369.165 462.661 368.717C462.924 368.172 463.334 367.849 463.892 367.749C464.454 367.646 465.111 367.777 465.862 368.139L466.733 368.56L466.931 368.149C467.082 367.836 467.108 367.542 467.01 367.268C466.913 366.991 466.683 366.764 466.319 366.588C465.999 366.434 465.693 366.386 465.399 366.443C465.105 366.499 464.903 366.642 464.792 366.871L463.893 366.437C464.019 366.176 464.232 365.969 464.533 365.816C464.838 365.661 465.183 365.589 465.567 365.599C465.955 365.612 466.339 365.71 466.72 365.893C467.323 366.184 467.722 366.564 467.917 367.032C468.114 367.497 468.092 367.997 467.849 368.532L466.686 370.941C466.454 371.421 466.331 371.833 466.317 372.176L466.279 372.253L465.341 371.8ZM464.185 370.401C464.466 370.537 464.767 370.593 465.088 370.569C465.41 370.545 465.683 370.445 465.908 370.267L466.427 369.193L465.725 368.855C464.629 368.325 463.926 368.381 463.616 369.023C463.481 369.304 463.468 369.568 463.579 369.816C463.69 370.065 463.892 370.26 464.185 370.401ZM468.47 373.311L467.576 372.879L470.102 367.646L470.997 368.078L468.47 373.311ZM470.7 366.223C470.77 366.078 470.873 365.976 471.008 365.918C471.147 365.862 471.303 365.876 471.477 365.96C471.651 366.044 471.759 366.158 471.801 366.301C471.843 366.445 471.829 366.589 471.759 366.734C471.689 366.879 471.586 366.978 471.449 367.031C471.312 367.085 471.156 367.069 470.982 366.985C470.808 366.901 470.699 366.789 470.655 366.648C470.615 366.51 470.63 366.368 470.7 366.223ZM473.28 369.18L472.992 369.852C473.634 369.542 474.278 369.543 474.923 369.854C476.029 370.388 476.286 371.281 475.693 372.534L474.023 375.992L473.128 375.56L474.8 372.097C474.979 371.718 475.027 371.397 474.943 371.134C474.863 370.873 474.643 370.655 474.285 370.483C473.995 370.343 473.703 370.297 473.409 370.346C473.115 370.395 472.846 370.515 472.602 370.708L470.802 374.437L469.907 374.005L472.434 368.771L473.28 369.18Z" fill="white"/>
<circle cx="347.5" cy="318.5" r="9.5" fill="#4000C7"/>
<line x1="275" y1="350.5" x2="420" y2="350.5" stroke="#4000C7"/>
<path d="M347.646 279.354C347.842 279.549 348.158 279.549 348.354 279.354L351.536 276.172C351.731 275.976 351.731 275.66 351.536 275.464C351.34 275.269 351.024 275.269 350.828 275.464L348 278.293L345.172 275.464C344.976 275.269 344.66 275.269 344.464 275.464C344.269 275.66 344.269 275.976 344.464 276.172L347.646 279.354ZM347.5 77L347.5 279L348.5 279L348.5 77L347.5 77Z" fill="#4000C7"/>
<circle cx="426.5" cy="350.5" r="9" fill="white" stroke="#4000C7" stroke-dasharray="2 2"/>
</svg>
