<svg width="1152" height="587" viewBox="0 0 1152 587" fill="none" xmlns="http://www.w3.org/2000/svg">
<path d="M0 0H1152V587H0V0Z" fill="white" fill-opacity="0.01"/>
<path d="M124.665 552H123.762V546.717H124.665V552ZM123.688 545.315C123.688 545.169 123.732 545.045 123.82 544.944C123.911 544.843 124.045 544.793 124.221 544.793C124.396 544.793 124.53 544.843 124.621 544.944C124.712 545.045 124.758 545.169 124.758 545.315C124.758 545.462 124.712 545.584 124.621 545.682C124.53 545.779 124.396 545.828 124.221 545.828C124.045 545.828 123.911 545.779 123.82 545.682C123.732 545.584 123.688 545.462 123.688 545.315ZM126.97 546.717L126.999 547.381C127.403 546.873 127.93 546.619 128.581 546.619C129.698 546.619 130.261 547.249 130.271 548.509V552H129.367V548.504C129.364 548.123 129.276 547.841 129.104 547.659C128.934 547.477 128.669 547.386 128.308 547.386C128.015 547.386 127.757 547.464 127.536 547.62C127.315 547.776 127.142 547.981 127.019 548.235V552H126.115V546.717H126.97ZM131.413 549.314C131.413 548.504 131.605 547.853 131.989 547.361C132.373 546.867 132.876 546.619 133.498 546.619C134.117 546.619 134.606 546.831 134.968 547.254V544.5H135.871V552H135.041L134.997 551.434C134.636 551.876 134.133 552.098 133.488 552.098C132.876 552.098 132.377 551.847 131.989 551.346C131.605 550.844 131.413 550.19 131.413 549.383V549.314ZM132.316 549.417C132.316 550.016 132.44 550.485 132.688 550.823C132.935 551.162 133.277 551.331 133.713 551.331C134.286 551.331 134.704 551.074 134.968 550.56V548.133C134.698 547.635 134.283 547.386 133.723 547.386C133.28 547.386 132.935 547.557 132.688 547.898C132.44 548.24 132.316 548.746 132.316 549.417ZM139.47 552.098C138.754 552.098 138.171 551.863 137.722 551.395C137.272 550.923 137.048 550.293 137.048 549.505V549.339C137.048 548.815 137.147 548.348 137.346 547.938C137.548 547.524 137.827 547.202 138.186 546.971C138.547 546.736 138.938 546.619 139.357 546.619C140.044 546.619 140.578 546.845 140.959 547.298C141.34 547.75 141.53 548.398 141.53 549.241V549.617H137.951C137.964 550.138 138.116 550.56 138.405 550.882C138.698 551.201 139.069 551.36 139.519 551.36C139.838 551.36 140.108 551.295 140.329 551.165C140.55 551.035 140.744 550.862 140.91 550.647L141.462 551.077C141.019 551.757 140.355 552.098 139.47 552.098ZM139.357 547.361C138.993 547.361 138.687 547.495 138.439 547.762C138.192 548.025 138.039 548.396 137.98 548.875H140.627V548.807C140.601 548.348 140.477 547.993 140.256 547.742C140.035 547.488 139.735 547.361 139.357 547.361ZM144.353 548.646L145.524 546.717H146.579L144.851 549.329L146.633 552H145.588L144.367 550.022L143.146 552H142.097L143.879 549.329L142.15 546.717H143.195L144.353 548.646ZM147.561 551.526C147.561 551.37 147.606 551.24 147.697 551.136C147.792 551.032 147.932 550.979 148.117 550.979C148.303 550.979 148.443 551.032 148.537 551.136C148.635 551.24 148.684 551.37 148.684 551.526C148.684 551.676 148.635 551.801 148.537 551.902C148.443 552.003 148.303 552.054 148.117 552.054C147.932 552.054 147.792 552.003 147.697 551.902C147.606 551.801 147.561 551.676 147.561 551.526ZM151.11 546.717V552.61C151.11 553.626 150.65 554.134 149.729 554.134C149.53 554.134 149.346 554.104 149.177 554.046V553.323C149.281 553.349 149.418 553.362 149.587 553.362C149.789 553.362 149.942 553.307 150.046 553.196C150.153 553.089 150.207 552.9 150.207 552.63V546.717H151.11ZM150.114 545.315C150.114 545.172 150.158 545.05 150.246 544.949C150.337 544.845 150.469 544.793 150.642 544.793C150.817 544.793 150.951 544.843 151.042 544.944C151.133 545.045 151.179 545.169 151.179 545.315C151.179 545.462 151.133 545.584 151.042 545.682C150.951 545.779 150.817 545.828 150.642 545.828C150.466 545.828 150.334 545.779 150.246 545.682C150.158 545.584 150.114 545.462 150.114 545.315ZM155.646 550.599C155.646 550.354 155.554 550.166 155.368 550.032C155.186 549.896 154.865 549.778 154.406 549.681C153.951 549.583 153.588 549.466 153.317 549.329C153.05 549.192 152.852 549.03 152.722 548.841C152.595 548.652 152.531 548.427 152.531 548.167C152.531 547.734 152.714 547.368 153.078 547.068C153.446 546.769 153.915 546.619 154.484 546.619C155.083 546.619 155.568 546.774 155.939 547.083C156.314 547.392 156.501 547.788 156.501 548.27H155.593C155.593 548.022 155.487 547.809 155.275 547.63C155.067 547.451 154.803 547.361 154.484 547.361C154.156 547.361 153.898 547.433 153.713 547.576C153.527 547.719 153.435 547.907 153.435 548.138C153.435 548.356 153.521 548.52 153.693 548.631C153.866 548.742 154.177 548.847 154.626 548.948C155.078 549.049 155.445 549.17 155.725 549.31C156.005 549.45 156.211 549.619 156.345 549.817C156.481 550.013 156.55 550.252 156.55 550.535C156.55 551.007 156.361 551.386 155.983 551.673C155.606 551.956 155.116 552.098 154.514 552.098C154.09 552.098 153.716 552.023 153.391 551.873C153.065 551.723 152.81 551.515 152.624 551.248C152.442 550.978 152.351 550.687 152.351 550.374H153.254C153.27 550.677 153.391 550.918 153.615 551.097C153.843 551.272 154.143 551.36 154.514 551.36C154.855 551.36 155.129 551.292 155.334 551.155C155.542 551.015 155.646 550.83 155.646 550.599Z" fill="#4000C7"/>
<path d="M149.746 522.016L143.938 516.252C143.776 516.091 143.558 516 143.328 516H131.864C131.386 516 131 516.383 131 516.857V539.143C131 539.617 131.386 540 131.864 540H149.136C149.614 540 150 539.617 150 539.143V522.624C150 522.396 149.908 522.177 149.746 522.016ZM148.008 523.018H142.929V517.977L148.008 523.018ZM148.057 538.071H132.943V517.929H141.094V523.714C141.094 524.013 141.213 524.299 141.426 524.51C141.638 524.721 141.927 524.839 142.227 524.839H148.057V538.071ZM140.284 530.839H135.318C135.199 530.839 135.102 530.936 135.102 531.054V532.339C135.102 532.457 135.199 532.554 135.318 532.554H140.284C140.403 532.554 140.5 532.457 140.5 532.339V531.054C140.5 530.936 140.403 530.839 140.284 530.839ZM135.102 527.411V528.696C135.102 528.814 135.199 528.911 135.318 528.911H145.682C145.801 528.911 145.898 528.814 145.898 528.696V527.411C145.898 527.293 145.801 527.196 145.682 527.196H135.318C135.199 527.196 135.102 527.293 135.102 527.411Z" fill="#4000C7"/>
<line x1="140.5" y1="76" x2="140.5" y2="516" stroke="#4000C7"/>
<circle cx="140.5" cy="68.5" r="9.5" fill="#4000C7"/>
<circle cx="220.5" cy="68.5" r="9" fill="white" stroke="#4000C7" stroke-dasharray="2 2"/>
<rect x="237.031" y="85.2095" width="18" height="41" rx="5" transform="rotate(-64.2277 237.031 85.2095)" fill="black"/>
<path d="M233.739 73.6266L242.675 74.0942L239.662 80.3332L233.739 73.6266Z" fill="black"/>
<path d="M250.791 79.2192L250.535 79.8113C251.137 79.5452 251.764 79.5693 252.415 79.8838C253.147 80.2372 253.51 80.7583 253.503 81.4471C253.799 81.2796 254.122 81.1854 254.475 81.1646C254.83 81.1452 255.198 81.2274 255.578 81.4111C256.726 81.9654 257.016 82.855 256.449 84.08L254.756 87.5867L253.861 87.1547L255.528 83.7012C255.709 83.3271 255.758 83.0069 255.676 82.7406C255.595 82.4711 255.353 82.239 254.95 82.0444C254.618 81.884 254.294 81.8509 253.978 81.9449C253.664 82.0358 253.408 82.2403 253.211 82.5585L251.534 86.0314L250.635 85.597L252.29 82.1677C252.658 81.4067 252.469 80.8464 251.724 80.4867C251.137 80.2034 250.615 80.2595 250.158 80.655L248.313 84.4761L247.418 84.044L249.945 78.8106L250.791 79.2192ZM259.341 89.8006C259.339 89.6725 259.386 89.4685 259.481 89.1885C258.857 89.4197 258.256 89.396 257.679 89.1173C257.163 88.8682 256.809 88.5184 256.617 88.0678C256.43 87.6156 256.444 87.1654 256.661 86.7172C256.924 86.1722 257.334 85.8494 257.892 85.7488C258.454 85.6466 259.111 85.7768 259.862 86.1396L260.733 86.5599L260.931 86.1488C261.082 85.836 261.108 85.5426 261.01 85.2685C260.913 84.9911 260.683 84.7645 260.319 84.5886C259.999 84.4345 259.693 84.3858 259.399 84.4428C259.105 84.4997 258.903 84.6426 258.792 84.8715L257.893 84.4372C258.019 84.176 258.232 83.9688 258.533 83.8157C258.838 83.661 259.183 83.5889 259.567 83.5996C259.955 83.6119 260.339 83.7099 260.72 83.8936C261.323 84.1847 261.722 84.5644 261.917 85.0325C262.114 85.4974 262.092 85.9974 261.849 86.5324L260.686 88.9412C260.454 89.4216 260.331 89.8333 260.317 90.1763L260.279 90.2536L259.341 89.8006ZM258.185 88.4017C258.466 88.5371 258.767 88.593 259.088 88.5693C259.41 88.5457 259.683 88.445 259.908 88.2673L260.427 87.1935L259.725 86.8549C258.629 86.3256 257.926 86.3817 257.616 87.0234C257.481 87.304 257.468 87.5684 257.579 87.8167C257.69 88.065 257.892 88.26 258.185 88.4017ZM262.47 91.3115L261.576 90.8795L264.102 85.6461L264.997 86.0781L262.47 91.3115ZM264.7 84.2229C264.77 84.0778 264.873 83.9762 265.008 83.9183C265.147 83.862 265.303 83.8758 265.477 83.9599C265.651 84.0439 265.759 84.1578 265.801 84.3013C265.843 84.4449 265.829 84.5892 265.759 84.7343C265.689 84.8794 265.586 84.9785 265.449 85.0317C265.312 85.0848 265.156 85.0694 264.982 84.9853C264.808 84.9012 264.699 84.789 264.655 84.6487C264.615 84.5099 264.63 84.368 264.7 84.2229ZM267.28 87.1804L266.992 87.8522C267.634 87.5422 268.278 87.5429 268.923 87.8543C270.029 88.3883 270.286 89.2816 269.693 90.5342L268.023 93.9925L267.128 93.5605L268.8 90.0973C268.979 89.7185 269.027 89.3975 268.943 89.1344C268.863 88.8729 268.643 88.6557 268.285 88.4829C267.995 88.3428 267.703 88.2972 267.409 88.3461C267.115 88.395 266.846 88.5156 266.602 88.708L264.802 92.4372L263.907 92.0051L266.434 86.7717L267.28 87.1804Z" fill="white"/>
<line x1="149" y1="68.5" x2="211" y2="68.5" stroke="#4000C7"/>
</svg>
