<svg width="1152" height="587" viewBox="0 0 1152 587" fill="none" xmlns="http://www.w3.org/2000/svg">
<path d="M0 0H1152V587H0V0Z" fill="white" fill-opacity="0.01"/>
<path d="M312.048 152H311.14V145.979L309.318 146.648V145.828L311.906 144.856H312.048V152ZM314.567 149.314C314.567 148.504 314.759 147.853 315.144 147.361C315.528 146.867 316.031 146.619 316.652 146.619C317.271 146.619 317.761 146.831 318.122 147.254V144.5H319.025V152H318.195L318.151 151.434C317.79 151.876 317.287 152.098 316.643 152.098C316.031 152.098 315.531 151.847 315.144 151.346C314.759 150.844 314.567 150.19 314.567 149.383V149.314ZM315.471 149.417C315.471 150.016 315.594 150.485 315.842 150.823C316.089 151.162 316.431 151.331 316.867 151.331C317.44 151.331 317.858 151.074 318.122 150.56V148.133C317.852 147.635 317.437 147.386 316.877 147.386C316.434 147.386 316.089 147.557 315.842 147.898C315.594 148.24 315.471 148.746 315.471 149.417ZM322.624 152.098C321.908 152.098 321.325 151.863 320.876 151.395C320.427 150.923 320.202 150.293 320.202 149.505V149.339C320.202 148.815 320.301 148.348 320.5 147.938C320.702 147.524 320.982 147.202 321.34 146.971C321.701 146.736 322.092 146.619 322.512 146.619C323.199 146.619 323.732 146.845 324.113 147.298C324.494 147.75 324.685 148.398 324.685 149.241V149.617H321.105C321.118 150.138 321.27 150.56 321.56 150.882C321.853 151.201 322.224 151.36 322.673 151.36C322.992 151.36 323.262 151.295 323.483 151.165C323.705 151.035 323.898 150.862 324.064 150.647L324.616 151.077C324.174 151.757 323.509 152.098 322.624 152.098ZM322.512 147.361C322.147 147.361 321.841 147.495 321.594 147.762C321.346 148.025 321.193 148.396 321.135 148.875H323.781V148.807C323.755 148.348 323.632 147.993 323.41 147.742C323.189 147.488 322.889 147.361 322.512 147.361ZM329.953 146.746C329.953 147.101 329.859 147.417 329.67 147.693C329.484 147.97 329.232 148.187 328.913 148.343C329.284 148.502 329.577 148.735 329.792 149.041C330.01 149.347 330.119 149.694 330.119 150.081C330.119 150.696 329.911 151.186 329.494 151.551C329.081 151.915 328.535 152.098 327.858 152.098C327.175 152.098 326.626 151.915 326.213 151.551C325.803 151.183 325.598 150.693 325.598 150.081C325.598 149.697 325.702 149.35 325.91 149.041C326.122 148.732 326.413 148.497 326.784 148.338C326.468 148.182 326.219 147.965 326.037 147.688C325.855 147.412 325.764 147.098 325.764 146.746C325.764 146.147 325.956 145.672 326.34 145.32C326.724 144.969 327.23 144.793 327.858 144.793C328.483 144.793 328.988 144.969 329.372 145.32C329.759 145.672 329.953 146.147 329.953 146.746ZM329.216 150.062C329.216 149.664 329.089 149.34 328.835 149.09C328.584 148.839 328.256 148.714 327.849 148.714C327.442 148.714 327.115 148.838 326.867 149.085C326.623 149.332 326.501 149.658 326.501 150.062C326.501 150.465 326.62 150.783 326.857 151.014C327.098 151.245 327.432 151.36 327.858 151.36C328.282 151.36 328.614 151.245 328.854 151.014C329.095 150.779 329.216 150.462 329.216 150.062ZM327.858 145.535C327.504 145.535 327.215 145.646 326.994 145.867C326.776 146.085 326.667 146.383 326.667 146.761C326.667 147.122 326.774 147.415 326.989 147.64C327.207 147.861 327.497 147.972 327.858 147.972C328.22 147.972 328.508 147.861 328.723 147.64C328.941 147.415 329.05 147.122 329.05 146.761C329.05 146.399 328.938 146.105 328.713 145.877C328.488 145.649 328.203 145.535 327.858 145.535ZM335.847 145.398L332.902 152H331.955L334.89 145.633H331.042V144.891H335.847V145.398ZM341.53 152H336.872V151.351L339.333 148.616C339.698 148.203 339.948 147.868 340.085 147.61C340.225 147.35 340.295 147.081 340.295 146.805C340.295 146.434 340.183 146.129 339.958 145.892C339.733 145.654 339.434 145.535 339.06 145.535C338.61 145.535 338.26 145.664 338.01 145.921C337.762 146.175 337.639 146.53 337.639 146.985H336.735C336.735 146.331 336.945 145.802 337.365 145.398C337.788 144.995 338.353 144.793 339.06 144.793C339.72 144.793 340.243 144.967 340.627 145.315C341.011 145.66 341.203 146.121 341.203 146.697C341.203 147.397 340.757 148.23 339.865 149.197L337.961 151.263H341.53V152ZM347.053 149.417C347.053 150.224 346.867 150.874 346.496 151.365C346.125 151.854 345.627 152.098 345.002 152.098C344.335 152.098 343.819 151.862 343.454 151.39L343.41 152H342.58V144.5H343.483V147.298C343.848 146.845 344.351 146.619 344.992 146.619C345.633 146.619 346.136 146.862 346.501 147.347C346.869 147.832 347.053 148.496 347.053 149.339V149.417ZM346.149 149.314C346.149 148.699 346.031 148.224 345.793 147.889C345.555 147.553 345.214 147.386 344.768 147.386C344.172 147.386 343.744 147.662 343.483 148.216V150.501C343.76 151.054 344.191 151.331 344.777 151.331C345.21 151.331 345.547 151.163 345.788 150.828C346.029 150.493 346.149 149.988 346.149 149.314ZM313.291 157.31H311.481V156H310.671V157.31H308.881V157.97H313.291V157.31ZM311.081 161.99C310.401 161.99 309.921 161.42 309.921 160.63C309.921 159.84 310.401 159.27 311.081 159.27C311.741 159.27 312.231 159.84 312.231 160.63C312.231 161.42 311.741 161.99 311.081 161.99ZM311.081 158.58C309.991 158.58 309.201 159.42 309.201 160.63C309.201 161.84 309.991 162.68 311.081 162.68C312.161 162.68 312.951 161.84 312.951 160.63C312.951 159.42 312.161 158.58 311.081 158.58ZM314.041 159.23H313.041V159.92H314.041V164.29H314.821V155.97H314.041V159.23ZM315.731 155.77V164.74H316.511V155.77H315.731ZM319.361 157.3H322.621V156.62H318.541V162.54H319.231C320.931 162.54 322.011 162.48 323.311 162.24L323.211 161.56C322.001 161.79 320.951 161.85 319.361 161.85V157.3ZM324.661 155.77V159.02H322.091V159.7H324.661V164.76H325.481V155.77H324.661ZM330.58 160.51C331.97 160.3 333.26 159.61 333.83 158.64C334.4 159.61 335.68 160.3 337.07 160.51L337.36 159.85C335.76 159.63 334.24 158.64 334.24 157.54H337.1V156.88H334.24V155.77H333.42V156.88H330.56V157.54H333.41C333.41 158.65 331.9 159.63 330.28 159.85L330.58 160.51ZM337.89 161.19H329.78V161.86H333.42V164.75H334.24V161.86H337.89V161.19ZM339.449 156.73V157.41H342.739C342.549 159.53 341.319 161.25 339.029 162.4L339.479 163.04C342.379 161.59 343.549 159.28 343.549 156.73H339.449ZM347.309 159.41H345.869V155.77H345.049V164.74H345.869V160.09H347.309V159.41Z" fill="black"/>
<path d="M392.905 180.746C392.905 181.101 392.811 181.417 392.622 181.693C392.437 181.97 392.184 182.187 391.865 182.343C392.236 182.502 392.529 182.735 392.744 183.041C392.962 183.347 393.071 183.694 393.071 184.081C393.071 184.696 392.863 185.186 392.446 185.551C392.033 185.915 391.488 186.098 390.811 186.098C390.127 186.098 389.578 185.915 389.165 185.551C388.755 185.183 388.55 184.693 388.55 184.081C388.55 183.697 388.654 183.35 388.862 183.041C389.074 182.732 389.365 182.497 389.736 182.338C389.421 182.182 389.172 181.965 388.989 181.688C388.807 181.412 388.716 181.098 388.716 180.746C388.716 180.147 388.908 179.672 389.292 179.32C389.676 178.969 390.182 178.793 390.811 178.793C391.436 178.793 391.94 178.969 392.324 179.32C392.712 179.672 392.905 180.147 392.905 180.746ZM392.168 184.062C392.168 183.664 392.041 183.34 391.787 183.09C391.536 182.839 391.208 182.714 390.801 182.714C390.394 182.714 390.067 182.838 389.819 183.085C389.575 183.332 389.453 183.658 389.453 184.062C389.453 184.465 389.572 184.783 389.81 185.014C390.05 185.245 390.384 185.36 390.811 185.36C391.234 185.36 391.566 185.245 391.807 185.014C392.048 184.779 392.168 184.462 392.168 184.062ZM390.811 179.535C390.456 179.535 390.168 179.646 389.946 179.867C389.728 180.085 389.619 180.383 389.619 180.761C389.619 181.122 389.727 181.415 389.941 181.64C390.16 181.861 390.449 181.972 390.811 181.972C391.172 181.972 391.46 181.861 391.675 181.64C391.893 181.415 392.002 181.122 392.002 180.761C392.002 180.399 391.89 180.105 391.665 179.877C391.44 179.649 391.156 179.535 390.811 179.535ZM398.867 186H394.209V185.351L396.67 182.616C397.035 182.203 397.285 181.868 397.422 181.61C397.562 181.35 397.632 181.081 397.632 180.805C397.632 180.434 397.52 180.129 397.295 179.892C397.07 179.654 396.771 179.535 396.396 179.535C395.947 179.535 395.597 179.664 395.347 179.921C395.099 180.175 394.976 180.53 394.976 180.985H394.072C394.072 180.331 394.282 179.802 394.702 179.398C395.125 178.995 395.69 178.793 396.396 178.793C397.057 178.793 397.58 178.967 397.964 179.315C398.348 179.66 398.54 180.121 398.54 180.697C398.54 181.397 398.094 182.23 397.202 183.197L395.298 185.263H398.867V186ZM404.414 179.398L401.47 186H400.522L403.457 179.633H399.609V178.891H404.414V179.398ZM408.901 182.875C408.713 183.1 408.486 183.28 408.223 183.417C407.962 183.554 407.676 183.622 407.363 183.622C406.953 183.622 406.595 183.521 406.289 183.319C405.986 183.118 405.752 182.834 405.586 182.47C405.42 182.102 405.337 181.697 405.337 181.254C405.337 180.779 405.426 180.351 405.605 179.97C405.788 179.589 406.045 179.298 406.377 179.096C406.709 178.894 407.096 178.793 407.539 178.793C408.242 178.793 408.796 179.057 409.199 179.584C409.606 180.108 409.81 180.824 409.81 181.732V181.996C409.81 183.38 409.536 184.39 408.989 185.028C408.442 185.663 407.617 185.989 406.514 186.005H406.338V185.243H406.528C407.274 185.23 407.847 185.036 408.247 184.662C408.647 184.285 408.866 183.689 408.901 182.875ZM407.51 182.875C407.812 182.875 408.091 182.782 408.345 182.597C408.602 182.411 408.789 182.182 408.906 181.908V181.547C408.906 180.954 408.778 180.473 408.521 180.102C408.263 179.73 407.938 179.545 407.544 179.545C407.147 179.545 406.828 179.698 406.587 180.004C406.346 180.307 406.226 180.707 406.226 181.205C406.226 181.69 406.341 182.09 406.572 182.406C406.807 182.719 407.119 182.875 407.51 182.875ZM415.513 182.968C415.513 184.026 415.332 184.812 414.971 185.326C414.609 185.84 414.045 186.098 413.276 186.098C412.518 186.098 411.956 185.847 411.592 185.346C411.227 184.841 411.038 184.089 411.025 183.09V181.884C411.025 180.839 411.206 180.062 411.567 179.555C411.929 179.047 412.495 178.793 413.267 178.793C414.032 178.793 414.595 179.039 414.956 179.53C415.317 180.019 415.503 180.774 415.513 181.796V182.968ZM414.609 181.732C414.609 180.967 414.502 180.411 414.287 180.062C414.072 179.711 413.732 179.535 413.267 179.535C412.804 179.535 412.467 179.709 412.256 180.058C412.044 180.406 411.935 180.941 411.929 181.664V183.109C411.929 183.878 412.039 184.446 412.261 184.813C412.485 185.178 412.824 185.36 413.276 185.36C413.722 185.36 414.053 185.188 414.268 184.843C414.486 184.498 414.6 183.954 414.609 183.212V181.732ZM421.328 186H416.67V185.351L419.131 182.616C419.495 182.203 419.746 181.868 419.883 181.61C420.023 181.35 420.093 181.081 420.093 180.805C420.093 180.434 419.98 180.129 419.756 179.892C419.531 179.654 419.232 179.535 418.857 179.535C418.408 179.535 418.058 179.664 417.808 179.921C417.56 180.175 417.437 180.53 417.437 180.985H416.533C416.533 180.331 416.743 179.802 417.163 179.398C417.586 178.995 418.151 178.793 418.857 178.793C419.518 178.793 420.041 178.967 420.425 179.315C420.809 179.66 421.001 180.121 421.001 180.697C421.001 181.397 420.555 182.23 419.663 183.197L417.759 185.263H421.328V186ZM424.57 186.098C423.854 186.098 423.271 185.863 422.822 185.395C422.373 184.923 422.148 184.293 422.148 183.505V183.339C422.148 182.815 422.248 182.348 422.446 181.938C422.648 181.524 422.928 181.202 423.286 180.971C423.647 180.736 424.038 180.619 424.458 180.619C425.145 180.619 425.679 180.845 426.06 181.298C426.44 181.75 426.631 182.398 426.631 183.241V183.617H423.052C423.065 184.138 423.216 184.56 423.506 184.882C423.799 185.201 424.17 185.36 424.619 185.36C424.938 185.36 425.208 185.295 425.43 185.165C425.651 185.035 425.845 184.862 426.011 184.647L426.562 185.077C426.12 185.757 425.456 186.098 424.57 186.098ZM424.458 181.361C424.093 181.361 423.787 181.495 423.54 181.762C423.293 182.025 423.14 182.396 423.081 182.875H425.728V182.807C425.701 182.348 425.578 181.993 425.356 181.742C425.135 181.488 424.836 181.361 424.458 181.361ZM376.562 192.717L376.587 193.303C376.974 192.847 377.497 192.619 378.154 192.619C378.893 192.619 379.396 192.902 379.663 193.469C379.839 193.215 380.067 193.01 380.347 192.854C380.63 192.697 380.964 192.619 381.348 192.619C382.507 192.619 383.096 193.233 383.115 194.46V198H382.212V194.514C382.212 194.136 382.126 193.854 381.953 193.669C381.781 193.48 381.491 193.386 381.084 193.386C380.749 193.386 380.47 193.487 380.249 193.688C380.028 193.887 379.899 194.156 379.863 194.494V198H378.955V194.538C378.955 193.77 378.579 193.386 377.827 193.386C377.235 193.386 376.829 193.638 376.611 194.143V198H375.708V192.717H376.562ZM386.675 198.098C385.959 198.098 385.376 197.863 384.927 197.395C384.478 196.923 384.253 196.293 384.253 195.505V195.339C384.253 194.815 384.352 194.348 384.551 193.938C384.753 193.524 385.033 193.202 385.391 192.971C385.752 192.736 386.143 192.619 386.562 192.619C387.249 192.619 387.783 192.845 388.164 193.298C388.545 193.75 388.735 194.398 388.735 195.241V195.617H385.156C385.169 196.138 385.321 196.56 385.61 196.882C385.903 197.201 386.274 197.36 386.724 197.36C387.043 197.36 387.313 197.295 387.534 197.165C387.756 197.035 387.949 196.862 388.115 196.647L388.667 197.077C388.224 197.757 387.56 198.098 386.675 198.098ZM386.562 193.361C386.198 193.361 385.892 193.495 385.645 193.762C385.397 194.025 385.244 194.396 385.186 194.875H387.832V194.807C387.806 194.348 387.682 193.993 387.461 193.742C387.24 193.488 386.94 193.361 386.562 193.361ZM392.339 193.527C392.202 193.505 392.054 193.493 391.895 193.493C391.302 193.493 390.9 193.745 390.688 194.25V198H389.785V192.717H390.664L390.679 193.327C390.975 192.855 391.395 192.619 391.938 192.619C392.114 192.619 392.248 192.642 392.339 192.688V193.527ZM392.861 195.314C392.861 194.491 393.052 193.837 393.433 193.352C393.813 192.863 394.318 192.619 394.946 192.619C395.591 192.619 396.094 192.847 396.455 193.303L396.499 192.717H397.324V197.873C397.324 198.557 397.121 199.095 396.714 199.489C396.31 199.883 395.767 200.08 395.083 200.08C394.702 200.08 394.329 199.999 393.965 199.836C393.6 199.673 393.322 199.45 393.13 199.167L393.599 198.625C393.986 199.104 394.46 199.343 395.02 199.343C395.459 199.343 395.801 199.219 396.045 198.972C396.292 198.724 396.416 198.376 396.416 197.927V197.473C396.055 197.889 395.562 198.098 394.937 198.098C394.318 198.098 393.817 197.849 393.433 197.351C393.052 196.853 392.861 196.174 392.861 195.314ZM393.77 195.417C393.77 196.013 393.892 196.481 394.136 196.823C394.38 197.162 394.722 197.331 395.161 197.331C395.731 197.331 396.149 197.072 396.416 196.555V194.143C396.139 193.638 395.724 193.386 395.171 193.386C394.731 193.386 394.388 193.557 394.141 193.898C393.893 194.24 393.77 194.746 393.77 195.417ZM400.884 198.098C400.168 198.098 399.585 197.863 399.136 197.395C398.687 196.923 398.462 196.293 398.462 195.505V195.339C398.462 194.815 398.561 194.348 398.76 193.938C398.962 193.524 399.242 193.202 399.6 192.971C399.961 192.736 400.352 192.619 400.771 192.619C401.458 192.619 401.992 192.845 402.373 193.298C402.754 193.75 402.944 194.398 402.944 195.241V195.617H399.365C399.378 196.138 399.53 196.56 399.819 196.882C400.112 197.201 400.483 197.36 400.933 197.36C401.252 197.36 401.522 197.295 401.743 197.165C401.965 197.035 402.158 196.862 402.324 196.647L402.876 197.077C402.433 197.757 401.769 198.098 400.884 198.098ZM400.771 193.361C400.407 193.361 400.101 193.495 399.854 193.762C399.606 194.025 399.453 194.396 399.395 194.875H402.041V194.807C402.015 194.348 401.891 193.993 401.67 193.742C401.449 193.488 401.149 193.361 400.771 193.361ZM408.594 197.36C408.916 197.36 409.198 197.263 409.438 197.067C409.679 196.872 409.813 196.628 409.839 196.335H410.693C410.677 196.638 410.573 196.926 410.381 197.199C410.189 197.473 409.932 197.691 409.609 197.854C409.29 198.016 408.952 198.098 408.594 198.098C407.874 198.098 407.301 197.858 406.875 197.38C406.452 196.898 406.24 196.241 406.24 195.407V195.256C406.24 194.742 406.335 194.284 406.523 193.884C406.712 193.483 406.982 193.173 407.334 192.951C407.689 192.73 408.107 192.619 408.589 192.619C409.181 192.619 409.673 192.797 410.063 193.151C410.457 193.506 410.667 193.967 410.693 194.533H409.839C409.813 194.191 409.683 193.911 409.448 193.693C409.217 193.472 408.931 193.361 408.589 193.361C408.13 193.361 407.773 193.527 407.52 193.859C407.269 194.188 407.144 194.665 407.144 195.29V195.461C407.144 196.07 407.269 196.538 407.52 196.867C407.77 197.196 408.128 197.36 408.594 197.36ZM411.47 195.31C411.47 194.792 411.571 194.326 411.772 193.913C411.978 193.5 412.261 193.181 412.622 192.956C412.987 192.731 413.402 192.619 413.867 192.619C414.587 192.619 415.168 192.868 415.61 193.366C416.056 193.864 416.279 194.527 416.279 195.354V195.417C416.279 195.931 416.18 196.394 415.981 196.804C415.786 197.211 415.505 197.528 415.137 197.756C414.772 197.984 414.352 198.098 413.877 198.098C413.161 198.098 412.58 197.849 412.134 197.351C411.691 196.853 411.47 196.193 411.47 195.373V195.31ZM412.378 195.417C412.378 196.003 412.513 196.473 412.783 196.828C413.057 197.183 413.421 197.36 413.877 197.36C414.336 197.36 414.701 197.181 414.971 196.823C415.241 196.462 415.376 195.957 415.376 195.31C415.376 194.73 415.238 194.261 414.961 193.903C414.688 193.542 414.323 193.361 413.867 193.361C413.421 193.361 413.062 193.539 412.788 193.894C412.515 194.248 412.378 194.756 412.378 195.417ZM418.262 192.717L418.286 193.303C418.674 192.847 419.196 192.619 419.854 192.619C420.592 192.619 421.095 192.902 421.362 193.469C421.538 193.215 421.766 193.01 422.046 192.854C422.329 192.697 422.663 192.619 423.047 192.619C424.206 192.619 424.795 193.233 424.814 194.46V198H423.911V194.514C423.911 194.136 423.825 193.854 423.652 193.669C423.48 193.48 423.19 193.386 422.783 193.386C422.448 193.386 422.17 193.487 421.948 193.688C421.727 193.887 421.598 194.156 421.562 194.494V198H420.654V194.538C420.654 193.77 420.278 193.386 419.526 193.386C418.934 193.386 418.529 193.638 418.311 194.143V198H417.407V192.717H418.262ZM427.031 192.717L427.056 193.303C427.443 192.847 427.965 192.619 428.623 192.619C429.362 192.619 429.865 192.902 430.132 193.469C430.308 193.215 430.535 193.01 430.815 192.854C431.099 192.697 431.432 192.619 431.816 192.619C432.975 192.619 433.564 193.233 433.584 194.46V198H432.681V194.514C432.681 194.136 432.594 193.854 432.422 193.669C432.249 193.48 431.96 193.386 431.553 193.386C431.217 193.386 430.939 193.487 430.718 193.688C430.496 193.887 430.368 194.156 430.332 194.494V198H429.424V194.538C429.424 193.77 429.048 193.386 428.296 193.386C427.703 193.386 427.298 193.638 427.08 194.143V198H426.177V192.717H427.031ZM435.933 198H435.029V192.717H435.933V198ZM434.956 191.315C434.956 191.169 435 191.045 435.088 190.944C435.179 190.843 435.312 190.793 435.488 190.793C435.664 190.793 435.798 190.843 435.889 190.944C435.98 191.045 436.025 191.169 436.025 191.315C436.025 191.462 435.98 191.584 435.889 191.682C435.798 191.779 435.664 191.828 435.488 191.828C435.312 191.828 435.179 191.779 435.088 191.682C435 191.584 434.956 191.462 434.956 191.315ZM438.608 191.438V192.717H439.595V193.415H438.608V196.691C438.608 196.903 438.652 197.062 438.74 197.17C438.828 197.274 438.978 197.326 439.189 197.326C439.294 197.326 439.437 197.307 439.619 197.268V198C439.382 198.065 439.15 198.098 438.926 198.098C438.522 198.098 438.218 197.976 438.013 197.731C437.808 197.487 437.705 197.141 437.705 196.691V193.415H436.743V192.717H437.705V191.438H438.608Z" fill="black"/>
<rect x="443" y="320" width="88" height="27" rx="13.5" fill="#7D7D7D"/>
<path d="M463.241 330.408V331.279H465.204V332.852H463.241V333.723H465.204V336.193H466.283V327.314H465.204V330.408H463.241ZM463.241 328.731H460.563V327.288H459.497V328.731H456.715V329.589H463.241V328.731ZM458.392 332.449C458.392 331.63 459.055 331.071 460.017 331.071C460.979 331.071 461.642 331.63 461.642 332.449C461.642 333.281 460.979 333.853 460.017 333.853C459.055 333.853 458.392 333.281 458.392 332.449ZM462.656 332.449C462.656 331.123 461.564 330.239 460.017 330.239C458.47 330.239 457.378 331.123 457.378 332.449C457.378 333.788 458.47 334.685 460.017 334.685C461.564 334.685 462.656 333.788 462.656 332.449ZM459.861 337.831V335.439H458.795V338.702H466.556V337.831H459.861ZM472.093 329.55H474.212V328.679H468.804V329.55H471.066V330.46C471.066 332.826 470.195 334.815 468.531 335.751L469.181 336.557C470.39 335.855 471.209 334.594 471.599 333.008C472.015 334.386 472.821 335.517 473.965 336.154L474.589 335.335C472.938 334.477 472.093 332.592 472.093 330.46V329.55ZM477.566 327.288V332.007H476.032V327.561H475.031V338.39H476.032V332.891H477.566V338.962H478.593V327.288H477.566ZM493.4 327.314H492.334V335.842H493.4V327.314ZM490.956 333.333C489.24 332.761 488.031 331.344 488.031 329.771V329.134H490.67V328.276H484.274V329.134H486.939V329.771C486.939 331.435 485.756 332.956 483.988 333.567L484.547 334.399C485.925 333.905 487.004 332.852 487.498 331.526C488.031 332.748 489.097 333.71 490.436 334.178L490.956 333.333ZM486.965 337.831V335.036H485.899V338.702H493.751V337.831H486.965ZM503.123 331.344H504.605V334.685H505.632V327.301H504.605V330.473H503.123V327.522H502.109V334.256H503.123V331.344ZM501.641 328.692H499.223V327.392H498.17V328.692H495.726V329.537H501.654L501.641 328.692ZM497.169 332.137C497.169 331.422 497.78 330.941 498.703 330.941C499.613 330.941 500.237 331.422 500.237 332.137C500.237 332.865 499.613 333.346 498.703 333.346C497.78 333.346 497.169 332.865 497.169 332.137ZM501.186 332.137C501.186 330.941 500.172 330.148 498.703 330.148C497.234 330.148 496.207 330.941 496.207 332.137C496.207 333.359 497.234 334.139 498.703 334.139C500.172 334.139 501.186 333.359 501.186 332.137ZM501.797 338.13C500.016 338.13 498.95 337.688 498.95 336.921C498.95 336.141 500.016 335.699 501.797 335.699C503.565 335.699 504.631 336.141 504.631 336.921C504.631 337.688 503.565 338.13 501.797 338.13ZM501.797 334.88C499.366 334.88 497.897 335.608 497.897 336.921C497.897 338.221 499.366 338.949 501.797 338.949C504.228 338.949 505.697 338.221 505.697 336.921C505.697 335.608 504.228 334.88 501.797 334.88ZM508.725 332.059C510.636 331.825 512.391 330.967 513.028 329.68C513.678 330.967 515.42 331.825 517.331 332.059L517.708 331.214C515.667 330.98 513.808 329.979 513.717 328.692H517.344V327.834H508.725V328.692H512.339C512.248 329.979 510.389 330.98 508.348 331.214L508.725 332.059ZM515.927 336.895C515.927 337.675 514.835 338.13 513.015 338.13C511.182 338.13 510.103 337.675 510.103 336.895C510.103 336.115 511.182 335.673 513.015 335.673C514.835 335.673 515.927 336.115 515.927 336.895ZM518.293 333.619V332.761H507.75V333.619H512.482V334.867C510.311 334.971 509.024 335.686 509.024 336.895C509.024 338.221 510.532 338.949 513.028 338.949C515.511 338.949 517.006 338.221 517.006 336.895C517.006 335.686 515.732 334.971 513.561 334.867V333.619H518.293Z" fill="white"/>
<path d="M165.559 206C160.694 196.652 185.557 175.945 321 177.042" stroke="#4000C7"/>
<path d="M406.738 206C409.015 196.652 397.38 175.945 334 177.042" stroke="#4000C7"/>
<rect x="434.824" y="220.124" width="18" height="41" rx="5" transform="rotate(-90.1738 434.824 220.124)" fill="black"/>
<rect x="514.824" y="375.124" width="18" height="41" rx="5" transform="rotate(-90.1738 514.824 375.124)" fill="black"/>
<path d="M427.001 211.193L435.251 207.73L435.25 214.659L427.001 211.193Z" fill="black"/>
<path d="M507.001 366.193L515.251 362.73L515.25 369.659L507.001 366.193Z" fill="black"/>
<path d="M444.603 208.737L444.63 209.382C445.056 208.88 445.631 208.629 446.354 208.629C447.167 208.629 447.72 208.941 448.014 209.564C448.207 209.284 448.458 209.059 448.766 208.887C449.077 208.715 449.444 208.629 449.867 208.629C451.142 208.628 451.79 209.303 451.812 210.653L451.812 214.547L450.819 214.547L450.818 210.712C450.818 210.297 450.723 209.987 450.533 209.783C450.343 209.576 450.025 209.472 449.577 209.472C449.208 209.472 448.902 209.583 448.659 209.805C448.415 210.024 448.274 210.319 448.235 210.691L448.235 214.548L447.236 214.548L447.235 210.74C447.235 209.895 446.822 209.472 445.995 209.473C445.343 209.473 444.897 209.75 444.657 210.305L444.658 214.549L443.664 214.549L443.663 208.737L444.603 208.737ZM456.904 214.546C456.847 214.432 456.8 214.228 456.764 213.934C456.303 214.414 455.751 214.654 455.11 214.654C454.537 214.654 454.066 214.493 453.698 214.171C453.332 213.845 453.15 213.433 453.149 212.936C453.149 212.331 453.378 211.861 453.837 211.528C454.299 211.192 454.947 211.023 455.781 211.023L456.748 211.023L456.748 210.566C456.748 210.219 456.644 209.943 456.436 209.739C456.228 209.532 455.922 209.428 455.517 209.428C455.163 209.428 454.866 209.518 454.626 209.697C454.386 209.876 454.266 210.092 454.266 210.347L453.267 210.347C453.267 210.057 453.369 209.777 453.573 209.509C453.781 209.237 454.06 209.022 454.411 208.864C454.765 208.707 455.154 208.628 455.576 208.628C456.246 208.627 456.771 208.796 457.15 209.132C457.53 209.465 457.727 209.925 457.741 210.512L457.742 213.187C457.742 213.721 457.81 214.145 457.946 214.46L457.946 214.546L456.904 214.546ZM455.255 213.789C455.567 213.789 455.862 213.709 456.141 213.547C456.421 213.386 456.623 213.177 456.748 212.919L456.748 211.726L455.969 211.727C454.752 211.727 454.143 212.083 454.143 212.796C454.143 213.107 454.247 213.351 454.455 213.526C454.662 213.702 454.929 213.789 455.255 213.789ZM460.379 214.546L459.386 214.546L459.385 208.734L460.378 208.734L460.379 214.546ZM459.304 207.193C459.304 207.032 459.352 206.896 459.449 206.785C459.549 206.674 459.696 206.618 459.889 206.618C460.082 206.618 460.229 206.673 460.33 206.784C460.43 206.895 460.48 207.031 460.48 207.193C460.48 207.354 460.43 207.488 460.33 207.595C460.229 207.703 460.083 207.757 459.889 207.757C459.696 207.757 459.549 207.703 459.449 207.596C459.352 207.488 459.304 207.354 459.304 207.193ZM462.913 208.734L462.946 209.464C463.39 208.905 463.97 208.626 464.686 208.626C465.914 208.626 466.534 209.318 466.545 210.704L466.545 214.545L465.552 214.545L465.551 210.699C465.547 210.28 465.451 209.97 465.261 209.77C465.074 209.569 464.783 209.469 464.385 209.469C464.063 209.469 463.78 209.555 463.537 209.727C463.293 209.899 463.103 210.125 462.967 210.404L462.968 214.545L461.974 214.545L461.973 208.734L462.913 208.734Z" fill="white"/>
<path d="M524.603 363.737L524.63 364.382C525.056 363.88 525.631 363.629 526.354 363.629C527.167 363.629 527.72 363.941 528.014 364.564C528.207 364.284 528.458 364.059 528.766 363.887C529.077 363.715 529.444 363.629 529.867 363.629C531.142 363.628 531.79 364.303 531.812 365.653L531.812 369.547L530.819 369.547L530.818 365.712C530.818 365.297 530.723 364.987 530.533 364.783C530.343 364.576 530.025 364.472 529.577 364.472C529.208 364.472 528.902 364.583 528.659 364.805C528.415 365.024 528.274 365.319 528.235 365.691L528.235 369.548L527.236 369.548L527.235 365.74C527.235 364.895 526.822 364.472 525.995 364.473C525.343 364.473 524.897 364.75 524.657 365.305L524.658 369.549L523.664 369.549L523.663 363.737L524.603 363.737ZM536.904 369.546C536.847 369.432 536.8 369.228 536.764 368.934C536.303 369.414 535.751 369.654 535.11 369.654C534.537 369.654 534.066 369.493 533.698 369.171C533.332 368.845 533.15 368.433 533.149 367.936C533.149 367.331 533.378 366.861 533.837 366.528C534.299 366.192 534.947 366.023 535.781 366.023L536.748 366.023L536.748 365.566C536.748 365.219 536.644 364.943 536.436 364.739C536.228 364.532 535.922 364.428 535.517 364.428C535.163 364.428 534.866 364.518 534.626 364.697C534.386 364.876 534.266 365.092 534.266 365.347L533.267 365.347C533.267 365.057 533.369 364.777 533.573 364.509C533.781 364.237 534.06 364.022 534.411 363.864C534.765 363.707 535.154 363.628 535.576 363.628C536.246 363.627 536.771 363.796 537.15 364.132C537.53 364.465 537.727 364.925 537.741 365.512L537.742 368.187C537.742 368.721 537.81 369.145 537.946 369.46L537.946 369.546L536.904 369.546ZM535.255 368.789C535.567 368.789 535.862 368.709 536.141 368.547C536.421 368.386 536.623 368.177 536.748 367.919L536.748 366.726L535.969 366.727C534.752 366.727 534.143 367.083 534.143 367.796C534.143 368.107 534.247 368.351 534.455 368.526C534.662 368.702 534.929 368.789 535.255 368.789ZM540.379 369.546L539.386 369.546L539.385 363.734L540.378 363.734L540.379 369.546ZM539.304 362.193C539.304 362.032 539.352 361.896 539.449 361.785C539.549 361.674 539.696 361.618 539.889 361.618C540.082 361.618 540.229 361.673 540.33 361.784C540.43 361.895 540.48 362.031 540.48 362.193C540.48 362.354 540.43 362.488 540.33 362.595C540.229 362.703 540.083 362.757 539.889 362.757C539.696 362.757 539.549 362.703 539.449 362.596C539.352 362.488 539.304 362.354 539.304 362.193ZM542.913 363.734L542.946 364.464C543.39 363.905 543.97 363.626 544.686 363.626C545.914 363.626 546.534 364.318 546.545 365.704L546.545 369.545L545.552 369.545L545.551 365.699C545.547 365.28 545.451 364.97 545.261 364.77C545.074 364.569 544.783 364.469 544.385 364.469C544.063 364.469 543.78 364.555 543.537 364.727C543.293 364.899 543.103 365.125 542.967 365.404L542.968 369.545L541.974 369.545L541.973 363.734L542.913 363.734Z" fill="white"/>
<circle cx="487.5" cy="366.5" r="9" fill="white" stroke="#4000C7" stroke-dasharray="2 2"/>
<circle cx="406.5" cy="211.5" r="9.5" fill="#4000C7"/>
<circle cx="327.5" cy="176.5" r="9.5" fill="#4000C7"/>
<line x1="416" y1="366.5" x2="479" y2="366.5" stroke="#4000C7"/>
<line x1="248" y1="212.5" x2="397" y2="212.5" stroke="#4000C7"/>
<path d="M464.128 547V542.415H463.293V541.717H464.128V541.175C464.128 540.608 464.279 540.171 464.582 539.861C464.885 539.552 465.313 539.397 465.866 539.397C466.075 539.397 466.281 539.425 466.486 539.48L466.438 540.213C466.285 540.184 466.122 540.169 465.949 540.169C465.656 540.169 465.43 540.255 465.271 540.428C465.111 540.597 465.031 540.841 465.031 541.16V541.717H466.159V542.415H465.031V547H464.128ZM466.921 544.31C466.921 543.792 467.022 543.326 467.224 542.913C467.429 542.5 467.712 542.181 468.073 541.956C468.438 541.731 468.853 541.619 469.318 541.619C470.038 541.619 470.619 541.868 471.062 542.366C471.507 542.864 471.73 543.527 471.73 544.354V544.417C471.73 544.931 471.631 545.394 471.433 545.804C471.237 546.211 470.956 546.528 470.588 546.756C470.223 546.984 469.803 547.098 469.328 547.098C468.612 547.098 468.031 546.849 467.585 546.351C467.142 545.853 466.921 545.193 466.921 544.373V544.31ZM467.829 544.417C467.829 545.003 467.964 545.473 468.234 545.828C468.508 546.183 468.872 546.36 469.328 546.36C469.787 546.36 470.152 546.181 470.422 545.823C470.692 545.462 470.827 544.957 470.827 544.31C470.827 543.73 470.689 543.261 470.412 542.903C470.139 542.542 469.774 542.361 469.318 542.361C468.872 542.361 468.513 542.539 468.239 542.894C467.966 543.248 467.829 543.756 467.829 544.417ZM472.624 544.31C472.624 543.792 472.725 543.326 472.927 542.913C473.132 542.5 473.415 542.181 473.776 541.956C474.141 541.731 474.556 541.619 475.021 541.619C475.741 541.619 476.322 541.868 476.765 542.366C477.211 542.864 477.434 543.527 477.434 544.354V544.417C477.434 544.931 477.334 545.394 477.136 545.804C476.94 546.211 476.659 546.528 476.291 546.756C475.926 546.984 475.507 547.098 475.031 547.098C474.315 547.098 473.734 546.849 473.288 546.351C472.845 545.853 472.624 545.193 472.624 544.373V544.31ZM473.532 544.417C473.532 545.003 473.667 545.473 473.938 545.828C474.211 546.183 474.576 546.36 475.031 546.36C475.49 546.36 475.855 546.181 476.125 545.823C476.395 545.462 476.53 544.957 476.53 544.31C476.53 543.73 476.392 543.261 476.115 542.903C475.842 542.542 475.477 542.361 475.021 542.361C474.576 542.361 474.216 542.539 473.942 542.894C473.669 543.248 473.532 543.756 473.532 544.417ZM479.792 540.438V541.717H480.778V542.415H479.792V545.691C479.792 545.903 479.836 546.062 479.924 546.17C480.012 546.274 480.161 546.326 480.373 546.326C480.477 546.326 480.62 546.307 480.803 546.268V547C480.565 547.065 480.334 547.098 480.109 547.098C479.706 547.098 479.401 546.976 479.196 546.731C478.991 546.487 478.889 546.141 478.889 545.691V542.415H477.927V541.717H478.889V540.438H479.792ZM484.03 547.098C483.314 547.098 482.731 546.863 482.282 546.395C481.833 545.923 481.608 545.293 481.608 544.505V544.339C481.608 543.815 481.708 543.348 481.906 542.938C482.108 542.524 482.388 542.202 482.746 541.971C483.107 541.736 483.498 541.619 483.918 541.619C484.605 541.619 485.139 541.845 485.52 542.298C485.9 542.75 486.091 543.398 486.091 544.241V544.617H482.512C482.525 545.138 482.676 545.56 482.966 545.882C483.259 546.201 483.63 546.36 484.079 546.36C484.398 546.36 484.668 546.295 484.89 546.165C485.111 546.035 485.305 545.862 485.471 545.647L486.022 546.077C485.58 546.757 484.916 547.098 484.03 547.098ZM483.918 542.361C483.553 542.361 483.247 542.495 483 542.762C482.753 543.025 482.6 543.396 482.541 543.875H485.188V543.807C485.161 543.348 485.038 542.993 484.816 542.742C484.595 542.488 484.296 542.361 483.918 542.361ZM489.694 542.527C489.558 542.505 489.41 542.493 489.25 542.493C488.658 542.493 488.256 542.745 488.044 543.25V547H487.141V541.717H488.02L488.034 542.327C488.33 541.855 488.75 541.619 489.294 541.619C489.47 541.619 489.603 541.642 489.694 541.688V542.527ZM489.943 546.526C489.943 546.37 489.989 546.24 490.08 546.136C490.174 546.032 490.314 545.979 490.5 545.979C490.686 545.979 490.826 546.032 490.92 546.136C491.018 546.24 491.066 546.37 491.066 546.526C491.066 546.676 491.018 546.801 490.92 546.902C490.826 547.003 490.686 547.054 490.5 547.054C490.314 547.054 490.174 547.003 490.08 546.902C489.989 546.801 489.943 546.676 489.943 546.526ZM493.464 542.356C493.864 541.865 494.385 541.619 495.026 541.619C496.143 541.619 496.706 542.249 496.716 543.509V547H495.812V543.504C495.809 543.123 495.721 542.841 495.549 542.659C495.38 542.477 495.114 542.386 494.753 542.386C494.46 542.386 494.203 542.464 493.981 542.62C493.76 542.776 493.588 542.981 493.464 543.235V547H492.561V539.5H493.464V542.356ZM499.294 540.438V541.717H500.28V542.415H499.294V545.691C499.294 545.903 499.338 546.062 499.426 546.17C499.514 546.274 499.663 546.326 499.875 546.326C499.979 546.326 500.122 546.307 500.305 546.268V547C500.067 547.065 499.836 547.098 499.611 547.098C499.208 547.098 498.903 546.976 498.698 546.731C498.493 546.487 498.391 546.141 498.391 545.691V542.415H497.429V541.717H498.391V540.438H499.294ZM502.189 541.717L502.214 542.303C502.601 541.847 503.124 541.619 503.781 541.619C504.52 541.619 505.023 541.902 505.29 542.469C505.466 542.215 505.694 542.01 505.974 541.854C506.257 541.697 506.59 541.619 506.975 541.619C508.133 541.619 508.723 542.233 508.742 543.46V547H507.839V543.514C507.839 543.136 507.753 542.854 507.58 542.669C507.408 542.48 507.118 542.386 506.711 542.386C506.376 542.386 506.097 542.487 505.876 542.688C505.655 542.887 505.526 543.156 505.49 543.494V547H504.582V543.538C504.582 542.77 504.206 542.386 503.454 542.386C502.862 542.386 502.456 542.638 502.238 543.143V547H501.335V541.717H502.189ZM511.091 547H510.188V539.5H511.091V547Z" fill="#4000C7"/>
<path d="M497.746 517.016L491.938 511.252C491.776 511.091 491.558 511 491.328 511H479.864C479.386 511 479 511.383 479 511.857V534.143C479 534.617 479.386 535 479.864 535H497.136C497.614 535 498 534.617 498 534.143V517.624C498 517.396 497.908 517.177 497.746 517.016ZM496.008 518.018H490.929V512.977L496.008 518.018ZM496.057 533.071H480.943V512.929H489.094V518.714C489.094 519.013 489.213 519.299 489.426 519.51C489.638 519.721 489.927 519.839 490.227 519.839H496.057V533.071ZM488.284 525.839H483.318C483.199 525.839 483.102 525.936 483.102 526.054V527.339C483.102 527.457 483.199 527.554 483.318 527.554H488.284C488.403 527.554 488.5 527.457 488.5 527.339V526.054C488.5 525.936 488.403 525.839 488.284 525.839ZM483.102 522.411V523.696C483.102 523.814 483.199 523.911 483.318 523.911H493.682C493.801 523.911 493.898 523.814 493.898 523.696V522.411C493.898 522.293 493.801 522.196 493.682 522.196H483.318C483.199 522.196 483.102 522.293 483.102 522.411Z" fill="#4000C7"/>
<path d="M407.354 228.646C407.158 228.451 406.842 228.451 406.646 228.646L403.464 231.828C403.269 232.024 403.269 232.34 403.464 232.536C403.66 232.731 403.976 232.731 404.172 232.536L407 229.707L409.828 232.536C410.024 232.731 410.34 232.731 410.536 232.536C410.731 232.34 410.731 232.024 410.536 231.828L407.354 228.646ZM407.5 323L407.5 229L406.5 229L406.5 323L407.5 323Z" fill="#4000C7"/>
<path d="M487.646 501.354C487.842 501.549 488.158 501.549 488.354 501.354L491.536 498.172C491.731 497.976 491.731 497.66 491.536 497.464C491.34 497.269 491.024 497.269 490.828 497.464L488 500.293L485.172 497.464C484.976 497.269 484.66 497.269 484.464 497.464C484.269 497.66 484.269 497.976 484.464 498.172L487.646 501.354ZM487.5 382L487.5 501L488.5 501L488.5 382L487.5 382Z" fill="#4000C7"/>
</svg>
