<svg width="1152" height="587" viewBox="0 0 1152 587" fill="none" xmlns="http://www.w3.org/2000/svg">
<path d="M0 0H1152V587H0V0Z" fill="white" fill-opacity="0.01"/>
<path d="M333.159 320.875C332.97 321.1 332.744 321.28 332.48 321.417C332.22 321.554 331.934 321.622 331.621 321.622C331.211 321.622 330.853 321.521 330.547 321.319C330.244 321.118 330.01 320.834 329.844 320.47C329.678 320.102 329.595 319.697 329.595 319.254C329.595 318.779 329.684 318.351 329.863 317.97C330.046 317.589 330.303 317.298 330.635 317.096C330.967 316.894 331.354 316.793 331.797 316.793C332.5 316.793 333.053 317.057 333.457 317.584C333.864 318.108 334.067 318.824 334.067 319.732V319.996C334.067 321.38 333.794 322.39 333.247 323.028C332.7 323.663 331.875 323.989 330.771 324.005H330.596V323.243H330.786C331.532 323.23 332.104 323.036 332.505 322.662C332.905 322.285 333.123 321.689 333.159 320.875ZM331.768 320.875C332.07 320.875 332.349 320.782 332.603 320.597C332.86 320.411 333.047 320.182 333.164 319.908V319.547C333.164 318.954 333.035 318.473 332.778 318.102C332.521 317.73 332.196 317.545 331.802 317.545C331.405 317.545 331.086 317.698 330.845 318.004C330.604 318.307 330.483 318.707 330.483 319.205C330.483 319.69 330.599 320.09 330.83 320.406C331.064 320.719 331.377 320.875 331.768 320.875ZM339.878 321.417C339.878 322.224 339.692 322.874 339.321 323.365C338.95 323.854 338.452 324.098 337.827 324.098C337.16 324.098 336.644 323.862 336.279 323.39L336.235 324H335.405V316.5H336.309V319.298C336.673 318.845 337.176 318.619 337.817 318.619C338.459 318.619 338.962 318.862 339.326 319.347C339.694 319.832 339.878 320.496 339.878 321.339V321.417ZM338.975 321.314C338.975 320.699 338.856 320.224 338.618 319.889C338.381 319.553 338.039 319.386 337.593 319.386C336.997 319.386 336.569 319.662 336.309 320.216V322.501C336.585 323.054 337.017 323.331 337.603 323.331C338.035 323.331 338.372 323.163 338.613 322.828C338.854 322.493 338.975 321.988 338.975 321.314ZM341.465 324V319.415H340.63V318.717H341.465V318.175C341.465 317.608 341.616 317.171 341.919 316.861C342.222 316.552 342.65 316.397 343.203 316.397C343.411 316.397 343.618 316.425 343.823 316.48L343.774 317.213C343.621 317.184 343.459 317.169 343.286 317.169C342.993 317.169 342.767 317.255 342.607 317.428C342.448 317.597 342.368 317.841 342.368 318.16V318.717H343.496V319.415H342.368V324H341.465ZM345.718 320.006H346.396C346.823 319.999 347.158 319.887 347.402 319.669C347.646 319.451 347.769 319.156 347.769 318.785C347.769 317.952 347.354 317.535 346.523 317.535C346.133 317.535 345.82 317.647 345.586 317.872C345.355 318.093 345.239 318.388 345.239 318.756H344.336C344.336 318.193 344.541 317.726 344.951 317.354C345.365 316.98 345.889 316.793 346.523 316.793C347.194 316.793 347.72 316.97 348.101 317.325C348.481 317.68 348.672 318.173 348.672 318.805C348.672 319.114 348.571 319.413 348.369 319.703C348.171 319.993 347.899 320.209 347.554 320.353C347.944 320.476 348.245 320.681 348.457 320.968C348.672 321.254 348.779 321.604 348.779 322.018C348.779 322.656 348.571 323.162 348.154 323.536C347.738 323.91 347.196 324.098 346.528 324.098C345.861 324.098 345.317 323.917 344.897 323.556C344.481 323.194 344.272 322.717 344.272 322.125H345.181C345.181 322.499 345.303 322.799 345.547 323.023C345.791 323.248 346.118 323.36 346.528 323.36C346.965 323.36 347.298 323.246 347.529 323.019C347.76 322.791 347.876 322.464 347.876 322.037C347.876 321.624 347.749 321.306 347.495 321.085C347.241 320.864 346.875 320.75 346.396 320.743H345.718V320.006ZM354.609 317.398L351.665 324H350.718L353.652 317.633H349.805V316.891H354.609V317.398ZM356.948 320.006H357.627C358.053 319.999 358.389 319.887 358.633 319.669C358.877 319.451 358.999 319.156 358.999 318.785C358.999 317.952 358.584 317.535 357.754 317.535C357.363 317.535 357.051 317.647 356.816 317.872C356.585 318.093 356.47 318.388 356.47 318.756H355.566C355.566 318.193 355.771 317.726 356.182 317.354C356.595 316.98 357.119 316.793 357.754 316.793C358.424 316.793 358.95 316.97 359.331 317.325C359.712 317.68 359.902 318.173 359.902 318.805C359.902 319.114 359.801 319.413 359.6 319.703C359.401 319.993 359.129 320.209 358.784 320.353C359.175 320.476 359.476 320.681 359.688 320.968C359.902 321.254 360.01 321.604 360.01 322.018C360.01 322.656 359.801 323.162 359.385 323.536C358.968 323.91 358.426 324.098 357.759 324.098C357.091 324.098 356.548 323.917 356.128 323.556C355.711 323.194 355.503 322.717 355.503 322.125H356.411C356.411 322.499 356.533 322.799 356.777 323.023C357.021 323.248 357.349 323.36 357.759 323.36C358.195 323.36 358.529 323.246 358.76 323.019C358.991 322.791 359.106 322.464 359.106 322.037C359.106 321.624 358.979 321.306 358.726 321.085C358.472 320.864 358.105 320.75 357.627 320.743H356.948V320.006ZM363.462 323.36C363.784 323.36 364.066 323.263 364.307 323.067C364.548 322.872 364.681 322.628 364.707 322.335H365.562C365.545 322.638 365.441 322.926 365.249 323.199C365.057 323.473 364.8 323.691 364.478 323.854C364.159 324.016 363.82 324.098 363.462 324.098C362.743 324.098 362.17 323.858 361.743 323.38C361.32 322.898 361.108 322.241 361.108 321.407V321.256C361.108 320.742 361.203 320.284 361.392 319.884C361.58 319.483 361.851 319.173 362.202 318.951C362.557 318.73 362.975 318.619 363.457 318.619C364.049 318.619 364.541 318.797 364.932 319.151C365.326 319.506 365.535 319.967 365.562 320.533H364.707C364.681 320.191 364.551 319.911 364.316 319.693C364.085 319.472 363.799 319.361 363.457 319.361C362.998 319.361 362.642 319.527 362.388 319.859C362.137 320.188 362.012 320.665 362.012 321.29V321.461C362.012 322.07 362.137 322.538 362.388 322.867C362.638 323.196 362.996 323.36 363.462 323.36ZM313.223 334.96V333.27H316.093V332.61H310.573V331.16H315.883V328.43H309.743V329.1H315.083V330.5H309.763V333.27H312.393V334.96H308.743V335.63H316.893V334.96H313.223ZM324.172 329.62C324.172 330.73 324.172 332.07 323.812 333.9L324.632 333.99C324.982 332.05 324.982 330.76 324.982 329.62V328.72H318.832V329.39H324.172V329.62ZM317.962 334.75V335.43H326.072V334.75H317.962ZM334.511 327.78H333.691V334.33H334.511V327.78ZM328.161 330.6C328.161 329.73 328.821 329.11 329.691 329.11C330.581 329.11 331.241 329.73 331.241 330.6C331.241 331.49 330.581 332.11 329.691 332.11C328.821 332.11 328.161 331.49 328.161 330.6ZM332.041 330.6C332.041 329.31 331.031 328.4 329.691 328.4C328.361 328.4 327.361 329.31 327.361 330.6C327.361 331.9 328.361 332.82 329.691 332.82C331.031 332.82 332.041 331.9 332.041 330.6ZM329.561 335.87V333.66H328.741V336.54H334.781V335.87H329.561ZM340.401 329.57H341.521V333.78C341.141 333.8 340.771 333.81 340.401 333.82V329.57ZM342.271 329.57H343.011V328.91H338.911V329.57H339.651V333.84C339.311 333.85 339.011 333.85 338.741 333.85L338.821 334.53C339.991 334.53 341.871 334.49 343.261 334.23L343.211 333.63C342.921 333.67 342.591 333.7 342.271 333.73V329.57ZM343.971 331.19H342.741V331.91H343.971V336.27H344.741V327.99H343.971V331.19ZM345.701 327.78V336.74H346.491V327.78H345.701ZM354.55 327.77V336.76H355.37V327.77H354.55ZM350.64 328.46C349.31 328.46 348.36 329.68 348.36 331.59C348.36 333.5 349.31 334.72 350.64 334.72C351.97 334.72 352.92 333.5 352.92 331.59C352.92 329.68 351.97 328.46 350.64 328.46ZM350.64 329.2C351.51 329.2 352.13 330.14 352.13 331.59C352.13 333.05 351.51 333.99 350.64 333.99C349.76 333.99 349.14 333.05 349.14 331.59C349.14 330.14 349.76 329.2 350.64 329.2ZM360.429 329.37H362.539V328.69H357.529V329.37H359.609V330.51C359.609 332.06 358.519 333.75 357.229 334.36L357.709 335.02C358.729 334.5 359.609 333.37 360.019 332.06C360.449 333.29 361.329 334.32 362.369 334.8L362.829 334.14C361.509 333.58 360.429 332.03 360.429 330.51V329.37ZM363.749 327.78V336.74H364.569V327.78H363.749ZM377.029 332.21H375.699C375.949 330.92 375.949 329.97 375.949 329.13V328.35H369.929V329.01H375.149V329.13C375.149 329.97 375.149 330.92 374.869 332.21H368.919V332.88H372.539V336.75H373.369V332.88H377.029V332.21ZM383.148 330.16V330.83H384.658V332.04H383.148V332.71H384.658V334.61H385.488V327.78H384.658V330.16H383.148ZM383.148 328.87H381.088V327.76H380.268V328.87H378.128V329.53H383.148V328.87ZM379.418 331.73C379.418 331.1 379.928 330.67 380.668 330.67C381.408 330.67 381.918 331.1 381.918 331.73C381.918 332.37 381.408 332.81 380.668 332.81C379.928 332.81 379.418 332.37 379.418 331.73ZM382.698 331.73C382.698 330.71 381.858 330.03 380.668 330.03C379.478 330.03 378.638 330.71 378.638 331.73C378.638 332.76 379.478 333.45 380.668 333.45C381.858 333.45 382.698 332.76 382.698 331.73ZM380.548 335.87V334.03H379.728V336.54H385.698V335.87H380.548Z" fill="black"/>
<circle cx="346.5" cy="350.5" r="9.5" fill="#4000C7"/>
<path d="M346.354 363.646C346.158 363.451 345.842 363.451 345.646 363.646L342.464 366.828C342.269 367.024 342.269 367.34 342.464 367.536C342.66 367.731 342.976 367.731 343.172 367.536L346 364.707L348.828 367.536C349.024 367.731 349.34 367.731 349.536 367.536C349.731 367.34 349.731 367.024 349.536 366.828L346.354 363.646ZM346.5 426L346.5 364L345.5 364L345.5 426L346.5 426Z" fill="#4000C7"/>
</svg>
