<svg width="1152" height="587" viewBox="0 0 1152 587" fill="none" xmlns="http://www.w3.org/2000/svg">
<path d="M0 0H1152V587H0V0Z" fill="white" fill-opacity="0.01"/>
<path d="M312.048 152H311.14V145.979L309.318 146.648V145.828L311.906 144.856H312.048V152ZM314.567 149.314C314.567 148.504 314.759 147.853 315.144 147.361C315.528 146.867 316.031 146.619 316.652 146.619C317.271 146.619 317.761 146.831 318.122 147.254V144.5H319.025V152H318.195L318.151 151.434C317.79 151.876 317.287 152.098 316.643 152.098C316.031 152.098 315.531 151.847 315.144 151.346C314.759 150.844 314.567 150.19 314.567 149.383V149.314ZM315.471 149.417C315.471 150.016 315.594 150.485 315.842 150.823C316.089 151.162 316.431 151.331 316.867 151.331C317.44 151.331 317.858 151.074 318.122 150.56V148.133C317.852 147.635 317.437 147.386 316.877 147.386C316.434 147.386 316.089 147.557 315.842 147.898C315.594 148.24 315.471 148.746 315.471 149.417ZM322.624 152.098C321.908 152.098 321.325 151.863 320.876 151.395C320.427 150.923 320.202 150.293 320.202 149.505V149.339C320.202 148.815 320.301 148.348 320.5 147.938C320.702 147.524 320.982 147.202 321.34 146.971C321.701 146.736 322.092 146.619 322.512 146.619C323.199 146.619 323.732 146.845 324.113 147.298C324.494 147.75 324.685 148.398 324.685 149.241V149.617H321.105C321.118 150.138 321.27 150.56 321.56 150.882C321.853 151.201 322.224 151.36 322.673 151.36C322.992 151.36 323.262 151.295 323.483 151.165C323.705 151.035 323.898 150.862 324.064 150.647L324.616 151.077C324.174 151.757 323.509 152.098 322.624 152.098ZM322.512 147.361C322.147 147.361 321.841 147.495 321.594 147.762C321.346 148.025 321.193 148.396 321.135 148.875H323.781V148.807C323.755 148.348 323.632 147.993 323.41 147.742C323.189 147.488 322.889 147.361 322.512 147.361ZM329.953 146.746C329.953 147.101 329.859 147.417 329.67 147.693C329.484 147.97 329.232 148.187 328.913 148.343C329.284 148.502 329.577 148.735 329.792 149.041C330.01 149.347 330.119 149.694 330.119 150.081C330.119 150.696 329.911 151.186 329.494 151.551C329.081 151.915 328.535 152.098 327.858 152.098C327.175 152.098 326.626 151.915 326.213 151.551C325.803 151.183 325.598 150.693 325.598 150.081C325.598 149.697 325.702 149.35 325.91 149.041C326.122 148.732 326.413 148.497 326.784 148.338C326.468 148.182 326.219 147.965 326.037 147.688C325.855 147.412 325.764 147.098 325.764 146.746C325.764 146.147 325.956 145.672 326.34 145.32C326.724 144.969 327.23 144.793 327.858 144.793C328.483 144.793 328.988 144.969 329.372 145.32C329.759 145.672 329.953 146.147 329.953 146.746ZM329.216 150.062C329.216 149.664 329.089 149.34 328.835 149.09C328.584 148.839 328.256 148.714 327.849 148.714C327.442 148.714 327.115 148.838 326.867 149.085C326.623 149.332 326.501 149.658 326.501 150.062C326.501 150.465 326.62 150.783 326.857 151.014C327.098 151.245 327.432 151.36 327.858 151.36C328.282 151.36 328.614 151.245 328.854 151.014C329.095 150.779 329.216 150.462 329.216 150.062ZM327.858 145.535C327.504 145.535 327.215 145.646 326.994 145.867C326.776 146.085 326.667 146.383 326.667 146.761C326.667 147.122 326.774 147.415 326.989 147.64C327.207 147.861 327.497 147.972 327.858 147.972C328.22 147.972 328.508 147.861 328.723 147.64C328.941 147.415 329.05 147.122 329.05 146.761C329.05 146.399 328.938 146.105 328.713 145.877C328.488 145.649 328.203 145.535 327.858 145.535ZM335.847 145.398L332.902 152H331.955L334.89 145.633H331.042V144.891H335.847V145.398ZM341.53 152H336.872V151.351L339.333 148.616C339.698 148.203 339.948 147.868 340.085 147.61C340.225 147.35 340.295 147.081 340.295 146.805C340.295 146.434 340.183 146.129 339.958 145.892C339.733 145.654 339.434 145.535 339.06 145.535C338.61 145.535 338.26 145.664 338.01 145.921C337.762 146.175 337.639 146.53 337.639 146.985H336.735C336.735 146.331 336.945 145.802 337.365 145.398C337.788 144.995 338.353 144.793 339.06 144.793C339.72 144.793 340.243 144.967 340.627 145.315C341.011 145.66 341.203 146.121 341.203 146.697C341.203 147.397 340.757 148.23 339.865 149.197L337.961 151.263H341.53V152ZM347.053 149.417C347.053 150.224 346.867 150.874 346.496 151.365C346.125 151.854 345.627 152.098 345.002 152.098C344.335 152.098 343.819 151.862 343.454 151.39L343.41 152H342.58V144.5H343.483V147.298C343.848 146.845 344.351 146.619 344.992 146.619C345.633 146.619 346.136 146.862 346.501 147.347C346.869 147.832 347.053 148.496 347.053 149.339V149.417ZM346.149 149.314C346.149 148.699 346.031 148.224 345.793 147.889C345.555 147.553 345.214 147.386 344.768 147.386C344.172 147.386 343.744 147.662 343.483 148.216V150.501C343.76 151.054 344.191 151.331 344.777 151.331C345.21 151.331 345.547 151.163 345.788 150.828C346.029 150.493 346.149 149.988 346.149 149.314ZM313.291 157.31H311.481V156H310.671V157.31H308.881V157.97H313.291V157.31ZM311.081 161.99C310.401 161.99 309.921 161.42 309.921 160.63C309.921 159.84 310.401 159.27 311.081 159.27C311.741 159.27 312.231 159.84 312.231 160.63C312.231 161.42 311.741 161.99 311.081 161.99ZM311.081 158.58C309.991 158.58 309.201 159.42 309.201 160.63C309.201 161.84 309.991 162.68 311.081 162.68C312.161 162.68 312.951 161.84 312.951 160.63C312.951 159.42 312.161 158.58 311.081 158.58ZM314.041 159.23H313.041V159.92H314.041V164.29H314.821V155.97H314.041V159.23ZM315.731 155.77V164.74H316.511V155.77H315.731ZM319.361 157.3H322.621V156.62H318.541V162.54H319.231C320.931 162.54 322.011 162.48 323.311 162.24L323.211 161.56C322.001 161.79 320.951 161.85 319.361 161.85V157.3ZM324.661 155.77V159.02H322.091V159.7H324.661V164.76H325.481V155.77H324.661ZM330.58 160.51C331.97 160.3 333.26 159.61 333.83 158.64C334.4 159.61 335.68 160.3 337.07 160.51L337.36 159.85C335.76 159.63 334.24 158.64 334.24 157.54H337.1V156.88H334.24V155.77H333.42V156.88H330.56V157.54H333.41C333.41 158.65 331.9 159.63 330.28 159.85L330.58 160.51ZM337.89 161.19H329.78V161.86H333.42V164.75H334.24V161.86H337.89V161.19ZM339.449 156.73V157.41H342.739C342.549 159.53 341.319 161.25 339.029 162.4L339.479 163.04C342.379 161.59 343.549 159.28 343.549 156.73H339.449ZM347.309 159.41H345.869V155.77H345.049V164.74H345.869V160.09H347.309V159.41Z" fill="black"/>
<path d="M392.905 180.746C392.905 181.101 392.811 181.417 392.622 181.693C392.437 181.97 392.184 182.187 391.865 182.343C392.236 182.502 392.529 182.735 392.744 183.041C392.962 183.347 393.071 183.694 393.071 184.081C393.071 184.696 392.863 185.186 392.446 185.551C392.033 185.915 391.488 186.098 390.811 186.098C390.127 186.098 389.578 185.915 389.165 185.551C388.755 185.183 388.55 184.693 388.55 184.081C388.55 183.697 388.654 183.35 388.862 183.041C389.074 182.732 389.365 182.497 389.736 182.338C389.421 182.182 389.172 181.965 388.989 181.688C388.807 181.412 388.716 181.098 388.716 180.746C388.716 180.147 388.908 179.672 389.292 179.32C389.676 178.969 390.182 178.793 390.811 178.793C391.436 178.793 391.94 178.969 392.324 179.32C392.712 179.672 392.905 180.147 392.905 180.746ZM392.168 184.062C392.168 183.664 392.041 183.34 391.787 183.09C391.536 182.839 391.208 182.714 390.801 182.714C390.394 182.714 390.067 182.838 389.819 183.085C389.575 183.332 389.453 183.658 389.453 184.062C389.453 184.465 389.572 184.783 389.81 185.014C390.05 185.245 390.384 185.36 390.811 185.36C391.234 185.36 391.566 185.245 391.807 185.014C392.048 184.779 392.168 184.462 392.168 184.062ZM390.811 179.535C390.456 179.535 390.168 179.646 389.946 179.867C389.728 180.085 389.619 180.383 389.619 180.761C389.619 181.122 389.727 181.415 389.941 181.64C390.16 181.861 390.449 181.972 390.811 181.972C391.172 181.972 391.46 181.861 391.675 181.64C391.893 181.415 392.002 181.122 392.002 180.761C392.002 180.399 391.89 180.105 391.665 179.877C391.44 179.649 391.156 179.535 390.811 179.535ZM398.867 186H394.209V185.351L396.67 182.616C397.035 182.203 397.285 181.868 397.422 181.61C397.562 181.35 397.632 181.081 397.632 180.805C397.632 180.434 397.52 180.129 397.295 179.892C397.07 179.654 396.771 179.535 396.396 179.535C395.947 179.535 395.597 179.664 395.347 179.921C395.099 180.175 394.976 180.53 394.976 180.985H394.072C394.072 180.331 394.282 179.802 394.702 179.398C395.125 178.995 395.69 178.793 396.396 178.793C397.057 178.793 397.58 178.967 397.964 179.315C398.348 179.66 398.54 180.121 398.54 180.697C398.54 181.397 398.094 182.23 397.202 183.197L395.298 185.263H398.867V186ZM404.414 179.398L401.47 186H400.522L403.457 179.633H399.609V178.891H404.414V179.398ZM408.901 182.875C408.713 183.1 408.486 183.28 408.223 183.417C407.962 183.554 407.676 183.622 407.363 183.622C406.953 183.622 406.595 183.521 406.289 183.319C405.986 183.118 405.752 182.834 405.586 182.47C405.42 182.102 405.337 181.697 405.337 181.254C405.337 180.779 405.426 180.351 405.605 179.97C405.788 179.589 406.045 179.298 406.377 179.096C406.709 178.894 407.096 178.793 407.539 178.793C408.242 178.793 408.796 179.057 409.199 179.584C409.606 180.108 409.81 180.824 409.81 181.732V181.996C409.81 183.38 409.536 184.39 408.989 185.028C408.442 185.663 407.617 185.989 406.514 186.005H406.338V185.243H406.528C407.274 185.23 407.847 185.036 408.247 184.662C408.647 184.285 408.866 183.689 408.901 182.875ZM407.51 182.875C407.812 182.875 408.091 182.782 408.345 182.597C408.602 182.411 408.789 182.182 408.906 181.908V181.547C408.906 180.954 408.778 180.473 408.521 180.102C408.263 179.73 407.938 179.545 407.544 179.545C407.147 179.545 406.828 179.698 406.587 180.004C406.346 180.307 406.226 180.707 406.226 181.205C406.226 181.69 406.341 182.09 406.572 182.406C406.807 182.719 407.119 182.875 407.51 182.875ZM415.513 182.968C415.513 184.026 415.332 184.812 414.971 185.326C414.609 185.84 414.045 186.098 413.276 186.098C412.518 186.098 411.956 185.847 411.592 185.346C411.227 184.841 411.038 184.089 411.025 183.09V181.884C411.025 180.839 411.206 180.062 411.567 179.555C411.929 179.047 412.495 178.793 413.267 178.793C414.032 178.793 414.595 179.039 414.956 179.53C415.317 180.019 415.503 180.774 415.513 181.796V182.968ZM414.609 181.732C414.609 180.967 414.502 180.411 414.287 180.062C414.072 179.711 413.732 179.535 413.267 179.535C412.804 179.535 412.467 179.709 412.256 180.058C412.044 180.406 411.935 180.941 411.929 181.664V183.109C411.929 183.878 412.039 184.446 412.261 184.813C412.485 185.178 412.824 185.36 413.276 185.36C413.722 185.36 414.053 185.188 414.268 184.843C414.486 184.498 414.6 183.954 414.609 183.212V181.732ZM421.328 186H416.67V185.351L419.131 182.616C419.495 182.203 419.746 181.868 419.883 181.61C420.023 181.35 420.093 181.081 420.093 180.805C420.093 180.434 419.98 180.129 419.756 179.892C419.531 179.654 419.232 179.535 418.857 179.535C418.408 179.535 418.058 179.664 417.808 179.921C417.56 180.175 417.437 180.53 417.437 180.985H416.533C416.533 180.331 416.743 179.802 417.163 179.398C417.586 178.995 418.151 178.793 418.857 178.793C419.518 178.793 420.041 178.967 420.425 179.315C420.809 179.66 421.001 180.121 421.001 180.697C421.001 181.397 420.555 182.23 419.663 183.197L417.759 185.263H421.328V186ZM424.57 186.098C423.854 186.098 423.271 185.863 422.822 185.395C422.373 184.923 422.148 184.293 422.148 183.505V183.339C422.148 182.815 422.248 182.348 422.446 181.938C422.648 181.524 422.928 181.202 423.286 180.971C423.647 180.736 424.038 180.619 424.458 180.619C425.145 180.619 425.679 180.845 426.06 181.298C426.44 181.75 426.631 182.398 426.631 183.241V183.617H423.052C423.065 184.138 423.216 184.56 423.506 184.882C423.799 185.201 424.17 185.36 424.619 185.36C424.938 185.36 425.208 185.295 425.43 185.165C425.651 185.035 425.845 184.862 426.011 184.647L426.562 185.077C426.12 185.757 425.456 186.098 424.57 186.098ZM424.458 181.361C424.093 181.361 423.787 181.495 423.54 181.762C423.293 182.025 423.14 182.396 423.081 182.875H425.728V182.807C425.701 182.348 425.578 181.993 425.356 181.742C425.135 181.488 424.836 181.361 424.458 181.361ZM376.562 192.717L376.587 193.303C376.974 192.847 377.497 192.619 378.154 192.619C378.893 192.619 379.396 192.902 379.663 193.469C379.839 193.215 380.067 193.01 380.347 192.854C380.63 192.697 380.964 192.619 381.348 192.619C382.507 192.619 383.096 193.233 383.115 194.46V198H382.212V194.514C382.212 194.136 382.126 193.854 381.953 193.669C381.781 193.48 381.491 193.386 381.084 193.386C380.749 193.386 380.47 193.487 380.249 193.688C380.028 193.887 379.899 194.156 379.863 194.494V198H378.955V194.538C378.955 193.77 378.579 193.386 377.827 193.386C377.235 193.386 376.829 193.638 376.611 194.143V198H375.708V192.717H376.562ZM386.675 198.098C385.959 198.098 385.376 197.863 384.927 197.395C384.478 196.923 384.253 196.293 384.253 195.505V195.339C384.253 194.815 384.352 194.348 384.551 193.938C384.753 193.524 385.033 193.202 385.391 192.971C385.752 192.736 386.143 192.619 386.562 192.619C387.249 192.619 387.783 192.845 388.164 193.298C388.545 193.75 388.735 194.398 388.735 195.241V195.617H385.156C385.169 196.138 385.321 196.56 385.61 196.882C385.903 197.201 386.274 197.36 386.724 197.36C387.043 197.36 387.313 197.295 387.534 197.165C387.756 197.035 387.949 196.862 388.115 196.647L388.667 197.077C388.224 197.757 387.56 198.098 386.675 198.098ZM386.562 193.361C386.198 193.361 385.892 193.495 385.645 193.762C385.397 194.025 385.244 194.396 385.186 194.875H387.832V194.807C387.806 194.348 387.682 193.993 387.461 193.742C387.24 193.488 386.94 193.361 386.562 193.361ZM392.339 193.527C392.202 193.505 392.054 193.493 391.895 193.493C391.302 193.493 390.9 193.745 390.688 194.25V198H389.785V192.717H390.664L390.679 193.327C390.975 192.855 391.395 192.619 391.938 192.619C392.114 192.619 392.248 192.642 392.339 192.688V193.527ZM392.861 195.314C392.861 194.491 393.052 193.837 393.433 193.352C393.813 192.863 394.318 192.619 394.946 192.619C395.591 192.619 396.094 192.847 396.455 193.303L396.499 192.717H397.324V197.873C397.324 198.557 397.121 199.095 396.714 199.489C396.31 199.883 395.767 200.08 395.083 200.08C394.702 200.08 394.329 199.999 393.965 199.836C393.6 199.673 393.322 199.45 393.13 199.167L393.599 198.625C393.986 199.104 394.46 199.343 395.02 199.343C395.459 199.343 395.801 199.219 396.045 198.972C396.292 198.724 396.416 198.376 396.416 197.927V197.473C396.055 197.889 395.562 198.098 394.937 198.098C394.318 198.098 393.817 197.849 393.433 197.351C393.052 196.853 392.861 196.174 392.861 195.314ZM393.77 195.417C393.77 196.013 393.892 196.481 394.136 196.823C394.38 197.162 394.722 197.331 395.161 197.331C395.731 197.331 396.149 197.072 396.416 196.555V194.143C396.139 193.638 395.724 193.386 395.171 193.386C394.731 193.386 394.388 193.557 394.141 193.898C393.893 194.24 393.77 194.746 393.77 195.417ZM400.884 198.098C400.168 198.098 399.585 197.863 399.136 197.395C398.687 196.923 398.462 196.293 398.462 195.505V195.339C398.462 194.815 398.561 194.348 398.76 193.938C398.962 193.524 399.242 193.202 399.6 192.971C399.961 192.736 400.352 192.619 400.771 192.619C401.458 192.619 401.992 192.845 402.373 193.298C402.754 193.75 402.944 194.398 402.944 195.241V195.617H399.365C399.378 196.138 399.53 196.56 399.819 196.882C400.112 197.201 400.483 197.36 400.933 197.36C401.252 197.36 401.522 197.295 401.743 197.165C401.965 197.035 402.158 196.862 402.324 196.647L402.876 197.077C402.433 197.757 401.769 198.098 400.884 198.098ZM400.771 193.361C400.407 193.361 400.101 193.495 399.854 193.762C399.606 194.025 399.453 194.396 399.395 194.875H402.041V194.807C402.015 194.348 401.891 193.993 401.67 193.742C401.449 193.488 401.149 193.361 400.771 193.361ZM408.594 197.36C408.916 197.36 409.198 197.263 409.438 197.067C409.679 196.872 409.813 196.628 409.839 196.335H410.693C410.677 196.638 410.573 196.926 410.381 197.199C410.189 197.473 409.932 197.691 409.609 197.854C409.29 198.016 408.952 198.098 408.594 198.098C407.874 198.098 407.301 197.858 406.875 197.38C406.452 196.898 406.24 196.241 406.24 195.407V195.256C406.24 194.742 406.335 194.284 406.523 193.884C406.712 193.483 406.982 193.173 407.334 192.951C407.689 192.73 408.107 192.619 408.589 192.619C409.181 192.619 409.673 192.797 410.063 193.151C410.457 193.506 410.667 193.967 410.693 194.533H409.839C409.813 194.191 409.683 193.911 409.448 193.693C409.217 193.472 408.931 193.361 408.589 193.361C408.13 193.361 407.773 193.527 407.52 193.859C407.269 194.188 407.144 194.665 407.144 195.29V195.461C407.144 196.07 407.269 196.538 407.52 196.867C407.77 197.196 408.128 197.36 408.594 197.36ZM411.47 195.31C411.47 194.792 411.571 194.326 411.772 193.913C411.978 193.5 412.261 193.181 412.622 192.956C412.987 192.731 413.402 192.619 413.867 192.619C414.587 192.619 415.168 192.868 415.61 193.366C416.056 193.864 416.279 194.527 416.279 195.354V195.417C416.279 195.931 416.18 196.394 415.981 196.804C415.786 197.211 415.505 197.528 415.137 197.756C414.772 197.984 414.352 198.098 413.877 198.098C413.161 198.098 412.58 197.849 412.134 197.351C411.691 196.853 411.47 196.193 411.47 195.373V195.31ZM412.378 195.417C412.378 196.003 412.513 196.473 412.783 196.828C413.057 197.183 413.421 197.36 413.877 197.36C414.336 197.36 414.701 197.181 414.971 196.823C415.241 196.462 415.376 195.957 415.376 195.31C415.376 194.73 415.238 194.261 414.961 193.903C414.688 193.542 414.323 193.361 413.867 193.361C413.421 193.361 413.062 193.539 412.788 193.894C412.515 194.248 412.378 194.756 412.378 195.417ZM418.262 192.717L418.286 193.303C418.674 192.847 419.196 192.619 419.854 192.619C420.592 192.619 421.095 192.902 421.362 193.469C421.538 193.215 421.766 193.01 422.046 192.854C422.329 192.697 422.663 192.619 423.047 192.619C424.206 192.619 424.795 193.233 424.814 194.46V198H423.911V194.514C423.911 194.136 423.825 193.854 423.652 193.669C423.48 193.48 423.19 193.386 422.783 193.386C422.448 193.386 422.17 193.487 421.948 193.688C421.727 193.887 421.598 194.156 421.562 194.494V198H420.654V194.538C420.654 193.77 420.278 193.386 419.526 193.386C418.934 193.386 418.529 193.638 418.311 194.143V198H417.407V192.717H418.262ZM427.031 192.717L427.056 193.303C427.443 192.847 427.965 192.619 428.623 192.619C429.362 192.619 429.865 192.902 430.132 193.469C430.308 193.215 430.535 193.01 430.815 192.854C431.099 192.697 431.432 192.619 431.816 192.619C432.975 192.619 433.564 193.233 433.584 194.46V198H432.681V194.514C432.681 194.136 432.594 193.854 432.422 193.669C432.249 193.48 431.96 193.386 431.553 193.386C431.217 193.386 430.939 193.487 430.718 193.688C430.496 193.887 430.368 194.156 430.332 194.494V198H429.424V194.538C429.424 193.77 429.048 193.386 428.296 193.386C427.703 193.386 427.298 193.638 427.08 194.143V198H426.177V192.717H427.031ZM435.933 198H435.029V192.717H435.933V198ZM434.956 191.315C434.956 191.169 435 191.045 435.088 190.944C435.179 190.843 435.312 190.793 435.488 190.793C435.664 190.793 435.798 190.843 435.889 190.944C435.98 191.045 436.025 191.169 436.025 191.315C436.025 191.462 435.98 191.584 435.889 191.682C435.798 191.779 435.664 191.828 435.488 191.828C435.312 191.828 435.179 191.779 435.088 191.682C435 191.584 434.956 191.462 434.956 191.315ZM438.608 191.438V192.717H439.595V193.415H438.608V196.691C438.608 196.903 438.652 197.062 438.74 197.17C438.828 197.274 438.978 197.326 439.189 197.326C439.294 197.326 439.437 197.307 439.619 197.268V198C439.382 198.065 439.15 198.098 438.926 198.098C438.522 198.098 438.218 197.976 438.013 197.731C437.808 197.487 437.705 197.141 437.705 196.691V193.415H436.743V192.717H437.705V191.438H438.608Z" fill="black"/>
<path d="M392.905 62.7461C392.905 63.1009 392.811 63.4167 392.622 63.6934C392.437 63.9701 392.184 64.1865 391.865 64.3428C392.236 64.5023 392.529 64.735 392.744 65.041C392.962 65.347 393.071 65.6937 393.071 66.0811C393.071 66.6963 392.863 67.1862 392.446 67.5508C392.033 67.9154 391.488 68.0977 390.811 68.0977C390.127 68.0977 389.578 67.9154 389.165 67.5508C388.755 67.1829 388.55 66.693 388.55 66.0811C388.55 65.6969 388.654 65.3503 388.862 65.041C389.074 64.7318 389.365 64.4974 389.736 64.3379C389.421 64.1816 389.172 63.9652 388.989 63.6885C388.807 63.4118 388.716 63.0977 388.716 62.7461C388.716 62.1471 388.908 61.6719 389.292 61.3203C389.676 60.9688 390.182 60.793 390.811 60.793C391.436 60.793 391.94 60.9688 392.324 61.3203C392.712 61.6719 392.905 62.1471 392.905 62.7461ZM392.168 66.0615C392.168 65.6644 392.041 65.3405 391.787 65.0898C391.536 64.8392 391.208 64.7139 390.801 64.7139C390.394 64.7139 390.067 64.8376 389.819 65.085C389.575 65.3324 389.453 65.6579 389.453 66.0615C389.453 66.4652 389.572 66.7826 389.81 67.0137C390.05 67.2448 390.384 67.3604 390.811 67.3604C391.234 67.3604 391.566 67.2448 391.807 67.0137C392.048 66.7793 392.168 66.4619 392.168 66.0615ZM390.811 61.5352C390.456 61.5352 390.168 61.6458 389.946 61.8672C389.728 62.0853 389.619 62.3831 389.619 62.7607C389.619 63.1221 389.727 63.415 389.941 63.6396C390.16 63.861 390.449 63.9717 390.811 63.9717C391.172 63.9717 391.46 63.861 391.675 63.6396C391.893 63.415 392.002 63.1221 392.002 62.7607C392.002 62.3994 391.89 62.1048 391.665 61.877C391.44 61.6491 391.156 61.5352 390.811 61.5352ZM398.867 68H394.209V67.3506L396.67 64.6162C397.035 64.2028 397.285 63.8675 397.422 63.6104C397.562 63.3499 397.632 63.0814 397.632 62.8047C397.632 62.4336 397.52 62.1292 397.295 61.8916C397.07 61.654 396.771 61.5352 396.396 61.5352C395.947 61.5352 395.597 61.6637 395.347 61.9209C395.099 62.1748 394.976 62.5296 394.976 62.9854H394.072C394.072 62.3311 394.282 61.8021 394.702 61.3984C395.125 60.9948 395.69 60.793 396.396 60.793C397.057 60.793 397.58 60.9671 397.964 61.3154C398.348 61.6605 398.54 62.1211 398.54 62.6973C398.54 63.3971 398.094 64.2305 397.202 65.1973L395.298 67.2627H398.867V68ZM404.414 61.3984L401.47 68H400.522L403.457 61.6328H399.609V60.8906H404.414V61.3984ZM408.901 64.875C408.713 65.0996 408.486 65.2803 408.223 65.417C407.962 65.5537 407.676 65.6221 407.363 65.6221C406.953 65.6221 406.595 65.5212 406.289 65.3193C405.986 65.1175 405.752 64.8343 405.586 64.4697C405.42 64.1019 405.337 63.6966 405.337 63.2539C405.337 62.7786 405.426 62.3506 405.605 61.9697C405.788 61.5889 406.045 61.2975 406.377 61.0957C406.709 60.8939 407.096 60.793 407.539 60.793C408.242 60.793 408.796 61.0566 409.199 61.584C409.606 62.1081 409.81 62.8242 409.81 63.7324V63.9961C409.81 65.3796 409.536 66.3903 408.989 67.0283C408.442 67.6631 407.617 67.9886 406.514 68.0049H406.338V67.2432H406.528C407.274 67.2301 407.847 67.0365 408.247 66.6621C408.647 66.2845 408.866 65.6888 408.901 64.875ZM407.51 64.875C407.812 64.875 408.091 64.7822 408.345 64.5967C408.602 64.4111 408.789 64.1816 408.906 63.9082V63.5469C408.906 62.9544 408.778 62.4727 408.521 62.1016C408.263 61.7305 407.938 61.5449 407.544 61.5449C407.147 61.5449 406.828 61.6979 406.587 62.0039C406.346 62.3066 406.226 62.707 406.226 63.2051C406.226 63.6901 406.341 64.0905 406.572 64.4062C406.807 64.7188 407.119 64.875 407.51 64.875ZM415.513 64.9678C415.513 66.0257 415.332 66.8118 414.971 67.3262C414.609 67.8405 414.045 68.0977 413.276 68.0977C412.518 68.0977 411.956 67.847 411.592 67.3457C411.227 66.8411 411.038 66.0892 411.025 65.0898V63.8838C411.025 62.8389 411.206 62.0625 411.567 61.5547C411.929 61.0469 412.495 60.793 413.267 60.793C414.032 60.793 414.595 61.0387 414.956 61.5303C415.317 62.0186 415.503 62.7738 415.513 63.7959V64.9678ZM414.609 63.7324C414.609 62.9674 414.502 62.4108 414.287 62.0625C414.072 61.7109 413.732 61.5352 413.267 61.5352C412.804 61.5352 412.467 61.7093 412.256 62.0576C412.044 62.4059 411.935 62.9414 411.929 63.6641V65.1094C411.929 65.8776 412.039 66.4456 412.261 66.8135C412.485 67.1781 412.824 67.3604 413.276 67.3604C413.722 67.3604 414.053 67.1878 414.268 66.8428C414.486 66.4977 414.6 65.9541 414.609 65.2119V63.7324ZM421.328 68H416.67V67.3506L419.131 64.6162C419.495 64.2028 419.746 63.8675 419.883 63.6104C420.023 63.3499 420.093 63.0814 420.093 62.8047C420.093 62.4336 419.98 62.1292 419.756 61.8916C419.531 61.654 419.232 61.5352 418.857 61.5352C418.408 61.5352 418.058 61.6637 417.808 61.9209C417.56 62.1748 417.437 62.5296 417.437 62.9854H416.533C416.533 62.3311 416.743 61.8021 417.163 61.3984C417.586 60.9948 418.151 60.793 418.857 60.793C419.518 60.793 420.041 60.9671 420.425 61.3154C420.809 61.6605 421.001 62.1211 421.001 62.6973C421.001 63.3971 420.555 64.2305 419.663 65.1973L417.759 67.2627H421.328V68ZM424.57 68.0977C423.854 68.0977 423.271 67.8633 422.822 67.3945C422.373 66.9225 422.148 66.2926 422.148 65.5049V65.3389C422.148 64.8148 422.248 64.3477 422.446 63.9375C422.648 63.5241 422.928 63.2018 423.286 62.9707C423.647 62.7363 424.038 62.6191 424.458 62.6191C425.145 62.6191 425.679 62.8454 426.06 63.2979C426.44 63.7503 426.631 64.3981 426.631 65.2412V65.6172H423.052C423.065 66.138 423.216 66.5596 423.506 66.8818C423.799 67.2008 424.17 67.3604 424.619 67.3604C424.938 67.3604 425.208 67.2952 425.43 67.165C425.651 67.0348 425.845 66.8623 426.011 66.6475L426.562 67.0771C426.12 67.7575 425.456 68.0977 424.57 68.0977ZM424.458 63.3613C424.093 63.3613 423.787 63.4948 423.54 63.7617C423.293 64.0254 423.14 64.3965 423.081 64.875H425.728V64.8066C425.701 64.3477 425.578 63.9928 425.356 63.7422C425.135 63.4883 424.836 63.3613 424.458 63.3613ZM376.562 74.7168L376.587 75.3027C376.974 74.847 377.497 74.6191 378.154 74.6191C378.893 74.6191 379.396 74.9023 379.663 75.4688C379.839 75.2148 380.067 75.0098 380.347 74.8535C380.63 74.6973 380.964 74.6191 381.348 74.6191C382.507 74.6191 383.096 75.2327 383.115 76.46V80H382.212V76.5137C382.212 76.1361 382.126 75.8545 381.953 75.6689C381.781 75.4801 381.491 75.3857 381.084 75.3857C380.749 75.3857 380.47 75.4867 380.249 75.6885C380.028 75.887 379.899 76.1556 379.863 76.4941V80H378.955V76.5381C378.955 75.7699 378.579 75.3857 377.827 75.3857C377.235 75.3857 376.829 75.638 376.611 76.1426V80H375.708V74.7168H376.562ZM386.675 80.0977C385.959 80.0977 385.376 79.8633 384.927 79.3945C384.478 78.9225 384.253 78.2926 384.253 77.5049V77.3389C384.253 76.8148 384.352 76.3477 384.551 75.9375C384.753 75.5241 385.033 75.2018 385.391 74.9707C385.752 74.7363 386.143 74.6191 386.562 74.6191C387.249 74.6191 387.783 74.8454 388.164 75.2979C388.545 75.7503 388.735 76.3981 388.735 77.2412V77.6172H385.156C385.169 78.138 385.321 78.5596 385.61 78.8818C385.903 79.2008 386.274 79.3604 386.724 79.3604C387.043 79.3604 387.313 79.2952 387.534 79.165C387.756 79.0348 387.949 78.8623 388.115 78.6475L388.667 79.0771C388.224 79.7575 387.56 80.0977 386.675 80.0977ZM386.562 75.3613C386.198 75.3613 385.892 75.4948 385.645 75.7617C385.397 76.0254 385.244 76.3965 385.186 76.875H387.832V76.8066C387.806 76.3477 387.682 75.9928 387.461 75.7422C387.24 75.4883 386.94 75.3613 386.562 75.3613ZM392.339 75.5273C392.202 75.5046 392.054 75.4932 391.895 75.4932C391.302 75.4932 390.9 75.7454 390.688 76.25V80H389.785V74.7168H390.664L390.679 75.3271C390.975 74.8551 391.395 74.6191 391.938 74.6191C392.114 74.6191 392.248 74.6419 392.339 74.6875V75.5273ZM392.861 77.3145C392.861 76.4909 393.052 75.8366 393.433 75.3516C393.813 74.8633 394.318 74.6191 394.946 74.6191C395.591 74.6191 396.094 74.847 396.455 75.3027L396.499 74.7168H397.324V79.873C397.324 80.5566 397.121 81.0954 396.714 81.4893C396.31 81.8831 395.767 82.0801 395.083 82.0801C394.702 82.0801 394.329 81.9987 393.965 81.8359C393.6 81.6732 393.322 81.4502 393.13 81.167L393.599 80.625C393.986 81.1035 394.46 81.3428 395.02 81.3428C395.459 81.3428 395.801 81.2191 396.045 80.9717C396.292 80.7243 396.416 80.376 396.416 79.9268V79.4727C396.055 79.8893 395.562 80.0977 394.937 80.0977C394.318 80.0977 393.817 79.8486 393.433 79.3506C393.052 78.8525 392.861 78.1738 392.861 77.3145ZM393.77 77.417C393.77 78.0127 393.892 78.4814 394.136 78.8232C394.38 79.1618 394.722 79.3311 395.161 79.3311C395.731 79.3311 396.149 79.0723 396.416 78.5547V76.1426C396.139 75.638 395.724 75.3857 395.171 75.3857C394.731 75.3857 394.388 75.5566 394.141 75.8984C393.893 76.2402 393.77 76.7464 393.77 77.417ZM400.884 80.0977C400.168 80.0977 399.585 79.8633 399.136 79.3945C398.687 78.9225 398.462 78.2926 398.462 77.5049V77.3389C398.462 76.8148 398.561 76.3477 398.76 75.9375C398.962 75.5241 399.242 75.2018 399.6 74.9707C399.961 74.7363 400.352 74.6191 400.771 74.6191C401.458 74.6191 401.992 74.8454 402.373 75.2979C402.754 75.7503 402.944 76.3981 402.944 77.2412V77.6172H399.365C399.378 78.138 399.53 78.5596 399.819 78.8818C400.112 79.2008 400.483 79.3604 400.933 79.3604C401.252 79.3604 401.522 79.2952 401.743 79.165C401.965 79.0348 402.158 78.8623 402.324 78.6475L402.876 79.0771C402.433 79.7575 401.769 80.0977 400.884 80.0977ZM400.771 75.3613C400.407 75.3613 400.101 75.4948 399.854 75.7617C399.606 76.0254 399.453 76.3965 399.395 76.875H402.041V76.8066C402.015 76.3477 401.891 75.9928 401.67 75.7422C401.449 75.4883 401.149 75.3613 400.771 75.3613ZM408.594 79.3604C408.916 79.3604 409.198 79.2627 409.438 79.0674C409.679 78.8721 409.813 78.6279 409.839 78.335H410.693C410.677 78.6377 410.573 78.9258 410.381 79.1992C410.189 79.4727 409.932 79.6908 409.609 79.8535C409.29 80.0163 408.952 80.0977 408.594 80.0977C407.874 80.0977 407.301 79.8584 406.875 79.3799C406.452 78.8981 406.24 78.2406 406.24 77.4072V77.2559C406.24 76.7415 406.335 76.2842 406.523 75.8838C406.712 75.4834 406.982 75.1725 407.334 74.9512C407.689 74.7298 408.107 74.6191 408.589 74.6191C409.181 74.6191 409.673 74.7965 410.063 75.1514C410.457 75.5062 410.667 75.9668 410.693 76.5332H409.839C409.813 76.1914 409.683 75.9115 409.448 75.6934C409.217 75.472 408.931 75.3613 408.589 75.3613C408.13 75.3613 407.773 75.5273 407.52 75.8594C407.269 76.1882 407.144 76.665 407.144 77.29V77.4609C407.144 78.0697 407.269 78.5384 407.52 78.8672C407.77 79.196 408.128 79.3604 408.594 79.3604ZM411.47 77.3096C411.47 76.792 411.571 76.3265 411.772 75.9131C411.978 75.4997 412.261 75.1807 412.622 74.9561C412.987 74.7314 413.402 74.6191 413.867 74.6191C414.587 74.6191 415.168 74.8682 415.61 75.3662C416.056 75.8643 416.279 76.5267 416.279 77.3535V77.417C416.279 77.9313 416.18 78.3936 415.981 78.8037C415.786 79.2106 415.505 79.528 415.137 79.7559C414.772 79.9837 414.352 80.0977 413.877 80.0977C413.161 80.0977 412.58 79.8486 412.134 79.3506C411.691 78.8525 411.47 78.1934 411.47 77.373V77.3096ZM412.378 77.417C412.378 78.0029 412.513 78.4733 412.783 78.8281C413.057 79.1829 413.421 79.3604 413.877 79.3604C414.336 79.3604 414.701 79.1813 414.971 78.8232C415.241 78.4619 415.376 77.9574 415.376 77.3096C415.376 76.7301 415.238 76.2614 414.961 75.9033C414.688 75.542 414.323 75.3613 413.867 75.3613C413.421 75.3613 413.062 75.5387 412.788 75.8936C412.515 76.2484 412.378 76.7562 412.378 77.417ZM418.262 74.7168L418.286 75.3027C418.674 74.847 419.196 74.6191 419.854 74.6191C420.592 74.6191 421.095 74.9023 421.362 75.4688C421.538 75.2148 421.766 75.0098 422.046 74.8535C422.329 74.6973 422.663 74.6191 423.047 74.6191C424.206 74.6191 424.795 75.2327 424.814 76.46V80H423.911V76.5137C423.911 76.1361 423.825 75.8545 423.652 75.6689C423.48 75.4801 423.19 75.3857 422.783 75.3857C422.448 75.3857 422.17 75.4867 421.948 75.6885C421.727 75.887 421.598 76.1556 421.562 76.4941V80H420.654V76.5381C420.654 75.7699 420.278 75.3857 419.526 75.3857C418.934 75.3857 418.529 75.638 418.311 76.1426V80H417.407V74.7168H418.262ZM427.031 74.7168L427.056 75.3027C427.443 74.847 427.965 74.6191 428.623 74.6191C429.362 74.6191 429.865 74.9023 430.132 75.4688C430.308 75.2148 430.535 75.0098 430.815 74.8535C431.099 74.6973 431.432 74.6191 431.816 74.6191C432.975 74.6191 433.564 75.2327 433.584 76.46V80H432.681V76.5137C432.681 76.1361 432.594 75.8545 432.422 75.6689C432.249 75.4801 431.96 75.3857 431.553 75.3857C431.217 75.3857 430.939 75.4867 430.718 75.6885C430.496 75.887 430.368 76.1556 430.332 76.4941V80H429.424V76.5381C429.424 75.7699 429.048 75.3857 428.296 75.3857C427.703 75.3857 427.298 75.638 427.08 76.1426V80H426.177V74.7168H427.031ZM435.933 80H435.029V74.7168H435.933V80ZM434.956 73.3154C434.956 73.1689 435 73.0452 435.088 72.9443C435.179 72.8434 435.312 72.793 435.488 72.793C435.664 72.793 435.798 72.8434 435.889 72.9443C435.98 73.0452 436.025 73.1689 436.025 73.3154C436.025 73.4619 435.98 73.584 435.889 73.6816C435.798 73.7793 435.664 73.8281 435.488 73.8281C435.312 73.8281 435.179 73.7793 435.088 73.6816C435 73.584 434.956 73.4619 434.956 73.3154ZM438.608 73.4375V74.7168H439.595V75.415H438.608V78.6914C438.608 78.903 438.652 79.0625 438.74 79.1699C438.828 79.2741 438.978 79.3262 439.189 79.3262C439.294 79.3262 439.437 79.3066 439.619 79.2676V80C439.382 80.0651 439.15 80.0977 438.926 80.0977C438.522 80.0977 438.218 79.9756 438.013 79.7314C437.808 79.4873 437.705 79.1406 437.705 78.6914V75.415H436.743V74.7168H437.705V73.4375H438.608Z" fill="black"/>
<path d="M392.905 337.746C392.905 338.101 392.811 338.417 392.622 338.693C392.437 338.97 392.184 339.187 391.865 339.343C392.236 339.502 392.529 339.735 392.744 340.041C392.962 340.347 393.071 340.694 393.071 341.081C393.071 341.696 392.863 342.186 392.446 342.551C392.033 342.915 391.488 343.098 390.811 343.098C390.127 343.098 389.578 342.915 389.165 342.551C388.755 342.183 388.55 341.693 388.55 341.081C388.55 340.697 388.654 340.35 388.862 340.041C389.074 339.732 389.365 339.497 389.736 339.338C389.421 339.182 389.172 338.965 388.989 338.688C388.807 338.412 388.716 338.098 388.716 337.746C388.716 337.147 388.908 336.672 389.292 336.32C389.676 335.969 390.182 335.793 390.811 335.793C391.436 335.793 391.94 335.969 392.324 336.32C392.712 336.672 392.905 337.147 392.905 337.746ZM392.168 341.062C392.168 340.664 392.041 340.34 391.787 340.09C391.536 339.839 391.208 339.714 390.801 339.714C390.394 339.714 390.067 339.838 389.819 340.085C389.575 340.332 389.453 340.658 389.453 341.062C389.453 341.465 389.572 341.783 389.81 342.014C390.05 342.245 390.384 342.36 390.811 342.36C391.234 342.36 391.566 342.245 391.807 342.014C392.048 341.779 392.168 341.462 392.168 341.062ZM390.811 336.535C390.456 336.535 390.168 336.646 389.946 336.867C389.728 337.085 389.619 337.383 389.619 337.761C389.619 338.122 389.727 338.415 389.941 338.64C390.16 338.861 390.449 338.972 390.811 338.972C391.172 338.972 391.46 338.861 391.675 338.64C391.893 338.415 392.002 338.122 392.002 337.761C392.002 337.399 391.89 337.105 391.665 336.877C391.44 336.649 391.156 336.535 390.811 336.535ZM398.867 343H394.209V342.351L396.67 339.616C397.035 339.203 397.285 338.868 397.422 338.61C397.562 338.35 397.632 338.081 397.632 337.805C397.632 337.434 397.52 337.129 397.295 336.892C397.07 336.654 396.771 336.535 396.396 336.535C395.947 336.535 395.597 336.664 395.347 336.921C395.099 337.175 394.976 337.53 394.976 337.985H394.072C394.072 337.331 394.282 336.802 394.702 336.398C395.125 335.995 395.69 335.793 396.396 335.793C397.057 335.793 397.58 335.967 397.964 336.315C398.348 336.66 398.54 337.121 398.54 337.697C398.54 338.397 398.094 339.23 397.202 340.197L395.298 342.263H398.867V343ZM404.414 336.398L401.47 343H400.522L403.457 336.633H399.609V335.891H404.414V336.398ZM408.901 339.875C408.713 340.1 408.486 340.28 408.223 340.417C407.962 340.554 407.676 340.622 407.363 340.622C406.953 340.622 406.595 340.521 406.289 340.319C405.986 340.118 405.752 339.834 405.586 339.47C405.42 339.102 405.337 338.697 405.337 338.254C405.337 337.779 405.426 337.351 405.605 336.97C405.788 336.589 406.045 336.298 406.377 336.096C406.709 335.894 407.096 335.793 407.539 335.793C408.242 335.793 408.796 336.057 409.199 336.584C409.606 337.108 409.81 337.824 409.81 338.732V338.996C409.81 340.38 409.536 341.39 408.989 342.028C408.442 342.663 407.617 342.989 406.514 343.005H406.338V342.243H406.528C407.274 342.23 407.847 342.036 408.247 341.662C408.647 341.285 408.866 340.689 408.901 339.875ZM407.51 339.875C407.812 339.875 408.091 339.782 408.345 339.597C408.602 339.411 408.789 339.182 408.906 338.908V338.547C408.906 337.954 408.778 337.473 408.521 337.102C408.263 336.73 407.938 336.545 407.544 336.545C407.147 336.545 406.828 336.698 406.587 337.004C406.346 337.307 406.226 337.707 406.226 338.205C406.226 338.69 406.341 339.09 406.572 339.406C406.807 339.719 407.119 339.875 407.51 339.875ZM415.513 339.968C415.513 341.026 415.332 341.812 414.971 342.326C414.609 342.84 414.045 343.098 413.276 343.098C412.518 343.098 411.956 342.847 411.592 342.346C411.227 341.841 411.038 341.089 411.025 340.09V338.884C411.025 337.839 411.206 337.062 411.567 336.555C411.929 336.047 412.495 335.793 413.267 335.793C414.032 335.793 414.595 336.039 414.956 336.53C415.317 337.019 415.503 337.774 415.513 338.796V339.968ZM414.609 338.732C414.609 337.967 414.502 337.411 414.287 337.062C414.072 336.711 413.732 336.535 413.267 336.535C412.804 336.535 412.467 336.709 412.256 337.058C412.044 337.406 411.935 337.941 411.929 338.664V340.109C411.929 340.878 412.039 341.446 412.261 341.813C412.485 342.178 412.824 342.36 413.276 342.36C413.722 342.36 414.053 342.188 414.268 341.843C414.486 341.498 414.6 340.954 414.609 340.212V338.732ZM421.328 343H416.67V342.351L419.131 339.616C419.495 339.203 419.746 338.868 419.883 338.61C420.023 338.35 420.093 338.081 420.093 337.805C420.093 337.434 419.98 337.129 419.756 336.892C419.531 336.654 419.232 336.535 418.857 336.535C418.408 336.535 418.058 336.664 417.808 336.921C417.56 337.175 417.437 337.53 417.437 337.985H416.533C416.533 337.331 416.743 336.802 417.163 336.398C417.586 335.995 418.151 335.793 418.857 335.793C419.518 335.793 420.041 335.967 420.425 336.315C420.809 336.66 421.001 337.121 421.001 337.697C421.001 338.397 420.555 339.23 419.663 340.197L417.759 342.263H421.328V343ZM424.57 343.098C423.854 343.098 423.271 342.863 422.822 342.395C422.373 341.923 422.148 341.293 422.148 340.505V340.339C422.148 339.815 422.248 339.348 422.446 338.938C422.648 338.524 422.928 338.202 423.286 337.971C423.647 337.736 424.038 337.619 424.458 337.619C425.145 337.619 425.679 337.845 426.06 338.298C426.44 338.75 426.631 339.398 426.631 340.241V340.617H423.052C423.065 341.138 423.216 341.56 423.506 341.882C423.799 342.201 424.17 342.36 424.619 342.36C424.938 342.36 425.208 342.295 425.43 342.165C425.651 342.035 425.845 341.862 426.011 341.647L426.562 342.077C426.12 342.757 425.456 343.098 424.57 343.098ZM424.458 338.361C424.093 338.361 423.787 338.495 423.54 338.762C423.293 339.025 423.14 339.396 423.081 339.875H425.728V339.807C425.701 339.348 425.578 338.993 425.356 338.742C425.135 338.488 424.836 338.361 424.458 338.361ZM376.562 349.717L376.587 350.303C376.974 349.847 377.497 349.619 378.154 349.619C378.893 349.619 379.396 349.902 379.663 350.469C379.839 350.215 380.067 350.01 380.347 349.854C380.63 349.697 380.964 349.619 381.348 349.619C382.507 349.619 383.096 350.233 383.115 351.46V355H382.212V351.514C382.212 351.136 382.126 350.854 381.953 350.669C381.781 350.48 381.491 350.386 381.084 350.386C380.749 350.386 380.47 350.487 380.249 350.688C380.028 350.887 379.899 351.156 379.863 351.494V355H378.955V351.538C378.955 350.77 378.579 350.386 377.827 350.386C377.235 350.386 376.829 350.638 376.611 351.143V355H375.708V349.717H376.562ZM386.675 355.098C385.959 355.098 385.376 354.863 384.927 354.395C384.478 353.923 384.253 353.293 384.253 352.505V352.339C384.253 351.815 384.352 351.348 384.551 350.938C384.753 350.524 385.033 350.202 385.391 349.971C385.752 349.736 386.143 349.619 386.562 349.619C387.249 349.619 387.783 349.845 388.164 350.298C388.545 350.75 388.735 351.398 388.735 352.241V352.617H385.156C385.169 353.138 385.321 353.56 385.61 353.882C385.903 354.201 386.274 354.36 386.724 354.36C387.043 354.36 387.313 354.295 387.534 354.165C387.756 354.035 387.949 353.862 388.115 353.647L388.667 354.077C388.224 354.757 387.56 355.098 386.675 355.098ZM386.562 350.361C386.198 350.361 385.892 350.495 385.645 350.762C385.397 351.025 385.244 351.396 385.186 351.875H387.832V351.807C387.806 351.348 387.682 350.993 387.461 350.742C387.24 350.488 386.94 350.361 386.562 350.361ZM392.339 350.527C392.202 350.505 392.054 350.493 391.895 350.493C391.302 350.493 390.9 350.745 390.688 351.25V355H389.785V349.717H390.664L390.679 350.327C390.975 349.855 391.395 349.619 391.938 349.619C392.114 349.619 392.248 349.642 392.339 349.688V350.527ZM392.861 352.314C392.861 351.491 393.052 350.837 393.433 350.352C393.813 349.863 394.318 349.619 394.946 349.619C395.591 349.619 396.094 349.847 396.455 350.303L396.499 349.717H397.324V354.873C397.324 355.557 397.121 356.095 396.714 356.489C396.31 356.883 395.767 357.08 395.083 357.08C394.702 357.08 394.329 356.999 393.965 356.836C393.6 356.673 393.322 356.45 393.13 356.167L393.599 355.625C393.986 356.104 394.46 356.343 395.02 356.343C395.459 356.343 395.801 356.219 396.045 355.972C396.292 355.724 396.416 355.376 396.416 354.927V354.473C396.055 354.889 395.562 355.098 394.937 355.098C394.318 355.098 393.817 354.849 393.433 354.351C393.052 353.853 392.861 353.174 392.861 352.314ZM393.77 352.417C393.77 353.013 393.892 353.481 394.136 353.823C394.38 354.162 394.722 354.331 395.161 354.331C395.731 354.331 396.149 354.072 396.416 353.555V351.143C396.139 350.638 395.724 350.386 395.171 350.386C394.731 350.386 394.388 350.557 394.141 350.898C393.893 351.24 393.77 351.746 393.77 352.417ZM400.884 355.098C400.168 355.098 399.585 354.863 399.136 354.395C398.687 353.923 398.462 353.293 398.462 352.505V352.339C398.462 351.815 398.561 351.348 398.76 350.938C398.962 350.524 399.242 350.202 399.6 349.971C399.961 349.736 400.352 349.619 400.771 349.619C401.458 349.619 401.992 349.845 402.373 350.298C402.754 350.75 402.944 351.398 402.944 352.241V352.617H399.365C399.378 353.138 399.53 353.56 399.819 353.882C400.112 354.201 400.483 354.36 400.933 354.36C401.252 354.36 401.522 354.295 401.743 354.165C401.965 354.035 402.158 353.862 402.324 353.647L402.876 354.077C402.433 354.757 401.769 355.098 400.884 355.098ZM400.771 350.361C400.407 350.361 400.101 350.495 399.854 350.762C399.606 351.025 399.453 351.396 399.395 351.875H402.041V351.807C402.015 351.348 401.891 350.993 401.67 350.742C401.449 350.488 401.149 350.361 400.771 350.361ZM408.594 354.36C408.916 354.36 409.198 354.263 409.438 354.067C409.679 353.872 409.813 353.628 409.839 353.335H410.693C410.677 353.638 410.573 353.926 410.381 354.199C410.189 354.473 409.932 354.691 409.609 354.854C409.29 355.016 408.952 355.098 408.594 355.098C407.874 355.098 407.301 354.858 406.875 354.38C406.452 353.898 406.24 353.241 406.24 352.407V352.256C406.24 351.742 406.335 351.284 406.523 350.884C406.712 350.483 406.982 350.173 407.334 349.951C407.689 349.73 408.107 349.619 408.589 349.619C409.181 349.619 409.673 349.797 410.063 350.151C410.457 350.506 410.667 350.967 410.693 351.533H409.839C409.813 351.191 409.683 350.911 409.448 350.693C409.217 350.472 408.931 350.361 408.589 350.361C408.13 350.361 407.773 350.527 407.52 350.859C407.269 351.188 407.144 351.665 407.144 352.29V352.461C407.144 353.07 407.269 353.538 407.52 353.867C407.77 354.196 408.128 354.36 408.594 354.36ZM411.47 352.31C411.47 351.792 411.571 351.326 411.772 350.913C411.978 350.5 412.261 350.181 412.622 349.956C412.987 349.731 413.402 349.619 413.867 349.619C414.587 349.619 415.168 349.868 415.61 350.366C416.056 350.864 416.279 351.527 416.279 352.354V352.417C416.279 352.931 416.18 353.394 415.981 353.804C415.786 354.211 415.505 354.528 415.137 354.756C414.772 354.984 414.352 355.098 413.877 355.098C413.161 355.098 412.58 354.849 412.134 354.351C411.691 353.853 411.47 353.193 411.47 352.373V352.31ZM412.378 352.417C412.378 353.003 412.513 353.473 412.783 353.828C413.057 354.183 413.421 354.36 413.877 354.36C414.336 354.36 414.701 354.181 414.971 353.823C415.241 353.462 415.376 352.957 415.376 352.31C415.376 351.73 415.238 351.261 414.961 350.903C414.688 350.542 414.323 350.361 413.867 350.361C413.421 350.361 413.062 350.539 412.788 350.894C412.515 351.248 412.378 351.756 412.378 352.417ZM418.262 349.717L418.286 350.303C418.674 349.847 419.196 349.619 419.854 349.619C420.592 349.619 421.095 349.902 421.362 350.469C421.538 350.215 421.766 350.01 422.046 349.854C422.329 349.697 422.663 349.619 423.047 349.619C424.206 349.619 424.795 350.233 424.814 351.46V355H423.911V351.514C423.911 351.136 423.825 350.854 423.652 350.669C423.48 350.48 423.19 350.386 422.783 350.386C422.448 350.386 422.17 350.487 421.948 350.688C421.727 350.887 421.598 351.156 421.562 351.494V355H420.654V351.538C420.654 350.77 420.278 350.386 419.526 350.386C418.934 350.386 418.529 350.638 418.311 351.143V355H417.407V349.717H418.262ZM427.031 349.717L427.056 350.303C427.443 349.847 427.965 349.619 428.623 349.619C429.362 349.619 429.865 349.902 430.132 350.469C430.308 350.215 430.535 350.01 430.815 349.854C431.099 349.697 431.432 349.619 431.816 349.619C432.975 349.619 433.564 350.233 433.584 351.46V355H432.681V351.514C432.681 351.136 432.594 350.854 432.422 350.669C432.249 350.48 431.96 350.386 431.553 350.386C431.217 350.386 430.939 350.487 430.718 350.688C430.496 350.887 430.368 351.156 430.332 351.494V355H429.424V351.538C429.424 350.77 429.048 350.386 428.296 350.386C427.703 350.386 427.298 350.638 427.08 351.143V355H426.177V349.717H427.031ZM435.933 355H435.029V349.717H435.933V355ZM434.956 348.315C434.956 348.169 435 348.045 435.088 347.944C435.179 347.843 435.312 347.793 435.488 347.793C435.664 347.793 435.798 347.843 435.889 347.944C435.98 348.045 436.025 348.169 436.025 348.315C436.025 348.462 435.98 348.584 435.889 348.682C435.798 348.779 435.664 348.828 435.488 348.828C435.312 348.828 435.179 348.779 435.088 348.682C435 348.584 434.956 348.462 434.956 348.315ZM438.608 348.438V349.717H439.595V350.415H438.608V353.691C438.608 353.903 438.652 354.062 438.74 354.17C438.828 354.274 438.978 354.326 439.189 354.326C439.294 354.326 439.437 354.307 439.619 354.268V355C439.382 355.065 439.15 355.098 438.926 355.098C438.522 355.098 438.218 354.976 438.013 354.731C437.808 354.487 437.705 354.141 437.705 353.691V350.415H436.743V349.717H437.705V348.438H438.608Z" fill="black"/>
<path d="M312.048 307H311.14V300.979L309.318 301.648V300.828L311.906 299.856H312.048V307ZM314.567 304.314C314.567 303.504 314.759 302.853 315.144 302.361C315.528 301.867 316.031 301.619 316.652 301.619C317.271 301.619 317.761 301.831 318.122 302.254V299.5H319.025V307H318.195L318.151 306.434C317.79 306.876 317.287 307.098 316.643 307.098C316.031 307.098 315.531 306.847 315.144 306.346C314.759 305.844 314.567 305.19 314.567 304.383V304.314ZM315.471 304.417C315.471 305.016 315.594 305.485 315.842 305.823C316.089 306.162 316.431 306.331 316.867 306.331C317.44 306.331 317.858 306.074 318.122 305.56V303.133C317.852 302.635 317.437 302.386 316.877 302.386C316.434 302.386 316.089 302.557 315.842 302.898C315.594 303.24 315.471 303.746 315.471 304.417ZM322.624 307.098C321.908 307.098 321.325 306.863 320.876 306.395C320.427 305.923 320.202 305.293 320.202 304.505V304.339C320.202 303.815 320.301 303.348 320.5 302.938C320.702 302.524 320.982 302.202 321.34 301.971C321.701 301.736 322.092 301.619 322.512 301.619C323.199 301.619 323.732 301.845 324.113 302.298C324.494 302.75 324.685 303.398 324.685 304.241V304.617H321.105C321.118 305.138 321.27 305.56 321.56 305.882C321.853 306.201 322.224 306.36 322.673 306.36C322.992 306.36 323.262 306.295 323.483 306.165C323.705 306.035 323.898 305.862 324.064 305.647L324.616 306.077C324.174 306.757 323.509 307.098 322.624 307.098ZM322.512 302.361C322.147 302.361 321.841 302.495 321.594 302.762C321.346 303.025 321.193 303.396 321.135 303.875H323.781V303.807C323.755 303.348 323.632 302.993 323.41 302.742C323.189 302.488 322.889 302.361 322.512 302.361ZM329.953 301.746C329.953 302.101 329.859 302.417 329.67 302.693C329.484 302.97 329.232 303.187 328.913 303.343C329.284 303.502 329.577 303.735 329.792 304.041C330.01 304.347 330.119 304.694 330.119 305.081C330.119 305.696 329.911 306.186 329.494 306.551C329.081 306.915 328.535 307.098 327.858 307.098C327.175 307.098 326.626 306.915 326.213 306.551C325.803 306.183 325.598 305.693 325.598 305.081C325.598 304.697 325.702 304.35 325.91 304.041C326.122 303.732 326.413 303.497 326.784 303.338C326.468 303.182 326.219 302.965 326.037 302.688C325.855 302.412 325.764 302.098 325.764 301.746C325.764 301.147 325.956 300.672 326.34 300.32C326.724 299.969 327.23 299.793 327.858 299.793C328.483 299.793 328.988 299.969 329.372 300.32C329.759 300.672 329.953 301.147 329.953 301.746ZM329.216 305.062C329.216 304.664 329.089 304.34 328.835 304.09C328.584 303.839 328.256 303.714 327.849 303.714C327.442 303.714 327.115 303.838 326.867 304.085C326.623 304.332 326.501 304.658 326.501 305.062C326.501 305.465 326.62 305.783 326.857 306.014C327.098 306.245 327.432 306.36 327.858 306.36C328.282 306.36 328.614 306.245 328.854 306.014C329.095 305.779 329.216 305.462 329.216 305.062ZM327.858 300.535C327.504 300.535 327.215 300.646 326.994 300.867C326.776 301.085 326.667 301.383 326.667 301.761C326.667 302.122 326.774 302.415 326.989 302.64C327.207 302.861 327.497 302.972 327.858 302.972C328.22 302.972 328.508 302.861 328.723 302.64C328.941 302.415 329.05 302.122 329.05 301.761C329.05 301.399 328.938 301.105 328.713 300.877C328.488 300.649 328.203 300.535 327.858 300.535ZM335.847 300.398L332.902 307H331.955L334.89 300.633H331.042V299.891H335.847V300.398ZM341.53 307H336.872V306.351L339.333 303.616C339.698 303.203 339.948 302.868 340.085 302.61C340.225 302.35 340.295 302.081 340.295 301.805C340.295 301.434 340.183 301.129 339.958 300.892C339.733 300.654 339.434 300.535 339.06 300.535C338.61 300.535 338.26 300.664 338.01 300.921C337.762 301.175 337.639 301.53 337.639 301.985H336.735C336.735 301.331 336.945 300.802 337.365 300.398C337.788 299.995 338.353 299.793 339.06 299.793C339.72 299.793 340.243 299.967 340.627 300.315C341.011 300.66 341.203 301.121 341.203 301.697C341.203 302.397 340.757 303.23 339.865 304.197L337.961 306.263H341.53V307ZM347.053 304.417C347.053 305.224 346.867 305.874 346.496 306.365C346.125 306.854 345.627 307.098 345.002 307.098C344.335 307.098 343.819 306.862 343.454 306.39L343.41 307H342.58V299.5H343.483V302.298C343.848 301.845 344.351 301.619 344.992 301.619C345.633 301.619 346.136 301.862 346.501 302.347C346.869 302.832 347.053 303.496 347.053 304.339V304.417ZM346.149 304.314C346.149 303.699 346.031 303.224 345.793 302.889C345.555 302.553 345.214 302.386 344.768 302.386C344.172 302.386 343.744 302.662 343.483 303.216V305.501C343.76 306.054 344.191 306.331 344.777 306.331C345.21 306.331 345.547 306.163 345.788 305.828C346.029 305.493 346.149 304.988 346.149 304.314ZM313.291 312.31H311.481V311H310.671V312.31H308.881V312.97H313.291V312.31ZM311.081 316.99C310.401 316.99 309.921 316.42 309.921 315.63C309.921 314.84 310.401 314.27 311.081 314.27C311.741 314.27 312.231 314.84 312.231 315.63C312.231 316.42 311.741 316.99 311.081 316.99ZM311.081 313.58C309.991 313.58 309.201 314.42 309.201 315.63C309.201 316.84 309.991 317.68 311.081 317.68C312.161 317.68 312.951 316.84 312.951 315.63C312.951 314.42 312.161 313.58 311.081 313.58ZM314.041 314.23H313.041V314.92H314.041V319.29H314.821V310.97H314.041V314.23ZM315.731 310.77V319.74H316.511V310.77H315.731ZM319.361 312.3H322.621V311.62H318.541V317.54H319.231C320.931 317.54 322.011 317.48 323.311 317.24L323.211 316.56C322.001 316.79 320.951 316.85 319.361 316.85V312.3ZM324.661 310.77V314.02H322.091V314.7H324.661V319.76H325.481V310.77H324.661ZM330.58 315.51C331.97 315.3 333.26 314.61 333.83 313.64C334.4 314.61 335.68 315.3 337.07 315.51L337.36 314.85C335.76 314.63 334.24 313.64 334.24 312.54H337.1V311.88H334.24V310.77H333.42V311.88H330.56V312.54H333.41C333.41 313.65 331.9 314.63 330.28 314.85L330.58 315.51ZM337.89 316.19H329.78V316.86H333.42V319.75H334.24V316.86H337.89V316.19ZM339.449 311.73V312.41H342.739C342.549 314.53 341.319 316.25 339.029 317.4L339.479 318.04C342.379 316.59 343.549 314.28 343.549 311.73H339.449ZM347.309 314.41H345.869V310.77H345.049V319.74H345.869V315.09H347.309V314.41Z" fill="black"/>
<path d="M235.466 186H230.808V185.351L233.269 182.616C233.633 182.203 233.884 181.868 234.021 181.61C234.16 181.35 234.23 181.081 234.23 180.805C234.23 180.434 234.118 180.129 233.894 179.892C233.669 179.654 233.369 179.535 232.995 179.535C232.546 179.535 232.196 179.664 231.945 179.921C231.698 180.175 231.574 180.53 231.574 180.985H230.671C230.671 180.331 230.881 179.802 231.301 179.398C231.724 178.995 232.289 178.793 232.995 178.793C233.656 178.793 234.178 178.967 234.562 179.315C234.947 179.66 235.139 180.121 235.139 180.697C235.139 181.397 234.693 182.23 233.801 183.197L231.896 185.263H235.466V186ZM238.635 185.36C238.957 185.36 239.239 185.263 239.479 185.067C239.72 184.872 239.854 184.628 239.88 184.335H240.734C240.718 184.638 240.614 184.926 240.422 185.199C240.23 185.473 239.973 185.691 239.65 185.854C239.331 186.016 238.993 186.098 238.635 186.098C237.915 186.098 237.342 185.858 236.916 185.38C236.493 184.898 236.281 184.241 236.281 183.407V183.256C236.281 182.742 236.376 182.284 236.564 181.884C236.753 181.483 237.023 181.173 237.375 180.951C237.73 180.73 238.148 180.619 238.63 180.619C239.222 180.619 239.714 180.797 240.104 181.151C240.498 181.506 240.708 181.967 240.734 182.533H239.88C239.854 182.191 239.724 181.911 239.489 181.693C239.258 181.472 238.972 181.361 238.63 181.361C238.171 181.361 237.814 181.527 237.561 181.859C237.31 182.188 237.185 182.665 237.185 183.29V183.461C237.185 184.07 237.31 184.538 237.561 184.867C237.811 185.196 238.169 185.36 238.635 185.36ZM245.012 186C244.96 185.896 244.917 185.71 244.885 185.443C244.465 185.88 243.964 186.098 243.381 186.098C242.86 186.098 242.432 185.951 242.097 185.658C241.765 185.362 241.599 184.988 241.599 184.535C241.599 183.985 241.807 183.559 242.224 183.256C242.644 182.95 243.233 182.797 243.991 182.797H244.87V182.382C244.87 182.066 244.776 181.815 244.587 181.63C244.398 181.441 244.12 181.347 243.752 181.347C243.43 181.347 243.16 181.428 242.941 181.591C242.723 181.754 242.614 181.951 242.614 182.182H241.706C241.706 181.918 241.799 181.664 241.984 181.42C242.173 181.173 242.427 180.977 242.746 180.834C243.068 180.691 243.422 180.619 243.806 180.619C244.414 180.619 244.891 180.772 245.236 181.078C245.581 181.381 245.76 181.799 245.773 182.333V184.765C245.773 185.25 245.835 185.635 245.959 185.922V186H245.012ZM243.513 185.312C243.796 185.312 244.064 185.238 244.318 185.092C244.572 184.945 244.756 184.755 244.87 184.521V183.437H244.162C243.055 183.437 242.502 183.76 242.502 184.408C242.502 184.691 242.596 184.913 242.785 185.072C242.974 185.232 243.216 185.312 243.513 185.312ZM251.755 186H247.097V185.351L249.558 182.616C249.922 182.203 250.173 181.868 250.31 181.61C250.45 181.35 250.52 181.081 250.52 180.805C250.52 180.434 250.407 180.129 250.183 179.892C249.958 179.654 249.659 179.535 249.284 179.535C248.835 179.535 248.485 179.664 248.234 179.921C247.987 180.175 247.863 180.53 247.863 180.985H246.96C246.96 180.331 247.17 179.802 247.59 179.398C248.013 178.995 248.578 178.793 249.284 178.793C249.945 178.793 250.467 178.967 250.852 179.315C251.236 179.66 251.428 180.121 251.428 180.697C251.428 181.397 250.982 182.23 250.09 183.197L248.186 185.263H251.755V186ZM256.257 178.886V179.652H256.091C255.388 179.665 254.828 179.874 254.411 180.277C253.994 180.681 253.754 181.249 253.688 181.981C254.063 181.552 254.574 181.337 255.222 181.337C255.84 181.337 256.333 181.555 256.701 181.991C257.072 182.427 257.258 182.991 257.258 183.681C257.258 184.413 257.058 184.999 256.657 185.438C256.26 185.878 255.726 186.098 255.056 186.098C254.375 186.098 253.824 185.837 253.4 185.316C252.977 184.792 252.766 184.118 252.766 183.295V182.948C252.766 181.64 253.044 180.64 253.601 179.95C254.16 179.257 254.992 178.902 256.096 178.886H256.257ZM255.07 182.089C254.761 182.089 254.476 182.182 254.216 182.367C253.955 182.553 253.775 182.785 253.674 183.065V183.397C253.674 183.983 253.806 184.455 254.069 184.813C254.333 185.172 254.662 185.351 255.056 185.351C255.463 185.351 255.782 185.201 256.013 184.901C256.247 184.602 256.364 184.21 256.364 183.725C256.364 183.236 256.245 182.842 256.008 182.543C255.773 182.24 255.461 182.089 255.07 182.089ZM262.141 183.612H263.127V184.35H262.141V186H261.232V184.35H257.995V183.817L261.179 178.891H262.141V183.612ZM259.021 183.612H261.232V180.126L261.125 180.321L259.021 183.612ZM265.017 186H264.113V180.717H265.017V186ZM264.04 179.315C264.04 179.169 264.084 179.045 264.172 178.944C264.263 178.843 264.396 178.793 264.572 178.793C264.748 178.793 264.882 178.843 264.973 178.944C265.064 179.045 265.109 179.169 265.109 179.315C265.109 179.462 265.064 179.584 264.973 179.682C264.882 179.779 264.748 179.828 264.572 179.828C264.396 179.828 264.263 179.779 264.172 179.682C264.084 179.584 264.04 179.462 264.04 179.315ZM234.061 193.38H231.831V190.94H234.061V193.38ZM231.011 193.38H229.691V194.05H236.201V193.38H234.881V190.94H236.231V190.27H229.661V190.94H231.011V193.38ZM237.011 195.09H228.881V195.76H232.531V198.74H233.361V195.76H237.011V195.09ZM239.321 193.77H242.261V193.11H239.321V191.26H242.651V190.58H238.501V196.59H239.191C240.901 196.59 241.991 196.54 243.291 196.31L243.201 195.64C241.981 195.86 240.941 195.92 239.321 195.92V193.77ZM244.661 189.76V193.15H242.811V193.83H244.661V198.75H245.481V189.76H244.661ZM250.58 194.51C251.97 194.3 253.26 193.61 253.83 192.64C254.4 193.61 255.68 194.3 257.07 194.51L257.36 193.85C255.76 193.63 254.24 192.64 254.24 191.54H257.1V190.88H254.24V189.77H253.42V190.88H250.56V191.54H253.41C253.41 192.65 251.9 193.63 250.28 193.85L250.58 194.51ZM257.89 195.19H249.78V195.86H253.42V198.75H254.24V195.86H257.89V195.19ZM259.449 190.73V191.41H262.739C262.549 193.53 261.319 195.25 259.029 196.4L259.479 197.04C262.379 195.59 263.549 193.28 263.549 190.73H259.449ZM267.309 193.41H265.869V189.77H265.049V198.74H265.869V194.09H267.309V193.41Z" fill="black"/>
<path d="M235.466 340H230.808V339.351L233.269 336.616C233.633 336.203 233.884 335.868 234.021 335.61C234.16 335.35 234.23 335.081 234.23 334.805C234.23 334.434 234.118 334.129 233.894 333.892C233.669 333.654 233.369 333.535 232.995 333.535C232.546 333.535 232.196 333.664 231.945 333.921C231.698 334.175 231.574 334.53 231.574 334.985H230.671C230.671 334.331 230.881 333.802 231.301 333.398C231.724 332.995 232.289 332.793 232.995 332.793C233.656 332.793 234.178 332.967 234.562 333.315C234.947 333.66 235.139 334.121 235.139 334.697C235.139 335.397 234.693 336.23 233.801 337.197L231.896 339.263H235.466V340ZM238.635 339.36C238.957 339.36 239.239 339.263 239.479 339.067C239.72 338.872 239.854 338.628 239.88 338.335H240.734C240.718 338.638 240.614 338.926 240.422 339.199C240.23 339.473 239.973 339.691 239.65 339.854C239.331 340.016 238.993 340.098 238.635 340.098C237.915 340.098 237.342 339.858 236.916 339.38C236.493 338.898 236.281 338.241 236.281 337.407V337.256C236.281 336.742 236.376 336.284 236.564 335.884C236.753 335.483 237.023 335.173 237.375 334.951C237.73 334.73 238.148 334.619 238.63 334.619C239.222 334.619 239.714 334.797 240.104 335.151C240.498 335.506 240.708 335.967 240.734 336.533H239.88C239.854 336.191 239.724 335.911 239.489 335.693C239.258 335.472 238.972 335.361 238.63 335.361C238.171 335.361 237.814 335.527 237.561 335.859C237.31 336.188 237.185 336.665 237.185 337.29V337.461C237.185 338.07 237.31 338.538 237.561 338.867C237.811 339.196 238.169 339.36 238.635 339.36ZM245.012 340C244.96 339.896 244.917 339.71 244.885 339.443C244.465 339.88 243.964 340.098 243.381 340.098C242.86 340.098 242.432 339.951 242.097 339.658C241.765 339.362 241.599 338.988 241.599 338.535C241.599 337.985 241.807 337.559 242.224 337.256C242.644 336.95 243.233 336.797 243.991 336.797H244.87V336.382C244.87 336.066 244.776 335.815 244.587 335.63C244.398 335.441 244.12 335.347 243.752 335.347C243.43 335.347 243.16 335.428 242.941 335.591C242.723 335.754 242.614 335.951 242.614 336.182H241.706C241.706 335.918 241.799 335.664 241.984 335.42C242.173 335.173 242.427 334.977 242.746 334.834C243.068 334.691 243.422 334.619 243.806 334.619C244.414 334.619 244.891 334.772 245.236 335.078C245.581 335.381 245.76 335.799 245.773 336.333V338.765C245.773 339.25 245.835 339.635 245.959 339.922V340H245.012ZM243.513 339.312C243.796 339.312 244.064 339.238 244.318 339.092C244.572 338.945 244.756 338.755 244.87 338.521V337.437H244.162C243.055 337.437 242.502 337.76 242.502 338.408C242.502 338.691 242.596 338.913 242.785 339.072C242.974 339.232 243.216 339.312 243.513 339.312ZM251.755 340H247.097V339.351L249.558 336.616C249.922 336.203 250.173 335.868 250.31 335.61C250.45 335.35 250.52 335.081 250.52 334.805C250.52 334.434 250.407 334.129 250.183 333.892C249.958 333.654 249.659 333.535 249.284 333.535C248.835 333.535 248.485 333.664 248.234 333.921C247.987 334.175 247.863 334.53 247.863 334.985H246.96C246.96 334.331 247.17 333.802 247.59 333.398C248.013 332.995 248.578 332.793 249.284 332.793C249.945 332.793 250.467 332.967 250.852 333.315C251.236 333.66 251.428 334.121 251.428 334.697C251.428 335.397 250.982 336.23 250.09 337.197L248.186 339.263H251.755V340ZM256.257 332.886V333.652H256.091C255.388 333.665 254.828 333.874 254.411 334.277C253.994 334.681 253.754 335.249 253.688 335.981C254.063 335.552 254.574 335.337 255.222 335.337C255.84 335.337 256.333 335.555 256.701 335.991C257.072 336.427 257.258 336.991 257.258 337.681C257.258 338.413 257.058 338.999 256.657 339.438C256.26 339.878 255.726 340.098 255.056 340.098C254.375 340.098 253.824 339.837 253.4 339.316C252.977 338.792 252.766 338.118 252.766 337.295V336.948C252.766 335.64 253.044 334.64 253.601 333.95C254.16 333.257 254.992 332.902 256.096 332.886H256.257ZM255.07 336.089C254.761 336.089 254.476 336.182 254.216 336.367C253.955 336.553 253.775 336.785 253.674 337.065V337.397C253.674 337.983 253.806 338.455 254.069 338.813C254.333 339.172 254.662 339.351 255.056 339.351C255.463 339.351 255.782 339.201 256.013 338.901C256.247 338.602 256.364 338.21 256.364 337.725C256.364 337.236 256.245 336.842 256.008 336.543C255.773 336.24 255.461 336.089 255.07 336.089ZM262.141 337.612H263.127V338.35H262.141V340H261.232V338.35H257.995V337.817L261.179 332.891H262.141V337.612ZM259.021 337.612H261.232V334.126L261.125 334.321L259.021 337.612ZM265.017 340H264.113V334.717H265.017V340ZM264.04 333.315C264.04 333.169 264.084 333.045 264.172 332.944C264.263 332.843 264.396 332.793 264.572 332.793C264.748 332.793 264.882 332.843 264.973 332.944C265.064 333.045 265.109 333.169 265.109 333.315C265.109 333.462 265.064 333.584 264.973 333.682C264.882 333.779 264.748 333.828 264.572 333.828C264.396 333.828 264.263 333.779 264.172 333.682C264.084 333.584 264.04 333.462 264.04 333.315ZM234.061 347.38H231.831V344.94H234.061V347.38ZM231.011 347.38H229.691V348.05H236.201V347.38H234.881V344.94H236.231V344.27H229.661V344.94H231.011V347.38ZM237.011 349.09H228.881V349.76H232.531V352.74H233.361V349.76H237.011V349.09ZM239.321 347.77H242.261V347.11H239.321V345.26H242.651V344.58H238.501V350.59H239.191C240.901 350.59 241.991 350.54 243.291 350.31L243.201 349.64C241.981 349.86 240.941 349.92 239.321 349.92V347.77ZM244.661 343.76V347.15H242.811V347.83H244.661V352.75H245.481V343.76H244.661ZM250.58 348.51C251.97 348.3 253.26 347.61 253.83 346.64C254.4 347.61 255.68 348.3 257.07 348.51L257.36 347.85C255.76 347.63 254.24 346.64 254.24 345.54H257.1V344.88H254.24V343.77H253.42V344.88H250.56V345.54H253.41C253.41 346.65 251.9 347.63 250.28 347.85L250.58 348.51ZM257.89 349.19H249.78V349.86H253.42V352.75H254.24V349.86H257.89V349.19ZM259.449 344.73V345.41H262.739C262.549 347.53 261.319 349.25 259.029 350.4L259.479 351.04C262.379 349.59 263.549 347.28 263.549 344.73H259.449ZM267.309 347.41H265.869V343.77H265.049V352.74H265.869V348.09H267.309V347.41Z" fill="black"/>
<path d="M165.559 361C160.694 351.652 185.557 330.945 321 332.042" stroke="#4000C7"/>
<path d="M165.559 206C160.694 196.652 185.557 175.945 321 177.042" stroke="#4000C7"/>
<path d="M406.738 361C409.015 351.652 397.38 330.945 334 332.042" stroke="#4000C7"/>
<path d="M406.738 206C409.015 196.652 397.38 175.945 334 177.042" stroke="#4000C7"/>
<rect x="434.824" y="220.124" width="18" height="41" rx="5" transform="rotate(-90.1738 434.824 220.124)" fill="black"/>
<path d="M427.001 211.193L435.251 207.73L435.25 214.659L427.001 211.193Z" fill="black"/>
<path d="M444.603 208.737L444.63 209.382C445.056 208.88 445.631 208.629 446.354 208.629C447.167 208.629 447.72 208.941 448.014 209.564C448.207 209.284 448.458 209.059 448.766 208.887C449.077 208.715 449.444 208.629 449.867 208.629C451.142 208.628 451.79 209.303 451.812 210.653L451.812 214.547L450.819 214.547L450.818 210.712C450.818 210.297 450.723 209.987 450.533 209.783C450.343 209.576 450.025 209.472 449.577 209.472C449.208 209.472 448.902 209.583 448.659 209.805C448.415 210.024 448.274 210.319 448.235 210.691L448.235 214.548L447.236 214.548L447.235 210.74C447.235 209.895 446.822 209.472 445.995 209.473C445.343 209.473 444.897 209.75 444.657 210.305L444.658 214.549L443.664 214.549L443.663 208.737L444.603 208.737ZM456.904 214.546C456.847 214.432 456.8 214.228 456.764 213.934C456.303 214.414 455.751 214.654 455.11 214.654C454.537 214.654 454.066 214.493 453.698 214.171C453.332 213.845 453.15 213.433 453.149 212.936C453.149 212.331 453.378 211.861 453.837 211.528C454.299 211.192 454.947 211.023 455.781 211.023L456.748 211.023L456.748 210.566C456.748 210.219 456.644 209.943 456.436 209.739C456.228 209.532 455.922 209.428 455.517 209.428C455.163 209.428 454.866 209.518 454.626 209.697C454.386 209.876 454.266 210.092 454.266 210.347L453.267 210.347C453.267 210.057 453.369 209.777 453.573 209.509C453.781 209.237 454.06 209.022 454.411 208.864C454.765 208.707 455.154 208.628 455.576 208.628C456.246 208.627 456.771 208.796 457.15 209.132C457.53 209.465 457.727 209.925 457.741 210.512L457.742 213.187C457.742 213.721 457.81 214.145 457.946 214.46L457.946 214.546L456.904 214.546ZM455.255 213.789C455.567 213.789 455.862 213.709 456.141 213.547C456.421 213.386 456.623 213.177 456.748 212.919L456.748 211.726L455.969 211.727C454.752 211.727 454.143 212.083 454.143 212.796C454.143 213.107 454.247 213.351 454.455 213.526C454.662 213.702 454.929 213.789 455.255 213.789ZM460.379 214.546L459.386 214.546L459.385 208.734L460.378 208.734L460.379 214.546ZM459.304 207.193C459.304 207.032 459.352 206.896 459.449 206.785C459.549 206.674 459.696 206.618 459.889 206.618C460.082 206.618 460.229 206.673 460.33 206.784C460.43 206.895 460.48 207.031 460.48 207.193C460.48 207.354 460.43 207.488 460.33 207.595C460.229 207.703 460.083 207.757 459.889 207.757C459.696 207.757 459.549 207.703 459.449 207.596C459.352 207.488 459.304 207.354 459.304 207.193ZM462.913 208.734L462.946 209.464C463.39 208.905 463.97 208.626 464.686 208.626C465.914 208.626 466.534 209.318 466.545 210.704L466.545 214.545L465.552 214.545L465.551 210.699C465.547 210.28 465.451 209.97 465.261 209.77C465.074 209.569 464.783 209.469 464.385 209.469C464.063 209.469 463.78 209.555 463.537 209.727C463.293 209.899 463.103 210.125 462.967 210.404L462.968 214.545L461.974 214.545L461.973 208.734L462.913 208.734Z" fill="white"/>
<circle cx="84.5" cy="366.5" r="9.5" fill="#4000C7"/>
<circle cx="84.5" cy="212.5" r="9.5" fill="#4000C7"/>
<circle cx="84.5" cy="91.5" r="9.5" fill="#4000C7"/>
<circle cx="165.5" cy="366.5" r="9.5" fill="#4000C7"/>
<circle cx="165.5" cy="212.5" r="9.5" fill="#4000C7"/>
<circle cx="247.5" cy="212.5" r="9.5" fill="#4000C7"/>
<circle cx="247.5" cy="366.5" r="9.5" fill="#4000C7"/>
<circle cx="406.5" cy="366.5" r="9.5" fill="#4000C7"/>
<circle cx="406.5" cy="211.5" r="9.5" fill="#4000C7"/>
<circle cx="406.5" cy="91.5" r="9.5" fill="#4000C7"/>
<circle cx="327.5" cy="331.5" r="9.5" fill="#4000C7"/>
<circle cx="327.5" cy="176.5" r="9.5" fill="#4000C7"/>
<circle cx="165.5" cy="91.5" r="9.5" fill="#4000C7"/>
<line x1="85" y1="366.5" x2="408" y2="366.5" stroke="#4000C7"/>
<line x1="85" y1="212.5" x2="397" y2="212.5" stroke="#4000C7"/>
<line x1="89" y1="91.5" x2="403" y2="91.5" stroke="#4000C7"/>
<circle cx="247.5" cy="91.5" r="9.5" fill="#4000C7"/>
<path d="M312.048 37H311.14V30.9795L309.318 31.6484V30.8281L311.906 29.8564H312.048V37ZM314.567 34.3145C314.567 33.5039 314.759 32.8529 315.144 32.3613C315.528 31.8665 316.031 31.6191 316.652 31.6191C317.271 31.6191 317.761 31.8307 318.122 32.2539V29.5H319.025V37H318.195L318.151 36.4336C317.79 36.8763 317.287 37.0977 316.643 37.0977C316.031 37.0977 315.531 36.847 315.144 36.3457C314.759 35.8444 314.567 35.1901 314.567 34.3828V34.3145ZM315.471 34.417C315.471 35.016 315.594 35.4847 315.842 35.8232C316.089 36.1618 316.431 36.3311 316.867 36.3311C317.44 36.3311 317.858 36.0739 318.122 35.5596V33.1328C317.852 32.6348 317.437 32.3857 316.877 32.3857C316.434 32.3857 316.089 32.5566 315.842 32.8984C315.594 33.2402 315.471 33.7464 315.471 34.417ZM322.624 37.0977C321.908 37.0977 321.325 36.8633 320.876 36.3945C320.427 35.9225 320.202 35.2926 320.202 34.5049V34.3389C320.202 33.8148 320.301 33.3477 320.5 32.9375C320.702 32.5241 320.982 32.2018 321.34 31.9707C321.701 31.7363 322.092 31.6191 322.512 31.6191C323.199 31.6191 323.732 31.8454 324.113 32.2979C324.494 32.7503 324.685 33.3981 324.685 34.2412V34.6172H321.105C321.118 35.138 321.27 35.5596 321.56 35.8818C321.853 36.2008 322.224 36.3604 322.673 36.3604C322.992 36.3604 323.262 36.2952 323.483 36.165C323.705 36.0348 323.898 35.8623 324.064 35.6475L324.616 36.0771C324.174 36.7575 323.509 37.0977 322.624 37.0977ZM322.512 32.3613C322.147 32.3613 321.841 32.4948 321.594 32.7617C321.346 33.0254 321.193 33.3965 321.135 33.875H323.781V33.8066C323.755 33.3477 323.632 32.9928 323.41 32.7422C323.189 32.4883 322.889 32.3613 322.512 32.3613ZM329.953 31.7461C329.953 32.1009 329.859 32.4167 329.67 32.6934C329.484 32.9701 329.232 33.1865 328.913 33.3428C329.284 33.5023 329.577 33.735 329.792 34.041C330.01 34.347 330.119 34.6937 330.119 35.0811C330.119 35.6963 329.911 36.1862 329.494 36.5508C329.081 36.9154 328.535 37.0977 327.858 37.0977C327.175 37.0977 326.626 36.9154 326.213 36.5508C325.803 36.1829 325.598 35.693 325.598 35.0811C325.598 34.6969 325.702 34.3503 325.91 34.041C326.122 33.7318 326.413 33.4974 326.784 33.3379C326.468 33.1816 326.219 32.9652 326.037 32.6885C325.855 32.4118 325.764 32.0977 325.764 31.7461C325.764 31.1471 325.956 30.6719 326.34 30.3203C326.724 29.9688 327.23 29.793 327.858 29.793C328.483 29.793 328.988 29.9688 329.372 30.3203C329.759 30.6719 329.953 31.1471 329.953 31.7461ZM329.216 35.0615C329.216 34.6644 329.089 34.3405 328.835 34.0898C328.584 33.8392 328.256 33.7139 327.849 33.7139C327.442 33.7139 327.115 33.8376 326.867 34.085C326.623 34.3324 326.501 34.6579 326.501 35.0615C326.501 35.4652 326.62 35.7826 326.857 36.0137C327.098 36.2448 327.432 36.3604 327.858 36.3604C328.282 36.3604 328.614 36.2448 328.854 36.0137C329.095 35.7793 329.216 35.4619 329.216 35.0615ZM327.858 30.5352C327.504 30.5352 327.215 30.6458 326.994 30.8672C326.776 31.0853 326.667 31.3831 326.667 31.7607C326.667 32.1221 326.774 32.415 326.989 32.6396C327.207 32.861 327.497 32.9717 327.858 32.9717C328.22 32.9717 328.508 32.861 328.723 32.6396C328.941 32.415 329.05 32.1221 329.05 31.7607C329.05 31.3994 328.938 31.1048 328.713 30.877C328.488 30.6491 328.203 30.5352 327.858 30.5352ZM335.847 30.3984L332.902 37H331.955L334.89 30.6328H331.042V29.8906H335.847V30.3984ZM341.53 37H336.872V36.3506L339.333 33.6162C339.698 33.2028 339.948 32.8675 340.085 32.6104C340.225 32.3499 340.295 32.0814 340.295 31.8047C340.295 31.4336 340.183 31.1292 339.958 30.8916C339.733 30.654 339.434 30.5352 339.06 30.5352C338.61 30.5352 338.26 30.6637 338.01 30.9209C337.762 31.1748 337.639 31.5296 337.639 31.9854H336.735C336.735 31.3311 336.945 30.8021 337.365 30.3984C337.788 29.9948 338.353 29.793 339.06 29.793C339.72 29.793 340.243 29.9671 340.627 30.3154C341.011 30.6605 341.203 31.1211 341.203 31.6973C341.203 32.3971 340.757 33.2305 339.865 34.1973L337.961 36.2627H341.53V37ZM347.053 34.417C347.053 35.2243 346.867 35.8737 346.496 36.3652C346.125 36.8535 345.627 37.0977 345.002 37.0977C344.335 37.0977 343.819 36.8617 343.454 36.3896L343.41 37H342.58V29.5H343.483V32.2979C343.848 31.8454 344.351 31.6191 344.992 31.6191C345.633 31.6191 346.136 31.8617 346.501 32.3467C346.869 32.8317 347.053 33.4958 347.053 34.3389V34.417ZM346.149 34.3145C346.149 33.6992 346.031 33.224 345.793 32.8887C345.555 32.5534 345.214 32.3857 344.768 32.3857C344.172 32.3857 343.744 32.6624 343.483 33.2158V35.501C343.76 36.0544 344.191 36.3311 344.777 36.3311C345.21 36.3311 345.547 36.1634 345.788 35.8281C346.029 35.4928 346.149 34.9883 346.149 34.3145ZM313.291 42.31H311.481V41H310.671V42.31H308.881V42.97H313.291V42.31ZM311.081 46.99C310.401 46.99 309.921 46.42 309.921 45.63C309.921 44.84 310.401 44.27 311.081 44.27C311.741 44.27 312.231 44.84 312.231 45.63C312.231 46.42 311.741 46.99 311.081 46.99ZM311.081 43.58C309.991 43.58 309.201 44.42 309.201 45.63C309.201 46.84 309.991 47.68 311.081 47.68C312.161 47.68 312.951 46.84 312.951 45.63C312.951 44.42 312.161 43.58 311.081 43.58ZM314.041 44.23H313.041V44.92H314.041V49.29H314.821V40.97H314.041V44.23ZM315.731 40.77V49.74H316.511V40.77H315.731ZM319.361 42.3H322.621V41.62H318.541V47.54H319.231C320.931 47.54 322.011 47.48 323.311 47.24L323.211 46.56C322.001 46.79 320.951 46.85 319.361 46.85V42.3ZM324.661 40.77V44.02H322.091V44.7H324.661V49.76H325.481V40.77H324.661ZM330.58 45.51C331.97 45.3 333.26 44.61 333.83 43.64C334.4 44.61 335.68 45.3 337.07 45.51L337.36 44.85C335.76 44.63 334.24 43.64 334.24 42.54H337.1V41.88H334.24V40.77H333.42V41.88H330.56V42.54H333.41C333.41 43.65 331.9 44.63 330.28 44.85L330.58 45.51ZM337.89 46.19H329.78V46.86H333.42V49.75H334.24V46.86H337.89V46.19ZM339.449 41.73V42.41H342.739C342.549 44.53 341.319 46.25 339.029 47.4L339.479 48.04C342.379 46.59 343.549 44.28 343.549 41.73H339.449ZM347.309 44.41H345.869V40.77H345.049V49.74H345.869V45.09H347.309V44.41Z" fill="black"/>
<path d="M235.466 64H230.808V63.3506L233.269 60.6162C233.633 60.2028 233.884 59.8675 234.021 59.6104C234.16 59.3499 234.23 59.0814 234.23 58.8047C234.23 58.4336 234.118 58.1292 233.894 57.8916C233.669 57.654 233.369 57.5352 232.995 57.5352C232.546 57.5352 232.196 57.6637 231.945 57.9209C231.698 58.1748 231.574 58.5296 231.574 58.9854H230.671C230.671 58.3311 230.881 57.8021 231.301 57.3984C231.724 56.9948 232.289 56.793 232.995 56.793C233.656 56.793 234.178 56.9671 234.562 57.3154C234.947 57.6605 235.139 58.1211 235.139 58.6973C235.139 59.3971 234.693 60.2305 233.801 61.1973L231.896 63.2627H235.466V64ZM238.635 63.3604C238.957 63.3604 239.239 63.2627 239.479 63.0674C239.72 62.8721 239.854 62.6279 239.88 62.335H240.734C240.718 62.6377 240.614 62.9258 240.422 63.1992C240.23 63.4727 239.973 63.6908 239.65 63.8535C239.331 64.0163 238.993 64.0977 238.635 64.0977C237.915 64.0977 237.342 63.8584 236.916 63.3799C236.493 62.8981 236.281 62.2406 236.281 61.4072V61.2559C236.281 60.7415 236.376 60.2842 236.564 59.8838C236.753 59.4834 237.023 59.1725 237.375 58.9512C237.73 58.7298 238.148 58.6191 238.63 58.6191C239.222 58.6191 239.714 58.7965 240.104 59.1514C240.498 59.5062 240.708 59.9668 240.734 60.5332H239.88C239.854 60.1914 239.724 59.9115 239.489 59.6934C239.258 59.472 238.972 59.3613 238.63 59.3613C238.171 59.3613 237.814 59.5273 237.561 59.8594C237.31 60.1882 237.185 60.665 237.185 61.29V61.4609C237.185 62.0697 237.31 62.5384 237.561 62.8672C237.811 63.196 238.169 63.3604 238.635 63.3604ZM245.012 64C244.96 63.8958 244.917 63.7103 244.885 63.4434C244.465 63.8796 243.964 64.0977 243.381 64.0977C242.86 64.0977 242.432 63.9512 242.097 63.6582C241.765 63.362 241.599 62.9876 241.599 62.5352C241.599 61.985 241.807 61.5586 242.224 61.2559C242.644 60.9499 243.233 60.7969 243.991 60.7969H244.87V60.3818C244.87 60.0661 244.776 59.8154 244.587 59.6299C244.398 59.4411 244.12 59.3467 243.752 59.3467C243.43 59.3467 243.16 59.4281 242.941 59.5908C242.723 59.7536 242.614 59.9505 242.614 60.1816H241.706C241.706 59.918 241.799 59.6641 241.984 59.4199C242.173 59.1725 242.427 58.9772 242.746 58.834C243.068 58.6908 243.422 58.6191 243.806 58.6191C244.414 58.6191 244.891 58.7721 245.236 59.0781C245.581 59.3809 245.76 59.7992 245.773 60.333V62.7646C245.773 63.2497 245.835 63.6354 245.959 63.9219V64H245.012ZM243.513 63.3115C243.796 63.3115 244.064 63.2383 244.318 63.0918C244.572 62.9453 244.756 62.7549 244.87 62.5205V61.4365H244.162C243.055 61.4365 242.502 61.7604 242.502 62.4082C242.502 62.6914 242.596 62.9128 242.785 63.0723C242.974 63.2318 243.216 63.3115 243.513 63.3115ZM251.755 64H247.097V63.3506L249.558 60.6162C249.922 60.2028 250.173 59.8675 250.31 59.6104C250.45 59.3499 250.52 59.0814 250.52 58.8047C250.52 58.4336 250.407 58.1292 250.183 57.8916C249.958 57.654 249.659 57.5352 249.284 57.5352C248.835 57.5352 248.485 57.6637 248.234 57.9209C247.987 58.1748 247.863 58.5296 247.863 58.9854H246.96C246.96 58.3311 247.17 57.8021 247.59 57.3984C248.013 56.9948 248.578 56.793 249.284 56.793C249.945 56.793 250.467 56.9671 250.852 57.3154C251.236 57.6605 251.428 58.1211 251.428 58.6973C251.428 59.3971 250.982 60.2305 250.09 61.1973L248.186 63.2627H251.755V64ZM256.257 56.8857V57.6523H256.091C255.388 57.6654 254.828 57.8737 254.411 58.2773C253.994 58.681 253.754 59.249 253.688 59.9814C254.063 59.5518 254.574 59.3369 255.222 59.3369C255.84 59.3369 256.333 59.555 256.701 59.9912C257.072 60.4274 257.258 60.9906 257.258 61.6807C257.258 62.4131 257.058 62.999 256.657 63.4385C256.26 63.8779 255.726 64.0977 255.056 64.0977C254.375 64.0977 253.824 63.8372 253.4 63.3164C252.977 62.7923 252.766 62.1185 252.766 61.2949V60.9482C252.766 59.6396 253.044 58.6403 253.601 57.9502C254.16 57.2568 254.992 56.902 256.096 56.8857H256.257ZM255.07 60.0889C254.761 60.0889 254.476 60.1816 254.216 60.3672C253.955 60.5527 253.775 60.7855 253.674 61.0654V61.3975C253.674 61.9834 253.806 62.4554 254.069 62.8135C254.333 63.1715 254.662 63.3506 255.056 63.3506C255.463 63.3506 255.782 63.2008 256.013 62.9014C256.247 62.6019 256.364 62.2096 256.364 61.7246C256.364 61.2363 256.245 60.8424 256.008 60.543C255.773 60.2402 255.461 60.0889 255.07 60.0889ZM262.141 61.6123H263.127V62.3496H262.141V64H261.232V62.3496H257.995V61.8174L261.179 56.8906H262.141V61.6123ZM259.021 61.6123H261.232V58.126L261.125 58.3213L259.021 61.6123ZM265.017 64H264.113V58.7168H265.017V64ZM264.04 57.3154C264.04 57.1689 264.084 57.0452 264.172 56.9443C264.263 56.8434 264.396 56.793 264.572 56.793C264.748 56.793 264.882 56.8434 264.973 56.9443C265.064 57.0452 265.109 57.1689 265.109 57.3154C265.109 57.4619 265.064 57.584 264.973 57.6816C264.882 57.7793 264.748 57.8281 264.572 57.8281C264.396 57.8281 264.263 57.7793 264.172 57.6816C264.084 57.584 264.04 57.4619 264.04 57.3154ZM234.061 71.38H231.831V68.94H234.061V71.38ZM231.011 71.38H229.691V72.05H236.201V71.38H234.881V68.94H236.231V68.27H229.661V68.94H231.011V71.38ZM237.011 73.09H228.881V73.76H232.531V76.74H233.361V73.76H237.011V73.09ZM239.321 71.77H242.261V71.11H239.321V69.26H242.651V68.58H238.501V74.59H239.191C240.901 74.59 241.991 74.54 243.291 74.31L243.201 73.64C241.981 73.86 240.941 73.92 239.321 73.92V71.77ZM244.661 67.76V71.15H242.811V71.83H244.661V76.75H245.481V67.76H244.661ZM250.58 72.51C251.97 72.3 253.26 71.61 253.83 70.64C254.4 71.61 255.68 72.3 257.07 72.51L257.36 71.85C255.76 71.63 254.24 70.64 254.24 69.54H257.1V68.88H254.24V67.77H253.42V68.88H250.56V69.54H253.41C253.41 70.65 251.9 71.63 250.28 71.85L250.58 72.51ZM257.89 73.19H249.78V73.86H253.42V76.75H254.24V73.86H257.89V73.19ZM259.449 68.73V69.41H262.739C262.549 71.53 261.319 73.25 259.029 74.4L259.479 75.04C262.379 73.59 263.549 71.28 263.549 68.73H259.449ZM267.309 71.41H265.869V67.77H265.049V76.74H265.869V72.09H267.309V71.41Z" fill="black"/>
<path d="M165.559 84C160.694 77.5532 185.557 63.2721 321 64.0289" stroke="#4000C7"/>
<path d="M406.738 84C409.015 77.5532 397.38 63.2721 334 64.0289" stroke="#4000C7"/>
<circle cx="327.5" cy="63.5" r="9.5" fill="#4000C7"/>
</svg>
