<svg width="1152" height="587" viewBox="0 0 1152 587" fill="none" xmlns="http://www.w3.org/2000/svg">
<path d="M0 0H1152V587H0V0Z" fill="white" fill-opacity="0.01"/>
<path d="M573.252 319H568.594V318.351L571.055 315.616C571.419 315.203 571.67 314.868 571.807 314.61C571.947 314.35 572.017 314.081 572.017 313.805C572.017 313.434 571.904 313.129 571.68 312.892C571.455 312.654 571.156 312.535 570.781 312.535C570.332 312.535 569.982 312.664 569.731 312.921C569.484 313.175 569.36 313.53 569.36 313.985H568.457C568.457 313.331 568.667 312.802 569.087 312.398C569.51 311.995 570.075 311.793 570.781 311.793C571.442 311.793 571.965 311.967 572.349 312.315C572.733 312.66 572.925 313.121 572.925 313.697C572.925 314.397 572.479 315.23 571.587 316.197L569.683 318.263H573.252V319ZM576.494 319.098C575.778 319.098 575.195 318.863 574.746 318.395C574.297 317.923 574.072 317.293 574.072 316.505V316.339C574.072 315.815 574.172 315.348 574.37 314.938C574.572 314.524 574.852 314.202 575.21 313.971C575.571 313.736 575.962 313.619 576.382 313.619C577.069 313.619 577.603 313.845 577.983 314.298C578.364 314.75 578.555 315.398 578.555 316.241V316.617H574.976C574.989 317.138 575.14 317.56 575.43 317.882C575.723 318.201 576.094 318.36 576.543 318.36C576.862 318.36 577.132 318.295 577.354 318.165C577.575 318.035 577.769 317.862 577.935 317.647L578.486 318.077C578.044 318.757 577.38 319.098 576.494 319.098ZM576.382 314.361C576.017 314.361 575.711 314.495 575.464 314.762C575.216 315.025 575.063 315.396 575.005 315.875H577.651V315.807C577.625 315.348 577.502 314.993 577.28 314.742C577.059 314.488 576.759 314.361 576.382 314.361ZM583.057 311.886V312.652H582.891C582.188 312.665 581.628 312.874 581.211 313.277C580.794 313.681 580.553 314.249 580.488 314.981C580.863 314.552 581.374 314.337 582.021 314.337C582.64 314.337 583.133 314.555 583.501 314.991C583.872 315.427 584.058 315.991 584.058 316.681C584.058 317.413 583.857 317.999 583.457 318.438C583.06 318.878 582.526 319.098 581.855 319.098C581.175 319.098 580.623 318.837 580.2 318.316C579.777 317.792 579.565 317.118 579.565 316.295V315.948C579.565 314.64 579.844 313.64 580.4 312.95C580.96 312.257 581.792 311.902 582.896 311.886H583.057ZM581.87 315.089C581.561 315.089 581.276 315.182 581.016 315.367C580.755 315.553 580.575 315.785 580.474 316.065V316.397C580.474 316.983 580.605 317.455 580.869 317.813C581.133 318.172 581.462 318.351 581.855 318.351C582.262 318.351 582.581 318.201 582.812 317.901C583.047 317.602 583.164 317.21 583.164 316.725C583.164 316.236 583.045 315.842 582.808 315.543C582.573 315.24 582.261 315.089 581.87 315.089ZM588.94 316.612H589.927V317.35H588.94V319H588.032V317.35H584.795V316.817L587.979 311.891H588.94V316.612ZM585.82 316.612H588.032V313.126L587.925 313.321L585.82 316.612ZM595.054 313.746C595.054 314.101 594.959 314.417 594.771 314.693C594.585 314.97 594.333 315.187 594.014 315.343C594.385 315.502 594.678 315.735 594.893 316.041C595.111 316.347 595.22 316.694 595.22 317.081C595.22 317.696 595.011 318.186 594.595 318.551C594.181 318.915 593.636 319.098 592.959 319.098C592.275 319.098 591.727 318.915 591.313 318.551C590.903 318.183 590.698 317.693 590.698 317.081C590.698 316.697 590.802 316.35 591.011 316.041C591.222 315.732 591.514 315.497 591.885 315.338C591.569 315.182 591.32 314.965 591.138 314.688C590.955 314.412 590.864 314.098 590.864 313.746C590.864 313.147 591.056 312.672 591.44 312.32C591.825 311.969 592.331 311.793 592.959 311.793C593.584 311.793 594.089 311.969 594.473 312.32C594.86 312.672 595.054 313.147 595.054 313.746ZM594.316 317.062C594.316 316.664 594.189 316.34 593.936 316.09C593.685 315.839 593.356 315.714 592.949 315.714C592.542 315.714 592.215 315.838 591.968 316.085C591.724 316.332 591.602 316.658 591.602 317.062C591.602 317.465 591.72 317.783 591.958 318.014C592.199 318.245 592.533 318.36 592.959 318.36C593.382 318.36 593.714 318.245 593.955 318.014C594.196 317.779 594.316 317.462 594.316 317.062ZM592.959 312.535C592.604 312.535 592.316 312.646 592.095 312.867C591.877 313.085 591.768 313.383 591.768 313.761C591.768 314.122 591.875 314.415 592.09 314.64C592.308 314.861 592.598 314.972 592.959 314.972C593.32 314.972 593.608 314.861 593.823 314.64C594.041 314.415 594.15 314.122 594.15 313.761C594.15 313.399 594.038 313.105 593.813 312.877C593.589 312.649 593.304 312.535 592.959 312.535ZM596.772 315.436L597.134 311.891H600.776V312.726H597.9L597.686 314.664C598.034 314.459 598.429 314.356 598.872 314.356C599.52 314.356 600.034 314.571 600.415 315.001C600.796 315.427 600.986 316.005 600.986 316.734C600.986 317.467 600.788 318.045 600.391 318.468C599.997 318.888 599.445 319.098 598.735 319.098C598.107 319.098 597.594 318.924 597.197 318.575C596.8 318.227 596.574 317.745 596.519 317.13H597.373C597.428 317.537 597.573 317.844 597.808 318.053C598.042 318.258 598.351 318.36 598.735 318.36C599.155 318.36 599.484 318.217 599.722 317.931C599.963 317.644 600.083 317.249 600.083 316.744C600.083 316.269 599.953 315.888 599.692 315.602C599.435 315.312 599.092 315.167 598.662 315.167C598.268 315.167 597.959 315.253 597.734 315.426L597.495 315.621L596.772 315.436ZM606.538 316.417C606.538 317.224 606.353 317.874 605.981 318.365C605.61 318.854 605.112 319.098 604.487 319.098C603.82 319.098 603.304 318.862 602.939 318.39L602.896 319H602.065V311.5H602.969V314.298C603.333 313.845 603.836 313.619 604.478 313.619C605.119 313.619 605.622 313.862 605.986 314.347C606.354 314.832 606.538 315.496 606.538 316.339V316.417ZM605.635 316.314C605.635 315.699 605.516 315.224 605.278 314.889C605.041 314.553 604.699 314.386 604.253 314.386C603.657 314.386 603.229 314.662 602.969 315.216V317.501C603.245 318.054 603.677 318.331 604.263 318.331C604.696 318.331 605.033 318.163 605.273 317.828C605.514 317.493 605.635 316.988 605.635 316.314ZM556.562 325.717L556.587 326.303C556.974 325.847 557.497 325.619 558.154 325.619C558.893 325.619 559.396 325.902 559.663 326.469C559.839 326.215 560.067 326.01 560.347 325.854C560.63 325.697 560.964 325.619 561.348 325.619C562.507 325.619 563.096 326.233 563.115 327.46V331H562.212V327.514C562.212 327.136 562.126 326.854 561.953 326.669C561.781 326.48 561.491 326.386 561.084 326.386C560.749 326.386 560.47 326.487 560.249 326.688C560.028 326.887 559.899 327.156 559.863 327.494V331H558.955V327.538C558.955 326.77 558.579 326.386 557.827 326.386C557.235 326.386 556.829 326.638 556.611 327.143V331H555.708V325.717H556.562ZM566.675 331.098C565.959 331.098 565.376 330.863 564.927 330.395C564.478 329.923 564.253 329.293 564.253 328.505V328.339C564.253 327.815 564.352 327.348 564.551 326.938C564.753 326.524 565.033 326.202 565.391 325.971C565.752 325.736 566.143 325.619 566.562 325.619C567.249 325.619 567.783 325.845 568.164 326.298C568.545 326.75 568.735 327.398 568.735 328.241V328.617H565.156C565.169 329.138 565.321 329.56 565.61 329.882C565.903 330.201 566.274 330.36 566.724 330.36C567.043 330.36 567.313 330.295 567.534 330.165C567.756 330.035 567.949 329.862 568.115 329.647L568.667 330.077C568.224 330.757 567.56 331.098 566.675 331.098ZM566.562 326.361C566.198 326.361 565.892 326.495 565.645 326.762C565.397 327.025 565.244 327.396 565.186 327.875H567.832V327.807C567.806 327.348 567.682 326.993 567.461 326.742C567.24 326.488 566.94 326.361 566.562 326.361ZM572.339 326.527C572.202 326.505 572.054 326.493 571.895 326.493C571.302 326.493 570.9 326.745 570.688 327.25V331H569.785V325.717H570.664L570.679 326.327C570.975 325.855 571.395 325.619 571.938 325.619C572.114 325.619 572.248 325.642 572.339 325.688V326.527ZM572.861 328.314C572.861 327.491 573.052 326.837 573.433 326.352C573.813 325.863 574.318 325.619 574.946 325.619C575.591 325.619 576.094 325.847 576.455 326.303L576.499 325.717H577.324V330.873C577.324 331.557 577.121 332.095 576.714 332.489C576.31 332.883 575.767 333.08 575.083 333.08C574.702 333.08 574.329 332.999 573.965 332.836C573.6 332.673 573.322 332.45 573.13 332.167L573.599 331.625C573.986 332.104 574.46 332.343 575.02 332.343C575.459 332.343 575.801 332.219 576.045 331.972C576.292 331.724 576.416 331.376 576.416 330.927V330.473C576.055 330.889 575.562 331.098 574.937 331.098C574.318 331.098 573.817 330.849 573.433 330.351C573.052 329.853 572.861 329.174 572.861 328.314ZM573.77 328.417C573.77 329.013 573.892 329.481 574.136 329.823C574.38 330.162 574.722 330.331 575.161 330.331C575.731 330.331 576.149 330.072 576.416 329.555V327.143C576.139 326.638 575.724 326.386 575.171 326.386C574.731 326.386 574.388 326.557 574.141 326.898C573.893 327.24 573.77 327.746 573.77 328.417ZM580.884 331.098C580.168 331.098 579.585 330.863 579.136 330.395C578.687 329.923 578.462 329.293 578.462 328.505V328.339C578.462 327.815 578.561 327.348 578.76 326.938C578.962 326.524 579.242 326.202 579.6 325.971C579.961 325.736 580.352 325.619 580.771 325.619C581.458 325.619 581.992 325.845 582.373 326.298C582.754 326.75 582.944 327.398 582.944 328.241V328.617H579.365C579.378 329.138 579.53 329.56 579.819 329.882C580.112 330.201 580.483 330.36 580.933 330.36C581.252 330.36 581.522 330.295 581.743 330.165C581.965 330.035 582.158 329.862 582.324 329.647L582.876 330.077C582.433 330.757 581.769 331.098 580.884 331.098ZM580.771 326.361C580.407 326.361 580.101 326.495 579.854 326.762C579.606 327.025 579.453 327.396 579.395 327.875H582.041V327.807C582.015 327.348 581.891 326.993 581.67 326.742C581.449 326.488 581.149 326.361 580.771 326.361ZM588.594 330.36C588.916 330.36 589.198 330.263 589.438 330.067C589.679 329.872 589.813 329.628 589.839 329.335H590.693C590.677 329.638 590.573 329.926 590.381 330.199C590.189 330.473 589.932 330.691 589.609 330.854C589.29 331.016 588.952 331.098 588.594 331.098C587.874 331.098 587.301 330.858 586.875 330.38C586.452 329.898 586.24 329.241 586.24 328.407V328.256C586.24 327.742 586.335 327.284 586.523 326.884C586.712 326.483 586.982 326.173 587.334 325.951C587.689 325.73 588.107 325.619 588.589 325.619C589.181 325.619 589.673 325.797 590.063 326.151C590.457 326.506 590.667 326.967 590.693 327.533H589.839C589.813 327.191 589.683 326.911 589.448 326.693C589.217 326.472 588.931 326.361 588.589 326.361C588.13 326.361 587.773 326.527 587.52 326.859C587.269 327.188 587.144 327.665 587.144 328.29V328.461C587.144 329.07 587.269 329.538 587.52 329.867C587.77 330.196 588.128 330.36 588.594 330.36ZM591.47 328.31C591.47 327.792 591.571 327.326 591.772 326.913C591.978 326.5 592.261 326.181 592.622 325.956C592.987 325.731 593.402 325.619 593.867 325.619C594.587 325.619 595.168 325.868 595.61 326.366C596.056 326.864 596.279 327.527 596.279 328.354V328.417C596.279 328.931 596.18 329.394 595.981 329.804C595.786 330.211 595.505 330.528 595.137 330.756C594.772 330.984 594.352 331.098 593.877 331.098C593.161 331.098 592.58 330.849 592.134 330.351C591.691 329.853 591.47 329.193 591.47 328.373V328.31ZM592.378 328.417C592.378 329.003 592.513 329.473 592.783 329.828C593.057 330.183 593.421 330.36 593.877 330.36C594.336 330.36 594.701 330.181 594.971 329.823C595.241 329.462 595.376 328.957 595.376 328.31C595.376 327.73 595.238 327.261 594.961 326.903C594.688 326.542 594.323 326.361 593.867 326.361C593.421 326.361 593.062 326.539 592.788 326.894C592.515 327.248 592.378 327.756 592.378 328.417ZM598.262 325.717L598.286 326.303C598.674 325.847 599.196 325.619 599.854 325.619C600.592 325.619 601.095 325.902 601.362 326.469C601.538 326.215 601.766 326.01 602.046 325.854C602.329 325.697 602.663 325.619 603.047 325.619C604.206 325.619 604.795 326.233 604.814 327.46V331H603.911V327.514C603.911 327.136 603.825 326.854 603.652 326.669C603.48 326.48 603.19 326.386 602.783 326.386C602.448 326.386 602.17 326.487 601.948 326.688C601.727 326.887 601.598 327.156 601.562 327.494V331H600.654V327.538C600.654 326.77 600.278 326.386 599.526 326.386C598.934 326.386 598.529 326.638 598.311 327.143V331H597.407V325.717H598.262ZM607.031 325.717L607.056 326.303C607.443 325.847 607.965 325.619 608.623 325.619C609.362 325.619 609.865 325.902 610.132 326.469C610.308 326.215 610.535 326.01 610.815 325.854C611.099 325.697 611.432 325.619 611.816 325.619C612.975 325.619 613.564 326.233 613.584 327.46V331H612.681V327.514C612.681 327.136 612.594 326.854 612.422 326.669C612.249 326.48 611.96 326.386 611.553 326.386C611.217 326.386 610.939 326.487 610.718 326.688C610.496 326.887 610.368 327.156 610.332 327.494V331H609.424V327.538C609.424 326.77 609.048 326.386 608.296 326.386C607.703 326.386 607.298 326.638 607.08 327.143V331H606.177V325.717H607.031ZM615.933 331H615.029V325.717H615.933V331ZM614.956 324.315C614.956 324.169 615 324.045 615.088 323.944C615.179 323.843 615.312 323.793 615.488 323.793C615.664 323.793 615.798 323.843 615.889 323.944C615.98 324.045 616.025 324.169 616.025 324.315C616.025 324.462 615.98 324.584 615.889 324.682C615.798 324.779 615.664 324.828 615.488 324.828C615.312 324.828 615.179 324.779 615.088 324.682C615 324.584 614.956 324.462 614.956 324.315ZM618.608 324.438V325.717H619.595V326.415H618.608V329.691C618.608 329.903 618.652 330.062 618.74 330.17C618.828 330.274 618.978 330.326 619.189 330.326C619.294 330.326 619.437 330.307 619.619 330.268V331C619.382 331.065 619.15 331.098 618.926 331.098C618.522 331.098 618.218 330.976 618.013 330.731C617.808 330.487 617.705 330.141 617.705 329.691V326.415H616.743V325.717H617.705V324.438H618.608Z" fill="black"/>
<path d="M415.159 316.875C414.97 317.1 414.744 317.28 414.48 317.417C414.22 317.554 413.934 317.622 413.621 317.622C413.211 317.622 412.853 317.521 412.547 317.319C412.244 317.118 412.01 316.834 411.844 316.47C411.678 316.102 411.595 315.697 411.595 315.254C411.595 314.779 411.684 314.351 411.863 313.97C412.046 313.589 412.303 313.298 412.635 313.096C412.967 312.894 413.354 312.793 413.797 312.793C414.5 312.793 415.053 313.057 415.457 313.584C415.864 314.108 416.067 314.824 416.067 315.732V315.996C416.067 317.38 415.794 318.39 415.247 319.028C414.7 319.663 413.875 319.989 412.771 320.005H412.596V319.243H412.786C413.532 319.23 414.104 319.036 414.505 318.662C414.905 318.285 415.123 317.689 415.159 316.875ZM413.768 316.875C414.07 316.875 414.349 316.782 414.603 316.597C414.86 316.411 415.047 316.182 415.164 315.908V315.547C415.164 314.954 415.035 314.473 414.778 314.102C414.521 313.73 414.196 313.545 413.802 313.545C413.405 313.545 413.086 313.698 412.845 314.004C412.604 314.307 412.483 314.707 412.483 315.205C412.483 315.69 412.599 316.09 412.83 316.406C413.064 316.719 413.377 316.875 413.768 316.875ZM421.878 317.417C421.878 318.224 421.692 318.874 421.321 319.365C420.95 319.854 420.452 320.098 419.827 320.098C419.16 320.098 418.644 319.862 418.279 319.39L418.235 320H417.405V312.5H418.309V315.298C418.673 314.845 419.176 314.619 419.817 314.619C420.459 314.619 420.962 314.862 421.326 315.347C421.694 315.832 421.878 316.496 421.878 317.339V317.417ZM420.975 317.314C420.975 316.699 420.856 316.224 420.618 315.889C420.381 315.553 420.039 315.386 419.593 315.386C418.997 315.386 418.569 315.662 418.309 316.216V318.501C418.585 319.054 419.017 319.331 419.603 319.331C420.035 319.331 420.372 319.163 420.613 318.828C420.854 318.493 420.975 317.988 420.975 317.314ZM423.465 320V315.415H422.63V314.717H423.465V314.175C423.465 313.608 423.616 313.171 423.919 312.861C424.222 312.552 424.65 312.397 425.203 312.397C425.411 312.397 425.618 312.425 425.823 312.48L425.774 313.213C425.621 313.184 425.459 313.169 425.286 313.169C424.993 313.169 424.767 313.255 424.607 313.428C424.448 313.597 424.368 313.841 424.368 314.16V314.717H425.496V315.415H424.368V320H423.465ZM427.718 316.006H428.396C428.823 315.999 429.158 315.887 429.402 315.669C429.646 315.451 429.769 315.156 429.769 314.785C429.769 313.952 429.354 313.535 428.523 313.535C428.133 313.535 427.82 313.647 427.586 313.872C427.355 314.093 427.239 314.388 427.239 314.756H426.336C426.336 314.193 426.541 313.726 426.951 313.354C427.365 312.98 427.889 312.793 428.523 312.793C429.194 312.793 429.72 312.97 430.101 313.325C430.481 313.68 430.672 314.173 430.672 314.805C430.672 315.114 430.571 315.413 430.369 315.703C430.171 315.993 429.899 316.209 429.554 316.353C429.944 316.476 430.245 316.681 430.457 316.968C430.672 317.254 430.779 317.604 430.779 318.018C430.779 318.656 430.571 319.162 430.154 319.536C429.738 319.91 429.196 320.098 428.528 320.098C427.861 320.098 427.317 319.917 426.897 319.556C426.481 319.194 426.272 318.717 426.272 318.125H427.181C427.181 318.499 427.303 318.799 427.547 319.023C427.791 319.248 428.118 319.36 428.528 319.36C428.965 319.36 429.298 319.246 429.529 319.019C429.76 318.791 429.876 318.464 429.876 318.037C429.876 317.624 429.749 317.306 429.495 317.085C429.241 316.864 428.875 316.75 428.396 316.743H427.718V316.006ZM436.609 313.398L433.665 320H432.718L435.652 313.633H431.805V312.891H436.609V313.398ZM438.948 316.006H439.627C440.053 315.999 440.389 315.887 440.633 315.669C440.877 315.451 440.999 315.156 440.999 314.785C440.999 313.952 440.584 313.535 439.754 313.535C439.363 313.535 439.051 313.647 438.816 313.872C438.585 314.093 438.47 314.388 438.47 314.756H437.566C437.566 314.193 437.771 313.726 438.182 313.354C438.595 312.98 439.119 312.793 439.754 312.793C440.424 312.793 440.95 312.97 441.331 313.325C441.712 313.68 441.902 314.173 441.902 314.805C441.902 315.114 441.801 315.413 441.6 315.703C441.401 315.993 441.129 316.209 440.784 316.353C441.175 316.476 441.476 316.681 441.688 316.968C441.902 317.254 442.01 317.604 442.01 318.018C442.01 318.656 441.801 319.162 441.385 319.536C440.968 319.91 440.426 320.098 439.759 320.098C439.091 320.098 438.548 319.917 438.128 319.556C437.711 319.194 437.503 318.717 437.503 318.125H438.411C438.411 318.499 438.533 318.799 438.777 319.023C439.021 319.248 439.349 319.36 439.759 319.36C440.195 319.36 440.529 319.246 440.76 319.019C440.991 318.791 441.106 318.464 441.106 318.037C441.106 317.624 440.979 317.306 440.726 317.085C440.472 316.864 440.105 316.75 439.627 316.743H438.948V316.006ZM445.462 319.36C445.784 319.36 446.066 319.263 446.307 319.067C446.548 318.872 446.681 318.628 446.707 318.335H447.562C447.545 318.638 447.441 318.926 447.249 319.199C447.057 319.473 446.8 319.691 446.478 319.854C446.159 320.016 445.82 320.098 445.462 320.098C444.743 320.098 444.17 319.858 443.743 319.38C443.32 318.898 443.108 318.241 443.108 317.407V317.256C443.108 316.742 443.203 316.284 443.392 315.884C443.58 315.483 443.851 315.173 444.202 314.951C444.557 314.73 444.975 314.619 445.457 314.619C446.049 314.619 446.541 314.797 446.932 315.151C447.326 315.506 447.535 315.967 447.562 316.533H446.707C446.681 316.191 446.551 315.911 446.316 315.693C446.085 315.472 445.799 315.361 445.457 315.361C444.998 315.361 444.642 315.527 444.388 315.859C444.137 316.188 444.012 316.665 444.012 317.29V317.461C444.012 318.07 444.137 318.538 444.388 318.867C444.638 319.196 444.996 319.36 445.462 319.36ZM395.223 330.96V329.27H398.093V328.61H392.573V327.16H397.883V324.43H391.743V325.1H397.083V326.5H391.763V329.27H394.393V330.96H390.743V331.63H398.893V330.96H395.223ZM406.172 325.62C406.172 326.73 406.172 328.07 405.812 329.9L406.632 329.99C406.982 328.05 406.982 326.76 406.982 325.62V324.72H400.832V325.39H406.172V325.62ZM399.962 330.75V331.43H408.072V330.75H399.962ZM416.511 323.78H415.691V330.33H416.511V323.78ZM410.161 326.6C410.161 325.73 410.821 325.11 411.691 325.11C412.581 325.11 413.241 325.73 413.241 326.6C413.241 327.49 412.581 328.11 411.691 328.11C410.821 328.11 410.161 327.49 410.161 326.6ZM414.041 326.6C414.041 325.31 413.031 324.4 411.691 324.4C410.361 324.4 409.361 325.31 409.361 326.6C409.361 327.9 410.361 328.82 411.691 328.82C413.031 328.82 414.041 327.9 414.041 326.6ZM411.561 331.87V329.66H410.741V332.54H416.781V331.87H411.561ZM422.401 325.57H423.521V329.78C423.141 329.8 422.771 329.81 422.401 329.82V325.57ZM424.271 325.57H425.011V324.91H420.911V325.57H421.651V329.84C421.311 329.85 421.011 329.85 420.741 329.85L420.821 330.53C421.991 330.53 423.871 330.49 425.261 330.23L425.211 329.63C424.921 329.67 424.591 329.7 424.271 329.73V325.57ZM425.971 327.19H424.741V327.91H425.971V332.27H426.741V323.99H425.971V327.19ZM427.701 323.78V332.74H428.491V323.78H427.701ZM436.55 323.77V332.76H437.37V323.77H436.55ZM432.64 324.46C431.31 324.46 430.36 325.68 430.36 327.59C430.36 329.5 431.31 330.72 432.64 330.72C433.97 330.72 434.92 329.5 434.92 327.59C434.92 325.68 433.97 324.46 432.64 324.46ZM432.64 325.2C433.51 325.2 434.13 326.14 434.13 327.59C434.13 329.05 433.51 329.99 432.64 329.99C431.76 329.99 431.14 329.05 431.14 327.59C431.14 326.14 431.76 325.2 432.64 325.2ZM442.429 325.37H444.539V324.69H439.529V325.37H441.609V326.51C441.609 328.06 440.519 329.75 439.229 330.36L439.709 331.02C440.729 330.5 441.609 329.37 442.019 328.06C442.449 329.29 443.329 330.32 444.369 330.8L444.829 330.14C443.509 329.58 442.429 328.03 442.429 326.51V325.37ZM445.749 323.78V332.74H446.569V323.78H445.749ZM459.029 328.21H457.699C457.949 326.92 457.949 325.97 457.949 325.13V324.35H451.929V325.01H457.149V325.13C457.149 325.97 457.149 326.92 456.869 328.21H450.919V328.88H454.539V332.75H455.369V328.88H459.029V328.21ZM465.148 326.16V326.83H466.658V328.04H465.148V328.71H466.658V330.61H467.488V323.78H466.658V326.16H465.148ZM465.148 324.87H463.088V323.76H462.268V324.87H460.128V325.53H465.148V324.87ZM461.418 327.73C461.418 327.1 461.928 326.67 462.668 326.67C463.408 326.67 463.918 327.1 463.918 327.73C463.918 328.37 463.408 328.81 462.668 328.81C461.928 328.81 461.418 328.37 461.418 327.73ZM464.698 327.73C464.698 326.71 463.858 326.03 462.668 326.03C461.478 326.03 460.638 326.71 460.638 327.73C460.638 328.76 461.478 329.45 462.668 329.45C463.858 329.45 464.698 328.76 464.698 327.73ZM462.548 331.87V330.03H461.728V332.54H467.698V331.87H462.548Z" fill="black"/>
<path d="M497.166 43H496.258V36.9795L494.437 37.6484V36.8281L497.024 35.8564H497.166V43ZM502.024 42.3604C502.347 42.3604 502.628 42.2627 502.869 42.0674C503.11 41.8721 503.243 41.6279 503.27 41.335H504.124C504.108 41.6377 504.004 41.9258 503.812 42.1992C503.619 42.4727 503.362 42.6908 503.04 42.8535C502.721 43.0163 502.382 43.0977 502.024 43.0977C501.305 43.0977 500.732 42.8584 500.306 42.3799C499.882 41.8981 499.671 41.2406 499.671 40.4072V40.2559C499.671 39.7415 499.765 39.2842 499.954 38.8838C500.143 38.4834 500.413 38.1725 500.765 37.9512C501.119 37.7298 501.538 37.6191 502.02 37.6191C502.612 37.6191 503.104 37.7965 503.494 38.1514C503.888 38.5062 504.098 38.9668 504.124 39.5332H503.27C503.243 39.1914 503.113 38.9115 502.879 38.6934C502.648 38.472 502.361 38.3613 502.02 38.3613C501.561 38.3613 501.204 38.5273 500.95 38.8594C500.7 39.1882 500.574 39.665 500.574 40.29V40.4609C500.574 41.0697 500.7 41.5384 500.95 41.8672C501.201 42.196 501.559 42.3604 502.024 42.3604ZM505.584 43V38.415H504.749V37.7168H505.584V37.1748C505.584 36.6084 505.735 36.1706 506.038 35.8613C506.341 35.5521 506.769 35.3975 507.322 35.3975C507.531 35.3975 507.737 35.4251 507.942 35.4805L507.894 36.2129C507.741 36.1836 507.578 36.1689 507.405 36.1689C507.112 36.1689 506.886 36.2552 506.727 36.4277C506.567 36.597 506.487 36.8411 506.487 37.1602V37.7168H507.615V38.415H506.487V43H505.584ZM513.182 43H508.523V42.3506L510.984 39.6162C511.349 39.2028 511.6 38.8675 511.736 38.6104C511.876 38.3499 511.946 38.0814 511.946 37.8047C511.946 37.4336 511.834 37.1292 511.609 36.8916C511.385 36.654 511.085 36.5352 510.711 36.5352C510.262 36.5352 509.912 36.6637 509.661 36.9209C509.414 37.1748 509.29 37.5296 509.29 37.9854H508.387C508.387 37.3311 508.597 36.8021 509.017 36.3984C509.44 35.9948 510.005 35.793 510.711 35.793C511.372 35.793 511.894 35.9671 512.278 36.3154C512.662 36.6605 512.854 37.1211 512.854 37.6973C512.854 38.3971 512.409 39.2305 511.517 40.1973L509.612 42.2627H513.182V43ZM517.952 40.6123H518.938V41.3496H517.952V43H517.044V41.3496H513.807V40.8174L516.99 35.8906H517.952V40.6123ZM514.832 40.6123H517.044V37.126L516.937 37.3213L514.832 40.6123ZM524.344 36.3984L521.399 43H520.452L523.387 36.6328H519.539V35.8906H524.344V36.3984ZM529.935 40.417C529.935 41.2243 529.749 41.8737 529.378 42.3652C529.007 42.8535 528.509 43.0977 527.884 43.0977C527.216 43.0977 526.701 42.8617 526.336 42.3896L526.292 43H525.462V35.5H526.365V38.2979C526.73 37.8454 527.233 37.6191 527.874 37.6191C528.515 37.6191 529.018 37.8617 529.383 38.3467C529.751 38.8317 529.935 39.4958 529.935 40.3389V40.417ZM529.031 40.3145C529.031 39.6992 528.912 39.224 528.675 38.8887C528.437 38.5534 528.095 38.3857 527.649 38.3857C527.054 38.3857 526.626 38.6624 526.365 39.2158V41.501C526.642 42.0544 527.073 42.3311 527.659 42.3311C528.092 42.3311 528.429 42.1634 528.67 41.8281C528.911 41.4928 529.031 40.9883 529.031 40.3145ZM474.343 47.87H472.033V46.77H471.213V47.87H468.893V48.53H474.343V47.87ZM470.243 50.7C470.243 50.07 470.803 49.67 471.623 49.67C472.433 49.67 472.993 50.07 472.993 50.7C472.993 51.32 472.433 51.72 471.623 51.72C470.803 51.72 470.243 51.32 470.243 50.7ZM472.033 52.34C473.093 52.21 473.773 51.59 473.773 50.7C473.773 49.69 472.903 49.04 471.623 49.04C470.343 49.04 469.463 49.69 469.463 50.7C469.463 51.6 470.153 52.22 471.213 52.35V53.31C470.323 53.34 469.463 53.35 468.703 53.35L468.823 54.04C470.473 54.04 472.633 54.01 474.633 53.68L474.573 53.07C473.753 53.18 472.883 53.24 472.033 53.28V52.34ZM475.143 46.77V55.74H475.963V46.77H475.143ZM482.552 52.07V52.68H484.372V53.6H485.192V46.77H484.372V52.07H482.552ZM480.722 47.74C481.572 47.74 482.152 48.12 482.152 48.69C482.152 49.27 481.572 49.65 480.722 49.65C479.872 49.65 479.292 49.27 479.292 48.69C479.292 48.12 479.872 47.74 480.722 47.74ZM480.722 50.26C482.032 50.26 482.932 49.65 482.932 48.69C482.932 47.75 482.032 47.13 480.722 47.13C479.412 47.13 478.512 47.75 478.512 48.69C478.512 49.65 479.412 50.26 480.722 50.26ZM480.402 53.28H481.222V51.51C482.032 51.46 482.862 51.37 483.652 51.25L483.582 50.66C481.682 50.9 479.462 50.92 477.802 50.92L477.912 51.6C478.652 51.6 479.512 51.59 480.402 51.55V53.28ZM479.902 54.87V52.93H479.082V55.54H485.422V54.87H479.902ZM487.531 47.73V48.41H490.821C490.631 50.53 489.401 52.25 487.111 53.4L487.561 54.04C490.461 52.59 491.631 50.28 491.631 47.73H487.531ZM495.391 50.41H493.951V46.77H493.131V55.74H493.951V51.09H495.391V50.41ZM502.791 46.78V51.59H503.611V46.78H502.791ZM497.831 52.03V55.62H503.611V52.03H502.801V53.13H498.641V52.03H497.831ZM498.641 53.77H502.801V54.96H498.641V53.77ZM498.791 47.2C497.441 47.2 496.461 48.04 496.461 49.26C496.461 50.5 497.441 51.33 498.791 51.33C500.151 51.33 501.141 50.5 501.141 49.26C501.141 48.04 500.151 47.2 498.791 47.2ZM498.791 47.88C499.701 47.88 500.341 48.45 500.341 49.26C500.341 50.08 499.701 50.65 498.791 50.65C497.901 50.65 497.261 50.08 497.261 49.26C497.261 48.45 497.901 47.88 498.791 47.88ZM509.5 48.57H510.62V52.78C510.24 52.8 509.87 52.81 509.5 52.82V48.57ZM511.37 48.57H512.11V47.91H508.01V48.57H508.75V52.84C508.41 52.85 508.11 52.85 507.84 52.85L507.92 53.53C509.09 53.53 510.97 53.49 512.36 53.23L512.31 52.63C512.02 52.67 511.69 52.7 511.37 52.73V48.57ZM513.07 50.19H511.84V50.91H513.07V55.27H513.84V46.99H513.07V50.19ZM514.8 46.78V55.74H515.59V46.78H514.8ZM523.65 46.77V55.76H524.47V46.77H523.65ZM519.74 47.46C518.41 47.46 517.46 48.68 517.46 50.59C517.46 52.5 518.41 53.72 519.74 53.72C521.07 53.72 522.02 52.5 522.02 50.59C522.02 48.68 521.07 47.46 519.74 47.46ZM519.74 48.2C520.61 48.2 521.23 49.14 521.23 50.59C521.23 52.05 520.61 52.99 519.74 52.99C518.86 52.99 518.24 52.05 518.24 50.59C518.24 49.14 518.86 48.2 519.74 48.2ZM529.529 48.37H531.639V47.69H526.629V48.37H528.709V49.51C528.709 51.06 527.619 52.75 526.329 53.36L526.809 54.02C527.829 53.5 528.709 52.37 529.119 51.06C529.549 52.29 530.429 53.32 531.469 53.8L531.929 53.14C530.609 52.58 529.529 51.03 529.529 49.51V48.37ZM532.849 46.78V55.74H533.669V46.78H532.849ZM546.129 51.21H544.799C545.049 49.92 545.049 48.97 545.049 48.13V47.35H539.029V48.01H544.249V48.13C544.249 48.97 544.249 49.92 543.969 51.21H538.019V51.88H541.639V55.75H542.469V51.88H546.129V51.21ZM552.248 49.16V49.83H553.758V51.04H552.248V51.71H553.758V53.61H554.588V46.78H553.758V49.16H552.248ZM552.248 47.87H550.188V46.76H549.368V47.87H547.228V48.53H552.248V47.87ZM548.518 50.73C548.518 50.1 549.028 49.67 549.768 49.67C550.508 49.67 551.018 50.1 551.018 50.73C551.018 51.37 550.508 51.81 549.768 51.81C549.028 51.81 548.518 51.37 548.518 50.73ZM551.798 50.73C551.798 49.71 550.958 49.03 549.768 49.03C548.578 49.03 547.738 49.71 547.738 50.73C547.738 51.76 548.578 52.45 549.768 52.45C550.958 52.45 551.798 51.76 551.798 50.73ZM549.648 54.87V53.03H548.828V55.54H554.798V54.87H549.648Z" fill="black"/>
<path d="M432.262 348C429.985 338.652 441.62 317.945 505 319.042" stroke="#4000C7"/>
<path d="M590.738 348C593.015 338.652 581.38 317.945 518 319.042" stroke="#4000C7"/>
<rect x="609.031" y="367.209" width="18" height="41" rx="5" transform="rotate(-64.2277 609.031 367.209)" fill="black"/>
<rect x="536.031" y="89.209" width="18" height="41" rx="5" transform="rotate(-64.2277 536.031 89.209)" fill="black"/>
<path d="M605.739 355.626L614.675 356.094L611.662 362.333L605.739 355.626Z" fill="black"/>
<path d="M532.739 77.6264L541.675 78.0939L538.662 84.333L532.739 77.6264Z" fill="black"/>
<path d="M622.791 361.219L622.535 361.811C623.137 361.545 623.764 361.569 624.415 361.884C625.147 362.237 625.51 362.758 625.503 363.447C625.799 363.279 626.122 363.185 626.475 363.164C626.83 363.145 627.198 363.227 627.578 363.411C628.726 363.965 629.016 364.855 628.449 366.08L626.756 369.586L625.861 369.154L627.528 365.701C627.709 365.327 627.758 365.007 627.676 364.74C627.595 364.471 627.353 364.239 626.95 364.044C626.618 363.884 626.294 363.851 625.978 363.945C625.664 364.036 625.408 364.24 625.211 364.558L623.534 368.031L622.635 367.597L624.29 364.167C624.658 363.406 624.469 362.846 623.724 362.487C623.137 362.203 622.615 362.259 622.158 362.655L620.313 366.476L619.418 366.044L621.945 360.81L622.791 361.219ZM631.341 371.8C631.339 371.672 631.386 371.468 631.481 371.188C630.857 371.419 630.256 371.396 629.679 371.117C629.163 370.868 628.809 370.518 628.617 370.068C628.43 369.615 628.444 369.165 628.661 368.717C628.924 368.172 629.334 367.849 629.892 367.749C630.454 367.646 631.111 367.777 631.862 368.139L632.733 368.56L632.931 368.149C633.082 367.836 633.108 367.542 633.01 367.268C632.913 366.991 632.683 366.764 632.319 366.588C631.999 366.434 631.693 366.386 631.399 366.443C631.105 366.499 630.903 366.642 630.792 366.871L629.893 366.437C630.019 366.176 630.232 365.969 630.533 365.816C630.838 365.661 631.183 365.589 631.567 365.599C631.955 365.612 632.339 365.71 632.72 365.893C633.323 366.184 633.722 366.564 633.917 367.032C634.114 367.497 634.092 367.997 633.849 368.532L632.686 370.941C632.454 371.421 632.331 371.833 632.317 372.176L632.279 372.253L631.341 371.8ZM630.185 370.401C630.466 370.537 630.767 370.593 631.088 370.569C631.41 370.545 631.683 370.445 631.908 370.267L632.427 369.193L631.725 368.855C630.629 368.325 629.926 368.381 629.616 369.023C629.481 369.304 629.468 369.568 629.579 369.816C629.69 370.065 629.892 370.26 630.185 370.401ZM634.47 373.311L633.576 372.879L636.102 367.646L636.997 368.078L634.47 373.311ZM636.7 366.223C636.77 366.078 636.873 365.976 637.008 365.918C637.147 365.862 637.303 365.876 637.477 365.96C637.651 366.044 637.759 366.158 637.801 366.301C637.843 366.445 637.829 366.589 637.759 366.734C637.689 366.879 637.586 366.978 637.449 367.031C637.312 367.085 637.156 367.069 636.982 366.985C636.808 366.901 636.699 366.789 636.655 366.648C636.615 366.51 636.63 366.368 636.7 366.223ZM639.28 369.18L638.992 369.852C639.634 369.542 640.278 369.543 640.923 369.854C642.029 370.388 642.286 371.281 641.693 372.534L640.023 375.992L639.128 375.56L640.8 372.097C640.979 371.718 641.027 371.397 640.943 371.134C640.863 370.873 640.643 370.655 640.285 370.483C639.995 370.343 639.703 370.297 639.409 370.346C639.115 370.395 638.846 370.515 638.602 370.708L636.802 374.437L635.907 374.005L638.434 368.771L639.28 369.18Z" fill="white"/>
<path d="M549.791 83.22L549.535 83.8121C550.137 83.5459 550.764 83.5701 551.415 83.8846C552.147 84.238 552.51 84.759 552.503 85.4478C552.799 85.2803 553.122 85.1862 553.475 85.1653C553.83 85.146 554.198 85.2282 554.578 85.4119C555.726 85.9661 556.016 86.8557 555.449 88.0807L553.756 91.5874L552.861 91.1554L554.528 87.7019C554.709 87.3279 554.758 87.0077 554.676 86.7414C554.595 86.4718 554.353 86.2397 553.95 86.0451C553.618 85.8848 553.294 85.8516 552.978 85.9457C552.664 86.0365 552.408 86.241 552.211 86.5593L550.534 90.0321L549.635 89.5977L551.29 86.1684C551.658 85.4074 551.469 84.8471 550.724 84.4875C550.137 84.2041 549.615 84.2602 549.158 84.6557L547.313 88.4768L546.418 88.0447L548.945 82.8113L549.791 83.22ZM558.341 93.8013C558.339 93.6732 558.386 93.4692 558.481 93.1892C557.857 93.4205 557.256 93.3967 556.679 93.1181C556.163 92.869 555.809 92.5191 555.617 92.0686C555.43 91.6163 555.444 91.1661 555.661 90.7179C555.924 90.1729 556.334 89.8502 556.892 89.7496C557.454 89.6473 558.111 89.7775 558.862 90.1403L559.733 90.5606L559.931 90.1495C560.082 89.8367 560.108 89.5433 560.01 89.2692C559.913 88.9919 559.683 88.7652 559.319 88.5893C558.999 88.4352 558.693 88.3866 558.399 88.4435C558.105 88.5004 557.903 88.6433 557.792 88.8723L556.893 88.4379C557.019 88.1767 557.232 87.9696 557.533 87.8165C557.838 87.6617 558.183 87.5897 558.567 87.6004C558.955 87.6126 559.339 87.7106 559.72 87.8943C560.323 88.1855 560.722 88.5651 560.917 89.0332C561.114 89.4981 561.092 89.9981 560.849 90.5332L559.686 92.9419C559.454 93.4224 559.331 93.8341 559.317 94.177L559.279 94.2544L558.341 93.8013ZM557.185 92.4024C557.466 92.5378 557.767 92.5937 558.088 92.5701C558.41 92.5464 558.683 92.4457 558.908 92.268L559.427 91.1943L558.725 90.8556C557.629 90.3263 556.926 90.3825 556.616 91.0242C556.481 91.3047 556.468 91.5691 556.579 91.8174C556.69 92.0657 556.892 92.2607 557.185 92.4024ZM561.47 95.3123L560.576 94.8802L563.102 89.6468L563.997 90.0788L561.47 95.3123ZM563.7 88.2236C563.77 88.0785 563.873 87.977 564.008 87.9191C564.147 87.8627 564.303 87.8765 564.477 87.9606C564.651 88.0447 564.759 88.1585 564.801 88.302C564.843 88.4456 564.829 88.5899 564.759 88.735C564.689 88.8801 564.586 88.9793 564.449 89.0324C564.312 89.0856 564.156 89.0701 563.982 88.986C563.808 88.9019 563.699 88.7897 563.655 88.6494C563.615 88.5106 563.63 88.3687 563.7 88.2236ZM566.28 91.1811L565.992 91.8529C566.634 91.543 567.278 91.5437 567.923 91.855C569.029 92.389 569.286 93.2823 568.693 94.5349L567.023 97.9932L566.128 97.5612L567.8 94.098C567.979 93.7192 568.027 93.3982 567.943 93.1352C567.863 92.8736 567.643 92.6564 567.285 92.4836C566.995 92.3435 566.703 92.2979 566.409 92.3468C566.115 92.3957 565.846 92.5164 565.602 92.7087L563.802 96.4379L562.907 96.0059L565.434 90.7724L566.28 91.1811Z" fill="white"/>
<circle cx="104.5" cy="350.5" r="9.5" fill="#4000C7"/>
<circle cx="104.5" cy="194.5" r="9.5" fill="#4000C7"/>
<circle cx="104.5" cy="72.5" r="9.5" fill="#4000C7"/>
<circle cx="184.5" cy="350.5" r="9.5" fill="#4000C7"/>
<circle cx="184.5" cy="194.5" r="9.5" fill="#4000C7"/>
<circle cx="184.5" cy="72.5" r="9.5" fill="#4000C7"/>
<circle cx="265.5" cy="350.5" r="9.5" fill="#4000C7"/>
<circle cx="265.5" cy="194.5" r="9.5" fill="#4000C7"/>
<circle cx="347.5" cy="194.5" r="9.5" fill="#4000C7"/>
<circle cx="511.5" cy="318.5" r="9.5" fill="#4000C7"/>
<circle cx="347.5" cy="350.5" r="9.5" fill="#4000C7"/>
<circle cx="429.5" cy="350.5" r="9.5" fill="#4000C7"/>
<circle cx="265.5" cy="72.5" r="9.5" fill="#4000C7"/>
<circle cx="347.5" cy="72.5" r="9.5" fill="#4000C7"/>
<circle cx="431.5" cy="72.5" r="9.5" fill="#4000C7"/>
<circle cx="511.5" cy="72.5" r="9.5" fill="#4000C7"/>
<line x1="105" y1="350.5" x2="590" y2="350.5" stroke="#4000C7"/>
<line x1="108" y1="194.5" x2="348" y2="194.5" stroke="#4000C7"/>
<line x1="108" y1="72.5" x2="508" y2="72.5" stroke="#4000C7"/>
<circle cx="590.5" cy="350.5" r="9.5" fill="#4000C7"/>
</svg>
