<svg width="1152" height="587" viewBox="0 0 1152 587" fill="none" xmlns="http://www.w3.org/2000/svg">
<path d="M0 0H1152V587H0V0Z" fill="white" fill-opacity="0.01"/>
<circle cx="139.5" cy="70.5" r="9.5" fill="#4000C7"/>
<circle cx="139.5" cy="348.5" r="9.5" fill="#4000C7"/>
<circle cx="139.5" cy="182.5" r="9.5" fill="#4000C7"/>
<path d="M282.665 471H281.762V465.717H282.665V471ZM281.688 464.315C281.688 464.169 281.732 464.045 281.82 463.944C281.911 463.843 282.045 463.793 282.221 463.793C282.396 463.793 282.53 463.843 282.621 463.944C282.712 464.045 282.758 464.169 282.758 464.315C282.758 464.462 282.712 464.584 282.621 464.682C282.53 464.779 282.396 464.828 282.221 464.828C282.045 464.828 281.911 464.779 281.82 464.682C281.732 464.584 281.688 464.462 281.688 464.315ZM284.97 465.717L284.999 466.381C285.403 465.873 285.93 465.619 286.581 465.619C287.698 465.619 288.261 466.249 288.271 467.509V471H287.367V467.504C287.364 467.123 287.276 466.841 287.104 466.659C286.934 466.477 286.669 466.386 286.308 466.386C286.015 466.386 285.757 466.464 285.536 466.62C285.315 466.776 285.142 466.981 285.019 467.235V471H284.115V465.717H284.97ZM289.413 468.314C289.413 467.504 289.605 466.853 289.989 466.361C290.373 465.867 290.876 465.619 291.498 465.619C292.117 465.619 292.606 465.831 292.968 466.254V463.5H293.871V471H293.041L292.997 470.434C292.636 470.876 292.133 471.098 291.488 471.098C290.876 471.098 290.377 470.847 289.989 470.346C289.605 469.844 289.413 469.19 289.413 468.383V468.314ZM290.316 468.417C290.316 469.016 290.44 469.485 290.688 469.823C290.935 470.162 291.277 470.331 291.713 470.331C292.286 470.331 292.704 470.074 292.968 469.56V467.133C292.698 466.635 292.283 466.386 291.723 466.386C291.28 466.386 290.935 466.557 290.688 466.898C290.44 467.24 290.316 467.746 290.316 468.417ZM297.47 471.098C296.754 471.098 296.171 470.863 295.722 470.395C295.272 469.923 295.048 469.293 295.048 468.505V468.339C295.048 467.815 295.147 467.348 295.346 466.938C295.548 466.524 295.827 466.202 296.186 465.971C296.547 465.736 296.938 465.619 297.357 465.619C298.044 465.619 298.578 465.845 298.959 466.298C299.34 466.75 299.53 467.398 299.53 468.241V468.617H295.951C295.964 469.138 296.116 469.56 296.405 469.882C296.698 470.201 297.069 470.36 297.519 470.36C297.838 470.36 298.108 470.295 298.329 470.165C298.55 470.035 298.744 469.862 298.91 469.647L299.462 470.077C299.019 470.757 298.355 471.098 297.47 471.098ZM297.357 466.361C296.993 466.361 296.687 466.495 296.439 466.762C296.192 467.025 296.039 467.396 295.98 467.875H298.627V467.807C298.601 467.348 298.477 466.993 298.256 466.742C298.035 466.488 297.735 466.361 297.357 466.361ZM302.353 467.646L303.524 465.717H304.579L302.851 468.329L304.633 471H303.588L302.367 469.022L301.146 471H300.097L301.879 468.329L300.15 465.717H301.195L302.353 467.646ZM305.561 470.526C305.561 470.37 305.606 470.24 305.697 470.136C305.792 470.032 305.932 469.979 306.117 469.979C306.303 469.979 306.443 470.032 306.537 470.136C306.635 470.24 306.684 470.37 306.684 470.526C306.684 470.676 306.635 470.801 306.537 470.902C306.443 471.003 306.303 471.054 306.117 471.054C305.932 471.054 305.792 471.003 305.697 470.902C305.606 470.801 305.561 470.676 305.561 470.526ZM309.11 465.717V471.61C309.11 472.626 308.65 473.134 307.729 473.134C307.53 473.134 307.346 473.104 307.177 473.046V472.323C307.281 472.349 307.418 472.362 307.587 472.362C307.789 472.362 307.942 472.307 308.046 472.196C308.153 472.089 308.207 471.9 308.207 471.63V465.717H309.11ZM308.114 464.315C308.114 464.172 308.158 464.05 308.246 463.949C308.337 463.845 308.469 463.793 308.642 463.793C308.817 463.793 308.951 463.843 309.042 463.944C309.133 464.045 309.179 464.169 309.179 464.315C309.179 464.462 309.133 464.584 309.042 464.682C308.951 464.779 308.817 464.828 308.642 464.828C308.466 464.828 308.334 464.779 308.246 464.682C308.158 464.584 308.114 464.462 308.114 464.315ZM313.646 469.599C313.646 469.354 313.554 469.166 313.368 469.032C313.186 468.896 312.865 468.778 312.406 468.681C311.951 468.583 311.588 468.466 311.317 468.329C311.05 468.192 310.852 468.03 310.722 467.841C310.595 467.652 310.531 467.427 310.531 467.167C310.531 466.734 310.714 466.368 311.078 466.068C311.446 465.769 311.915 465.619 312.484 465.619C313.083 465.619 313.568 465.774 313.939 466.083C314.314 466.392 314.501 466.788 314.501 467.27H313.593C313.593 467.022 313.487 466.809 313.275 466.63C313.067 466.451 312.803 466.361 312.484 466.361C312.156 466.361 311.898 466.433 311.713 466.576C311.527 466.719 311.435 466.907 311.435 467.138C311.435 467.356 311.521 467.52 311.693 467.631C311.866 467.742 312.177 467.847 312.626 467.948C313.078 468.049 313.445 468.17 313.725 468.31C314.005 468.45 314.211 468.619 314.345 468.817C314.481 469.013 314.55 469.252 314.55 469.535C314.55 470.007 314.361 470.386 313.983 470.673C313.606 470.956 313.116 471.098 312.514 471.098C312.09 471.098 311.716 471.023 311.391 470.873C311.065 470.723 310.81 470.515 310.624 470.248C310.442 469.978 310.351 469.687 310.351 469.374H311.254C311.27 469.677 311.391 469.918 311.615 470.097C311.843 470.272 312.143 470.36 312.514 470.36C312.855 470.36 313.129 470.292 313.334 470.155C313.542 470.015 313.646 469.83 313.646 469.599Z" fill="#4000C7"/>
<path d="M307.746 441.016L301.938 435.252C301.776 435.091 301.558 435 301.328 435H289.864C289.386 435 289 435.383 289 435.857V458.143C289 458.617 289.386 459 289.864 459H307.136C307.614 459 308 458.617 308 458.143V441.624C308 441.396 307.908 441.177 307.746 441.016ZM306.008 442.018H300.929V436.977L306.008 442.018ZM306.057 457.071H290.943V436.929H299.094V442.714C299.094 443.013 299.213 443.299 299.426 443.51C299.638 443.721 299.927 443.839 300.227 443.839H306.057V457.071ZM298.284 449.839H293.318C293.199 449.839 293.102 449.936 293.102 450.054V451.339C293.102 451.457 293.199 451.554 293.318 451.554H298.284C298.403 451.554 298.5 451.457 298.5 451.339V450.054C298.5 449.936 298.403 449.839 298.284 449.839ZM293.102 446.411V447.696C293.102 447.814 293.199 447.911 293.318 447.911H303.682C303.801 447.911 303.898 447.814 303.898 447.696V446.411C303.898 446.293 303.801 446.196 303.682 446.196H293.318C293.199 446.196 293.102 446.293 293.102 446.411Z" fill="#4000C7"/>
<circle cx="258.5" cy="317.5" r="9.5" fill="#4000C7"/>
<circle cx="219.5" cy="348.5" r="9.5" fill="#4000C7"/>
<circle cx="219.5" cy="182.5" r="9.5" fill="#4000C7"/>
<rect x="320.031" y="365.209" width="18" height="41" rx="5" transform="rotate(-64.2277 320.031 365.209)" fill="black"/>
<rect x="238.031" y="199.209" width="18" height="41" rx="5" transform="rotate(-64.2277 238.031 199.209)" fill="black"/>
<path d="M316.739 353.626L325.456 353.988L322.443 360.227L316.739 353.626Z" fill="black"/>
<path d="M234.739 187.626L243.456 187.988L240.443 194.227L234.739 187.626Z" fill="black"/>
<path d="M333.791 359.219L333.535 359.811C334.137 359.545 334.764 359.569 335.415 359.884C336.147 360.237 336.51 360.758 336.503 361.447C336.799 361.279 337.122 361.185 337.475 361.164C337.83 361.145 338.198 361.227 338.578 361.411C339.726 361.965 340.016 362.855 339.449 364.08L337.756 367.586L336.861 367.154L338.528 363.701C338.709 363.327 338.758 363.007 338.676 362.74C338.595 362.471 338.353 362.239 337.95 362.044C337.618 361.884 337.294 361.851 336.978 361.945C336.664 362.036 336.408 362.24 336.211 362.558L334.534 366.031L333.635 365.597L335.29 362.167C335.658 361.406 335.469 360.846 334.724 360.487C334.137 360.203 333.615 360.259 333.158 360.655L331.313 364.476L330.418 364.044L332.945 358.81L333.791 359.219ZM342.341 369.8C342.339 369.672 342.386 369.468 342.481 369.188C341.857 369.419 341.256 369.396 340.679 369.117C340.163 368.868 339.809 368.518 339.617 368.068C339.43 367.615 339.444 367.165 339.661 366.717C339.924 366.172 340.334 365.849 340.892 365.749C341.454 365.646 342.111 365.777 342.862 366.139L343.733 366.56L343.931 366.149C344.082 365.836 344.108 365.542 344.01 365.268C343.913 364.991 343.683 364.764 343.319 364.588C342.999 364.434 342.693 364.386 342.399 364.443C342.105 364.499 341.903 364.642 341.792 364.871L340.893 364.437C341.019 364.176 341.232 363.969 341.533 363.816C341.838 363.661 342.183 363.589 342.567 363.599C342.955 363.612 343.339 363.71 343.72 363.893C344.323 364.184 344.722 364.564 344.917 365.032C345.114 365.497 345.092 365.997 344.849 366.532L343.686 368.941C343.454 369.421 343.331 369.833 343.317 370.176L343.279 370.253L342.341 369.8ZM341.185 368.401C341.466 368.537 341.767 368.593 342.088 368.569C342.41 368.545 342.683 368.445 342.908 368.267L343.427 367.193L342.725 366.855C341.629 366.325 340.926 366.381 340.616 367.023C340.481 367.304 340.468 367.568 340.579 367.816C340.69 368.065 340.892 368.26 341.185 368.401ZM345.47 371.311L344.576 370.879L347.102 365.646L347.997 366.078L345.47 371.311ZM347.7 364.223C347.77 364.078 347.873 363.976 348.008 363.918C348.147 363.862 348.303 363.876 348.477 363.96C348.651 364.044 348.759 364.158 348.801 364.301C348.843 364.445 348.829 364.589 348.759 364.734C348.689 364.879 348.586 364.978 348.449 365.031C348.312 365.085 348.156 365.069 347.982 364.985C347.808 364.901 347.699 364.789 347.655 364.648C347.615 364.51 347.63 364.368 347.7 364.223ZM350.28 367.18L349.992 367.852C350.634 367.542 351.278 367.543 351.923 367.854C353.029 368.388 353.286 369.281 352.693 370.534L351.023 373.992L350.128 373.56L351.8 370.097C351.979 369.718 352.027 369.397 351.943 369.134C351.863 368.873 351.643 368.655 351.285 368.483C350.995 368.343 350.703 368.297 350.409 368.346C350.115 368.395 349.846 368.515 349.602 368.708L347.802 372.437L346.907 372.005L349.434 366.771L350.28 367.18Z" fill="white"/>
<path d="M251.791 193.219L251.535 193.811C252.137 193.545 252.764 193.569 253.415 193.884C254.147 194.237 254.51 194.758 254.503 195.447C254.799 195.279 255.122 195.185 255.475 195.164C255.83 195.145 256.198 195.227 256.578 195.411C257.726 195.965 258.016 196.855 257.449 198.08L255.756 201.586L254.861 201.154L256.528 197.701C256.709 197.327 256.758 197.007 256.676 196.74C256.595 196.471 256.353 196.239 255.95 196.044C255.618 195.884 255.294 195.851 254.978 195.945C254.664 196.036 254.408 196.24 254.211 196.558L252.534 200.031L251.635 199.597L253.29 196.167C253.658 195.406 253.469 194.846 252.724 194.487C252.137 194.203 251.615 194.259 251.158 194.655L249.313 198.476L248.418 198.044L250.945 192.81L251.791 193.219ZM260.341 203.8C260.339 203.672 260.386 203.468 260.481 203.188C259.857 203.419 259.256 203.396 258.679 203.117C258.163 202.868 257.809 202.518 257.617 202.068C257.43 201.615 257.444 201.165 257.661 200.717C257.924 200.172 258.334 199.849 258.892 199.749C259.454 199.646 260.111 199.777 260.862 200.139L261.733 200.56L261.931 200.149C262.082 199.836 262.108 199.542 262.01 199.268C261.913 198.991 261.683 198.764 261.319 198.588C260.999 198.434 260.693 198.386 260.399 198.443C260.105 198.499 259.903 198.642 259.792 198.871L258.893 198.437C259.019 198.176 259.232 197.969 259.533 197.816C259.838 197.661 260.183 197.589 260.567 197.599C260.955 197.612 261.339 197.71 261.72 197.893C262.323 198.184 262.722 198.564 262.917 199.032C263.114 199.497 263.092 199.997 262.849 200.532L261.686 202.941C261.454 203.421 261.331 203.833 261.317 204.176L261.279 204.253L260.341 203.8ZM259.185 202.401C259.466 202.537 259.767 202.593 260.088 202.569C260.41 202.545 260.683 202.445 260.908 202.267L261.427 201.193L260.725 200.855C259.629 200.325 258.926 200.381 258.616 201.023C258.481 201.304 258.468 201.568 258.579 201.816C258.69 202.065 258.892 202.26 259.185 202.401ZM263.47 205.311L262.576 204.879L265.102 199.646L265.997 200.078L263.47 205.311ZM265.7 198.223C265.77 198.078 265.873 197.976 266.008 197.918C266.147 197.862 266.303 197.876 266.477 197.96C266.651 198.044 266.759 198.158 266.801 198.301C266.843 198.445 266.829 198.589 266.759 198.734C266.689 198.879 266.586 198.978 266.449 199.031C266.312 199.085 266.156 199.069 265.982 198.985C265.808 198.901 265.699 198.789 265.655 198.648C265.615 198.51 265.63 198.368 265.7 198.223ZM268.28 201.18L267.992 201.852C268.634 201.542 269.278 201.543 269.923 201.854C271.029 202.388 271.286 203.281 270.693 204.534L269.023 207.992L268.128 207.56L269.8 204.097C269.979 203.718 270.027 203.397 269.943 203.134C269.863 202.873 269.643 202.655 269.285 202.483C268.995 202.343 268.703 202.297 268.409 202.346C268.115 202.395 267.846 202.515 267.602 202.708L265.802 206.437L264.907 206.005L267.434 200.771L268.28 201.18Z" fill="white"/>
<line x1="226.692" y1="342.606" x2="258.692" y2="317.606" stroke="#4000C7"/>
<line x1="292.704" y1="344.403" x2="258.704" y2="319.403" stroke="#4000C7"/>
<path d="M281.332 329.73C282.812 329.57 284.112 329.04 284.662 328.16C285.202 329.04 286.512 329.57 287.992 329.73L288.242 329.09C286.562 328.95 285.202 328.27 285.112 327.3H287.882V326.65H285.072V325.74H284.252V326.65H281.442V327.3H284.202C284.112 328.27 282.752 328.95 281.082 329.09L281.332 329.73ZM286.892 333.24C286.892 333.8 286.072 334.11 284.652 334.11C283.232 334.11 282.412 333.8 282.412 333.24C282.412 332.69 283.232 332.37 284.652 332.37C286.072 332.37 286.892 332.69 286.892 333.24ZM288.712 330.86V330.2H280.602V330.86H284.252V331.76C282.562 331.83 281.582 332.35 281.582 333.24C281.582 334.21 282.722 334.73 284.662 334.73C286.582 334.73 287.722 334.21 287.722 333.24C287.722 332.35 286.742 331.83 285.062 331.76V330.86H288.712ZM291.601 333.1H296.871V331.08H290.771V331.71H296.061V332.5H290.801V334.63H297.141V334H291.601V333.1ZM294.271 329.67V328.82H296.951V328.16H291.701V326.77H296.861V326.11H290.881V328.82H293.451V329.67H289.791V330.33H297.911V329.67H294.271ZM305.201 329.4H302.661V328.06H305.201V329.4ZM306.001 326.14H305.201V327.43H302.661V326.14H301.851V330.06H306.001V326.14ZM303.571 333.01H308.441V330.83H302.741V331.48H307.631V332.4H302.771V334.64H308.771V333.99H303.571V333.01ZM308.441 327.7V325.78H307.621V330.41H308.441V328.38H309.771V327.7H308.441ZM316.32 328.85H317.46V331.31H318.25V325.78H317.46V328.18H316.32V325.95H315.54V331.02H316.32V328.85ZM315.17 329.98C314.02 329.54 313.35 328.53 313.35 327.54V326.33H312.56V327.54C312.56 328.54 311.86 329.7 310.69 330.22L311.13 330.86C312 330.47 312.64 329.71 312.96 328.87C313.28 329.63 313.89 330.27 314.73 330.61L315.17 329.98ZM315.29 334.1C313.95 334.1 313.11 333.74 313.11 333.12C313.11 332.5 313.95 332.15 315.29 332.15C316.65 332.15 317.48 332.5 317.48 333.12C317.48 333.74 316.65 334.1 315.29 334.1ZM315.29 331.51C313.45 331.51 312.3 332.1 312.3 333.12C312.3 334.14 313.45 334.73 315.29 334.73C317.14 334.73 318.29 334.14 318.29 333.12C318.29 332.1 317.14 331.51 315.29 331.51ZM321.044 331.993H320.229L320.165 326.891H321.112L321.044 331.993ZM320.131 333.546C320.131 333.399 320.175 333.277 320.263 333.18C320.354 333.079 320.487 333.028 320.663 333.028C320.839 333.028 320.972 333.079 321.063 333.18C321.155 333.277 321.2 333.399 321.2 333.546C321.2 333.692 321.155 333.814 321.063 333.912C320.972 334.007 320.839 334.054 320.663 334.054C320.487 334.054 320.354 334.007 320.263 333.912C320.175 333.814 320.131 333.692 320.131 333.546Z" fill="#FF0000"/>
<path d="M243.521 299.82H241.051V295.3H243.521V299.82ZM246.461 293.77V297.04H244.331V294.65H240.251V300.47H244.331V297.71H246.461V302.76H247.281V293.77H246.461ZM252.291 295.37H254.401V294.69H249.391V295.37H251.471V296.51C251.471 298.06 250.381 299.75 249.091 300.36L249.571 301.02C250.591 300.5 251.471 299.37 251.881 298.06C252.311 299.29 253.191 300.32 254.231 300.8L254.691 300.14C253.371 299.58 252.291 298.03 252.291 296.51V295.37ZM255.611 293.78V302.74H256.431V293.78H255.611ZM263.95 294.55H263.14V296.16C263.14 297.86 262.05 299.58 260.73 300.21L261.23 300.88C262.28 300.34 263.14 299.22 263.55 297.87C263.98 299.15 264.84 300.21 265.86 300.71L266.35 300.05C265.02 299.45 263.95 297.8 263.95 296.16V294.55ZM267.29 293.77V302.76H268.11V293.77H267.29ZM274.439 300.93V298.63H277.169V297.97H271.819V295.16H277.079V294.49H270.999V298.63H273.609V300.93H269.959V301.61H278.109V300.93H274.439Z" fill="#FF0000"/>
<path d="M299.646 316.354C299.842 316.549 300.158 316.549 300.354 316.354L303.536 313.172C303.731 312.976 303.731 312.66 303.536 312.464C303.34 312.269 303.024 312.269 302.828 312.464L300 315.293L297.172 312.464C296.976 312.269 296.66 312.269 296.464 312.464C296.269 312.66 296.269 312.976 296.464 313.172L299.646 316.354ZM299.5 78L299.5 316L300.5 316L300.5 78L299.5 78Z" fill="#4000C7"/>
<rect x="318.031" y="87.2095" width="18" height="41" rx="5" transform="rotate(-64.2277 318.031 87.2095)" fill="black"/>
<path d="M314.739 75.6264L323.675 76.0939L320.662 82.333L314.739 75.6264Z" fill="black"/>
<path d="M331.791 81.219L331.535 81.8111C332.137 81.5449 332.764 81.5691 333.415 81.8836C334.147 82.237 334.51 82.7581 334.503 83.4468C334.799 83.2794 335.122 83.1852 335.475 83.1643C335.83 83.145 336.198 83.2272 336.578 83.4109C337.726 83.9651 338.016 84.8548 337.449 86.0798L335.756 89.5865L334.861 89.1544L336.528 85.7009C336.709 85.3269 336.758 85.0067 336.676 84.7404C336.595 84.4708 336.353 84.2388 335.95 84.0442C335.618 83.8838 335.294 83.8507 334.978 83.9447C334.664 84.0355 334.408 84.2401 334.211 84.5583L332.534 88.0311L331.635 87.5968L333.29 84.1675C333.658 83.4065 333.469 82.8461 332.724 82.4865C332.137 82.2031 331.615 82.2592 331.158 82.6547L329.313 86.4758L328.418 86.0438L330.945 80.8103L331.791 81.219ZM340.341 91.8003C340.339 91.6723 340.386 91.4682 340.481 91.1882C339.857 91.4195 339.256 91.3958 338.679 91.1171C338.163 90.868 337.809 90.5181 337.617 90.0676C337.43 89.6153 337.444 89.1651 337.661 88.7169C337.924 88.172 338.334 87.8492 338.892 87.7486C339.454 87.6463 340.111 87.7766 340.862 88.1393L341.733 88.5597L341.931 88.1485C342.082 87.8358 342.108 87.5423 342.01 87.2682C341.913 86.9909 341.683 86.7643 341.319 86.5883C340.999 86.4342 340.693 86.3856 340.399 86.4425C340.105 86.4994 339.903 86.6424 339.792 86.8713L338.893 86.4369C339.019 86.1757 339.232 85.9686 339.533 85.8155C339.838 85.6607 340.183 85.5887 340.567 85.5994C340.955 85.6116 341.339 85.7096 341.72 85.8933C342.323 86.1845 342.722 86.5641 342.917 87.0323C343.114 87.4972 343.092 87.9971 342.849 88.5322L341.686 90.9409C341.454 91.4214 341.331 91.8331 341.317 92.176L341.279 92.2534L340.341 91.8003ZM339.185 90.4014C339.466 90.5369 339.767 90.5927 340.088 90.5691C340.41 90.5454 340.683 90.4447 340.908 90.2671L341.427 89.1933L340.725 88.8547C339.629 88.3253 338.926 88.3815 338.616 89.0232C338.481 89.3037 338.468 89.5681 338.579 89.8164C338.69 90.0647 338.892 90.2597 339.185 90.4014ZM343.47 93.3113L342.576 92.8793L345.102 87.6458L345.997 88.0779L343.47 93.3113ZM345.7 86.2226C345.77 86.0775 345.873 85.976 346.008 85.9181C346.147 85.8617 346.303 85.8756 346.477 85.9596C346.651 86.0437 346.759 86.1575 346.801 86.3011C346.843 86.4446 346.829 86.589 346.759 86.7341C346.689 86.8792 346.586 86.9783 346.449 87.0314C346.312 87.0846 346.156 87.0691 345.982 86.985C345.808 86.901 345.699 86.7888 345.655 86.6484C345.615 86.5097 345.63 86.3677 345.7 86.2226ZM348.28 89.1801L347.992 89.852C348.634 89.542 349.278 89.5427 349.923 89.8541C351.029 90.3881 351.286 91.2814 350.693 92.5339L349.023 95.9923L348.128 95.5602L349.8 92.0971C349.979 91.7182 350.027 91.3973 349.943 91.1342C349.863 90.8726 349.643 90.6555 349.285 90.4827C348.995 90.3425 348.703 90.2969 348.409 90.3458C348.115 90.3948 347.846 90.5154 347.602 90.7077L345.802 94.4369L344.907 94.0049L347.434 88.7714L348.28 89.1801Z" fill="white"/>
<circle cx="219.5" cy="70.5" r="9.5" fill="#4000C7"/>
<circle cx="300.5" cy="70.5" r="9.5" fill="#4000C7"/>
<line x1="140" y1="70.5" x2="301" y2="70.5" stroke="#4000C7"/>
<line x1="140" y1="348.5" x2="301" y2="348.5" stroke="#4000C7"/>
<line x1="140" y1="182.5" x2="216" y2="182.5" stroke="#4000C7"/>
<circle cx="300.5" cy="349.5" r="9" fill="white" stroke="#4000C7" stroke-dasharray="2 2"/>
</svg>
