<svg width="1152" height="587" viewBox="0 0 1152 587" fill="none" xmlns="http://www.w3.org/2000/svg">
<path d="M0 0H1152V587H0V0Z" fill="white" fill-opacity="0.01"/>
<path d="M235.466 186H230.808V185.351L233.269 182.616C233.633 182.203 233.884 181.868 234.021 181.61C234.16 181.35 234.23 181.081 234.23 180.805C234.23 180.434 234.118 180.129 233.894 179.892C233.669 179.654 233.369 179.535 232.995 179.535C232.546 179.535 232.196 179.664 231.945 179.921C231.698 180.175 231.574 180.53 231.574 180.985H230.671C230.671 180.331 230.881 179.802 231.301 179.398C231.724 178.995 232.289 178.793 232.995 178.793C233.656 178.793 234.178 178.967 234.562 179.315C234.947 179.66 235.139 180.121 235.139 180.697C235.139 181.397 234.693 182.23 233.801 183.197L231.896 185.263H235.466V186ZM238.635 185.36C238.957 185.36 239.239 185.263 239.479 185.067C239.72 184.872 239.854 184.628 239.88 184.335H240.734C240.718 184.638 240.614 184.926 240.422 185.199C240.23 185.473 239.973 185.691 239.65 185.854C239.331 186.016 238.993 186.098 238.635 186.098C237.915 186.098 237.342 185.858 236.916 185.38C236.493 184.898 236.281 184.241 236.281 183.407V183.256C236.281 182.742 236.376 182.284 236.564 181.884C236.753 181.483 237.023 181.173 237.375 180.951C237.73 180.73 238.148 180.619 238.63 180.619C239.222 180.619 239.714 180.797 240.104 181.151C240.498 181.506 240.708 181.967 240.734 182.533H239.88C239.854 182.191 239.724 181.911 239.489 181.693C239.258 181.472 238.972 181.361 238.63 181.361C238.171 181.361 237.814 181.527 237.561 181.859C237.31 182.188 237.185 182.665 237.185 183.29V183.461C237.185 184.07 237.31 184.538 237.561 184.867C237.811 185.196 238.169 185.36 238.635 185.36ZM245.012 186C244.96 185.896 244.917 185.71 244.885 185.443C244.465 185.88 243.964 186.098 243.381 186.098C242.86 186.098 242.432 185.951 242.097 185.658C241.765 185.362 241.599 184.988 241.599 184.535C241.599 183.985 241.807 183.559 242.224 183.256C242.644 182.95 243.233 182.797 243.991 182.797H244.87V182.382C244.87 182.066 244.776 181.815 244.587 181.63C244.398 181.441 244.12 181.347 243.752 181.347C243.43 181.347 243.16 181.428 242.941 181.591C242.723 181.754 242.614 181.951 242.614 182.182H241.706C241.706 181.918 241.799 181.664 241.984 181.42C242.173 181.173 242.427 180.977 242.746 180.834C243.068 180.691 243.422 180.619 243.806 180.619C244.414 180.619 244.891 180.772 245.236 181.078C245.581 181.381 245.76 181.799 245.773 182.333V184.765C245.773 185.25 245.835 185.635 245.959 185.922V186H245.012ZM243.513 185.312C243.796 185.312 244.064 185.238 244.318 185.092C244.572 184.945 244.756 184.755 244.87 184.521V183.437H244.162C243.055 183.437 242.502 183.76 242.502 184.408C242.502 184.691 242.596 184.913 242.785 185.072C242.974 185.232 243.216 185.312 243.513 185.312ZM251.755 186H247.097V185.351L249.558 182.616C249.922 182.203 250.173 181.868 250.31 181.61C250.45 181.35 250.52 181.081 250.52 180.805C250.52 180.434 250.407 180.129 250.183 179.892C249.958 179.654 249.659 179.535 249.284 179.535C248.835 179.535 248.485 179.664 248.234 179.921C247.987 180.175 247.863 180.53 247.863 180.985H246.96C246.96 180.331 247.17 179.802 247.59 179.398C248.013 178.995 248.578 178.793 249.284 178.793C249.945 178.793 250.467 178.967 250.852 179.315C251.236 179.66 251.428 180.121 251.428 180.697C251.428 181.397 250.982 182.23 250.09 183.197L248.186 185.263H251.755V186ZM256.257 178.886V179.652H256.091C255.388 179.665 254.828 179.874 254.411 180.277C253.994 180.681 253.754 181.249 253.688 181.981C254.063 181.552 254.574 181.337 255.222 181.337C255.84 181.337 256.333 181.555 256.701 181.991C257.072 182.427 257.258 182.991 257.258 183.681C257.258 184.413 257.058 184.999 256.657 185.438C256.26 185.878 255.726 186.098 255.056 186.098C254.375 186.098 253.824 185.837 253.4 185.316C252.977 184.792 252.766 184.118 252.766 183.295V182.948C252.766 181.64 253.044 180.64 253.601 179.95C254.16 179.257 254.992 178.902 256.096 178.886H256.257ZM255.07 182.089C254.761 182.089 254.476 182.182 254.216 182.367C253.955 182.553 253.775 182.785 253.674 183.065V183.397C253.674 183.983 253.806 184.455 254.069 184.813C254.333 185.172 254.662 185.351 255.056 185.351C255.463 185.351 255.782 185.201 256.013 184.901C256.247 184.602 256.364 184.21 256.364 183.725C256.364 183.236 256.245 182.842 256.008 182.543C255.773 182.24 255.461 182.089 255.07 182.089ZM262.141 183.612H263.127V184.35H262.141V186H261.232V184.35H257.995V183.817L261.179 178.891H262.141V183.612ZM259.021 183.612H261.232V180.126L261.125 180.321L259.021 183.612ZM265.017 186H264.113V180.717H265.017V186ZM264.04 179.315C264.04 179.169 264.084 179.045 264.172 178.944C264.263 178.843 264.396 178.793 264.572 178.793C264.748 178.793 264.882 178.843 264.973 178.944C265.064 179.045 265.109 179.169 265.109 179.315C265.109 179.462 265.064 179.584 264.973 179.682C264.882 179.779 264.748 179.828 264.572 179.828C264.396 179.828 264.263 179.779 264.172 179.682C264.084 179.584 264.04 179.462 264.04 179.315ZM234.061 193.38H231.831V190.94H234.061V193.38ZM231.011 193.38H229.691V194.05H236.201V193.38H234.881V190.94H236.231V190.27H229.661V190.94H231.011V193.38ZM237.011 195.09H228.881V195.76H232.531V198.74H233.361V195.76H237.011V195.09ZM239.321 193.77H242.261V193.11H239.321V191.26H242.651V190.58H238.501V196.59H239.191C240.901 196.59 241.991 196.54 243.291 196.31L243.201 195.64C241.981 195.86 240.941 195.92 239.321 195.92V193.77ZM244.661 189.76V193.15H242.811V193.83H244.661V198.75H245.481V189.76H244.661ZM250.58 194.51C251.97 194.3 253.26 193.61 253.83 192.64C254.4 193.61 255.68 194.3 257.07 194.51L257.36 193.85C255.76 193.63 254.24 192.64 254.24 191.54H257.1V190.88H254.24V189.77H253.42V190.88H250.56V191.54H253.41C253.41 192.65 251.9 193.63 250.28 193.85L250.58 194.51ZM257.89 195.19H249.78V195.86H253.42V198.75H254.24V195.86H257.89V195.19ZM259.449 190.73V191.41H262.739C262.549 193.53 261.319 195.25 259.029 196.4L259.479 197.04C262.379 195.59 263.549 193.28 263.549 190.73H259.449ZM267.309 193.41H265.869V189.77H265.049V198.74H265.869V194.09H267.309V193.41Z" fill="black"/>
<path d="M235.466 340H230.808V339.351L233.269 336.616C233.633 336.203 233.884 335.868 234.021 335.61C234.16 335.35 234.23 335.081 234.23 334.805C234.23 334.434 234.118 334.129 233.894 333.892C233.669 333.654 233.369 333.535 232.995 333.535C232.546 333.535 232.196 333.664 231.945 333.921C231.698 334.175 231.574 334.53 231.574 334.985H230.671C230.671 334.331 230.881 333.802 231.301 333.398C231.724 332.995 232.289 332.793 232.995 332.793C233.656 332.793 234.178 332.967 234.562 333.315C234.947 333.66 235.139 334.121 235.139 334.697C235.139 335.397 234.693 336.23 233.801 337.197L231.896 339.263H235.466V340ZM238.635 339.36C238.957 339.36 239.239 339.263 239.479 339.067C239.72 338.872 239.854 338.628 239.88 338.335H240.734C240.718 338.638 240.614 338.926 240.422 339.199C240.23 339.473 239.973 339.691 239.65 339.854C239.331 340.016 238.993 340.098 238.635 340.098C237.915 340.098 237.342 339.858 236.916 339.38C236.493 338.898 236.281 338.241 236.281 337.407V337.256C236.281 336.742 236.376 336.284 236.564 335.884C236.753 335.483 237.023 335.173 237.375 334.951C237.73 334.73 238.148 334.619 238.63 334.619C239.222 334.619 239.714 334.797 240.104 335.151C240.498 335.506 240.708 335.967 240.734 336.533H239.88C239.854 336.191 239.724 335.911 239.489 335.693C239.258 335.472 238.972 335.361 238.63 335.361C238.171 335.361 237.814 335.527 237.561 335.859C237.31 336.188 237.185 336.665 237.185 337.29V337.461C237.185 338.07 237.31 338.538 237.561 338.867C237.811 339.196 238.169 339.36 238.635 339.36ZM245.012 340C244.96 339.896 244.917 339.71 244.885 339.443C244.465 339.88 243.964 340.098 243.381 340.098C242.86 340.098 242.432 339.951 242.097 339.658C241.765 339.362 241.599 338.988 241.599 338.535C241.599 337.985 241.807 337.559 242.224 337.256C242.644 336.95 243.233 336.797 243.991 336.797H244.87V336.382C244.87 336.066 244.776 335.815 244.587 335.63C244.398 335.441 244.12 335.347 243.752 335.347C243.43 335.347 243.16 335.428 242.941 335.591C242.723 335.754 242.614 335.951 242.614 336.182H241.706C241.706 335.918 241.799 335.664 241.984 335.42C242.173 335.173 242.427 334.977 242.746 334.834C243.068 334.691 243.422 334.619 243.806 334.619C244.414 334.619 244.891 334.772 245.236 335.078C245.581 335.381 245.76 335.799 245.773 336.333V338.765C245.773 339.25 245.835 339.635 245.959 339.922V340H245.012ZM243.513 339.312C243.796 339.312 244.064 339.238 244.318 339.092C244.572 338.945 244.756 338.755 244.87 338.521V337.437H244.162C243.055 337.437 242.502 337.76 242.502 338.408C242.502 338.691 242.596 338.913 242.785 339.072C242.974 339.232 243.216 339.312 243.513 339.312ZM251.755 340H247.097V339.351L249.558 336.616C249.922 336.203 250.173 335.868 250.31 335.61C250.45 335.35 250.52 335.081 250.52 334.805C250.52 334.434 250.407 334.129 250.183 333.892C249.958 333.654 249.659 333.535 249.284 333.535C248.835 333.535 248.485 333.664 248.234 333.921C247.987 334.175 247.863 334.53 247.863 334.985H246.96C246.96 334.331 247.17 333.802 247.59 333.398C248.013 332.995 248.578 332.793 249.284 332.793C249.945 332.793 250.467 332.967 250.852 333.315C251.236 333.66 251.428 334.121 251.428 334.697C251.428 335.397 250.982 336.23 250.09 337.197L248.186 339.263H251.755V340ZM256.257 332.886V333.652H256.091C255.388 333.665 254.828 333.874 254.411 334.277C253.994 334.681 253.754 335.249 253.688 335.981C254.063 335.552 254.574 335.337 255.222 335.337C255.84 335.337 256.333 335.555 256.701 335.991C257.072 336.427 257.258 336.991 257.258 337.681C257.258 338.413 257.058 338.999 256.657 339.438C256.26 339.878 255.726 340.098 255.056 340.098C254.375 340.098 253.824 339.837 253.4 339.316C252.977 338.792 252.766 338.118 252.766 337.295V336.948C252.766 335.64 253.044 334.64 253.601 333.95C254.16 333.257 254.992 332.902 256.096 332.886H256.257ZM255.07 336.089C254.761 336.089 254.476 336.182 254.216 336.367C253.955 336.553 253.775 336.785 253.674 337.065V337.397C253.674 337.983 253.806 338.455 254.069 338.813C254.333 339.172 254.662 339.351 255.056 339.351C255.463 339.351 255.782 339.201 256.013 338.901C256.247 338.602 256.364 338.21 256.364 337.725C256.364 337.236 256.245 336.842 256.008 336.543C255.773 336.24 255.461 336.089 255.07 336.089ZM262.141 337.612H263.127V338.35H262.141V340H261.232V338.35H257.995V337.817L261.179 332.891H262.141V337.612ZM259.021 337.612H261.232V334.126L261.125 334.321L259.021 337.612ZM265.017 340H264.113V334.717H265.017V340ZM264.04 333.315C264.04 333.169 264.084 333.045 264.172 332.944C264.263 332.843 264.396 332.793 264.572 332.793C264.748 332.793 264.882 332.843 264.973 332.944C265.064 333.045 265.109 333.169 265.109 333.315C265.109 333.462 265.064 333.584 264.973 333.682C264.882 333.779 264.748 333.828 264.572 333.828C264.396 333.828 264.263 333.779 264.172 333.682C264.084 333.584 264.04 333.462 264.04 333.315ZM234.061 347.38H231.831V344.94H234.061V347.38ZM231.011 347.38H229.691V348.05H236.201V347.38H234.881V344.94H236.231V344.27H229.661V344.94H231.011V347.38ZM237.011 349.09H228.881V349.76H232.531V352.74H233.361V349.76H237.011V349.09ZM239.321 347.77H242.261V347.11H239.321V345.26H242.651V344.58H238.501V350.59H239.191C240.901 350.59 241.991 350.54 243.291 350.31L243.201 349.64C241.981 349.86 240.941 349.92 239.321 349.92V347.77ZM244.661 343.76V347.15H242.811V347.83H244.661V352.75H245.481V343.76H244.661ZM250.58 348.51C251.97 348.3 253.26 347.61 253.83 346.64C254.4 347.61 255.68 348.3 257.07 348.51L257.36 347.85C255.76 347.63 254.24 346.64 254.24 345.54H257.1V344.88H254.24V343.77H253.42V344.88H250.56V345.54H253.41C253.41 346.65 251.9 347.63 250.28 347.85L250.58 348.51ZM257.89 349.19H249.78V349.86H253.42V352.75H254.24V349.86H257.89V349.19ZM259.449 344.73V345.41H262.739C262.549 347.53 261.319 349.25 259.029 350.4L259.479 351.04C262.379 349.59 263.549 347.28 263.549 344.73H259.449ZM267.309 347.41H265.869V343.77H265.049V352.74H265.869V348.09H267.309V347.41Z" fill="black"/>
<rect x="358.824" y="100.124" width="18" height="41" rx="5" transform="rotate(-90.1738 358.824 100.124)" fill="black"/>
<rect x="277.824" y="221.124" width="18" height="41" rx="5" transform="rotate(-90.1738 277.824 221.124)" fill="black"/>
<path d="M351.001 91.1934L359.251 87.7304L359.25 94.6586L351.001 91.1934Z" fill="black"/>
<path d="M270.001 212.193L278.251 208.73L278.25 215.659L270.001 212.193Z" fill="black"/>
<path d="M368.603 88.737L368.63 89.3815C369.056 88.8801 369.631 88.6294 370.354 88.6293C371.167 88.6291 371.72 88.9405 372.014 89.5635C372.207 89.2842 372.458 89.0586 372.766 88.8866C373.077 88.7147 373.444 88.6287 373.867 88.6286C375.142 88.6284 375.79 89.3032 375.812 90.6532L375.812 94.5472L374.819 94.5474L374.818 90.7124C374.818 90.2971 374.723 89.9874 374.533 89.7833C374.343 89.5756 374.025 89.4719 373.577 89.4719C373.208 89.472 372.902 89.5831 372.659 89.8051C372.415 90.0236 372.274 90.319 372.235 90.6914L372.235 94.5479L371.236 94.548L371.235 90.7399C371.235 89.8949 370.822 89.4724 369.995 89.4726C369.343 89.4727 368.897 89.7503 368.657 90.3053L368.658 94.5485L367.664 94.5487L367.663 88.7372L368.603 88.737ZM380.904 94.5463C380.847 94.4317 380.8 94.2276 380.764 93.934C380.303 94.4139 379.751 94.6539 379.11 94.654C378.537 94.6541 378.066 94.4931 377.698 94.1709C377.332 93.8451 377.15 93.4334 377.149 92.9356C377.149 92.3305 377.378 91.8614 377.837 91.5283C378.299 91.1916 378.947 91.0232 379.781 91.0231L380.748 91.0229L380.748 90.5663C380.748 90.219 380.644 89.9433 380.436 89.7393C380.228 89.5316 379.922 89.4278 379.517 89.4279C379.163 89.428 378.866 89.5175 378.626 89.6966C378.386 89.8757 378.266 90.0923 378.266 90.3466L377.267 90.3468C377.267 90.0567 377.369 89.7774 377.573 89.5088C377.781 89.2366 378.06 89.0217 378.411 88.8641C378.765 88.7065 379.154 88.6277 379.576 88.6276C380.246 88.6275 380.771 88.7957 381.15 89.1322C381.53 89.4651 381.727 89.9252 381.741 90.5125L381.742 93.1873C381.742 93.7208 381.81 94.1451 381.946 94.4602L381.946 94.5461L380.904 94.5463ZM379.255 93.7893C379.567 93.7892 379.862 93.7086 380.141 93.5474C380.421 93.3862 380.623 93.1767 380.748 92.9189L380.748 91.7265L379.969 91.7266C378.752 91.7269 378.143 92.0833 378.143 92.7958C378.143 93.1073 378.247 93.3508 378.455 93.5262C378.662 93.7016 378.929 93.7893 379.255 93.7893ZM384.379 94.5457L383.386 94.5458L383.385 88.7343L384.378 88.7341L384.379 94.5457ZM383.304 87.1928C383.304 87.0317 383.352 86.8956 383.449 86.7846C383.549 86.6736 383.696 86.6181 383.889 86.618C384.082 86.618 384.229 86.6735 384.33 86.7844C384.43 86.8954 384.48 87.0315 384.48 87.1926C384.48 87.3538 384.43 87.488 384.33 87.5955C384.229 87.7029 384.083 87.7567 383.889 87.7567C383.696 87.7567 383.549 87.703 383.449 87.5956C383.352 87.4882 383.304 87.354 383.304 87.1928ZM386.913 88.7337L386.946 89.4641C387.39 88.9055 387.97 88.6261 388.686 88.6259C389.914 88.6257 390.534 89.3185 390.545 90.7042L390.545 94.5445L389.552 94.5447L389.551 90.699C389.547 90.2801 389.451 89.9704 389.261 89.7699C389.074 89.5694 388.783 89.4692 388.385 89.4693C388.063 89.4693 387.78 89.5553 387.537 89.7272C387.293 89.8991 387.103 90.1248 386.967 90.4041L386.968 94.5452L385.974 94.5454L385.973 88.7339L386.913 88.7337Z" fill="white"/>
<path d="M287.603 209.737L287.63 210.382C288.056 209.88 288.631 209.629 289.354 209.629C290.167 209.629 290.72 209.941 291.014 210.564C291.207 210.284 291.458 210.059 291.766 209.887C292.077 209.715 292.444 209.629 292.867 209.629C294.142 209.628 294.79 210.303 294.812 211.653L294.812 215.547L293.819 215.547L293.818 211.712C293.818 211.297 293.723 210.987 293.533 210.783C293.343 210.576 293.025 210.472 292.577 210.472C292.208 210.472 291.902 210.583 291.659 210.805C291.415 211.024 291.274 211.319 291.235 211.691L291.235 215.548L290.236 215.548L290.235 211.74C290.235 210.895 289.822 210.472 288.995 210.473C288.343 210.473 287.897 210.75 287.657 211.305L287.658 215.549L286.664 215.549L286.663 209.737L287.603 209.737ZM299.904 215.546C299.847 215.432 299.8 215.228 299.764 214.934C299.303 215.414 298.751 215.654 298.11 215.654C297.537 215.654 297.066 215.493 296.698 215.171C296.332 214.845 296.15 214.433 296.149 213.936C296.149 213.331 296.378 212.861 296.837 212.528C297.299 212.192 297.947 212.023 298.781 212.023L299.748 212.023L299.748 211.566C299.748 211.219 299.644 210.943 299.436 210.739C299.228 210.532 298.922 210.428 298.517 210.428C298.163 210.428 297.866 210.518 297.626 210.697C297.386 210.876 297.266 211.092 297.266 211.347L296.267 211.347C296.267 211.057 296.369 210.777 296.573 210.509C296.781 210.237 297.06 210.022 297.411 209.864C297.765 209.707 298.154 209.628 298.576 209.628C299.246 209.627 299.771 209.796 300.15 210.132C300.53 210.465 300.727 210.925 300.741 211.512L300.742 214.187C300.742 214.721 300.81 215.145 300.946 215.46L300.946 215.546L299.904 215.546ZM298.255 214.789C298.567 214.789 298.862 214.709 299.141 214.547C299.421 214.386 299.623 214.177 299.748 213.919L299.748 212.726L298.969 212.727C297.752 212.727 297.143 213.083 297.143 213.796C297.143 214.107 297.247 214.351 297.455 214.526C297.662 214.702 297.929 214.789 298.255 214.789ZM303.379 215.546L302.386 215.546L302.385 209.734L303.378 209.734L303.379 215.546ZM302.304 208.193C302.304 208.032 302.352 207.896 302.449 207.785C302.549 207.674 302.696 207.618 302.889 207.618C303.082 207.618 303.229 207.673 303.33 207.784C303.43 207.895 303.48 208.031 303.48 208.193C303.48 208.354 303.43 208.488 303.33 208.595C303.229 208.703 303.083 208.757 302.889 208.757C302.696 208.757 302.549 208.703 302.449 208.596C302.352 208.488 302.304 208.354 302.304 208.193ZM305.913 209.734L305.946 210.464C306.39 209.905 306.97 209.626 307.686 209.626C308.914 209.626 309.534 210.318 309.545 211.704L309.545 215.545L308.552 215.545L308.551 211.699C308.547 211.28 308.451 210.97 308.261 210.77C308.074 210.569 307.783 210.469 307.385 210.469C307.063 210.469 306.78 210.555 306.537 210.727C306.293 210.899 306.103 211.125 305.967 211.404L305.968 215.545L304.974 215.545L304.973 209.734L305.913 209.734Z" fill="white"/>
<circle cx="84.5" cy="366.5" r="9.5" fill="#4000C7"/>
<circle cx="84.5" cy="212.5" r="9.5" fill="#4000C7"/>
<circle cx="84.5" cy="91.5" r="9.5" fill="#4000C7"/>
<circle cx="165.5" cy="366.5" r="9.5" fill="#4000C7"/>
<circle cx="165.5" cy="212.5" r="9.5" fill="#4000C7"/>
<circle cx="247.5" cy="212.5" r="9.5" fill="#4000C7"/>
<circle cx="247.5" cy="366.5" r="9.5" fill="#4000C7"/>
<circle cx="165.5" cy="91.5" r="9.5" fill="#4000C7"/>
<line x1="85" y1="366.5" x2="248" y2="366.5" stroke="#4000C7"/>
<line x1="85" y1="212.5" x2="248" y2="212.5" stroke="#4000C7"/>
<line x1="89" y1="91.5" x2="321" y2="91.5" stroke="#4000C7"/>
<path d="M312.048 65H311.14V58.9795L309.318 59.6484V58.8281L311.906 57.8564H312.048V65ZM314.567 62.3145C314.567 61.5039 314.759 60.8529 315.144 60.3613C315.528 59.8665 316.031 59.6191 316.652 59.6191C317.271 59.6191 317.761 59.8307 318.122 60.2539V57.5H319.025V65H318.195L318.151 64.4336C317.79 64.8763 317.287 65.0977 316.643 65.0977C316.031 65.0977 315.531 64.847 315.144 64.3457C314.759 63.8444 314.567 63.1901 314.567 62.3828V62.3145ZM315.471 62.417C315.471 63.016 315.594 63.4847 315.842 63.8232C316.089 64.1618 316.431 64.3311 316.867 64.3311C317.44 64.3311 317.858 64.0739 318.122 63.5596V61.1328C317.852 60.6348 317.437 60.3857 316.877 60.3857C316.434 60.3857 316.089 60.5566 315.842 60.8984C315.594 61.2402 315.471 61.7464 315.471 62.417ZM322.624 65.0977C321.908 65.0977 321.325 64.8633 320.876 64.3945C320.427 63.9225 320.202 63.2926 320.202 62.5049V62.3389C320.202 61.8148 320.301 61.3477 320.5 60.9375C320.702 60.5241 320.982 60.2018 321.34 59.9707C321.701 59.7363 322.092 59.6191 322.512 59.6191C323.199 59.6191 323.732 59.8454 324.113 60.2979C324.494 60.7503 324.685 61.3981 324.685 62.2412V62.6172H321.105C321.118 63.138 321.27 63.5596 321.56 63.8818C321.853 64.2008 322.224 64.3604 322.673 64.3604C322.992 64.3604 323.262 64.2952 323.483 64.165C323.705 64.0348 323.898 63.8623 324.064 63.6475L324.616 64.0771C324.174 64.7575 323.509 65.0977 322.624 65.0977ZM322.512 60.3613C322.147 60.3613 321.841 60.4948 321.594 60.7617C321.346 61.0254 321.193 61.3965 321.135 61.875H323.781V61.8066C323.755 61.3477 323.632 60.9928 323.41 60.7422C323.189 60.4883 322.889 60.3613 322.512 60.3613ZM329.953 59.7461C329.953 60.1009 329.859 60.4167 329.67 60.6934C329.484 60.9701 329.232 61.1865 328.913 61.3428C329.284 61.5023 329.577 61.735 329.792 62.041C330.01 62.347 330.119 62.6937 330.119 63.0811C330.119 63.6963 329.911 64.1862 329.494 64.5508C329.081 64.9154 328.535 65.0977 327.858 65.0977C327.175 65.0977 326.626 64.9154 326.213 64.5508C325.803 64.1829 325.598 63.693 325.598 63.0811C325.598 62.6969 325.702 62.3503 325.91 62.041C326.122 61.7318 326.413 61.4974 326.784 61.3379C326.468 61.1816 326.219 60.9652 326.037 60.6885C325.855 60.4118 325.764 60.0977 325.764 59.7461C325.764 59.1471 325.956 58.6719 326.34 58.3203C326.724 57.9688 327.23 57.793 327.858 57.793C328.483 57.793 328.988 57.9688 329.372 58.3203C329.759 58.6719 329.953 59.1471 329.953 59.7461ZM329.216 63.0615C329.216 62.6644 329.089 62.3405 328.835 62.0898C328.584 61.8392 328.256 61.7139 327.849 61.7139C327.442 61.7139 327.115 61.8376 326.867 62.085C326.623 62.3324 326.501 62.6579 326.501 63.0615C326.501 63.4652 326.62 63.7826 326.857 64.0137C327.098 64.2448 327.432 64.3604 327.858 64.3604C328.282 64.3604 328.614 64.2448 328.854 64.0137C329.095 63.7793 329.216 63.4619 329.216 63.0615ZM327.858 58.5352C327.504 58.5352 327.215 58.6458 326.994 58.8672C326.776 59.0853 326.667 59.3831 326.667 59.7607C326.667 60.1221 326.774 60.415 326.989 60.6396C327.207 60.861 327.497 60.9717 327.858 60.9717C328.22 60.9717 328.508 60.861 328.723 60.6396C328.941 60.415 329.05 60.1221 329.05 59.7607C329.05 59.3994 328.938 59.1048 328.713 58.877C328.488 58.6491 328.203 58.5352 327.858 58.5352ZM335.847 58.3984L332.902 65H331.955L334.89 58.6328H331.042V57.8906H335.847V58.3984ZM341.53 65H336.872V64.3506L339.333 61.6162C339.698 61.2028 339.948 60.8675 340.085 60.6104C340.225 60.3499 340.295 60.0814 340.295 59.8047C340.295 59.4336 340.183 59.1292 339.958 58.8916C339.733 58.654 339.434 58.5352 339.06 58.5352C338.61 58.5352 338.26 58.6637 338.01 58.9209C337.762 59.1748 337.639 59.5296 337.639 59.9854H336.735C336.735 59.3311 336.945 58.8021 337.365 58.3984C337.788 57.9948 338.353 57.793 339.06 57.793C339.72 57.793 340.243 57.9671 340.627 58.3154C341.011 58.6605 341.203 59.1211 341.203 59.6973C341.203 60.3971 340.757 61.2305 339.865 62.1973L337.961 64.2627H341.53V65ZM347.053 62.417C347.053 63.2243 346.867 63.8737 346.496 64.3652C346.125 64.8535 345.627 65.0977 345.002 65.0977C344.335 65.0977 343.819 64.8617 343.454 64.3896L343.41 65H342.58V57.5H343.483V60.2979C343.848 59.8454 344.351 59.6191 344.992 59.6191C345.633 59.6191 346.136 59.8617 346.501 60.3467C346.869 60.8317 347.053 61.4958 347.053 62.3389V62.417ZM346.149 62.3145C346.149 61.6992 346.031 61.224 345.793 60.8887C345.555 60.5534 345.214 60.3857 344.768 60.3857C344.172 60.3857 343.744 60.6624 343.483 61.2158V63.501C343.76 64.0544 344.191 64.3311 344.777 64.3311C345.21 64.3311 345.547 64.1634 345.788 63.8281C346.029 63.4928 346.149 62.9883 346.149 62.3145ZM313.291 70.31H311.481V69H310.671V70.31H308.881V70.97H313.291V70.31ZM311.081 74.99C310.401 74.99 309.921 74.42 309.921 73.63C309.921 72.84 310.401 72.27 311.081 72.27C311.741 72.27 312.231 72.84 312.231 73.63C312.231 74.42 311.741 74.99 311.081 74.99ZM311.081 71.58C309.991 71.58 309.201 72.42 309.201 73.63C309.201 74.84 309.991 75.68 311.081 75.68C312.161 75.68 312.951 74.84 312.951 73.63C312.951 72.42 312.161 71.58 311.081 71.58ZM314.041 72.23H313.041V72.92H314.041V77.29H314.821V68.97H314.041V72.23ZM315.731 68.77V77.74H316.511V68.77H315.731ZM319.361 70.3H322.621V69.62H318.541V75.54H319.231C320.931 75.54 322.011 75.48 323.311 75.24L323.211 74.56C322.001 74.79 320.951 74.85 319.361 74.85V70.3ZM324.661 68.77V72.02H322.091V72.7H324.661V77.76H325.481V68.77H324.661ZM330.58 73.51C331.97 73.3 333.26 72.61 333.83 71.64C334.4 72.61 335.68 73.3 337.07 73.51L337.36 72.85C335.76 72.63 334.24 71.64 334.24 70.54H337.1V69.88H334.24V68.77H333.42V69.88H330.56V70.54H333.41C333.41 71.65 331.9 72.63 330.28 72.85L330.58 73.51ZM337.89 74.19H329.78V74.86H333.42V77.75H334.24V74.86H337.89V74.19ZM339.449 69.73V70.41H342.739C342.549 72.53 341.319 74.25 339.029 75.4L339.479 76.04C342.379 74.59 343.549 72.28 343.549 69.73H339.449ZM347.309 72.41H345.869V68.77H345.049V77.74H345.869V73.09H347.309V72.41Z" fill="black"/>
<circle cx="327.5" cy="91.5" r="9.5" fill="#4000C7"/>
</svg>
