<svg width="1152" height="587" viewBox="0 0 1152 587" fill="none" xmlns="http://www.w3.org/2000/svg">
<path d="M0 0H1152V587H0V0Z" fill="white" fill-opacity="0.01"/>
<path d="M333.159 320.875C332.97 321.1 332.744 321.28 332.48 321.417C332.22 321.554 331.934 321.622 331.621 321.622C331.211 321.622 330.853 321.521 330.547 321.319C330.244 321.118 330.01 320.834 329.844 320.47C329.678 320.102 329.595 319.697 329.595 319.254C329.595 318.779 329.684 318.351 329.863 317.97C330.046 317.589 330.303 317.298 330.635 317.096C330.967 316.894 331.354 316.793 331.797 316.793C332.5 316.793 333.053 317.057 333.457 317.584C333.864 318.108 334.067 318.824 334.067 319.732V319.996C334.067 321.38 333.794 322.39 333.247 323.028C332.7 323.663 331.875 323.989 330.771 324.005H330.596V323.243H330.786C331.532 323.23 332.104 323.036 332.505 322.662C332.905 322.285 333.123 321.689 333.159 320.875ZM331.768 320.875C332.07 320.875 332.349 320.782 332.603 320.597C332.86 320.411 333.047 320.182 333.164 319.908V319.547C333.164 318.954 333.035 318.473 332.778 318.102C332.521 317.73 332.196 317.545 331.802 317.545C331.405 317.545 331.086 317.698 330.845 318.004C330.604 318.307 330.483 318.707 330.483 319.205C330.483 319.69 330.599 320.09 330.83 320.406C331.064 320.719 331.377 320.875 331.768 320.875ZM339.878 321.417C339.878 322.224 339.692 322.874 339.321 323.365C338.95 323.854 338.452 324.098 337.827 324.098C337.16 324.098 336.644 323.862 336.279 323.39L336.235 324H335.405V316.5H336.309V319.298C336.673 318.845 337.176 318.619 337.817 318.619C338.459 318.619 338.962 318.862 339.326 319.347C339.694 319.832 339.878 320.496 339.878 321.339V321.417ZM338.975 321.314C338.975 320.699 338.856 320.224 338.618 319.889C338.381 319.553 338.039 319.386 337.593 319.386C336.997 319.386 336.569 319.662 336.309 320.216V322.501C336.585 323.054 337.017 323.331 337.603 323.331C338.035 323.331 338.372 323.163 338.613 322.828C338.854 322.493 338.975 321.988 338.975 321.314ZM341.465 324V319.415H340.63V318.717H341.465V318.175C341.465 317.608 341.616 317.171 341.919 316.861C342.222 316.552 342.65 316.397 343.203 316.397C343.411 316.397 343.618 316.425 343.823 316.48L343.774 317.213C343.621 317.184 343.459 317.169 343.286 317.169C342.993 317.169 342.767 317.255 342.607 317.428C342.448 317.597 342.368 317.841 342.368 318.16V318.717H343.496V319.415H342.368V324H341.465ZM345.718 320.006H346.396C346.823 319.999 347.158 319.887 347.402 319.669C347.646 319.451 347.769 319.156 347.769 318.785C347.769 317.952 347.354 317.535 346.523 317.535C346.133 317.535 345.82 317.647 345.586 317.872C345.355 318.093 345.239 318.388 345.239 318.756H344.336C344.336 318.193 344.541 317.726 344.951 317.354C345.365 316.98 345.889 316.793 346.523 316.793C347.194 316.793 347.72 316.97 348.101 317.325C348.481 317.68 348.672 318.173 348.672 318.805C348.672 319.114 348.571 319.413 348.369 319.703C348.171 319.993 347.899 320.209 347.554 320.353C347.944 320.476 348.245 320.681 348.457 320.968C348.672 321.254 348.779 321.604 348.779 322.018C348.779 322.656 348.571 323.162 348.154 323.536C347.738 323.91 347.196 324.098 346.528 324.098C345.861 324.098 345.317 323.917 344.897 323.556C344.481 323.194 344.272 322.717 344.272 322.125H345.181C345.181 322.499 345.303 322.799 345.547 323.023C345.791 323.248 346.118 323.36 346.528 323.36C346.965 323.36 347.298 323.246 347.529 323.019C347.76 322.791 347.876 322.464 347.876 322.037C347.876 321.624 347.749 321.306 347.495 321.085C347.241 320.864 346.875 320.75 346.396 320.743H345.718V320.006ZM354.609 317.398L351.665 324H350.718L353.652 317.633H349.805V316.891H354.609V317.398ZM356.948 320.006H357.627C358.053 319.999 358.389 319.887 358.633 319.669C358.877 319.451 358.999 319.156 358.999 318.785C358.999 317.952 358.584 317.535 357.754 317.535C357.363 317.535 357.051 317.647 356.816 317.872C356.585 318.093 356.47 318.388 356.47 318.756H355.566C355.566 318.193 355.771 317.726 356.182 317.354C356.595 316.98 357.119 316.793 357.754 316.793C358.424 316.793 358.95 316.97 359.331 317.325C359.712 317.68 359.902 318.173 359.902 318.805C359.902 319.114 359.801 319.413 359.6 319.703C359.401 319.993 359.129 320.209 358.784 320.353C359.175 320.476 359.476 320.681 359.688 320.968C359.902 321.254 360.01 321.604 360.01 322.018C360.01 322.656 359.801 323.162 359.385 323.536C358.968 323.91 358.426 324.098 357.759 324.098C357.091 324.098 356.548 323.917 356.128 323.556C355.711 323.194 355.503 322.717 355.503 322.125H356.411C356.411 322.499 356.533 322.799 356.777 323.023C357.021 323.248 357.349 323.36 357.759 323.36C358.195 323.36 358.529 323.246 358.76 323.019C358.991 322.791 359.106 322.464 359.106 322.037C359.106 321.624 358.979 321.306 358.726 321.085C358.472 320.864 358.105 320.75 357.627 320.743H356.948V320.006ZM363.462 323.36C363.784 323.36 364.066 323.263 364.307 323.067C364.548 322.872 364.681 322.628 364.707 322.335H365.562C365.545 322.638 365.441 322.926 365.249 323.199C365.057 323.473 364.8 323.691 364.478 323.854C364.159 324.016 363.82 324.098 363.462 324.098C362.743 324.098 362.17 323.858 361.743 323.38C361.32 322.898 361.108 322.241 361.108 321.407V321.256C361.108 320.742 361.203 320.284 361.392 319.884C361.58 319.483 361.851 319.173 362.202 318.951C362.557 318.73 362.975 318.619 363.457 318.619C364.049 318.619 364.541 318.797 364.932 319.151C365.326 319.506 365.535 319.967 365.562 320.533H364.707C364.681 320.191 364.551 319.911 364.316 319.693C364.085 319.472 363.799 319.361 363.457 319.361C362.998 319.361 362.642 319.527 362.388 319.859C362.137 320.188 362.012 320.665 362.012 321.29V321.461C362.012 322.07 362.137 322.538 362.388 322.867C362.638 323.196 362.996 323.36 363.462 323.36ZM313.223 334.96V333.27H316.093V332.61H310.573V331.16H315.883V328.43H309.743V329.1H315.083V330.5H309.763V333.27H312.393V334.96H308.743V335.63H316.893V334.96H313.223ZM324.172 329.62C324.172 330.73 324.172 332.07 323.812 333.9L324.632 333.99C324.982 332.05 324.982 330.76 324.982 329.62V328.72H318.832V329.39H324.172V329.62ZM317.962 334.75V335.43H326.072V334.75H317.962ZM334.511 327.78H333.691V334.33H334.511V327.78ZM328.161 330.6C328.161 329.73 328.821 329.11 329.691 329.11C330.581 329.11 331.241 329.73 331.241 330.6C331.241 331.49 330.581 332.11 329.691 332.11C328.821 332.11 328.161 331.49 328.161 330.6ZM332.041 330.6C332.041 329.31 331.031 328.4 329.691 328.4C328.361 328.4 327.361 329.31 327.361 330.6C327.361 331.9 328.361 332.82 329.691 332.82C331.031 332.82 332.041 331.9 332.041 330.6ZM329.561 335.87V333.66H328.741V336.54H334.781V335.87H329.561ZM340.401 329.57H341.521V333.78C341.141 333.8 340.771 333.81 340.401 333.82V329.57ZM342.271 329.57H343.011V328.91H338.911V329.57H339.651V333.84C339.311 333.85 339.011 333.85 338.741 333.85L338.821 334.53C339.991 334.53 341.871 334.49 343.261 334.23L343.211 333.63C342.921 333.67 342.591 333.7 342.271 333.73V329.57ZM343.971 331.19H342.741V331.91H343.971V336.27H344.741V327.99H343.971V331.19ZM345.701 327.78V336.74H346.491V327.78H345.701ZM354.55 327.77V336.76H355.37V327.77H354.55ZM350.64 328.46C349.31 328.46 348.36 329.68 348.36 331.59C348.36 333.5 349.31 334.72 350.64 334.72C351.97 334.72 352.92 333.5 352.92 331.59C352.92 329.68 351.97 328.46 350.64 328.46ZM350.64 329.2C351.51 329.2 352.13 330.14 352.13 331.59C352.13 333.05 351.51 333.99 350.64 333.99C349.76 333.99 349.14 333.05 349.14 331.59C349.14 330.14 349.76 329.2 350.64 329.2ZM360.429 329.37H362.539V328.69H357.529V329.37H359.609V330.51C359.609 332.06 358.519 333.75 357.229 334.36L357.709 335.02C358.729 334.5 359.609 333.37 360.019 332.06C360.449 333.29 361.329 334.32 362.369 334.8L362.829 334.14C361.509 333.58 360.429 332.03 360.429 330.51V329.37ZM363.749 327.78V336.74H364.569V327.78H363.749ZM377.029 332.21H375.699C375.949 330.92 375.949 329.97 375.949 329.13V328.35H369.929V329.01H375.149V329.13C375.149 329.97 375.149 330.92 374.869 332.21H368.919V332.88H372.539V336.75H373.369V332.88H377.029V332.21ZM383.148 330.16V330.83H384.658V332.04H383.148V332.71H384.658V334.61H385.488V327.78H384.658V330.16H383.148ZM383.148 328.87H381.088V327.76H380.268V328.87H378.128V329.53H383.148V328.87ZM379.418 331.73C379.418 331.1 379.928 330.67 380.668 330.67C381.408 330.67 381.918 331.1 381.918 331.73C381.918 332.37 381.408 332.81 380.668 332.81C379.928 332.81 379.418 332.37 379.418 331.73ZM382.698 331.73C382.698 330.71 381.858 330.03 380.668 330.03C379.478 330.03 378.638 330.71 378.638 331.73C378.638 332.76 379.478 333.45 380.668 333.45C381.858 333.45 382.698 332.76 382.698 331.73ZM380.548 335.87V334.03H379.728V336.54H385.698V335.87H380.548Z" fill="black"/>
<path d="M411.166 46H410.258V39.9795L408.437 40.6484V39.8281L411.024 38.8564H411.166V46ZM416.024 45.3604C416.347 45.3604 416.628 45.2627 416.869 45.0674C417.11 44.8721 417.243 44.6279 417.27 44.335H418.124C418.108 44.6377 418.004 44.9258 417.812 45.1992C417.619 45.4727 417.362 45.6908 417.04 45.8535C416.721 46.0163 416.382 46.0977 416.024 46.0977C415.305 46.0977 414.732 45.8584 414.306 45.3799C413.882 44.8981 413.671 44.2406 413.671 43.4072V43.2559C413.671 42.7415 413.765 42.2842 413.954 41.8838C414.143 41.4834 414.413 41.1725 414.765 40.9512C415.119 40.7298 415.538 40.6191 416.02 40.6191C416.612 40.6191 417.104 40.7965 417.494 41.1514C417.888 41.5062 418.098 41.9668 418.124 42.5332H417.27C417.243 42.1914 417.113 41.9115 416.879 41.6934C416.648 41.472 416.361 41.3613 416.02 41.3613C415.561 41.3613 415.204 41.5273 414.95 41.8594C414.7 42.1882 414.574 42.665 414.574 43.29V43.4609C414.574 44.0697 414.7 44.5384 414.95 44.8672C415.201 45.196 415.559 45.3604 416.024 45.3604ZM419.584 46V41.415H418.749V40.7168H419.584V40.1748C419.584 39.6084 419.735 39.1706 420.038 38.8613C420.341 38.5521 420.769 38.3975 421.322 38.3975C421.531 38.3975 421.737 38.4251 421.942 38.4805L421.894 39.2129C421.741 39.1836 421.578 39.1689 421.405 39.1689C421.112 39.1689 420.886 39.2552 420.727 39.4277C420.567 39.597 420.487 39.8411 420.487 40.1602V40.7168H421.615V41.415H420.487V46H419.584ZM427.182 46H422.523V45.3506L424.984 42.6162C425.349 42.2028 425.6 41.8675 425.736 41.6104C425.876 41.3499 425.946 41.0814 425.946 40.8047C425.946 40.4336 425.834 40.1292 425.609 39.8916C425.385 39.654 425.085 39.5352 424.711 39.5352C424.262 39.5352 423.912 39.6637 423.661 39.9209C423.414 40.1748 423.29 40.5296 423.29 40.9854H422.387C422.387 40.3311 422.597 39.8021 423.017 39.3984C423.44 38.9948 424.005 38.793 424.711 38.793C425.372 38.793 425.894 38.9671 426.278 39.3154C426.662 39.6605 426.854 40.1211 426.854 40.6973C426.854 41.3971 426.409 42.2305 425.517 43.1973L423.612 45.2627H427.182V46ZM431.952 43.6123H432.938V44.3496H431.952V46H431.044V44.3496H427.807V43.8174L430.99 38.8906H431.952V43.6123ZM428.832 43.6123H431.044V40.126L430.937 40.3213L428.832 43.6123ZM438.344 39.3984L435.399 46H434.452L437.387 39.6328H433.539V38.8906H438.344V39.3984ZM443.935 43.417C443.935 44.2243 443.749 44.8737 443.378 45.3652C443.007 45.8535 442.509 46.0977 441.884 46.0977C441.216 46.0977 440.701 45.8617 440.336 45.3896L440.292 46H439.462V38.5H440.365V41.2979C440.73 40.8454 441.233 40.6191 441.874 40.6191C442.515 40.6191 443.018 40.8617 443.383 41.3467C443.751 41.8317 443.935 42.4958 443.935 43.3389V43.417ZM443.031 43.3145C443.031 42.6992 442.912 42.224 442.675 41.8887C442.437 41.5534 442.095 41.3857 441.649 41.3857C441.054 41.3857 440.626 41.6624 440.365 42.2158V44.501C440.642 45.0544 441.073 45.3311 441.659 45.3311C442.092 45.3311 442.429 45.1634 442.67 44.8281C442.911 44.4928 443.031 43.9883 443.031 43.3145ZM388.343 50.87H386.033V49.77H385.213V50.87H382.893V51.53H388.343V50.87ZM384.243 53.7C384.243 53.07 384.803 52.67 385.623 52.67C386.433 52.67 386.993 53.07 386.993 53.7C386.993 54.32 386.433 54.72 385.623 54.72C384.803 54.72 384.243 54.32 384.243 53.7ZM386.033 55.34C387.093 55.21 387.773 54.59 387.773 53.7C387.773 52.69 386.903 52.04 385.623 52.04C384.343 52.04 383.463 52.69 383.463 53.7C383.463 54.6 384.153 55.22 385.213 55.35V56.31C384.323 56.34 383.463 56.35 382.703 56.35L382.823 57.04C384.473 57.04 386.633 57.01 388.633 56.68L388.573 56.07C387.753 56.18 386.883 56.24 386.033 56.28V55.34ZM389.143 49.77V58.74H389.963V49.77H389.143ZM396.552 55.07V55.68H398.372V56.6H399.192V49.77H398.372V55.07H396.552ZM394.722 50.74C395.572 50.74 396.152 51.12 396.152 51.69C396.152 52.27 395.572 52.65 394.722 52.65C393.872 52.65 393.292 52.27 393.292 51.69C393.292 51.12 393.872 50.74 394.722 50.74ZM394.722 53.26C396.032 53.26 396.932 52.65 396.932 51.69C396.932 50.75 396.032 50.13 394.722 50.13C393.412 50.13 392.512 50.75 392.512 51.69C392.512 52.65 393.412 53.26 394.722 53.26ZM394.402 56.28H395.222V54.51C396.032 54.46 396.862 54.37 397.652 54.25L397.582 53.66C395.682 53.9 393.462 53.92 391.802 53.92L391.912 54.6C392.652 54.6 393.512 54.59 394.402 54.55V56.28ZM393.902 57.87V55.93H393.082V58.54H399.422V57.87H393.902ZM401.531 50.73V51.41H404.821C404.631 53.53 403.401 55.25 401.111 56.4L401.561 57.04C404.461 55.59 405.631 53.28 405.631 50.73H401.531ZM409.391 53.41H407.951V49.77H407.131V58.74H407.951V54.09H409.391V53.41ZM416.791 49.78V54.59H417.611V49.78H416.791ZM411.831 55.03V58.62H417.611V55.03H416.801V56.13H412.641V55.03H411.831ZM412.641 56.77H416.801V57.96H412.641V56.77ZM412.791 50.2C411.441 50.2 410.461 51.04 410.461 52.26C410.461 53.5 411.441 54.33 412.791 54.33C414.151 54.33 415.141 53.5 415.141 52.26C415.141 51.04 414.151 50.2 412.791 50.2ZM412.791 50.88C413.701 50.88 414.341 51.45 414.341 52.26C414.341 53.08 413.701 53.65 412.791 53.65C411.901 53.65 411.261 53.08 411.261 52.26C411.261 51.45 411.901 50.88 412.791 50.88ZM423.5 51.57H424.62V55.78C424.24 55.8 423.87 55.81 423.5 55.82V51.57ZM425.37 51.57H426.11V50.91H422.01V51.57H422.75V55.84C422.41 55.85 422.11 55.85 421.84 55.85L421.92 56.53C423.09 56.53 424.97 56.49 426.36 56.23L426.31 55.63C426.02 55.67 425.69 55.7 425.37 55.73V51.57ZM427.07 53.19H425.84V53.91H427.07V58.27H427.84V49.99H427.07V53.19ZM428.8 49.78V58.74H429.59V49.78H428.8ZM437.65 49.77V58.76H438.47V49.77H437.65ZM433.74 50.46C432.41 50.46 431.46 51.68 431.46 53.59C431.46 55.5 432.41 56.72 433.74 56.72C435.07 56.72 436.02 55.5 436.02 53.59C436.02 51.68 435.07 50.46 433.74 50.46ZM433.74 51.2C434.61 51.2 435.23 52.14 435.23 53.59C435.23 55.05 434.61 55.99 433.74 55.99C432.86 55.99 432.24 55.05 432.24 53.59C432.24 52.14 432.86 51.2 433.74 51.2ZM443.529 51.37H445.639V50.69H440.629V51.37H442.709V52.51C442.709 54.06 441.619 55.75 440.329 56.36L440.809 57.02C441.829 56.5 442.709 55.37 443.119 54.06C443.549 55.29 444.429 56.32 445.469 56.8L445.929 56.14C444.609 55.58 443.529 54.03 443.529 52.51V51.37ZM446.849 49.78V58.74H447.669V49.78H446.849ZM460.129 54.21H458.799C459.049 52.92 459.049 51.97 459.049 51.13V50.35H453.029V51.01H458.249V51.13C458.249 51.97 458.249 52.92 457.969 54.21H452.019V54.88H455.639V58.75H456.469V54.88H460.129V54.21ZM466.248 52.16V52.83H467.758V54.04H466.248V54.71H467.758V56.61H468.588V49.78H467.758V52.16H466.248ZM466.248 50.87H464.188V49.76H463.368V50.87H461.228V51.53H466.248V50.87ZM462.518 53.73C462.518 53.1 463.028 52.67 463.768 52.67C464.508 52.67 465.018 53.1 465.018 53.73C465.018 54.37 464.508 54.81 463.768 54.81C463.028 54.81 462.518 54.37 462.518 53.73ZM465.798 53.73C465.798 52.71 464.958 52.03 463.768 52.03C462.578 52.03 461.738 52.71 461.738 53.73C461.738 54.76 462.578 55.45 463.768 55.45C464.958 55.45 465.798 54.76 465.798 53.73ZM463.648 57.87V56.03H462.828V58.54H468.798V57.87H463.648Z" fill="black"/>
<path d="M519.621 333.73C521.101 333.57 522.401 333.04 522.951 332.16C523.491 333.04 524.801 333.57 526.281 333.73L526.531 333.09C524.851 332.95 523.491 332.27 523.401 331.3H526.171V330.65H523.361V329.74H522.541V330.65H519.731V331.3H522.491C522.401 332.27 521.041 332.95 519.371 333.09L519.621 333.73ZM525.181 337.24C525.181 337.8 524.361 338.11 522.941 338.11C521.521 338.11 520.701 337.8 520.701 337.24C520.701 336.69 521.521 336.37 522.941 336.37C524.361 336.37 525.181 336.69 525.181 337.24ZM527.001 334.86V334.2H518.891V334.86H522.541V335.76C520.851 335.83 519.871 336.35 519.871 337.24C519.871 338.21 521.011 338.73 522.951 338.73C524.871 338.73 526.011 338.21 526.011 337.24C526.011 336.35 525.031 335.83 523.351 335.76V334.86H527.001ZM529.891 337.1H535.161V335.08H529.061V335.71H534.351V336.5H529.091V338.63H535.431V338H529.891V337.1ZM532.561 333.67V332.82H535.241V332.16H529.991V330.77H535.151V330.11H529.171V332.82H531.741V333.67H528.081V334.33H536.201V333.67H532.561ZM541.99 335.98C541.29 335.98 540.8 335.41 540.8 334.61C540.8 333.83 541.29 333.26 541.99 333.26C542.68 333.26 543.18 333.83 543.18 334.61C543.18 335.41 542.68 335.98 541.99 335.98ZM541.99 332.57C540.88 332.57 540.07 333.41 540.07 334.61C540.07 335.83 540.88 336.66 541.99 336.66C543.1 336.66 543.91 335.83 543.91 334.61C543.91 333.41 543.1 332.57 541.99 332.57ZM542.39 330.03H541.58V331.3H539.76V331.97H544.21V331.3H542.39V330.03ZM546.58 329.76V333.55H545.43V329.97H544.66V338.3H545.43V334.22H546.58V338.73H547.37V329.76H546.58ZM555.529 331.71V332.78H553.189V333.42H555.529V334.35H556.359V329.77H555.529V331.07H553.499C553.559 330.79 553.589 330.51 553.589 330.21H549.579V330.88H552.699C552.549 332.3 551.299 333.37 549.109 333.88L549.409 334.55C551.389 334.08 552.759 333.12 553.319 331.71H555.529ZM551.409 338V336.96H556.359V334.76H550.579V335.42H555.539V336.34H550.599V338.65H556.659V338H551.409Z" fill="#19B500"/>
<path d="M347.262 348C344.985 338.652 356.62 317.945 420 319.042" stroke="#4000C7"/>
<path d="M505.738 348C508.015 338.652 496.38 317.945 433 319.042" stroke="#4000C7"/>
<rect x="524.031" y="367.209" width="18" height="41" rx="5" transform="rotate(-64.2277 524.031 367.209)" fill="black"/>
<rect x="287.031" y="211.209" width="18" height="41" rx="5" transform="rotate(-64.2277 287.031 211.209)" fill="black"/>
<rect x="448.031" y="89.209" width="18" height="41" rx="5" transform="rotate(-64.2277 448.031 89.209)" fill="black"/>
<path d="M520.739 355.626L529.675 356.094L526.662 362.333L520.739 355.626Z" fill="black"/>
<path d="M283.739 199.626L292.675 200.094L289.662 206.333L283.739 199.626Z" fill="black"/>
<path d="M444.739 77.6264L453.675 78.0939L450.662 84.333L444.739 77.6264Z" fill="black"/>
<path d="M537.791 361.219L537.535 361.811C538.137 361.545 538.764 361.569 539.415 361.884C540.147 362.237 540.51 362.758 540.503 363.447C540.799 363.279 541.122 363.185 541.475 363.164C541.83 363.145 542.198 363.227 542.578 363.411C543.726 363.965 544.016 364.855 543.449 366.08L541.756 369.586L540.861 369.154L542.528 365.701C542.709 365.327 542.758 365.007 542.676 364.74C542.595 364.471 542.353 364.239 541.95 364.044C541.618 363.884 541.294 363.851 540.978 363.945C540.664 364.036 540.408 364.24 540.211 364.558L538.534 368.031L537.635 367.597L539.29 364.167C539.658 363.406 539.469 362.846 538.724 362.487C538.137 362.203 537.615 362.259 537.158 362.655L535.313 366.476L534.418 366.044L536.945 360.81L537.791 361.219ZM546.341 371.8C546.339 371.672 546.386 371.468 546.481 371.188C545.857 371.419 545.256 371.396 544.679 371.117C544.163 370.868 543.809 370.518 543.617 370.068C543.43 369.615 543.444 369.165 543.661 368.717C543.924 368.172 544.334 367.849 544.892 367.749C545.454 367.646 546.111 367.777 546.862 368.139L547.733 368.56L547.931 368.149C548.082 367.836 548.108 367.542 548.01 367.268C547.913 366.991 547.683 366.764 547.319 366.588C546.999 366.434 546.693 366.386 546.399 366.443C546.105 366.499 545.903 366.642 545.792 366.871L544.893 366.437C545.019 366.176 545.232 365.969 545.533 365.816C545.838 365.661 546.183 365.589 546.567 365.599C546.955 365.612 547.339 365.71 547.72 365.893C548.323 366.184 548.722 366.564 548.917 367.032C549.114 367.497 549.092 367.997 548.849 368.532L547.686 370.941C547.454 371.421 547.331 371.833 547.317 372.176L547.279 372.253L546.341 371.8ZM545.185 370.401C545.466 370.537 545.767 370.593 546.088 370.569C546.41 370.545 546.683 370.445 546.908 370.267L547.427 369.193L546.725 368.855C545.629 368.325 544.926 368.381 544.616 369.023C544.481 369.304 544.468 369.568 544.579 369.816C544.69 370.065 544.892 370.26 545.185 370.401ZM549.47 373.311L548.576 372.879L551.102 367.646L551.997 368.078L549.47 373.311ZM551.7 366.223C551.77 366.078 551.873 365.976 552.008 365.918C552.147 365.862 552.303 365.876 552.477 365.96C552.651 366.044 552.759 366.158 552.801 366.301C552.843 366.445 552.829 366.589 552.759 366.734C552.689 366.879 552.586 366.978 552.449 367.031C552.312 367.085 552.156 367.069 551.982 366.985C551.808 366.901 551.699 366.789 551.655 366.648C551.615 366.51 551.63 366.368 551.7 366.223ZM554.28 369.18L553.992 369.852C554.634 369.542 555.278 369.543 555.923 369.854C557.029 370.388 557.286 371.281 556.693 372.534L555.023 375.992L554.128 375.56L555.8 372.097C555.979 371.718 556.027 371.397 555.943 371.134C555.863 370.873 555.643 370.655 555.285 370.483C554.995 370.343 554.703 370.297 554.409 370.346C554.115 370.395 553.846 370.515 553.602 370.708L551.802 374.437L550.907 374.005L553.434 368.771L554.28 369.18Z" fill="white"/>
<path d="M300.791 205.219L300.535 205.811C301.137 205.545 301.764 205.569 302.415 205.884C303.147 206.237 303.51 206.758 303.503 207.447C303.799 207.279 304.122 207.185 304.475 207.164C304.83 207.145 305.198 207.227 305.578 207.411C306.726 207.965 307.016 208.855 306.449 210.08L304.756 213.586L303.861 213.154L305.528 209.701C305.709 209.327 305.758 209.007 305.676 208.74C305.595 208.471 305.353 208.239 304.95 208.044C304.618 207.884 304.294 207.851 303.978 207.945C303.664 208.036 303.408 208.24 303.211 208.558L301.534 212.031L300.635 211.597L302.29 208.167C302.658 207.406 302.469 206.846 301.724 206.487C301.137 206.203 300.615 206.259 300.158 206.655L298.313 210.476L297.418 210.044L299.945 204.81L300.791 205.219ZM309.341 215.8C309.339 215.672 309.386 215.468 309.481 215.188C308.857 215.419 308.256 215.396 307.679 215.117C307.163 214.868 306.809 214.518 306.617 214.068C306.43 213.615 306.444 213.165 306.661 212.717C306.924 212.172 307.334 211.849 307.892 211.749C308.454 211.646 309.111 211.777 309.862 212.139L310.733 212.56L310.931 212.149C311.082 211.836 311.108 211.542 311.01 211.268C310.913 210.991 310.683 210.764 310.319 210.588C309.999 210.434 309.693 210.386 309.399 210.443C309.105 210.499 308.903 210.642 308.792 210.871L307.893 210.437C308.019 210.176 308.232 209.969 308.533 209.816C308.838 209.661 309.183 209.589 309.567 209.599C309.955 209.612 310.339 209.71 310.72 209.893C311.323 210.184 311.722 210.564 311.917 211.032C312.114 211.497 312.092 211.997 311.849 212.532L310.686 214.941C310.454 215.421 310.331 215.833 310.317 216.176L310.279 216.253L309.341 215.8ZM308.185 214.401C308.466 214.537 308.767 214.593 309.088 214.569C309.41 214.545 309.683 214.445 309.908 214.267L310.427 213.193L309.725 212.855C308.629 212.325 307.926 212.381 307.616 213.023C307.481 213.304 307.468 213.568 307.579 213.816C307.69 214.065 307.892 214.26 308.185 214.401ZM312.47 217.311L311.576 216.879L314.102 211.646L314.997 212.078L312.47 217.311ZM314.7 210.223C314.77 210.078 314.873 209.976 315.008 209.918C315.147 209.862 315.303 209.876 315.477 209.96C315.651 210.044 315.759 210.158 315.801 210.301C315.843 210.445 315.829 210.589 315.759 210.734C315.689 210.879 315.586 210.978 315.449 211.031C315.312 211.085 315.156 211.069 314.982 210.985C314.808 210.901 314.699 210.789 314.655 210.648C314.615 210.51 314.63 210.368 314.7 210.223ZM317.28 213.18L316.992 213.852C317.634 213.542 318.278 213.543 318.923 213.854C320.029 214.388 320.286 215.281 319.693 216.534L318.023 219.992L317.128 219.56L318.8 216.097C318.979 215.718 319.027 215.397 318.943 215.134C318.863 214.873 318.643 214.655 318.285 214.483C317.995 214.343 317.703 214.297 317.409 214.346C317.115 214.395 316.846 214.515 316.602 214.708L314.802 218.437L313.907 218.005L316.434 212.771L317.28 213.18Z" fill="white"/>
<path d="M461.791 83.219L461.535 83.8111C462.137 83.5449 462.764 83.5691 463.415 83.8836C464.147 84.237 464.51 84.7581 464.503 85.4468C464.799 85.2794 465.122 85.1852 465.475 85.1643C465.83 85.145 466.198 85.2272 466.578 85.4109C467.726 85.9651 468.016 86.8548 467.449 88.0798L465.756 91.5865L464.861 91.1544L466.528 87.7009C466.709 87.3269 466.758 87.0067 466.676 86.7404C466.595 86.4708 466.353 86.2388 465.95 86.0442C465.618 85.8838 465.294 85.8507 464.978 85.9447C464.664 86.0355 464.408 86.2401 464.211 86.5583L462.534 90.0311L461.635 89.5968L463.29 86.1675C463.658 85.4065 463.469 84.8461 462.724 84.4865C462.137 84.2031 461.615 84.2592 461.158 84.6547L459.313 88.4758L458.418 88.0438L460.945 82.8103L461.791 83.219ZM470.341 93.8003C470.339 93.6723 470.386 93.4682 470.481 93.1882C469.857 93.4195 469.256 93.3958 468.679 93.1171C468.163 92.868 467.809 92.5181 467.617 92.0676C467.43 91.6153 467.444 91.1651 467.661 90.7169C467.924 90.172 468.334 89.8492 468.892 89.7486C469.454 89.6463 470.111 89.7766 470.862 90.1393L471.733 90.5597L471.931 90.1485C472.082 89.8358 472.108 89.5423 472.01 89.2682C471.913 88.9909 471.683 88.7643 471.319 88.5883C470.999 88.4342 470.693 88.3856 470.399 88.4425C470.105 88.4994 469.903 88.6424 469.792 88.8713L468.893 88.4369C469.019 88.1757 469.232 87.9686 469.533 87.8155C469.838 87.6607 470.183 87.5887 470.567 87.5994C470.955 87.6116 471.339 87.7096 471.72 87.8933C472.323 88.1845 472.722 88.5641 472.917 89.0323C473.114 89.4972 473.092 89.9971 472.849 90.5322L471.686 92.9409C471.454 93.4214 471.331 93.8331 471.317 94.176L471.279 94.2534L470.341 93.8003ZM469.185 92.4014C469.466 92.5369 469.767 92.5927 470.088 92.5691C470.41 92.5454 470.683 92.4447 470.908 92.2671L471.427 91.1933L470.725 90.8547C469.629 90.3253 468.926 90.3815 468.616 91.0232C468.481 91.3037 468.468 91.5681 468.579 91.8164C468.69 92.0647 468.892 92.2597 469.185 92.4014ZM473.47 95.3113L472.576 94.8793L475.102 89.6458L475.997 90.0779L473.47 95.3113ZM475.7 88.2226C475.77 88.0775 475.873 87.976 476.008 87.9181C476.147 87.8617 476.303 87.8756 476.477 87.9596C476.651 88.0437 476.759 88.1575 476.801 88.3011C476.843 88.4446 476.829 88.589 476.759 88.7341C476.689 88.8792 476.586 88.9783 476.449 89.0314C476.312 89.0846 476.156 89.0691 475.982 88.985C475.808 88.901 475.699 88.7888 475.655 88.6484C475.615 88.5097 475.63 88.3677 475.7 88.2226ZM478.28 91.1801L477.992 91.852C478.634 91.542 479.278 91.5427 479.923 91.8541C481.029 92.3881 481.286 93.2814 480.693 94.5339L479.023 97.9923L478.128 97.5602L479.8 94.0971C479.979 93.7182 480.027 93.3973 479.943 93.1342C479.863 92.8726 479.643 92.6555 479.285 92.4827C478.995 92.3425 478.703 92.2969 478.409 92.3458C478.115 92.3948 477.846 92.5154 477.602 92.7077L475.802 96.4369L474.907 96.0049L477.434 90.7714L478.28 91.1801Z" fill="white"/>
<circle cx="104.5" cy="350.5" r="9.5" fill="#4000C7"/>
<circle cx="104.5" cy="194.5" r="9.5" fill="#4000C7"/>
<circle cx="104.5" cy="72.5" r="9.5" fill="#4000C7"/>
<circle cx="184.5" cy="350.5" r="9.5" fill="#4000C7"/>
<circle cx="184.5" cy="194.5" r="9.5" fill="#4000C7"/>
<circle cx="184.5" cy="72.5" r="9.5" fill="#4000C7"/>
<circle cx="265.5" cy="350.5" r="9.5" fill="#4000C7"/>
<circle cx="265.5" cy="194.5" r="9.5" fill="#4000C7"/>
<circle cx="346.5" cy="350.5" r="9.5" fill="#4000C7"/>
<circle cx="505.5" cy="350.5" r="9" fill="white" stroke="#4000C7" stroke-dasharray="2 2"/>
<circle cx="426.5" cy="318.5" r="9.5" fill="#4000C7"/>
<circle cx="265.5" cy="72.5" r="9.5" fill="#4000C7"/>
<circle cx="347.5" cy="72.5" r="9.5" fill="#4000C7"/>
<circle cx="426.5" cy="72.5" r="9.5" fill="#4000C7"/>
<line x1="98" y1="350.5" x2="496" y2="350.5" stroke="#4000C7"/>
<line x1="108" y1="194.5" x2="261" y2="194.5" stroke="#4000C7"/>
<line x1="108" y1="72.5" x2="427" y2="72.5" stroke="#4000C7"/>
<path d="M488.665 461H487.762V453.5H488.665V461ZM489.876 458.31C489.876 457.792 489.977 457.326 490.179 456.913C490.384 456.5 490.667 456.181 491.028 455.956C491.393 455.731 491.808 455.619 492.273 455.619C492.993 455.619 493.574 455.868 494.017 456.366C494.463 456.864 494.686 457.527 494.686 458.354V458.417C494.686 458.931 494.586 459.394 494.388 459.804C494.192 460.211 493.911 460.528 493.543 460.756C493.178 460.984 492.758 461.098 492.283 461.098C491.567 461.098 490.986 460.849 490.54 460.351C490.097 459.853 489.876 459.193 489.876 458.373V458.31ZM490.784 458.417C490.784 459.003 490.919 459.473 491.189 459.828C491.463 460.183 491.827 460.36 492.283 460.36C492.742 460.36 493.107 460.181 493.377 459.823C493.647 459.462 493.782 458.957 493.782 458.31C493.782 457.73 493.644 457.261 493.367 456.903C493.094 456.542 492.729 456.361 492.273 456.361C491.827 456.361 491.468 456.539 491.194 456.894C490.921 457.248 490.784 457.756 490.784 458.417ZM495.604 458.314C495.604 457.491 495.794 456.837 496.175 456.352C496.556 455.863 497.06 455.619 497.688 455.619C498.333 455.619 498.836 455.847 499.197 456.303L499.241 455.717H500.066V460.873C500.066 461.557 499.863 462.095 499.456 462.489C499.052 462.883 498.509 463.08 497.825 463.08C497.444 463.08 497.072 462.999 496.707 462.836C496.342 462.673 496.064 462.45 495.872 462.167L496.341 461.625C496.728 462.104 497.202 462.343 497.762 462.343C498.201 462.343 498.543 462.219 498.787 461.972C499.035 461.724 499.158 461.376 499.158 460.927V460.473C498.797 460.889 498.304 461.098 497.679 461.098C497.06 461.098 496.559 460.849 496.175 460.351C495.794 459.853 495.604 459.174 495.604 458.314ZM496.512 458.417C496.512 459.013 496.634 459.481 496.878 459.823C497.122 460.162 497.464 460.331 497.903 460.331C498.473 460.331 498.891 460.072 499.158 459.555V457.143C498.882 456.638 498.466 456.386 497.913 456.386C497.474 456.386 497.13 456.557 496.883 456.898C496.635 457.24 496.512 457.746 496.512 458.417ZM502.415 461H501.512V455.717H502.415V461ZM501.438 454.315C501.438 454.169 501.482 454.045 501.57 453.944C501.661 453.843 501.795 453.793 501.971 453.793C502.146 453.793 502.28 453.843 502.371 453.944C502.462 454.045 502.508 454.169 502.508 454.315C502.508 454.462 502.462 454.584 502.371 454.682C502.28 454.779 502.146 454.828 501.971 454.828C501.795 454.828 501.661 454.779 501.57 454.682C501.482 454.584 501.438 454.462 501.438 454.315ZM504.72 455.717L504.749 456.381C505.153 455.873 505.68 455.619 506.331 455.619C507.448 455.619 508.011 456.249 508.021 457.509V461H507.117V457.504C507.114 457.123 507.026 456.841 506.854 456.659C506.684 456.477 506.419 456.386 506.058 456.386C505.765 456.386 505.507 456.464 505.286 456.62C505.065 456.776 504.892 456.981 504.769 457.235V461H503.865V455.717H504.72ZM509.402 460.526C509.402 460.37 509.448 460.24 509.539 460.136C509.633 460.032 509.773 459.979 509.959 459.979C510.145 459.979 510.285 460.032 510.379 460.136C510.477 460.24 510.525 460.37 510.525 460.526C510.525 460.676 510.477 460.801 510.379 460.902C510.285 461.003 510.145 461.054 509.959 461.054C509.773 461.054 509.633 461.003 509.539 460.902C509.448 460.801 509.402 460.676 509.402 460.526ZM512.952 455.717V461.61C512.952 462.626 512.492 463.134 511.57 463.134C511.372 463.134 511.188 463.104 511.019 463.046V462.323C511.123 462.349 511.259 462.362 511.429 462.362C511.631 462.362 511.784 462.307 511.888 462.196C511.995 462.089 512.049 461.9 512.049 461.63V455.717H512.952ZM511.956 454.315C511.956 454.172 512 454.05 512.088 453.949C512.179 453.845 512.311 453.793 512.483 453.793C512.659 453.793 512.793 453.843 512.884 453.944C512.975 454.045 513.021 454.169 513.021 454.315C513.021 454.462 512.975 454.584 512.884 454.682C512.793 454.779 512.659 454.828 512.483 454.828C512.308 454.828 512.176 454.779 512.088 454.682C512 454.584 511.956 454.462 511.956 454.315ZM517.488 459.599C517.488 459.354 517.396 459.166 517.21 459.032C517.028 458.896 516.707 458.778 516.248 458.681C515.792 458.583 515.429 458.466 515.159 458.329C514.892 458.192 514.694 458.03 514.563 457.841C514.437 457.652 514.373 457.427 514.373 457.167C514.373 456.734 514.555 456.368 514.92 456.068C515.288 455.769 515.757 455.619 516.326 455.619C516.925 455.619 517.41 455.774 517.781 456.083C518.156 456.392 518.343 456.788 518.343 457.27H517.435C517.435 457.022 517.329 456.809 517.117 456.63C516.909 456.451 516.645 456.361 516.326 456.361C515.997 456.361 515.74 456.433 515.555 456.576C515.369 456.719 515.276 456.907 515.276 457.138C515.276 457.356 515.363 457.52 515.535 457.631C515.708 457.742 516.019 457.847 516.468 457.948C516.92 458.049 517.286 458.17 517.566 458.31C517.846 458.45 518.053 458.619 518.187 458.817C518.323 459.013 518.392 459.252 518.392 459.535C518.392 460.007 518.203 460.386 517.825 460.673C517.448 460.956 516.958 461.098 516.355 461.098C515.932 461.098 515.558 461.023 515.232 460.873C514.907 460.723 514.651 460.515 514.466 460.248C514.284 459.978 514.192 459.687 514.192 459.374H515.096C515.112 459.677 515.232 459.918 515.457 460.097C515.685 460.272 515.984 460.36 516.355 460.36C516.697 460.36 516.971 460.292 517.176 460.155C517.384 460.015 517.488 459.83 517.488 459.599Z" fill="#4000C7"/>
<path d="M513.746 431.016L507.938 425.252C507.776 425.091 507.558 425 507.328 425H495.864C495.386 425 495 425.383 495 425.857V448.143C495 448.617 495.386 449 495.864 449H513.136C513.614 449 514 448.617 514 448.143V431.624C514 431.396 513.908 431.177 513.746 431.016ZM512.008 432.018H506.929V426.977L512.008 432.018ZM512.057 447.071H496.943V426.929H505.094V432.714C505.094 433.013 505.213 433.299 505.426 433.51C505.638 433.721 505.927 433.839 506.227 433.839H512.057V447.071ZM504.284 439.839H499.318C499.199 439.839 499.102 439.936 499.102 440.054V441.339C499.102 441.457 499.199 441.554 499.318 441.554H504.284C504.403 441.554 504.5 441.457 504.5 441.339V440.054C504.5 439.936 504.403 439.839 504.284 439.839ZM499.102 436.411V437.696C499.102 437.814 499.199 437.911 499.318 437.911H509.682C509.801 437.911 509.898 437.814 509.898 437.696V436.411C509.898 436.293 509.801 436.196 509.682 436.196H499.318C499.199 436.196 499.102 436.293 499.102 436.411Z" fill="#4000C7"/>
<path d="M426.646 300.354C426.842 300.549 427.158 300.549 427.354 300.354L430.536 297.172C430.731 296.976 430.731 296.66 430.536 296.464C430.34 296.269 430.024 296.269 429.828 296.464L427 299.293L424.172 296.464C423.976 296.269 423.66 296.269 423.464 296.464C423.269 296.66 423.269 296.976 423.464 297.172L426.646 300.354ZM426.5 77L426.5 300L427.5 300L427.5 77L426.5 77Z" fill="#4000C7"/>
<path d="M504.646 415.354C504.842 415.549 505.158 415.549 505.354 415.354L508.536 412.172C508.731 411.976 508.731 411.66 508.536 411.464C508.34 411.269 508.024 411.269 507.828 411.464L505 414.293L502.172 411.464C501.976 411.269 501.66 411.269 501.464 411.464C501.269 411.66 501.269 411.976 501.464 412.172L504.646 415.354ZM504.5 360L504.5 415L505.5 415L505.5 360L504.5 360Z" fill="#4000C7"/>
</svg>
