<svg width="1152" height="587" viewBox="0 0 1152 587" fill="none" xmlns="http://www.w3.org/2000/svg">
<path d="M0 0H1152V587H0V0Z" fill="white" fill-opacity="0.01"/>
<circle cx="305.5" cy="186.5" r="9.5" fill="#4000C7"/>
<rect x="322.031" y="203.209" width="18" height="41" rx="5" transform="rotate(-64.2277 322.031 203.209)" fill="black"/>
<path d="M318.739 191.627L327.456 191.988L324.443 198.227L318.739 191.627Z" fill="black"/>
<path d="M335.791 197.219L335.535 197.811C336.137 197.545 336.764 197.569 337.415 197.884C338.147 198.237 338.51 198.758 338.503 199.447C338.799 199.28 339.122 199.185 339.475 199.165C339.83 199.145 340.198 199.227 340.578 199.411C341.726 199.965 342.016 200.855 341.449 202.08L339.756 205.587L338.861 205.155L340.528 201.701C340.709 201.327 340.758 201.007 340.676 200.741C340.595 200.471 340.353 200.239 339.95 200.044C339.618 199.884 339.294 199.851 338.978 199.945C338.664 200.036 338.408 200.24 338.211 200.559L336.534 204.031L335.635 203.597L337.29 200.168C337.658 199.407 337.469 198.846 336.724 198.487C336.137 198.203 335.615 198.259 335.158 198.655L333.313 202.476L332.418 202.044L334.945 196.811L335.791 197.219ZM344.341 207.801C344.339 207.672 344.386 207.468 344.481 207.188C343.857 207.42 343.256 207.396 342.679 207.117C342.163 206.868 341.809 206.518 341.617 206.068C341.43 205.616 341.444 205.165 341.661 204.717C341.924 204.172 342.334 203.849 342.892 203.749C343.454 203.647 344.111 203.777 344.862 204.14L345.733 204.56L345.931 204.149C346.082 203.836 346.108 203.543 346.01 203.268C345.913 202.991 345.683 202.765 345.319 202.589C344.999 202.434 344.693 202.386 344.399 202.443C344.105 202.5 343.903 202.643 343.792 202.872L342.893 202.437C343.019 202.176 343.232 201.969 343.533 201.816C343.838 201.661 344.183 201.589 344.567 201.6C344.955 201.612 345.339 201.71 345.72 201.894C346.323 202.185 346.722 202.564 346.917 203.032C347.114 203.497 347.092 203.997 346.849 204.532L345.686 206.941C345.454 207.422 345.331 207.833 345.317 208.176L345.279 208.254L344.341 207.801ZM343.185 206.402C343.466 206.537 343.767 206.593 344.088 206.569C344.41 206.546 344.683 206.445 344.908 206.267L345.427 205.194L344.725 204.855C343.629 204.326 342.926 204.382 342.616 205.023C342.481 205.304 342.468 205.568 342.579 205.817C342.69 206.065 342.892 206.26 343.185 206.402ZM347.47 209.312L346.576 208.88L349.102 203.646L349.997 204.078L347.47 209.312ZM349.7 202.223C349.77 202.078 349.873 201.976 350.008 201.918C350.147 201.862 350.303 201.876 350.477 201.96C350.651 202.044 350.759 202.158 350.801 202.301C350.843 202.445 350.829 202.589 350.759 202.734C350.689 202.879 350.586 202.979 350.449 203.032C350.312 203.085 350.156 203.069 349.982 202.985C349.808 202.901 349.699 202.789 349.655 202.649C349.615 202.51 349.63 202.368 349.7 202.223ZM352.28 205.18L351.992 205.852C352.634 205.542 353.278 205.543 353.923 205.854C355.029 206.388 355.286 207.282 354.693 208.534L353.023 211.993L352.128 211.56L353.8 208.097C353.979 207.718 354.027 207.398 353.943 207.134C353.863 206.873 353.643 206.656 353.285 206.483C352.995 206.343 352.703 206.297 352.409 206.346C352.115 206.395 351.846 206.516 351.602 206.708L349.802 210.437L348.907 210.005L351.434 204.772L352.28 205.18Z" fill="white"/>
<path d="M292.164 156.436L292.525 152.891H296.168V153.726H293.292L293.077 155.664C293.425 155.459 293.821 155.356 294.264 155.356C294.911 155.356 295.426 155.571 295.807 156.001C296.188 156.427 296.378 157.005 296.378 157.734C296.378 158.467 296.179 159.045 295.782 159.468C295.388 159.888 294.837 160.098 294.127 160.098C293.499 160.098 292.986 159.924 292.589 159.575C292.192 159.227 291.965 158.745 291.91 158.13H292.765C292.82 158.537 292.965 158.844 293.199 159.053C293.434 159.258 293.743 159.36 294.127 159.36C294.547 159.36 294.876 159.217 295.113 158.931C295.354 158.644 295.475 158.249 295.475 157.744C295.475 157.269 295.344 156.888 295.084 156.602C294.827 156.312 294.483 156.167 294.054 156.167C293.66 156.167 293.351 156.253 293.126 156.426L292.887 156.621L292.164 156.436ZM299.576 159.36C299.898 159.36 300.18 159.263 300.421 159.067C300.662 158.872 300.795 158.628 300.821 158.335H301.676C301.66 158.638 301.555 158.926 301.363 159.199C301.171 159.473 300.914 159.691 300.592 159.854C300.273 160.016 299.934 160.098 299.576 160.098C298.857 160.098 298.284 159.858 297.857 159.38C297.434 158.898 297.223 158.241 297.223 157.407V157.256C297.223 156.742 297.317 156.284 297.506 155.884C297.695 155.483 297.965 155.173 298.316 154.951C298.671 154.73 299.09 154.619 299.571 154.619C300.164 154.619 300.655 154.797 301.046 155.151C301.44 155.506 301.65 155.967 301.676 156.533H300.821C300.795 156.191 300.665 155.911 300.431 155.693C300.2 155.472 299.913 155.361 299.571 155.361C299.112 155.361 298.756 155.527 298.502 155.859C298.251 156.188 298.126 156.665 298.126 157.29V157.461C298.126 158.07 298.251 158.538 298.502 158.867C298.753 159.196 299.111 159.36 299.576 159.36ZM304.884 160.098C304.168 160.098 303.585 159.863 303.136 159.395C302.687 158.923 302.462 158.293 302.462 157.505V157.339C302.462 156.815 302.561 156.348 302.76 155.938C302.962 155.524 303.242 155.202 303.6 154.971C303.961 154.736 304.352 154.619 304.771 154.619C305.458 154.619 305.992 154.845 306.373 155.298C306.754 155.75 306.944 156.398 306.944 157.241V157.617H303.365C303.378 158.138 303.53 158.56 303.819 158.882C304.112 159.201 304.483 159.36 304.933 159.36C305.252 159.36 305.522 159.295 305.743 159.165C305.965 159.035 306.158 158.862 306.324 158.647L306.876 159.077C306.433 159.757 305.769 160.098 304.884 160.098ZM304.771 155.361C304.407 155.361 304.101 155.495 303.854 155.762C303.606 156.025 303.453 156.396 303.395 156.875H306.041V156.807C306.015 156.348 305.891 155.993 305.67 155.742C305.449 155.488 305.149 155.361 304.771 155.361ZM308.438 160V155.415H307.604V154.717H308.438V154.175C308.438 153.608 308.59 153.171 308.893 152.861C309.195 152.552 309.623 152.397 310.177 152.397C310.385 152.397 310.592 152.425 310.797 152.48L310.748 153.213C310.595 153.184 310.432 153.169 310.26 153.169C309.967 153.169 309.741 153.255 309.581 153.428C309.422 153.597 309.342 153.841 309.342 154.16V154.717H310.47V155.415H309.342V160H308.438ZM314.732 160C314.68 159.896 314.638 159.71 314.605 159.443C314.186 159.88 313.684 160.098 313.102 160.098C312.581 160.098 312.153 159.951 311.817 159.658C311.485 159.362 311.319 158.988 311.319 158.535C311.319 157.985 311.528 157.559 311.944 157.256C312.364 156.95 312.953 156.797 313.712 156.797H314.591V156.382C314.591 156.066 314.496 155.815 314.308 155.63C314.119 155.441 313.84 155.347 313.473 155.347C313.15 155.347 312.88 155.428 312.662 155.591C312.444 155.754 312.335 155.951 312.335 156.182H311.427C311.427 155.918 311.52 155.664 311.705 155.42C311.894 155.173 312.148 154.977 312.467 154.834C312.789 154.691 313.142 154.619 313.526 154.619C314.135 154.619 314.612 154.772 314.957 155.078C315.302 155.381 315.481 155.799 315.494 156.333V158.765C315.494 159.25 315.556 159.635 315.68 159.922V160H314.732ZM313.233 159.312C313.517 159.312 313.785 159.238 314.039 159.092C314.293 158.945 314.477 158.755 314.591 158.521V157.437H313.883C312.776 157.437 312.223 157.76 312.223 158.408C312.223 158.691 312.317 158.913 312.506 159.072C312.695 159.232 312.937 159.312 313.233 159.312ZM321.476 160H316.817V159.351L319.278 156.616C319.643 156.203 319.894 155.868 320.03 155.61C320.17 155.35 320.24 155.081 320.24 154.805C320.24 154.434 320.128 154.129 319.903 153.892C319.679 153.654 319.379 153.535 319.005 153.535C318.556 153.535 318.206 153.664 317.955 153.921C317.708 154.175 317.584 154.53 317.584 154.985H316.681C316.681 154.331 316.891 153.802 317.311 153.398C317.734 152.995 318.299 152.793 319.005 152.793C319.666 152.793 320.188 152.967 320.572 153.315C320.956 153.66 321.148 154.121 321.148 154.697C321.148 155.397 320.702 156.23 319.811 157.197L317.906 159.263H321.476V160ZM280.704 172H279.801V166.717H280.704V172ZM279.728 165.315C279.728 165.169 279.771 165.045 279.859 164.944C279.951 164.843 280.084 164.793 280.26 164.793C280.436 164.793 280.569 164.843 280.66 164.944C280.751 165.045 280.797 165.169 280.797 165.315C280.797 165.462 280.751 165.584 280.66 165.682C280.569 165.779 280.436 165.828 280.26 165.828C280.084 165.828 279.951 165.779 279.859 165.682C279.771 165.584 279.728 165.462 279.728 165.315ZM283.009 166.717L283.038 167.381C283.442 166.873 283.969 166.619 284.62 166.619C285.737 166.619 286.3 167.249 286.31 168.509V172H285.406V168.504C285.403 168.123 285.315 167.841 285.143 167.659C284.973 167.477 284.708 167.386 284.347 167.386C284.054 167.386 283.797 167.464 283.575 167.62C283.354 167.776 283.181 167.981 283.058 168.235V172H282.154V166.717H283.009ZM287.452 169.314C287.452 168.504 287.644 167.853 288.028 167.361C288.412 166.867 288.915 166.619 289.537 166.619C290.156 166.619 290.646 166.831 291.007 167.254V164.5H291.91V172H291.08L291.036 171.434C290.675 171.876 290.172 172.098 289.527 172.098C288.915 172.098 288.416 171.847 288.028 171.346C287.644 170.844 287.452 170.19 287.452 169.383V169.314ZM288.355 169.417C288.355 170.016 288.479 170.485 288.727 170.823C288.974 171.162 289.316 171.331 289.752 171.331C290.325 171.331 290.743 171.074 291.007 170.56V168.133C290.737 167.635 290.322 167.386 289.762 167.386C289.319 167.386 288.974 167.557 288.727 167.898C288.479 168.24 288.355 168.746 288.355 169.417ZM295.509 172.098C294.793 172.098 294.21 171.863 293.761 171.395C293.312 170.923 293.087 170.293 293.087 169.505V169.339C293.087 168.815 293.186 168.348 293.385 167.938C293.587 167.524 293.867 167.202 294.225 166.971C294.586 166.736 294.977 166.619 295.396 166.619C296.083 166.619 296.617 166.845 296.998 167.298C297.379 167.75 297.569 168.398 297.569 169.241V169.617H293.99C294.003 170.138 294.155 170.56 294.444 170.882C294.737 171.201 295.108 171.36 295.558 171.36C295.877 171.36 296.147 171.295 296.368 171.165C296.59 171.035 296.783 170.862 296.949 170.647L297.501 171.077C297.058 171.757 296.394 172.098 295.509 172.098ZM295.396 167.361C295.032 167.361 294.726 167.495 294.479 167.762C294.231 168.025 294.078 168.396 294.02 168.875H296.666V168.807C296.64 168.348 296.516 167.993 296.295 167.742C296.074 167.488 295.774 167.361 295.396 167.361ZM300.392 168.646L301.563 166.717H302.618L300.89 169.329L302.672 172H301.627L300.406 170.022L299.186 172H298.136L299.918 169.329L298.189 166.717H299.234L300.392 168.646ZM303.6 171.526C303.6 171.37 303.645 171.24 303.736 171.136C303.831 171.032 303.971 170.979 304.156 170.979C304.342 170.979 304.482 171.032 304.576 171.136C304.674 171.24 304.723 171.37 304.723 171.526C304.723 171.676 304.674 171.801 304.576 171.902C304.482 172.003 304.342 172.054 304.156 172.054C303.971 172.054 303.831 172.003 303.736 171.902C303.645 171.801 303.6 171.676 303.6 171.526ZM307.149 166.717V172.61C307.149 173.626 306.689 174.134 305.768 174.134C305.569 174.134 305.385 174.104 305.216 174.046V173.323C305.32 173.349 305.457 173.362 305.626 173.362C305.828 173.362 305.981 173.307 306.085 173.196C306.192 173.089 306.246 172.9 306.246 172.63V166.717H307.149ZM306.153 165.315C306.153 165.172 306.197 165.05 306.285 164.949C306.376 164.845 306.508 164.793 306.681 164.793C306.856 164.793 306.99 164.843 307.081 164.944C307.172 165.045 307.218 165.169 307.218 165.315C307.218 165.462 307.172 165.584 307.081 165.682C306.99 165.779 306.856 165.828 306.681 165.828C306.505 165.828 306.373 165.779 306.285 165.682C306.197 165.584 306.153 165.462 306.153 165.315ZM311.686 170.599C311.686 170.354 311.593 170.166 311.407 170.032C311.225 169.896 310.904 169.778 310.445 169.681C309.99 169.583 309.627 169.466 309.356 169.329C309.09 169.192 308.891 169.03 308.761 168.841C308.634 168.652 308.57 168.427 308.57 168.167C308.57 167.734 308.753 167.368 309.117 167.068C309.485 166.769 309.954 166.619 310.523 166.619C311.122 166.619 311.607 166.774 311.979 167.083C312.353 167.392 312.54 167.788 312.54 168.27H311.632C311.632 168.022 311.526 167.809 311.314 167.63C311.106 167.451 310.842 167.361 310.523 167.361C310.195 167.361 309.938 167.433 309.752 167.576C309.566 167.719 309.474 167.907 309.474 168.138C309.474 168.356 309.56 168.52 309.732 168.631C309.905 168.742 310.216 168.847 310.665 168.948C311.118 169.049 311.484 169.17 311.764 169.31C312.044 169.45 312.25 169.619 312.384 169.817C312.521 170.013 312.589 170.252 312.589 170.535C312.589 171.007 312.4 171.386 312.022 171.673C311.645 171.956 311.155 172.098 310.553 172.098C310.13 172.098 309.755 172.023 309.43 171.873C309.104 171.723 308.849 171.515 308.663 171.248C308.481 170.978 308.39 170.687 308.39 170.374H309.293C309.309 170.677 309.43 170.918 309.654 171.097C309.882 171.272 310.182 171.36 310.553 171.36C310.895 171.36 311.168 171.292 311.373 171.155C311.581 171.015 311.686 170.83 311.686 170.599ZM323.813 167.19C322.183 166.95 320.583 165.84 320.583 164.59V164.09H319.723V164.59C319.723 165.87 318.143 166.95 316.513 167.19L316.843 167.85C318.243 167.61 319.593 166.84 320.153 165.75C320.733 166.83 322.083 167.61 323.473 167.85L323.813 167.19ZM324.203 168.82H316.103V169.5H319.723V172.75H320.543V169.5H324.213L324.203 168.82ZM330.082 166.1V166.77H331.852V169.12H332.682V163.78H331.852V166.1H330.082ZM330.582 168.14C329.282 167.68 328.402 166.55 328.402 165.4V165.09H330.372V164.43H325.582V165.09H327.582V165.4C327.582 166.69 326.662 167.9 325.322 168.39L325.752 169.04C326.802 168.64 327.632 167.8 328.012 166.76C328.402 167.68 329.172 168.42 330.172 168.78L330.582 168.14ZM329.722 172.1C328.372 172.1 327.552 171.72 327.552 171.07C327.552 170.42 328.372 170.03 329.722 170.03C331.072 170.03 331.892 170.42 331.892 171.07C331.892 171.72 331.072 172.1 329.722 172.1ZM329.722 169.4C327.882 169.4 326.732 170.01 326.732 171.07C326.732 172.13 327.882 172.74 329.722 172.74C331.562 172.74 332.712 172.13 332.712 171.07C332.712 170.01 331.562 169.4 329.722 169.4Z" fill="black"/>
<path d="M306.354 199.646C306.158 199.451 305.842 199.451 305.646 199.646L302.464 202.828C302.269 203.024 302.269 203.34 302.464 203.536C302.66 203.731 302.976 203.731 303.172 203.536L306 200.707L308.828 203.536C309.024 203.731 309.34 203.731 309.536 203.536C309.731 203.34 309.731 203.024 309.536 202.828L306.354 199.646ZM306.5 346L306.5 200L305.5 200L305.5 346L306.5 346Z" fill="#4000C7"/>
</svg>
