<svg width="1152" height="587" viewBox="0 0 1152 587" fill="none" xmlns="http://www.w3.org/2000/svg">
<path d="M0 0H1152V587H0V0Z" fill="white" fill-opacity="0.01"/>
<circle cx="63.5" cy="74.5" r="9.5" fill="#4000C7"/>
<circle cx="63.5" cy="186.5" r="9.5" fill="#4000C7"/>
<circle cx="63.5" cy="334.5" r="9.5" fill="#4000C7"/>
<circle cx="143.5" cy="74.5" r="9.5" fill="#4000C7"/>
<circle cx="143.5" cy="186.5" r="9.5" fill="#4000C7"/>
<circle cx="143.5" cy="334.5" r="9.5" fill="#4000C7"/>
<circle cx="224.5" cy="74.5" r="9.5" fill="#4000C7"/>
<circle cx="224.5" cy="186.5" r="9.5" fill="#4000C7"/>
<circle cx="224.5" cy="334.5" r="9.5" fill="#4000C7"/>
<circle cx="305.5" cy="74.5" r="9.5" fill="#4000C7"/>
<circle cx="386.5" cy="74.5" r="9.5" fill="#4000C7"/>
<circle cx="305.5" cy="186.5" r="9" fill="white" stroke="#4000C7" stroke-dasharray="2 2"/>
<circle cx="305.5" cy="334.5" r="9.5" fill="#4000C7"/>
<rect x="404.031" y="91.2095" width="18" height="41" rx="5" transform="rotate(-64.2277 404.031 91.2095)" fill="black"/>
<rect x="322.031" y="203.209" width="18" height="41" rx="5" transform="rotate(-64.2277 322.031 203.209)" fill="black"/>
<rect x="322.031" y="351.209" width="18" height="41" rx="5" transform="rotate(-64.2277 322.031 351.209)" fill="black"/>
<path d="M400.739 79.6266L409.456 79.9884L406.443 86.2275L400.739 79.6266Z" fill="black"/>
<path d="M318.739 191.627L327.456 191.988L324.443 198.227L318.739 191.627Z" fill="black"/>
<path d="M318.739 339.627L327.456 339.988L324.443 346.227L318.739 339.627Z" fill="black"/>
<path d="M417.791 85.2192L417.535 85.8113C418.137 85.5452 418.764 85.5693 419.415 85.8838C420.147 86.2372 420.51 86.7583 420.503 87.4471C420.799 87.2796 421.122 87.1854 421.475 87.1646C421.83 87.1452 422.198 87.2274 422.578 87.4111C423.726 87.9654 424.016 88.855 423.449 90.08L421.756 93.5867L420.861 93.1547L422.528 89.7012C422.709 89.3271 422.758 89.0069 422.676 88.7406C422.595 88.4711 422.353 88.239 421.95 88.0444C421.618 87.884 421.294 87.8509 420.978 87.9449C420.664 88.0358 420.408 88.2403 420.211 88.5585L418.534 92.0314L417.635 91.597L419.29 88.1677C419.658 87.4067 419.469 86.8464 418.724 86.4867C418.137 86.2034 417.615 86.2595 417.158 86.655L415.313 90.4761L414.418 90.044L416.945 84.8106L417.791 85.2192ZM426.341 95.8006C426.339 95.6725 426.386 95.4685 426.481 95.1885C425.857 95.4197 425.256 95.396 424.679 95.1173C424.163 94.8682 423.809 94.5184 423.617 94.0678C423.43 93.6156 423.444 93.1654 423.661 92.7172C423.924 92.1722 424.334 91.8494 424.892 91.7488C425.454 91.6466 426.111 91.7768 426.862 92.1396L427.733 92.5599L427.931 92.1488C428.082 91.836 428.108 91.5426 428.01 91.2685C427.913 90.9911 427.683 90.7645 427.319 90.5886C426.999 90.4345 426.693 90.3858 426.399 90.4428C426.105 90.4997 425.903 90.6426 425.792 90.8715L424.893 90.4372C425.019 90.176 425.232 89.9688 425.533 89.8157C425.838 89.661 426.183 89.5889 426.567 89.5996C426.955 89.6119 427.339 89.7099 427.72 89.8936C428.323 90.1847 428.722 90.5644 428.917 91.0325C429.114 91.4974 429.092 91.9974 428.849 92.5324L427.686 94.9412C427.454 95.4216 427.331 95.8333 427.317 96.1763L427.279 96.2536L426.341 95.8006ZM425.185 94.4017C425.466 94.5371 425.767 94.593 426.088 94.5693C426.41 94.5457 426.683 94.445 426.908 94.2673L427.427 93.1935L426.725 92.8549C425.629 92.3256 424.926 92.3817 424.616 93.0234C424.481 93.304 424.468 93.5684 424.579 93.8167C424.69 94.065 424.892 94.26 425.185 94.4017ZM429.47 97.3115L428.576 96.8795L431.102 91.6461L431.997 92.0781L429.47 97.3115ZM431.7 90.2229C431.77 90.0778 431.873 89.9762 432.008 89.9183C432.147 89.862 432.303 89.8758 432.477 89.9599C432.651 90.0439 432.759 90.1578 432.801 90.3013C432.843 90.4449 432.829 90.5892 432.759 90.7343C432.689 90.8794 432.586 90.9785 432.449 91.0317C432.312 91.0848 432.156 91.0694 431.982 90.9853C431.808 90.9012 431.699 90.789 431.655 90.6487C431.615 90.5099 431.63 90.368 431.7 90.2229ZM434.28 93.1804L433.992 93.8522C434.634 93.5422 435.278 93.5429 435.923 93.8543C437.029 94.3883 437.286 95.2816 436.693 96.5342L435.023 99.9925L434.128 99.5605L435.8 96.0973C435.979 95.7185 436.027 95.3975 435.943 95.1344C435.863 94.8729 435.643 94.6557 435.285 94.4829C434.995 94.3428 434.703 94.2972 434.409 94.3461C434.115 94.395 433.846 94.5156 433.602 94.708L431.802 98.4372L430.907 98.0051L433.434 92.7717L434.28 93.1804Z" fill="white"/>
<path d="M335.791 197.219L335.535 197.811C336.137 197.545 336.764 197.569 337.415 197.884C338.147 198.237 338.51 198.758 338.503 199.447C338.799 199.28 339.122 199.185 339.475 199.165C339.83 199.145 340.198 199.227 340.578 199.411C341.726 199.965 342.016 200.855 341.449 202.08L339.756 205.587L338.861 205.155L340.528 201.701C340.709 201.327 340.758 201.007 340.676 200.741C340.595 200.471 340.353 200.239 339.95 200.044C339.618 199.884 339.294 199.851 338.978 199.945C338.664 200.036 338.408 200.24 338.211 200.559L336.534 204.031L335.635 203.597L337.29 200.168C337.658 199.407 337.469 198.846 336.724 198.487C336.137 198.203 335.615 198.259 335.158 198.655L333.313 202.476L332.418 202.044L334.945 196.811L335.791 197.219ZM344.341 207.801C344.339 207.672 344.386 207.468 344.481 207.188C343.857 207.42 343.256 207.396 342.679 207.117C342.163 206.868 341.809 206.518 341.617 206.068C341.43 205.616 341.444 205.165 341.661 204.717C341.924 204.172 342.334 203.849 342.892 203.749C343.454 203.647 344.111 203.777 344.862 204.14L345.733 204.56L345.931 204.149C346.082 203.836 346.108 203.543 346.01 203.268C345.913 202.991 345.683 202.765 345.319 202.589C344.999 202.434 344.693 202.386 344.399 202.443C344.105 202.5 343.903 202.643 343.792 202.872L342.893 202.437C343.019 202.176 343.232 201.969 343.533 201.816C343.838 201.661 344.183 201.589 344.567 201.6C344.955 201.612 345.339 201.71 345.72 201.894C346.323 202.185 346.722 202.564 346.917 203.032C347.114 203.497 347.092 203.997 346.849 204.532L345.686 206.941C345.454 207.422 345.331 207.833 345.317 208.176L345.279 208.254L344.341 207.801ZM343.185 206.402C343.466 206.537 343.767 206.593 344.088 206.569C344.41 206.546 344.683 206.445 344.908 206.267L345.427 205.194L344.725 204.855C343.629 204.326 342.926 204.382 342.616 205.023C342.481 205.304 342.468 205.568 342.579 205.817C342.69 206.065 342.892 206.26 343.185 206.402ZM347.47 209.312L346.576 208.88L349.102 203.646L349.997 204.078L347.47 209.312ZM349.7 202.223C349.77 202.078 349.873 201.976 350.008 201.918C350.147 201.862 350.303 201.876 350.477 201.96C350.651 202.044 350.759 202.158 350.801 202.301C350.843 202.445 350.829 202.589 350.759 202.734C350.689 202.879 350.586 202.979 350.449 203.032C350.312 203.085 350.156 203.069 349.982 202.985C349.808 202.901 349.699 202.789 349.655 202.649C349.615 202.51 349.63 202.368 349.7 202.223ZM352.28 205.18L351.992 205.852C352.634 205.542 353.278 205.543 353.923 205.854C355.029 206.388 355.286 207.282 354.693 208.534L353.023 211.993L352.128 211.56L353.8 208.097C353.979 207.718 354.027 207.398 353.943 207.134C353.863 206.873 353.643 206.656 353.285 206.483C352.995 206.343 352.703 206.297 352.409 206.346C352.115 206.395 351.846 206.516 351.602 206.708L349.802 210.437L348.907 210.005L351.434 204.772L352.28 205.18Z" fill="white"/>
<path d="M335.791 345.219L335.535 345.811C336.137 345.545 336.764 345.569 337.415 345.884C338.147 346.237 338.51 346.758 338.503 347.447C338.799 347.28 339.122 347.185 339.475 347.165C339.83 347.145 340.198 347.227 340.578 347.411C341.726 347.965 342.016 348.855 341.449 350.08L339.756 353.587L338.861 353.155L340.528 349.701C340.709 349.327 340.758 349.007 340.676 348.741C340.595 348.471 340.353 348.239 339.95 348.044C339.618 347.884 339.294 347.851 338.978 347.945C338.664 348.036 338.408 348.24 338.211 348.559L336.534 352.031L335.635 351.597L337.29 348.168C337.658 347.407 337.469 346.846 336.724 346.487C336.137 346.203 335.615 346.259 335.158 346.655L333.313 350.476L332.418 350.044L334.945 344.811L335.791 345.219ZM344.341 355.801C344.339 355.672 344.386 355.468 344.481 355.188C343.857 355.42 343.256 355.396 342.679 355.117C342.163 354.868 341.809 354.518 341.617 354.068C341.43 353.616 341.444 353.165 341.661 352.717C341.924 352.172 342.334 351.849 342.892 351.749C343.454 351.647 344.111 351.777 344.862 352.14L345.733 352.56L345.931 352.149C346.082 351.836 346.108 351.543 346.01 351.268C345.913 350.991 345.683 350.765 345.319 350.589C344.999 350.434 344.693 350.386 344.399 350.443C344.105 350.5 343.903 350.643 343.792 350.872L342.893 350.437C343.019 350.176 343.232 349.969 343.533 349.816C343.838 349.661 344.183 349.589 344.567 349.6C344.955 349.612 345.339 349.71 345.72 349.894C346.323 350.185 346.722 350.564 346.917 351.032C347.114 351.497 347.092 351.997 346.849 352.532L345.686 354.941C345.454 355.422 345.331 355.833 345.317 356.176L345.279 356.254L344.341 355.801ZM343.185 354.402C343.466 354.537 343.767 354.593 344.088 354.569C344.41 354.546 344.683 354.445 344.908 354.267L345.427 353.194L344.725 352.855C343.629 352.326 342.926 352.382 342.616 353.023C342.481 353.304 342.468 353.568 342.579 353.817C342.69 354.065 342.892 354.26 343.185 354.402ZM347.47 357.312L346.576 356.88L349.102 351.646L349.997 352.078L347.47 357.312ZM349.7 350.223C349.77 350.078 349.873 349.976 350.008 349.918C350.147 349.862 350.303 349.876 350.477 349.96C350.651 350.044 350.759 350.158 350.801 350.301C350.843 350.445 350.829 350.589 350.759 350.734C350.689 350.879 350.586 350.979 350.449 351.032C350.312 351.085 350.156 351.069 349.982 350.985C349.808 350.901 349.699 350.789 349.655 350.649C349.615 350.51 349.63 350.368 349.7 350.223ZM352.28 353.18L351.992 353.852C352.634 353.542 353.278 353.543 353.923 353.854C355.029 354.388 355.286 355.282 354.693 356.534L353.023 359.993L352.128 359.56L353.8 356.097C353.979 355.718 354.027 355.398 353.943 355.134C353.863 354.873 353.643 354.656 353.285 354.483C352.995 354.343 352.703 354.297 352.409 354.346C352.115 354.395 351.846 354.516 351.602 354.708L349.802 358.437L348.907 358.005L351.434 352.772L352.28 353.18Z" fill="white"/>
<line x1="73" y1="74.5" x2="377" y2="74.5" stroke="#4000C7"/>
<line x1="73" y1="186.5" x2="296" y2="186.5" stroke="#4000C7"/>
<line x1="73" y1="334.5" x2="296" y2="334.5" stroke="#4000C7"/>
<path d="M372.931 43.0059H373.609C374.036 42.9993 374.371 42.887 374.615 42.6689C374.859 42.4508 374.981 42.1562 374.981 41.7852C374.981 40.9518 374.566 40.5352 373.736 40.5352C373.346 40.5352 373.033 40.6475 372.799 40.8721C372.568 41.0934 372.452 41.388 372.452 41.7559H371.549C371.549 41.1927 371.754 40.7256 372.164 40.3545C372.577 39.9801 373.102 39.793 373.736 39.793C374.407 39.793 374.933 39.9704 375.313 40.3252C375.694 40.68 375.885 41.1732 375.885 41.8047C375.885 42.1139 375.784 42.4134 375.582 42.7031C375.383 42.9928 375.112 43.2093 374.767 43.3525C375.157 43.4762 375.458 43.6813 375.67 43.9678C375.885 44.2542 375.992 44.6042 375.992 45.0176C375.992 45.6556 375.784 46.1618 375.367 46.5361C374.951 46.9105 374.409 47.0977 373.741 47.0977C373.074 47.0977 372.53 46.917 372.11 46.5557C371.694 46.1943 371.485 45.7174 371.485 45.125H372.394C372.394 45.4993 372.516 45.7988 372.76 46.0234C373.004 46.248 373.331 46.3604 373.741 46.3604C374.177 46.3604 374.511 46.2464 374.742 46.0186C374.973 45.7907 375.089 45.4635 375.089 45.0371C375.089 44.6237 374.962 44.3063 374.708 44.085C374.454 43.8636 374.088 43.7497 373.609 43.7432H372.931V43.0059ZM379.518 47.0977C378.801 47.0977 378.219 46.8633 377.77 46.3945C377.32 45.9225 377.096 45.2926 377.096 44.5049V44.3389C377.096 43.8148 377.195 43.3477 377.394 42.9375C377.595 42.5241 377.875 42.2018 378.233 41.9707C378.595 41.7363 378.985 41.6191 379.405 41.6191C380.092 41.6191 380.626 41.8454 381.007 42.2979C381.388 42.7503 381.578 43.3981 381.578 44.2412V44.6172H377.999C378.012 45.138 378.163 45.5596 378.453 45.8818C378.746 46.2008 379.117 46.3604 379.566 46.3604C379.885 46.3604 380.156 46.2952 380.377 46.165C380.598 46.0348 380.792 45.8623 380.958 45.6475L381.51 46.0771C381.067 46.7575 380.403 47.0977 379.518 47.0977ZM379.405 42.3613C379.041 42.3613 378.735 42.4948 378.487 42.7617C378.24 43.0254 378.087 43.3965 378.028 43.875H380.675V43.8066C380.649 43.3477 380.525 42.9928 380.304 42.7422C380.082 42.4883 379.783 42.3613 379.405 42.3613ZM383.072 47V42.415H382.237V41.7168H383.072V41.1748C383.072 40.6084 383.224 40.1706 383.526 39.8613C383.829 39.5521 384.257 39.3975 384.811 39.3975C385.019 39.3975 385.226 39.4251 385.431 39.4805L385.382 40.2129C385.229 40.1836 385.066 40.1689 384.894 40.1689C384.601 40.1689 384.374 40.2552 384.215 40.4277C384.055 40.597 383.976 40.8411 383.976 41.1602V41.7168H385.104V42.415H383.976V47H383.072ZM385.772 44.3145C385.772 43.4909 385.963 42.8366 386.344 42.3516C386.725 41.8633 387.229 41.6191 387.857 41.6191C388.502 41.6191 389.005 41.847 389.366 42.3027L389.41 41.7168H390.235V46.873C390.235 47.5566 390.032 48.0954 389.625 48.4893C389.221 48.8831 388.678 49.0801 387.994 49.0801C387.613 49.0801 387.241 48.9987 386.876 48.8359C386.511 48.6732 386.233 48.4502 386.041 48.167L386.51 47.625C386.897 48.1035 387.371 48.3428 387.931 48.3428C388.37 48.3428 388.712 48.2191 388.956 47.9717C389.203 47.7243 389.327 47.376 389.327 46.9268V46.4727C388.966 46.8893 388.473 47.0977 387.848 47.0977C387.229 47.0977 386.728 46.8486 386.344 46.3506C385.963 45.8525 385.772 45.1738 385.772 44.3145ZM386.681 44.417C386.681 45.0127 386.803 45.4814 387.047 45.8232C387.291 46.1618 387.633 46.3311 388.072 46.3311C388.642 46.3311 389.06 46.0723 389.327 45.5547V43.1426C389.05 42.638 388.635 42.3857 388.082 42.3857C387.643 42.3857 387.299 42.5566 387.052 42.8984C386.804 43.2402 386.681 43.7464 386.681 44.417ZM394.864 47C394.812 46.8958 394.77 46.7103 394.737 46.4434C394.317 46.8796 393.816 47.0977 393.233 47.0977C392.713 47.0977 392.285 46.9512 391.949 46.6582C391.617 46.362 391.451 45.9876 391.451 45.5352C391.451 44.985 391.66 44.5586 392.076 44.2559C392.496 43.9499 393.085 43.7969 393.844 43.7969H394.723V43.3818C394.723 43.0661 394.628 42.8154 394.439 42.6299C394.251 42.4411 393.972 42.3467 393.604 42.3467C393.282 42.3467 393.012 42.4281 392.794 42.5908C392.576 42.7536 392.467 42.9505 392.467 43.1816H391.559C391.559 42.918 391.651 42.6641 391.837 42.4199C392.026 42.1725 392.28 41.9772 392.599 41.834C392.921 41.6908 393.274 41.6191 393.658 41.6191C394.267 41.6191 394.744 41.7721 395.089 42.0781C395.434 42.3809 395.613 42.7992 395.626 43.333V45.7646C395.626 46.2497 395.688 46.6354 395.812 46.9219V47H394.864ZM393.365 46.3115C393.648 46.3115 393.917 46.2383 394.171 46.0918C394.425 45.9453 394.609 45.7549 394.723 45.5205V44.4365H394.015C392.908 44.4365 392.354 44.7604 392.354 45.4082C392.354 45.6914 392.449 45.9128 392.638 46.0723C392.826 46.2318 393.069 46.3115 393.365 46.3115ZM401.515 44.417C401.515 45.2243 401.329 45.8737 400.958 46.3652C400.587 46.8535 400.089 47.0977 399.464 47.0977C398.797 47.0977 398.281 46.8617 397.916 46.3896L397.872 47H397.042V39.5H397.945V42.2979C398.31 41.8454 398.813 41.6191 399.454 41.6191C400.095 41.6191 400.598 41.8617 400.963 42.3467C401.331 42.8317 401.515 43.4958 401.515 44.3389V44.417ZM400.611 44.3145C400.611 43.6992 400.493 43.224 400.255 42.8887C400.017 42.5534 399.675 42.3857 399.229 42.3857C398.634 42.3857 398.206 42.6624 397.945 43.2158V45.501C398.222 46.0544 398.653 46.3311 399.239 46.3311C399.672 46.3311 400.009 46.1634 400.25 45.8281C400.491 45.4928 400.611 44.9883 400.611 44.3145ZM360.704 59H359.801V53.7168H360.704V59ZM359.728 52.3154C359.728 52.1689 359.771 52.0452 359.859 51.9443C359.951 51.8434 360.084 51.793 360.26 51.793C360.436 51.793 360.569 51.8434 360.66 51.9443C360.751 52.0452 360.797 52.1689 360.797 52.3154C360.797 52.4619 360.751 52.584 360.66 52.6816C360.569 52.7793 360.436 52.8281 360.26 52.8281C360.084 52.8281 359.951 52.7793 359.859 52.6816C359.771 52.584 359.728 52.4619 359.728 52.3154ZM363.009 53.7168L363.038 54.3809C363.442 53.873 363.969 53.6191 364.62 53.6191C365.737 53.6191 366.3 54.249 366.31 55.5088V59H365.406V55.5039C365.403 55.123 365.315 54.8415 365.143 54.6592C364.973 54.4769 364.708 54.3857 364.347 54.3857C364.054 54.3857 363.797 54.4639 363.575 54.6201C363.354 54.7764 363.181 54.9814 363.058 55.2354V59H362.154V53.7168H363.009ZM367.452 56.3145C367.452 55.5039 367.644 54.8529 368.028 54.3613C368.412 53.8665 368.915 53.6191 369.537 53.6191C370.156 53.6191 370.646 53.8307 371.007 54.2539V51.5H371.91V59H371.08L371.036 58.4336C370.675 58.8763 370.172 59.0977 369.527 59.0977C368.915 59.0977 368.416 58.847 368.028 58.3457C367.644 57.8444 367.452 57.1901 367.452 56.3828V56.3145ZM368.355 56.417C368.355 57.016 368.479 57.4847 368.727 57.8232C368.974 58.1618 369.316 58.3311 369.752 58.3311C370.325 58.3311 370.743 58.0739 371.007 57.5596V55.1328C370.737 54.6348 370.322 54.3857 369.762 54.3857C369.319 54.3857 368.974 54.5566 368.727 54.8984C368.479 55.2402 368.355 55.7464 368.355 56.417ZM375.509 59.0977C374.793 59.0977 374.21 58.8633 373.761 58.3945C373.312 57.9225 373.087 57.2926 373.087 56.5049V56.3389C373.087 55.8148 373.186 55.3477 373.385 54.9375C373.587 54.5241 373.867 54.2018 374.225 53.9707C374.586 53.7363 374.977 53.6191 375.396 53.6191C376.083 53.6191 376.617 53.8454 376.998 54.2979C377.379 54.7503 377.569 55.3981 377.569 56.2412V56.6172H373.99C374.003 57.138 374.155 57.5596 374.444 57.8818C374.737 58.2008 375.108 58.3604 375.558 58.3604C375.877 58.3604 376.147 58.2952 376.368 58.165C376.59 58.0348 376.783 57.8623 376.949 57.6475L377.501 58.0771C377.058 58.7575 376.394 59.0977 375.509 59.0977ZM375.396 54.3613C375.032 54.3613 374.726 54.4948 374.479 54.7617C374.231 55.0254 374.078 55.3965 374.02 55.875H376.666V55.8066C376.64 55.3477 376.516 54.9928 376.295 54.7422C376.074 54.4883 375.774 54.3613 375.396 54.3613ZM380.392 55.6455L381.563 53.7168H382.618L380.89 56.3291L382.672 59H381.627L380.406 57.0225L379.186 59H378.136L379.918 56.3291L378.189 53.7168H379.234L380.392 55.6455ZM383.6 58.5264C383.6 58.3701 383.645 58.2399 383.736 58.1357C383.831 58.0316 383.971 57.9795 384.156 57.9795C384.342 57.9795 384.482 58.0316 384.576 58.1357C384.674 58.2399 384.723 58.3701 384.723 58.5264C384.723 58.6761 384.674 58.8014 384.576 58.9023C384.482 59.0033 384.342 59.0537 384.156 59.0537C383.971 59.0537 383.831 59.0033 383.736 58.9023C383.645 58.8014 383.6 58.6761 383.6 58.5264ZM387.149 53.7168V59.6104C387.149 60.626 386.689 61.1338 385.768 61.1338C385.569 61.1338 385.385 61.1045 385.216 61.0459V60.3232C385.32 60.3493 385.457 60.3623 385.626 60.3623C385.828 60.3623 385.981 60.307 386.085 60.1963C386.192 60.0889 386.246 59.9001 386.246 59.6299V53.7168H387.149ZM386.153 52.3154C386.153 52.1722 386.197 52.0501 386.285 51.9492C386.376 51.8451 386.508 51.793 386.681 51.793C386.856 51.793 386.99 51.8434 387.081 51.9443C387.172 52.0452 387.218 52.1689 387.218 52.3154C387.218 52.4619 387.172 52.584 387.081 52.6816C386.99 52.7793 386.856 52.8281 386.681 52.8281C386.505 52.8281 386.373 52.7793 386.285 52.6816C386.197 52.584 386.153 52.4619 386.153 52.3154ZM391.686 57.5986C391.686 57.3545 391.593 57.1657 391.407 57.0322C391.225 56.8955 390.904 56.7783 390.445 56.6807C389.99 56.583 389.627 56.4658 389.356 56.3291C389.09 56.1924 388.891 56.0296 388.761 55.8408C388.634 55.652 388.57 55.4274 388.57 55.167C388.57 54.734 388.753 54.3678 389.117 54.0684C389.485 53.7689 389.954 53.6191 390.523 53.6191C391.122 53.6191 391.607 53.7738 391.979 54.083C392.353 54.3923 392.54 54.7878 392.54 55.2695H391.632C391.632 55.0221 391.526 54.8089 391.314 54.6299C391.106 54.4508 390.842 54.3613 390.523 54.3613C390.195 54.3613 389.938 54.4329 389.752 54.5762C389.566 54.7194 389.474 54.9066 389.474 55.1377C389.474 55.3558 389.56 55.5202 389.732 55.6309C389.905 55.7415 390.216 55.8473 390.665 55.9482C391.118 56.0492 391.484 56.1696 391.764 56.3096C392.044 56.4495 392.25 56.6188 392.384 56.8174C392.521 57.0127 392.589 57.252 392.589 57.5352C392.589 58.0072 392.4 58.3864 392.022 58.6729C391.645 58.9561 391.155 59.0977 390.553 59.0977C390.13 59.0977 389.755 59.0228 389.43 58.873C389.104 58.7233 388.849 58.515 388.663 58.248C388.481 57.9779 388.39 57.6865 388.39 57.374H389.293C389.309 57.6768 389.43 57.9176 389.654 58.0967C389.882 58.2725 390.182 58.3604 390.553 58.3604C390.895 58.3604 391.168 58.292 391.373 58.1553C391.581 58.0153 391.686 57.8298 391.686 57.5986ZM403.813 54.19C402.183 53.95 400.583 52.84 400.583 51.59V51.09H399.723V51.59C399.723 52.87 398.143 53.95 396.513 54.19L396.843 54.85C398.243 54.61 399.593 53.84 400.153 52.75C400.733 53.83 402.083 54.61 403.473 54.85L403.813 54.19ZM404.203 55.82H396.103V56.5H399.723V59.75H400.543V56.5H404.213L404.203 55.82ZM410.082 53.1V53.77H411.852V56.12H412.682V50.78H411.852V53.1H410.082ZM410.582 55.14C409.282 54.68 408.402 53.55 408.402 52.4V52.09H410.372V51.43H405.582V52.09H407.582V52.4C407.582 53.69 406.662 54.9 405.322 55.39L405.752 56.04C406.802 55.64 407.632 54.8 408.012 53.76C408.402 54.68 409.172 55.42 410.172 55.78L410.582 55.14ZM409.722 59.1C408.372 59.1 407.552 58.72 407.552 58.07C407.552 57.42 408.372 57.03 409.722 57.03C411.072 57.03 411.892 57.42 411.892 58.07C411.892 58.72 411.072 59.1 409.722 59.1ZM409.722 56.4C407.882 56.4 406.732 57.01 406.732 58.07C406.732 59.13 407.882 59.74 409.722 59.74C411.562 59.74 412.712 59.13 412.712 58.07C412.712 57.01 411.562 56.4 409.722 56.4Z" fill="black"/>
<path d="M292.164 303.436L292.525 299.891H296.168V300.726H293.292L293.077 302.664C293.425 302.459 293.821 302.356 294.264 302.356C294.911 302.356 295.426 302.571 295.807 303.001C296.188 303.427 296.378 304.005 296.378 304.734C296.378 305.467 296.179 306.045 295.782 306.468C295.388 306.888 294.837 307.098 294.127 307.098C293.499 307.098 292.986 306.924 292.589 306.575C292.192 306.227 291.965 305.745 291.91 305.13H292.765C292.82 305.537 292.965 305.844 293.199 306.053C293.434 306.258 293.743 306.36 294.127 306.36C294.547 306.36 294.876 306.217 295.113 305.931C295.354 305.644 295.475 305.249 295.475 304.744C295.475 304.269 295.344 303.888 295.084 303.602C294.827 303.312 294.483 303.167 294.054 303.167C293.66 303.167 293.351 303.253 293.126 303.426L292.887 303.621L292.164 303.436ZM299.576 306.36C299.898 306.36 300.18 306.263 300.421 306.067C300.662 305.872 300.795 305.628 300.821 305.335H301.676C301.66 305.638 301.555 305.926 301.363 306.199C301.171 306.473 300.914 306.691 300.592 306.854C300.273 307.016 299.934 307.098 299.576 307.098C298.857 307.098 298.284 306.858 297.857 306.38C297.434 305.898 297.223 305.241 297.223 304.407V304.256C297.223 303.742 297.317 303.284 297.506 302.884C297.695 302.483 297.965 302.173 298.316 301.951C298.671 301.73 299.09 301.619 299.571 301.619C300.164 301.619 300.655 301.797 301.046 302.151C301.44 302.506 301.65 302.967 301.676 303.533H300.821C300.795 303.191 300.665 302.911 300.431 302.693C300.2 302.472 299.913 302.361 299.571 302.361C299.112 302.361 298.756 302.527 298.502 302.859C298.251 303.188 298.126 303.665 298.126 304.29V304.461C298.126 305.07 298.251 305.538 298.502 305.867C298.753 306.196 299.111 306.36 299.576 306.36ZM304.884 307.098C304.168 307.098 303.585 306.863 303.136 306.395C302.687 305.923 302.462 305.293 302.462 304.505V304.339C302.462 303.815 302.561 303.348 302.76 302.938C302.962 302.524 303.242 302.202 303.6 301.971C303.961 301.736 304.352 301.619 304.771 301.619C305.458 301.619 305.992 301.845 306.373 302.298C306.754 302.75 306.944 303.398 306.944 304.241V304.617H303.365C303.378 305.138 303.53 305.56 303.819 305.882C304.112 306.201 304.483 306.36 304.933 306.36C305.252 306.36 305.522 306.295 305.743 306.165C305.965 306.035 306.158 305.862 306.324 305.647L306.876 306.077C306.433 306.757 305.769 307.098 304.884 307.098ZM304.771 302.361C304.407 302.361 304.101 302.495 303.854 302.762C303.606 303.025 303.453 303.396 303.395 303.875H306.041V303.807C306.015 303.348 305.891 302.993 305.67 302.742C305.449 302.488 305.149 302.361 304.771 302.361ZM308.438 307V302.415H307.604V301.717H308.438V301.175C308.438 300.608 308.59 300.171 308.893 299.861C309.195 299.552 309.623 299.397 310.177 299.397C310.385 299.397 310.592 299.425 310.797 299.48L310.748 300.213C310.595 300.184 310.432 300.169 310.26 300.169C309.967 300.169 309.741 300.255 309.581 300.428C309.422 300.597 309.342 300.841 309.342 301.16V301.717H310.47V302.415H309.342V307H308.438ZM314.732 307C314.68 306.896 314.638 306.71 314.605 306.443C314.186 306.88 313.684 307.098 313.102 307.098C312.581 307.098 312.153 306.951 311.817 306.658C311.485 306.362 311.319 305.988 311.319 305.535C311.319 304.985 311.528 304.559 311.944 304.256C312.364 303.95 312.953 303.797 313.712 303.797H314.591V303.382C314.591 303.066 314.496 302.815 314.308 302.63C314.119 302.441 313.84 302.347 313.473 302.347C313.15 302.347 312.88 302.428 312.662 302.591C312.444 302.754 312.335 302.951 312.335 303.182H311.427C311.427 302.918 311.52 302.664 311.705 302.42C311.894 302.173 312.148 301.977 312.467 301.834C312.789 301.691 313.142 301.619 313.526 301.619C314.135 301.619 314.612 301.772 314.957 302.078C315.302 302.381 315.481 302.799 315.494 303.333V305.765C315.494 306.25 315.556 306.635 315.68 306.922V307H314.732ZM313.233 306.312C313.517 306.312 313.785 306.238 314.039 306.092C314.293 305.945 314.477 305.755 314.591 305.521V304.437H313.883C312.776 304.437 312.223 304.76 312.223 305.408C312.223 305.691 312.317 305.913 312.506 306.072C312.695 306.232 312.937 306.312 313.233 306.312ZM321.476 307H316.817V306.351L319.278 303.616C319.643 303.203 319.894 302.868 320.03 302.61C320.17 302.35 320.24 302.081 320.24 301.805C320.24 301.434 320.128 301.129 319.903 300.892C319.679 300.654 319.379 300.535 319.005 300.535C318.556 300.535 318.206 300.664 317.955 300.921C317.708 301.175 317.584 301.53 317.584 301.985H316.681C316.681 301.331 316.891 300.802 317.311 300.398C317.734 299.995 318.299 299.793 319.005 299.793C319.666 299.793 320.188 299.967 320.572 300.315C320.956 300.66 321.148 301.121 321.148 301.697C321.148 302.397 320.702 303.23 319.811 304.197L317.906 306.263H321.476V307ZM280.704 319H279.801V313.717H280.704V319ZM279.728 312.315C279.728 312.169 279.771 312.045 279.859 311.944C279.951 311.843 280.084 311.793 280.26 311.793C280.436 311.793 280.569 311.843 280.66 311.944C280.751 312.045 280.797 312.169 280.797 312.315C280.797 312.462 280.751 312.584 280.66 312.682C280.569 312.779 280.436 312.828 280.26 312.828C280.084 312.828 279.951 312.779 279.859 312.682C279.771 312.584 279.728 312.462 279.728 312.315ZM283.009 313.717L283.038 314.381C283.442 313.873 283.969 313.619 284.62 313.619C285.737 313.619 286.3 314.249 286.31 315.509V319H285.406V315.504C285.403 315.123 285.315 314.841 285.143 314.659C284.973 314.477 284.708 314.386 284.347 314.386C284.054 314.386 283.797 314.464 283.575 314.62C283.354 314.776 283.181 314.981 283.058 315.235V319H282.154V313.717H283.009ZM287.452 316.314C287.452 315.504 287.644 314.853 288.028 314.361C288.412 313.867 288.915 313.619 289.537 313.619C290.156 313.619 290.646 313.831 291.007 314.254V311.5H291.91V319H291.08L291.036 318.434C290.675 318.876 290.172 319.098 289.527 319.098C288.915 319.098 288.416 318.847 288.028 318.346C287.644 317.844 287.452 317.19 287.452 316.383V316.314ZM288.355 316.417C288.355 317.016 288.479 317.485 288.727 317.823C288.974 318.162 289.316 318.331 289.752 318.331C290.325 318.331 290.743 318.074 291.007 317.56V315.133C290.737 314.635 290.322 314.386 289.762 314.386C289.319 314.386 288.974 314.557 288.727 314.898C288.479 315.24 288.355 315.746 288.355 316.417ZM295.509 319.098C294.793 319.098 294.21 318.863 293.761 318.395C293.312 317.923 293.087 317.293 293.087 316.505V316.339C293.087 315.815 293.186 315.348 293.385 314.938C293.587 314.524 293.867 314.202 294.225 313.971C294.586 313.736 294.977 313.619 295.396 313.619C296.083 313.619 296.617 313.845 296.998 314.298C297.379 314.75 297.569 315.398 297.569 316.241V316.617H293.99C294.003 317.138 294.155 317.56 294.444 317.882C294.737 318.201 295.108 318.36 295.558 318.36C295.877 318.36 296.147 318.295 296.368 318.165C296.59 318.035 296.783 317.862 296.949 317.647L297.501 318.077C297.058 318.757 296.394 319.098 295.509 319.098ZM295.396 314.361C295.032 314.361 294.726 314.495 294.479 314.762C294.231 315.025 294.078 315.396 294.02 315.875H296.666V315.807C296.64 315.348 296.516 314.993 296.295 314.742C296.074 314.488 295.774 314.361 295.396 314.361ZM300.392 315.646L301.563 313.717H302.618L300.89 316.329L302.672 319H301.627L300.406 317.022L299.186 319H298.136L299.918 316.329L298.189 313.717H299.234L300.392 315.646ZM303.6 318.526C303.6 318.37 303.645 318.24 303.736 318.136C303.831 318.032 303.971 317.979 304.156 317.979C304.342 317.979 304.482 318.032 304.576 318.136C304.674 318.24 304.723 318.37 304.723 318.526C304.723 318.676 304.674 318.801 304.576 318.902C304.482 319.003 304.342 319.054 304.156 319.054C303.971 319.054 303.831 319.003 303.736 318.902C303.645 318.801 303.6 318.676 303.6 318.526ZM307.149 313.717V319.61C307.149 320.626 306.689 321.134 305.768 321.134C305.569 321.134 305.385 321.104 305.216 321.046V320.323C305.32 320.349 305.457 320.362 305.626 320.362C305.828 320.362 305.981 320.307 306.085 320.196C306.192 320.089 306.246 319.9 306.246 319.63V313.717H307.149ZM306.153 312.315C306.153 312.172 306.197 312.05 306.285 311.949C306.376 311.845 306.508 311.793 306.681 311.793C306.856 311.793 306.99 311.843 307.081 311.944C307.172 312.045 307.218 312.169 307.218 312.315C307.218 312.462 307.172 312.584 307.081 312.682C306.99 312.779 306.856 312.828 306.681 312.828C306.505 312.828 306.373 312.779 306.285 312.682C306.197 312.584 306.153 312.462 306.153 312.315ZM311.686 317.599C311.686 317.354 311.593 317.166 311.407 317.032C311.225 316.896 310.904 316.778 310.445 316.681C309.99 316.583 309.627 316.466 309.356 316.329C309.09 316.192 308.891 316.03 308.761 315.841C308.634 315.652 308.57 315.427 308.57 315.167C308.57 314.734 308.753 314.368 309.117 314.068C309.485 313.769 309.954 313.619 310.523 313.619C311.122 313.619 311.607 313.774 311.979 314.083C312.353 314.392 312.54 314.788 312.54 315.27H311.632C311.632 315.022 311.526 314.809 311.314 314.63C311.106 314.451 310.842 314.361 310.523 314.361C310.195 314.361 309.938 314.433 309.752 314.576C309.566 314.719 309.474 314.907 309.474 315.138C309.474 315.356 309.56 315.52 309.732 315.631C309.905 315.742 310.216 315.847 310.665 315.948C311.118 316.049 311.484 316.17 311.764 316.31C312.044 316.45 312.25 316.619 312.384 316.817C312.521 317.013 312.589 317.252 312.589 317.535C312.589 318.007 312.4 318.386 312.022 318.673C311.645 318.956 311.155 319.098 310.553 319.098C310.13 319.098 309.755 319.023 309.43 318.873C309.104 318.723 308.849 318.515 308.663 318.248C308.481 317.978 308.39 317.687 308.39 317.374H309.293C309.309 317.677 309.43 317.918 309.654 318.097C309.882 318.272 310.182 318.36 310.553 318.36C310.895 318.36 311.168 318.292 311.373 318.155C311.581 318.015 311.686 317.83 311.686 317.599ZM323.813 314.19C322.183 313.95 320.583 312.84 320.583 311.59V311.09H319.723V311.59C319.723 312.87 318.143 313.95 316.513 314.19L316.843 314.85C318.243 314.61 319.593 313.84 320.153 312.75C320.733 313.83 322.083 314.61 323.473 314.85L323.813 314.19ZM324.203 315.82H316.103V316.5H319.723V319.75H320.543V316.5H324.213L324.203 315.82ZM330.082 313.1V313.77H331.852V316.12H332.682V310.78H331.852V313.1H330.082ZM330.582 315.14C329.282 314.68 328.402 313.55 328.402 312.4V312.09H330.372V311.43H325.582V312.09H327.582V312.4C327.582 313.69 326.662 314.9 325.322 315.39L325.752 316.04C326.802 315.64 327.632 314.8 328.012 313.76C328.402 314.68 329.172 315.42 330.172 315.78L330.582 315.14ZM329.722 319.1C328.372 319.1 327.552 318.72 327.552 318.07C327.552 317.42 328.372 317.03 329.722 317.03C331.072 317.03 331.892 317.42 331.892 318.07C331.892 318.72 331.072 319.1 329.722 319.1ZM329.722 316.4C327.882 316.4 326.732 317.01 326.732 318.07C326.732 319.13 327.882 319.74 329.722 319.74C331.562 319.74 332.712 319.13 332.712 318.07C332.712 317.01 331.562 316.4 329.722 316.4Z" fill="black"/>
</svg>
