<svg width="1152" height="587" viewBox="0 0 1152 587" fill="none" xmlns="http://www.w3.org/2000/svg">
<path d="M0 0H1152V587H0V0Z" fill="white" fill-opacity="0.01"/>
<circle cx="63.5" cy="74.5" r="9.5" fill="#4000C7"/>
<circle cx="63.5" cy="186.5" r="9.5" fill="#4000C7"/>
<circle cx="63.5" cy="334.5" r="9.5" fill="#4000C7"/>
<circle cx="143.5" cy="74.5" r="9.5" fill="#4000C7"/>
<circle cx="143.5" cy="186.5" r="9.5" fill="#4000C7"/>
<circle cx="143.5" cy="334.5" r="9.5" fill="#4000C7"/>
<circle cx="224.5" cy="74.5" r="9.5" fill="#4000C7"/>
<circle cx="224.5" cy="186.5" r="9.5" fill="#4000C7"/>
<circle cx="224.5" cy="334.5" r="9.5" fill="#4000C7"/>
<circle cx="305.5" cy="74.5" r="9" fill="white" stroke="#4000C7" stroke-dasharray="2 2"/>
<circle cx="305.5" cy="186.5" r="9" fill="white" stroke="#4000C7" stroke-dasharray="2 2"/>
<circle cx="305.5" cy="334.5" r="9.5" fill="#4000C7"/>
<rect x="322.031" y="91.2095" width="18" height="41" rx="5" transform="rotate(-64.2277 322.031 91.2095)" fill="black"/>
<rect x="322.031" y="203.209" width="18" height="41" rx="5" transform="rotate(-64.2277 322.031 203.209)" fill="black"/>
<rect x="322.031" y="351.209" width="18" height="41" rx="5" transform="rotate(-64.2277 322.031 351.209)" fill="black"/>
<path d="M318.739 79.6266L327.456 79.9884L324.443 86.2275L318.739 79.6266Z" fill="black"/>
<path d="M318.739 191.627L327.456 191.988L324.443 198.227L318.739 191.627Z" fill="black"/>
<path d="M318.739 339.627L327.456 339.988L324.443 346.227L318.739 339.627Z" fill="black"/>
<path d="M335.791 85.2192L335.535 85.8113C336.137 85.5452 336.764 85.5693 337.415 85.8838C338.147 86.2372 338.51 86.7583 338.503 87.4471C338.799 87.2796 339.122 87.1854 339.475 87.1646C339.83 87.1452 340.198 87.2274 340.578 87.4111C341.726 87.9654 342.016 88.855 341.449 90.08L339.756 93.5867L338.861 93.1547L340.528 89.7012C340.709 89.3271 340.758 89.0069 340.676 88.7406C340.595 88.4711 340.353 88.239 339.95 88.0444C339.618 87.884 339.294 87.8509 338.978 87.9449C338.664 88.0358 338.408 88.2403 338.211 88.5585L336.534 92.0314L335.635 91.597L337.29 88.1677C337.658 87.4067 337.469 86.8464 336.724 86.4867C336.137 86.2034 335.615 86.2595 335.158 86.655L333.313 90.4761L332.418 90.044L334.945 84.8106L335.791 85.2192ZM344.341 95.8006C344.339 95.6725 344.386 95.4685 344.481 95.1885C343.857 95.4197 343.256 95.396 342.679 95.1173C342.163 94.8682 341.809 94.5184 341.617 94.0678C341.43 93.6156 341.444 93.1654 341.661 92.7172C341.924 92.1722 342.334 91.8494 342.892 91.7488C343.454 91.6466 344.111 91.7768 344.862 92.1396L345.733 92.5599L345.931 92.1488C346.082 91.836 346.108 91.5426 346.01 91.2685C345.913 90.9911 345.683 90.7645 345.319 90.5886C344.999 90.4345 344.693 90.3858 344.399 90.4428C344.105 90.4997 343.903 90.6426 343.792 90.8715L342.893 90.4372C343.019 90.176 343.232 89.9688 343.533 89.8157C343.838 89.661 344.183 89.5889 344.567 89.5996C344.955 89.6119 345.339 89.7099 345.72 89.8936C346.323 90.1847 346.722 90.5644 346.917 91.0325C347.114 91.4974 347.092 91.9974 346.849 92.5324L345.686 94.9412C345.454 95.4216 345.331 95.8333 345.317 96.1763L345.279 96.2536L344.341 95.8006ZM343.185 94.4017C343.466 94.5371 343.767 94.593 344.088 94.5693C344.41 94.5457 344.683 94.445 344.908 94.2673L345.427 93.1935L344.725 92.8549C343.629 92.3256 342.926 92.3817 342.616 93.0234C342.481 93.304 342.468 93.5684 342.579 93.8167C342.69 94.065 342.892 94.26 343.185 94.4017ZM347.47 97.3115L346.576 96.8795L349.102 91.6461L349.997 92.0781L347.47 97.3115ZM349.7 90.2229C349.77 90.0778 349.873 89.9762 350.008 89.9183C350.147 89.862 350.303 89.8758 350.477 89.9599C350.651 90.0439 350.759 90.1578 350.801 90.3013C350.843 90.4449 350.829 90.5892 350.759 90.7343C350.689 90.8794 350.586 90.9785 350.449 91.0317C350.312 91.0848 350.156 91.0694 349.982 90.9853C349.808 90.9012 349.699 90.789 349.655 90.6487C349.615 90.5099 349.63 90.368 349.7 90.2229ZM352.28 93.1804L351.992 93.8522C352.634 93.5422 353.278 93.5429 353.923 93.8543C355.029 94.3883 355.286 95.2816 354.693 96.5342L353.023 99.9925L352.128 99.5605L353.8 96.0973C353.979 95.7185 354.027 95.3975 353.943 95.1344C353.863 94.8729 353.643 94.6557 353.285 94.4829C352.995 94.3428 352.703 94.2972 352.409 94.3461C352.115 94.395 351.846 94.5156 351.602 94.708L349.802 98.4372L348.907 98.0051L351.434 92.7717L352.28 93.1804Z" fill="white"/>
<path d="M335.791 197.219L335.535 197.811C336.137 197.545 336.764 197.569 337.415 197.884C338.147 198.237 338.51 198.758 338.503 199.447C338.799 199.28 339.122 199.185 339.475 199.165C339.83 199.145 340.198 199.227 340.578 199.411C341.726 199.965 342.016 200.855 341.449 202.08L339.756 205.587L338.861 205.155L340.528 201.701C340.709 201.327 340.758 201.007 340.676 200.741C340.595 200.471 340.353 200.239 339.95 200.044C339.618 199.884 339.294 199.851 338.978 199.945C338.664 200.036 338.408 200.24 338.211 200.559L336.534 204.031L335.635 203.597L337.29 200.168C337.658 199.407 337.469 198.846 336.724 198.487C336.137 198.203 335.615 198.259 335.158 198.655L333.313 202.476L332.418 202.044L334.945 196.811L335.791 197.219ZM344.341 207.801C344.339 207.672 344.386 207.468 344.481 207.188C343.857 207.42 343.256 207.396 342.679 207.117C342.163 206.868 341.809 206.518 341.617 206.068C341.43 205.616 341.444 205.165 341.661 204.717C341.924 204.172 342.334 203.849 342.892 203.749C343.454 203.647 344.111 203.777 344.862 204.14L345.733 204.56L345.931 204.149C346.082 203.836 346.108 203.543 346.01 203.268C345.913 202.991 345.683 202.765 345.319 202.589C344.999 202.434 344.693 202.386 344.399 202.443C344.105 202.5 343.903 202.643 343.792 202.872L342.893 202.437C343.019 202.176 343.232 201.969 343.533 201.816C343.838 201.661 344.183 201.589 344.567 201.6C344.955 201.612 345.339 201.71 345.72 201.894C346.323 202.185 346.722 202.564 346.917 203.032C347.114 203.497 347.092 203.997 346.849 204.532L345.686 206.941C345.454 207.422 345.331 207.833 345.317 208.176L345.279 208.254L344.341 207.801ZM343.185 206.402C343.466 206.537 343.767 206.593 344.088 206.569C344.41 206.546 344.683 206.445 344.908 206.267L345.427 205.194L344.725 204.855C343.629 204.326 342.926 204.382 342.616 205.023C342.481 205.304 342.468 205.568 342.579 205.817C342.69 206.065 342.892 206.26 343.185 206.402ZM347.47 209.312L346.576 208.88L349.102 203.646L349.997 204.078L347.47 209.312ZM349.7 202.223C349.77 202.078 349.873 201.976 350.008 201.918C350.147 201.862 350.303 201.876 350.477 201.96C350.651 202.044 350.759 202.158 350.801 202.301C350.843 202.445 350.829 202.589 350.759 202.734C350.689 202.879 350.586 202.979 350.449 203.032C350.312 203.085 350.156 203.069 349.982 202.985C349.808 202.901 349.699 202.789 349.655 202.649C349.615 202.51 349.63 202.368 349.7 202.223ZM352.28 205.18L351.992 205.852C352.634 205.542 353.278 205.543 353.923 205.854C355.029 206.388 355.286 207.282 354.693 208.534L353.023 211.993L352.128 211.56L353.8 208.097C353.979 207.718 354.027 207.398 353.943 207.134C353.863 206.873 353.643 206.656 353.285 206.483C352.995 206.343 352.703 206.297 352.409 206.346C352.115 206.395 351.846 206.516 351.602 206.708L349.802 210.437L348.907 210.005L351.434 204.772L352.28 205.18Z" fill="white"/>
<path d="M335.791 345.219L335.535 345.811C336.137 345.545 336.764 345.569 337.415 345.884C338.147 346.237 338.51 346.758 338.503 347.447C338.799 347.28 339.122 347.185 339.475 347.165C339.83 347.145 340.198 347.227 340.578 347.411C341.726 347.965 342.016 348.855 341.449 350.08L339.756 353.587L338.861 353.155L340.528 349.701C340.709 349.327 340.758 349.007 340.676 348.741C340.595 348.471 340.353 348.239 339.95 348.044C339.618 347.884 339.294 347.851 338.978 347.945C338.664 348.036 338.408 348.24 338.211 348.559L336.534 352.031L335.635 351.597L337.29 348.168C337.658 347.407 337.469 346.846 336.724 346.487C336.137 346.203 335.615 346.259 335.158 346.655L333.313 350.476L332.418 350.044L334.945 344.811L335.791 345.219ZM344.341 355.801C344.339 355.672 344.386 355.468 344.481 355.188C343.857 355.42 343.256 355.396 342.679 355.117C342.163 354.868 341.809 354.518 341.617 354.068C341.43 353.616 341.444 353.165 341.661 352.717C341.924 352.172 342.334 351.849 342.892 351.749C343.454 351.647 344.111 351.777 344.862 352.14L345.733 352.56L345.931 352.149C346.082 351.836 346.108 351.543 346.01 351.268C345.913 350.991 345.683 350.765 345.319 350.589C344.999 350.434 344.693 350.386 344.399 350.443C344.105 350.5 343.903 350.643 343.792 350.872L342.893 350.437C343.019 350.176 343.232 349.969 343.533 349.816C343.838 349.661 344.183 349.589 344.567 349.6C344.955 349.612 345.339 349.71 345.72 349.894C346.323 350.185 346.722 350.564 346.917 351.032C347.114 351.497 347.092 351.997 346.849 352.532L345.686 354.941C345.454 355.422 345.331 355.833 345.317 356.176L345.279 356.254L344.341 355.801ZM343.185 354.402C343.466 354.537 343.767 354.593 344.088 354.569C344.41 354.546 344.683 354.445 344.908 354.267L345.427 353.194L344.725 352.855C343.629 352.326 342.926 352.382 342.616 353.023C342.481 353.304 342.468 353.568 342.579 353.817C342.69 354.065 342.892 354.26 343.185 354.402ZM347.47 357.312L346.576 356.88L349.102 351.646L349.997 352.078L347.47 357.312ZM349.7 350.223C349.77 350.078 349.873 349.976 350.008 349.918C350.147 349.862 350.303 349.876 350.477 349.96C350.651 350.044 350.759 350.158 350.801 350.301C350.843 350.445 350.829 350.589 350.759 350.734C350.689 350.879 350.586 350.979 350.449 351.032C350.312 351.085 350.156 351.069 349.982 350.985C349.808 350.901 349.699 350.789 349.655 350.649C349.615 350.51 349.63 350.368 349.7 350.223ZM352.28 353.18L351.992 353.852C352.634 353.542 353.278 353.543 353.923 353.854C355.029 354.388 355.286 355.282 354.693 356.534L353.023 359.993L352.128 359.56L353.8 356.097C353.979 355.718 354.027 355.398 353.943 355.134C353.863 354.873 353.643 354.656 353.285 354.483C352.995 354.343 352.703 354.297 352.409 354.346C352.115 354.395 351.846 354.516 351.602 354.708L349.802 358.437L348.907 358.005L351.434 352.772L352.28 353.18Z" fill="white"/>
<line x1="73" y1="74.5" x2="296" y2="74.5" stroke="#4000C7"/>
<line x1="73" y1="186.5" x2="296" y2="186.5" stroke="#4000C7"/>
<line x1="73" y1="334.5" x2="296" y2="334.5" stroke="#4000C7"/>
</svg>
