<svg width="1152" height="587" viewBox="0 0 1152 587" fill="none" xmlns="http://www.w3.org/2000/svg">
<path d="M0 0H1152V587H0V0Z" fill="white" fill-opacity="0.01"/>
<circle cx="386.5" cy="335.5" r="9" fill="#4000C7" stroke="#4000C7" stroke-dasharray="2 2"/>
<path d="M368.665 469H367.762V463.717H368.665V469ZM367.688 462.315C367.688 462.169 367.732 462.045 367.82 461.944C367.911 461.843 368.045 461.793 368.221 461.793C368.396 461.793 368.53 461.843 368.621 461.944C368.712 462.045 368.758 462.169 368.758 462.315C368.758 462.462 368.712 462.584 368.621 462.682C368.53 462.779 368.396 462.828 368.221 462.828C368.045 462.828 367.911 462.779 367.82 462.682C367.732 462.584 367.688 462.462 367.688 462.315ZM370.97 463.717L370.999 464.381C371.403 463.873 371.93 463.619 372.581 463.619C373.698 463.619 374.261 464.249 374.271 465.509V469H373.367V465.504C373.364 465.123 373.276 464.841 373.104 464.659C372.934 464.477 372.669 464.386 372.308 464.386C372.015 464.386 371.757 464.464 371.536 464.62C371.315 464.776 371.142 464.981 371.019 465.235V469H370.115V463.717H370.97ZM375.413 466.314C375.413 465.504 375.605 464.853 375.989 464.361C376.373 463.867 376.876 463.619 377.498 463.619C378.117 463.619 378.606 463.831 378.968 464.254V461.5H379.871V469H379.041L378.997 468.434C378.636 468.876 378.133 469.098 377.488 469.098C376.876 469.098 376.377 468.847 375.989 468.346C375.605 467.844 375.413 467.19 375.413 466.383V466.314ZM376.316 466.417C376.316 467.016 376.44 467.485 376.688 467.823C376.935 468.162 377.277 468.331 377.713 468.331C378.286 468.331 378.704 468.074 378.968 467.56V465.133C378.698 464.635 378.283 464.386 377.723 464.386C377.28 464.386 376.935 464.557 376.688 464.898C376.44 465.24 376.316 465.746 376.316 466.417ZM383.47 469.098C382.754 469.098 382.171 468.863 381.722 468.395C381.272 467.923 381.048 467.293 381.048 466.505V466.339C381.048 465.815 381.147 465.348 381.346 464.938C381.548 464.524 381.827 464.202 382.186 463.971C382.547 463.736 382.938 463.619 383.357 463.619C384.044 463.619 384.578 463.845 384.959 464.298C385.34 464.75 385.53 465.398 385.53 466.241V466.617H381.951C381.964 467.138 382.116 467.56 382.405 467.882C382.698 468.201 383.069 468.36 383.519 468.36C383.838 468.36 384.108 468.295 384.329 468.165C384.55 468.035 384.744 467.862 384.91 467.647L385.462 468.077C385.019 468.757 384.355 469.098 383.47 469.098ZM383.357 464.361C382.993 464.361 382.687 464.495 382.439 464.762C382.192 465.025 382.039 465.396 381.98 465.875H384.627V465.807C384.601 465.348 384.477 464.993 384.256 464.742C384.035 464.488 383.735 464.361 383.357 464.361ZM388.353 465.646L389.524 463.717H390.579L388.851 466.329L390.633 469H389.588L388.367 467.022L387.146 469H386.097L387.879 466.329L386.15 463.717H387.195L388.353 465.646ZM391.561 468.526C391.561 468.37 391.606 468.24 391.697 468.136C391.792 468.032 391.932 467.979 392.117 467.979C392.303 467.979 392.443 468.032 392.537 468.136C392.635 468.24 392.684 468.37 392.684 468.526C392.684 468.676 392.635 468.801 392.537 468.902C392.443 469.003 392.303 469.054 392.117 469.054C391.932 469.054 391.792 469.003 391.697 468.902C391.606 468.801 391.561 468.676 391.561 468.526ZM395.11 463.717V469.61C395.11 470.626 394.65 471.134 393.729 471.134C393.53 471.134 393.346 471.104 393.177 471.046V470.323C393.281 470.349 393.418 470.362 393.587 470.362C393.789 470.362 393.942 470.307 394.046 470.196C394.153 470.089 394.207 469.9 394.207 469.63V463.717H395.11ZM394.114 462.315C394.114 462.172 394.158 462.05 394.246 461.949C394.337 461.845 394.469 461.793 394.642 461.793C394.817 461.793 394.951 461.843 395.042 461.944C395.133 462.045 395.179 462.169 395.179 462.315C395.179 462.462 395.133 462.584 395.042 462.682C394.951 462.779 394.817 462.828 394.642 462.828C394.466 462.828 394.334 462.779 394.246 462.682C394.158 462.584 394.114 462.462 394.114 462.315ZM399.646 467.599C399.646 467.354 399.554 467.166 399.368 467.032C399.186 466.896 398.865 466.778 398.406 466.681C397.951 466.583 397.588 466.466 397.317 466.329C397.05 466.192 396.852 466.03 396.722 465.841C396.595 465.652 396.531 465.427 396.531 465.167C396.531 464.734 396.714 464.368 397.078 464.068C397.446 463.769 397.915 463.619 398.484 463.619C399.083 463.619 399.568 463.774 399.939 464.083C400.314 464.392 400.501 464.788 400.501 465.27H399.593C399.593 465.022 399.487 464.809 399.275 464.63C399.067 464.451 398.803 464.361 398.484 464.361C398.156 464.361 397.898 464.433 397.713 464.576C397.527 464.719 397.435 464.907 397.435 465.138C397.435 465.356 397.521 465.52 397.693 465.631C397.866 465.742 398.177 465.847 398.626 465.948C399.078 466.049 399.445 466.17 399.725 466.31C400.005 466.45 400.211 466.619 400.345 466.817C400.481 467.013 400.55 467.252 400.55 467.535C400.55 468.007 400.361 468.386 399.983 468.673C399.606 468.956 399.116 469.098 398.514 469.098C398.09 469.098 397.716 469.023 397.391 468.873C397.065 468.723 396.81 468.515 396.624 468.248C396.442 467.978 396.351 467.687 396.351 467.374H397.254C397.27 467.677 397.391 467.918 397.615 468.097C397.843 468.272 398.143 468.36 398.514 468.36C398.855 468.36 399.129 468.292 399.334 468.155C399.542 468.015 399.646 467.83 399.646 467.599Z" fill="#4000C7"/>
<path d="M393.746 439.016L387.938 433.252C387.776 433.091 387.558 433 387.328 433H375.864C375.386 433 375 433.383 375 433.857V456.143C375 456.617 375.386 457 375.864 457H393.136C393.614 457 394 456.617 394 456.143V439.624C394 439.396 393.908 439.177 393.746 439.016ZM392.008 440.018H386.929V434.977L392.008 440.018ZM392.057 455.071H376.943V434.929H385.094V440.714C385.094 441.013 385.213 441.299 385.426 441.51C385.638 441.721 385.927 441.839 386.227 441.839H392.057V455.071ZM384.284 447.839H379.318C379.199 447.839 379.102 447.936 379.102 448.054V449.339C379.102 449.457 379.199 449.554 379.318 449.554H384.284C384.403 449.554 384.5 449.457 384.5 449.339V448.054C384.5 447.936 384.403 447.839 384.284 447.839ZM379.102 444.411V445.696C379.102 445.814 379.199 445.911 379.318 445.911H389.682C389.801 445.911 389.898 445.814 389.898 445.696V444.411C389.898 444.293 389.801 444.196 389.682 444.196H379.318C379.199 444.196 379.102 444.293 379.102 444.411Z" fill="#4000C7"/>
<circle cx="63.5" cy="74.5" r="9.5" fill="#4000C7"/>
<circle cx="63.5" cy="176.5" r="9.5" fill="#4000C7"/>
<circle cx="63.5" cy="334.5" r="9.5" fill="#4000C7"/>
<circle cx="143.5" cy="74.5" r="9.5" fill="#4000C7"/>
<circle cx="143.5" cy="176.5" r="9.5" fill="#4000C7"/>
<circle cx="143.5" cy="334.5" r="9.5" fill="#4000C7"/>
<circle cx="224.5" cy="74.5" r="9.5" fill="#4000C7"/>
<circle cx="224.5" cy="176.5" r="9.5" fill="#4000C7"/>
<circle cx="224.5" cy="334.5" r="9.5" fill="#4000C7"/>
<circle cx="305.5" cy="74.5" r="9.5" fill="#4000C7"/>
<circle cx="386.5" cy="74.5" r="9.5" fill="#4000C7"/>
<circle cx="305.5" cy="176.5" r="9.5" fill="#4000C7"/>
<circle cx="305.5" cy="334.5" r="9.5" fill="#4000C7"/>
<rect x="404.031" y="91.2095" width="18" height="41" rx="5" transform="rotate(-64.2277 404.031 91.2095)" fill="black"/>
<rect x="406.031" y="351.209" width="18" height="41" rx="5" transform="rotate(-64.2277 406.031 351.209)" fill="black"/>
<path d="M400.739 79.6266L409.456 79.9884L406.443 86.2275L400.739 79.6266Z" fill="black"/>
<path d="M402.739 339.626L411.456 339.988L408.443 346.227L402.739 339.626Z" fill="black"/>
<path d="M417.791 85.2192L417.535 85.8113C418.137 85.5452 418.764 85.5693 419.415 85.8838C420.147 86.2372 420.51 86.7583 420.503 87.4471C420.799 87.2796 421.122 87.1854 421.475 87.1646C421.83 87.1452 422.198 87.2274 422.578 87.4111C423.726 87.9654 424.016 88.855 423.449 90.08L421.756 93.5867L420.861 93.1547L422.528 89.7012C422.709 89.3271 422.758 89.0069 422.676 88.7406C422.595 88.4711 422.353 88.239 421.95 88.0444C421.618 87.884 421.294 87.8509 420.978 87.9449C420.664 88.0358 420.408 88.2403 420.211 88.5585L418.534 92.0314L417.635 91.597L419.29 88.1677C419.658 87.4067 419.469 86.8464 418.724 86.4867C418.137 86.2034 417.615 86.2595 417.158 86.655L415.313 90.4761L414.418 90.044L416.945 84.8106L417.791 85.2192ZM426.341 95.8006C426.339 95.6725 426.386 95.4685 426.481 95.1885C425.857 95.4197 425.256 95.396 424.679 95.1173C424.163 94.8682 423.809 94.5184 423.617 94.0678C423.43 93.6156 423.444 93.1654 423.661 92.7172C423.924 92.1722 424.334 91.8494 424.892 91.7488C425.454 91.6466 426.111 91.7768 426.862 92.1396L427.733 92.5599L427.931 92.1488C428.082 91.836 428.108 91.5426 428.01 91.2685C427.913 90.9911 427.683 90.7645 427.319 90.5886C426.999 90.4345 426.693 90.3858 426.399 90.4428C426.105 90.4997 425.903 90.6426 425.792 90.8715L424.893 90.4372C425.019 90.176 425.232 89.9688 425.533 89.8157C425.838 89.661 426.183 89.5889 426.567 89.5996C426.955 89.6119 427.339 89.7099 427.72 89.8936C428.323 90.1847 428.722 90.5644 428.917 91.0325C429.114 91.4974 429.092 91.9974 428.849 92.5324L427.686 94.9412C427.454 95.4216 427.331 95.8333 427.317 96.1763L427.279 96.2536L426.341 95.8006ZM425.185 94.4017C425.466 94.5371 425.767 94.593 426.088 94.5693C426.41 94.5457 426.683 94.445 426.908 94.2673L427.427 93.1935L426.725 92.8549C425.629 92.3256 424.926 92.3817 424.616 93.0234C424.481 93.304 424.468 93.5684 424.579 93.8167C424.69 94.065 424.892 94.26 425.185 94.4017ZM429.47 97.3115L428.576 96.8795L431.102 91.6461L431.997 92.0781L429.47 97.3115ZM431.7 90.2229C431.77 90.0778 431.873 89.9762 432.008 89.9183C432.147 89.862 432.303 89.8758 432.477 89.9599C432.651 90.0439 432.759 90.1578 432.801 90.3013C432.843 90.4449 432.829 90.5892 432.759 90.7343C432.689 90.8794 432.586 90.9785 432.449 91.0317C432.312 91.0848 432.156 91.0694 431.982 90.9853C431.808 90.9012 431.699 90.789 431.655 90.6487C431.615 90.5099 431.63 90.368 431.7 90.2229ZM434.28 93.1804L433.992 93.8522C434.634 93.5422 435.278 93.5429 435.923 93.8543C437.029 94.3883 437.286 95.2816 436.693 96.5342L435.023 99.9925L434.128 99.5605L435.8 96.0973C435.979 95.7185 436.027 95.3975 435.943 95.1344C435.863 94.8729 435.643 94.6557 435.285 94.4829C434.995 94.3428 434.703 94.2972 434.409 94.3461C434.115 94.395 433.846 94.5156 433.602 94.708L431.802 98.4372L430.907 98.0051L433.434 92.7717L434.28 93.1804Z" fill="white"/>
<path d="M419.791 345.219L419.535 345.811C420.137 345.545 420.764 345.569 421.415 345.884C422.147 346.237 422.51 346.758 422.503 347.447C422.799 347.279 423.122 347.185 423.475 347.164C423.83 347.145 424.198 347.227 424.578 347.411C425.726 347.965 426.016 348.855 425.449 350.08L423.756 353.586L422.861 353.154L424.528 349.701C424.709 349.327 424.758 349.007 424.676 348.74C424.595 348.471 424.353 348.239 423.95 348.044C423.618 347.884 423.294 347.851 422.978 347.945C422.664 348.036 422.408 348.24 422.211 348.558L420.534 352.031L419.635 351.597L421.29 348.167C421.658 347.406 421.469 346.846 420.724 346.487C420.137 346.203 419.615 346.259 419.158 346.655L417.313 350.476L416.418 350.044L418.945 344.81L419.791 345.219ZM428.341 355.8C428.339 355.672 428.386 355.468 428.481 355.188C427.857 355.419 427.256 355.396 426.679 355.117C426.163 354.868 425.809 354.518 425.617 354.068C425.43 353.615 425.444 353.165 425.661 352.717C425.924 352.172 426.334 351.849 426.892 351.749C427.454 351.646 428.111 351.777 428.862 352.139L429.733 352.56L429.931 352.149C430.082 351.836 430.108 351.542 430.01 351.268C429.913 350.991 429.683 350.764 429.319 350.588C428.999 350.434 428.693 350.386 428.399 350.443C428.105 350.499 427.903 350.642 427.792 350.871L426.893 350.437C427.019 350.176 427.232 349.969 427.533 349.816C427.838 349.661 428.183 349.589 428.567 349.599C428.955 349.612 429.339 349.71 429.72 349.893C430.323 350.184 430.722 350.564 430.917 351.032C431.114 351.497 431.092 351.997 430.849 352.532L429.686 354.941C429.454 355.421 429.331 355.833 429.317 356.176L429.279 356.253L428.341 355.8ZM427.185 354.401C427.466 354.537 427.767 354.593 428.088 354.569C428.41 354.545 428.683 354.445 428.908 354.267L429.427 353.193L428.725 352.855C427.629 352.325 426.926 352.381 426.616 353.023C426.481 353.304 426.468 353.568 426.579 353.816C426.69 354.065 426.892 354.26 427.185 354.401ZM431.47 357.311L430.576 356.879L433.102 351.646L433.997 352.078L431.47 357.311ZM433.7 350.223C433.77 350.078 433.873 349.976 434.008 349.918C434.147 349.862 434.303 349.876 434.477 349.96C434.651 350.044 434.759 350.158 434.801 350.301C434.843 350.445 434.829 350.589 434.759 350.734C434.689 350.879 434.586 350.978 434.449 351.031C434.312 351.085 434.156 351.069 433.982 350.985C433.808 350.901 433.699 350.789 433.655 350.648C433.615 350.51 433.63 350.368 433.7 350.223ZM436.28 353.18L435.992 353.852C436.634 353.542 437.278 353.543 437.923 353.854C439.029 354.388 439.286 355.281 438.693 356.534L437.023 359.992L436.128 359.56L437.8 356.097C437.979 355.718 438.027 355.397 437.943 355.134C437.863 354.873 437.643 354.655 437.285 354.483C436.995 354.343 436.703 354.297 436.409 354.346C436.115 354.395 435.846 354.515 435.602 354.708L433.802 358.437L432.907 358.005L435.434 352.771L436.28 353.18Z" fill="white"/>
<line x1="73" y1="74.5" x2="377" y2="74.5" stroke="#4000C7"/>
<line x1="73" y1="176.5" x2="315" y2="176.5" stroke="#4000C7"/>
<line x1="73" y1="334.5" x2="377" y2="334.5" stroke="#4000C7"/>
<path d="M372.931 43.0059H373.609C374.036 42.9993 374.371 42.887 374.615 42.6689C374.859 42.4508 374.981 42.1562 374.981 41.7852C374.981 40.9518 374.566 40.5352 373.736 40.5352C373.346 40.5352 373.033 40.6475 372.799 40.8721C372.568 41.0934 372.452 41.388 372.452 41.7559H371.549C371.549 41.1927 371.754 40.7256 372.164 40.3545C372.577 39.9801 373.102 39.793 373.736 39.793C374.407 39.793 374.933 39.9704 375.313 40.3252C375.694 40.68 375.885 41.1732 375.885 41.8047C375.885 42.1139 375.784 42.4134 375.582 42.7031C375.383 42.9928 375.112 43.2093 374.767 43.3525C375.157 43.4762 375.458 43.6813 375.67 43.9678C375.885 44.2542 375.992 44.6042 375.992 45.0176C375.992 45.6556 375.784 46.1618 375.367 46.5361C374.951 46.9105 374.409 47.0977 373.741 47.0977C373.074 47.0977 372.53 46.917 372.11 46.5557C371.694 46.1943 371.485 45.7174 371.485 45.125H372.394C372.394 45.4993 372.516 45.7988 372.76 46.0234C373.004 46.248 373.331 46.3604 373.741 46.3604C374.177 46.3604 374.511 46.2464 374.742 46.0186C374.973 45.7907 375.089 45.4635 375.089 45.0371C375.089 44.6237 374.962 44.3063 374.708 44.085C374.454 43.8636 374.088 43.7497 373.609 43.7432H372.931V43.0059ZM379.518 47.0977C378.801 47.0977 378.219 46.8633 377.77 46.3945C377.32 45.9225 377.096 45.2926 377.096 44.5049V44.3389C377.096 43.8148 377.195 43.3477 377.394 42.9375C377.595 42.5241 377.875 42.2018 378.233 41.9707C378.595 41.7363 378.985 41.6191 379.405 41.6191C380.092 41.6191 380.626 41.8454 381.007 42.2979C381.388 42.7503 381.578 43.3981 381.578 44.2412V44.6172H377.999C378.012 45.138 378.163 45.5596 378.453 45.8818C378.746 46.2008 379.117 46.3604 379.566 46.3604C379.885 46.3604 380.156 46.2952 380.377 46.165C380.598 46.0348 380.792 45.8623 380.958 45.6475L381.51 46.0771C381.067 46.7575 380.403 47.0977 379.518 47.0977ZM379.405 42.3613C379.041 42.3613 378.735 42.4948 378.487 42.7617C378.24 43.0254 378.087 43.3965 378.028 43.875H380.675V43.8066C380.649 43.3477 380.525 42.9928 380.304 42.7422C380.082 42.4883 379.783 42.3613 379.405 42.3613ZM383.072 47V42.415H382.237V41.7168H383.072V41.1748C383.072 40.6084 383.224 40.1706 383.526 39.8613C383.829 39.5521 384.257 39.3975 384.811 39.3975C385.019 39.3975 385.226 39.4251 385.431 39.4805L385.382 40.2129C385.229 40.1836 385.066 40.1689 384.894 40.1689C384.601 40.1689 384.374 40.2552 384.215 40.4277C384.055 40.597 383.976 40.8411 383.976 41.1602V41.7168H385.104V42.415H383.976V47H383.072ZM385.772 44.3145C385.772 43.4909 385.963 42.8366 386.344 42.3516C386.725 41.8633 387.229 41.6191 387.857 41.6191C388.502 41.6191 389.005 41.847 389.366 42.3027L389.41 41.7168H390.235V46.873C390.235 47.5566 390.032 48.0954 389.625 48.4893C389.221 48.8831 388.678 49.0801 387.994 49.0801C387.613 49.0801 387.241 48.9987 386.876 48.8359C386.511 48.6732 386.233 48.4502 386.041 48.167L386.51 47.625C386.897 48.1035 387.371 48.3428 387.931 48.3428C388.37 48.3428 388.712 48.2191 388.956 47.9717C389.203 47.7243 389.327 47.376 389.327 46.9268V46.4727C388.966 46.8893 388.473 47.0977 387.848 47.0977C387.229 47.0977 386.728 46.8486 386.344 46.3506C385.963 45.8525 385.772 45.1738 385.772 44.3145ZM386.681 44.417C386.681 45.0127 386.803 45.4814 387.047 45.8232C387.291 46.1618 387.633 46.3311 388.072 46.3311C388.642 46.3311 389.06 46.0723 389.327 45.5547V43.1426C389.05 42.638 388.635 42.3857 388.082 42.3857C387.643 42.3857 387.299 42.5566 387.052 42.8984C386.804 43.2402 386.681 43.7464 386.681 44.417ZM394.864 47C394.812 46.8958 394.77 46.7103 394.737 46.4434C394.317 46.8796 393.816 47.0977 393.233 47.0977C392.713 47.0977 392.285 46.9512 391.949 46.6582C391.617 46.362 391.451 45.9876 391.451 45.5352C391.451 44.985 391.66 44.5586 392.076 44.2559C392.496 43.9499 393.085 43.7969 393.844 43.7969H394.723V43.3818C394.723 43.0661 394.628 42.8154 394.439 42.6299C394.251 42.4411 393.972 42.3467 393.604 42.3467C393.282 42.3467 393.012 42.4281 392.794 42.5908C392.576 42.7536 392.467 42.9505 392.467 43.1816H391.559C391.559 42.918 391.651 42.6641 391.837 42.4199C392.026 42.1725 392.28 41.9772 392.599 41.834C392.921 41.6908 393.274 41.6191 393.658 41.6191C394.267 41.6191 394.744 41.7721 395.089 42.0781C395.434 42.3809 395.613 42.7992 395.626 43.333V45.7646C395.626 46.2497 395.688 46.6354 395.812 46.9219V47H394.864ZM393.365 46.3115C393.648 46.3115 393.917 46.2383 394.171 46.0918C394.425 45.9453 394.609 45.7549 394.723 45.5205V44.4365H394.015C392.908 44.4365 392.354 44.7604 392.354 45.4082C392.354 45.6914 392.449 45.9128 392.638 46.0723C392.826 46.2318 393.069 46.3115 393.365 46.3115ZM401.515 44.417C401.515 45.2243 401.329 45.8737 400.958 46.3652C400.587 46.8535 400.089 47.0977 399.464 47.0977C398.797 47.0977 398.281 46.8617 397.916 46.3896L397.872 47H397.042V39.5H397.945V42.2979C398.31 41.8454 398.813 41.6191 399.454 41.6191C400.095 41.6191 400.598 41.8617 400.963 42.3467C401.331 42.8317 401.515 43.4958 401.515 44.3389V44.417ZM400.611 44.3145C400.611 43.6992 400.493 43.224 400.255 42.8887C400.017 42.5534 399.675 42.3857 399.229 42.3857C398.634 42.3857 398.206 42.6624 397.945 43.2158V45.501C398.222 46.0544 398.653 46.3311 399.239 46.3311C399.672 46.3311 400.009 46.1634 400.25 45.8281C400.491 45.4928 400.611 44.9883 400.611 44.3145ZM360.704 59H359.801V53.7168H360.704V59ZM359.728 52.3154C359.728 52.1689 359.771 52.0452 359.859 51.9443C359.951 51.8434 360.084 51.793 360.26 51.793C360.436 51.793 360.569 51.8434 360.66 51.9443C360.751 52.0452 360.797 52.1689 360.797 52.3154C360.797 52.4619 360.751 52.584 360.66 52.6816C360.569 52.7793 360.436 52.8281 360.26 52.8281C360.084 52.8281 359.951 52.7793 359.859 52.6816C359.771 52.584 359.728 52.4619 359.728 52.3154ZM363.009 53.7168L363.038 54.3809C363.442 53.873 363.969 53.6191 364.62 53.6191C365.737 53.6191 366.3 54.249 366.31 55.5088V59H365.406V55.5039C365.403 55.123 365.315 54.8415 365.143 54.6592C364.973 54.4769 364.708 54.3857 364.347 54.3857C364.054 54.3857 363.797 54.4639 363.575 54.6201C363.354 54.7764 363.181 54.9814 363.058 55.2354V59H362.154V53.7168H363.009ZM367.452 56.3145C367.452 55.5039 367.644 54.8529 368.028 54.3613C368.412 53.8665 368.915 53.6191 369.537 53.6191C370.156 53.6191 370.646 53.8307 371.007 54.2539V51.5H371.91V59H371.08L371.036 58.4336C370.675 58.8763 370.172 59.0977 369.527 59.0977C368.915 59.0977 368.416 58.847 368.028 58.3457C367.644 57.8444 367.452 57.1901 367.452 56.3828V56.3145ZM368.355 56.417C368.355 57.016 368.479 57.4847 368.727 57.8232C368.974 58.1618 369.316 58.3311 369.752 58.3311C370.325 58.3311 370.743 58.0739 371.007 57.5596V55.1328C370.737 54.6348 370.322 54.3857 369.762 54.3857C369.319 54.3857 368.974 54.5566 368.727 54.8984C368.479 55.2402 368.355 55.7464 368.355 56.417ZM375.509 59.0977C374.793 59.0977 374.21 58.8633 373.761 58.3945C373.312 57.9225 373.087 57.2926 373.087 56.5049V56.3389C373.087 55.8148 373.186 55.3477 373.385 54.9375C373.587 54.5241 373.867 54.2018 374.225 53.9707C374.586 53.7363 374.977 53.6191 375.396 53.6191C376.083 53.6191 376.617 53.8454 376.998 54.2979C377.379 54.7503 377.569 55.3981 377.569 56.2412V56.6172H373.99C374.003 57.138 374.155 57.5596 374.444 57.8818C374.737 58.2008 375.108 58.3604 375.558 58.3604C375.877 58.3604 376.147 58.2952 376.368 58.165C376.59 58.0348 376.783 57.8623 376.949 57.6475L377.501 58.0771C377.058 58.7575 376.394 59.0977 375.509 59.0977ZM375.396 54.3613C375.032 54.3613 374.726 54.4948 374.479 54.7617C374.231 55.0254 374.078 55.3965 374.02 55.875H376.666V55.8066C376.64 55.3477 376.516 54.9928 376.295 54.7422C376.074 54.4883 375.774 54.3613 375.396 54.3613ZM380.392 55.6455L381.563 53.7168H382.618L380.89 56.3291L382.672 59H381.627L380.406 57.0225L379.186 59H378.136L379.918 56.3291L378.189 53.7168H379.234L380.392 55.6455ZM383.6 58.5264C383.6 58.3701 383.645 58.2399 383.736 58.1357C383.831 58.0316 383.971 57.9795 384.156 57.9795C384.342 57.9795 384.482 58.0316 384.576 58.1357C384.674 58.2399 384.723 58.3701 384.723 58.5264C384.723 58.6761 384.674 58.8014 384.576 58.9023C384.482 59.0033 384.342 59.0537 384.156 59.0537C383.971 59.0537 383.831 59.0033 383.736 58.9023C383.645 58.8014 383.6 58.6761 383.6 58.5264ZM387.149 53.7168V59.6104C387.149 60.626 386.689 61.1338 385.768 61.1338C385.569 61.1338 385.385 61.1045 385.216 61.0459V60.3232C385.32 60.3493 385.457 60.3623 385.626 60.3623C385.828 60.3623 385.981 60.307 386.085 60.1963C386.192 60.0889 386.246 59.9001 386.246 59.6299V53.7168H387.149ZM386.153 52.3154C386.153 52.1722 386.197 52.0501 386.285 51.9492C386.376 51.8451 386.508 51.793 386.681 51.793C386.856 51.793 386.99 51.8434 387.081 51.9443C387.172 52.0452 387.218 52.1689 387.218 52.3154C387.218 52.4619 387.172 52.584 387.081 52.6816C386.99 52.7793 386.856 52.8281 386.681 52.8281C386.505 52.8281 386.373 52.7793 386.285 52.6816C386.197 52.584 386.153 52.4619 386.153 52.3154ZM391.686 57.5986C391.686 57.3545 391.593 57.1657 391.407 57.0322C391.225 56.8955 390.904 56.7783 390.445 56.6807C389.99 56.583 389.627 56.4658 389.356 56.3291C389.09 56.1924 388.891 56.0296 388.761 55.8408C388.634 55.652 388.57 55.4274 388.57 55.167C388.57 54.734 388.753 54.3678 389.117 54.0684C389.485 53.7689 389.954 53.6191 390.523 53.6191C391.122 53.6191 391.607 53.7738 391.979 54.083C392.353 54.3923 392.54 54.7878 392.54 55.2695H391.632C391.632 55.0221 391.526 54.8089 391.314 54.6299C391.106 54.4508 390.842 54.3613 390.523 54.3613C390.195 54.3613 389.938 54.4329 389.752 54.5762C389.566 54.7194 389.474 54.9066 389.474 55.1377C389.474 55.3558 389.56 55.5202 389.732 55.6309C389.905 55.7415 390.216 55.8473 390.665 55.9482C391.118 56.0492 391.484 56.1696 391.764 56.3096C392.044 56.4495 392.25 56.6188 392.384 56.8174C392.521 57.0127 392.589 57.252 392.589 57.5352C392.589 58.0072 392.4 58.3864 392.022 58.6729C391.645 58.9561 391.155 59.0977 390.553 59.0977C390.13 59.0977 389.755 59.0228 389.43 58.873C389.104 58.7233 388.849 58.515 388.663 58.248C388.481 57.9779 388.39 57.6865 388.39 57.374H389.293C389.309 57.6768 389.43 57.9176 389.654 58.0967C389.882 58.2725 390.182 58.3604 390.553 58.3604C390.895 58.3604 391.168 58.292 391.373 58.1553C391.581 58.0153 391.686 57.8298 391.686 57.5986ZM403.813 54.19C402.183 53.95 400.583 52.84 400.583 51.59V51.09H399.723V51.59C399.723 52.87 398.143 53.95 396.513 54.19L396.843 54.85C398.243 54.61 399.593 53.84 400.153 52.75C400.733 53.83 402.083 54.61 403.473 54.85L403.813 54.19ZM404.203 55.82H396.103V56.5H399.723V59.75H400.543V56.5H404.213L404.203 55.82ZM410.082 53.1V53.77H411.852V56.12H412.682V50.78H411.852V53.1H410.082ZM410.582 55.14C409.282 54.68 408.402 53.55 408.402 52.4V52.09H410.372V51.43H405.582V52.09H407.582V52.4C407.582 53.69 406.662 54.9 405.322 55.39L405.752 56.04C406.802 55.64 407.632 54.8 408.012 53.76C408.402 54.68 409.172 55.42 410.172 55.78L410.582 55.14ZM409.722 59.1C408.372 59.1 407.552 58.72 407.552 58.07C407.552 57.42 408.372 57.03 409.722 57.03C411.072 57.03 411.892 57.42 411.892 58.07C411.892 58.72 411.072 59.1 409.722 59.1ZM409.722 56.4C407.882 56.4 406.732 57.01 406.732 58.07C406.732 59.13 407.882 59.74 409.722 59.74C411.562 59.74 412.712 59.13 412.712 58.07C412.712 57.01 411.562 56.4 409.722 56.4Z" fill="black"/>
<path d="M292.164 146.436L292.525 142.891H296.168V143.726H293.292L293.077 145.664C293.425 145.459 293.821 145.356 294.264 145.356C294.911 145.356 295.426 145.571 295.807 146.001C296.188 146.427 296.378 147.005 296.378 147.734C296.378 148.467 296.179 149.045 295.782 149.468C295.388 149.888 294.837 150.098 294.127 150.098C293.499 150.098 292.986 149.924 292.589 149.575C292.192 149.227 291.965 148.745 291.91 148.13H292.765C292.82 148.537 292.965 148.844 293.199 149.053C293.434 149.258 293.743 149.36 294.127 149.36C294.547 149.36 294.876 149.217 295.113 148.931C295.354 148.644 295.475 148.249 295.475 147.744C295.475 147.269 295.344 146.888 295.084 146.602C294.827 146.312 294.483 146.167 294.054 146.167C293.66 146.167 293.351 146.253 293.126 146.426L292.887 146.621L292.164 146.436ZM299.576 149.36C299.898 149.36 300.18 149.263 300.421 149.067C300.662 148.872 300.795 148.628 300.821 148.335H301.676C301.66 148.638 301.555 148.926 301.363 149.199C301.171 149.473 300.914 149.691 300.592 149.854C300.273 150.016 299.934 150.098 299.576 150.098C298.857 150.098 298.284 149.858 297.857 149.38C297.434 148.898 297.223 148.241 297.223 147.407V147.256C297.223 146.742 297.317 146.284 297.506 145.884C297.695 145.483 297.965 145.173 298.316 144.951C298.671 144.73 299.09 144.619 299.571 144.619C300.164 144.619 300.655 144.797 301.046 145.151C301.44 145.506 301.65 145.967 301.676 146.533H300.821C300.795 146.191 300.665 145.911 300.431 145.693C300.2 145.472 299.913 145.361 299.571 145.361C299.112 145.361 298.756 145.527 298.502 145.859C298.251 146.188 298.126 146.665 298.126 147.29V147.461C298.126 148.07 298.251 148.538 298.502 148.867C298.753 149.196 299.111 149.36 299.576 149.36ZM304.884 150.098C304.168 150.098 303.585 149.863 303.136 149.395C302.687 148.923 302.462 148.293 302.462 147.505V147.339C302.462 146.815 302.561 146.348 302.76 145.938C302.962 145.524 303.242 145.202 303.6 144.971C303.961 144.736 304.352 144.619 304.771 144.619C305.458 144.619 305.992 144.845 306.373 145.298C306.754 145.75 306.944 146.398 306.944 147.241V147.617H303.365C303.378 148.138 303.53 148.56 303.819 148.882C304.112 149.201 304.483 149.36 304.933 149.36C305.252 149.36 305.522 149.295 305.743 149.165C305.965 149.035 306.158 148.862 306.324 148.647L306.876 149.077C306.433 149.757 305.769 150.098 304.884 150.098ZM304.771 145.361C304.407 145.361 304.101 145.495 303.854 145.762C303.606 146.025 303.453 146.396 303.395 146.875H306.041V146.807C306.015 146.348 305.891 145.993 305.67 145.742C305.449 145.488 305.149 145.361 304.771 145.361ZM308.438 150V145.415H307.604V144.717H308.438V144.175C308.438 143.608 308.59 143.171 308.893 142.861C309.195 142.552 309.623 142.397 310.177 142.397C310.385 142.397 310.592 142.425 310.797 142.48L310.748 143.213C310.595 143.184 310.432 143.169 310.26 143.169C309.967 143.169 309.741 143.255 309.581 143.428C309.422 143.597 309.342 143.841 309.342 144.16V144.717H310.47V145.415H309.342V150H308.438ZM314.732 150C314.68 149.896 314.638 149.71 314.605 149.443C314.186 149.88 313.684 150.098 313.102 150.098C312.581 150.098 312.153 149.951 311.817 149.658C311.485 149.362 311.319 148.988 311.319 148.535C311.319 147.985 311.528 147.559 311.944 147.256C312.364 146.95 312.953 146.797 313.712 146.797H314.591V146.382C314.591 146.066 314.496 145.815 314.308 145.63C314.119 145.441 313.84 145.347 313.473 145.347C313.15 145.347 312.88 145.428 312.662 145.591C312.444 145.754 312.335 145.951 312.335 146.182H311.427C311.427 145.918 311.52 145.664 311.705 145.42C311.894 145.173 312.148 144.977 312.467 144.834C312.789 144.691 313.142 144.619 313.526 144.619C314.135 144.619 314.612 144.772 314.957 145.078C315.302 145.381 315.481 145.799 315.494 146.333V148.765C315.494 149.25 315.556 149.635 315.68 149.922V150H314.732ZM313.233 149.312C313.517 149.312 313.785 149.238 314.039 149.092C314.293 148.945 314.477 148.755 314.591 148.521V147.437H313.883C312.776 147.437 312.223 147.76 312.223 148.408C312.223 148.691 312.317 148.913 312.506 149.072C312.695 149.232 312.937 149.312 313.233 149.312ZM321.476 150H316.817V149.351L319.278 146.616C319.643 146.203 319.894 145.868 320.03 145.61C320.17 145.35 320.24 145.081 320.24 144.805C320.24 144.434 320.128 144.129 319.903 143.892C319.679 143.654 319.379 143.535 319.005 143.535C318.556 143.535 318.206 143.664 317.955 143.921C317.708 144.175 317.584 144.53 317.584 144.985H316.681C316.681 144.331 316.891 143.802 317.311 143.398C317.734 142.995 318.299 142.793 319.005 142.793C319.666 142.793 320.188 142.967 320.572 143.315C320.956 143.66 321.148 144.121 321.148 144.697C321.148 145.397 320.702 146.23 319.811 147.197L317.906 149.263H321.476V150ZM280.704 162H279.801V156.717H280.704V162ZM279.728 155.315C279.728 155.169 279.771 155.045 279.859 154.944C279.951 154.843 280.084 154.793 280.26 154.793C280.436 154.793 280.569 154.843 280.66 154.944C280.751 155.045 280.797 155.169 280.797 155.315C280.797 155.462 280.751 155.584 280.66 155.682C280.569 155.779 280.436 155.828 280.26 155.828C280.084 155.828 279.951 155.779 279.859 155.682C279.771 155.584 279.728 155.462 279.728 155.315ZM283.009 156.717L283.038 157.381C283.442 156.873 283.969 156.619 284.62 156.619C285.737 156.619 286.3 157.249 286.31 158.509V162H285.406V158.504C285.403 158.123 285.315 157.841 285.143 157.659C284.973 157.477 284.708 157.386 284.347 157.386C284.054 157.386 283.797 157.464 283.575 157.62C283.354 157.776 283.181 157.981 283.058 158.235V162H282.154V156.717H283.009ZM287.452 159.314C287.452 158.504 287.644 157.853 288.028 157.361C288.412 156.867 288.915 156.619 289.537 156.619C290.156 156.619 290.646 156.831 291.007 157.254V154.5H291.91V162H291.08L291.036 161.434C290.675 161.876 290.172 162.098 289.527 162.098C288.915 162.098 288.416 161.847 288.028 161.346C287.644 160.844 287.452 160.19 287.452 159.383V159.314ZM288.355 159.417C288.355 160.016 288.479 160.485 288.727 160.823C288.974 161.162 289.316 161.331 289.752 161.331C290.325 161.331 290.743 161.074 291.007 160.56V158.133C290.737 157.635 290.322 157.386 289.762 157.386C289.319 157.386 288.974 157.557 288.727 157.898C288.479 158.24 288.355 158.746 288.355 159.417ZM295.509 162.098C294.793 162.098 294.21 161.863 293.761 161.395C293.312 160.923 293.087 160.293 293.087 159.505V159.339C293.087 158.815 293.186 158.348 293.385 157.938C293.587 157.524 293.867 157.202 294.225 156.971C294.586 156.736 294.977 156.619 295.396 156.619C296.083 156.619 296.617 156.845 296.998 157.298C297.379 157.75 297.569 158.398 297.569 159.241V159.617H293.99C294.003 160.138 294.155 160.56 294.444 160.882C294.737 161.201 295.108 161.36 295.558 161.36C295.877 161.36 296.147 161.295 296.368 161.165C296.59 161.035 296.783 160.862 296.949 160.647L297.501 161.077C297.058 161.757 296.394 162.098 295.509 162.098ZM295.396 157.361C295.032 157.361 294.726 157.495 294.479 157.762C294.231 158.025 294.078 158.396 294.02 158.875H296.666V158.807C296.64 158.348 296.516 157.993 296.295 157.742C296.074 157.488 295.774 157.361 295.396 157.361ZM300.392 158.646L301.563 156.717H302.618L300.89 159.329L302.672 162H301.627L300.406 160.022L299.186 162H298.136L299.918 159.329L298.189 156.717H299.234L300.392 158.646ZM303.6 161.526C303.6 161.37 303.645 161.24 303.736 161.136C303.831 161.032 303.971 160.979 304.156 160.979C304.342 160.979 304.482 161.032 304.576 161.136C304.674 161.24 304.723 161.37 304.723 161.526C304.723 161.676 304.674 161.801 304.576 161.902C304.482 162.003 304.342 162.054 304.156 162.054C303.971 162.054 303.831 162.003 303.736 161.902C303.645 161.801 303.6 161.676 303.6 161.526ZM307.149 156.717V162.61C307.149 163.626 306.689 164.134 305.768 164.134C305.569 164.134 305.385 164.104 305.216 164.046V163.323C305.32 163.349 305.457 163.362 305.626 163.362C305.828 163.362 305.981 163.307 306.085 163.196C306.192 163.089 306.246 162.9 306.246 162.63V156.717H307.149ZM306.153 155.315C306.153 155.172 306.197 155.05 306.285 154.949C306.376 154.845 306.508 154.793 306.681 154.793C306.856 154.793 306.99 154.843 307.081 154.944C307.172 155.045 307.218 155.169 307.218 155.315C307.218 155.462 307.172 155.584 307.081 155.682C306.99 155.779 306.856 155.828 306.681 155.828C306.505 155.828 306.373 155.779 306.285 155.682C306.197 155.584 306.153 155.462 306.153 155.315ZM311.686 160.599C311.686 160.354 311.593 160.166 311.407 160.032C311.225 159.896 310.904 159.778 310.445 159.681C309.99 159.583 309.627 159.466 309.356 159.329C309.09 159.192 308.891 159.03 308.761 158.841C308.634 158.652 308.57 158.427 308.57 158.167C308.57 157.734 308.753 157.368 309.117 157.068C309.485 156.769 309.954 156.619 310.523 156.619C311.122 156.619 311.607 156.774 311.979 157.083C312.353 157.392 312.54 157.788 312.54 158.27H311.632C311.632 158.022 311.526 157.809 311.314 157.63C311.106 157.451 310.842 157.361 310.523 157.361C310.195 157.361 309.938 157.433 309.752 157.576C309.566 157.719 309.474 157.907 309.474 158.138C309.474 158.356 309.56 158.52 309.732 158.631C309.905 158.742 310.216 158.847 310.665 158.948C311.118 159.049 311.484 159.17 311.764 159.31C312.044 159.45 312.25 159.619 312.384 159.817C312.521 160.013 312.589 160.252 312.589 160.535C312.589 161.007 312.4 161.386 312.022 161.673C311.645 161.956 311.155 162.098 310.553 162.098C310.13 162.098 309.755 162.023 309.43 161.873C309.104 161.723 308.849 161.515 308.663 161.248C308.481 160.978 308.39 160.687 308.39 160.374H309.293C309.309 160.677 309.43 160.918 309.654 161.097C309.882 161.272 310.182 161.36 310.553 161.36C310.895 161.36 311.168 161.292 311.373 161.155C311.581 161.015 311.686 160.83 311.686 160.599ZM323.813 157.19C322.183 156.95 320.583 155.84 320.583 154.59V154.09H319.723V154.59C319.723 155.87 318.143 156.95 316.513 157.19L316.843 157.85C318.243 157.61 319.593 156.84 320.153 155.75C320.733 156.83 322.083 157.61 323.473 157.85L323.813 157.19ZM324.203 158.82H316.103V159.5H319.723V162.75H320.543V159.5H324.213L324.203 158.82ZM330.082 156.1V156.77H331.852V159.12H332.682V153.78H331.852V156.1H330.082ZM330.582 158.14C329.282 157.68 328.402 156.55 328.402 155.4V155.09H330.372V154.43H325.582V155.09H327.582V155.4C327.582 156.69 326.662 157.9 325.322 158.39L325.752 159.04C326.802 158.64 327.632 157.8 328.012 156.76C328.402 157.68 329.172 158.42 330.172 158.78L330.582 158.14ZM329.722 162.1C328.372 162.1 327.552 161.72 327.552 161.07C327.552 160.42 328.372 160.03 329.722 160.03C331.072 160.03 331.892 160.42 331.892 161.07C331.892 161.72 331.072 162.1 329.722 162.1ZM329.722 159.4C327.882 159.4 326.732 160.01 326.732 161.07C326.732 162.13 327.882 162.74 329.722 162.74C331.562 162.74 332.712 162.13 332.712 161.07C332.712 160.01 331.562 159.4 329.722 159.4Z" fill="black"/>
</svg>
