<svg width="1152" height="587" viewBox="0 0 1152 587" fill="none" xmlns="http://www.w3.org/2000/svg">
<path d="M0 0H1152V587H0V0Z" fill="white" fill-opacity="0.01"/>
<circle cx="386.5" cy="335.5" r="9.5" fill="#4000C7"/>
<path d="M374.735 302.398L371.791 309H370.844L373.778 302.633H369.931V301.891H374.735V302.398ZM375.634 306.314C375.634 305.504 375.826 304.853 376.21 304.361C376.594 303.867 377.097 303.619 377.719 303.619C378.337 303.619 378.827 303.831 379.188 304.254V301.5H380.092V309H379.262L379.218 308.434C378.856 308.876 378.354 309.098 377.709 309.098C377.097 309.098 376.597 308.847 376.21 308.346C375.826 307.844 375.634 307.19 375.634 306.383V306.314ZM376.537 306.417C376.537 307.016 376.661 307.485 376.908 307.823C377.156 308.162 377.497 308.331 377.934 308.331C378.507 308.331 378.925 308.074 379.188 307.56V305.133C378.918 304.635 378.503 304.386 377.943 304.386C377.501 304.386 377.156 304.557 376.908 304.898C376.661 305.24 376.537 305.746 376.537 306.417ZM381.283 306.314C381.283 305.491 381.474 304.837 381.854 304.352C382.235 303.863 382.74 303.619 383.368 303.619C384.013 303.619 384.516 303.847 384.877 304.303L384.921 303.717H385.746V308.873C385.746 309.557 385.543 310.095 385.136 310.489C384.732 310.883 384.188 311.08 383.505 311.08C383.124 311.08 382.751 310.999 382.387 310.836C382.022 310.673 381.744 310.45 381.552 310.167L382.021 309.625C382.408 310.104 382.882 310.343 383.441 310.343C383.881 310.343 384.223 310.219 384.467 309.972C384.714 309.724 384.838 309.376 384.838 308.927V308.473C384.477 308.889 383.983 309.098 383.358 309.098C382.74 309.098 382.239 308.849 381.854 308.351C381.474 307.853 381.283 307.174 381.283 306.314ZM382.191 306.417C382.191 307.013 382.313 307.481 382.558 307.823C382.802 308.162 383.144 308.331 383.583 308.331C384.153 308.331 384.571 308.072 384.838 307.555V305.143C384.561 304.638 384.146 304.386 383.593 304.386C383.153 304.386 382.81 304.557 382.562 304.898C382.315 305.24 382.191 305.746 382.191 306.417ZM388.588 306.554L388.021 307.145V309H387.118V301.5H388.021V306.036L388.505 305.455L390.15 303.717H391.249L389.193 305.924L391.488 309H390.429L388.588 306.554ZM395.443 309C395.391 308.896 395.349 308.71 395.316 308.443C394.896 308.88 394.395 309.098 393.812 309.098C393.292 309.098 392.864 308.951 392.528 308.658C392.196 308.362 392.03 307.988 392.03 307.535C392.03 306.985 392.239 306.559 392.655 306.256C393.075 305.95 393.664 305.797 394.423 305.797H395.302V305.382C395.302 305.066 395.207 304.815 395.019 304.63C394.83 304.441 394.551 304.347 394.184 304.347C393.861 304.347 393.591 304.428 393.373 304.591C393.155 304.754 393.046 304.951 393.046 305.182H392.138C392.138 304.918 392.23 304.664 392.416 304.42C392.605 304.173 392.859 303.977 393.178 303.834C393.5 303.691 393.853 303.619 394.237 303.619C394.846 303.619 395.323 303.772 395.668 304.078C396.013 304.381 396.192 304.799 396.205 305.333V307.765C396.205 308.25 396.267 308.635 396.391 308.922V309H395.443ZM393.944 308.312C394.228 308.312 394.496 308.238 394.75 308.092C395.004 307.945 395.188 307.755 395.302 307.521V306.437H394.594C393.487 306.437 392.934 306.76 392.934 307.408C392.934 307.691 393.028 307.913 393.217 308.072C393.406 308.232 393.648 308.312 393.944 308.312ZM398.524 304.356C398.925 303.865 399.446 303.619 400.087 303.619C401.203 303.619 401.767 304.249 401.776 305.509V309H400.873V305.504C400.87 305.123 400.782 304.841 400.609 304.659C400.44 304.477 400.175 304.386 399.813 304.386C399.521 304.386 399.263 304.464 399.042 304.62C398.821 304.776 398.648 304.981 398.524 305.235V309H397.621V301.5H398.524V304.356ZM367.621 316.73C369.101 316.57 370.401 316.04 370.951 315.16C371.491 316.04 372.801 316.57 374.281 316.73L374.531 316.09C372.851 315.95 371.491 315.27 371.401 314.3H374.171V313.65H371.361V312.74H370.541V313.65H367.731V314.3H370.491C370.401 315.27 369.041 315.95 367.371 316.09L367.621 316.73ZM373.181 320.24C373.181 320.8 372.361 321.11 370.941 321.11C369.521 321.11 368.701 320.8 368.701 320.24C368.701 319.69 369.521 319.37 370.941 319.37C372.361 319.37 373.181 319.69 373.181 320.24ZM375.001 317.86V317.2H366.891V317.86H370.541V318.76C368.851 318.83 367.871 319.35 367.871 320.24C367.871 321.21 369.011 321.73 370.951 321.73C372.871 321.73 374.011 321.21 374.011 320.24C374.011 319.35 373.031 318.83 371.351 318.76V317.86H375.001ZM377.891 320.1H383.161V318.08H377.061V318.71H382.351V319.5H377.091V321.63H383.431V321H377.891V320.1ZM380.561 316.67V315.82H383.241V315.16H377.991V313.77H383.151V313.11H377.171V315.82H379.741V316.67H376.081V317.33H384.201V316.67H380.561ZM395.49 316.19C393.86 315.95 392.26 314.84 392.26 313.59V313.09H391.4V313.59C391.4 314.87 389.82 315.95 388.19 316.19L388.52 316.85C389.92 316.61 391.27 315.84 391.83 314.75C392.41 315.83 393.76 316.61 395.15 316.85L395.49 316.19ZM395.88 317.82H387.78V318.5H391.4V321.75H392.22V318.5H395.89L395.88 317.82ZM401.759 315.1V315.77H403.529V318.12H404.359V312.78H403.529V315.1H401.759ZM402.259 317.14C400.959 316.68 400.079 315.55 400.079 314.4V314.09H402.049V313.43H397.259V314.09H399.259V314.4C399.259 315.69 398.339 316.9 396.999 317.39L397.429 318.04C398.479 317.64 399.309 316.8 399.689 315.76C400.079 316.68 400.849 317.42 401.849 317.78L402.259 317.14ZM401.399 321.1C400.049 321.1 399.229 320.72 399.229 320.07C399.229 319.42 400.049 319.03 401.399 319.03C402.749 319.03 403.569 319.42 403.569 320.07C403.569 320.72 402.749 321.1 401.399 321.1ZM401.399 318.4C399.559 318.4 398.409 319.01 398.409 320.07C398.409 321.13 399.559 321.74 401.399 321.74C403.239 321.74 404.389 321.13 404.389 320.07C404.389 319.01 403.239 318.4 401.399 318.4Z" fill="black"/>
<path d="M386.354 350.646C386.158 350.451 385.842 350.451 385.646 350.646L382.464 353.828C382.269 354.024 382.269 354.34 382.464 354.536C382.66 354.731 382.976 354.731 383.172 354.536L386 351.707L388.828 354.536C389.024 354.731 389.34 354.731 389.536 354.536C389.731 354.34 389.731 354.024 389.536 353.828L386.354 350.646ZM386.5 435L386.5 351L385.5 351L385.5 435L386.5 435Z" fill="#4000C7"/>
</svg>
