<svg width="1152" height="587" viewBox="0 0 1152 587" fill="none" xmlns="http://www.w3.org/2000/svg">
<path d="M0 0H1152V587H0V0Z" fill="white" fill-opacity="0.01"/>
<path d="M368.665 469H367.762V463.717H368.665V469ZM367.688 462.315C367.688 462.169 367.732 462.045 367.82 461.944C367.911 461.843 368.045 461.793 368.221 461.793C368.396 461.793 368.53 461.843 368.621 461.944C368.712 462.045 368.758 462.169 368.758 462.315C368.758 462.462 368.712 462.584 368.621 462.682C368.53 462.779 368.396 462.828 368.221 462.828C368.045 462.828 367.911 462.779 367.82 462.682C367.732 462.584 367.688 462.462 367.688 462.315ZM370.97 463.717L370.999 464.381C371.403 463.873 371.93 463.619 372.581 463.619C373.698 463.619 374.261 464.249 374.271 465.509V469H373.367V465.504C373.364 465.123 373.276 464.841 373.104 464.659C372.934 464.477 372.669 464.386 372.308 464.386C372.015 464.386 371.757 464.464 371.536 464.62C371.315 464.776 371.142 464.981 371.019 465.235V469H370.115V463.717H370.97ZM375.413 466.314C375.413 465.504 375.605 464.853 375.989 464.361C376.373 463.867 376.876 463.619 377.498 463.619C378.117 463.619 378.606 463.831 378.968 464.254V461.5H379.871V469H379.041L378.997 468.434C378.636 468.876 378.133 469.098 377.488 469.098C376.876 469.098 376.377 468.847 375.989 468.346C375.605 467.844 375.413 467.19 375.413 466.383V466.314ZM376.316 466.417C376.316 467.016 376.44 467.485 376.688 467.823C376.935 468.162 377.277 468.331 377.713 468.331C378.286 468.331 378.704 468.074 378.968 467.56V465.133C378.698 464.635 378.283 464.386 377.723 464.386C377.28 464.386 376.935 464.557 376.688 464.898C376.44 465.24 376.316 465.746 376.316 466.417ZM383.47 469.098C382.754 469.098 382.171 468.863 381.722 468.395C381.272 467.923 381.048 467.293 381.048 466.505V466.339C381.048 465.815 381.147 465.348 381.346 464.938C381.548 464.524 381.827 464.202 382.186 463.971C382.547 463.736 382.938 463.619 383.357 463.619C384.044 463.619 384.578 463.845 384.959 464.298C385.34 464.75 385.53 465.398 385.53 466.241V466.617H381.951C381.964 467.138 382.116 467.56 382.405 467.882C382.698 468.201 383.069 468.36 383.519 468.36C383.838 468.36 384.108 468.295 384.329 468.165C384.55 468.035 384.744 467.862 384.91 467.647L385.462 468.077C385.019 468.757 384.355 469.098 383.47 469.098ZM383.357 464.361C382.993 464.361 382.687 464.495 382.439 464.762C382.192 465.025 382.039 465.396 381.98 465.875H384.627V465.807C384.601 465.348 384.477 464.993 384.256 464.742C384.035 464.488 383.735 464.361 383.357 464.361ZM388.353 465.646L389.524 463.717H390.579L388.851 466.329L390.633 469H389.588L388.367 467.022L387.146 469H386.097L387.879 466.329L386.15 463.717H387.195L388.353 465.646ZM391.561 468.526C391.561 468.37 391.606 468.24 391.697 468.136C391.792 468.032 391.932 467.979 392.117 467.979C392.303 467.979 392.443 468.032 392.537 468.136C392.635 468.24 392.684 468.37 392.684 468.526C392.684 468.676 392.635 468.801 392.537 468.902C392.443 469.003 392.303 469.054 392.117 469.054C391.932 469.054 391.792 469.003 391.697 468.902C391.606 468.801 391.561 468.676 391.561 468.526ZM395.11 463.717V469.61C395.11 470.626 394.65 471.134 393.729 471.134C393.53 471.134 393.346 471.104 393.177 471.046V470.323C393.281 470.349 393.418 470.362 393.587 470.362C393.789 470.362 393.942 470.307 394.046 470.196C394.153 470.089 394.207 469.9 394.207 469.63V463.717H395.11ZM394.114 462.315C394.114 462.172 394.158 462.05 394.246 461.949C394.337 461.845 394.469 461.793 394.642 461.793C394.817 461.793 394.951 461.843 395.042 461.944C395.133 462.045 395.179 462.169 395.179 462.315C395.179 462.462 395.133 462.584 395.042 462.682C394.951 462.779 394.817 462.828 394.642 462.828C394.466 462.828 394.334 462.779 394.246 462.682C394.158 462.584 394.114 462.462 394.114 462.315ZM399.646 467.599C399.646 467.354 399.554 467.166 399.368 467.032C399.186 466.896 398.865 466.778 398.406 466.681C397.951 466.583 397.588 466.466 397.317 466.329C397.05 466.192 396.852 466.03 396.722 465.841C396.595 465.652 396.531 465.427 396.531 465.167C396.531 464.734 396.714 464.368 397.078 464.068C397.446 463.769 397.915 463.619 398.484 463.619C399.083 463.619 399.568 463.774 399.939 464.083C400.314 464.392 400.501 464.788 400.501 465.27H399.593C399.593 465.022 399.487 464.809 399.275 464.63C399.067 464.451 398.803 464.361 398.484 464.361C398.156 464.361 397.898 464.433 397.713 464.576C397.527 464.719 397.435 464.907 397.435 465.138C397.435 465.356 397.521 465.52 397.693 465.631C397.866 465.742 398.177 465.847 398.626 465.948C399.078 466.049 399.445 466.17 399.725 466.31C400.005 466.45 400.211 466.619 400.345 466.817C400.481 467.013 400.55 467.252 400.55 467.535C400.55 468.007 400.361 468.386 399.983 468.673C399.606 468.956 399.116 469.098 398.514 469.098C398.09 469.098 397.716 469.023 397.391 468.873C397.065 468.723 396.81 468.515 396.624 468.248C396.442 467.978 396.351 467.687 396.351 467.374H397.254C397.27 467.677 397.391 467.918 397.615 468.097C397.843 468.272 398.143 468.36 398.514 468.36C398.855 468.36 399.129 468.292 399.334 468.155C399.542 468.015 399.646 467.83 399.646 467.599Z" fill="#4000C7"/>
<path d="M393.746 439.016L387.938 433.252C387.776 433.091 387.558 433 387.328 433H375.864C375.386 433 375 433.383 375 433.857V456.143C375 456.617 375.386 457 375.864 457H393.136C393.614 457 394 456.617 394 456.143V439.624C394 439.396 393.908 439.177 393.746 439.016ZM392.008 440.018H386.929V434.977L392.008 440.018ZM392.057 455.071H376.943V434.929H385.094V440.714C385.094 441.013 385.213 441.299 385.426 441.51C385.638 441.721 385.927 441.839 386.227 441.839H392.057V455.071ZM384.284 447.839H379.318C379.199 447.839 379.102 447.936 379.102 448.054V449.339C379.102 449.457 379.199 449.554 379.318 449.554H384.284C384.403 449.554 384.5 449.457 384.5 449.339V448.054C384.5 447.936 384.403 447.839 384.284 447.839ZM379.102 444.411V445.696C379.102 445.814 379.199 445.911 379.318 445.911H389.682C389.801 445.911 389.898 445.814 389.898 445.696V444.411C389.898 444.293 389.801 444.196 389.682 444.196H379.318C379.199 444.196 379.102 444.293 379.102 444.411Z" fill="#4000C7"/>
<circle cx="63.5" cy="74.5" r="9.5" fill="#4000C7"/>
<circle cx="63.5" cy="186.5" r="9.5" fill="#4000C7"/>
<circle cx="63.5" cy="334.5" r="9.5" fill="#4000C7"/>
<circle cx="143.5" cy="74.5" r="9.5" fill="#4000C7"/>
<circle cx="143.5" cy="186.5" r="9.5" fill="#4000C7"/>
<circle cx="143.5" cy="334.5" r="9.5" fill="#4000C7"/>
<circle cx="224.5" cy="74.5" r="9.5" fill="#4000C7"/>
<circle cx="224.5" cy="186.5" r="9.5" fill="#4000C7"/>
<circle cx="224.5" cy="334.5" r="9.5" fill="#4000C7"/>
<circle cx="305.5" cy="74.5" r="9.5" fill="#4000C7"/>
<circle cx="386.5" cy="74.5" r="9.5" fill="#4000C7"/>
<circle cx="386.5" cy="335.5" r="9" fill="white" stroke="#4000C7" stroke-dasharray="2 2"/>
<circle cx="305.5" cy="186.5" r="9.5" fill="#4000C7"/>
<circle cx="305.5" cy="334.5" r="9.5" fill="#4000C7"/>
<rect x="404.031" y="91.2095" width="18" height="41" rx="5" transform="rotate(-64.2277 404.031 91.2095)" fill="black"/>
<rect x="322.031" y="203.209" width="18" height="41" rx="5" transform="rotate(-64.2277 322.031 203.209)" fill="black"/>
<rect x="406.031" y="351.209" width="18" height="41" rx="5" transform="rotate(-64.2277 406.031 351.209)" fill="black"/>
<path d="M400.739 79.6266L409.456 79.9884L406.443 86.2275L400.739 79.6266Z" fill="black"/>
<path d="M318.739 191.627L327.456 191.988L324.443 198.227L318.739 191.627Z" fill="black"/>
<path d="M402.739 339.627L411.456 339.988L408.443 346.227L402.739 339.627Z" fill="black"/>
<path d="M417.791 85.2192L417.535 85.8113C418.137 85.5452 418.764 85.5693 419.415 85.8838C420.147 86.2372 420.51 86.7583 420.503 87.4471C420.799 87.2796 421.122 87.1854 421.475 87.1646C421.83 87.1452 422.198 87.2274 422.578 87.4111C423.726 87.9654 424.016 88.855 423.449 90.08L421.756 93.5867L420.861 93.1547L422.528 89.7012C422.709 89.3271 422.758 89.0069 422.676 88.7406C422.595 88.4711 422.353 88.239 421.95 88.0444C421.618 87.884 421.294 87.8509 420.978 87.9449C420.664 88.0358 420.408 88.2403 420.211 88.5585L418.534 92.0314L417.635 91.597L419.29 88.1677C419.658 87.4067 419.469 86.8464 418.724 86.4867C418.137 86.2034 417.615 86.2595 417.158 86.655L415.313 90.4761L414.418 90.044L416.945 84.8106L417.791 85.2192ZM426.341 95.8006C426.339 95.6725 426.386 95.4685 426.481 95.1885C425.857 95.4197 425.256 95.396 424.679 95.1173C424.163 94.8682 423.809 94.5184 423.617 94.0678C423.43 93.6156 423.444 93.1654 423.661 92.7172C423.924 92.1722 424.334 91.8494 424.892 91.7488C425.454 91.6466 426.111 91.7768 426.862 92.1396L427.733 92.5599L427.931 92.1488C428.082 91.836 428.108 91.5426 428.01 91.2685C427.913 90.9911 427.683 90.7645 427.319 90.5886C426.999 90.4345 426.693 90.3858 426.399 90.4428C426.105 90.4997 425.903 90.6426 425.792 90.8715L424.893 90.4372C425.019 90.176 425.232 89.9688 425.533 89.8157C425.838 89.661 426.183 89.5889 426.567 89.5996C426.955 89.6119 427.339 89.7099 427.72 89.8936C428.323 90.1847 428.722 90.5644 428.917 91.0325C429.114 91.4974 429.092 91.9974 428.849 92.5324L427.686 94.9412C427.454 95.4216 427.331 95.8333 427.317 96.1763L427.279 96.2536L426.341 95.8006ZM425.185 94.4017C425.466 94.5371 425.767 94.593 426.088 94.5693C426.41 94.5457 426.683 94.445 426.908 94.2673L427.427 93.1935L426.725 92.8549C425.629 92.3256 424.926 92.3817 424.616 93.0234C424.481 93.304 424.468 93.5684 424.579 93.8167C424.69 94.065 424.892 94.26 425.185 94.4017ZM429.47 97.3115L428.576 96.8795L431.102 91.6461L431.997 92.0781L429.47 97.3115ZM431.7 90.2229C431.77 90.0778 431.873 89.9762 432.008 89.9183C432.147 89.862 432.303 89.8758 432.477 89.9599C432.651 90.0439 432.759 90.1578 432.801 90.3013C432.843 90.4449 432.829 90.5892 432.759 90.7343C432.689 90.8794 432.586 90.9785 432.449 91.0317C432.312 91.0848 432.156 91.0694 431.982 90.9853C431.808 90.9012 431.699 90.789 431.655 90.6487C431.615 90.5099 431.63 90.368 431.7 90.2229ZM434.28 93.1804L433.992 93.8522C434.634 93.5422 435.278 93.5429 435.923 93.8543C437.029 94.3883 437.286 95.2816 436.693 96.5342L435.023 99.9925L434.128 99.5605L435.8 96.0973C435.979 95.7185 436.027 95.3975 435.943 95.1344C435.863 94.8729 435.643 94.6557 435.285 94.4829C434.995 94.3428 434.703 94.2972 434.409 94.3461C434.115 94.395 433.846 94.5156 433.602 94.708L431.802 98.4372L430.907 98.0051L433.434 92.7717L434.28 93.1804Z" fill="white"/>
<path d="M335.791 197.219L335.535 197.811C336.137 197.545 336.764 197.569 337.415 197.884C338.147 198.237 338.51 198.758 338.503 199.447C338.799 199.28 339.122 199.185 339.475 199.165C339.83 199.145 340.198 199.227 340.578 199.411C341.726 199.965 342.016 200.855 341.449 202.08L339.756 205.587L338.861 205.155L340.528 201.701C340.709 201.327 340.758 201.007 340.676 200.741C340.595 200.471 340.353 200.239 339.95 200.044C339.618 199.884 339.294 199.851 338.978 199.945C338.664 200.036 338.408 200.24 338.211 200.559L336.534 204.031L335.635 203.597L337.29 200.168C337.658 199.407 337.469 198.846 336.724 198.487C336.137 198.203 335.615 198.259 335.158 198.655L333.313 202.476L332.418 202.044L334.945 196.811L335.791 197.219ZM344.341 207.801C344.339 207.672 344.386 207.468 344.481 207.188C343.857 207.42 343.256 207.396 342.679 207.117C342.163 206.868 341.809 206.518 341.617 206.068C341.43 205.616 341.444 205.165 341.661 204.717C341.924 204.172 342.334 203.849 342.892 203.749C343.454 203.647 344.111 203.777 344.862 204.14L345.733 204.56L345.931 204.149C346.082 203.836 346.108 203.543 346.01 203.268C345.913 202.991 345.683 202.765 345.319 202.589C344.999 202.434 344.693 202.386 344.399 202.443C344.105 202.5 343.903 202.643 343.792 202.872L342.893 202.437C343.019 202.176 343.232 201.969 343.533 201.816C343.838 201.661 344.183 201.589 344.567 201.6C344.955 201.612 345.339 201.71 345.72 201.894C346.323 202.185 346.722 202.564 346.917 203.032C347.114 203.497 347.092 203.997 346.849 204.532L345.686 206.941C345.454 207.422 345.331 207.833 345.317 208.176L345.279 208.254L344.341 207.801ZM343.185 206.402C343.466 206.537 343.767 206.593 344.088 206.569C344.41 206.546 344.683 206.445 344.908 206.267L345.427 205.194L344.725 204.855C343.629 204.326 342.926 204.382 342.616 205.023C342.481 205.304 342.468 205.568 342.579 205.817C342.69 206.065 342.892 206.26 343.185 206.402ZM347.47 209.312L346.576 208.88L349.102 203.646L349.997 204.078L347.47 209.312ZM349.7 202.223C349.77 202.078 349.873 201.976 350.008 201.918C350.147 201.862 350.303 201.876 350.477 201.96C350.651 202.044 350.759 202.158 350.801 202.301C350.843 202.445 350.829 202.589 350.759 202.734C350.689 202.879 350.586 202.979 350.449 203.032C350.312 203.085 350.156 203.069 349.982 202.985C349.808 202.901 349.699 202.789 349.655 202.649C349.615 202.51 349.63 202.368 349.7 202.223ZM352.28 205.18L351.992 205.852C352.634 205.542 353.278 205.543 353.923 205.854C355.029 206.388 355.286 207.282 354.693 208.534L353.023 211.993L352.128 211.56L353.8 208.097C353.979 207.718 354.027 207.398 353.943 207.134C353.863 206.873 353.643 206.656 353.285 206.483C352.995 206.343 352.703 206.297 352.409 206.346C352.115 206.395 351.846 206.516 351.602 206.708L349.802 210.437L348.907 210.005L351.434 204.772L352.28 205.18Z" fill="white"/>
<path d="M419.791 345.219L419.535 345.811C420.137 345.545 420.764 345.569 421.415 345.884C422.147 346.237 422.51 346.758 422.503 347.447C422.799 347.28 423.122 347.185 423.475 347.165C423.83 347.145 424.198 347.227 424.578 347.411C425.726 347.965 426.016 348.855 425.449 350.08L423.756 353.587L422.861 353.155L424.528 349.701C424.709 349.327 424.758 349.007 424.676 348.741C424.595 348.471 424.353 348.239 423.95 348.044C423.618 347.884 423.294 347.851 422.978 347.945C422.664 348.036 422.408 348.24 422.211 348.559L420.534 352.031L419.635 351.597L421.29 348.168C421.658 347.407 421.469 346.846 420.724 346.487C420.137 346.203 419.615 346.259 419.158 346.655L417.313 350.476L416.418 350.044L418.945 344.811L419.791 345.219ZM428.341 355.801C428.339 355.672 428.386 355.468 428.481 355.188C427.857 355.42 427.256 355.396 426.679 355.117C426.163 354.868 425.809 354.518 425.617 354.068C425.43 353.616 425.444 353.165 425.661 352.717C425.924 352.172 426.334 351.849 426.892 351.749C427.454 351.647 428.111 351.777 428.862 352.14L429.733 352.56L429.931 352.149C430.082 351.836 430.108 351.543 430.01 351.268C429.913 350.991 429.683 350.765 429.319 350.589C428.999 350.434 428.693 350.386 428.399 350.443C428.105 350.5 427.903 350.643 427.792 350.872L426.893 350.437C427.019 350.176 427.232 349.969 427.533 349.816C427.838 349.661 428.183 349.589 428.567 349.6C428.955 349.612 429.339 349.71 429.72 349.894C430.323 350.185 430.722 350.564 430.917 351.032C431.114 351.497 431.092 351.997 430.849 352.532L429.686 354.941C429.454 355.422 429.331 355.833 429.317 356.176L429.279 356.254L428.341 355.801ZM427.185 354.402C427.466 354.537 427.767 354.593 428.088 354.569C428.41 354.546 428.683 354.445 428.908 354.267L429.427 353.194L428.725 352.855C427.629 352.326 426.926 352.382 426.616 353.023C426.481 353.304 426.468 353.568 426.579 353.817C426.69 354.065 426.892 354.26 427.185 354.402ZM431.47 357.312L430.576 356.88L433.102 351.646L433.997 352.078L431.47 357.312ZM433.7 350.223C433.77 350.078 433.873 349.976 434.008 349.918C434.147 349.862 434.303 349.876 434.477 349.96C434.651 350.044 434.759 350.158 434.801 350.301C434.843 350.445 434.829 350.589 434.759 350.734C434.689 350.879 434.586 350.979 434.449 351.032C434.312 351.085 434.156 351.069 433.982 350.985C433.808 350.901 433.699 350.789 433.655 350.649C433.615 350.51 433.63 350.368 433.7 350.223ZM436.28 353.18L435.992 353.852C436.634 353.542 437.278 353.543 437.923 353.854C439.029 354.388 439.286 355.282 438.693 356.534L437.023 359.993L436.128 359.56L437.8 356.097C437.979 355.718 438.027 355.398 437.943 355.134C437.863 354.873 437.643 354.656 437.285 354.483C436.995 354.343 436.703 354.297 436.409 354.346C436.115 354.395 435.846 354.516 435.602 354.708L433.802 358.437L432.907 358.005L435.434 352.772L436.28 353.18Z" fill="white"/>
<line x1="73" y1="74.5" x2="377" y2="74.5" stroke="#4000C7"/>
<line x1="73" y1="186.5" x2="296" y2="186.5" stroke="#4000C7"/>
<line x1="73" y1="334.5" x2="377" y2="334.5" stroke="#4000C7"/>
<path d="M372.931 44.0059H373.609C374.036 43.9993 374.371 43.887 374.615 43.6689C374.859 43.4508 374.981 43.1562 374.981 42.7852C374.981 41.9518 374.566 41.5352 373.736 41.5352C373.346 41.5352 373.033 41.6475 372.799 41.8721C372.568 42.0934 372.452 42.388 372.452 42.7559H371.549C371.549 42.1927 371.754 41.7256 372.164 41.3545C372.577 40.9801 373.102 40.793 373.736 40.793C374.407 40.793 374.933 40.9704 375.313 41.3252C375.694 41.68 375.885 42.1732 375.885 42.8047C375.885 43.1139 375.784 43.4134 375.582 43.7031C375.383 43.9928 375.112 44.2093 374.767 44.3525C375.157 44.4762 375.458 44.6813 375.67 44.9678C375.885 45.2542 375.992 45.6042 375.992 46.0176C375.992 46.6556 375.784 47.1618 375.367 47.5361C374.951 47.9105 374.409 48.0977 373.741 48.0977C373.074 48.0977 372.53 47.917 372.11 47.5557C371.694 47.1943 371.485 46.7174 371.485 46.125H372.394C372.394 46.4993 372.516 46.7988 372.76 47.0234C373.004 47.248 373.331 47.3604 373.741 47.3604C374.177 47.3604 374.511 47.2464 374.742 47.0186C374.973 46.7907 375.089 46.4635 375.089 46.0371C375.089 45.6237 374.962 45.3063 374.708 45.085C374.454 44.8636 374.088 44.7497 373.609 44.7432H372.931V44.0059ZM379.518 48.0977C378.801 48.0977 378.219 47.8633 377.77 47.3945C377.32 46.9225 377.096 46.2926 377.096 45.5049V45.3389C377.096 44.8148 377.195 44.3477 377.394 43.9375C377.595 43.5241 377.875 43.2018 378.233 42.9707C378.595 42.7363 378.985 42.6191 379.405 42.6191C380.092 42.6191 380.626 42.8454 381.007 43.2979C381.388 43.7503 381.578 44.3981 381.578 45.2412V45.6172H377.999C378.012 46.138 378.163 46.5596 378.453 46.8818C378.746 47.2008 379.117 47.3604 379.566 47.3604C379.885 47.3604 380.156 47.2952 380.377 47.165C380.598 47.0348 380.792 46.8623 380.958 46.6475L381.51 47.0771C381.067 47.7575 380.403 48.0977 379.518 48.0977ZM379.405 43.3613C379.041 43.3613 378.735 43.4948 378.487 43.7617C378.24 44.0254 378.087 44.3965 378.028 44.875H380.675V44.8066C380.649 44.3477 380.525 43.9928 380.304 43.7422C380.082 43.4883 379.783 43.3613 379.405 43.3613ZM383.072 48V43.415H382.237V42.7168H383.072V42.1748C383.072 41.6084 383.224 41.1706 383.526 40.8613C383.829 40.5521 384.257 40.3975 384.811 40.3975C385.019 40.3975 385.226 40.4251 385.431 40.4805L385.382 41.2129C385.229 41.1836 385.066 41.1689 384.894 41.1689C384.601 41.1689 384.374 41.2552 384.215 41.4277C384.055 41.597 383.976 41.8411 383.976 42.1602V42.7168H385.104V43.415H383.976V48H383.072ZM385.772 45.3145C385.772 44.4909 385.963 43.8366 386.344 43.3516C386.725 42.8633 387.229 42.6191 387.857 42.6191C388.502 42.6191 389.005 42.847 389.366 43.3027L389.41 42.7168H390.235V47.873C390.235 48.5566 390.032 49.0954 389.625 49.4893C389.221 49.8831 388.678 50.0801 387.994 50.0801C387.613 50.0801 387.241 49.9987 386.876 49.8359C386.511 49.6732 386.233 49.4502 386.041 49.167L386.51 48.625C386.897 49.1035 387.371 49.3428 387.931 49.3428C388.37 49.3428 388.712 49.2191 388.956 48.9717C389.203 48.7243 389.327 48.376 389.327 47.9268V47.4727C388.966 47.8893 388.473 48.0977 387.848 48.0977C387.229 48.0977 386.728 47.8486 386.344 47.3506C385.963 46.8525 385.772 46.1738 385.772 45.3145ZM386.681 45.417C386.681 46.0127 386.803 46.4814 387.047 46.8232C387.291 47.1618 387.633 47.3311 388.072 47.3311C388.642 47.3311 389.06 47.0723 389.327 46.5547V44.1426C389.05 43.638 388.635 43.3857 388.082 43.3857C387.643 43.3857 387.299 43.5566 387.052 43.8984C386.804 44.2402 386.681 44.7464 386.681 45.417ZM394.864 48C394.812 47.8958 394.77 47.7103 394.737 47.4434C394.317 47.8796 393.816 48.0977 393.233 48.0977C392.713 48.0977 392.285 47.9512 391.949 47.6582C391.617 47.362 391.451 46.9876 391.451 46.5352C391.451 45.985 391.66 45.5586 392.076 45.2559C392.496 44.9499 393.085 44.7969 393.844 44.7969H394.723V44.3818C394.723 44.0661 394.628 43.8154 394.439 43.6299C394.251 43.4411 393.972 43.3467 393.604 43.3467C393.282 43.3467 393.012 43.4281 392.794 43.5908C392.576 43.7536 392.467 43.9505 392.467 44.1816H391.559C391.559 43.918 391.651 43.6641 391.837 43.4199C392.026 43.1725 392.28 42.9772 392.599 42.834C392.921 42.6908 393.274 42.6191 393.658 42.6191C394.267 42.6191 394.744 42.7721 395.089 43.0781C395.434 43.3809 395.613 43.7992 395.626 44.333V46.7646C395.626 47.2497 395.688 47.6354 395.812 47.9219V48H394.864ZM393.365 47.3115C393.648 47.3115 393.917 47.2383 394.171 47.0918C394.425 46.9453 394.609 46.7549 394.723 46.5205V45.4365H394.015C392.908 45.4365 392.354 45.7604 392.354 46.4082C392.354 46.6914 392.449 46.9128 392.638 47.0723C392.826 47.2318 393.069 47.3115 393.365 47.3115ZM401.515 45.417C401.515 46.2243 401.329 46.8737 400.958 47.3652C400.587 47.8535 400.089 48.0977 399.464 48.0977C398.797 48.0977 398.281 47.8617 397.916 47.3896L397.872 48H397.042V40.5H397.945V43.2979C398.31 42.8454 398.813 42.6191 399.454 42.6191C400.095 42.6191 400.598 42.8617 400.963 43.3467C401.331 43.8317 401.515 44.4958 401.515 45.3389V45.417ZM400.611 45.3145C400.611 44.6992 400.493 44.224 400.255 43.8887C400.017 43.5534 399.675 43.3857 399.229 43.3857C398.634 43.3857 398.206 43.6624 397.945 44.2158V46.501C398.222 47.0544 398.653 47.3311 399.239 47.3311C399.672 47.3311 400.009 47.1634 400.25 46.8281C400.491 46.4928 400.611 45.9883 400.611 45.3145ZM360.704 60H359.801V54.7168H360.704V60ZM359.728 53.3154C359.728 53.1689 359.771 53.0452 359.859 52.9443C359.951 52.8434 360.084 52.793 360.26 52.793C360.436 52.793 360.569 52.8434 360.66 52.9443C360.751 53.0452 360.797 53.1689 360.797 53.3154C360.797 53.4619 360.751 53.584 360.66 53.6816C360.569 53.7793 360.436 53.8281 360.26 53.8281C360.084 53.8281 359.951 53.7793 359.859 53.6816C359.771 53.584 359.728 53.4619 359.728 53.3154ZM363.009 54.7168L363.038 55.3809C363.442 54.873 363.969 54.6191 364.62 54.6191C365.737 54.6191 366.3 55.249 366.31 56.5088V60H365.406V56.5039C365.403 56.123 365.315 55.8415 365.143 55.6592C364.973 55.4769 364.708 55.3857 364.347 55.3857C364.054 55.3857 363.797 55.4639 363.575 55.6201C363.354 55.7764 363.181 55.9814 363.058 56.2354V60H362.154V54.7168H363.009ZM367.452 57.3145C367.452 56.5039 367.644 55.8529 368.028 55.3613C368.412 54.8665 368.915 54.6191 369.537 54.6191C370.156 54.6191 370.646 54.8307 371.007 55.2539V52.5H371.91V60H371.08L371.036 59.4336C370.675 59.8763 370.172 60.0977 369.527 60.0977C368.915 60.0977 368.416 59.847 368.028 59.3457C367.644 58.8444 367.452 58.1901 367.452 57.3828V57.3145ZM368.355 57.417C368.355 58.016 368.479 58.4847 368.727 58.8232C368.974 59.1618 369.316 59.3311 369.752 59.3311C370.325 59.3311 370.743 59.0739 371.007 58.5596V56.1328C370.737 55.6348 370.322 55.3857 369.762 55.3857C369.319 55.3857 368.974 55.5566 368.727 55.8984C368.479 56.2402 368.355 56.7464 368.355 57.417ZM375.509 60.0977C374.793 60.0977 374.21 59.8633 373.761 59.3945C373.312 58.9225 373.087 58.2926 373.087 57.5049V57.3389C373.087 56.8148 373.186 56.3477 373.385 55.9375C373.587 55.5241 373.867 55.2018 374.225 54.9707C374.586 54.7363 374.977 54.6191 375.396 54.6191C376.083 54.6191 376.617 54.8454 376.998 55.2979C377.379 55.7503 377.569 56.3981 377.569 57.2412V57.6172H373.99C374.003 58.138 374.155 58.5596 374.444 58.8818C374.737 59.2008 375.108 59.3604 375.558 59.3604C375.877 59.3604 376.147 59.2952 376.368 59.165C376.59 59.0348 376.783 58.8623 376.949 58.6475L377.501 59.0771C377.058 59.7575 376.394 60.0977 375.509 60.0977ZM375.396 55.3613C375.032 55.3613 374.726 55.4948 374.479 55.7617C374.231 56.0254 374.078 56.3965 374.02 56.875H376.666V56.8066C376.64 56.3477 376.516 55.9928 376.295 55.7422C376.074 55.4883 375.774 55.3613 375.396 55.3613ZM380.392 56.6455L381.563 54.7168H382.618L380.89 57.3291L382.672 60H381.627L380.406 58.0225L379.186 60H378.136L379.918 57.3291L378.189 54.7168H379.234L380.392 56.6455ZM383.6 59.5264C383.6 59.3701 383.645 59.2399 383.736 59.1357C383.831 59.0316 383.971 58.9795 384.156 58.9795C384.342 58.9795 384.482 59.0316 384.576 59.1357C384.674 59.2399 384.723 59.3701 384.723 59.5264C384.723 59.6761 384.674 59.8014 384.576 59.9023C384.482 60.0033 384.342 60.0537 384.156 60.0537C383.971 60.0537 383.831 60.0033 383.736 59.9023C383.645 59.8014 383.6 59.6761 383.6 59.5264ZM387.149 54.7168V60.6104C387.149 61.626 386.689 62.1338 385.768 62.1338C385.569 62.1338 385.385 62.1045 385.216 62.0459V61.3232C385.32 61.3493 385.457 61.3623 385.626 61.3623C385.828 61.3623 385.981 61.307 386.085 61.1963C386.192 61.0889 386.246 60.9001 386.246 60.6299V54.7168H387.149ZM386.153 53.3154C386.153 53.1722 386.197 53.0501 386.285 52.9492C386.376 52.8451 386.508 52.793 386.681 52.793C386.856 52.793 386.99 52.8434 387.081 52.9443C387.172 53.0452 387.218 53.1689 387.218 53.3154C387.218 53.4619 387.172 53.584 387.081 53.6816C386.99 53.7793 386.856 53.8281 386.681 53.8281C386.505 53.8281 386.373 53.7793 386.285 53.6816C386.197 53.584 386.153 53.4619 386.153 53.3154ZM391.686 58.5986C391.686 58.3545 391.593 58.1657 391.407 58.0322C391.225 57.8955 390.904 57.7783 390.445 57.6807C389.99 57.583 389.627 57.4658 389.356 57.3291C389.09 57.1924 388.891 57.0296 388.761 56.8408C388.634 56.652 388.57 56.4274 388.57 56.167C388.57 55.734 388.753 55.3678 389.117 55.0684C389.485 54.7689 389.954 54.6191 390.523 54.6191C391.122 54.6191 391.607 54.7738 391.979 55.083C392.353 55.3923 392.54 55.7878 392.54 56.2695H391.632C391.632 56.0221 391.526 55.8089 391.314 55.6299C391.106 55.4508 390.842 55.3613 390.523 55.3613C390.195 55.3613 389.938 55.4329 389.752 55.5762C389.566 55.7194 389.474 55.9066 389.474 56.1377C389.474 56.3558 389.56 56.5202 389.732 56.6309C389.905 56.7415 390.216 56.8473 390.665 56.9482C391.118 57.0492 391.484 57.1696 391.764 57.3096C392.044 57.4495 392.25 57.6188 392.384 57.8174C392.521 58.0127 392.589 58.252 392.589 58.5352C392.589 59.0072 392.4 59.3864 392.022 59.6729C391.645 59.9561 391.155 60.0977 390.553 60.0977C390.13 60.0977 389.755 60.0228 389.43 59.873C389.104 59.7233 388.849 59.515 388.663 59.248C388.481 58.9779 388.39 58.6865 388.39 58.374H389.293C389.309 58.6768 389.43 58.9176 389.654 59.0967C389.882 59.2725 390.182 59.3604 390.553 59.3604C390.895 59.3604 391.168 59.292 391.373 59.1553C391.581 59.0153 391.686 58.8298 391.686 58.5986ZM403.813 55.19C402.183 54.95 400.583 53.84 400.583 52.59V52.09H399.723V52.59C399.723 53.87 398.143 54.95 396.513 55.19L396.843 55.85C398.243 55.61 399.593 54.84 400.153 53.75C400.733 54.83 402.083 55.61 403.473 55.85L403.813 55.19ZM404.203 56.82H396.103V57.5H399.723V60.75H400.543V57.5H404.213L404.203 56.82ZM410.082 54.1V54.77H411.852V57.12H412.682V51.78H411.852V54.1H410.082ZM410.582 56.14C409.282 55.68 408.402 54.55 408.402 53.4V53.09H410.372V52.43H405.582V53.09H407.582V53.4C407.582 54.69 406.662 55.9 405.322 56.39L405.752 57.04C406.802 56.64 407.632 55.8 408.012 54.76C408.402 55.68 409.172 56.42 410.172 56.78L410.582 56.14ZM409.722 60.1C408.372 60.1 407.552 59.72 407.552 59.07C407.552 58.42 408.372 58.03 409.722 58.03C411.072 58.03 411.892 58.42 411.892 59.07C411.892 59.72 411.072 60.1 409.722 60.1ZM409.722 57.4C407.882 57.4 406.732 58.01 406.732 59.07C406.732 60.13 407.882 60.74 409.722 60.74C411.562 60.74 412.712 60.13 412.712 59.07C412.712 58.01 411.562 57.4 409.722 57.4Z" fill="black"/>
<path d="M292.164 156.436L292.525 152.891H296.168V153.726H293.292L293.077 155.664C293.425 155.459 293.821 155.356 294.264 155.356C294.911 155.356 295.426 155.571 295.807 156.001C296.188 156.427 296.378 157.005 296.378 157.734C296.378 158.467 296.179 159.045 295.782 159.468C295.388 159.888 294.837 160.098 294.127 160.098C293.499 160.098 292.986 159.924 292.589 159.575C292.192 159.227 291.965 158.745 291.91 158.13H292.765C292.82 158.537 292.965 158.844 293.199 159.053C293.434 159.258 293.743 159.36 294.127 159.36C294.547 159.36 294.876 159.217 295.113 158.931C295.354 158.644 295.475 158.249 295.475 157.744C295.475 157.269 295.344 156.888 295.084 156.602C294.827 156.312 294.483 156.167 294.054 156.167C293.66 156.167 293.351 156.253 293.126 156.426L292.887 156.621L292.164 156.436ZM299.576 159.36C299.898 159.36 300.18 159.263 300.421 159.067C300.662 158.872 300.795 158.628 300.821 158.335H301.676C301.66 158.638 301.555 158.926 301.363 159.199C301.171 159.473 300.914 159.691 300.592 159.854C300.273 160.016 299.934 160.098 299.576 160.098C298.857 160.098 298.284 159.858 297.857 159.38C297.434 158.898 297.223 158.241 297.223 157.407V157.256C297.223 156.742 297.317 156.284 297.506 155.884C297.695 155.483 297.965 155.173 298.316 154.951C298.671 154.73 299.09 154.619 299.571 154.619C300.164 154.619 300.655 154.797 301.046 155.151C301.44 155.506 301.65 155.967 301.676 156.533H300.821C300.795 156.191 300.665 155.911 300.431 155.693C300.2 155.472 299.913 155.361 299.571 155.361C299.112 155.361 298.756 155.527 298.502 155.859C298.251 156.188 298.126 156.665 298.126 157.29V157.461C298.126 158.07 298.251 158.538 298.502 158.867C298.753 159.196 299.111 159.36 299.576 159.36ZM304.884 160.098C304.168 160.098 303.585 159.863 303.136 159.395C302.687 158.923 302.462 158.293 302.462 157.505V157.339C302.462 156.815 302.561 156.348 302.76 155.938C302.962 155.524 303.242 155.202 303.6 154.971C303.961 154.736 304.352 154.619 304.771 154.619C305.458 154.619 305.992 154.845 306.373 155.298C306.754 155.75 306.944 156.398 306.944 157.241V157.617H303.365C303.378 158.138 303.53 158.56 303.819 158.882C304.112 159.201 304.483 159.36 304.933 159.36C305.252 159.36 305.522 159.295 305.743 159.165C305.965 159.035 306.158 158.862 306.324 158.647L306.876 159.077C306.433 159.757 305.769 160.098 304.884 160.098ZM304.771 155.361C304.407 155.361 304.101 155.495 303.854 155.762C303.606 156.025 303.453 156.396 303.395 156.875H306.041V156.807C306.015 156.348 305.891 155.993 305.67 155.742C305.449 155.488 305.149 155.361 304.771 155.361ZM308.438 160V155.415H307.604V154.717H308.438V154.175C308.438 153.608 308.59 153.171 308.893 152.861C309.195 152.552 309.623 152.397 310.177 152.397C310.385 152.397 310.592 152.425 310.797 152.48L310.748 153.213C310.595 153.184 310.432 153.169 310.26 153.169C309.967 153.169 309.741 153.255 309.581 153.428C309.422 153.597 309.342 153.841 309.342 154.16V154.717H310.47V155.415H309.342V160H308.438ZM314.732 160C314.68 159.896 314.638 159.71 314.605 159.443C314.186 159.88 313.684 160.098 313.102 160.098C312.581 160.098 312.153 159.951 311.817 159.658C311.485 159.362 311.319 158.988 311.319 158.535C311.319 157.985 311.528 157.559 311.944 157.256C312.364 156.95 312.953 156.797 313.712 156.797H314.591V156.382C314.591 156.066 314.496 155.815 314.308 155.63C314.119 155.441 313.84 155.347 313.473 155.347C313.15 155.347 312.88 155.428 312.662 155.591C312.444 155.754 312.335 155.951 312.335 156.182H311.427C311.427 155.918 311.52 155.664 311.705 155.42C311.894 155.173 312.148 154.977 312.467 154.834C312.789 154.691 313.142 154.619 313.526 154.619C314.135 154.619 314.612 154.772 314.957 155.078C315.302 155.381 315.481 155.799 315.494 156.333V158.765C315.494 159.25 315.556 159.635 315.68 159.922V160H314.732ZM313.233 159.312C313.517 159.312 313.785 159.238 314.039 159.092C314.293 158.945 314.477 158.755 314.591 158.521V157.437H313.883C312.776 157.437 312.223 157.76 312.223 158.408C312.223 158.691 312.317 158.913 312.506 159.072C312.695 159.232 312.937 159.312 313.233 159.312ZM321.476 160H316.817V159.351L319.278 156.616C319.643 156.203 319.894 155.868 320.03 155.61C320.17 155.35 320.24 155.081 320.24 154.805C320.24 154.434 320.128 154.129 319.903 153.892C319.679 153.654 319.379 153.535 319.005 153.535C318.556 153.535 318.206 153.664 317.955 153.921C317.708 154.175 317.584 154.53 317.584 154.985H316.681C316.681 154.331 316.891 153.802 317.311 153.398C317.734 152.995 318.299 152.793 319.005 152.793C319.666 152.793 320.188 152.967 320.572 153.315C320.956 153.66 321.148 154.121 321.148 154.697C321.148 155.397 320.702 156.23 319.811 157.197L317.906 159.263H321.476V160ZM280.704 172H279.801V166.717H280.704V172ZM279.728 165.315C279.728 165.169 279.771 165.045 279.859 164.944C279.951 164.843 280.084 164.793 280.26 164.793C280.436 164.793 280.569 164.843 280.66 164.944C280.751 165.045 280.797 165.169 280.797 165.315C280.797 165.462 280.751 165.584 280.66 165.682C280.569 165.779 280.436 165.828 280.26 165.828C280.084 165.828 279.951 165.779 279.859 165.682C279.771 165.584 279.728 165.462 279.728 165.315ZM283.009 166.717L283.038 167.381C283.442 166.873 283.969 166.619 284.62 166.619C285.737 166.619 286.3 167.249 286.31 168.509V172H285.406V168.504C285.403 168.123 285.315 167.841 285.143 167.659C284.973 167.477 284.708 167.386 284.347 167.386C284.054 167.386 283.797 167.464 283.575 167.62C283.354 167.776 283.181 167.981 283.058 168.235V172H282.154V166.717H283.009ZM287.452 169.314C287.452 168.504 287.644 167.853 288.028 167.361C288.412 166.867 288.915 166.619 289.537 166.619C290.156 166.619 290.646 166.831 291.007 167.254V164.5H291.91V172H291.08L291.036 171.434C290.675 171.876 290.172 172.098 289.527 172.098C288.915 172.098 288.416 171.847 288.028 171.346C287.644 170.844 287.452 170.19 287.452 169.383V169.314ZM288.355 169.417C288.355 170.016 288.479 170.485 288.727 170.823C288.974 171.162 289.316 171.331 289.752 171.331C290.325 171.331 290.743 171.074 291.007 170.56V168.133C290.737 167.635 290.322 167.386 289.762 167.386C289.319 167.386 288.974 167.557 288.727 167.898C288.479 168.24 288.355 168.746 288.355 169.417ZM295.509 172.098C294.793 172.098 294.21 171.863 293.761 171.395C293.312 170.923 293.087 170.293 293.087 169.505V169.339C293.087 168.815 293.186 168.348 293.385 167.938C293.587 167.524 293.867 167.202 294.225 166.971C294.586 166.736 294.977 166.619 295.396 166.619C296.083 166.619 296.617 166.845 296.998 167.298C297.379 167.75 297.569 168.398 297.569 169.241V169.617H293.99C294.003 170.138 294.155 170.56 294.444 170.882C294.737 171.201 295.108 171.36 295.558 171.36C295.877 171.36 296.147 171.295 296.368 171.165C296.59 171.035 296.783 170.862 296.949 170.647L297.501 171.077C297.058 171.757 296.394 172.098 295.509 172.098ZM295.396 167.361C295.032 167.361 294.726 167.495 294.479 167.762C294.231 168.025 294.078 168.396 294.02 168.875H296.666V168.807C296.64 168.348 296.516 167.993 296.295 167.742C296.074 167.488 295.774 167.361 295.396 167.361ZM300.392 168.646L301.563 166.717H302.618L300.89 169.329L302.672 172H301.627L300.406 170.022L299.186 172H298.136L299.918 169.329L298.189 166.717H299.234L300.392 168.646ZM303.6 171.526C303.6 171.37 303.645 171.24 303.736 171.136C303.831 171.032 303.971 170.979 304.156 170.979C304.342 170.979 304.482 171.032 304.576 171.136C304.674 171.24 304.723 171.37 304.723 171.526C304.723 171.676 304.674 171.801 304.576 171.902C304.482 172.003 304.342 172.054 304.156 172.054C303.971 172.054 303.831 172.003 303.736 171.902C303.645 171.801 303.6 171.676 303.6 171.526ZM307.149 166.717V172.61C307.149 173.626 306.689 174.134 305.768 174.134C305.569 174.134 305.385 174.104 305.216 174.046V173.323C305.32 173.349 305.457 173.362 305.626 173.362C305.828 173.362 305.981 173.307 306.085 173.196C306.192 173.089 306.246 172.9 306.246 172.63V166.717H307.149ZM306.153 165.315C306.153 165.172 306.197 165.05 306.285 164.949C306.376 164.845 306.508 164.793 306.681 164.793C306.856 164.793 306.99 164.843 307.081 164.944C307.172 165.045 307.218 165.169 307.218 165.315C307.218 165.462 307.172 165.584 307.081 165.682C306.99 165.779 306.856 165.828 306.681 165.828C306.505 165.828 306.373 165.779 306.285 165.682C306.197 165.584 306.153 165.462 306.153 165.315ZM311.686 170.599C311.686 170.354 311.593 170.166 311.407 170.032C311.225 169.896 310.904 169.778 310.445 169.681C309.99 169.583 309.627 169.466 309.356 169.329C309.09 169.192 308.891 169.03 308.761 168.841C308.634 168.652 308.57 168.427 308.57 168.167C308.57 167.734 308.753 167.368 309.117 167.068C309.485 166.769 309.954 166.619 310.523 166.619C311.122 166.619 311.607 166.774 311.979 167.083C312.353 167.392 312.54 167.788 312.54 168.27H311.632C311.632 168.022 311.526 167.809 311.314 167.63C311.106 167.451 310.842 167.361 310.523 167.361C310.195 167.361 309.938 167.433 309.752 167.576C309.566 167.719 309.474 167.907 309.474 168.138C309.474 168.356 309.56 168.52 309.732 168.631C309.905 168.742 310.216 168.847 310.665 168.948C311.118 169.049 311.484 169.17 311.764 169.31C312.044 169.45 312.25 169.619 312.384 169.817C312.521 170.013 312.589 170.252 312.589 170.535C312.589 171.007 312.4 171.386 312.022 171.673C311.645 171.956 311.155 172.098 310.553 172.098C310.13 172.098 309.755 172.023 309.43 171.873C309.104 171.723 308.849 171.515 308.663 171.248C308.481 170.978 308.39 170.687 308.39 170.374H309.293C309.309 170.677 309.43 170.918 309.654 171.097C309.882 171.272 310.182 171.36 310.553 171.36C310.895 171.36 311.168 171.292 311.373 171.155C311.581 171.015 311.686 170.83 311.686 170.599ZM323.813 167.19C322.183 166.95 320.583 165.84 320.583 164.59V164.09H319.723V164.59C319.723 165.87 318.143 166.95 316.513 167.19L316.843 167.85C318.243 167.61 319.593 166.84 320.153 165.75C320.733 166.83 322.083 167.61 323.473 167.85L323.813 167.19ZM324.203 168.82H316.103V169.5H319.723V172.75H320.543V169.5H324.213L324.203 168.82ZM330.082 166.1V166.77H331.852V169.12H332.682V163.78H331.852V166.1H330.082ZM330.582 168.14C329.282 167.68 328.402 166.55 328.402 165.4V165.09H330.372V164.43H325.582V165.09H327.582V165.4C327.582 166.69 326.662 167.9 325.322 168.39L325.752 169.04C326.802 168.64 327.632 167.8 328.012 166.76C328.402 167.68 329.172 168.42 330.172 168.78L330.582 168.14ZM329.722 172.1C328.372 172.1 327.552 171.72 327.552 171.07C327.552 170.42 328.372 170.03 329.722 170.03C331.072 170.03 331.892 170.42 331.892 171.07C331.892 171.72 331.072 172.1 329.722 172.1ZM329.722 169.4C327.882 169.4 326.732 170.01 326.732 171.07C326.732 172.13 327.882 172.74 329.722 172.74C331.562 172.74 332.712 172.13 332.712 171.07C332.712 170.01 331.562 169.4 329.722 169.4Z" fill="black"/>
</svg>
