<svg width="1152" height="587" viewBox="0 0 1152 587" fill="none" xmlns="http://www.w3.org/2000/svg">
<path d="M0 0H1152V587H0V0Z" fill="white" fill-opacity="0.01"/>
<path d="M373.665 545H372.762V539.717H373.665V545ZM372.688 538.315C372.688 538.169 372.732 538.045 372.82 537.944C372.911 537.843 373.045 537.793 373.221 537.793C373.396 537.793 373.53 537.843 373.621 537.944C373.712 538.045 373.758 538.169 373.758 538.315C373.758 538.462 373.712 538.584 373.621 538.682C373.53 538.779 373.396 538.828 373.221 538.828C373.045 538.828 372.911 538.779 372.82 538.682C372.732 538.584 372.688 538.462 372.688 538.315ZM375.97 539.717L375.999 540.381C376.403 539.873 376.93 539.619 377.581 539.619C378.698 539.619 379.261 540.249 379.271 541.509V545H378.367V541.504C378.364 541.123 378.276 540.841 378.104 540.659C377.934 540.477 377.669 540.386 377.308 540.386C377.015 540.386 376.757 540.464 376.536 540.62C376.315 540.776 376.142 540.981 376.019 541.235V545H375.115V539.717H375.97ZM380.413 542.314C380.413 541.504 380.605 540.853 380.989 540.361C381.373 539.867 381.876 539.619 382.498 539.619C383.117 539.619 383.606 539.831 383.968 540.254V537.5H384.871V545H384.041L383.997 544.434C383.636 544.876 383.133 545.098 382.488 545.098C381.876 545.098 381.377 544.847 380.989 544.346C380.605 543.844 380.413 543.19 380.413 542.383V542.314ZM381.316 542.417C381.316 543.016 381.44 543.485 381.688 543.823C381.935 544.162 382.277 544.331 382.713 544.331C383.286 544.331 383.704 544.074 383.968 543.56V541.133C383.698 540.635 383.283 540.386 382.723 540.386C382.28 540.386 381.935 540.557 381.688 540.898C381.44 541.24 381.316 541.746 381.316 542.417ZM388.47 545.098C387.754 545.098 387.171 544.863 386.722 544.395C386.272 543.923 386.048 543.293 386.048 542.505V542.339C386.048 541.815 386.147 541.348 386.346 540.938C386.548 540.524 386.827 540.202 387.186 539.971C387.547 539.736 387.938 539.619 388.357 539.619C389.044 539.619 389.578 539.845 389.959 540.298C390.34 540.75 390.53 541.398 390.53 542.241V542.617H386.951C386.964 543.138 387.116 543.56 387.405 543.882C387.698 544.201 388.069 544.36 388.519 544.36C388.838 544.36 389.108 544.295 389.329 544.165C389.55 544.035 389.744 543.862 389.91 543.647L390.462 544.077C390.019 544.757 389.355 545.098 388.47 545.098ZM388.357 540.361C387.993 540.361 387.687 540.495 387.439 540.762C387.192 541.025 387.039 541.396 386.98 541.875H389.627V541.807C389.601 541.348 389.477 540.993 389.256 540.742C389.035 540.488 388.735 540.361 388.357 540.361ZM393.353 541.646L394.524 539.717H395.579L393.851 542.329L395.633 545H394.588L393.367 543.022L392.146 545H391.097L392.879 542.329L391.15 539.717H392.195L393.353 541.646ZM396.561 544.526C396.561 544.37 396.606 544.24 396.697 544.136C396.792 544.032 396.932 543.979 397.117 543.979C397.303 543.979 397.443 544.032 397.537 544.136C397.635 544.24 397.684 544.37 397.684 544.526C397.684 544.676 397.635 544.801 397.537 544.902C397.443 545.003 397.303 545.054 397.117 545.054C396.932 545.054 396.792 545.003 396.697 544.902C396.606 544.801 396.561 544.676 396.561 544.526ZM400.11 539.717V545.61C400.11 546.626 399.65 547.134 398.729 547.134C398.53 547.134 398.346 547.104 398.177 547.046V546.323C398.281 546.349 398.418 546.362 398.587 546.362C398.789 546.362 398.942 546.307 399.046 546.196C399.153 546.089 399.207 545.9 399.207 545.63V539.717H400.11ZM399.114 538.315C399.114 538.172 399.158 538.05 399.246 537.949C399.337 537.845 399.469 537.793 399.642 537.793C399.817 537.793 399.951 537.843 400.042 537.944C400.133 538.045 400.179 538.169 400.179 538.315C400.179 538.462 400.133 538.584 400.042 538.682C399.951 538.779 399.817 538.828 399.642 538.828C399.466 538.828 399.334 538.779 399.246 538.682C399.158 538.584 399.114 538.462 399.114 538.315ZM404.646 543.599C404.646 543.354 404.554 543.166 404.368 543.032C404.186 542.896 403.865 542.778 403.406 542.681C402.951 542.583 402.588 542.466 402.317 542.329C402.05 542.192 401.852 542.03 401.722 541.841C401.595 541.652 401.531 541.427 401.531 541.167C401.531 540.734 401.714 540.368 402.078 540.068C402.446 539.769 402.915 539.619 403.484 539.619C404.083 539.619 404.568 539.774 404.939 540.083C405.314 540.392 405.501 540.788 405.501 541.27H404.593C404.593 541.022 404.487 540.809 404.275 540.63C404.067 540.451 403.803 540.361 403.484 540.361C403.156 540.361 402.898 540.433 402.713 540.576C402.527 540.719 402.435 540.907 402.435 541.138C402.435 541.356 402.521 541.52 402.693 541.631C402.866 541.742 403.177 541.847 403.626 541.948C404.078 542.049 404.445 542.17 404.725 542.31C405.005 542.45 405.211 542.619 405.345 542.817C405.481 543.013 405.55 543.252 405.55 543.535C405.55 544.007 405.361 544.386 404.983 544.673C404.606 544.956 404.116 545.098 403.514 545.098C403.09 545.098 402.716 545.023 402.391 544.873C402.065 544.723 401.81 544.515 401.624 544.248C401.442 543.978 401.351 543.687 401.351 543.374H402.254C402.27 543.677 402.391 543.918 402.615 544.097C402.843 544.272 403.143 544.36 403.514 544.36C403.855 544.36 404.129 544.292 404.334 544.155C404.542 544.015 404.646 543.83 404.646 543.599Z" fill="#4000C7"/>
<path d="M398.746 515.016L392.938 509.252C392.776 509.091 392.558 509 392.328 509H380.864C380.386 509 380 509.383 380 509.857V532.143C380 532.617 380.386 533 380.864 533H398.136C398.614 533 399 532.617 399 532.143V515.624C399 515.396 398.908 515.177 398.746 515.016ZM397.008 516.018H391.929V510.977L397.008 516.018ZM397.057 531.071H381.943V510.929H390.094V516.714C390.094 517.013 390.213 517.299 390.426 517.51C390.638 517.721 390.927 517.839 391.227 517.839H397.057V531.071ZM389.284 523.839H384.318C384.199 523.839 384.102 523.936 384.102 524.054V525.339C384.102 525.457 384.199 525.554 384.318 525.554H389.284C389.403 525.554 389.5 525.457 389.5 525.339V524.054C389.5 523.936 389.403 523.839 389.284 523.839ZM384.102 520.411V521.696C384.102 521.814 384.199 521.911 384.318 521.911H394.682C394.801 521.911 394.898 521.814 394.898 521.696V520.411C394.898 520.293 394.801 520.196 394.682 520.196H384.318C384.199 520.196 384.102 520.293 384.102 520.411Z" fill="#4000C7"/>
<circle cx="349.5" cy="304.5" r="9.5" fill="#4000C7"/>
<circle cx="391.5" cy="336.5" r="9" fill="white" stroke="#4000C7" stroke-dasharray="2 2"/>
<rect x="411.031" y="352.209" width="18" height="41" rx="5" transform="rotate(-64.2277 411.031 352.209)" fill="black"/>
<path d="M407.739 340.627L416.456 340.988L413.443 347.227L407.739 340.627Z" fill="black"/>
<path d="M424.791 346.219L424.535 346.811C425.137 346.545 425.764 346.569 426.415 346.884C427.147 347.237 427.51 347.758 427.503 348.447C427.799 348.28 428.122 348.185 428.475 348.165C428.83 348.145 429.198 348.227 429.578 348.411C430.726 348.965 431.016 349.855 430.449 351.08L428.756 354.587L427.861 354.155L429.528 350.701C429.709 350.327 429.758 350.007 429.676 349.741C429.595 349.471 429.353 349.239 428.95 349.044C428.618 348.884 428.294 348.851 427.978 348.945C427.664 349.036 427.408 349.24 427.211 349.559L425.534 353.031L424.635 352.597L426.29 349.168C426.658 348.407 426.469 347.846 425.724 347.487C425.137 347.203 424.615 347.259 424.158 347.655L422.313 351.476L421.418 351.044L423.945 345.811L424.791 346.219ZM433.341 356.801C433.339 356.672 433.386 356.468 433.481 356.188C432.857 356.42 432.256 356.396 431.679 356.117C431.163 355.868 430.809 355.518 430.617 355.068C430.43 354.616 430.444 354.165 430.661 353.717C430.924 353.172 431.334 352.849 431.892 352.749C432.454 352.647 433.111 352.777 433.862 353.14L434.733 353.56L434.931 353.149C435.082 352.836 435.108 352.543 435.01 352.268C434.913 351.991 434.683 351.765 434.319 351.589C433.999 351.434 433.693 351.386 433.399 351.443C433.105 351.5 432.903 351.643 432.792 351.872L431.893 351.437C432.019 351.176 432.232 350.969 432.533 350.816C432.838 350.661 433.183 350.589 433.567 350.6C433.955 350.612 434.339 350.71 434.72 350.894C435.323 351.185 435.722 351.564 435.917 352.032C436.114 352.497 436.092 352.997 435.849 353.532L434.686 355.941C434.454 356.422 434.331 356.833 434.317 357.176L434.279 357.254L433.341 356.801ZM432.185 355.402C432.466 355.537 432.767 355.593 433.088 355.569C433.41 355.546 433.683 355.445 433.908 355.267L434.427 354.194L433.725 353.855C432.629 353.326 431.926 353.382 431.616 354.023C431.481 354.304 431.468 354.568 431.579 354.817C431.69 355.065 431.892 355.26 432.185 355.402ZM436.47 358.312L435.576 357.88L438.102 352.646L438.997 353.078L436.47 358.312ZM438.7 351.223C438.77 351.078 438.873 350.976 439.008 350.918C439.147 350.862 439.303 350.876 439.477 350.96C439.651 351.044 439.759 351.158 439.801 351.301C439.843 351.445 439.829 351.589 439.759 351.734C439.689 351.879 439.586 351.979 439.449 352.032C439.312 352.085 439.156 352.069 438.982 351.985C438.808 351.901 438.699 351.789 438.655 351.649C438.615 351.51 438.63 351.368 438.7 351.223ZM441.28 354.18L440.992 354.852C441.634 354.542 442.278 354.543 442.923 354.854C444.029 355.388 444.286 356.282 443.693 357.534L442.023 360.993L441.128 360.56L442.8 357.097C442.979 356.718 443.027 356.398 442.943 356.134C442.863 355.873 442.643 355.656 442.285 355.483C441.995 355.343 441.703 355.297 441.409 355.346C441.115 355.395 440.846 355.516 440.602 355.708L438.802 359.437L437.907 359.005L440.434 353.772L441.28 354.18Z" fill="white"/>
<line x1="315.692" y1="330.606" x2="347.692" y2="305.606" stroke="#4000C7"/>
<line x1="383.704" y1="331.403" x2="349.704" y2="306.403" stroke="#4000C7"/>
<path d="M372.332 316.73C373.812 316.57 375.112 316.04 375.662 315.16C376.202 316.04 377.512 316.57 378.992 316.73L379.242 316.09C377.562 315.95 376.202 315.27 376.112 314.3H378.882V313.65H376.072V312.74H375.252V313.65H372.442V314.3H375.202C375.112 315.27 373.752 315.95 372.082 316.09L372.332 316.73ZM377.892 320.24C377.892 320.8 377.072 321.11 375.652 321.11C374.232 321.11 373.412 320.8 373.412 320.24C373.412 319.69 374.232 319.37 375.652 319.37C377.072 319.37 377.892 319.69 377.892 320.24ZM379.712 317.86V317.2H371.602V317.86H375.252V318.76C373.562 318.83 372.582 319.35 372.582 320.24C372.582 321.21 373.722 321.73 375.662 321.73C377.582 321.73 378.722 321.21 378.722 320.24C378.722 319.35 377.742 318.83 376.062 318.76V317.86H379.712ZM382.601 320.1H387.871V318.08H381.771V318.71H387.061V319.5H381.801V321.63H388.141V321H382.601V320.1ZM385.271 316.67V315.82H387.951V315.16H382.701V313.77H387.861V313.11H381.881V315.82H384.451V316.67H380.791V317.33H388.911V316.67H385.271ZM396.201 316.4H393.661V315.06H396.201V316.4ZM397.001 313.14H396.201V314.43H393.661V313.14H392.851V317.06H397.001V313.14ZM394.571 320.01H399.441V317.83H393.741V318.48H398.631V319.4H393.771V321.64H399.771V320.99H394.571V320.01ZM399.441 314.7V312.78H398.621V317.41H399.441V315.38H400.771V314.7H399.441ZM407.32 315.85H408.46V318.31H409.25V312.78H408.46V315.18H407.32V312.95H406.54V318.02H407.32V315.85ZM406.17 316.98C405.02 316.54 404.35 315.53 404.35 314.54V313.33H403.56V314.54C403.56 315.54 402.86 316.7 401.69 317.22L402.13 317.86C403 317.47 403.64 316.71 403.96 315.87C404.28 316.63 404.89 317.27 405.73 317.61L406.17 316.98ZM406.29 321.1C404.95 321.1 404.11 320.74 404.11 320.12C404.11 319.5 404.95 319.15 406.29 319.15C407.65 319.15 408.48 319.5 408.48 320.12C408.48 320.74 407.65 321.1 406.29 321.1ZM406.29 318.51C404.45 318.51 403.3 319.1 403.3 320.12C403.3 321.14 404.45 321.73 406.29 321.73C408.14 321.73 409.29 321.14 409.29 320.12C409.29 319.1 408.14 318.51 406.29 318.51ZM412.044 318.993H411.229L411.165 313.891H412.112L412.044 318.993ZM411.131 320.546C411.131 320.399 411.175 320.277 411.263 320.18C411.354 320.079 411.487 320.028 411.663 320.028C411.839 320.028 411.972 320.079 412.063 320.18C412.155 320.277 412.2 320.399 412.2 320.546C412.2 320.692 412.155 320.814 412.063 320.912C411.972 321.007 411.839 321.054 411.663 321.054C411.487 321.054 411.354 321.007 411.263 320.912C411.175 320.814 411.131 320.692 411.131 320.546Z" fill="#FF0000"/>
<path d="M334.521 286.82H332.051V282.3H334.521V286.82ZM337.461 280.77V284.04H335.331V281.65H331.251V287.47H335.331V284.71H337.461V289.76H338.281V280.77H337.461ZM343.291 282.37H345.401V281.69H340.391V282.37H342.471V283.51C342.471 285.06 341.381 286.75 340.091 287.36L340.571 288.02C341.591 287.5 342.471 286.37 342.881 285.06C343.311 286.29 344.191 287.32 345.231 287.8L345.691 287.14C344.371 286.58 343.291 285.03 343.291 283.51V282.37ZM346.611 280.78V289.74H347.431V280.78H346.611ZM354.95 281.55H354.14V283.16C354.14 284.86 353.05 286.58 351.73 287.21L352.23 287.88C353.28 287.34 354.14 286.22 354.55 284.87C354.98 286.15 355.84 287.21 356.86 287.71L357.35 287.05C356.02 286.45 354.95 284.8 354.95 283.16V281.55ZM358.29 280.77V289.76H359.11V280.77H358.29ZM365.439 287.93V285.63H368.169V284.97H362.819V282.16H368.079V281.49H361.999V285.63H364.609V287.93H360.959V288.61H369.109V287.93H365.439Z" fill="#FF0000"/>
<path d="M390.646 303.354C390.842 303.549 391.158 303.549 391.354 303.354L394.536 300.172C394.731 299.976 394.731 299.66 394.536 299.464C394.34 299.269 394.024 299.269 393.828 299.464L391 302.293L388.172 299.464C387.976 299.269 387.66 299.269 387.464 299.464C387.269 299.66 387.269 299.976 387.464 300.172L390.646 303.354ZM390.5 84L390.5 303L391.5 303L391.5 84L390.5 84Z" fill="#4000C7"/>
<path d="M390.646 493.354C390.842 493.549 391.158 493.549 391.354 493.354L394.536 490.172C394.731 489.976 394.731 489.66 394.536 489.464C394.34 489.269 394.024 489.269 393.828 489.464L391 492.293L388.172 489.464C387.976 489.269 387.66 489.269 387.464 489.464C387.269 489.66 387.269 489.976 387.464 490.172L390.646 493.354ZM390.5 346L390.5 493L391.5 493L391.5 346L390.5 346Z" fill="#4000C7"/>
</svg>
