<svg width="1152" height="587" viewBox="0 0 1152 587" fill="none" xmlns="http://www.w3.org/2000/svg">
<path d="M0 0H1152V587H0V0Z" fill="white" fill-opacity="0.01"/>
<circle cx="386.5" cy="176.5" r="9.5" fill="#4000C7"/>
<circle cx="386.5" cy="335.5" r="9" fill="#4000C7" stroke="#4000C7" stroke-dasharray="2 2"/>
<rect x="404.031" y="193.209" width="18" height="41" rx="5" transform="rotate(-64.2277 404.031 193.209)" fill="black"/>
<path d="M400.739 181.627L409.456 181.988L406.443 188.227L400.739 181.627Z" fill="black"/>
<path d="M417.791 187.219L417.535 187.811C418.137 187.545 418.764 187.569 419.415 187.884C420.147 188.237 420.51 188.758 420.503 189.447C420.799 189.28 421.122 189.185 421.475 189.165C421.83 189.145 422.198 189.227 422.578 189.411C423.726 189.965 424.016 190.855 423.449 192.08L421.756 195.587L420.861 195.155L422.528 191.701C422.709 191.327 422.758 191.007 422.676 190.741C422.595 190.471 422.353 190.239 421.95 190.044C421.618 189.884 421.294 189.851 420.978 189.945C420.664 190.036 420.408 190.24 420.211 190.559L418.534 194.031L417.635 193.597L419.29 190.168C419.658 189.407 419.469 188.846 418.724 188.487C418.137 188.203 417.615 188.259 417.158 188.655L415.313 192.476L414.418 192.044L416.945 186.811L417.791 187.219ZM426.341 197.801C426.339 197.672 426.386 197.468 426.481 197.188C425.857 197.42 425.256 197.396 424.679 197.117C424.163 196.868 423.809 196.518 423.617 196.068C423.43 195.616 423.444 195.165 423.661 194.717C423.924 194.172 424.334 193.849 424.892 193.749C425.454 193.647 426.111 193.777 426.862 194.14L427.733 194.56L427.931 194.149C428.082 193.836 428.108 193.543 428.01 193.268C427.913 192.991 427.683 192.765 427.319 192.589C426.999 192.434 426.693 192.386 426.399 192.443C426.105 192.5 425.903 192.643 425.792 192.872L424.893 192.437C425.019 192.176 425.232 191.969 425.533 191.816C425.838 191.661 426.183 191.589 426.567 191.6C426.955 191.612 427.339 191.71 427.72 191.894C428.323 192.185 428.722 192.564 428.917 193.032C429.114 193.497 429.092 193.997 428.849 194.532L427.686 196.941C427.454 197.422 427.331 197.833 427.317 198.176L427.279 198.254L426.341 197.801ZM425.185 196.402C425.466 196.537 425.767 196.593 426.088 196.569C426.41 196.546 426.683 196.445 426.908 196.267L427.427 195.194L426.725 194.855C425.629 194.326 424.926 194.382 424.616 195.023C424.481 195.304 424.468 195.568 424.579 195.817C424.69 196.065 424.892 196.26 425.185 196.402ZM429.47 199.312L428.576 198.88L431.102 193.646L431.997 194.078L429.47 199.312ZM431.7 192.223C431.77 192.078 431.873 191.976 432.008 191.918C432.147 191.862 432.303 191.876 432.477 191.96C432.651 192.044 432.759 192.158 432.801 192.301C432.843 192.445 432.829 192.589 432.759 192.734C432.689 192.879 432.586 192.979 432.449 193.032C432.312 193.085 432.156 193.069 431.982 192.985C431.808 192.901 431.699 192.789 431.655 192.649C431.615 192.51 431.63 192.368 431.7 192.223ZM434.28 195.18L433.992 195.852C434.634 195.542 435.278 195.543 435.923 195.854C437.029 196.388 437.286 197.282 436.693 198.534L435.023 201.993L434.128 201.56L435.8 198.097C435.979 197.718 436.027 197.398 435.943 197.134C435.863 196.873 435.643 196.656 435.285 196.483C434.995 196.343 434.703 196.297 434.409 196.346C434.115 196.395 433.846 196.516 433.602 196.708L431.802 200.437L430.907 200.005L433.434 194.772L434.28 195.18Z" fill="white"/>
<line x1="313" y1="176.5" x2="377" y2="176.5" stroke="#4000C7"/>
<path d="M374.735 144.398L371.791 151H370.844L373.778 144.633H369.931V143.891H374.735V144.398ZM375.634 148.314C375.634 147.504 375.826 146.853 376.21 146.361C376.594 145.867 377.097 145.619 377.719 145.619C378.337 145.619 378.827 145.831 379.188 146.254V143.5H380.092V151H379.262L379.218 150.434C378.856 150.876 378.354 151.098 377.709 151.098C377.097 151.098 376.597 150.847 376.21 150.346C375.826 149.844 375.634 149.19 375.634 148.383V148.314ZM376.537 148.417C376.537 149.016 376.661 149.485 376.908 149.823C377.156 150.162 377.497 150.331 377.934 150.331C378.507 150.331 378.925 150.074 379.188 149.56V147.133C378.918 146.635 378.503 146.386 377.943 146.386C377.501 146.386 377.156 146.557 376.908 146.898C376.661 147.24 376.537 147.746 376.537 148.417ZM381.283 148.314C381.283 147.491 381.474 146.837 381.854 146.352C382.235 145.863 382.74 145.619 383.368 145.619C384.013 145.619 384.516 145.847 384.877 146.303L384.921 145.717H385.746V150.873C385.746 151.557 385.543 152.095 385.136 152.489C384.732 152.883 384.188 153.08 383.505 153.08C383.124 153.08 382.751 152.999 382.387 152.836C382.022 152.673 381.744 152.45 381.552 152.167L382.021 151.625C382.408 152.104 382.882 152.343 383.441 152.343C383.881 152.343 384.223 152.219 384.467 151.972C384.714 151.724 384.838 151.376 384.838 150.927V150.473C384.477 150.889 383.983 151.098 383.358 151.098C382.74 151.098 382.239 150.849 381.854 150.351C381.474 149.853 381.283 149.174 381.283 148.314ZM382.191 148.417C382.191 149.013 382.313 149.481 382.558 149.823C382.802 150.162 383.144 150.331 383.583 150.331C384.153 150.331 384.571 150.072 384.838 149.555V147.143C384.561 146.638 384.146 146.386 383.593 146.386C383.153 146.386 382.81 146.557 382.562 146.898C382.315 147.24 382.191 147.746 382.191 148.417ZM388.588 148.554L388.021 149.145V151H387.118V143.5H388.021V148.036L388.505 147.455L390.15 145.717H391.249L389.193 147.924L391.488 151H390.429L388.588 148.554ZM395.443 151C395.391 150.896 395.349 150.71 395.316 150.443C394.896 150.88 394.395 151.098 393.812 151.098C393.292 151.098 392.864 150.951 392.528 150.658C392.196 150.362 392.03 149.988 392.03 149.535C392.03 148.985 392.239 148.559 392.655 148.256C393.075 147.95 393.664 147.797 394.423 147.797H395.302V147.382C395.302 147.066 395.207 146.815 395.019 146.63C394.83 146.441 394.551 146.347 394.184 146.347C393.861 146.347 393.591 146.428 393.373 146.591C393.155 146.754 393.046 146.951 393.046 147.182H392.138C392.138 146.918 392.23 146.664 392.416 146.42C392.605 146.173 392.859 145.977 393.178 145.834C393.5 145.691 393.853 145.619 394.237 145.619C394.846 145.619 395.323 145.772 395.668 146.078C396.013 146.381 396.192 146.799 396.205 147.333V149.765C396.205 150.25 396.267 150.635 396.391 150.922V151H395.443ZM393.944 150.312C394.228 150.312 394.496 150.238 394.75 150.092C395.004 149.945 395.188 149.755 395.302 149.521V148.437H394.594C393.487 148.437 392.934 148.76 392.934 149.408C392.934 149.691 393.028 149.913 393.217 150.072C393.406 150.232 393.648 150.312 393.944 150.312ZM398.524 146.356C398.925 145.865 399.446 145.619 400.087 145.619C401.203 145.619 401.767 146.249 401.776 147.509V151H400.873V147.504C400.87 147.123 400.782 146.841 400.609 146.659C400.44 146.477 400.175 146.386 399.813 146.386C399.521 146.386 399.263 146.464 399.042 146.62C398.821 146.776 398.648 146.981 398.524 147.235V151H397.621V143.5H398.524V146.356ZM367.621 158.73C369.101 158.57 370.401 158.04 370.951 157.16C371.491 158.04 372.801 158.57 374.281 158.73L374.531 158.09C372.851 157.95 371.491 157.27 371.401 156.3H374.171V155.65H371.361V154.74H370.541V155.65H367.731V156.3H370.491C370.401 157.27 369.041 157.95 367.371 158.09L367.621 158.73ZM373.181 162.24C373.181 162.8 372.361 163.11 370.941 163.11C369.521 163.11 368.701 162.8 368.701 162.24C368.701 161.69 369.521 161.37 370.941 161.37C372.361 161.37 373.181 161.69 373.181 162.24ZM375.001 159.86V159.2H366.891V159.86H370.541V160.76C368.851 160.83 367.871 161.35 367.871 162.24C367.871 163.21 369.011 163.73 370.951 163.73C372.871 163.73 374.011 163.21 374.011 162.24C374.011 161.35 373.031 160.83 371.351 160.76V159.86H375.001ZM377.891 162.1H383.161V160.08H377.061V160.71H382.351V161.5H377.091V163.63H383.431V163H377.891V162.1ZM380.561 158.67V157.82H383.241V157.16H377.991V155.77H383.151V155.11H377.171V157.82H379.741V158.67H376.081V159.33H384.201V158.67H380.561ZM395.49 158.19C393.86 157.95 392.26 156.84 392.26 155.59V155.09H391.4V155.59C391.4 156.87 389.82 157.95 388.19 158.19L388.52 158.85C389.92 158.61 391.27 157.84 391.83 156.75C392.41 157.83 393.76 158.61 395.15 158.85L395.49 158.19ZM395.88 159.82H387.78V160.5H391.4V163.75H392.22V160.5H395.89L395.88 159.82ZM401.759 157.1V157.77H403.529V160.12H404.359V154.78H403.529V157.1H401.759ZM402.259 159.14C400.959 158.68 400.079 157.55 400.079 156.4V156.09H402.049V155.43H397.259V156.09H399.259V156.4C399.259 157.69 398.339 158.9 396.999 159.39L397.429 160.04C398.479 159.64 399.309 158.8 399.689 157.76C400.079 158.68 400.849 159.42 401.849 159.78L402.259 159.14ZM401.399 163.1C400.049 163.1 399.229 162.72 399.229 162.07C399.229 161.42 400.049 161.03 401.399 161.03C402.749 161.03 403.569 161.42 403.569 162.07C403.569 162.72 402.749 163.1 401.399 163.1ZM401.399 160.4C399.559 160.4 398.409 161.01 398.409 162.07C398.409 163.13 399.559 163.74 401.399 163.74C403.239 163.74 404.389 163.13 404.389 162.07C404.389 161.01 403.239 160.4 401.399 160.4Z" fill="black"/>
<path d="M386.354 189.646C386.158 189.451 385.842 189.451 385.646 189.646L382.464 192.828C382.269 193.024 382.269 193.34 382.464 193.536C382.66 193.731 382.976 193.731 383.172 193.536L386 190.707L388.828 193.536C389.024 193.731 389.34 193.731 389.536 193.536C389.731 193.34 389.731 193.024 389.536 192.828L386.354 189.646ZM386.5 430L386.5 190L385.5 190L385.5 430L386.5 430Z" fill="#4000C7"/>
</svg>
