<svg width="1152" height="587" viewBox="0 0 1152 587" fill="none" xmlns="http://www.w3.org/2000/svg">
<path d="M0 0H1152V587H0V0Z" fill="white" fill-opacity="0.01"/>
<path d="M384.34 189H383.397V185.714H379.813V189H378.876V181.891H379.813V184.947H383.397V181.891H384.34V189ZM390.023 185.714H386.942V188.233H390.521V189H386.005V181.891H390.473V182.662H386.942V184.947H390.023V185.714ZM395.614 187.145H392.636L391.967 189H391L393.715 181.891H394.535L397.255 189H396.293L395.614 187.145ZM392.919 186.373H395.336L394.125 183.048L392.919 186.373ZM398.212 189V181.891H400.219C400.837 181.891 401.384 182.027 401.859 182.301C402.335 182.574 402.701 182.963 402.958 183.468C403.218 183.972 403.35 184.552 403.354 185.206V185.66C403.354 186.331 403.223 186.918 402.963 187.423C402.706 187.927 402.336 188.315 401.854 188.585C401.376 188.855 400.818 188.993 400.18 189H398.212ZM399.149 182.662V188.233H400.136C400.858 188.233 401.42 188.009 401.82 187.56C402.224 187.11 402.426 186.471 402.426 185.641V185.226C402.426 184.418 402.235 183.792 401.854 183.346C401.477 182.896 400.94 182.669 400.243 182.662H399.149Z" fill="#4000C7"/>
<path d="M85.1863 206C83.5646 199.553 91.8523 185.272 137 186.029" stroke="#4000C7"/>
<path d="M146.186 180C144.565 173.553 152.852 159.272 198 160.029" stroke="#4000C7"/>
<path d="M268.814 180C270.435 173.553 262.148 159.272 217 160.029" stroke="#4000C7"/>
<rect x="115.824" y="221.124" width="18" height="41" rx="5" transform="rotate(-90.1738 115.824 221.124)" fill="black"/>
<rect x="297.824" y="195.124" width="18" height="70.7284" rx="5" transform="rotate(-90.1738 297.824 195.124)" fill="black"/>
<rect x="313.824" y="168.264" width="18" height="102.065" rx="5" transform="rotate(-90.1738 313.824 168.264)" fill="black"/>
<path d="M108.001 212.193L116.251 208.73L116.25 215.659L108.001 212.193Z" fill="black"/>
<path d="M290.001 186.193L298.251 182.73L298.25 189.659L290.001 186.193Z" fill="black"/>
<path d="M306.001 159.333L314.251 155.87L314.25 162.798L306.001 159.333Z" fill="black"/>
<path d="M125.601 209.737L125.628 210.382C126.054 209.88 126.629 209.629 127.352 209.629C128.165 209.629 128.718 209.941 129.012 210.564C129.205 210.284 129.456 210.059 129.764 209.887C130.075 209.715 130.442 209.629 130.865 209.629C132.14 209.628 132.788 210.303 132.81 211.653L132.81 215.547L131.817 215.547L131.816 211.712C131.816 211.297 131.721 210.987 131.531 210.783C131.341 210.576 131.023 210.472 130.575 210.472C130.206 210.472 129.9 210.583 129.657 210.805C129.413 211.024 129.272 211.319 129.233 211.691L129.233 215.548L128.234 215.548L128.234 211.74C128.233 210.895 127.82 210.472 126.993 210.473C126.341 210.473 125.895 210.75 125.655 211.305L125.656 215.549L124.662 215.549L124.661 209.737L125.601 209.737ZM137.902 215.546C137.845 215.432 137.798 215.228 137.762 214.934C137.301 215.414 136.749 215.654 136.108 215.654C135.535 215.654 135.064 215.493 134.696 215.171C134.33 214.845 134.148 214.433 134.148 213.936C134.147 213.331 134.376 212.861 134.835 212.528C135.297 212.192 135.945 212.023 136.779 212.023L137.746 212.023L137.746 211.566C137.746 211.219 137.642 210.943 137.434 210.739C137.226 210.532 136.92 210.428 136.516 210.428C136.161 210.428 135.864 210.518 135.624 210.697C135.384 210.876 135.264 211.092 135.264 211.347L134.265 211.347C134.265 211.057 134.367 210.777 134.571 210.509C134.779 210.237 135.058 210.022 135.409 209.864C135.763 209.707 136.152 209.628 136.574 209.628C137.244 209.627 137.769 209.796 138.148 210.132C138.528 210.465 138.725 210.925 138.739 211.512L138.74 214.187C138.74 214.721 138.808 215.145 138.944 215.46L138.944 215.546L137.902 215.546ZM136.253 214.789C136.565 214.789 136.86 214.709 137.139 214.547C137.419 214.386 137.621 214.177 137.746 213.919L137.746 212.726L136.967 212.727C135.75 212.727 135.141 213.083 135.141 213.796C135.141 214.107 135.245 214.351 135.453 214.526C135.661 214.702 135.927 214.789 136.253 214.789ZM141.377 215.546L140.384 215.546L140.383 209.734L141.376 209.734L141.377 215.546ZM140.302 208.193C140.302 208.032 140.35 207.896 140.447 207.785C140.547 207.674 140.694 207.618 140.887 207.618C141.08 207.618 141.227 207.673 141.328 207.784C141.428 207.895 141.478 208.031 141.478 208.193C141.478 208.354 141.428 208.488 141.328 208.595C141.227 208.703 141.081 208.757 140.887 208.757C140.694 208.757 140.547 208.703 140.447 208.596C140.35 208.488 140.302 208.354 140.302 208.193ZM143.911 209.734L143.944 210.464C144.388 209.905 144.968 209.626 145.684 209.626C146.912 209.626 147.532 210.318 147.543 211.704L147.543 215.545L146.55 215.545L146.549 211.699C146.545 211.28 146.449 210.97 146.259 210.77C146.073 210.569 145.781 210.469 145.383 210.469C145.061 210.469 144.778 210.555 144.535 210.727C144.291 210.899 144.101 211.125 143.965 211.404L143.966 215.545L142.973 215.545L142.971 209.734L143.911 209.734Z" fill="white"/>
<path d="M307.157 189.549L307.156 184.505L306.237 184.505L306.237 183.737L307.156 183.737L307.155 183.141C307.155 182.518 307.322 182.036 307.655 181.696C307.988 181.356 308.458 181.186 309.067 181.185C309.296 181.185 309.524 181.216 309.749 181.277L309.696 182.082C309.527 182.05 309.348 182.034 309.159 182.034C308.836 182.034 308.588 182.129 308.412 182.319C308.237 182.505 308.149 182.774 308.149 183.125L308.149 183.737L309.39 183.737L309.39 184.505L308.149 184.505L308.15 189.548L307.157 189.549ZM312.775 189.655C311.987 189.655 311.346 189.397 310.852 188.882C310.358 188.363 310.11 187.67 310.11 186.803L310.11 186.621C310.11 186.044 310.219 185.53 310.438 185.079C310.659 184.624 310.967 184.27 311.361 184.016C311.759 183.758 312.188 183.629 312.65 183.629C313.406 183.629 313.993 183.877 314.412 184.375C314.831 184.873 315.041 185.585 315.041 186.513L315.041 186.926L311.104 186.927C311.118 187.5 311.285 187.963 311.604 188.318C311.926 188.669 312.334 188.844 312.828 188.844C313.179 188.844 313.476 188.772 313.72 188.629C313.963 188.486 314.176 188.296 314.359 188.06L314.966 188.532C314.479 189.281 313.749 189.655 312.775 189.655ZM312.65 184.445C312.249 184.445 311.913 184.592 311.641 184.886C311.369 185.176 311.2 185.584 311.136 186.11L314.047 186.11L314.047 186.035C314.018 185.53 313.882 185.14 313.639 184.864C313.395 184.585 313.066 184.445 312.65 184.445ZM319.784 189.546C319.727 189.432 319.68 189.228 319.644 188.934C319.182 189.414 318.631 189.654 317.99 189.654C317.417 189.654 316.946 189.493 316.577 189.171C316.212 188.845 316.029 188.433 316.029 187.936C316.029 187.331 316.258 186.861 316.717 186.528C317.178 186.192 317.827 186.023 318.661 186.023L319.628 186.023L319.628 185.566C319.627 185.219 319.524 184.943 319.316 184.739C319.108 184.532 318.802 184.428 318.397 184.428C318.043 184.428 317.746 184.518 317.506 184.697C317.266 184.876 317.146 185.092 317.146 185.347L316.147 185.347C316.147 185.057 316.249 184.777 316.453 184.509C316.661 184.237 316.94 184.022 317.291 183.864C317.645 183.707 318.034 183.628 318.456 183.628C319.126 183.627 319.651 183.796 320.03 184.132C320.41 184.465 320.607 184.925 320.621 185.512L320.622 188.187C320.622 188.721 320.69 189.145 320.826 189.46L320.826 189.546L319.784 189.546ZM318.135 188.789C318.446 188.789 318.742 188.709 319.021 188.547C319.3 188.386 319.503 188.177 319.628 187.919L319.628 186.727L318.849 186.727C317.632 186.727 317.023 187.083 317.023 187.796C317.023 188.107 317.127 188.351 317.335 188.526C317.542 188.702 317.809 188.789 318.135 188.789ZM323.526 182.327L323.527 183.734L324.612 183.734L324.612 184.502L323.527 184.502L323.527 188.106C323.527 188.339 323.576 188.514 323.673 188.633C323.769 188.747 323.934 188.804 324.167 188.804C324.281 188.804 324.439 188.783 324.639 188.74L324.64 189.545C324.378 189.617 324.124 189.653 323.877 189.653C323.433 189.653 323.098 189.519 322.872 189.25C322.647 188.982 322.534 188.601 322.534 188.106L322.533 184.502L321.475 184.503L321.475 183.734L322.533 183.734L322.533 182.327L323.526 182.327ZM325.977 190.217L325.123 190.217L328.387 181.724L329.236 181.724L325.977 190.217ZM333.695 188.002C333.695 187.734 333.593 187.526 333.389 187.379C333.188 187.229 332.835 187.1 332.33 186.993C331.829 186.885 331.43 186.757 331.133 186.606C330.839 186.456 330.621 186.277 330.477 186.069C330.338 185.862 330.268 185.615 330.268 185.328C330.268 184.852 330.468 184.449 330.869 184.12C331.274 183.79 331.789 183.625 332.416 183.625C333.075 183.625 333.608 183.795 334.016 184.135C334.428 184.475 334.634 184.91 334.634 185.44L333.635 185.44C333.635 185.168 333.519 184.934 333.286 184.737C333.057 184.54 332.767 184.441 332.416 184.441C332.054 184.442 331.771 184.52 331.567 184.678C331.363 184.836 331.261 185.041 331.261 185.296C331.261 185.536 331.356 185.716 331.546 185.838C331.736 185.96 332.078 186.076 332.572 186.187C333.07 186.298 333.473 186.43 333.781 186.584C334.089 186.738 334.316 186.924 334.463 187.143C334.613 187.358 334.688 187.621 334.689 187.932C334.689 188.451 334.481 188.869 334.066 189.184C333.65 189.495 333.112 189.651 332.449 189.651C331.984 189.652 331.572 189.569 331.214 189.405C330.856 189.24 330.574 189.011 330.37 188.717C330.17 188.42 330.069 188.1 330.069 187.756L331.063 187.756C331.081 188.089 331.214 188.354 331.461 188.551C331.711 188.744 332.041 188.84 332.449 188.84C332.825 188.84 333.126 188.765 333.351 188.615C333.58 188.461 333.695 188.257 333.695 188.002ZM337.063 189.543L336.069 189.543L336.068 183.732L337.062 183.732L337.063 189.543ZM335.987 182.19C335.987 182.029 336.036 181.893 336.132 181.782C336.232 181.671 336.379 181.616 336.573 181.616C336.766 181.616 336.913 181.671 337.013 181.782C337.113 181.893 337.164 182.029 337.164 182.19C337.164 182.351 337.113 182.486 337.013 182.593C336.913 182.7 336.766 182.754 336.573 182.754C336.379 182.754 336.233 182.701 336.132 182.593C336.036 182.486 335.987 182.351 335.987 182.19ZM338.421 186.589C338.421 185.683 338.63 184.963 339.049 184.43C339.468 183.892 340.023 183.624 340.714 183.624C341.423 183.623 341.976 183.874 342.374 184.375L342.422 183.731L343.33 183.731L343.331 189.402C343.331 190.154 343.107 190.747 342.66 191.18C342.216 191.614 341.618 191.83 340.866 191.831C340.447 191.831 340.037 191.741 339.636 191.562C339.235 191.383 338.929 191.138 338.717 190.827L339.233 190.23C339.659 190.757 340.18 191.02 340.796 191.02C341.279 191.019 341.655 190.883 341.924 190.611C342.196 190.339 342.332 189.956 342.332 189.462L342.332 188.962C341.934 189.421 341.392 189.65 340.704 189.65C340.024 189.65 339.473 189.376 339.05 188.828C338.631 188.281 338.421 187.534 338.421 186.589ZM339.42 186.701C339.42 187.357 339.555 187.872 339.823 188.248C340.092 188.621 340.468 188.807 340.951 188.807C341.578 188.807 342.038 188.522 342.332 187.952L342.331 185.299C342.027 184.744 341.57 184.467 340.961 184.467C340.478 184.467 340.1 184.655 339.828 185.031C339.556 185.407 339.42 185.964 339.42 186.701ZM345.774 183.73L345.806 184.461C346.25 183.902 346.83 183.622 347.546 183.622C348.774 183.622 349.394 184.315 349.405 185.701L349.406 189.541L348.412 189.541L348.411 185.695C348.408 185.276 348.311 184.967 348.121 184.766C347.935 184.566 347.643 184.466 347.246 184.466C346.923 184.466 346.64 184.552 346.397 184.724C346.153 184.896 345.964 185.121 345.828 185.4L345.828 189.542L344.835 189.542L344.834 183.73L345.774 183.73ZM354.492 188.965C354.105 189.42 353.538 189.648 352.789 189.648C352.17 189.648 351.697 189.469 351.371 189.111C351.049 188.749 350.886 188.216 350.882 187.51L350.882 183.729L351.875 183.729L351.876 187.483C351.876 188.364 352.234 188.805 352.95 188.804C353.71 188.804 354.214 188.521 354.465 187.956L354.464 183.729L355.458 183.728L355.459 189.54L354.514 189.54L354.492 188.965ZM361.882 186.697C361.882 187.582 361.68 188.294 361.276 188.835C360.871 189.376 360.323 189.646 359.632 189.647C358.927 189.647 358.372 189.423 357.967 188.975L357.968 191.774L356.974 191.774L356.972 183.728L357.88 183.728L357.929 184.372C358.333 183.871 358.895 183.62 359.615 183.62C360.313 183.62 360.865 183.883 361.269 184.409C361.678 184.936 361.882 185.668 361.882 186.606L361.882 186.697ZM360.888 186.585C360.888 185.93 360.749 185.412 360.469 185.033C360.19 184.653 359.807 184.463 359.32 184.463C358.718 184.464 358.267 184.73 357.966 185.264L357.967 188.041C358.264 188.571 358.719 188.836 359.331 188.836C359.808 188.835 360.185 188.647 360.464 188.271C360.747 187.892 360.889 187.33 360.888 186.585Z" fill="white"/>
<path d="M323.157 162.688L323.156 157.645L322.237 157.645L322.237 156.877L323.156 156.877L323.155 156.281C323.155 155.657 323.322 155.176 323.655 154.836C323.988 154.495 324.458 154.325 325.067 154.325C325.296 154.325 325.524 154.355 325.749 154.416L325.696 155.222C325.527 155.19 325.348 155.174 325.159 155.174C324.836 155.174 324.588 155.269 324.412 155.459C324.237 155.645 324.149 155.913 324.149 156.264L324.149 156.877L325.39 156.876L325.39 157.644L324.149 157.645L324.15 162.688L323.157 162.688ZM328.775 162.795C327.987 162.795 327.346 162.537 326.852 162.022C326.358 161.502 326.11 160.81 326.11 159.943L326.11 159.76C326.11 159.184 326.219 158.67 326.438 158.219C326.659 157.764 326.967 157.41 327.361 157.155C327.759 156.897 328.188 156.768 328.65 156.768C329.406 156.768 329.993 157.017 330.412 157.515C330.831 158.012 331.041 158.725 331.041 159.652L331.041 160.066L327.104 160.066C327.118 160.639 327.285 161.103 327.604 161.457C327.926 161.808 328.334 161.984 328.828 161.984C329.179 161.984 329.476 161.912 329.72 161.769C329.963 161.625 330.176 161.436 330.359 161.199L330.966 161.672C330.479 162.42 329.749 162.794 328.775 162.795ZM328.65 157.585C328.249 157.585 327.913 157.732 327.641 158.025C327.369 158.315 327.2 158.724 327.136 159.25L330.047 159.25L330.047 159.174C330.018 158.669 329.882 158.279 329.639 158.003C329.395 157.724 329.066 157.585 328.65 157.585ZM335.784 162.686C335.727 162.571 335.68 162.367 335.644 162.074C335.182 162.554 334.631 162.794 333.99 162.794C333.417 162.794 332.946 162.633 332.577 162.311C332.212 161.985 332.029 161.573 332.029 161.075C332.029 160.47 332.258 160.001 332.717 159.668C333.178 159.331 333.827 159.163 334.661 159.163L335.628 159.163L335.628 158.706C335.627 158.359 335.524 158.083 335.316 157.879C335.108 157.671 334.802 157.567 334.397 157.568C334.043 157.568 333.746 157.657 333.506 157.836C333.266 158.015 333.146 158.232 333.146 158.486L332.147 158.486C332.147 158.196 332.249 157.917 332.453 157.648C332.661 157.376 332.94 157.161 333.291 157.004C333.645 156.846 334.034 156.767 334.456 156.767C335.126 156.767 335.651 156.935 336.03 157.272C336.41 157.605 336.607 158.065 336.621 158.652L336.622 161.327C336.622 161.86 336.69 162.285 336.826 162.6L336.826 162.686L335.784 162.686ZM334.135 161.929C334.446 161.929 334.742 161.848 335.021 161.687C335.3 161.526 335.503 161.316 335.628 161.059L335.628 159.866L334.849 159.866C333.632 159.867 333.023 160.223 333.023 160.935C333.023 161.247 333.127 161.49 333.335 161.666C333.542 161.841 333.809 161.929 334.135 161.929ZM339.526 155.467L339.527 156.874L340.612 156.874L340.612 157.642L339.527 157.642L339.527 161.246C339.527 161.479 339.576 161.654 339.673 161.772C339.769 161.887 339.934 161.944 340.167 161.944C340.281 161.944 340.439 161.922 340.639 161.879L340.64 162.685C340.378 162.757 340.124 162.793 339.877 162.793C339.433 162.793 339.098 162.659 338.872 162.39C338.647 162.121 338.534 161.74 338.534 161.246L338.533 157.642L337.475 157.642L337.475 156.874L338.533 156.874L338.533 155.467L339.526 155.467ZM341.977 163.356L341.123 163.356L344.387 154.864L345.236 154.864L341.977 163.356ZM349.695 161.142C349.695 160.873 349.593 160.666 349.389 160.519C349.188 160.369 348.835 160.24 348.33 160.132C347.829 160.025 347.43 159.896 347.133 159.746C346.839 159.596 346.621 159.417 346.477 159.209C346.338 159.001 346.268 158.754 346.268 158.468C346.268 157.992 346.468 157.589 346.869 157.259C347.274 156.93 347.789 156.765 348.416 156.765C349.075 156.765 349.608 156.935 350.016 157.275C350.428 157.615 350.634 158.05 350.634 158.58L349.635 158.58C349.635 158.308 349.519 158.073 349.286 157.876C349.057 157.679 348.767 157.581 348.416 157.581C348.054 157.581 347.771 157.66 347.567 157.818C347.363 157.975 347.261 158.181 347.261 158.435C347.261 158.675 347.356 158.856 347.546 158.978C347.736 159.099 348.078 159.216 348.572 159.327C349.07 159.438 349.473 159.57 349.781 159.724C350.089 159.878 350.316 160.064 350.463 160.282C350.613 160.497 350.688 160.76 350.689 161.072C350.689 161.591 350.481 162.008 350.066 162.324C349.65 162.635 349.112 162.791 348.449 162.791C347.984 162.791 347.572 162.709 347.214 162.544C346.856 162.38 346.574 162.15 346.37 161.857C346.17 161.56 346.069 161.239 346.069 160.896L347.063 160.895C347.081 161.228 347.214 161.493 347.461 161.69C347.711 161.884 348.041 161.98 348.449 161.98C348.825 161.98 349.126 161.905 349.351 161.754C349.58 161.6 349.695 161.396 349.695 161.142ZM353.063 162.683L352.069 162.683L352.068 156.871L353.062 156.871L353.063 162.683ZM351.987 155.33C351.987 155.169 352.036 155.033 352.132 154.922C352.232 154.811 352.379 154.755 352.573 154.755C352.766 154.755 352.913 154.811 353.013 154.922C353.113 155.033 353.164 155.169 353.164 155.33C353.164 155.491 353.113 155.625 353.013 155.733C352.913 155.84 352.766 155.894 352.573 155.894C352.379 155.894 352.233 155.84 352.132 155.733C352.036 155.625 351.987 155.491 351.987 155.33ZM354.421 159.728C354.421 158.823 354.63 158.103 355.049 157.569C355.468 157.032 356.023 156.763 356.714 156.763C357.423 156.763 357.976 157.014 358.374 157.515L358.422 156.87L359.33 156.87L359.331 162.542C359.331 163.294 359.107 163.887 358.66 164.32C358.216 164.753 357.618 164.97 356.866 164.97C356.447 164.97 356.037 164.881 355.636 164.702C355.235 164.523 354.929 164.278 354.717 163.966L355.233 163.37C355.659 163.896 356.18 164.159 356.796 164.159C357.279 164.159 357.655 164.023 357.924 163.751C358.196 163.479 358.332 163.095 358.332 162.601L358.332 162.102C357.934 162.56 357.392 162.789 356.704 162.79C356.024 162.79 355.473 162.516 355.05 161.968C354.631 161.42 354.421 160.674 354.421 159.728ZM355.42 159.841C355.42 160.496 355.555 161.012 355.823 161.388C356.092 161.76 356.468 161.946 356.951 161.946C357.578 161.946 358.038 161.661 358.332 161.092L358.331 158.439C358.027 157.884 357.57 157.606 356.961 157.606C356.478 157.607 356.1 157.795 355.828 158.171C355.556 158.547 355.42 159.103 355.42 159.841ZM361.774 156.87L361.806 157.6C362.25 157.042 362.83 156.762 363.546 156.762C364.774 156.762 365.394 157.455 365.405 158.84L365.406 162.681L364.412 162.681L364.411 158.835C364.408 158.416 364.311 158.106 364.121 157.906C363.935 157.705 363.643 157.605 363.246 157.605C362.923 157.605 362.64 157.691 362.397 157.863C362.153 158.035 361.964 158.261 361.828 158.54L361.828 162.681L360.835 162.681L360.834 156.87L361.774 156.87ZM370.492 162.105C370.105 162.56 369.538 162.787 368.789 162.787C368.17 162.788 367.697 162.609 367.371 162.251C367.049 161.889 366.886 161.355 366.882 160.65L366.882 156.869L367.875 156.869L367.876 160.623C367.876 161.504 368.234 161.944 368.95 161.944C369.71 161.944 370.214 161.661 370.465 161.095L370.464 156.868L371.458 156.868L371.459 162.68L370.514 162.68L370.492 162.105ZM377.882 159.837C377.882 160.721 377.68 161.434 377.276 161.975C376.871 162.516 376.323 162.786 375.632 162.786C374.927 162.786 374.372 162.563 373.967 162.115L373.968 164.913L372.974 164.914L372.972 156.868L373.88 156.868L373.929 157.512C374.333 157.011 374.895 156.76 375.615 156.76C376.313 156.76 376.865 157.023 377.269 157.549C377.678 158.075 377.882 158.808 377.882 159.746L377.882 159.837ZM376.888 159.724C376.888 159.069 376.749 158.552 376.469 158.172C376.19 157.793 375.807 157.603 375.32 157.603C374.718 157.603 374.267 157.87 373.966 158.404L373.967 161.181C374.264 161.71 374.719 161.975 375.331 161.975C375.808 161.975 376.185 161.787 376.464 161.411C376.747 161.031 376.889 160.469 376.888 159.724ZM381.218 159.761L378.596 159.762L378.596 158.951L381.217 158.95L381.218 159.761ZM381.927 159.718C381.926 159.149 382.037 158.637 382.259 158.182C382.485 157.727 382.796 157.376 383.194 157.129C383.595 156.882 384.051 156.758 384.563 156.758C385.355 156.758 385.994 157.032 386.481 157.58C386.972 158.127 387.217 158.856 387.217 159.766L387.217 159.835C387.217 160.401 387.108 160.91 386.89 161.361C386.675 161.808 386.365 162.158 385.961 162.408C385.56 162.659 385.098 162.784 384.575 162.785C383.787 162.785 383.148 162.511 382.657 161.963C382.17 161.415 381.927 160.69 381.927 159.788L381.927 159.718ZM382.926 159.836C382.926 160.481 383.074 160.998 383.372 161.388C383.673 161.779 384.074 161.974 384.575 161.974C385.08 161.973 385.481 161.776 385.778 161.382C386.075 160.985 386.224 160.43 386.223 159.717C386.223 159.08 386.071 158.564 385.767 158.171C385.466 157.773 385.065 157.575 384.563 157.575C384.073 157.575 383.677 157.77 383.376 158.16C383.076 158.551 382.925 159.109 382.926 159.836ZM392.052 162.676C391.994 162.561 391.948 162.357 391.912 162.063C391.45 162.543 390.899 162.783 390.258 162.784C389.685 162.784 389.214 162.623 388.845 162.3C388.48 161.975 388.297 161.563 388.297 161.065C388.297 160.46 388.526 159.991 388.984 159.658C389.446 159.321 390.094 159.153 390.928 159.153L391.895 159.152L391.895 158.696C391.895 158.348 391.791 158.073 391.583 157.869C391.376 157.661 391.07 157.557 390.665 157.557C390.31 157.557 390.013 157.647 389.773 157.826C389.534 158.005 389.414 158.222 389.414 158.476L388.415 158.476C388.415 158.186 388.517 157.907 388.721 157.638C388.928 157.366 389.208 157.151 389.558 156.994C389.913 156.836 390.301 156.757 390.724 156.757C391.393 156.757 391.918 156.925 392.298 157.262C392.677 157.595 392.874 158.055 392.889 158.642L392.889 161.317C392.889 161.85 392.957 162.275 393.094 162.59L393.094 162.676L392.052 162.676ZM390.403 161.919C390.714 161.919 391.009 161.838 391.289 161.677C391.568 161.516 391.77 161.306 391.896 161.048L391.895 159.856L391.117 159.856C389.899 159.856 389.29 160.213 389.291 160.925C389.291 161.237 389.394 161.48 389.602 161.656C389.81 161.831 390.077 161.919 390.403 161.919ZM398.035 162.1C397.648 162.555 397.081 162.782 396.332 162.782C395.713 162.783 395.24 162.604 394.914 162.246C394.592 161.884 394.429 161.35 394.425 160.645L394.425 156.864L395.418 156.864L395.419 160.618C395.419 161.499 395.777 161.939 396.493 161.939C397.252 161.939 397.757 161.656 398.008 161.09L398.007 156.863L399.001 156.863L399.002 162.675L398.056 162.675L398.035 162.1ZM401.863 155.455L401.864 156.862L402.949 156.862L402.949 157.63L401.864 157.631L401.864 161.235C401.864 161.467 401.913 161.643 402.009 161.761C402.106 161.875 402.271 161.933 402.504 161.933C402.618 161.933 402.776 161.911 402.976 161.868L402.976 162.674C402.715 162.745 402.461 162.781 402.214 162.781C401.77 162.781 401.435 162.647 401.209 162.379C400.984 162.11 400.871 161.729 400.871 161.235L400.87 157.631L399.812 157.631L399.812 156.863L400.87 156.863L400.87 155.455L401.863 155.455ZM405.108 157.566C405.548 157.025 406.121 156.754 406.826 156.754C408.055 156.754 408.674 157.447 408.685 158.832L408.686 162.673L407.692 162.673L407.692 158.827C407.688 158.408 407.591 158.099 407.401 157.898C407.215 157.698 406.923 157.597 406.526 157.597C406.204 157.598 405.921 157.684 405.677 157.855C405.434 158.027 405.244 158.253 405.108 158.532L405.109 162.673L404.115 162.674L404.114 154.424L405.107 154.423L405.108 157.566Z" fill="white"/>
<circle cx="84.5" cy="212.5" r="9.5" fill="#4000C7"/>
<circle cx="145.5" cy="186.5" r="9.5" fill="#4000C7"/>
<circle cx="268.5" cy="186.5" r="9.5" fill="#4000C7"/>
<circle cx="207.5" cy="160.5" r="9.5" fill="#4000C7"/>
<line x1="155" y1="186.5" x2="259" y2="186.5" stroke="#4000C7"/>
<path d="M250.083 155.006H250.762C251.188 154.999 251.523 154.887 251.768 154.669C252.012 154.451 252.134 154.156 252.134 153.785C252.134 152.952 251.719 152.535 250.889 152.535C250.498 152.535 250.186 152.647 249.951 152.872C249.72 153.093 249.604 153.388 249.604 153.756H248.701C248.701 153.193 248.906 152.726 249.316 152.354C249.73 151.98 250.254 151.793 250.889 151.793C251.559 151.793 252.085 151.97 252.466 152.325C252.847 152.68 253.037 153.173 253.037 153.805C253.037 154.114 252.936 154.413 252.734 154.703C252.536 154.993 252.264 155.209 251.919 155.353C252.31 155.476 252.611 155.681 252.822 155.968C253.037 156.254 253.145 156.604 253.145 157.018C253.145 157.656 252.936 158.162 252.52 158.536C252.103 158.91 251.561 159.098 250.894 159.098C250.226 159.098 249.683 158.917 249.263 158.556C248.846 158.194 248.638 157.717 248.638 157.125H249.546C249.546 157.499 249.668 157.799 249.912 158.023C250.156 158.248 250.483 158.36 250.894 158.36C251.33 158.36 251.663 158.246 251.895 158.019C252.126 157.791 252.241 157.464 252.241 157.037C252.241 156.624 252.114 156.306 251.86 156.085C251.606 155.864 251.24 155.75 250.762 155.743H250.083V155.006ZM256.597 158.36C256.919 158.36 257.201 158.263 257.441 158.067C257.682 157.872 257.816 157.628 257.842 157.335H258.696C258.68 157.638 258.576 157.926 258.384 158.199C258.192 158.473 257.935 158.691 257.612 158.854C257.293 159.016 256.955 159.098 256.597 159.098C255.877 159.098 255.304 158.858 254.878 158.38C254.455 157.898 254.243 157.241 254.243 156.407V156.256C254.243 155.742 254.338 155.284 254.526 154.884C254.715 154.483 254.985 154.173 255.337 153.951C255.692 153.73 256.11 153.619 256.592 153.619C257.184 153.619 257.676 153.797 258.066 154.151C258.46 154.506 258.67 154.967 258.696 155.533H257.842C257.816 155.191 257.686 154.911 257.451 154.693C257.22 154.472 256.934 154.361 256.592 154.361C256.133 154.361 255.776 154.527 255.522 154.859C255.272 155.188 255.146 155.665 255.146 156.29V156.461C255.146 157.07 255.272 157.538 255.522 157.867C255.773 158.196 256.131 158.36 256.597 158.36ZM261.904 159.098C261.188 159.098 260.605 158.863 260.156 158.395C259.707 157.923 259.482 157.293 259.482 156.505V156.339C259.482 155.815 259.582 155.348 259.78 154.938C259.982 154.524 260.262 154.202 260.62 153.971C260.981 153.736 261.372 153.619 261.792 153.619C262.479 153.619 263.013 153.845 263.394 154.298C263.774 154.75 263.965 155.398 263.965 156.241V156.617H260.386C260.399 157.138 260.55 157.56 260.84 157.882C261.133 158.201 261.504 158.36 261.953 158.36C262.272 158.36 262.542 158.295 262.764 158.165C262.985 158.035 263.179 157.862 263.345 157.647L263.896 158.077C263.454 158.757 262.79 159.098 261.904 159.098ZM261.792 154.361C261.427 154.361 261.121 154.495 260.874 154.762C260.627 155.025 260.474 155.396 260.415 155.875H263.062V155.807C263.035 155.348 262.912 154.993 262.69 154.742C262.469 154.488 262.17 154.361 261.792 154.361ZM266.235 155.006H266.914C267.34 154.999 267.676 154.887 267.92 154.669C268.164 154.451 268.286 154.156 268.286 153.785C268.286 152.952 267.871 152.535 267.041 152.535C266.65 152.535 266.338 152.647 266.104 152.872C265.872 153.093 265.757 153.388 265.757 153.756H264.854C264.854 153.193 265.059 152.726 265.469 152.354C265.882 151.98 266.406 151.793 267.041 151.793C267.712 151.793 268.237 151.97 268.618 152.325C268.999 152.68 269.189 153.173 269.189 153.805C269.189 154.114 269.089 154.413 268.887 154.703C268.688 154.993 268.416 155.209 268.071 155.353C268.462 155.476 268.763 155.681 268.975 155.968C269.189 156.254 269.297 156.604 269.297 157.018C269.297 157.656 269.089 158.162 268.672 158.536C268.255 158.91 267.713 159.098 267.046 159.098C266.379 159.098 265.835 158.917 265.415 158.556C264.998 158.194 264.79 157.717 264.79 157.125H265.698C265.698 157.499 265.82 157.799 266.064 158.023C266.309 158.248 266.636 158.36 267.046 158.36C267.482 158.36 267.816 158.246 268.047 158.019C268.278 157.791 268.394 157.464 268.394 157.037C268.394 156.624 268.267 156.306 268.013 156.085C267.759 155.864 267.393 155.75 266.914 155.743H266.235V155.006ZM273.999 155.875C273.81 156.1 273.584 156.28 273.32 156.417C273.06 156.554 272.773 156.622 272.461 156.622C272.051 156.622 271.693 156.521 271.387 156.319C271.084 156.118 270.85 155.834 270.684 155.47C270.518 155.102 270.435 154.697 270.435 154.254C270.435 153.779 270.524 153.351 270.703 152.97C270.885 152.589 271.143 152.298 271.475 152.096C271.807 151.894 272.194 151.793 272.637 151.793C273.34 151.793 273.893 152.057 274.297 152.584C274.704 153.108 274.907 153.824 274.907 154.732V154.996C274.907 156.38 274.634 157.39 274.087 158.028C273.54 158.663 272.715 158.989 271.611 159.005H271.436V158.243H271.626C272.371 158.23 272.944 158.036 273.345 157.662C273.745 157.285 273.963 156.689 273.999 155.875ZM272.607 155.875C272.91 155.875 273.188 155.782 273.442 155.597C273.7 155.411 273.887 155.182 274.004 154.908V154.547C274.004 153.954 273.875 153.473 273.618 153.102C273.361 152.73 273.035 152.545 272.642 152.545C272.244 152.545 271.925 152.698 271.685 153.004C271.444 153.307 271.323 153.707 271.323 154.205C271.323 154.69 271.439 155.09 271.67 155.406C271.904 155.719 272.217 155.875 272.607 155.875ZM279.966 156.612H280.952V157.35H279.966V159H279.058V157.35H275.82V156.817L279.004 151.891H279.966V156.612ZM276.846 156.612H279.058V153.126L278.95 153.321L276.846 156.612ZM281.641 156.314C281.641 155.504 281.833 154.853 282.217 154.361C282.601 153.867 283.104 153.619 283.726 153.619C284.344 153.619 284.834 153.831 285.195 154.254V151.5H286.099V159H285.269L285.225 158.434C284.863 158.876 284.36 159.098 283.716 159.098C283.104 159.098 282.604 158.847 282.217 158.346C281.833 157.844 281.641 157.19 281.641 156.383V156.314ZM282.544 156.417C282.544 157.016 282.668 157.485 282.915 157.823C283.162 158.162 283.504 158.331 283.94 158.331C284.513 158.331 284.932 158.074 285.195 157.56V155.133C284.925 154.635 284.51 154.386 283.95 154.386C283.507 154.386 283.162 154.557 282.915 154.898C282.668 155.24 282.544 155.746 282.544 156.417ZM245.692 167.15C244.122 166.87 242.412 165.55 242.412 164.06V163.37H241.552V164.06C241.552 165.55 239.852 166.87 238.282 167.15L238.622 167.83C240.002 167.54 241.402 166.61 241.982 165.33C242.562 166.61 243.972 167.54 245.342 167.83L245.692 167.15ZM242.392 169.9V167.72H241.572V169.9H237.952V170.57H246.092V169.9H242.392ZM253.711 167.48H254.541V162.78H253.711V163.69H251.951V164.34H253.711V165.3H251.951V165.95H253.711V167.48ZM252.391 166.69C251.101 166.25 250.191 165.14 250.191 163.94V163H249.381V163.94C249.381 165.19 248.481 166.39 247.151 166.88L247.571 167.5C248.611 167.12 249.421 166.3 249.801 165.28C250.191 166.21 250.971 166.96 251.971 167.33L252.391 166.69ZM249.591 170.98V170.03H254.541V167.92H248.761V168.55H253.731V169.42H248.781V171.62H254.881V170.98H249.591ZM259.311 163.73V164.41H262.601C262.411 166.53 261.181 168.25 258.891 169.4L259.341 170.04C262.241 168.59 263.411 166.28 263.411 163.73H259.311ZM267.171 166.41H265.731V162.77H264.911V171.74H265.731V167.09H267.171V166.41ZM274.57 162.78V167.59H275.39V162.78H274.57ZM269.61 168.03V171.62H275.39V168.03H274.58V169.13H270.42V168.03H269.61ZM270.42 169.77H274.58V170.96H270.42V169.77ZM270.57 163.2C269.22 163.2 268.24 164.04 268.24 165.26C268.24 166.5 269.22 167.33 270.57 167.33C271.93 167.33 272.92 166.5 272.92 165.26C272.92 164.04 271.93 163.2 270.57 163.2ZM270.57 163.88C271.48 163.88 272.12 164.45 272.12 165.26C272.12 166.08 271.48 166.65 270.57 166.65C269.68 166.65 269.04 166.08 269.04 165.26C269.04 164.45 269.68 163.88 270.57 163.88ZM287.83 167.21H286.5C286.75 165.92 286.75 164.97 286.75 164.13V163.35H280.73V164.01H285.95V164.13C285.95 164.97 285.95 165.92 285.67 167.21H279.72V167.88H283.34V171.75H284.17V167.88H287.83V167.21ZM293.949 165.16V165.83H295.459V167.04H293.949V167.71H295.459V169.61H296.289V162.78H295.459V165.16H293.949ZM293.949 163.87H291.889V162.76H291.069V163.87H288.929V164.53H293.949V163.87ZM290.219 166.73C290.219 166.1 290.729 165.67 291.469 165.67C292.209 165.67 292.719 166.1 292.719 166.73C292.719 167.37 292.209 167.81 291.469 167.81C290.729 167.81 290.219 167.37 290.219 166.73ZM293.499 166.73C293.499 165.71 292.659 165.03 291.469 165.03C290.279 165.03 289.439 165.71 289.439 166.73C289.439 167.76 290.279 168.45 291.469 168.45C292.659 168.45 293.499 167.76 293.499 166.73ZM291.349 170.87V169.03H290.529V171.54H296.499V170.87H291.349Z" fill="black"/>
<path d="M190.083 131.006H190.762C191.188 130.999 191.523 130.887 191.768 130.669C192.012 130.451 192.134 130.156 192.134 129.785C192.134 128.952 191.719 128.535 190.889 128.535C190.498 128.535 190.186 128.647 189.951 128.872C189.72 129.093 189.604 129.388 189.604 129.756H188.701C188.701 129.193 188.906 128.726 189.316 128.354C189.73 127.98 190.254 127.793 190.889 127.793C191.559 127.793 192.085 127.97 192.466 128.325C192.847 128.68 193.037 129.173 193.037 129.805C193.037 130.114 192.936 130.413 192.734 130.703C192.536 130.993 192.264 131.209 191.919 131.353C192.31 131.476 192.611 131.681 192.822 131.968C193.037 132.254 193.145 132.604 193.145 133.018C193.145 133.656 192.936 134.162 192.52 134.536C192.103 134.91 191.561 135.098 190.894 135.098C190.226 135.098 189.683 134.917 189.263 134.556C188.846 134.194 188.638 133.717 188.638 133.125H189.546C189.546 133.499 189.668 133.799 189.912 134.023C190.156 134.248 190.483 134.36 190.894 134.36C191.33 134.36 191.663 134.246 191.895 134.019C192.126 133.791 192.241 133.464 192.241 133.037C192.241 132.624 192.114 132.306 191.86 132.085C191.606 131.864 191.24 131.75 190.762 131.743H190.083V131.006ZM196.597 134.36C196.919 134.36 197.201 134.263 197.441 134.067C197.682 133.872 197.816 133.628 197.842 133.335H198.696C198.68 133.638 198.576 133.926 198.384 134.199C198.192 134.473 197.935 134.691 197.612 134.854C197.293 135.016 196.955 135.098 196.597 135.098C195.877 135.098 195.304 134.858 194.878 134.38C194.455 133.898 194.243 133.241 194.243 132.407V132.256C194.243 131.742 194.338 131.284 194.526 130.884C194.715 130.483 194.985 130.173 195.337 129.951C195.692 129.73 196.11 129.619 196.592 129.619C197.184 129.619 197.676 129.797 198.066 130.151C198.46 130.506 198.67 130.967 198.696 131.533H197.842C197.816 131.191 197.686 130.911 197.451 130.693C197.22 130.472 196.934 130.361 196.592 130.361C196.133 130.361 195.776 130.527 195.522 130.859C195.272 131.188 195.146 131.665 195.146 132.29V132.461C195.146 133.07 195.272 133.538 195.522 133.867C195.773 134.196 196.131 134.36 196.597 134.36ZM201.904 135.098C201.188 135.098 200.605 134.863 200.156 134.395C199.707 133.923 199.482 133.293 199.482 132.505V132.339C199.482 131.815 199.582 131.348 199.78 130.938C199.982 130.524 200.262 130.202 200.62 129.971C200.981 129.736 201.372 129.619 201.792 129.619C202.479 129.619 203.013 129.845 203.394 130.298C203.774 130.75 203.965 131.398 203.965 132.241V132.617H200.386C200.399 133.138 200.55 133.56 200.84 133.882C201.133 134.201 201.504 134.36 201.953 134.36C202.272 134.36 202.542 134.295 202.764 134.165C202.985 134.035 203.179 133.862 203.345 133.647L203.896 134.077C203.454 134.757 202.79 135.098 201.904 135.098ZM201.792 130.361C201.427 130.361 201.121 130.495 200.874 130.762C200.627 131.025 200.474 131.396 200.415 131.875H203.062V131.807C203.035 131.348 202.912 130.993 202.69 130.742C202.469 130.488 202.17 130.361 201.792 130.361ZM206.235 131.006H206.914C207.34 130.999 207.676 130.887 207.92 130.669C208.164 130.451 208.286 130.156 208.286 129.785C208.286 128.952 207.871 128.535 207.041 128.535C206.65 128.535 206.338 128.647 206.104 128.872C205.872 129.093 205.757 129.388 205.757 129.756H204.854C204.854 129.193 205.059 128.726 205.469 128.354C205.882 127.98 206.406 127.793 207.041 127.793C207.712 127.793 208.237 127.97 208.618 128.325C208.999 128.68 209.189 129.173 209.189 129.805C209.189 130.114 209.089 130.413 208.887 130.703C208.688 130.993 208.416 131.209 208.071 131.353C208.462 131.476 208.763 131.681 208.975 131.968C209.189 132.254 209.297 132.604 209.297 133.018C209.297 133.656 209.089 134.162 208.672 134.536C208.255 134.91 207.713 135.098 207.046 135.098C206.379 135.098 205.835 134.917 205.415 134.556C204.998 134.194 204.79 133.717 204.79 133.125H205.698C205.698 133.499 205.82 133.799 206.064 134.023C206.309 134.248 206.636 134.36 207.046 134.36C207.482 134.36 207.816 134.246 208.047 134.019C208.278 133.791 208.394 133.464 208.394 133.037C208.394 132.624 208.267 132.306 208.013 132.085C207.759 131.864 207.393 131.75 206.914 131.743H206.235V131.006ZM213.999 131.875C213.81 132.1 213.584 132.28 213.32 132.417C213.06 132.554 212.773 132.622 212.461 132.622C212.051 132.622 211.693 132.521 211.387 132.319C211.084 132.118 210.85 131.834 210.684 131.47C210.518 131.102 210.435 130.697 210.435 130.254C210.435 129.779 210.524 129.351 210.703 128.97C210.885 128.589 211.143 128.298 211.475 128.096C211.807 127.894 212.194 127.793 212.637 127.793C213.34 127.793 213.893 128.057 214.297 128.584C214.704 129.108 214.907 129.824 214.907 130.732V130.996C214.907 132.38 214.634 133.39 214.087 134.028C213.54 134.663 212.715 134.989 211.611 135.005H211.436V134.243H211.626C212.371 134.23 212.944 134.036 213.345 133.662C213.745 133.285 213.963 132.689 213.999 131.875ZM212.607 131.875C212.91 131.875 213.188 131.782 213.442 131.597C213.7 131.411 213.887 131.182 214.004 130.908V130.547C214.004 129.954 213.875 129.473 213.618 129.102C213.361 128.73 213.035 128.545 212.642 128.545C212.244 128.545 211.925 128.698 211.685 129.004C211.444 129.307 211.323 129.707 211.323 130.205C211.323 130.69 211.439 131.09 211.67 131.406C211.904 131.719 212.217 131.875 212.607 131.875ZM219.966 132.612H220.952V133.35H219.966V135H219.058V133.35H215.82V132.817L219.004 127.891H219.966V132.612ZM216.846 132.612H219.058V129.126L218.95 129.321L216.846 132.612ZM221.641 132.314C221.641 131.504 221.833 130.853 222.217 130.361C222.601 129.867 223.104 129.619 223.726 129.619C224.344 129.619 224.834 129.831 225.195 130.254V127.5H226.099V135H225.269L225.225 134.434C224.863 134.876 224.36 135.098 223.716 135.098C223.104 135.098 222.604 134.847 222.217 134.346C221.833 133.844 221.641 133.19 221.641 132.383V132.314ZM222.544 132.417C222.544 133.016 222.668 133.485 222.915 133.823C223.162 134.162 223.504 134.331 223.94 134.331C224.513 134.331 224.932 134.074 225.195 133.56V131.133C224.925 130.635 224.51 130.386 223.95 130.386C223.507 130.386 223.162 130.557 222.915 130.898C222.668 131.24 222.544 131.746 222.544 132.417ZM185.692 143.15C184.122 142.87 182.412 141.55 182.412 140.06V139.37H181.552V140.06C181.552 141.55 179.852 142.87 178.282 143.15L178.622 143.83C180.002 143.54 181.402 142.61 181.982 141.33C182.562 142.61 183.972 143.54 185.342 143.83L185.692 143.15ZM182.392 145.9V143.72H181.572V145.9H177.952V146.57H186.092V145.9H182.392ZM193.711 143.48H194.541V138.78H193.711V139.69H191.951V140.34H193.711V141.3H191.951V141.95H193.711V143.48ZM192.391 142.69C191.101 142.25 190.191 141.14 190.191 139.94V139H189.381V139.94C189.381 141.19 188.481 142.39 187.151 142.88L187.571 143.5C188.611 143.12 189.421 142.3 189.801 141.28C190.191 142.21 190.971 142.96 191.971 143.33L192.391 142.69ZM189.591 146.98V146.03H194.541V143.92H188.761V144.55H193.731V145.42H188.781V147.62H194.881V146.98H189.591ZM199.311 139.73V140.41H202.601C202.411 142.53 201.181 144.25 198.891 145.4L199.341 146.04C202.241 144.59 203.411 142.28 203.411 139.73H199.311ZM207.171 142.41H205.731V138.77H204.911V147.74H205.731V143.09H207.171V142.41ZM214.57 138.78V143.59H215.39V138.78H214.57ZM209.61 144.03V147.62H215.39V144.03H214.58V145.13H210.42V144.03H209.61ZM210.42 145.77H214.58V146.96H210.42V145.77ZM210.57 139.2C209.22 139.2 208.24 140.04 208.24 141.26C208.24 142.5 209.22 143.33 210.57 143.33C211.93 143.33 212.92 142.5 212.92 141.26C212.92 140.04 211.93 139.2 210.57 139.2ZM210.57 139.88C211.48 139.88 212.12 140.45 212.12 141.26C212.12 142.08 211.48 142.65 210.57 142.65C209.68 142.65 209.04 142.08 209.04 141.26C209.04 140.45 209.68 139.88 210.57 139.88ZM227.83 143.21H226.5C226.75 141.92 226.75 140.97 226.75 140.13V139.35H220.73V140.01H225.95V140.13C225.95 140.97 225.95 141.92 225.67 143.21H219.72V143.88H223.34V147.75H224.17V143.88H227.83V143.21ZM233.949 141.16V141.83H235.459V143.04H233.949V143.71H235.459V145.61H236.289V138.78H235.459V141.16H233.949ZM233.949 139.87H231.889V138.76H231.069V139.87H228.929V140.53H233.949V139.87ZM230.219 142.73C230.219 142.1 230.729 141.67 231.469 141.67C232.209 141.67 232.719 142.1 232.719 142.73C232.719 143.37 232.209 143.81 231.469 143.81C230.729 143.81 230.219 143.37 230.219 142.73ZM233.499 142.73C233.499 141.71 232.659 141.03 231.469 141.03C230.279 141.03 229.439 141.71 229.439 142.73C229.439 143.76 230.279 144.45 231.469 144.45C232.659 144.45 233.499 143.76 233.499 142.73ZM231.349 146.87V145.03H230.529V147.54H236.499V146.87H231.349Z" fill="black"/>
<path d="M133.466 159H128.808V158.351L131.269 155.616C131.633 155.203 131.884 154.868 132.021 154.61C132.16 154.35 132.23 154.081 132.23 153.805C132.23 153.434 132.118 153.129 131.894 152.892C131.669 152.654 131.369 152.535 130.995 152.535C130.546 152.535 130.196 152.664 129.945 152.921C129.698 153.175 129.574 153.53 129.574 153.985H128.671C128.671 153.331 128.881 152.802 129.301 152.398C129.724 151.995 130.289 151.793 130.995 151.793C131.656 151.793 132.178 151.967 132.562 152.315C132.947 152.66 133.139 153.121 133.139 153.697C133.139 154.397 132.693 155.23 131.801 156.197L129.896 158.263H133.466V159ZM136.635 158.36C136.957 158.36 137.239 158.263 137.479 158.067C137.72 157.872 137.854 157.628 137.88 157.335H138.734C138.718 157.638 138.614 157.926 138.422 158.199C138.23 158.473 137.973 158.691 137.65 158.854C137.331 159.016 136.993 159.098 136.635 159.098C135.915 159.098 135.342 158.858 134.916 158.38C134.493 157.898 134.281 157.241 134.281 156.407V156.256C134.281 155.742 134.376 155.284 134.564 154.884C134.753 154.483 135.023 154.173 135.375 153.951C135.73 153.73 136.148 153.619 136.63 153.619C137.222 153.619 137.714 153.797 138.104 154.151C138.498 154.506 138.708 154.967 138.734 155.533H137.88C137.854 155.191 137.724 154.911 137.489 154.693C137.258 154.472 136.972 154.361 136.63 154.361C136.171 154.361 135.814 154.527 135.561 154.859C135.31 155.188 135.185 155.665 135.185 156.29V156.461C135.185 157.07 135.31 157.538 135.561 157.867C135.811 158.196 136.169 158.36 136.635 158.36ZM143.012 159C142.96 158.896 142.917 158.71 142.885 158.443C142.465 158.88 141.964 159.098 141.381 159.098C140.86 159.098 140.432 158.951 140.097 158.658C139.765 158.362 139.599 157.988 139.599 157.535C139.599 156.985 139.807 156.559 140.224 156.256C140.644 155.95 141.233 155.797 141.991 155.797H142.87V155.382C142.87 155.066 142.776 154.815 142.587 154.63C142.398 154.441 142.12 154.347 141.752 154.347C141.43 154.347 141.16 154.428 140.941 154.591C140.723 154.754 140.614 154.951 140.614 155.182H139.706C139.706 154.918 139.799 154.664 139.984 154.42C140.173 154.173 140.427 153.977 140.746 153.834C141.068 153.691 141.422 153.619 141.806 153.619C142.414 153.619 142.891 153.772 143.236 154.078C143.581 154.381 143.76 154.799 143.773 155.333V157.765C143.773 158.25 143.835 158.635 143.959 158.922V159H143.012ZM141.513 158.312C141.796 158.312 142.064 158.238 142.318 158.092C142.572 157.945 142.756 157.755 142.87 157.521V156.437H142.162C141.055 156.437 140.502 156.76 140.502 157.408C140.502 157.691 140.596 157.913 140.785 158.072C140.974 158.232 141.216 158.312 141.513 158.312ZM149.755 159H145.097V158.351L147.558 155.616C147.922 155.203 148.173 154.868 148.31 154.61C148.45 154.35 148.52 154.081 148.52 153.805C148.52 153.434 148.407 153.129 148.183 152.892C147.958 152.654 147.659 152.535 147.284 152.535C146.835 152.535 146.485 152.664 146.234 152.921C145.987 153.175 145.863 153.53 145.863 153.985H144.96C144.96 153.331 145.17 152.802 145.59 152.398C146.013 151.995 146.578 151.793 147.284 151.793C147.945 151.793 148.467 151.967 148.852 152.315C149.236 152.66 149.428 153.121 149.428 153.697C149.428 154.397 148.982 155.23 148.09 156.197L146.186 158.263H149.755V159ZM154.257 151.886V152.652H154.091C153.388 152.665 152.828 152.874 152.411 153.277C151.994 153.681 151.754 154.249 151.688 154.981C152.063 154.552 152.574 154.337 153.222 154.337C153.84 154.337 154.333 154.555 154.701 154.991C155.072 155.427 155.258 155.991 155.258 156.681C155.258 157.413 155.058 157.999 154.657 158.438C154.26 158.878 153.726 159.098 153.056 159.098C152.375 159.098 151.824 158.837 151.4 158.316C150.977 157.792 150.766 157.118 150.766 156.295V155.948C150.766 154.64 151.044 153.64 151.601 152.95C152.16 152.257 152.992 151.902 154.096 151.886H154.257ZM153.07 155.089C152.761 155.089 152.476 155.182 152.216 155.367C151.955 155.553 151.775 155.785 151.674 156.065V156.397C151.674 156.983 151.806 157.455 152.069 157.813C152.333 158.172 152.662 158.351 153.056 158.351C153.463 158.351 153.782 158.201 154.013 157.901C154.247 157.602 154.364 157.21 154.364 156.725C154.364 156.236 154.245 155.842 154.008 155.543C153.773 155.24 153.461 155.089 153.07 155.089ZM160.141 156.612H161.127V157.35H160.141V159H159.232V157.35H155.995V156.817L159.179 151.891H160.141V156.612ZM157.021 156.612H159.232V153.126L159.125 153.321L157.021 156.612ZM163.017 159H162.113V153.717H163.017V159ZM162.04 152.315C162.04 152.169 162.084 152.045 162.172 151.944C162.263 151.843 162.396 151.793 162.572 151.793C162.748 151.793 162.882 151.843 162.973 151.944C163.064 152.045 163.109 152.169 163.109 152.315C163.109 152.462 163.064 152.584 162.973 152.682C162.882 152.779 162.748 152.828 162.572 152.828C162.396 152.828 162.263 152.779 162.172 152.682C162.084 152.584 162.04 152.462 162.04 152.315ZM123.382 163.87H121.072V162.77H120.252V163.87H117.932V164.53H123.382V163.87ZM119.282 166.7C119.282 166.07 119.842 165.67 120.662 165.67C121.472 165.67 122.032 166.07 122.032 166.7C122.032 167.32 121.472 167.72 120.662 167.72C119.842 167.72 119.282 167.32 119.282 166.7ZM121.072 168.34C122.132 168.21 122.812 167.59 122.812 166.7C122.812 165.69 121.942 165.04 120.662 165.04C119.382 165.04 118.502 165.69 118.502 166.7C118.502 167.6 119.192 168.22 120.252 168.35V169.31C119.362 169.34 118.502 169.35 117.742 169.35L117.862 170.04C119.512 170.04 121.672 170.01 123.672 169.68L123.612 169.07C122.792 169.18 121.922 169.24 121.072 169.28V168.34ZM124.182 162.77V171.74H125.002V162.77H124.182ZM131.591 168.07V168.68H133.411V169.6H134.231V162.77H133.411V168.07H131.591ZM129.761 163.74C130.611 163.74 131.191 164.12 131.191 164.69C131.191 165.27 130.611 165.65 129.761 165.65C128.911 165.65 128.331 165.27 128.331 164.69C128.331 164.12 128.911 163.74 129.761 163.74ZM129.761 166.26C131.071 166.26 131.971 165.65 131.971 164.69C131.971 163.75 131.071 163.13 129.761 163.13C128.451 163.13 127.551 163.75 127.551 164.69C127.551 165.65 128.451 166.26 129.761 166.26ZM129.441 169.28H130.261V167.51C131.071 167.46 131.901 167.37 132.691 167.25L132.621 166.66C130.721 166.9 128.501 166.92 126.841 166.92L126.951 167.6C127.691 167.6 128.551 167.59 129.441 167.55V169.28ZM128.941 170.87V168.93H128.121V171.54H134.461V170.87H128.941ZM136.571 163.73V164.41H139.861C139.671 166.53 138.441 168.25 136.151 169.4L136.601 170.04C139.501 168.59 140.671 166.28 140.671 163.73H136.571ZM144.431 166.41H142.991V162.77H142.171V171.74H142.991V167.09H144.431V166.41ZM151.83 162.78V167.59H152.65V162.78H151.83ZM146.87 168.03V171.62H152.65V168.03H151.84V169.13H147.68V168.03H146.87ZM147.68 169.77H151.84V170.96H147.68V169.77ZM147.83 163.2C146.48 163.2 145.5 164.04 145.5 165.26C145.5 166.5 146.48 167.33 147.83 167.33C149.19 167.33 150.18 166.5 150.18 165.26C150.18 164.04 149.19 163.2 147.83 163.2ZM147.83 163.88C148.74 163.88 149.38 164.45 149.38 165.26C149.38 166.08 148.74 166.65 147.83 166.65C146.94 166.65 146.3 166.08 146.3 165.26C146.3 164.45 146.94 163.88 147.83 163.88ZM165.089 167.21H163.759C164.009 165.92 164.009 164.97 164.009 164.13V163.35H157.989V164.01H163.209V164.13C163.209 164.97 163.209 165.92 162.929 167.21H156.979V167.88H160.599V171.75H161.429V167.88H165.089V167.21ZM171.209 165.16V165.83H172.719V167.04H171.209V167.71H172.719V169.61H173.549V162.78H172.719V165.16H171.209ZM171.209 163.87H169.149V162.76H168.329V163.87H166.189V164.53H171.209V163.87ZM167.479 166.73C167.479 166.1 167.989 165.67 168.729 165.67C169.469 165.67 169.979 166.1 169.979 166.73C169.979 167.37 169.469 167.81 168.729 167.81C167.989 167.81 167.479 167.37 167.479 166.73ZM170.759 166.73C170.759 165.71 169.919 165.03 168.729 165.03C167.539 165.03 166.699 165.71 166.699 166.73C166.699 167.76 167.539 168.45 168.729 168.45C169.919 168.45 170.759 167.76 170.759 166.73ZM168.609 170.87V169.03H167.789V171.54H173.759V170.87H168.609Z" fill="black"/>
</svg>
