<svg width="1152" height="587" viewBox="0 0 1152 587" fill="none" xmlns="http://www.w3.org/2000/svg">
<path d="M0 0H1152V587H0V0Z" fill="white" fill-opacity="0.01"/>
<path d="M384.34 190H383.397V186.714H379.813V190H378.876V182.891H379.813V185.947H383.397V182.891H384.34V190ZM390.023 186.714H386.942V189.233H390.521V190H386.005V182.891H390.473V183.662H386.942V185.947H390.023V186.714ZM395.614 188.145H392.636L391.967 190H391L393.715 182.891H394.535L397.255 190H396.293L395.614 188.145ZM392.919 187.373H395.336L394.125 184.048L392.919 187.373ZM398.212 190V182.891H400.219C400.837 182.891 401.384 183.027 401.859 183.301C402.335 183.574 402.701 183.963 402.958 184.468C403.218 184.972 403.35 185.552 403.354 186.206V186.66C403.354 187.331 403.223 187.918 402.963 188.423C402.706 188.927 402.336 189.315 401.854 189.585C401.376 189.855 400.818 189.993 400.18 190H398.212ZM399.149 183.662V189.233H400.136C400.858 189.233 401.42 189.009 401.82 188.56C402.224 188.11 402.426 187.471 402.426 186.641V186.226C402.426 185.418 402.235 184.792 401.854 184.346C401.477 183.896 400.94 183.669 400.243 183.662H399.149Z" fill="#4000C7"/>
<path d="M85.1863 207C83.5646 200.553 91.8523 186.272 137 187.029" stroke="#4000C7"/>
<rect x="297.824" y="196.124" width="18" height="70.7284" rx="5" transform="rotate(-90.1738 297.824 196.124)" fill="black"/>
<rect x="419.824" y="196.31" width="18" height="102.065" rx="5" transform="rotate(-90.1738 419.824 196.31)" fill="black"/>
<path d="M290.001 187.193L298.251 183.73L298.25 190.659L290.001 187.193Z" fill="black"/>
<path d="M412.001 187.379L420.251 183.916L420.25 190.844L412.001 187.379Z" fill="black"/>
<path d="M307.157 190.549L307.156 185.505L306.237 185.505L306.237 184.737L307.156 184.737L307.155 184.141C307.155 183.518 307.322 183.036 307.655 182.696C307.988 182.356 308.458 182.186 309.067 182.185C309.296 182.185 309.524 182.216 309.749 182.277L309.696 183.082C309.527 183.05 309.348 183.034 309.159 183.034C308.836 183.034 308.588 183.129 308.412 183.319C308.237 183.505 308.149 183.774 308.149 184.125L308.149 184.737L309.39 184.737L309.39 185.505L308.149 185.505L308.15 190.548L307.157 190.549ZM312.775 190.655C311.987 190.655 311.346 190.397 310.852 189.882C310.358 189.363 310.11 188.67 310.11 187.803L310.11 187.621C310.11 187.044 310.219 186.53 310.438 186.079C310.659 185.624 310.967 185.27 311.361 185.016C311.759 184.758 312.188 184.629 312.65 184.629C313.406 184.629 313.993 184.877 314.412 185.375C314.831 185.873 315.041 186.585 315.041 187.513L315.041 187.926L311.104 187.927C311.118 188.5 311.285 188.963 311.604 189.318C311.926 189.669 312.334 189.844 312.828 189.844C313.179 189.844 313.476 189.772 313.72 189.629C313.963 189.486 314.176 189.296 314.359 189.06L314.966 189.532C314.479 190.281 313.749 190.655 312.775 190.655ZM312.65 185.445C312.249 185.445 311.913 185.592 311.641 185.886C311.369 186.176 311.2 186.584 311.136 187.11L314.047 187.11L314.047 187.035C314.018 186.53 313.882 186.14 313.639 185.864C313.395 185.585 313.066 185.445 312.65 185.445ZM319.784 190.546C319.727 190.432 319.68 190.228 319.644 189.934C319.182 190.414 318.631 190.654 317.99 190.654C317.417 190.654 316.946 190.493 316.577 190.171C316.212 189.845 316.029 189.433 316.029 188.936C316.029 188.331 316.258 187.861 316.717 187.528C317.178 187.192 317.827 187.023 318.661 187.023L319.628 187.023L319.628 186.566C319.627 186.219 319.524 185.943 319.316 185.739C319.108 185.532 318.802 185.428 318.397 185.428C318.043 185.428 317.746 185.518 317.506 185.697C317.266 185.876 317.146 186.092 317.146 186.347L316.147 186.347C316.147 186.057 316.249 185.777 316.453 185.509C316.661 185.237 316.94 185.022 317.291 184.864C317.645 184.707 318.034 184.628 318.456 184.628C319.126 184.627 319.651 184.796 320.03 185.132C320.41 185.465 320.607 185.925 320.621 186.512L320.622 189.187C320.622 189.721 320.69 190.145 320.826 190.46L320.826 190.546L319.784 190.546ZM318.135 189.789C318.446 189.789 318.742 189.709 319.021 189.547C319.3 189.386 319.503 189.177 319.628 188.919L319.628 187.727L318.849 187.727C317.632 187.727 317.023 188.083 317.023 188.796C317.023 189.107 317.127 189.351 317.335 189.526C317.542 189.702 317.809 189.789 318.135 189.789ZM323.526 183.327L323.527 184.734L324.612 184.734L324.612 185.502L323.527 185.502L323.527 189.106C323.527 189.339 323.576 189.514 323.673 189.633C323.769 189.747 323.934 189.804 324.167 189.804C324.281 189.804 324.439 189.783 324.639 189.74L324.64 190.545C324.378 190.617 324.124 190.653 323.877 190.653C323.433 190.653 323.098 190.519 322.872 190.25C322.647 189.982 322.534 189.601 322.534 189.106L322.533 185.502L321.475 185.503L321.475 184.734L322.533 184.734L322.533 183.327L323.526 183.327ZM325.977 191.217L325.123 191.217L328.387 182.724L329.236 182.724L325.977 191.217ZM333.695 189.002C333.695 188.734 333.593 188.526 333.389 188.379C333.188 188.229 332.835 188.1 332.33 187.993C331.829 187.885 331.43 187.757 331.133 187.606C330.839 187.456 330.621 187.277 330.477 187.069C330.338 186.862 330.268 186.615 330.268 186.328C330.268 185.852 330.468 185.449 330.869 185.12C331.274 184.79 331.789 184.625 332.416 184.625C333.075 184.625 333.608 184.795 334.016 185.135C334.428 185.475 334.634 185.91 334.634 186.44L333.635 186.44C333.635 186.168 333.519 185.934 333.286 185.737C333.057 185.54 332.767 185.441 332.416 185.441C332.054 185.442 331.771 185.52 331.567 185.678C331.363 185.836 331.261 186.041 331.261 186.296C331.261 186.536 331.356 186.716 331.546 186.838C331.736 186.96 332.078 187.076 332.572 187.187C333.07 187.298 333.473 187.43 333.781 187.584C334.089 187.738 334.316 187.924 334.463 188.143C334.613 188.358 334.688 188.621 334.689 188.932C334.689 189.451 334.481 189.869 334.066 190.184C333.65 190.495 333.112 190.651 332.449 190.651C331.984 190.652 331.572 190.569 331.214 190.405C330.856 190.24 330.574 190.011 330.37 189.717C330.17 189.42 330.069 189.1 330.069 188.756L331.063 188.756C331.081 189.089 331.214 189.354 331.461 189.551C331.711 189.744 332.041 189.84 332.449 189.84C332.825 189.84 333.126 189.765 333.351 189.615C333.58 189.461 333.695 189.257 333.695 189.002ZM337.063 190.543L336.069 190.543L336.068 184.732L337.062 184.732L337.063 190.543ZM335.987 183.19C335.987 183.029 336.036 182.893 336.132 182.782C336.232 182.671 336.379 182.616 336.573 182.616C336.766 182.616 336.913 182.671 337.013 182.782C337.113 182.893 337.164 183.029 337.164 183.19C337.164 183.351 337.113 183.486 337.013 183.593C336.913 183.7 336.766 183.754 336.573 183.754C336.379 183.754 336.233 183.701 336.132 183.593C336.036 183.486 335.987 183.351 335.987 183.19ZM338.421 187.589C338.421 186.683 338.63 185.963 339.049 185.43C339.468 184.892 340.023 184.624 340.714 184.624C341.423 184.623 341.976 184.874 342.374 185.375L342.422 184.731L343.33 184.731L343.331 190.402C343.331 191.154 343.107 191.747 342.66 192.18C342.216 192.614 341.618 192.83 340.866 192.831C340.447 192.831 340.037 192.741 339.636 192.562C339.235 192.383 338.929 192.138 338.717 191.827L339.233 191.23C339.659 191.757 340.18 192.02 340.796 192.02C341.279 192.019 341.655 191.883 341.924 191.611C342.196 191.339 342.332 190.956 342.332 190.462L342.332 189.962C341.934 190.421 341.392 190.65 340.704 190.65C340.024 190.65 339.473 190.376 339.05 189.828C338.631 189.281 338.421 188.534 338.421 187.589ZM339.42 187.701C339.42 188.357 339.555 188.872 339.823 189.248C340.092 189.621 340.468 189.807 340.951 189.807C341.578 189.807 342.038 189.522 342.332 188.952L342.331 186.299C342.027 185.744 341.57 185.467 340.961 185.467C340.478 185.467 340.1 185.655 339.828 186.031C339.556 186.407 339.42 186.964 339.42 187.701ZM345.774 184.73L345.806 185.461C346.25 184.902 346.83 184.622 347.546 184.622C348.774 184.622 349.394 185.315 349.405 186.701L349.406 190.541L348.412 190.541L348.411 186.695C348.408 186.276 348.311 185.967 348.121 185.766C347.935 185.566 347.643 185.466 347.246 185.466C346.923 185.466 346.64 185.552 346.397 185.724C346.153 185.896 345.964 186.121 345.828 186.4L345.828 190.542L344.835 190.542L344.834 184.73L345.774 184.73ZM354.492 189.965C354.105 190.42 353.538 190.648 352.789 190.648C352.17 190.648 351.697 190.469 351.371 190.111C351.049 189.749 350.886 189.216 350.882 188.51L350.882 184.729L351.875 184.729L351.876 188.483C351.876 189.364 352.234 189.805 352.95 189.804C353.71 189.804 354.214 189.521 354.465 188.956L354.464 184.729L355.458 184.728L355.459 190.54L354.514 190.54L354.492 189.965ZM361.882 187.697C361.882 188.582 361.68 189.294 361.276 189.835C360.871 190.376 360.323 190.646 359.632 190.647C358.927 190.647 358.372 190.423 357.967 189.975L357.968 192.774L356.974 192.774L356.972 184.728L357.88 184.728L357.929 185.372C358.333 184.871 358.895 184.62 359.615 184.62C360.313 184.62 360.865 184.883 361.269 185.409C361.678 185.936 361.882 186.668 361.882 187.606L361.882 187.697ZM360.888 187.585C360.888 186.93 360.749 186.412 360.469 186.033C360.19 185.653 359.807 185.463 359.32 185.463C358.718 185.464 358.267 185.73 357.966 186.264L357.967 189.041C358.264 189.571 358.719 189.836 359.331 189.836C359.808 189.835 360.185 189.647 360.464 189.271C360.747 188.892 360.889 188.33 360.888 187.585Z" fill="white"/>
<path d="M429.157 190.734L429.156 185.691L428.237 185.691L428.237 184.923L429.156 184.923L429.155 184.326C429.155 183.703 429.322 183.222 429.655 182.882C429.988 182.541 430.458 182.371 431.067 182.371C431.296 182.371 431.524 182.401 431.749 182.462L431.696 183.268C431.527 183.236 431.348 183.22 431.159 183.22C430.836 183.22 430.588 183.315 430.412 183.504C430.237 183.691 430.149 183.959 430.149 184.31L430.149 184.922L431.39 184.922L431.39 185.69L430.149 185.691L430.15 190.734L429.157 190.734ZM434.775 190.841C433.987 190.841 433.346 190.583 432.852 190.067C432.358 189.548 432.11 188.856 432.11 187.989L432.11 187.806C432.11 187.23 432.219 186.716 432.438 186.265C432.659 185.81 432.967 185.455 433.361 185.201C433.759 184.943 434.188 184.814 434.65 184.814C435.406 184.814 435.993 185.063 436.412 185.56C436.831 186.058 437.041 186.771 437.041 187.698L437.041 188.112L433.104 188.112C433.118 188.685 433.285 189.149 433.604 189.503C433.926 189.854 434.334 190.03 434.828 190.03C435.179 190.029 435.476 189.958 435.72 189.815C435.963 189.671 436.176 189.481 436.359 189.245L436.966 189.718C436.479 190.466 435.749 190.84 434.775 190.841ZM434.65 185.631C434.249 185.631 433.913 185.778 433.641 186.071C433.369 186.361 433.2 186.77 433.136 187.296L436.047 187.295L436.047 187.22C436.018 186.715 435.882 186.325 435.639 186.049C435.395 185.77 435.066 185.631 434.65 185.631ZM441.784 190.732C441.727 190.617 441.68 190.413 441.644 190.12C441.182 190.599 440.631 190.839 439.99 190.84C439.417 190.84 438.946 190.679 438.577 190.356C438.212 190.031 438.029 189.619 438.029 189.121C438.029 188.516 438.258 188.047 438.717 187.714C439.178 187.377 439.827 187.209 440.661 187.209L441.628 187.208L441.628 186.752C441.627 186.405 441.524 186.129 441.316 185.925C441.108 185.717 440.802 185.613 440.397 185.613C440.043 185.614 439.746 185.703 439.506 185.882C439.266 186.061 439.146 186.278 439.146 186.532L438.147 186.532C438.147 186.242 438.249 185.963 438.453 185.694C438.661 185.422 438.94 185.207 439.291 185.05C439.645 184.892 440.034 184.813 440.456 184.813C441.126 184.813 441.651 184.981 442.03 185.318C442.41 185.651 442.607 186.111 442.621 186.698L442.622 189.373C442.622 189.906 442.69 190.331 442.826 190.646L442.826 190.732L441.784 190.732ZM440.135 189.975C440.446 189.975 440.742 189.894 441.021 189.733C441.3 189.572 441.503 189.362 441.628 189.104L441.628 187.912L440.849 187.912C439.632 187.912 439.023 188.269 439.023 188.981C439.023 189.293 439.127 189.536 439.335 189.712C439.542 189.887 439.809 189.975 440.135 189.975ZM445.526 183.512L445.527 184.92L446.612 184.919L446.612 185.688L445.527 185.688L445.527 189.292C445.527 189.524 445.576 189.7 445.673 189.818C445.769 189.933 445.934 189.99 446.167 189.99C446.281 189.99 446.439 189.968 446.639 189.925L446.64 190.731C446.378 190.803 446.124 190.838 445.877 190.839C445.433 190.839 445.098 190.704 444.872 190.436C444.647 190.167 444.534 189.786 444.534 189.292L444.533 185.688L443.475 185.688L443.475 184.92L444.533 184.92L444.533 183.513L445.526 183.512ZM447.977 191.402L447.123 191.402L450.387 182.91L451.236 182.91L447.977 191.402ZM455.695 189.188C455.695 188.919 455.593 188.712 455.389 188.565C455.188 188.414 454.835 188.286 454.33 188.178C453.829 188.071 453.43 187.942 453.133 187.792C452.839 187.641 452.621 187.462 452.477 187.255C452.338 187.047 452.268 186.8 452.268 186.514C452.268 186.037 452.468 185.635 452.869 185.305C453.274 184.976 453.789 184.811 454.416 184.811C455.075 184.811 455.608 184.981 456.016 185.321C456.428 185.661 456.634 186.096 456.634 186.626L455.635 186.626C455.635 186.354 455.519 186.119 455.286 185.922C455.057 185.725 454.767 185.627 454.416 185.627C454.054 185.627 453.771 185.706 453.567 185.864C453.363 186.021 453.261 186.227 453.261 186.481C453.261 186.721 453.356 186.902 453.546 187.024C453.736 187.145 454.078 187.262 454.572 187.373C455.07 187.484 455.473 187.616 455.781 187.77C456.089 187.924 456.316 188.11 456.463 188.328C456.613 188.543 456.688 188.806 456.689 189.118C456.689 189.637 456.481 190.054 456.066 190.369C455.65 190.681 455.112 190.837 454.449 190.837C453.984 190.837 453.572 190.755 453.214 190.59C452.856 190.425 452.574 190.196 452.37 189.903C452.17 189.606 452.069 189.285 452.069 188.941L453.063 188.941C453.081 189.274 453.214 189.539 453.461 189.736C453.711 189.929 454.041 190.026 454.449 190.026C454.825 190.026 455.126 189.951 455.351 189.8C455.58 189.646 455.695 189.442 455.695 189.188ZM459.063 190.729L458.069 190.729L458.068 184.917L459.062 184.917L459.063 190.729ZM457.987 183.376C457.987 183.215 458.036 183.079 458.132 182.968C458.232 182.857 458.379 182.801 458.573 182.801C458.766 182.801 458.913 182.857 459.013 182.968C459.113 183.078 459.164 183.215 459.164 183.376C459.164 183.537 459.113 183.671 459.013 183.779C458.913 183.886 458.766 183.94 458.573 183.94C458.379 183.94 458.233 183.886 458.132 183.779C458.036 183.671 457.987 183.537 457.987 183.376ZM460.421 187.774C460.421 186.868 460.63 186.149 461.049 185.615C461.468 185.078 462.023 184.809 462.714 184.809C463.423 184.809 463.976 185.06 464.374 185.561L464.422 184.916L465.33 184.916L465.331 190.588C465.331 191.34 465.107 191.933 464.66 192.366C464.216 192.799 463.618 193.016 462.866 193.016C462.447 193.016 462.037 192.927 461.636 192.748C461.235 192.569 460.929 192.324 460.717 192.012L461.233 191.416C461.659 191.942 462.18 192.205 462.796 192.205C463.279 192.205 463.655 192.069 463.924 191.797C464.196 191.525 464.332 191.141 464.332 190.647L464.332 190.148C463.934 190.606 463.392 190.835 462.704 190.835C462.024 190.836 461.473 190.562 461.05 190.014C460.631 189.466 460.421 188.72 460.421 187.774ZM461.42 187.887C461.42 188.542 461.555 189.058 461.823 189.434C462.092 189.806 462.468 189.992 462.951 189.992C463.578 189.992 464.038 189.707 464.332 189.138L464.331 186.485C464.027 185.93 463.57 185.652 462.961 185.652C462.478 185.652 462.1 185.84 461.828 186.217C461.556 186.593 461.42 187.149 461.42 187.887ZM467.774 184.916L467.806 185.646C468.25 185.087 468.83 184.808 469.546 184.808C470.774 184.808 471.394 185.5 471.405 186.886L471.406 190.727L470.412 190.727L470.411 186.881C470.408 186.462 470.311 186.152 470.121 185.952C469.935 185.751 469.643 185.651 469.246 185.651C468.923 185.651 468.64 185.737 468.397 185.909C468.153 186.081 467.964 186.307 467.828 186.586L467.828 190.727L466.835 190.727L466.834 184.916L467.774 184.916ZM476.492 190.151C476.105 190.606 475.538 190.833 474.789 190.833C474.17 190.833 473.697 190.654 473.371 190.296C473.049 189.935 472.886 189.401 472.882 188.696L472.882 184.915L473.875 184.915L473.876 188.669C473.876 189.55 474.234 189.99 474.95 189.99C475.71 189.99 476.214 189.707 476.465 189.141L476.464 184.914L477.458 184.914L477.459 190.725L476.514 190.726L476.492 190.151ZM483.882 187.883C483.882 188.767 483.68 189.48 483.276 190.021C482.871 190.562 482.323 190.832 481.632 190.832C480.927 190.832 480.372 190.609 479.967 190.161L479.968 192.959L478.974 192.96L478.972 184.914L479.88 184.913L479.929 185.558C480.333 185.057 480.895 184.806 481.615 184.806C482.313 184.806 482.865 185.069 483.269 185.595C483.678 186.121 483.882 186.853 483.882 187.792L483.882 187.883ZM482.888 187.77C482.888 187.115 482.749 186.598 482.469 186.218C482.19 185.839 481.807 185.649 481.32 185.649C480.718 185.649 480.267 185.916 479.966 186.45L479.967 189.226C480.264 189.756 480.719 190.021 481.331 190.021C481.808 190.021 482.185 189.833 482.464 189.457C482.747 189.077 482.889 188.515 482.888 187.77ZM487.218 187.807L484.596 187.808L484.596 186.997L487.217 186.996L487.218 187.807ZM487.927 187.764C487.926 187.195 488.037 186.683 488.259 186.228C488.485 185.773 488.796 185.422 489.194 185.175C489.595 184.928 490.051 184.804 490.563 184.804C491.355 184.804 491.994 185.078 492.481 185.626C492.972 186.173 493.217 186.902 493.217 187.811L493.217 187.881C493.217 188.447 493.108 188.955 492.89 189.407C492.675 189.854 492.365 190.204 491.961 190.454C491.56 190.705 491.098 190.83 490.575 190.83C489.787 190.831 489.148 190.557 488.657 190.009C488.17 189.461 487.927 188.736 487.927 187.834L487.927 187.764ZM488.926 187.882C488.926 188.527 489.074 189.044 489.372 189.434C489.673 189.824 490.074 190.02 490.575 190.019C491.08 190.019 491.481 189.822 491.778 189.428C492.075 189.031 492.224 188.476 492.223 187.763C492.223 187.126 492.071 186.61 491.767 186.216C491.466 185.819 491.065 185.62 490.563 185.62C490.073 185.621 489.677 185.816 489.376 186.206C489.076 186.597 488.925 187.155 488.926 187.882ZM498.052 190.722C497.994 190.607 497.948 190.403 497.912 190.109C497.45 190.589 496.899 190.829 496.258 190.829C495.685 190.83 495.214 190.668 494.845 190.346C494.48 190.021 494.297 189.609 494.297 189.111C494.297 188.506 494.526 188.037 494.984 187.704C495.446 187.367 496.094 187.199 496.928 187.198L497.895 187.198L497.895 186.742C497.895 186.394 497.791 186.119 497.583 185.915C497.376 185.707 497.07 185.603 496.665 185.603C496.31 185.603 496.013 185.693 495.773 185.872C495.534 186.051 495.414 186.268 495.414 186.522L494.415 186.522C494.415 186.232 494.517 185.953 494.721 185.684C494.928 185.412 495.208 185.197 495.558 185.04C495.913 184.882 496.301 184.803 496.724 184.803C497.393 184.803 497.918 184.971 498.298 185.308C498.677 185.641 498.874 186.101 498.889 186.688L498.889 189.363C498.889 189.896 498.957 190.32 499.094 190.636L499.094 190.721L498.052 190.722ZM496.403 189.965C496.714 189.965 497.009 189.884 497.289 189.723C497.568 189.562 497.77 189.352 497.896 189.094L497.895 187.902L497.117 187.902C495.899 187.902 495.29 188.259 495.291 188.971C495.291 189.283 495.394 189.526 495.602 189.702C495.81 189.877 496.077 189.965 496.403 189.965ZM504.035 190.146C503.648 190.601 503.081 190.828 502.332 190.828C501.713 190.828 501.24 190.649 500.914 190.291C500.592 189.93 500.429 189.396 500.425 188.691L500.425 184.91L501.418 184.91L501.419 188.664C501.419 189.545 501.777 189.985 502.493 189.985C503.252 189.985 503.757 189.702 504.008 189.136L504.007 184.909L505.001 184.909L505.002 190.72L504.056 190.721L504.035 190.146ZM507.863 183.501L507.864 184.908L508.949 184.908L508.949 185.676L507.864 185.676L507.864 189.28C507.864 189.513 507.913 189.689 508.009 189.807C508.106 189.921 508.271 189.979 508.504 189.979C508.618 189.979 508.776 189.957 508.976 189.914L508.976 190.72C508.715 190.791 508.461 190.827 508.214 190.827C507.77 190.827 507.435 190.693 507.209 190.425C506.984 190.156 506.871 189.775 506.871 189.281L506.87 185.677L505.812 185.677L505.812 184.909L506.87 184.909L506.87 183.501L507.863 183.501ZM511.108 185.611C511.548 185.071 512.121 184.8 512.826 184.8C514.055 184.8 514.674 185.493 514.685 186.878L514.686 190.719L513.692 190.719L513.692 186.873C513.688 186.454 513.591 186.144 513.401 185.944C513.215 185.744 512.923 185.643 512.526 185.643C512.204 185.643 511.921 185.729 511.677 185.901C511.434 186.073 511.244 186.299 511.108 186.578L511.109 190.719L510.115 190.719L510.114 182.469L511.107 182.469L511.108 185.611Z" fill="white"/>
<circle cx="145.5" cy="187.5" r="9.5" fill="#4000C7"/>
<circle cx="268.5" cy="187.5" r="9.5" fill="#4000C7"/>
<path d="M250.76 533.599C250.76 533.354 250.667 533.166 250.481 533.032C250.299 532.896 249.979 532.778 249.52 532.681C249.064 532.583 248.701 532.466 248.431 532.329C248.164 532.192 247.965 532.03 247.835 531.841C247.708 531.652 247.645 531.427 247.645 531.167C247.645 530.734 247.827 530.368 248.191 530.068C248.559 529.769 249.028 529.619 249.598 529.619C250.197 529.619 250.682 529.774 251.053 530.083C251.427 530.392 251.614 530.788 251.614 531.27H250.706C250.706 531.022 250.6 530.809 250.389 530.63C250.18 530.451 249.917 530.361 249.598 530.361C249.269 530.361 249.012 530.433 248.826 530.576C248.641 530.719 248.548 530.907 248.548 531.138C248.548 531.356 248.634 531.52 248.807 531.631C248.979 531.742 249.29 531.847 249.739 531.948C250.192 532.049 250.558 532.17 250.838 532.31C251.118 532.45 251.325 532.619 251.458 532.817C251.595 533.013 251.663 533.252 251.663 533.535C251.663 534.007 251.474 534.386 251.097 534.673C250.719 534.956 250.229 535.098 249.627 535.098C249.204 535.098 248.829 535.023 248.504 534.873C248.178 534.723 247.923 534.515 247.737 534.248C247.555 533.978 247.464 533.687 247.464 533.374H248.367C248.383 533.677 248.504 533.918 248.729 534.097C248.956 534.272 249.256 534.36 249.627 534.36C249.969 534.36 250.242 534.292 250.447 534.155C250.656 534.015 250.76 533.83 250.76 533.599ZM253.821 535H252.918V529.717H253.821V535ZM252.845 528.315C252.845 528.169 252.889 528.045 252.977 527.944C253.068 527.843 253.201 527.793 253.377 527.793C253.553 527.793 253.686 527.843 253.777 527.944C253.868 528.045 253.914 528.169 253.914 528.315C253.914 528.462 253.868 528.584 253.777 528.682C253.686 528.779 253.553 528.828 253.377 528.828C253.201 528.828 253.068 528.779 252.977 528.682C252.889 528.584 252.845 528.462 252.845 528.315ZM255.057 532.314C255.057 531.491 255.247 530.837 255.628 530.352C256.009 529.863 256.513 529.619 257.142 529.619C257.786 529.619 258.289 529.847 258.65 530.303L258.694 529.717H259.52V534.873C259.52 535.557 259.316 536.095 258.909 536.489C258.506 536.883 257.962 537.08 257.278 537.08C256.897 537.08 256.525 536.999 256.16 536.836C255.796 536.673 255.517 536.45 255.325 536.167L255.794 535.625C256.181 536.104 256.655 536.343 257.215 536.343C257.654 536.343 257.996 536.219 258.24 535.972C258.488 535.724 258.611 535.376 258.611 534.927V534.473C258.25 534.889 257.757 535.098 257.132 535.098C256.513 535.098 256.012 534.849 255.628 534.351C255.247 533.853 255.057 533.174 255.057 532.314ZM255.965 532.417C255.965 533.013 256.087 533.481 256.331 533.823C256.575 534.162 256.917 534.331 257.356 534.331C257.926 534.331 258.344 534.072 258.611 533.555V531.143C258.335 530.638 257.92 530.386 257.366 530.386C256.927 530.386 256.583 530.557 256.336 530.898C256.089 531.24 255.965 531.746 255.965 532.417ZM261.741 529.717L261.771 530.381C262.174 529.873 262.701 529.619 263.353 529.619C264.469 529.619 265.032 530.249 265.042 531.509V535H264.139V531.504C264.135 531.123 264.048 530.841 263.875 530.659C263.706 530.477 263.44 530.386 263.079 530.386C262.786 530.386 262.529 530.464 262.308 530.62C262.086 530.776 261.914 530.981 261.79 531.235V535H260.887V529.717H261.741ZM269.666 534.478C269.314 534.891 268.799 535.098 268.118 535.098C267.555 535.098 267.125 534.935 266.829 534.609C266.536 534.281 266.388 533.796 266.385 533.154V529.717H267.288V533.13C267.288 533.931 267.614 534.331 268.265 534.331C268.955 534.331 269.414 534.074 269.642 533.56V529.717H270.545V535H269.686L269.666 534.478ZM276.385 532.417C276.385 533.221 276.201 533.869 275.833 534.36C275.465 534.852 274.967 535.098 274.339 535.098C273.698 535.098 273.193 534.894 272.825 534.487V537.031H271.922V529.717H272.747L272.791 530.303C273.159 529.847 273.67 529.619 274.324 529.619C274.959 529.619 275.46 529.858 275.828 530.337C276.199 530.815 276.385 531.481 276.385 532.334V532.417ZM275.481 532.314C275.481 531.719 275.354 531.248 275.101 530.903C274.847 530.558 274.498 530.386 274.056 530.386C273.509 530.386 273.099 530.628 272.825 531.113V533.638C273.095 534.119 273.509 534.36 274.065 534.36C274.498 534.36 274.842 534.189 275.096 533.848C275.353 533.503 275.481 532.992 275.481 532.314ZM277.557 534.526C277.557 534.37 277.602 534.24 277.693 534.136C277.788 534.032 277.928 533.979 278.113 533.979C278.299 533.979 278.439 534.032 278.533 534.136C278.631 534.24 278.68 534.37 278.68 534.526C278.68 534.676 278.631 534.801 278.533 534.902C278.439 535.003 278.299 535.054 278.113 535.054C277.928 535.054 277.788 535.003 277.693 534.902C277.602 534.801 277.557 534.676 277.557 534.526ZM281.106 529.717V535.61C281.106 536.626 280.646 537.134 279.725 537.134C279.526 537.134 279.342 537.104 279.173 537.046V536.323C279.277 536.349 279.414 536.362 279.583 536.362C279.785 536.362 279.938 536.307 280.042 536.196C280.149 536.089 280.203 535.9 280.203 535.63V529.717H281.106ZM280.11 528.315C280.11 528.172 280.154 528.05 280.242 527.949C280.333 527.845 280.465 527.793 280.638 527.793C280.813 527.793 280.947 527.843 281.038 527.944C281.129 528.045 281.175 528.169 281.175 528.315C281.175 528.462 281.129 528.584 281.038 528.682C280.947 528.779 280.813 528.828 280.638 528.828C280.462 528.828 280.33 528.779 280.242 528.682C280.154 528.584 280.11 528.462 280.11 528.315ZM285.643 533.599C285.643 533.354 285.55 533.166 285.364 533.032C285.182 532.896 284.861 532.778 284.402 532.681C283.947 532.583 283.584 532.466 283.313 532.329C283.047 532.192 282.848 532.03 282.718 531.841C282.591 531.652 282.527 531.427 282.527 531.167C282.527 530.734 282.71 530.368 283.074 530.068C283.442 529.769 283.911 529.619 284.48 529.619C285.079 529.619 285.564 529.774 285.936 530.083C286.31 530.392 286.497 530.788 286.497 531.27H285.589C285.589 531.022 285.483 530.809 285.271 530.63C285.063 530.451 284.799 530.361 284.48 530.361C284.152 530.361 283.895 530.433 283.709 530.576C283.523 530.719 283.431 530.907 283.431 531.138C283.431 531.356 283.517 531.52 283.689 531.631C283.862 531.742 284.173 531.847 284.622 531.948C285.075 532.049 285.441 532.17 285.721 532.31C286.001 532.45 286.207 532.619 286.341 532.817C286.478 533.013 286.546 533.252 286.546 533.535C286.546 534.007 286.357 534.386 285.979 534.673C285.602 534.956 285.112 535.098 284.51 535.098C284.087 535.098 283.712 535.023 283.387 534.873C283.061 534.723 282.806 534.515 282.62 534.248C282.438 533.978 282.347 533.687 282.347 533.374H283.25C283.266 533.677 283.387 533.918 283.611 534.097C283.839 534.272 284.139 534.36 284.51 534.36C284.852 534.36 285.125 534.292 285.33 534.155C285.538 534.015 285.643 533.83 285.643 533.599Z" fill="#4000C7"/>
<path d="M276.746 505.016L270.938 499.252C270.776 499.091 270.558 499 270.328 499H258.864C258.386 499 258 499.383 258 499.857V522.143C258 522.617 258.386 523 258.864 523H276.136C276.614 523 277 522.617 277 522.143V505.624C277 505.396 276.908 505.177 276.746 505.016ZM275.008 506.018H269.929V500.977L275.008 506.018ZM275.057 521.071H259.943V500.929H268.094V506.714C268.094 507.013 268.213 507.299 268.426 507.51C268.638 507.721 268.927 507.839 269.227 507.839H275.057V521.071ZM267.284 513.839H262.318C262.199 513.839 262.102 513.936 262.102 514.054V515.339C262.102 515.457 262.199 515.554 262.318 515.554H267.284C267.403 515.554 267.5 515.457 267.5 515.339V514.054C267.5 513.936 267.403 513.839 267.284 513.839ZM262.102 510.411V511.696C262.102 511.814 262.199 511.911 262.318 511.911H272.682C272.801 511.911 272.898 511.814 272.898 511.696V510.411C272.898 510.293 272.801 510.196 272.682 510.196H262.318C262.199 510.196 262.102 510.293 262.102 510.411Z" fill="#4000C7"/>
<line x1="155" y1="187.5" x2="259" y2="187.5" stroke="#4000C7"/>
<path d="M250.083 151.006H250.762C251.188 150.999 251.523 150.887 251.768 150.669C252.012 150.451 252.134 150.156 252.134 149.785C252.134 148.952 251.719 148.535 250.889 148.535C250.498 148.535 250.186 148.647 249.951 148.872C249.72 149.093 249.604 149.388 249.604 149.756H248.701C248.701 149.193 248.906 148.726 249.316 148.354C249.73 147.98 250.254 147.793 250.889 147.793C251.559 147.793 252.085 147.97 252.466 148.325C252.847 148.68 253.037 149.173 253.037 149.805C253.037 150.114 252.936 150.413 252.734 150.703C252.536 150.993 252.264 151.209 251.919 151.353C252.31 151.476 252.611 151.681 252.822 151.968C253.037 152.254 253.145 152.604 253.145 153.018C253.145 153.656 252.936 154.162 252.52 154.536C252.103 154.91 251.561 155.098 250.894 155.098C250.226 155.098 249.683 154.917 249.263 154.556C248.846 154.194 248.638 153.717 248.638 153.125H249.546C249.546 153.499 249.668 153.799 249.912 154.023C250.156 154.248 250.483 154.36 250.894 154.36C251.33 154.36 251.663 154.246 251.895 154.019C252.126 153.791 252.241 153.464 252.241 153.037C252.241 152.624 252.114 152.306 251.86 152.085C251.606 151.864 251.24 151.75 250.762 151.743H250.083V151.006ZM256.597 154.36C256.919 154.36 257.201 154.263 257.441 154.067C257.682 153.872 257.816 153.628 257.842 153.335H258.696C258.68 153.638 258.576 153.926 258.384 154.199C258.192 154.473 257.935 154.691 257.612 154.854C257.293 155.016 256.955 155.098 256.597 155.098C255.877 155.098 255.304 154.858 254.878 154.38C254.455 153.898 254.243 153.241 254.243 152.407V152.256C254.243 151.742 254.338 151.284 254.526 150.884C254.715 150.483 254.985 150.173 255.337 149.951C255.692 149.73 256.11 149.619 256.592 149.619C257.184 149.619 257.676 149.797 258.066 150.151C258.46 150.506 258.67 150.967 258.696 151.533H257.842C257.816 151.191 257.686 150.911 257.451 150.693C257.22 150.472 256.934 150.361 256.592 150.361C256.133 150.361 255.776 150.527 255.522 150.859C255.272 151.188 255.146 151.665 255.146 152.29V152.461C255.146 153.07 255.272 153.538 255.522 153.867C255.773 154.196 256.131 154.36 256.597 154.36ZM261.904 155.098C261.188 155.098 260.605 154.863 260.156 154.395C259.707 153.923 259.482 153.293 259.482 152.505V152.339C259.482 151.815 259.582 151.348 259.78 150.938C259.982 150.524 260.262 150.202 260.62 149.971C260.981 149.736 261.372 149.619 261.792 149.619C262.479 149.619 263.013 149.845 263.394 150.298C263.774 150.75 263.965 151.398 263.965 152.241V152.617H260.386C260.399 153.138 260.55 153.56 260.84 153.882C261.133 154.201 261.504 154.36 261.953 154.36C262.272 154.36 262.542 154.295 262.764 154.165C262.985 154.035 263.179 153.862 263.345 153.647L263.896 154.077C263.454 154.757 262.79 155.098 261.904 155.098ZM261.792 150.361C261.427 150.361 261.121 150.495 260.874 150.762C260.627 151.025 260.474 151.396 260.415 151.875H263.062V151.807C263.035 151.348 262.912 150.993 262.69 150.742C262.469 150.488 262.17 150.361 261.792 150.361ZM266.235 151.006H266.914C267.34 150.999 267.676 150.887 267.92 150.669C268.164 150.451 268.286 150.156 268.286 149.785C268.286 148.952 267.871 148.535 267.041 148.535C266.65 148.535 266.338 148.647 266.104 148.872C265.872 149.093 265.757 149.388 265.757 149.756H264.854C264.854 149.193 265.059 148.726 265.469 148.354C265.882 147.98 266.406 147.793 267.041 147.793C267.712 147.793 268.237 147.97 268.618 148.325C268.999 148.68 269.189 149.173 269.189 149.805C269.189 150.114 269.089 150.413 268.887 150.703C268.688 150.993 268.416 151.209 268.071 151.353C268.462 151.476 268.763 151.681 268.975 151.968C269.189 152.254 269.297 152.604 269.297 153.018C269.297 153.656 269.089 154.162 268.672 154.536C268.255 154.91 267.713 155.098 267.046 155.098C266.379 155.098 265.835 154.917 265.415 154.556C264.998 154.194 264.79 153.717 264.79 153.125H265.698C265.698 153.499 265.82 153.799 266.064 154.023C266.309 154.248 266.636 154.36 267.046 154.36C267.482 154.36 267.816 154.246 268.047 154.019C268.278 153.791 268.394 153.464 268.394 153.037C268.394 152.624 268.267 152.306 268.013 152.085C267.759 151.864 267.393 151.75 266.914 151.743H266.235V151.006ZM273.999 151.875C273.81 152.1 273.584 152.28 273.32 152.417C273.06 152.554 272.773 152.622 272.461 152.622C272.051 152.622 271.693 152.521 271.387 152.319C271.084 152.118 270.85 151.834 270.684 151.47C270.518 151.102 270.435 150.697 270.435 150.254C270.435 149.779 270.524 149.351 270.703 148.97C270.885 148.589 271.143 148.298 271.475 148.096C271.807 147.894 272.194 147.793 272.637 147.793C273.34 147.793 273.893 148.057 274.297 148.584C274.704 149.108 274.907 149.824 274.907 150.732V150.996C274.907 152.38 274.634 153.39 274.087 154.028C273.54 154.663 272.715 154.989 271.611 155.005H271.436V154.243H271.626C272.371 154.23 272.944 154.036 273.345 153.662C273.745 153.285 273.963 152.689 273.999 151.875ZM272.607 151.875C272.91 151.875 273.188 151.782 273.442 151.597C273.7 151.411 273.887 151.182 274.004 150.908V150.547C274.004 149.954 273.875 149.473 273.618 149.102C273.361 148.73 273.035 148.545 272.642 148.545C272.244 148.545 271.925 148.698 271.685 149.004C271.444 149.307 271.323 149.707 271.323 150.205C271.323 150.69 271.439 151.09 271.67 151.406C271.904 151.719 272.217 151.875 272.607 151.875ZM279.966 152.612H280.952V153.35H279.966V155H279.058V153.35H275.82V152.817L279.004 147.891H279.966V152.612ZM276.846 152.612H279.058V149.126L278.95 149.321L276.846 152.612ZM281.641 152.314C281.641 151.504 281.833 150.853 282.217 150.361C282.601 149.867 283.104 149.619 283.726 149.619C284.344 149.619 284.834 149.831 285.195 150.254V147.5H286.099V155H285.269L285.225 154.434C284.863 154.876 284.36 155.098 283.716 155.098C283.104 155.098 282.604 154.847 282.217 154.346C281.833 153.844 281.641 153.19 281.641 152.383V152.314ZM282.544 152.417C282.544 153.016 282.668 153.485 282.915 153.823C283.162 154.162 283.504 154.331 283.94 154.331C284.513 154.331 284.932 154.074 285.195 153.56V151.133C284.925 150.635 284.51 150.386 283.95 150.386C283.507 150.386 283.162 150.557 282.915 150.898C282.668 151.24 282.544 151.746 282.544 152.417ZM245.692 163.15C244.122 162.87 242.412 161.55 242.412 160.06V159.37H241.552V160.06C241.552 161.55 239.852 162.87 238.282 163.15L238.622 163.83C240.002 163.54 241.402 162.61 241.982 161.33C242.562 162.61 243.972 163.54 245.342 163.83L245.692 163.15ZM242.392 165.9V163.72H241.572V165.9H237.952V166.57H246.092V165.9H242.392ZM253.711 163.48H254.541V158.78H253.711V159.69H251.951V160.34H253.711V161.3H251.951V161.95H253.711V163.48ZM252.391 162.69C251.101 162.25 250.191 161.14 250.191 159.94V159H249.381V159.94C249.381 161.19 248.481 162.39 247.151 162.88L247.571 163.5C248.611 163.12 249.421 162.3 249.801 161.28C250.191 162.21 250.971 162.96 251.971 163.33L252.391 162.69ZM249.591 166.98V166.03H254.541V163.92H248.761V164.55H253.731V165.42H248.781V167.62H254.881V166.98H249.591ZM259.311 159.73V160.41H262.601C262.411 162.53 261.181 164.25 258.891 165.4L259.341 166.04C262.241 164.59 263.411 162.28 263.411 159.73H259.311ZM267.171 162.41H265.731V158.77H264.911V167.74H265.731V163.09H267.171V162.41ZM274.57 158.78V163.59H275.39V158.78H274.57ZM269.61 164.03V167.62H275.39V164.03H274.58V165.13H270.42V164.03H269.61ZM270.42 165.77H274.58V166.96H270.42V165.77ZM270.57 159.2C269.22 159.2 268.24 160.04 268.24 161.26C268.24 162.5 269.22 163.33 270.57 163.33C271.93 163.33 272.92 162.5 272.92 161.26C272.92 160.04 271.93 159.2 270.57 159.2ZM270.57 159.88C271.48 159.88 272.12 160.45 272.12 161.26C272.12 162.08 271.48 162.65 270.57 162.65C269.68 162.65 269.04 162.08 269.04 161.26C269.04 160.45 269.68 159.88 270.57 159.88ZM287.83 163.21H286.5C286.75 161.92 286.75 160.97 286.75 160.13V159.35H280.73V160.01H285.95V160.13C285.95 160.97 285.95 161.92 285.67 163.21H279.72V163.88H283.34V167.75H284.17V163.88H287.83V163.21ZM293.949 161.16V161.83H295.459V163.04H293.949V163.71H295.459V165.61H296.289V158.78H295.459V161.16H293.949ZM293.949 159.87H291.889V158.76H291.069V159.87H288.929V160.53H293.949V159.87ZM290.219 162.73C290.219 162.1 290.729 161.67 291.469 161.67C292.209 161.67 292.719 162.1 292.719 162.73C292.719 163.37 292.209 163.81 291.469 163.81C290.729 163.81 290.219 163.37 290.219 162.73ZM293.499 162.73C293.499 161.71 292.659 161.03 291.469 161.03C290.279 161.03 289.439 161.71 289.439 162.73C289.439 163.76 290.279 164.45 291.469 164.45C292.659 164.45 293.499 163.76 293.499 162.73ZM291.349 166.87V165.03H290.529V167.54H296.499V166.87H291.349Z" fill="black"/>
<path d="M133.466 155H128.808V154.351L131.269 151.616C131.633 151.203 131.884 150.868 132.021 150.61C132.16 150.35 132.23 150.081 132.23 149.805C132.23 149.434 132.118 149.129 131.894 148.892C131.669 148.654 131.369 148.535 130.995 148.535C130.546 148.535 130.196 148.664 129.945 148.921C129.698 149.175 129.574 149.53 129.574 149.985H128.671C128.671 149.331 128.881 148.802 129.301 148.398C129.724 147.995 130.289 147.793 130.995 147.793C131.656 147.793 132.178 147.967 132.562 148.315C132.947 148.66 133.139 149.121 133.139 149.697C133.139 150.397 132.693 151.23 131.801 152.197L129.896 154.263H133.466V155ZM136.635 154.36C136.957 154.36 137.239 154.263 137.479 154.067C137.72 153.872 137.854 153.628 137.88 153.335H138.734C138.718 153.638 138.614 153.926 138.422 154.199C138.23 154.473 137.973 154.691 137.65 154.854C137.331 155.016 136.993 155.098 136.635 155.098C135.915 155.098 135.342 154.858 134.916 154.38C134.493 153.898 134.281 153.241 134.281 152.407V152.256C134.281 151.742 134.376 151.284 134.564 150.884C134.753 150.483 135.023 150.173 135.375 149.951C135.73 149.73 136.148 149.619 136.63 149.619C137.222 149.619 137.714 149.797 138.104 150.151C138.498 150.506 138.708 150.967 138.734 151.533H137.88C137.854 151.191 137.724 150.911 137.489 150.693C137.258 150.472 136.972 150.361 136.63 150.361C136.171 150.361 135.814 150.527 135.561 150.859C135.31 151.188 135.185 151.665 135.185 152.29V152.461C135.185 153.07 135.31 153.538 135.561 153.867C135.811 154.196 136.169 154.36 136.635 154.36ZM143.012 155C142.96 154.896 142.917 154.71 142.885 154.443C142.465 154.88 141.964 155.098 141.381 155.098C140.86 155.098 140.432 154.951 140.097 154.658C139.765 154.362 139.599 153.988 139.599 153.535C139.599 152.985 139.807 152.559 140.224 152.256C140.644 151.95 141.233 151.797 141.991 151.797H142.87V151.382C142.87 151.066 142.776 150.815 142.587 150.63C142.398 150.441 142.12 150.347 141.752 150.347C141.43 150.347 141.16 150.428 140.941 150.591C140.723 150.754 140.614 150.951 140.614 151.182H139.706C139.706 150.918 139.799 150.664 139.984 150.42C140.173 150.173 140.427 149.977 140.746 149.834C141.068 149.691 141.422 149.619 141.806 149.619C142.414 149.619 142.891 149.772 143.236 150.078C143.581 150.381 143.76 150.799 143.773 151.333V153.765C143.773 154.25 143.835 154.635 143.959 154.922V155H143.012ZM141.513 154.312C141.796 154.312 142.064 154.238 142.318 154.092C142.572 153.945 142.756 153.755 142.87 153.521V152.437H142.162C141.055 152.437 140.502 152.76 140.502 153.408C140.502 153.691 140.596 153.913 140.785 154.072C140.974 154.232 141.216 154.312 141.513 154.312ZM149.755 155H145.097V154.351L147.558 151.616C147.922 151.203 148.173 150.868 148.31 150.61C148.45 150.35 148.52 150.081 148.52 149.805C148.52 149.434 148.407 149.129 148.183 148.892C147.958 148.654 147.659 148.535 147.284 148.535C146.835 148.535 146.485 148.664 146.234 148.921C145.987 149.175 145.863 149.53 145.863 149.985H144.96C144.96 149.331 145.17 148.802 145.59 148.398C146.013 147.995 146.578 147.793 147.284 147.793C147.945 147.793 148.467 147.967 148.852 148.315C149.236 148.66 149.428 149.121 149.428 149.697C149.428 150.397 148.982 151.23 148.09 152.197L146.186 154.263H149.755V155ZM154.257 147.886V148.652H154.091C153.388 148.665 152.828 148.874 152.411 149.277C151.994 149.681 151.754 150.249 151.688 150.981C152.063 150.552 152.574 150.337 153.222 150.337C153.84 150.337 154.333 150.555 154.701 150.991C155.072 151.427 155.258 151.991 155.258 152.681C155.258 153.413 155.058 153.999 154.657 154.438C154.26 154.878 153.726 155.098 153.056 155.098C152.375 155.098 151.824 154.837 151.4 154.316C150.977 153.792 150.766 153.118 150.766 152.295V151.948C150.766 150.64 151.044 149.64 151.601 148.95C152.16 148.257 152.992 147.902 154.096 147.886H154.257ZM153.07 151.089C152.761 151.089 152.476 151.182 152.216 151.367C151.955 151.553 151.775 151.785 151.674 152.065V152.397C151.674 152.983 151.806 153.455 152.069 153.813C152.333 154.172 152.662 154.351 153.056 154.351C153.463 154.351 153.782 154.201 154.013 153.901C154.247 153.602 154.364 153.21 154.364 152.725C154.364 152.236 154.245 151.842 154.008 151.543C153.773 151.24 153.461 151.089 153.07 151.089ZM160.141 152.612H161.127V153.35H160.141V155H159.232V153.35H155.995V152.817L159.179 147.891H160.141V152.612ZM157.021 152.612H159.232V149.126L159.125 149.321L157.021 152.612ZM163.017 155H162.113V149.717H163.017V155ZM162.04 148.315C162.04 148.169 162.084 148.045 162.172 147.944C162.263 147.843 162.396 147.793 162.572 147.793C162.748 147.793 162.882 147.843 162.973 147.944C163.064 148.045 163.109 148.169 163.109 148.315C163.109 148.462 163.064 148.584 162.973 148.682C162.882 148.779 162.748 148.828 162.572 148.828C162.396 148.828 162.263 148.779 162.172 148.682C162.084 148.584 162.04 148.462 162.04 148.315ZM123.382 159.87H121.072V158.77H120.252V159.87H117.932V160.53H123.382V159.87ZM119.282 162.7C119.282 162.07 119.842 161.67 120.662 161.67C121.472 161.67 122.032 162.07 122.032 162.7C122.032 163.32 121.472 163.72 120.662 163.72C119.842 163.72 119.282 163.32 119.282 162.7ZM121.072 164.34C122.132 164.21 122.812 163.59 122.812 162.7C122.812 161.69 121.942 161.04 120.662 161.04C119.382 161.04 118.502 161.69 118.502 162.7C118.502 163.6 119.192 164.22 120.252 164.35V165.31C119.362 165.34 118.502 165.35 117.742 165.35L117.862 166.04C119.512 166.04 121.672 166.01 123.672 165.68L123.612 165.07C122.792 165.18 121.922 165.24 121.072 165.28V164.34ZM124.182 158.77V167.74H125.002V158.77H124.182ZM131.591 164.07V164.68H133.411V165.6H134.231V158.77H133.411V164.07H131.591ZM129.761 159.74C130.611 159.74 131.191 160.12 131.191 160.69C131.191 161.27 130.611 161.65 129.761 161.65C128.911 161.65 128.331 161.27 128.331 160.69C128.331 160.12 128.911 159.74 129.761 159.74ZM129.761 162.26C131.071 162.26 131.971 161.65 131.971 160.69C131.971 159.75 131.071 159.13 129.761 159.13C128.451 159.13 127.551 159.75 127.551 160.69C127.551 161.65 128.451 162.26 129.761 162.26ZM129.441 165.28H130.261V163.51C131.071 163.46 131.901 163.37 132.691 163.25L132.621 162.66C130.721 162.9 128.501 162.92 126.841 162.92L126.951 163.6C127.691 163.6 128.551 163.59 129.441 163.55V165.28ZM128.941 166.87V164.93H128.121V167.54H134.461V166.87H128.941ZM136.571 159.73V160.41H139.861C139.671 162.53 138.441 164.25 136.151 165.4L136.601 166.04C139.501 164.59 140.671 162.28 140.671 159.73H136.571ZM144.431 162.41H142.991V158.77H142.171V167.74H142.991V163.09H144.431V162.41ZM151.83 158.78V163.59H152.65V158.78H151.83ZM146.87 164.03V167.62H152.65V164.03H151.84V165.13H147.68V164.03H146.87ZM147.68 165.77H151.84V166.96H147.68V165.77ZM147.83 159.2C146.48 159.2 145.5 160.04 145.5 161.26C145.5 162.5 146.48 163.33 147.83 163.33C149.19 163.33 150.18 162.5 150.18 161.26C150.18 160.04 149.19 159.2 147.83 159.2ZM147.83 159.88C148.74 159.88 149.38 160.45 149.38 161.26C149.38 162.08 148.74 162.65 147.83 162.65C146.94 162.65 146.3 162.08 146.3 161.26C146.3 160.45 146.94 159.88 147.83 159.88ZM165.089 163.21H163.759C164.009 161.92 164.009 160.97 164.009 160.13V159.35H157.989V160.01H163.209V160.13C163.209 160.97 163.209 161.92 162.929 163.21H156.979V163.88H160.599V167.75H161.429V163.88H165.089V163.21ZM171.209 161.16V161.83H172.719V163.04H171.209V163.71H172.719V165.61H173.549V158.78H172.719V161.16H171.209ZM171.209 159.87H169.149V158.76H168.329V159.87H166.189V160.53H171.209V159.87ZM167.479 162.73C167.479 162.1 167.989 161.67 168.729 161.67C169.469 161.67 169.979 162.1 169.979 162.73C169.979 163.37 169.469 163.81 168.729 163.81C167.989 163.81 167.479 163.37 167.479 162.73ZM170.759 162.73C170.759 161.71 169.919 161.03 168.729 161.03C167.539 161.03 166.699 161.71 166.699 162.73C166.699 163.76 167.539 164.45 168.729 164.45C169.919 164.45 170.759 163.76 170.759 162.73ZM168.609 166.87V165.03H167.789V167.54H173.759V166.87H168.609Z" fill="black"/>
</svg>
