<svg width="1152" height="587" viewBox="0 0 1152 587" fill="none" xmlns="http://www.w3.org/2000/svg">
<path d="M0 0H1152V587H0V0Z" fill="white" fill-opacity="0.01"/>
<path d="M257.34 343H256.397V339.714H252.813V343H251.876V335.891H252.813V338.947H256.397V335.891H257.34V343ZM263.023 339.714H259.942V342.233H263.521V343H259.005V335.891H263.473V336.662H259.942V338.947H263.023V339.714ZM268.614 341.145H265.636L264.967 343H264L266.715 335.891H267.535L270.255 343H269.293L268.614 341.145ZM265.919 340.373H268.336L267.125 337.048L265.919 340.373ZM271.212 343V335.891H273.219C273.837 335.891 274.384 336.027 274.859 336.301C275.335 336.574 275.701 336.963 275.958 337.468C276.218 337.972 276.35 338.552 276.354 339.206V339.66C276.354 340.331 276.223 340.918 275.963 341.423C275.706 341.927 275.336 342.315 274.854 342.585C274.376 342.855 273.818 342.993 273.18 343H271.212ZM272.149 336.662V342.233H273.136C273.858 342.233 274.42 342.009 274.82 341.56C275.224 341.11 275.426 340.471 275.426 339.641V339.226C275.426 338.418 275.235 337.792 274.854 337.346C274.477 336.896 273.94 336.669 273.243 336.662H272.149Z" fill="#4000C7"/>
<path d="M85.1863 359C83.5646 352.553 91.8523 338.272 137 339.029" stroke="#4000C7"/>
<path d="M147.186 332C145.565 325.553 153.852 311.272 199 312.029" stroke="#4000C7"/>
<rect x="115.824" y="100.124" width="18" height="41" rx="5" transform="rotate(-90.1738 115.824 100.124)" fill="black"/>
<rect x="115.824" y="221.124" width="18" height="41" rx="5" transform="rotate(-90.1738 115.824 221.124)" fill="black"/>
<rect x="232.824" y="321.31" width="18" height="102.065" rx="5" transform="rotate(-90.1738 232.824 321.31)" fill="black"/>
<path d="M108.001 91.1934L116.251 87.7304L116.25 94.6586L108.001 91.1934Z" fill="black"/>
<path d="M108.001 212.193L116.251 208.73L116.25 215.659L108.001 212.193Z" fill="black"/>
<path d="M108.001 366.193L116.251 362.73L116.25 369.659L108.001 366.193Z" fill="black"/>
<path d="M225.001 312.379L233.251 308.916L233.25 315.844L225.001 312.379Z" fill="black"/>
<path d="M125.601 88.737L125.628 89.3815C126.054 88.8801 126.629 88.6294 127.352 88.6293C128.165 88.6291 128.718 88.9405 129.012 89.5635C129.205 89.2842 129.456 89.0586 129.764 88.8866C130.075 88.7147 130.442 88.6287 130.865 88.6286C132.14 88.6284 132.788 89.3032 132.81 90.6532L132.81 94.5472L131.817 94.5474L131.816 90.7124C131.816 90.2971 131.721 89.9874 131.531 89.7833C131.341 89.5756 131.023 89.4719 130.575 89.4719C130.206 89.472 129.9 89.5831 129.657 89.8051C129.413 90.0236 129.272 90.319 129.233 90.6914L129.233 94.5479L128.234 94.548L128.234 90.7399C128.233 89.8949 127.82 89.4724 126.993 89.4726C126.341 89.4727 125.895 89.7503 125.655 90.3053L125.656 94.5485L124.662 94.5487L124.661 88.7372L125.601 88.737ZM137.902 94.5463C137.845 94.4317 137.798 94.2276 137.762 93.934C137.301 94.4139 136.749 94.6539 136.108 94.654C135.535 94.6541 135.064 94.4931 134.696 94.1709C134.33 93.8451 134.148 93.4334 134.148 92.9356C134.147 92.3305 134.376 91.8614 134.835 91.5283C135.297 91.1916 135.945 91.0232 136.779 91.0231L137.746 91.0229L137.746 90.5663C137.746 90.219 137.642 89.9433 137.434 89.7393C137.226 89.5316 136.92 89.4278 136.516 89.4279C136.161 89.428 135.864 89.5175 135.624 89.6966C135.384 89.8757 135.264 90.0923 135.264 90.3466L134.265 90.3468C134.265 90.0567 134.367 89.7774 134.571 89.5088C134.779 89.2366 135.058 89.0217 135.409 88.8641C135.763 88.7065 136.152 88.6277 136.574 88.6276C137.244 88.6275 137.769 88.7957 138.148 89.1322C138.528 89.4651 138.725 89.9252 138.739 90.5125L138.74 93.1873C138.74 93.7208 138.808 94.1451 138.944 94.4602L138.944 94.5461L137.902 94.5463ZM136.253 93.7893C136.565 93.7892 136.86 93.7086 137.139 93.5474C137.419 93.3862 137.621 93.1767 137.746 92.9189L137.746 91.7265L136.967 91.7266C135.75 91.7269 135.141 92.0833 135.141 92.7958C135.141 93.1073 135.245 93.3508 135.453 93.5262C135.661 93.7016 135.927 93.7893 136.253 93.7893ZM141.377 94.5457L140.384 94.5458L140.383 88.7343L141.376 88.7341L141.377 94.5457ZM140.302 87.1928C140.302 87.0317 140.35 86.8956 140.447 86.7846C140.547 86.6736 140.694 86.6181 140.887 86.618C141.08 86.618 141.227 86.6735 141.328 86.7844C141.428 86.8954 141.478 87.0315 141.478 87.1926C141.478 87.3538 141.428 87.488 141.328 87.5955C141.227 87.7029 141.081 87.7567 140.887 87.7567C140.694 87.7567 140.547 87.703 140.447 87.5956C140.35 87.4882 140.302 87.354 140.302 87.1928ZM143.911 88.7337L143.944 89.4641C144.388 88.9055 144.968 88.6261 145.684 88.6259C146.912 88.6257 147.532 89.3185 147.543 90.7042L147.543 94.5445L146.55 94.5447L146.549 90.699C146.545 90.2801 146.449 89.9704 146.259 89.7699C146.073 89.5694 145.781 89.4692 145.383 89.4693C145.061 89.4693 144.778 89.5553 144.535 89.7272C144.291 89.8991 144.101 90.1248 143.965 90.4041L143.966 94.5452L142.973 94.5454L142.971 88.7339L143.911 88.7337Z" fill="white"/>
<path d="M125.601 209.737L125.628 210.382C126.054 209.88 126.629 209.629 127.352 209.629C128.165 209.629 128.718 209.941 129.012 210.564C129.205 210.284 129.456 210.059 129.764 209.887C130.075 209.715 130.442 209.629 130.865 209.629C132.14 209.628 132.788 210.303 132.81 211.653L132.81 215.547L131.817 215.547L131.816 211.712C131.816 211.297 131.721 210.987 131.531 210.783C131.341 210.576 131.023 210.472 130.575 210.472C130.206 210.472 129.9 210.583 129.657 210.805C129.413 211.024 129.272 211.319 129.233 211.691L129.233 215.548L128.234 215.548L128.234 211.74C128.233 210.895 127.82 210.472 126.993 210.473C126.341 210.473 125.895 210.75 125.655 211.305L125.656 215.549L124.662 215.549L124.661 209.737L125.601 209.737ZM137.902 215.546C137.845 215.432 137.798 215.228 137.762 214.934C137.301 215.414 136.749 215.654 136.108 215.654C135.535 215.654 135.064 215.493 134.696 215.171C134.33 214.845 134.148 214.433 134.148 213.936C134.147 213.331 134.376 212.861 134.835 212.528C135.297 212.192 135.945 212.023 136.779 212.023L137.746 212.023L137.746 211.566C137.746 211.219 137.642 210.943 137.434 210.739C137.226 210.532 136.92 210.428 136.516 210.428C136.161 210.428 135.864 210.518 135.624 210.697C135.384 210.876 135.264 211.092 135.264 211.347L134.265 211.347C134.265 211.057 134.367 210.777 134.571 210.509C134.779 210.237 135.058 210.022 135.409 209.864C135.763 209.707 136.152 209.628 136.574 209.628C137.244 209.627 137.769 209.796 138.148 210.132C138.528 210.465 138.725 210.925 138.739 211.512L138.74 214.187C138.74 214.721 138.808 215.145 138.944 215.46L138.944 215.546L137.902 215.546ZM136.253 214.789C136.565 214.789 136.86 214.709 137.139 214.547C137.419 214.386 137.621 214.177 137.746 213.919L137.746 212.726L136.967 212.727C135.75 212.727 135.141 213.083 135.141 213.796C135.141 214.107 135.245 214.351 135.453 214.526C135.661 214.702 135.927 214.789 136.253 214.789ZM141.377 215.546L140.384 215.546L140.383 209.734L141.376 209.734L141.377 215.546ZM140.302 208.193C140.302 208.032 140.35 207.896 140.447 207.785C140.547 207.674 140.694 207.618 140.887 207.618C141.08 207.618 141.227 207.673 141.328 207.784C141.428 207.895 141.478 208.031 141.478 208.193C141.478 208.354 141.428 208.488 141.328 208.595C141.227 208.703 141.081 208.757 140.887 208.757C140.694 208.757 140.547 208.703 140.447 208.596C140.35 208.488 140.302 208.354 140.302 208.193ZM143.911 209.734L143.944 210.464C144.388 209.905 144.968 209.626 145.684 209.626C146.912 209.626 147.532 210.318 147.543 211.704L147.543 215.545L146.55 215.545L146.549 211.699C146.545 211.28 146.449 210.97 146.259 210.77C146.073 210.569 145.781 210.469 145.383 210.469C145.061 210.469 144.778 210.555 144.535 210.727C144.291 210.899 144.101 211.125 143.965 211.404L143.966 215.545L142.973 215.545L142.971 209.734L143.911 209.734Z" fill="white"/>
<path d="M242.157 315.734L242.156 310.691L241.237 310.691L241.237 309.923L242.156 309.923L242.155 309.326C242.155 308.703 242.322 308.222 242.655 307.882C242.988 307.541 243.458 307.371 244.067 307.371C244.296 307.371 244.524 307.401 244.749 307.462L244.696 308.268C244.527 308.236 244.348 308.22 244.159 308.22C243.836 308.22 243.588 308.315 243.412 308.504C243.237 308.691 243.149 308.959 243.149 309.31L243.149 309.922L244.39 309.922L244.39 310.69L243.149 310.691L243.15 315.734L242.157 315.734ZM247.775 315.841C246.987 315.841 246.346 315.583 245.852 315.067C245.358 314.548 245.11 313.856 245.11 312.989L245.11 312.806C245.11 312.23 245.219 311.716 245.438 311.265C245.659 310.81 245.967 310.455 246.361 310.201C246.759 309.943 247.188 309.814 247.65 309.814C248.406 309.814 248.993 310.063 249.412 310.56C249.831 311.058 250.041 311.771 250.041 312.698L250.041 313.112L246.104 313.112C246.118 313.685 246.285 314.149 246.604 314.503C246.926 314.854 247.334 315.03 247.828 315.03C248.179 315.029 248.476 314.958 248.72 314.815C248.963 314.671 249.176 314.481 249.359 314.245L249.966 314.718C249.479 315.466 248.749 315.84 247.775 315.841ZM247.65 310.631C247.249 310.631 246.913 310.778 246.641 311.071C246.369 311.361 246.2 311.77 246.136 312.296L249.047 312.295L249.047 312.22C249.018 311.715 248.882 311.325 248.639 311.049C248.395 310.77 248.066 310.631 247.65 310.631ZM254.784 315.732C254.727 315.617 254.68 315.413 254.644 315.12C254.182 315.599 253.631 315.839 252.99 315.84C252.417 315.84 251.946 315.679 251.577 315.356C251.212 315.031 251.029 314.619 251.029 314.121C251.029 313.516 251.258 313.047 251.717 312.714C252.178 312.377 252.827 312.209 253.661 312.209L254.628 312.208L254.628 311.752C254.627 311.405 254.524 311.129 254.316 310.925C254.108 310.717 253.802 310.613 253.397 310.613C253.043 310.614 252.746 310.703 252.506 310.882C252.266 311.061 252.146 311.278 252.146 311.532L251.147 311.532C251.147 311.242 251.249 310.963 251.453 310.694C251.661 310.422 251.94 310.207 252.291 310.05C252.645 309.892 253.034 309.813 253.456 309.813C254.126 309.813 254.651 309.981 255.03 310.318C255.41 310.651 255.607 311.111 255.621 311.698L255.622 314.373C255.622 314.906 255.69 315.331 255.826 315.646L255.826 315.732L254.784 315.732ZM253.135 314.975C253.446 314.975 253.742 314.894 254.021 314.733C254.3 314.572 254.503 314.362 254.628 314.104L254.628 312.912L253.849 312.912C252.632 312.912 252.023 313.269 252.023 313.981C252.023 314.293 252.127 314.536 252.335 314.712C252.542 314.887 252.809 314.975 253.135 314.975ZM258.526 308.512L258.527 309.92L259.612 309.919L259.612 310.688L258.527 310.688L258.527 314.292C258.527 314.524 258.576 314.7 258.673 314.818C258.769 314.933 258.934 314.99 259.167 314.99C259.281 314.99 259.439 314.968 259.639 314.925L259.64 315.731C259.378 315.803 259.124 315.838 258.877 315.839C258.433 315.839 258.098 315.704 257.872 315.436C257.647 315.167 257.534 314.786 257.534 314.292L257.533 310.688L256.475 310.688L256.475 309.92L257.533 309.92L257.533 308.513L258.526 308.512ZM260.977 316.402L260.123 316.402L263.387 307.91L264.236 307.91L260.977 316.402ZM268.695 314.188C268.695 313.919 268.593 313.712 268.389 313.565C268.188 313.414 267.835 313.286 267.33 313.178C266.829 313.071 266.43 312.942 266.133 312.792C265.839 312.641 265.621 312.462 265.477 312.255C265.338 312.047 265.268 311.8 265.268 311.514C265.268 311.037 265.468 310.635 265.869 310.305C266.274 309.976 266.789 309.811 267.416 309.811C268.075 309.811 268.608 309.981 269.016 310.321C269.428 310.661 269.634 311.096 269.634 311.626L268.635 311.626C268.635 311.354 268.519 311.119 268.286 310.922C268.057 310.725 267.767 310.627 267.416 310.627C267.054 310.627 266.771 310.706 266.567 310.864C266.363 311.021 266.261 311.227 266.261 311.481C266.261 311.721 266.356 311.902 266.546 312.024C266.736 312.145 267.078 312.262 267.572 312.373C268.07 312.484 268.473 312.616 268.781 312.77C269.089 312.924 269.316 313.11 269.463 313.328C269.613 313.543 269.688 313.806 269.689 314.118C269.689 314.637 269.481 315.054 269.066 315.369C268.65 315.681 268.112 315.837 267.449 315.837C266.984 315.837 266.572 315.755 266.214 315.59C265.856 315.425 265.574 315.196 265.37 314.903C265.17 314.606 265.069 314.285 265.069 313.941L266.063 313.941C266.081 314.274 266.214 314.539 266.461 314.736C266.711 314.929 267.041 315.026 267.449 315.026C267.825 315.026 268.126 314.951 268.351 314.8C268.58 314.646 268.695 314.442 268.695 314.188ZM272.063 315.729L271.069 315.729L271.068 309.917L272.062 309.917L272.063 315.729ZM270.987 308.376C270.987 308.215 271.036 308.079 271.132 307.968C271.232 307.857 271.379 307.801 271.573 307.801C271.766 307.801 271.913 307.857 272.013 307.968C272.113 308.078 272.164 308.215 272.164 308.376C272.164 308.537 272.113 308.671 272.013 308.779C271.913 308.886 271.766 308.94 271.573 308.94C271.379 308.94 271.233 308.886 271.132 308.779C271.036 308.671 270.987 308.537 270.987 308.376ZM273.421 312.774C273.421 311.868 273.63 311.149 274.049 310.615C274.468 310.078 275.023 309.809 275.714 309.809C276.423 309.809 276.976 310.06 277.374 310.561L277.422 309.916L278.33 309.916L278.331 315.588C278.331 316.34 278.107 316.933 277.66 317.366C277.216 317.799 276.618 318.016 275.866 318.016C275.447 318.016 275.037 317.927 274.636 317.748C274.235 317.569 273.929 317.324 273.717 317.012L274.233 316.416C274.659 316.942 275.18 317.205 275.796 317.205C276.279 317.205 276.655 317.069 276.924 316.797C277.196 316.525 277.332 316.141 277.332 315.647L277.332 315.148C276.934 315.606 276.392 315.835 275.704 315.835C275.024 315.836 274.473 315.562 274.05 315.014C273.631 314.466 273.421 313.72 273.421 312.774ZM274.42 312.887C274.42 313.542 274.555 314.058 274.823 314.434C275.092 314.806 275.468 314.992 275.951 314.992C276.578 314.992 277.038 314.707 277.332 314.138L277.331 311.485C277.027 310.93 276.57 310.652 275.961 310.652C275.478 310.652 275.1 310.84 274.828 311.217C274.556 311.593 274.42 312.149 274.42 312.887ZM280.774 309.916L280.806 310.646C281.25 310.087 281.83 309.808 282.546 309.808C283.774 309.808 284.394 310.5 284.405 311.886L284.406 315.727L283.412 315.727L283.411 311.881C283.408 311.462 283.311 311.152 283.121 310.952C282.935 310.751 282.643 310.651 282.246 310.651C281.923 310.651 281.64 310.737 281.397 310.909C281.153 311.081 280.964 311.307 280.828 311.586L280.828 315.727L279.835 315.727L279.834 309.916L280.774 309.916ZM289.492 315.151C289.105 315.606 288.538 315.833 287.789 315.833C287.17 315.833 286.697 315.654 286.371 315.296C286.049 314.935 285.886 314.401 285.882 313.696L285.882 309.915L286.875 309.915L286.876 313.669C286.876 314.55 287.234 314.99 287.95 314.99C288.71 314.99 289.214 314.707 289.465 314.141L289.464 309.914L290.458 309.914L290.459 315.725L289.514 315.726L289.492 315.151ZM296.882 312.883C296.882 313.767 296.68 314.48 296.276 315.021C295.871 315.562 295.323 315.832 294.632 315.832C293.927 315.832 293.372 315.609 292.967 315.161L292.968 317.959L291.974 317.96L291.972 309.914L292.88 309.913L292.929 310.558C293.333 310.057 293.895 309.806 294.615 309.806C295.313 309.806 295.865 310.069 296.269 310.595C296.678 311.121 296.882 311.853 296.882 312.792L296.882 312.883ZM295.888 312.77C295.888 312.115 295.749 311.598 295.469 311.218C295.19 310.839 294.807 310.649 294.32 310.649C293.718 310.649 293.267 310.916 292.966 311.45L292.967 314.226C293.264 314.756 293.719 315.021 294.331 315.021C294.808 315.021 295.185 314.833 295.464 314.457C295.747 314.077 295.889 313.515 295.888 312.77ZM300.218 312.807L297.596 312.808L297.596 311.997L300.217 311.996L300.218 312.807ZM300.927 312.764C300.926 312.195 301.037 311.683 301.259 311.228C301.485 310.773 301.796 310.422 302.194 310.175C302.595 309.928 303.051 309.804 303.563 309.804C304.355 309.804 304.994 310.078 305.481 310.626C305.972 311.173 306.217 311.902 306.217 312.811L306.217 312.881C306.217 313.447 306.108 313.955 305.89 314.407C305.675 314.854 305.365 315.204 304.961 315.454C304.56 315.705 304.098 315.83 303.575 315.83C302.787 315.831 302.148 315.557 301.657 315.009C301.17 314.461 300.927 313.736 300.927 312.834L300.927 312.764ZM301.926 312.882C301.926 313.527 302.074 314.044 302.372 314.434C302.673 314.824 303.074 315.02 303.575 315.019C304.08 315.019 304.481 314.822 304.778 314.428C305.075 314.031 305.224 313.476 305.223 312.763C305.223 312.126 305.071 311.61 304.767 311.216C304.466 310.819 304.065 310.62 303.563 310.62C303.073 310.621 302.677 310.816 302.376 311.206C302.076 311.597 301.925 312.155 301.926 312.882ZM311.052 315.722C310.994 315.607 310.948 315.403 310.912 315.109C310.45 315.589 309.899 315.829 309.258 315.829C308.685 315.83 308.214 315.668 307.845 315.346C307.48 315.021 307.297 314.609 307.297 314.111C307.297 313.506 307.526 313.037 307.984 312.704C308.446 312.367 309.094 312.199 309.928 312.198L310.895 312.198L310.895 311.742C310.895 311.394 310.791 311.119 310.583 310.915C310.376 310.707 310.07 310.603 309.665 310.603C309.31 310.603 309.013 310.693 308.773 310.872C308.534 311.051 308.414 311.268 308.414 311.522L307.415 311.522C307.415 311.232 307.517 310.953 307.721 310.684C307.928 310.412 308.208 310.197 308.558 310.04C308.913 309.882 309.301 309.803 309.724 309.803C310.393 309.803 310.918 309.971 311.298 310.308C311.677 310.641 311.874 311.101 311.889 311.688L311.889 314.363C311.889 314.896 311.957 315.32 312.094 315.636L312.094 315.721L311.052 315.722ZM309.403 314.965C309.714 314.965 310.009 314.884 310.289 314.723C310.568 314.562 310.77 314.352 310.896 314.094L310.895 312.902L310.117 312.902C308.899 312.902 308.29 313.259 308.291 313.971C308.291 314.283 308.394 314.526 308.602 314.702C308.81 314.877 309.077 314.965 309.403 314.965ZM317.035 315.146C316.648 315.601 316.081 315.828 315.332 315.828C314.713 315.828 314.24 315.649 313.914 315.291C313.592 314.93 313.429 314.396 313.425 313.691L313.425 309.91L314.418 309.91L314.419 313.664C314.419 314.545 314.777 314.985 315.493 314.985C316.252 314.985 316.757 314.702 317.008 314.136L317.007 309.909L318.001 309.909L318.002 315.72L317.056 315.721L317.035 315.146ZM320.863 308.501L320.864 309.908L321.949 309.908L321.949 310.676L320.864 310.676L320.864 314.28C320.864 314.513 320.913 314.689 321.009 314.807C321.106 314.921 321.271 314.979 321.504 314.979C321.618 314.979 321.776 314.957 321.976 314.914L321.976 315.72C321.715 315.791 321.461 315.827 321.214 315.827C320.77 315.827 320.435 315.693 320.209 315.425C319.984 315.156 319.871 314.775 319.871 314.281L319.87 310.677L318.812 310.677L318.812 309.909L319.87 309.909L319.87 308.501L320.863 308.501ZM324.108 310.611C324.548 310.071 325.121 309.8 325.826 309.8C327.055 309.8 327.674 310.493 327.685 311.878L327.686 315.719L326.692 315.719L326.692 311.873C326.688 311.454 326.591 311.144 326.401 310.944C326.215 310.744 325.923 310.643 325.526 310.643C325.204 310.643 324.921 310.729 324.677 310.901C324.434 311.073 324.244 311.299 324.108 311.578L324.109 315.719L323.115 315.719L323.114 307.469L324.107 307.469L324.108 310.611Z" fill="white"/>
<circle cx="84.5" cy="366.5" r="9.5" fill="#4000C7"/>
<circle cx="84.5" cy="212.5" r="9.5" fill="#4000C7"/>
<circle cx="84.5" cy="91.5" r="9.5" fill="#4000C7"/>
<circle cx="145.5" cy="339.5" r="9.5" fill="#4000C7"/>
<circle cx="208.5" cy="312.5" r="9.5" fill="#4000C7"/>
<rect x="115.824" y="375.124" width="18" height="41" rx="5" transform="rotate(-90.1738 115.824 375.124)" fill="black"/>
<path d="M125.601 363.737L125.628 364.382C126.054 363.88 126.629 363.629 127.352 363.629C128.165 363.629 128.718 363.941 129.012 364.564C129.205 364.284 129.456 364.059 129.764 363.887C130.075 363.715 130.442 363.629 130.865 363.629C132.14 363.628 132.788 364.303 132.81 365.653L132.81 369.547L131.817 369.547L131.816 365.712C131.816 365.297 131.721 364.987 131.531 364.783C131.341 364.576 131.023 364.472 130.575 364.472C130.206 364.472 129.9 364.583 129.657 364.805C129.413 365.024 129.272 365.319 129.233 365.691L129.233 369.548L128.234 369.548L128.234 365.74C128.233 364.895 127.82 364.472 126.993 364.473C126.341 364.473 125.895 364.75 125.655 365.305L125.656 369.549L124.662 369.549L124.661 363.737L125.601 363.737ZM137.902 369.546C137.845 369.432 137.798 369.228 137.762 368.934C137.301 369.414 136.749 369.654 136.108 369.654C135.535 369.654 135.064 369.493 134.696 369.171C134.33 368.845 134.148 368.433 134.148 367.936C134.147 367.331 134.376 366.861 134.835 366.528C135.297 366.192 135.945 366.023 136.779 366.023L137.746 366.023L137.746 365.566C137.746 365.219 137.642 364.943 137.434 364.739C137.226 364.532 136.92 364.428 136.516 364.428C136.161 364.428 135.864 364.518 135.624 364.697C135.384 364.876 135.264 365.092 135.264 365.347L134.265 365.347C134.265 365.057 134.367 364.777 134.571 364.509C134.779 364.237 135.058 364.022 135.409 363.864C135.763 363.707 136.152 363.628 136.574 363.628C137.244 363.627 137.769 363.796 138.148 364.132C138.528 364.465 138.725 364.925 138.739 365.512L138.74 368.187C138.74 368.721 138.808 369.145 138.944 369.46L138.944 369.546L137.902 369.546ZM136.253 368.789C136.565 368.789 136.86 368.709 137.139 368.547C137.419 368.386 137.621 368.177 137.746 367.919L137.746 366.726L136.967 366.727C135.75 366.727 135.141 367.083 135.141 367.796C135.141 368.107 135.245 368.351 135.453 368.526C135.661 368.702 135.927 368.789 136.253 368.789ZM141.377 369.546L140.384 369.546L140.383 363.734L141.376 363.734L141.377 369.546ZM140.302 362.193C140.302 362.032 140.35 361.896 140.447 361.785C140.547 361.674 140.694 361.618 140.887 361.618C141.08 361.618 141.227 361.673 141.328 361.784C141.428 361.895 141.478 362.031 141.478 362.193C141.478 362.354 141.428 362.488 141.328 362.595C141.227 362.703 141.081 362.757 140.887 362.757C140.694 362.757 140.547 362.703 140.447 362.596C140.35 362.488 140.302 362.354 140.302 362.193ZM143.911 363.734L143.944 364.464C144.388 363.905 144.968 363.626 145.684 363.626C146.912 363.626 147.532 364.318 147.543 365.704L147.543 369.545L146.55 369.545L146.549 365.699C146.545 365.28 146.449 364.97 146.259 364.77C146.073 364.569 145.781 364.469 145.383 364.469C145.061 364.469 144.778 364.555 144.535 364.727C144.291 364.899 144.101 365.125 143.965 365.404L143.966 369.545L142.973 369.545L142.971 363.734L143.911 363.734Z" fill="white"/>
<path d="M191.083 281.006H191.762C192.188 280.999 192.523 280.887 192.768 280.669C193.012 280.451 193.134 280.156 193.134 279.785C193.134 278.952 192.719 278.535 191.889 278.535C191.498 278.535 191.186 278.647 190.951 278.872C190.72 279.093 190.604 279.388 190.604 279.756H189.701C189.701 279.193 189.906 278.726 190.316 278.354C190.73 277.98 191.254 277.793 191.889 277.793C192.559 277.793 193.085 277.97 193.466 278.325C193.847 278.68 194.037 279.173 194.037 279.805C194.037 280.114 193.936 280.413 193.734 280.703C193.536 280.993 193.264 281.209 192.919 281.353C193.31 281.476 193.611 281.681 193.822 281.968C194.037 282.254 194.145 282.604 194.145 283.018C194.145 283.656 193.936 284.162 193.52 284.536C193.103 284.91 192.561 285.098 191.894 285.098C191.226 285.098 190.683 284.917 190.263 284.556C189.846 284.194 189.638 283.717 189.638 283.125H190.546C190.546 283.499 190.668 283.799 190.912 284.023C191.156 284.248 191.483 284.36 191.894 284.36C192.33 284.36 192.663 284.246 192.895 284.019C193.126 283.791 193.241 283.464 193.241 283.037C193.241 282.624 193.114 282.306 192.86 282.085C192.606 281.864 192.24 281.75 191.762 281.743H191.083V281.006ZM197.597 284.36C197.919 284.36 198.201 284.263 198.441 284.067C198.682 283.872 198.816 283.628 198.842 283.335H199.696C199.68 283.638 199.576 283.926 199.384 284.199C199.192 284.473 198.935 284.691 198.612 284.854C198.293 285.016 197.955 285.098 197.597 285.098C196.877 285.098 196.304 284.858 195.878 284.38C195.455 283.898 195.243 283.241 195.243 282.407V282.256C195.243 281.742 195.338 281.284 195.526 280.884C195.715 280.483 195.985 280.173 196.337 279.951C196.692 279.73 197.11 279.619 197.592 279.619C198.184 279.619 198.676 279.797 199.066 280.151C199.46 280.506 199.67 280.967 199.696 281.533H198.842C198.816 281.191 198.686 280.911 198.451 280.693C198.22 280.472 197.934 280.361 197.592 280.361C197.133 280.361 196.776 280.527 196.522 280.859C196.272 281.188 196.146 281.665 196.146 282.29V282.461C196.146 283.07 196.272 283.538 196.522 283.867C196.773 284.196 197.131 284.36 197.597 284.36ZM202.904 285.098C202.188 285.098 201.605 284.863 201.156 284.395C200.707 283.923 200.482 283.293 200.482 282.505V282.339C200.482 281.815 200.582 281.348 200.78 280.938C200.982 280.524 201.262 280.202 201.62 279.971C201.981 279.736 202.372 279.619 202.792 279.619C203.479 279.619 204.013 279.845 204.394 280.298C204.774 280.75 204.965 281.398 204.965 282.241V282.617H201.386C201.399 283.138 201.55 283.56 201.84 283.882C202.133 284.201 202.504 284.36 202.953 284.36C203.272 284.36 203.542 284.295 203.764 284.165C203.985 284.035 204.179 283.862 204.345 283.647L204.896 284.077C204.454 284.757 203.79 285.098 202.904 285.098ZM202.792 280.361C202.427 280.361 202.121 280.495 201.874 280.762C201.627 281.025 201.474 281.396 201.415 281.875H204.062V281.807C204.035 281.348 203.912 280.993 203.69 280.742C203.469 280.488 203.17 280.361 202.792 280.361ZM207.235 281.006H207.914C208.34 280.999 208.676 280.887 208.92 280.669C209.164 280.451 209.286 280.156 209.286 279.785C209.286 278.952 208.871 278.535 208.041 278.535C207.65 278.535 207.338 278.647 207.104 278.872C206.872 279.093 206.757 279.388 206.757 279.756H205.854C205.854 279.193 206.059 278.726 206.469 278.354C206.882 277.98 207.406 277.793 208.041 277.793C208.712 277.793 209.237 277.97 209.618 278.325C209.999 278.68 210.189 279.173 210.189 279.805C210.189 280.114 210.089 280.413 209.887 280.703C209.688 280.993 209.416 281.209 209.071 281.353C209.462 281.476 209.763 281.681 209.975 281.968C210.189 282.254 210.297 282.604 210.297 283.018C210.297 283.656 210.089 284.162 209.672 284.536C209.255 284.91 208.713 285.098 208.046 285.098C207.379 285.098 206.835 284.917 206.415 284.556C205.998 284.194 205.79 283.717 205.79 283.125H206.698C206.698 283.499 206.82 283.799 207.064 284.023C207.309 284.248 207.636 284.36 208.046 284.36C208.482 284.36 208.816 284.246 209.047 284.019C209.278 283.791 209.394 283.464 209.394 283.037C209.394 282.624 209.267 282.306 209.013 282.085C208.759 281.864 208.393 281.75 207.914 281.743H207.235V281.006ZM214.999 281.875C214.81 282.1 214.584 282.28 214.32 282.417C214.06 282.554 213.773 282.622 213.461 282.622C213.051 282.622 212.693 282.521 212.387 282.319C212.084 282.118 211.85 281.834 211.684 281.47C211.518 281.102 211.435 280.697 211.435 280.254C211.435 279.779 211.524 279.351 211.703 278.97C211.885 278.589 212.143 278.298 212.475 278.096C212.807 277.894 213.194 277.793 213.637 277.793C214.34 277.793 214.893 278.057 215.297 278.584C215.704 279.108 215.907 279.824 215.907 280.732V280.996C215.907 282.38 215.634 283.39 215.087 284.028C214.54 284.663 213.715 284.989 212.611 285.005H212.436V284.243H212.626C213.371 284.23 213.944 284.036 214.345 283.662C214.745 283.285 214.963 282.689 214.999 281.875ZM213.607 281.875C213.91 281.875 214.188 281.782 214.442 281.597C214.7 281.411 214.887 281.182 215.004 280.908V280.547C215.004 279.954 214.875 279.473 214.618 279.102C214.361 278.73 214.035 278.545 213.642 278.545C213.244 278.545 212.925 278.698 212.685 279.004C212.444 279.307 212.323 279.707 212.323 280.205C212.323 280.69 212.439 281.09 212.67 281.406C212.904 281.719 213.217 281.875 213.607 281.875ZM220.966 282.612H221.952V283.35H220.966V285H220.058V283.35H216.82V282.817L220.004 277.891H220.966V282.612ZM217.846 282.612H220.058V279.126L219.95 279.321L217.846 282.612ZM222.641 282.314C222.641 281.504 222.833 280.853 223.217 280.361C223.601 279.867 224.104 279.619 224.726 279.619C225.344 279.619 225.834 279.831 226.195 280.254V277.5H227.099V285H226.269L226.225 284.434C225.863 284.876 225.36 285.098 224.716 285.098C224.104 285.098 223.604 284.847 223.217 284.346C222.833 283.844 222.641 283.19 222.641 282.383V282.314ZM223.544 282.417C223.544 283.016 223.668 283.485 223.915 283.823C224.162 284.162 224.504 284.331 224.94 284.331C225.513 284.331 225.932 284.074 226.195 283.56V281.133C225.925 280.635 225.51 280.386 224.95 280.386C224.507 280.386 224.162 280.557 223.915 280.898C223.668 281.24 223.544 281.746 223.544 282.417ZM186.692 293.15C185.122 292.87 183.412 291.55 183.412 290.06V289.37H182.552V290.06C182.552 291.55 180.852 292.87 179.282 293.15L179.622 293.83C181.002 293.54 182.402 292.61 182.982 291.33C183.562 292.61 184.972 293.54 186.342 293.83L186.692 293.15ZM183.392 295.9V293.72H182.572V295.9H178.952V296.57H187.092V295.9H183.392ZM194.711 293.48H195.541V288.78H194.711V289.69H192.951V290.34H194.711V291.3H192.951V291.95H194.711V293.48ZM193.391 292.69C192.101 292.25 191.191 291.14 191.191 289.94V289H190.381V289.94C190.381 291.19 189.481 292.39 188.151 292.88L188.571 293.5C189.611 293.12 190.421 292.3 190.801 291.28C191.191 292.21 191.971 292.96 192.971 293.33L193.391 292.69ZM190.591 296.98V296.03H195.541V293.92H189.761V294.55H194.731V295.42H189.781V297.62H195.881V296.98H190.591ZM200.311 289.73V290.41H203.601C203.411 292.53 202.181 294.25 199.891 295.4L200.341 296.04C203.241 294.59 204.411 292.28 204.411 289.73H200.311ZM208.171 292.41H206.731V288.77H205.911V297.74H206.731V293.09H208.171V292.41ZM215.57 288.78V293.59H216.39V288.78H215.57ZM210.61 294.03V297.62H216.39V294.03H215.58V295.13H211.42V294.03H210.61ZM211.42 295.77H215.58V296.96H211.42V295.77ZM211.57 289.2C210.22 289.2 209.24 290.04 209.24 291.26C209.24 292.5 210.22 293.33 211.57 293.33C212.93 293.33 213.92 292.5 213.92 291.26C213.92 290.04 212.93 289.2 211.57 289.2ZM211.57 289.88C212.48 289.88 213.12 290.45 213.12 291.26C213.12 292.08 212.48 292.65 211.57 292.65C210.68 292.65 210.04 292.08 210.04 291.26C210.04 290.45 210.68 289.88 211.57 289.88ZM228.83 293.21H227.5C227.75 291.92 227.75 290.97 227.75 290.13V289.35H221.73V290.01H226.95V290.13C226.95 290.97 226.95 291.92 226.67 293.21H220.72V293.88H224.34V297.75H225.17V293.88H228.83V293.21ZM234.949 291.16V291.83H236.459V293.04H234.949V293.71H236.459V295.61H237.289V288.78H236.459V291.16H234.949ZM234.949 289.87H232.889V288.76H232.069V289.87H229.929V290.53H234.949V289.87ZM231.219 292.73C231.219 292.1 231.729 291.67 232.469 291.67C233.209 291.67 233.719 292.1 233.719 292.73C233.719 293.37 233.209 293.81 232.469 293.81C231.729 293.81 231.219 293.37 231.219 292.73ZM234.499 292.73C234.499 291.71 233.659 291.03 232.469 291.03C231.279 291.03 230.439 291.71 230.439 292.73C230.439 293.76 231.279 294.45 232.469 294.45C233.659 294.45 234.499 293.76 234.499 292.73ZM232.349 296.87V295.03H231.529V297.54H237.499V296.87H232.349Z" fill="black"/>
<path d="M133.466 307H128.808V306.351L131.269 303.616C131.633 303.203 131.884 302.868 132.021 302.61C132.16 302.35 132.23 302.081 132.23 301.805C132.23 301.434 132.118 301.129 131.894 300.892C131.669 300.654 131.369 300.535 130.995 300.535C130.546 300.535 130.196 300.664 129.945 300.921C129.698 301.175 129.574 301.53 129.574 301.985H128.671C128.671 301.331 128.881 300.802 129.301 300.398C129.724 299.995 130.289 299.793 130.995 299.793C131.656 299.793 132.178 299.967 132.562 300.315C132.947 300.66 133.139 301.121 133.139 301.697C133.139 302.397 132.693 303.23 131.801 304.197L129.896 306.263H133.466V307ZM136.635 306.36C136.957 306.36 137.239 306.263 137.479 306.067C137.72 305.872 137.854 305.628 137.88 305.335H138.734C138.718 305.638 138.614 305.926 138.422 306.199C138.23 306.473 137.973 306.691 137.65 306.854C137.331 307.016 136.993 307.098 136.635 307.098C135.915 307.098 135.342 306.858 134.916 306.38C134.493 305.898 134.281 305.241 134.281 304.407V304.256C134.281 303.742 134.376 303.284 134.564 302.884C134.753 302.483 135.023 302.173 135.375 301.951C135.73 301.73 136.148 301.619 136.63 301.619C137.222 301.619 137.714 301.797 138.104 302.151C138.498 302.506 138.708 302.967 138.734 303.533H137.88C137.854 303.191 137.724 302.911 137.489 302.693C137.258 302.472 136.972 302.361 136.63 302.361C136.171 302.361 135.814 302.527 135.561 302.859C135.31 303.188 135.185 303.665 135.185 304.29V304.461C135.185 305.07 135.31 305.538 135.561 305.867C135.811 306.196 136.169 306.36 136.635 306.36ZM143.012 307C142.96 306.896 142.917 306.71 142.885 306.443C142.465 306.88 141.964 307.098 141.381 307.098C140.86 307.098 140.432 306.951 140.097 306.658C139.765 306.362 139.599 305.988 139.599 305.535C139.599 304.985 139.807 304.559 140.224 304.256C140.644 303.95 141.233 303.797 141.991 303.797H142.87V303.382C142.87 303.066 142.776 302.815 142.587 302.63C142.398 302.441 142.12 302.347 141.752 302.347C141.43 302.347 141.16 302.428 140.941 302.591C140.723 302.754 140.614 302.951 140.614 303.182H139.706C139.706 302.918 139.799 302.664 139.984 302.42C140.173 302.173 140.427 301.977 140.746 301.834C141.068 301.691 141.422 301.619 141.806 301.619C142.414 301.619 142.891 301.772 143.236 302.078C143.581 302.381 143.76 302.799 143.773 303.333V305.765C143.773 306.25 143.835 306.635 143.959 306.922V307H143.012ZM141.513 306.312C141.796 306.312 142.064 306.238 142.318 306.092C142.572 305.945 142.756 305.755 142.87 305.521V304.437H142.162C141.055 304.437 140.502 304.76 140.502 305.408C140.502 305.691 140.596 305.913 140.785 306.072C140.974 306.232 141.216 306.312 141.513 306.312ZM149.755 307H145.097V306.351L147.558 303.616C147.922 303.203 148.173 302.868 148.31 302.61C148.45 302.35 148.52 302.081 148.52 301.805C148.52 301.434 148.407 301.129 148.183 300.892C147.958 300.654 147.659 300.535 147.284 300.535C146.835 300.535 146.485 300.664 146.234 300.921C145.987 301.175 145.863 301.53 145.863 301.985H144.96C144.96 301.331 145.17 300.802 145.59 300.398C146.013 299.995 146.578 299.793 147.284 299.793C147.945 299.793 148.467 299.967 148.852 300.315C149.236 300.66 149.428 301.121 149.428 301.697C149.428 302.397 148.982 303.23 148.09 304.197L146.186 306.263H149.755V307ZM154.257 299.886V300.652H154.091C153.388 300.665 152.828 300.874 152.411 301.277C151.994 301.681 151.754 302.249 151.688 302.981C152.063 302.552 152.574 302.337 153.222 302.337C153.84 302.337 154.333 302.555 154.701 302.991C155.072 303.427 155.258 303.991 155.258 304.681C155.258 305.413 155.058 305.999 154.657 306.438C154.26 306.878 153.726 307.098 153.056 307.098C152.375 307.098 151.824 306.837 151.4 306.316C150.977 305.792 150.766 305.118 150.766 304.295V303.948C150.766 302.64 151.044 301.64 151.601 300.95C152.16 300.257 152.992 299.902 154.096 299.886H154.257ZM153.07 303.089C152.761 303.089 152.476 303.182 152.216 303.367C151.955 303.553 151.775 303.785 151.674 304.065V304.397C151.674 304.983 151.806 305.455 152.069 305.813C152.333 306.172 152.662 306.351 153.056 306.351C153.463 306.351 153.782 306.201 154.013 305.901C154.247 305.602 154.364 305.21 154.364 304.725C154.364 304.236 154.245 303.842 154.008 303.543C153.773 303.24 153.461 303.089 153.07 303.089ZM160.141 304.612H161.127V305.35H160.141V307H159.232V305.35H155.995V304.817L159.179 299.891H160.141V304.612ZM157.021 304.612H159.232V301.126L159.125 301.321L157.021 304.612ZM163.017 307H162.113V301.717H163.017V307ZM162.04 300.315C162.04 300.169 162.084 300.045 162.172 299.944C162.263 299.843 162.396 299.793 162.572 299.793C162.748 299.793 162.882 299.843 162.973 299.944C163.064 300.045 163.109 300.169 163.109 300.315C163.109 300.462 163.064 300.584 162.973 300.682C162.882 300.779 162.748 300.828 162.572 300.828C162.396 300.828 162.263 300.779 162.172 300.682C162.084 300.584 162.04 300.462 162.04 300.315ZM123.382 311.87H121.072V310.77H120.252V311.87H117.932V312.53H123.382V311.87ZM119.282 314.7C119.282 314.07 119.842 313.67 120.662 313.67C121.472 313.67 122.032 314.07 122.032 314.7C122.032 315.32 121.472 315.72 120.662 315.72C119.842 315.72 119.282 315.32 119.282 314.7ZM121.072 316.34C122.132 316.21 122.812 315.59 122.812 314.7C122.812 313.69 121.942 313.04 120.662 313.04C119.382 313.04 118.502 313.69 118.502 314.7C118.502 315.6 119.192 316.22 120.252 316.35V317.31C119.362 317.34 118.502 317.35 117.742 317.35L117.862 318.04C119.512 318.04 121.672 318.01 123.672 317.68L123.612 317.07C122.792 317.18 121.922 317.24 121.072 317.28V316.34ZM124.182 310.77V319.74H125.002V310.77H124.182ZM131.591 316.07V316.68H133.411V317.6H134.231V310.77H133.411V316.07H131.591ZM129.761 311.74C130.611 311.74 131.191 312.12 131.191 312.69C131.191 313.27 130.611 313.65 129.761 313.65C128.911 313.65 128.331 313.27 128.331 312.69C128.331 312.12 128.911 311.74 129.761 311.74ZM129.761 314.26C131.071 314.26 131.971 313.65 131.971 312.69C131.971 311.75 131.071 311.13 129.761 311.13C128.451 311.13 127.551 311.75 127.551 312.69C127.551 313.65 128.451 314.26 129.761 314.26ZM129.441 317.28H130.261V315.51C131.071 315.46 131.901 315.37 132.691 315.25L132.621 314.66C130.721 314.9 128.501 314.92 126.841 314.92L126.951 315.6C127.691 315.6 128.551 315.59 129.441 315.55V317.28ZM128.941 318.87V316.93H128.121V319.54H134.461V318.87H128.941ZM136.571 311.73V312.41H139.861C139.671 314.53 138.441 316.25 136.151 317.4L136.601 318.04C139.501 316.59 140.671 314.28 140.671 311.73H136.571ZM144.431 314.41H142.991V310.77H142.171V319.74H142.991V315.09H144.431V314.41ZM151.83 310.78V315.59H152.65V310.78H151.83ZM146.87 316.03V319.62H152.65V316.03H151.84V317.13H147.68V316.03H146.87ZM147.68 317.77H151.84V318.96H147.68V317.77ZM147.83 311.2C146.48 311.2 145.5 312.04 145.5 313.26C145.5 314.5 146.48 315.33 147.83 315.33C149.19 315.33 150.18 314.5 150.18 313.26C150.18 312.04 149.19 311.2 147.83 311.2ZM147.83 311.88C148.74 311.88 149.38 312.45 149.38 313.26C149.38 314.08 148.74 314.65 147.83 314.65C146.94 314.65 146.3 314.08 146.3 313.26C146.3 312.45 146.94 311.88 147.83 311.88ZM165.089 315.21H163.759C164.009 313.92 164.009 312.97 164.009 312.13V311.35H157.989V312.01H163.209V312.13C163.209 312.97 163.209 313.92 162.929 315.21H156.979V315.88H160.599V319.75H161.429V315.88H165.089V315.21ZM171.209 313.16V313.83H172.719V315.04H171.209V315.71H172.719V317.61H173.549V310.78H172.719V313.16H171.209ZM171.209 311.87H169.149V310.76H168.329V311.87H166.189V312.53H171.209V311.87ZM167.479 314.73C167.479 314.1 167.989 313.67 168.729 313.67C169.469 313.67 169.979 314.1 169.979 314.73C169.979 315.37 169.469 315.81 168.729 315.81C167.989 315.81 167.479 315.37 167.479 314.73ZM170.759 314.73C170.759 313.71 169.919 313.03 168.729 313.03C167.539 313.03 166.699 313.71 166.699 314.73C166.699 315.76 167.539 316.45 168.729 316.45C169.919 316.45 170.759 315.76 170.759 314.73ZM168.609 318.87V317.03H167.789V319.54H173.759V318.87H168.609Z" fill="black"/>
<rect x="167.824" y="348.124" width="18" height="70.7284" rx="5" transform="rotate(-90.1738 167.824 348.124)" fill="black"/>
<path d="M160.001 339.193L168.251 335.73L168.25 342.659L160.001 339.193Z" fill="black"/>
<path d="M177.157 342.549L177.156 337.505L176.237 337.505L176.237 336.737L177.156 336.737L177.155 336.141C177.155 335.518 177.322 335.036 177.655 334.696C177.988 334.356 178.458 334.186 179.067 334.185C179.296 334.185 179.524 334.216 179.749 334.277L179.696 335.082C179.527 335.05 179.348 335.034 179.159 335.034C178.836 335.034 178.588 335.129 178.412 335.319C178.237 335.505 178.149 335.774 178.149 336.125L178.149 336.737L179.39 336.737L179.39 337.505L178.149 337.505L178.15 342.548L177.157 342.549ZM182.775 342.655C181.987 342.655 181.346 342.397 180.852 341.882C180.358 341.363 180.11 340.67 180.11 339.803L180.11 339.621C180.11 339.044 180.219 338.53 180.438 338.079C180.659 337.624 180.967 337.27 181.361 337.016C181.759 336.758 182.188 336.629 182.65 336.629C183.406 336.629 183.993 336.877 184.412 337.375C184.831 337.873 185.041 338.585 185.041 339.513L185.041 339.926L181.104 339.927C181.118 340.5 181.285 340.963 181.604 341.318C181.926 341.669 182.334 341.844 182.828 341.844C183.179 341.844 183.476 341.772 183.72 341.629C183.963 341.486 184.176 341.296 184.359 341.06L184.966 341.532C184.479 342.281 183.749 342.655 182.775 342.655ZM182.65 337.445C182.249 337.445 181.913 337.592 181.641 337.886C181.369 338.176 181.2 338.584 181.136 339.11L184.047 339.11L184.047 339.035C184.018 338.53 183.882 338.14 183.639 337.864C183.395 337.585 183.066 337.445 182.65 337.445ZM189.784 342.546C189.727 342.432 189.68 342.228 189.644 341.934C189.182 342.414 188.631 342.654 187.99 342.654C187.417 342.654 186.946 342.493 186.577 342.171C186.212 341.845 186.029 341.433 186.029 340.936C186.029 340.331 186.258 339.861 186.717 339.528C187.178 339.192 187.827 339.023 188.661 339.023L189.628 339.023L189.628 338.566C189.627 338.219 189.524 337.943 189.316 337.739C189.108 337.532 188.802 337.428 188.397 337.428C188.043 337.428 187.746 337.518 187.506 337.697C187.266 337.876 187.146 338.092 187.146 338.347L186.147 338.347C186.147 338.057 186.249 337.777 186.453 337.509C186.661 337.237 186.94 337.022 187.291 336.864C187.645 336.707 188.034 336.628 188.456 336.628C189.126 336.627 189.651 336.796 190.03 337.132C190.41 337.465 190.607 337.925 190.621 338.512L190.622 341.187C190.622 341.721 190.69 342.145 190.826 342.46L190.826 342.546L189.784 342.546ZM188.135 341.789C188.446 341.789 188.742 341.709 189.021 341.547C189.3 341.386 189.503 341.177 189.628 340.919L189.628 339.727L188.849 339.727C187.632 339.727 187.023 340.083 187.023 340.796C187.023 341.107 187.127 341.351 187.335 341.526C187.542 341.702 187.809 341.789 188.135 341.789ZM193.526 335.327L193.527 336.734L194.612 336.734L194.612 337.502L193.527 337.502L193.527 341.106C193.527 341.339 193.576 341.514 193.673 341.633C193.769 341.747 193.934 341.804 194.167 341.804C194.281 341.804 194.439 341.783 194.639 341.74L194.64 342.545C194.378 342.617 194.124 342.653 193.877 342.653C193.433 342.653 193.098 342.519 192.872 342.25C192.647 341.982 192.534 341.601 192.534 341.106L192.533 337.502L191.475 337.503L191.475 336.734L192.533 336.734L192.533 335.327L193.526 335.327ZM195.977 343.217L195.123 343.217L198.387 334.724L199.236 334.724L195.977 343.217ZM203.695 341.002C203.695 340.734 203.593 340.526 203.389 340.379C203.188 340.229 202.835 340.1 202.33 339.993C201.829 339.885 201.43 339.757 201.133 339.606C200.839 339.456 200.621 339.277 200.477 339.069C200.338 338.862 200.268 338.615 200.268 338.328C200.268 337.852 200.468 337.449 200.869 337.12C201.274 336.79 201.789 336.625 202.416 336.625C203.075 336.625 203.608 336.795 204.016 337.135C204.428 337.475 204.634 337.91 204.634 338.44L203.635 338.44C203.635 338.168 203.519 337.934 203.286 337.737C203.057 337.54 202.767 337.441 202.416 337.441C202.054 337.442 201.771 337.52 201.567 337.678C201.363 337.836 201.261 338.041 201.261 338.296C201.261 338.536 201.356 338.716 201.546 338.838C201.736 338.96 202.078 339.076 202.572 339.187C203.07 339.298 203.473 339.43 203.781 339.584C204.089 339.738 204.316 339.924 204.463 340.143C204.613 340.358 204.688 340.621 204.689 340.932C204.689 341.451 204.481 341.869 204.066 342.184C203.65 342.495 203.112 342.651 202.449 342.651C201.984 342.652 201.572 342.569 201.214 342.405C200.856 342.24 200.574 342.011 200.37 341.717C200.17 341.42 200.069 341.1 200.069 340.756L201.063 340.756C201.081 341.089 201.214 341.354 201.461 341.551C201.711 341.744 202.041 341.84 202.449 341.84C202.825 341.84 203.126 341.765 203.351 341.615C203.58 341.461 203.695 341.257 203.695 341.002ZM207.063 342.543L206.069 342.543L206.068 336.732L207.062 336.732L207.063 342.543ZM205.987 335.19C205.987 335.029 206.036 334.893 206.132 334.782C206.232 334.671 206.379 334.616 206.573 334.616C206.766 334.616 206.913 334.671 207.013 334.782C207.113 334.893 207.164 335.029 207.164 335.19C207.164 335.351 207.113 335.486 207.013 335.593C206.913 335.7 206.766 335.754 206.573 335.754C206.379 335.754 206.233 335.701 206.132 335.593C206.036 335.486 205.987 335.351 205.987 335.19ZM208.421 339.589C208.421 338.683 208.63 337.963 209.049 337.43C209.468 336.892 210.023 336.624 210.714 336.624C211.423 336.623 211.976 336.874 212.374 337.375L212.422 336.731L213.33 336.731L213.331 342.402C213.331 343.154 213.107 343.747 212.66 344.18C212.216 344.614 211.618 344.83 210.866 344.831C210.447 344.831 210.037 344.741 209.636 344.562C209.235 344.383 208.929 344.138 208.717 343.827L209.233 343.23C209.659 343.757 210.18 344.02 210.796 344.02C211.279 344.019 211.655 343.883 211.924 343.611C212.196 343.339 212.332 342.956 212.332 342.462L212.332 341.962C211.934 342.421 211.392 342.65 210.704 342.65C210.024 342.65 209.473 342.376 209.05 341.828C208.631 341.281 208.421 340.534 208.421 339.589ZM209.42 339.701C209.42 340.357 209.555 340.872 209.823 341.248C210.092 341.621 210.468 341.807 210.951 341.807C211.578 341.807 212.038 341.522 212.332 340.952L212.331 338.299C212.027 337.744 211.57 337.467 210.961 337.467C210.478 337.467 210.1 337.655 209.828 338.031C209.556 338.407 209.42 338.964 209.42 339.701ZM215.774 336.73L215.806 337.461C216.25 336.902 216.83 336.622 217.546 336.622C218.774 336.622 219.394 337.315 219.405 338.701L219.406 342.541L218.412 342.541L218.411 338.695C218.408 338.276 218.311 337.967 218.121 337.766C217.935 337.566 217.643 337.466 217.246 337.466C216.923 337.466 216.64 337.552 216.397 337.724C216.153 337.896 215.964 338.121 215.828 338.4L215.828 342.542L214.835 342.542L214.834 336.73L215.774 336.73ZM224.492 341.965C224.105 342.42 223.538 342.648 222.789 342.648C222.17 342.648 221.697 342.469 221.371 342.111C221.049 341.749 220.886 341.216 220.882 340.51L220.882 336.729L221.875 336.729L221.876 340.483C221.876 341.364 222.234 341.805 222.95 341.804C223.71 341.804 224.214 341.521 224.465 340.956L224.464 336.729L225.458 336.728L225.459 342.54L224.514 342.54L224.492 341.965ZM231.882 339.697C231.882 340.582 231.68 341.294 231.276 341.835C230.871 342.376 230.323 342.646 229.632 342.647C228.927 342.647 228.372 342.423 227.967 341.975L227.968 344.774L226.974 344.774L226.972 336.728L227.88 336.728L227.929 337.372C228.333 336.871 228.895 336.62 229.615 336.62C230.313 336.62 230.865 336.883 231.269 337.409C231.678 337.936 231.882 338.668 231.882 339.606L231.882 339.697ZM230.888 339.585C230.888 338.93 230.749 338.412 230.469 338.033C230.19 337.653 229.807 337.463 229.32 337.463C228.718 337.464 228.267 337.73 227.966 338.264L227.967 341.041C228.264 341.571 228.719 341.836 229.331 341.836C229.808 341.835 230.185 341.647 230.464 341.271C230.747 340.892 230.889 340.33 230.888 339.585Z" fill="white"/>
</svg>
