<svg width="1152" height="587" viewBox="0 0 1152 587" fill="none" xmlns="http://www.w3.org/2000/svg">
<path d="M0 0H1152V587H0V0Z" fill="white" fill-opacity="0.01"/>
<path d="M133.466 307H128.808V306.351L131.269 303.616C131.633 303.203 131.884 302.868 132.021 302.61C132.16 302.35 132.23 302.081 132.23 301.805C132.23 301.434 132.118 301.129 131.894 300.892C131.669 300.654 131.369 300.535 130.995 300.535C130.546 300.535 130.196 300.664 129.945 300.921C129.698 301.175 129.574 301.53 129.574 301.985H128.671C128.671 301.331 128.881 300.802 129.301 300.398C129.724 299.995 130.289 299.793 130.995 299.793C131.656 299.793 132.178 299.967 132.562 300.315C132.947 300.66 133.139 301.121 133.139 301.697C133.139 302.397 132.693 303.23 131.801 304.197L129.896 306.263H133.466V307ZM136.635 306.36C136.957 306.36 137.239 306.263 137.479 306.067C137.72 305.872 137.854 305.628 137.88 305.335H138.734C138.718 305.638 138.614 305.926 138.422 306.199C138.23 306.473 137.973 306.691 137.65 306.854C137.331 307.016 136.993 307.098 136.635 307.098C135.915 307.098 135.342 306.858 134.916 306.38C134.493 305.898 134.281 305.241 134.281 304.407V304.256C134.281 303.742 134.376 303.284 134.564 302.884C134.753 302.483 135.023 302.173 135.375 301.951C135.73 301.73 136.148 301.619 136.63 301.619C137.222 301.619 137.714 301.797 138.104 302.151C138.498 302.506 138.708 302.967 138.734 303.533H137.88C137.854 303.191 137.724 302.911 137.489 302.693C137.258 302.472 136.972 302.361 136.63 302.361C136.171 302.361 135.814 302.527 135.561 302.859C135.31 303.188 135.185 303.665 135.185 304.29V304.461C135.185 305.07 135.31 305.538 135.561 305.867C135.811 306.196 136.169 306.36 136.635 306.36ZM143.012 307C142.96 306.896 142.917 306.71 142.885 306.443C142.465 306.88 141.964 307.098 141.381 307.098C140.86 307.098 140.432 306.951 140.097 306.658C139.765 306.362 139.599 305.988 139.599 305.535C139.599 304.985 139.807 304.559 140.224 304.256C140.644 303.95 141.233 303.797 141.991 303.797H142.87V303.382C142.87 303.066 142.776 302.815 142.587 302.63C142.398 302.441 142.12 302.347 141.752 302.347C141.43 302.347 141.16 302.428 140.941 302.591C140.723 302.754 140.614 302.951 140.614 303.182H139.706C139.706 302.918 139.799 302.664 139.984 302.42C140.173 302.173 140.427 301.977 140.746 301.834C141.068 301.691 141.422 301.619 141.806 301.619C142.414 301.619 142.891 301.772 143.236 302.078C143.581 302.381 143.76 302.799 143.773 303.333V305.765C143.773 306.25 143.835 306.635 143.959 306.922V307H143.012ZM141.513 306.312C141.796 306.312 142.064 306.238 142.318 306.092C142.572 305.945 142.756 305.755 142.87 305.521V304.437H142.162C141.055 304.437 140.502 304.76 140.502 305.408C140.502 305.691 140.596 305.913 140.785 306.072C140.974 306.232 141.216 306.312 141.513 306.312ZM149.755 307H145.097V306.351L147.558 303.616C147.922 303.203 148.173 302.868 148.31 302.61C148.45 302.35 148.52 302.081 148.52 301.805C148.52 301.434 148.407 301.129 148.183 300.892C147.958 300.654 147.659 300.535 147.284 300.535C146.835 300.535 146.485 300.664 146.234 300.921C145.987 301.175 145.863 301.53 145.863 301.985H144.96C144.96 301.331 145.17 300.802 145.59 300.398C146.013 299.995 146.578 299.793 147.284 299.793C147.945 299.793 148.467 299.967 148.852 300.315C149.236 300.66 149.428 301.121 149.428 301.697C149.428 302.397 148.982 303.23 148.09 304.197L146.186 306.263H149.755V307ZM154.257 299.886V300.652H154.091C153.388 300.665 152.828 300.874 152.411 301.277C151.994 301.681 151.754 302.249 151.688 302.981C152.063 302.552 152.574 302.337 153.222 302.337C153.84 302.337 154.333 302.555 154.701 302.991C155.072 303.427 155.258 303.991 155.258 304.681C155.258 305.413 155.058 305.999 154.657 306.438C154.26 306.878 153.726 307.098 153.056 307.098C152.375 307.098 151.824 306.837 151.4 306.316C150.977 305.792 150.766 305.118 150.766 304.295V303.948C150.766 302.64 151.044 301.64 151.601 300.95C152.16 300.257 152.992 299.902 154.096 299.886H154.257ZM153.07 303.089C152.761 303.089 152.476 303.182 152.216 303.367C151.955 303.553 151.775 303.785 151.674 304.065V304.397C151.674 304.983 151.806 305.455 152.069 305.813C152.333 306.172 152.662 306.351 153.056 306.351C153.463 306.351 153.782 306.201 154.013 305.901C154.247 305.602 154.364 305.21 154.364 304.725C154.364 304.236 154.245 303.842 154.008 303.543C153.773 303.24 153.461 303.089 153.07 303.089ZM160.141 304.612H161.127V305.35H160.141V307H159.232V305.35H155.995V304.817L159.179 299.891H160.141V304.612ZM157.021 304.612H159.232V301.126L159.125 301.321L157.021 304.612ZM163.017 307H162.113V301.717H163.017V307ZM162.04 300.315C162.04 300.169 162.084 300.045 162.172 299.944C162.263 299.843 162.396 299.793 162.572 299.793C162.748 299.793 162.882 299.843 162.973 299.944C163.064 300.045 163.109 300.169 163.109 300.315C163.109 300.462 163.064 300.584 162.973 300.682C162.882 300.779 162.748 300.828 162.572 300.828C162.396 300.828 162.263 300.779 162.172 300.682C162.084 300.584 162.04 300.462 162.04 300.315ZM123.382 311.87H121.072V310.77H120.252V311.87H117.932V312.53H123.382V311.87ZM119.282 314.7C119.282 314.07 119.842 313.67 120.662 313.67C121.472 313.67 122.032 314.07 122.032 314.7C122.032 315.32 121.472 315.72 120.662 315.72C119.842 315.72 119.282 315.32 119.282 314.7ZM121.072 316.34C122.132 316.21 122.812 315.59 122.812 314.7C122.812 313.69 121.942 313.04 120.662 313.04C119.382 313.04 118.502 313.69 118.502 314.7C118.502 315.6 119.192 316.22 120.252 316.35V317.31C119.362 317.34 118.502 317.35 117.742 317.35L117.862 318.04C119.512 318.04 121.672 318.01 123.672 317.68L123.612 317.07C122.792 317.18 121.922 317.24 121.072 317.28V316.34ZM124.182 310.77V319.74H125.002V310.77H124.182ZM131.591 316.07V316.68H133.411V317.6H134.231V310.77H133.411V316.07H131.591ZM129.761 311.74C130.611 311.74 131.191 312.12 131.191 312.69C131.191 313.27 130.611 313.65 129.761 313.65C128.911 313.65 128.331 313.27 128.331 312.69C128.331 312.12 128.911 311.74 129.761 311.74ZM129.761 314.26C131.071 314.26 131.971 313.65 131.971 312.69C131.971 311.75 131.071 311.13 129.761 311.13C128.451 311.13 127.551 311.75 127.551 312.69C127.551 313.65 128.451 314.26 129.761 314.26ZM129.441 317.28H130.261V315.51C131.071 315.46 131.901 315.37 132.691 315.25L132.621 314.66C130.721 314.9 128.501 314.92 126.841 314.92L126.951 315.6C127.691 315.6 128.551 315.59 129.441 315.55V317.28ZM128.941 318.87V316.93H128.121V319.54H134.461V318.87H128.941ZM136.571 311.73V312.41H139.861C139.671 314.53 138.441 316.25 136.151 317.4L136.601 318.04C139.501 316.59 140.671 314.28 140.671 311.73H136.571ZM144.431 314.41H142.991V310.77H142.171V319.74H142.991V315.09H144.431V314.41ZM151.83 310.78V315.59H152.65V310.78H151.83ZM146.87 316.03V319.62H152.65V316.03H151.84V317.13H147.68V316.03H146.87ZM147.68 317.77H151.84V318.96H147.68V317.77ZM147.83 311.2C146.48 311.2 145.5 312.04 145.5 313.26C145.5 314.5 146.48 315.33 147.83 315.33C149.19 315.33 150.18 314.5 150.18 313.26C150.18 312.04 149.19 311.2 147.83 311.2ZM147.83 311.88C148.74 311.88 149.38 312.45 149.38 313.26C149.38 314.08 148.74 314.65 147.83 314.65C146.94 314.65 146.3 314.08 146.3 313.26C146.3 312.45 146.94 311.88 147.83 311.88ZM165.089 315.21H163.759C164.009 313.92 164.009 312.97 164.009 312.13V311.35H157.989V312.01H163.209V312.13C163.209 312.97 163.209 313.92 162.929 315.21H156.979V315.88H160.599V319.75H161.429V315.88H165.089V315.21ZM171.209 313.16V313.83H172.719V315.04H171.209V315.71H172.719V317.61H173.549V310.78H172.719V313.16H171.209ZM171.209 311.87H169.149V310.76H168.329V311.87H166.189V312.53H171.209V311.87ZM167.479 314.73C167.479 314.1 167.989 313.67 168.729 313.67C169.469 313.67 169.979 314.1 169.979 314.73C169.979 315.37 169.469 315.81 168.729 315.81C167.989 315.81 167.479 315.37 167.479 314.73ZM170.759 314.73C170.759 313.71 169.919 313.03 168.729 313.03C167.539 313.03 166.699 313.71 166.699 314.73C166.699 315.76 167.539 316.45 168.729 316.45C169.919 316.45 170.759 315.76 170.759 314.73ZM168.609 318.87V317.03H167.789V319.54H173.759V318.87H168.609Z" fill="black"/>
<path d="M85.1863 359C83.5646 352.553 91.8523 338.272 137 339.029" stroke="#4000C7"/>
<rect x="115.824" y="100.124" width="18" height="41" rx="5" transform="rotate(-90.1738 115.824 100.124)" fill="black"/>
<rect x="115.824" y="221.124" width="18" height="41" rx="5" transform="rotate(-90.1738 115.824 221.124)" fill="black"/>
<path d="M108.001 91.1934L116.251 87.7304L116.25 94.6586L108.001 91.1934Z" fill="black"/>
<path d="M108.001 212.193L116.251 208.73L116.25 215.659L108.001 212.193Z" fill="black"/>
<path d="M108.001 366.193L116.251 362.73L116.25 369.659L108.001 366.193Z" fill="black"/>
<path d="M125.601 88.737L125.628 89.3815C126.054 88.8801 126.629 88.6294 127.352 88.6293C128.165 88.6291 128.718 88.9405 129.012 89.5635C129.205 89.2842 129.456 89.0586 129.764 88.8866C130.075 88.7147 130.442 88.6287 130.865 88.6286C132.14 88.6284 132.788 89.3032 132.81 90.6532L132.81 94.5472L131.817 94.5474L131.816 90.7124C131.816 90.2971 131.721 89.9874 131.531 89.7833C131.341 89.5756 131.023 89.4719 130.575 89.4719C130.206 89.472 129.9 89.5831 129.657 89.8051C129.413 90.0236 129.272 90.319 129.233 90.6914L129.233 94.5479L128.234 94.548L128.234 90.7399C128.233 89.8949 127.82 89.4724 126.993 89.4726C126.341 89.4727 125.895 89.7503 125.655 90.3053L125.656 94.5485L124.662 94.5487L124.661 88.7372L125.601 88.737ZM137.902 94.5463C137.845 94.4317 137.798 94.2276 137.762 93.934C137.301 94.4139 136.749 94.6539 136.108 94.654C135.535 94.6541 135.064 94.4931 134.696 94.1709C134.33 93.8451 134.148 93.4334 134.148 92.9356C134.147 92.3305 134.376 91.8614 134.835 91.5283C135.297 91.1916 135.945 91.0232 136.779 91.0231L137.746 91.0229L137.746 90.5663C137.746 90.219 137.642 89.9433 137.434 89.7393C137.226 89.5316 136.92 89.4278 136.516 89.4279C136.161 89.428 135.864 89.5175 135.624 89.6966C135.384 89.8757 135.264 90.0923 135.264 90.3466L134.265 90.3468C134.265 90.0567 134.367 89.7774 134.571 89.5088C134.779 89.2366 135.058 89.0217 135.409 88.8641C135.763 88.7065 136.152 88.6277 136.574 88.6276C137.244 88.6275 137.769 88.7957 138.148 89.1322C138.528 89.4651 138.725 89.9252 138.739 90.5125L138.74 93.1873C138.74 93.7208 138.808 94.1451 138.944 94.4602L138.944 94.5461L137.902 94.5463ZM136.253 93.7893C136.565 93.7892 136.86 93.7086 137.139 93.5474C137.419 93.3862 137.621 93.1767 137.746 92.9189L137.746 91.7265L136.967 91.7266C135.75 91.7269 135.141 92.0833 135.141 92.7958C135.141 93.1073 135.245 93.3508 135.453 93.5262C135.661 93.7016 135.927 93.7893 136.253 93.7893ZM141.377 94.5457L140.384 94.5458L140.383 88.7343L141.376 88.7341L141.377 94.5457ZM140.302 87.1928C140.302 87.0317 140.35 86.8956 140.447 86.7846C140.547 86.6736 140.694 86.6181 140.887 86.618C141.08 86.618 141.227 86.6735 141.328 86.7844C141.428 86.8954 141.478 87.0315 141.478 87.1926C141.478 87.3538 141.428 87.488 141.328 87.5955C141.227 87.7029 141.081 87.7567 140.887 87.7567C140.694 87.7567 140.547 87.703 140.447 87.5956C140.35 87.4882 140.302 87.354 140.302 87.1928ZM143.911 88.7337L143.944 89.4641C144.388 88.9055 144.968 88.6261 145.684 88.6259C146.912 88.6257 147.532 89.3185 147.543 90.7042L147.543 94.5445L146.55 94.5447L146.549 90.699C146.545 90.2801 146.449 89.9704 146.259 89.7699C146.073 89.5694 145.781 89.4692 145.383 89.4693C145.061 89.4693 144.778 89.5553 144.535 89.7272C144.291 89.8991 144.101 90.1248 143.965 90.4041L143.966 94.5452L142.973 94.5454L142.971 88.7339L143.911 88.7337Z" fill="white"/>
<path d="M125.601 209.737L125.628 210.382C126.054 209.88 126.629 209.629 127.352 209.629C128.165 209.629 128.718 209.941 129.012 210.564C129.205 210.284 129.456 210.059 129.764 209.887C130.075 209.715 130.442 209.629 130.865 209.629C132.14 209.628 132.788 210.303 132.81 211.653L132.81 215.547L131.817 215.547L131.816 211.712C131.816 211.297 131.721 210.987 131.531 210.783C131.341 210.576 131.023 210.472 130.575 210.472C130.206 210.472 129.9 210.583 129.657 210.805C129.413 211.024 129.272 211.319 129.233 211.691L129.233 215.548L128.234 215.548L128.234 211.74C128.233 210.895 127.82 210.472 126.993 210.473C126.341 210.473 125.895 210.75 125.655 211.305L125.656 215.549L124.662 215.549L124.661 209.737L125.601 209.737ZM137.902 215.546C137.845 215.432 137.798 215.228 137.762 214.934C137.301 215.414 136.749 215.654 136.108 215.654C135.535 215.654 135.064 215.493 134.696 215.171C134.33 214.845 134.148 214.433 134.148 213.936C134.147 213.331 134.376 212.861 134.835 212.528C135.297 212.192 135.945 212.023 136.779 212.023L137.746 212.023L137.746 211.566C137.746 211.219 137.642 210.943 137.434 210.739C137.226 210.532 136.92 210.428 136.516 210.428C136.161 210.428 135.864 210.518 135.624 210.697C135.384 210.876 135.264 211.092 135.264 211.347L134.265 211.347C134.265 211.057 134.367 210.777 134.571 210.509C134.779 210.237 135.058 210.022 135.409 209.864C135.763 209.707 136.152 209.628 136.574 209.628C137.244 209.627 137.769 209.796 138.148 210.132C138.528 210.465 138.725 210.925 138.739 211.512L138.74 214.187C138.74 214.721 138.808 215.145 138.944 215.46L138.944 215.546L137.902 215.546ZM136.253 214.789C136.565 214.789 136.86 214.709 137.139 214.547C137.419 214.386 137.621 214.177 137.746 213.919L137.746 212.726L136.967 212.727C135.75 212.727 135.141 213.083 135.141 213.796C135.141 214.107 135.245 214.351 135.453 214.526C135.661 214.702 135.927 214.789 136.253 214.789ZM141.377 215.546L140.384 215.546L140.383 209.734L141.376 209.734L141.377 215.546ZM140.302 208.193C140.302 208.032 140.35 207.896 140.447 207.785C140.547 207.674 140.694 207.618 140.887 207.618C141.08 207.618 141.227 207.673 141.328 207.784C141.428 207.895 141.478 208.031 141.478 208.193C141.478 208.354 141.428 208.488 141.328 208.595C141.227 208.703 141.081 208.757 140.887 208.757C140.694 208.757 140.547 208.703 140.447 208.596C140.35 208.488 140.302 208.354 140.302 208.193ZM143.911 209.734L143.944 210.464C144.388 209.905 144.968 209.626 145.684 209.626C146.912 209.626 147.532 210.318 147.543 211.704L147.543 215.545L146.55 215.545L146.549 211.699C146.545 211.28 146.449 210.97 146.259 210.77C146.073 210.569 145.781 210.469 145.383 210.469C145.061 210.469 144.778 210.555 144.535 210.727C144.291 210.899 144.101 211.125 143.965 211.404L143.966 215.545L142.973 215.545L142.971 209.734L143.911 209.734Z" fill="white"/>
<circle cx="84.5" cy="366.5" r="9.5" fill="#4000C7"/>
<circle cx="84.5" cy="212.5" r="9.5" fill="#4000C7"/>
<circle cx="84.5" cy="91.5" r="9.5" fill="#4000C7"/>
<circle cx="145.5" cy="339.5" r="9.5" fill="#4000C7"/>
<rect x="115.824" y="375.124" width="18" height="41" rx="5" transform="rotate(-90.1738 115.824 375.124)" fill="black"/>
<path d="M125.601 363.737L125.628 364.382C126.054 363.88 126.629 363.629 127.352 363.629C128.165 363.629 128.718 363.941 129.012 364.564C129.205 364.284 129.456 364.059 129.764 363.887C130.075 363.715 130.442 363.629 130.865 363.629C132.14 363.628 132.788 364.303 132.81 365.653L132.81 369.547L131.817 369.547L131.816 365.712C131.816 365.297 131.721 364.987 131.531 364.783C131.341 364.576 131.023 364.472 130.575 364.472C130.206 364.472 129.9 364.583 129.657 364.805C129.413 365.024 129.272 365.319 129.233 365.691L129.233 369.548L128.234 369.548L128.234 365.74C128.233 364.895 127.82 364.472 126.993 364.473C126.341 364.473 125.895 364.75 125.655 365.305L125.656 369.549L124.662 369.549L124.661 363.737L125.601 363.737ZM137.902 369.546C137.845 369.432 137.798 369.228 137.762 368.934C137.301 369.414 136.749 369.654 136.108 369.654C135.535 369.654 135.064 369.493 134.696 369.171C134.33 368.845 134.148 368.433 134.148 367.936C134.147 367.331 134.376 366.861 134.835 366.528C135.297 366.192 135.945 366.023 136.779 366.023L137.746 366.023L137.746 365.566C137.746 365.219 137.642 364.943 137.434 364.739C137.226 364.532 136.92 364.428 136.516 364.428C136.161 364.428 135.864 364.518 135.624 364.697C135.384 364.876 135.264 365.092 135.264 365.347L134.265 365.347C134.265 365.057 134.367 364.777 134.571 364.509C134.779 364.237 135.058 364.022 135.409 363.864C135.763 363.707 136.152 363.628 136.574 363.628C137.244 363.627 137.769 363.796 138.148 364.132C138.528 364.465 138.725 364.925 138.739 365.512L138.74 368.187C138.74 368.721 138.808 369.145 138.944 369.46L138.944 369.546L137.902 369.546ZM136.253 368.789C136.565 368.789 136.86 368.709 137.139 368.547C137.419 368.386 137.621 368.177 137.746 367.919L137.746 366.726L136.967 366.727C135.75 366.727 135.141 367.083 135.141 367.796C135.141 368.107 135.245 368.351 135.453 368.526C135.661 368.702 135.927 368.789 136.253 368.789ZM141.377 369.546L140.384 369.546L140.383 363.734L141.376 363.734L141.377 369.546ZM140.302 362.193C140.302 362.032 140.35 361.896 140.447 361.785C140.547 361.674 140.694 361.618 140.887 361.618C141.08 361.618 141.227 361.673 141.328 361.784C141.428 361.895 141.478 362.031 141.478 362.193C141.478 362.354 141.428 362.488 141.328 362.595C141.227 362.703 141.081 362.757 140.887 362.757C140.694 362.757 140.547 362.703 140.447 362.596C140.35 362.488 140.302 362.354 140.302 362.193ZM143.911 363.734L143.944 364.464C144.388 363.905 144.968 363.626 145.684 363.626C146.912 363.626 147.532 364.318 147.543 365.704L147.543 369.545L146.55 369.545L146.549 365.699C146.545 365.28 146.449 364.97 146.259 364.77C146.073 364.569 145.781 364.469 145.383 364.469C145.061 364.469 144.778 364.555 144.535 364.727C144.291 364.899 144.101 365.125 143.965 365.404L143.966 369.545L142.973 369.545L142.971 363.734L143.911 363.734Z" fill="white"/>
</svg>
