<svg width="1152" height="587" viewBox="0 0 1152 587" fill="none" xmlns="http://www.w3.org/2000/svg">
<path d="M0 0H1152V587H0V0Z" fill="white" fill-opacity="0.01"/>
<path d="M339.665 551H338.762V545.717H339.665V551ZM338.688 544.315C338.688 544.169 338.732 544.045 338.82 543.944C338.911 543.843 339.045 543.793 339.221 543.793C339.396 543.793 339.53 543.843 339.621 543.944C339.712 544.045 339.758 544.169 339.758 544.315C339.758 544.462 339.712 544.584 339.621 544.682C339.53 544.779 339.396 544.828 339.221 544.828C339.045 544.828 338.911 544.779 338.82 544.682C338.732 544.584 338.688 544.462 338.688 544.315ZM341.97 545.717L341.999 546.381C342.403 545.873 342.93 545.619 343.581 545.619C344.698 545.619 345.261 546.249 345.271 547.509V551H344.367V547.504C344.364 547.123 344.276 546.841 344.104 546.659C343.934 546.477 343.669 546.386 343.308 546.386C343.015 546.386 342.757 546.464 342.536 546.62C342.315 546.776 342.142 546.981 342.019 547.235V551H341.115V545.717H341.97ZM346.413 548.314C346.413 547.504 346.605 546.853 346.989 546.361C347.373 545.867 347.876 545.619 348.498 545.619C349.117 545.619 349.606 545.831 349.968 546.254V543.5H350.871V551H350.041L349.997 550.434C349.636 550.876 349.133 551.098 348.488 551.098C347.876 551.098 347.377 550.847 346.989 550.346C346.605 549.844 346.413 549.19 346.413 548.383V548.314ZM347.316 548.417C347.316 549.016 347.44 549.485 347.688 549.823C347.935 550.162 348.277 550.331 348.713 550.331C349.286 550.331 349.704 550.074 349.968 549.56V547.133C349.698 546.635 349.283 546.386 348.723 546.386C348.28 546.386 347.935 546.557 347.688 546.898C347.44 547.24 347.316 547.746 347.316 548.417ZM354.47 551.098C353.754 551.098 353.171 550.863 352.722 550.395C352.272 549.923 352.048 549.293 352.048 548.505V548.339C352.048 547.815 352.147 547.348 352.346 546.938C352.548 546.524 352.827 546.202 353.186 545.971C353.547 545.736 353.938 545.619 354.357 545.619C355.044 545.619 355.578 545.845 355.959 546.298C356.34 546.75 356.53 547.398 356.53 548.241V548.617H352.951C352.964 549.138 353.116 549.56 353.405 549.882C353.698 550.201 354.069 550.36 354.519 550.36C354.838 550.36 355.108 550.295 355.329 550.165C355.55 550.035 355.744 549.862 355.91 549.647L356.462 550.077C356.019 550.757 355.355 551.098 354.47 551.098ZM354.357 546.361C353.993 546.361 353.687 546.495 353.439 546.762C353.192 547.025 353.039 547.396 352.98 547.875H355.627V547.807C355.601 547.348 355.477 546.993 355.256 546.742C355.035 546.488 354.735 546.361 354.357 546.361ZM359.353 547.646L360.524 545.717H361.579L359.851 548.329L361.633 551H360.588L359.367 549.022L358.146 551H357.097L358.879 548.329L357.15 545.717H358.195L359.353 547.646ZM362.561 550.526C362.561 550.37 362.606 550.24 362.697 550.136C362.792 550.032 362.932 549.979 363.117 549.979C363.303 549.979 363.443 550.032 363.537 550.136C363.635 550.24 363.684 550.37 363.684 550.526C363.684 550.676 363.635 550.801 363.537 550.902C363.443 551.003 363.303 551.054 363.117 551.054C362.932 551.054 362.792 551.003 362.697 550.902C362.606 550.801 362.561 550.676 362.561 550.526ZM366.11 545.717V551.61C366.11 552.626 365.65 553.134 364.729 553.134C364.53 553.134 364.346 553.104 364.177 553.046V552.323C364.281 552.349 364.418 552.362 364.587 552.362C364.789 552.362 364.942 552.307 365.046 552.196C365.153 552.089 365.207 551.9 365.207 551.63V545.717H366.11ZM365.114 544.315C365.114 544.172 365.158 544.05 365.246 543.949C365.337 543.845 365.469 543.793 365.642 543.793C365.817 543.793 365.951 543.843 366.042 543.944C366.133 544.045 366.179 544.169 366.179 544.315C366.179 544.462 366.133 544.584 366.042 544.682C365.951 544.779 365.817 544.828 365.642 544.828C365.466 544.828 365.334 544.779 365.246 544.682C365.158 544.584 365.114 544.462 365.114 544.315ZM370.646 549.599C370.646 549.354 370.554 549.166 370.368 549.032C370.186 548.896 369.865 548.778 369.406 548.681C368.951 548.583 368.588 548.466 368.317 548.329C368.05 548.192 367.852 548.03 367.722 547.841C367.595 547.652 367.531 547.427 367.531 547.167C367.531 546.734 367.714 546.368 368.078 546.068C368.446 545.769 368.915 545.619 369.484 545.619C370.083 545.619 370.568 545.774 370.939 546.083C371.314 546.392 371.501 546.788 371.501 547.27H370.593C370.593 547.022 370.487 546.809 370.275 546.63C370.067 546.451 369.803 546.361 369.484 546.361C369.156 546.361 368.898 546.433 368.713 546.576C368.527 546.719 368.435 546.907 368.435 547.138C368.435 547.356 368.521 547.52 368.693 547.631C368.866 547.742 369.177 547.847 369.626 547.948C370.078 548.049 370.445 548.17 370.725 548.31C371.005 548.45 371.211 548.619 371.345 548.817C371.481 549.013 371.55 549.252 371.55 549.535C371.55 550.007 371.361 550.386 370.983 550.673C370.606 550.956 370.116 551.098 369.514 551.098C369.09 551.098 368.716 551.023 368.391 550.873C368.065 550.723 367.81 550.515 367.624 550.248C367.442 549.978 367.351 549.687 367.351 549.374H368.254C368.27 549.677 368.391 549.918 368.615 550.097C368.843 550.272 369.143 550.36 369.514 550.36C369.855 550.36 370.129 550.292 370.334 550.155C370.542 550.015 370.646 549.83 370.646 549.599Z" fill="#4000C7" fill-opacity="0.5"/>
<path d="M364.746 521.016L358.938 515.252C358.776 515.091 358.558 515 358.328 515H346.864C346.386 515 346 515.383 346 515.857V538.143C346 538.617 346.386 539 346.864 539H364.136C364.614 539 365 538.617 365 538.143V521.624C365 521.396 364.908 521.177 364.746 521.016ZM363.008 522.018H357.929V516.977L363.008 522.018ZM363.057 537.071H347.943V516.929H356.094V522.714C356.094 523.013 356.213 523.299 356.426 523.51C356.638 523.721 356.927 523.839 357.227 523.839H363.057V537.071ZM355.284 529.839H350.318C350.199 529.839 350.102 529.936 350.102 530.054V531.339C350.102 531.457 350.199 531.554 350.318 531.554H355.284C355.403 531.554 355.5 531.457 355.5 531.339V530.054C355.5 529.936 355.403 529.839 355.284 529.839ZM350.102 526.411V527.696C350.102 527.814 350.199 527.911 350.318 527.911H360.682C360.801 527.911 360.898 527.814 360.898 527.696V526.411C360.898 526.293 360.801 526.196 360.682 526.196H350.318C350.199 526.196 350.102 526.293 350.102 526.411Z" fill="#4000C7" fill-opacity="0.5"/>
<line x1="355.5" y1="332" x2="355.5" y2="515" stroke="#4000C7"/>
<circle cx="355.5" cy="322.5" r="9" fill="white" stroke="#4000C7" stroke-dasharray="2 2"/>
<rect x="371.031" y="342.209" width="18" height="41" rx="5" transform="rotate(-64.2277 371.031 342.209)" fill="black"/>
<path d="M367.739 330.627L376.675 331.094L373.662 337.333L367.739 330.627Z" fill="black"/>
<path d="M388.334 336.418L387.722 337.685L388.699 338.157L388.366 338.848L387.388 338.377L385.821 341.622C385.72 341.832 385.688 342.011 385.723 342.159C385.76 342.304 385.884 342.428 386.093 342.529C386.197 342.579 386.348 342.628 386.547 342.676L386.197 343.402C385.93 343.353 385.686 343.274 385.463 343.167C385.063 342.974 384.82 342.707 384.734 342.367C384.648 342.028 384.712 341.635 384.927 341.19L386.494 337.945L385.541 337.485L385.875 336.793L386.828 337.253L387.439 335.986L388.334 336.418ZM389.347 345.042C388.638 344.7 388.173 344.189 387.952 343.51C387.733 342.827 387.811 342.096 388.188 341.316L388.268 341.151C388.518 340.632 388.84 340.217 389.233 339.905C389.631 339.592 390.062 339.407 390.527 339.349C390.997 339.29 391.44 339.361 391.856 339.562C392.537 339.89 392.957 340.37 393.118 341C393.279 341.63 393.158 342.363 392.755 343.198L392.575 343.571L389.029 341.859C388.793 342.381 388.741 342.871 388.874 343.329C389.012 343.785 389.303 344.12 389.748 344.335C390.064 344.488 390.363 344.553 390.645 344.529C390.926 344.506 391.201 344.428 391.468 344.295L391.809 344.984C391.045 345.446 390.224 345.466 389.347 345.042ZM391.501 340.297C391.14 340.122 390.773 340.108 390.4 340.254C390.029 340.397 389.7 340.692 389.413 341.138L392.035 342.403L392.068 342.336C392.261 341.869 392.308 341.458 392.209 341.104C392.111 340.746 391.875 340.477 391.501 340.297ZM396.192 346.516C396.309 346.274 396.308 346.043 396.188 345.822C396.072 345.599 395.811 345.33 395.403 345.014C394.998 344.699 394.695 344.409 394.492 344.145C394.293 343.882 394.175 343.625 394.136 343.376C394.1 343.128 394.145 342.875 394.27 342.617C394.477 342.189 394.832 341.913 395.337 341.791C395.844 341.67 396.38 341.746 396.945 342.018C397.538 342.305 397.944 342.69 398.164 343.174C398.387 343.659 398.383 344.14 398.153 344.618L397.253 344.183C397.372 343.938 397.369 343.676 397.245 343.398C397.124 343.121 396.906 342.906 396.59 342.754C396.264 342.596 395.975 342.544 395.723 342.597C395.47 342.651 395.289 342.792 395.178 343.02C395.074 343.237 395.081 343.441 395.199 343.633C395.317 343.825 395.574 344.078 395.971 344.393C396.371 344.71 396.676 345.004 396.886 345.277C397.097 345.549 397.221 345.816 397.258 346.076C397.3 346.335 397.253 346.605 397.118 346.885C396.892 347.353 396.523 347.638 396.012 347.741C395.503 347.841 394.95 347.747 394.353 347.459C393.934 347.257 393.599 347.004 393.348 346.7C393.097 346.396 392.944 346.067 392.888 345.714C392.837 345.359 392.886 345.027 393.035 344.717L393.93 345.149C393.801 345.457 393.805 345.753 393.942 346.038C394.084 346.321 394.338 346.551 394.706 346.729C395.045 346.892 395.348 346.955 395.617 346.918C395.89 346.879 396.082 346.745 396.192 346.516ZM401.935 342.985L401.324 344.252L402.301 344.724L401.967 345.415L400.99 344.944L399.423 348.189C399.321 348.399 399.289 348.578 399.324 348.726C399.362 348.871 399.485 348.995 399.695 349.096C399.798 349.146 399.949 349.195 400.148 349.243L399.798 349.969C399.531 349.92 399.287 349.841 399.064 349.734C398.665 349.541 398.421 349.274 398.335 348.934C398.249 348.594 398.313 348.202 398.528 347.757L400.095 344.512L399.142 344.051L399.476 343.36L400.429 343.82L401.041 342.553L401.935 342.985Z" fill="white"/>
<circle cx="140.5" cy="362.5" r="9.5" fill="#4000C7"/>
<circle cx="220.5" cy="362.5" r="9.5" fill="#4000C7"/>
<circle cx="301.5" cy="362.5" r="9.5" fill="#4000C7"/>
<rect x="318.031" y="379.209" width="18" height="41" rx="5" transform="rotate(-64.2277 318.031 379.209)" fill="black" fill-opacity="0.5"/>
<path d="M314.739 367.627L323.456 367.988L320.443 374.227L314.739 367.627Z" fill="black" fill-opacity="0.5"/>
<path d="M331.791 373.219L331.535 373.811C332.137 373.545 332.764 373.569 333.415 373.884C334.147 374.237 334.51 374.758 334.503 375.447C334.799 375.28 335.122 375.185 335.475 375.165C335.83 375.145 336.198 375.227 336.578 375.411C337.726 375.965 338.016 376.855 337.449 378.08L335.756 381.587L334.861 381.155L336.528 377.701C336.709 377.327 336.758 377.007 336.676 376.741C336.595 376.471 336.353 376.239 335.95 376.044C335.618 375.884 335.294 375.851 334.978 375.945C334.664 376.036 334.408 376.24 334.211 376.559L332.534 380.031L331.635 379.597L333.29 376.168C333.658 375.407 333.469 374.846 332.724 374.487C332.137 374.203 331.615 374.259 331.158 374.655L329.313 378.476L328.418 378.044L330.945 372.811L331.791 373.219ZM340.341 383.801C340.339 383.672 340.386 383.468 340.481 383.188C339.857 383.42 339.256 383.396 338.679 383.117C338.163 382.868 337.809 382.518 337.617 382.068C337.43 381.616 337.444 381.165 337.661 380.717C337.924 380.172 338.334 379.849 338.892 379.749C339.454 379.647 340.111 379.777 340.862 380.14L341.733 380.56L341.931 380.149C342.082 379.836 342.108 379.543 342.01 379.268C341.913 378.991 341.683 378.765 341.319 378.589C340.999 378.434 340.693 378.386 340.399 378.443C340.105 378.5 339.903 378.643 339.792 378.872L338.893 378.437C339.019 378.176 339.232 377.969 339.533 377.816C339.838 377.661 340.183 377.589 340.567 377.6C340.955 377.612 341.339 377.71 341.72 377.894C342.323 378.185 342.722 378.564 342.917 379.032C343.114 379.497 343.092 379.997 342.849 380.532L341.686 382.941C341.454 383.422 341.331 383.833 341.317 384.176L341.279 384.254L340.341 383.801ZM339.185 382.402C339.466 382.537 339.767 382.593 340.088 382.569C340.41 382.546 340.683 382.445 340.908 382.267L341.427 381.194L340.725 380.855C339.629 380.326 338.926 380.382 338.616 381.023C338.481 381.304 338.468 381.568 338.579 381.817C338.69 382.065 338.892 382.26 339.185 382.402ZM343.47 385.312L342.576 384.88L345.102 379.646L345.997 380.078L343.47 385.312ZM345.7 378.223C345.77 378.078 345.873 377.976 346.008 377.918C346.147 377.862 346.303 377.876 346.477 377.96C346.651 378.044 346.759 378.158 346.801 378.301C346.843 378.445 346.829 378.589 346.759 378.734C346.689 378.879 346.586 378.979 346.449 379.032C346.312 379.085 346.156 379.069 345.982 378.985C345.808 378.901 345.699 378.789 345.655 378.649C345.615 378.51 345.63 378.368 345.7 378.223ZM348.28 381.18L347.992 381.852C348.634 381.542 349.278 381.543 349.923 381.854C351.029 382.388 351.286 383.282 350.693 384.534L349.023 387.993L348.128 387.56L349.8 384.097C349.979 383.718 350.027 383.398 349.943 383.134C349.863 382.873 349.643 382.656 349.285 382.483C348.995 382.343 348.703 382.297 348.409 382.346C348.115 382.395 347.846 382.516 347.602 382.708L345.802 386.437L344.907 386.005L347.434 380.772L348.28 381.18Z" fill="white"/>
<line x1="150" y1="362.5" x2="292" y2="362.5" stroke="#4000C7"/>
<line x1="308.7" y1="357.6" x2="348.7" y2="327.6" stroke="#4000C7"/>
</svg>
