<svg width="1152" height="587" viewBox="0 0 1152 587" fill="none" xmlns="http://www.w3.org/2000/svg">
<path d="M0 0H1152V587H0V0Z" fill="white" fill-opacity="0.01"/>
<path d="M133.466 307H128.808V306.351L131.269 303.616C131.633 303.203 131.884 302.868 132.021 302.61C132.16 302.35 132.23 302.081 132.23 301.805C132.23 301.434 132.118 301.129 131.894 300.892C131.669 300.654 131.369 300.535 130.995 300.535C130.546 300.535 130.196 300.664 129.945 300.921C129.698 301.175 129.574 301.53 129.574 301.985H128.671C128.671 301.331 128.881 300.802 129.301 300.398C129.724 299.995 130.289 299.793 130.995 299.793C131.656 299.793 132.178 299.967 132.562 300.315C132.947 300.66 133.139 301.121 133.139 301.697C133.139 302.397 132.693 303.23 131.801 304.197L129.896 306.263H133.466V307ZM136.635 306.36C136.957 306.36 137.239 306.263 137.479 306.067C137.72 305.872 137.854 305.628 137.88 305.335H138.734C138.718 305.638 138.614 305.926 138.422 306.199C138.23 306.473 137.973 306.691 137.65 306.854C137.331 307.016 136.993 307.098 136.635 307.098C135.915 307.098 135.342 306.858 134.916 306.38C134.493 305.898 134.281 305.241 134.281 304.407V304.256C134.281 303.742 134.376 303.284 134.564 302.884C134.753 302.483 135.023 302.173 135.375 301.951C135.73 301.73 136.148 301.619 136.63 301.619C137.222 301.619 137.714 301.797 138.104 302.151C138.498 302.506 138.708 302.967 138.734 303.533H137.88C137.854 303.191 137.724 302.911 137.489 302.693C137.258 302.472 136.972 302.361 136.63 302.361C136.171 302.361 135.814 302.527 135.561 302.859C135.31 303.188 135.185 303.665 135.185 304.29V304.461C135.185 305.07 135.31 305.538 135.561 305.867C135.811 306.196 136.169 306.36 136.635 306.36ZM143.012 307C142.96 306.896 142.917 306.71 142.885 306.443C142.465 306.88 141.964 307.098 141.381 307.098C140.86 307.098 140.432 306.951 140.097 306.658C139.765 306.362 139.599 305.988 139.599 305.535C139.599 304.985 139.807 304.559 140.224 304.256C140.644 303.95 141.233 303.797 141.991 303.797H142.87V303.382C142.87 303.066 142.776 302.815 142.587 302.63C142.398 302.441 142.12 302.347 141.752 302.347C141.43 302.347 141.16 302.428 140.941 302.591C140.723 302.754 140.614 302.951 140.614 303.182H139.706C139.706 302.918 139.799 302.664 139.984 302.42C140.173 302.173 140.427 301.977 140.746 301.834C141.068 301.691 141.422 301.619 141.806 301.619C142.414 301.619 142.891 301.772 143.236 302.078C143.581 302.381 143.76 302.799 143.773 303.333V305.765C143.773 306.25 143.835 306.635 143.959 306.922V307H143.012ZM141.513 306.312C141.796 306.312 142.064 306.238 142.318 306.092C142.572 305.945 142.756 305.755 142.87 305.521V304.437H142.162C141.055 304.437 140.502 304.76 140.502 305.408C140.502 305.691 140.596 305.913 140.785 306.072C140.974 306.232 141.216 306.312 141.513 306.312ZM149.755 307H145.097V306.351L147.558 303.616C147.922 303.203 148.173 302.868 148.31 302.61C148.45 302.35 148.52 302.081 148.52 301.805C148.52 301.434 148.407 301.129 148.183 300.892C147.958 300.654 147.659 300.535 147.284 300.535C146.835 300.535 146.485 300.664 146.234 300.921C145.987 301.175 145.863 301.53 145.863 301.985H144.96C144.96 301.331 145.17 300.802 145.59 300.398C146.013 299.995 146.578 299.793 147.284 299.793C147.945 299.793 148.467 299.967 148.852 300.315C149.236 300.66 149.428 301.121 149.428 301.697C149.428 302.397 148.982 303.23 148.09 304.197L146.186 306.263H149.755V307ZM154.257 299.886V300.652H154.091C153.388 300.665 152.828 300.874 152.411 301.277C151.994 301.681 151.754 302.249 151.688 302.981C152.063 302.552 152.574 302.337 153.222 302.337C153.84 302.337 154.333 302.555 154.701 302.991C155.072 303.427 155.258 303.991 155.258 304.681C155.258 305.413 155.058 305.999 154.657 306.438C154.26 306.878 153.726 307.098 153.056 307.098C152.375 307.098 151.824 306.837 151.4 306.316C150.977 305.792 150.766 305.118 150.766 304.295V303.948C150.766 302.64 151.044 301.64 151.601 300.95C152.16 300.257 152.992 299.902 154.096 299.886H154.257ZM153.07 303.089C152.761 303.089 152.476 303.182 152.216 303.367C151.955 303.553 151.775 303.785 151.674 304.065V304.397C151.674 304.983 151.806 305.455 152.069 305.813C152.333 306.172 152.662 306.351 153.056 306.351C153.463 306.351 153.782 306.201 154.013 305.901C154.247 305.602 154.364 305.21 154.364 304.725C154.364 304.236 154.245 303.842 154.008 303.543C153.773 303.24 153.461 303.089 153.07 303.089ZM160.141 304.612H161.127V305.35H160.141V307H159.232V305.35H155.995V304.817L159.179 299.891H160.141V304.612ZM157.021 304.612H159.232V301.126L159.125 301.321L157.021 304.612ZM163.017 307H162.113V301.717H163.017V307ZM162.04 300.315C162.04 300.169 162.084 300.045 162.172 299.944C162.263 299.843 162.396 299.793 162.572 299.793C162.748 299.793 162.882 299.843 162.973 299.944C163.064 300.045 163.109 300.169 163.109 300.315C163.109 300.462 163.064 300.584 162.973 300.682C162.882 300.779 162.748 300.828 162.572 300.828C162.396 300.828 162.263 300.779 162.172 300.682C162.084 300.584 162.04 300.462 162.04 300.315ZM123.382 311.87H121.072V310.77H120.252V311.87H117.932V312.53H123.382V311.87ZM119.282 314.7C119.282 314.07 119.842 313.67 120.662 313.67C121.472 313.67 122.032 314.07 122.032 314.7C122.032 315.32 121.472 315.72 120.662 315.72C119.842 315.72 119.282 315.32 119.282 314.7ZM121.072 316.34C122.132 316.21 122.812 315.59 122.812 314.7C122.812 313.69 121.942 313.04 120.662 313.04C119.382 313.04 118.502 313.69 118.502 314.7C118.502 315.6 119.192 316.22 120.252 316.35V317.31C119.362 317.34 118.502 317.35 117.742 317.35L117.862 318.04C119.512 318.04 121.672 318.01 123.672 317.68L123.612 317.07C122.792 317.18 121.922 317.24 121.072 317.28V316.34ZM124.182 310.77V319.74H125.002V310.77H124.182ZM131.591 316.07V316.68H133.411V317.6H134.231V310.77H133.411V316.07H131.591ZM129.761 311.74C130.611 311.74 131.191 312.12 131.191 312.69C131.191 313.27 130.611 313.65 129.761 313.65C128.911 313.65 128.331 313.27 128.331 312.69C128.331 312.12 128.911 311.74 129.761 311.74ZM129.761 314.26C131.071 314.26 131.971 313.65 131.971 312.69C131.971 311.75 131.071 311.13 129.761 311.13C128.451 311.13 127.551 311.75 127.551 312.69C127.551 313.65 128.451 314.26 129.761 314.26ZM129.441 317.28H130.261V315.51C131.071 315.46 131.901 315.37 132.691 315.25L132.621 314.66C130.721 314.9 128.501 314.92 126.841 314.92L126.951 315.6C127.691 315.6 128.551 315.59 129.441 315.55V317.28ZM128.941 318.87V316.93H128.121V319.54H134.461V318.87H128.941ZM136.571 311.73V312.41H139.861C139.671 314.53 138.441 316.25 136.151 317.4L136.601 318.04C139.501 316.59 140.671 314.28 140.671 311.73H136.571ZM144.431 314.41H142.991V310.77H142.171V319.74H142.991V315.09H144.431V314.41ZM151.83 310.78V315.59H152.65V310.78H151.83ZM146.87 316.03V319.62H152.65V316.03H151.84V317.13H147.68V316.03H146.87ZM147.68 317.77H151.84V318.96H147.68V317.77ZM147.83 311.2C146.48 311.2 145.5 312.04 145.5 313.26C145.5 314.5 146.48 315.33 147.83 315.33C149.19 315.33 150.18 314.5 150.18 313.26C150.18 312.04 149.19 311.2 147.83 311.2ZM147.83 311.88C148.74 311.88 149.38 312.45 149.38 313.26C149.38 314.08 148.74 314.65 147.83 314.65C146.94 314.65 146.3 314.08 146.3 313.26C146.3 312.45 146.94 311.88 147.83 311.88ZM165.089 315.21H163.759C164.009 313.92 164.009 312.97 164.009 312.13V311.35H157.989V312.01H163.209V312.13C163.209 312.97 163.209 313.92 162.929 315.21H156.979V315.88H160.599V319.75H161.429V315.88H165.089V315.21ZM171.209 313.16V313.83H172.719V315.04H171.209V315.71H172.719V317.61H173.549V310.78H172.719V313.16H171.209ZM171.209 311.87H169.149V310.76H168.329V311.87H166.189V312.53H171.209V311.87ZM167.479 314.73C167.479 314.1 167.989 313.67 168.729 313.67C169.469 313.67 169.979 314.1 169.979 314.73C169.979 315.37 169.469 315.81 168.729 315.81C167.989 315.81 167.479 315.37 167.479 314.73ZM170.759 314.73C170.759 313.71 169.919 313.03 168.729 313.03C167.539 313.03 166.699 313.71 166.699 314.73C166.699 315.76 167.539 316.45 168.729 316.45C169.919 316.45 170.759 315.76 170.759 314.73ZM168.609 318.87V317.03H167.789V319.54H173.759V318.87H168.609Z" fill="black"/>
<path d="M191.083 279.006H191.762C192.188 278.999 192.523 278.887 192.768 278.669C193.012 278.451 193.134 278.156 193.134 277.785C193.134 276.952 192.719 276.535 191.889 276.535C191.498 276.535 191.186 276.647 190.951 276.872C190.72 277.093 190.604 277.388 190.604 277.756H189.701C189.701 277.193 189.906 276.726 190.316 276.354C190.73 275.98 191.254 275.793 191.889 275.793C192.559 275.793 193.085 275.97 193.466 276.325C193.847 276.68 194.037 277.173 194.037 277.805C194.037 278.114 193.936 278.413 193.734 278.703C193.536 278.993 193.264 279.209 192.919 279.353C193.31 279.476 193.611 279.681 193.822 279.968C194.037 280.254 194.145 280.604 194.145 281.018C194.145 281.656 193.936 282.162 193.52 282.536C193.103 282.91 192.561 283.098 191.894 283.098C191.226 283.098 190.683 282.917 190.263 282.556C189.846 282.194 189.638 281.717 189.638 281.125H190.546C190.546 281.499 190.668 281.799 190.912 282.023C191.156 282.248 191.483 282.36 191.894 282.36C192.33 282.36 192.663 282.246 192.895 282.019C193.126 281.791 193.241 281.464 193.241 281.037C193.241 280.624 193.114 280.306 192.86 280.085C192.606 279.864 192.24 279.75 191.762 279.743H191.083V279.006ZM197.597 282.36C197.919 282.36 198.201 282.263 198.441 282.067C198.682 281.872 198.816 281.628 198.842 281.335H199.696C199.68 281.638 199.576 281.926 199.384 282.199C199.192 282.473 198.935 282.691 198.612 282.854C198.293 283.016 197.955 283.098 197.597 283.098C196.877 283.098 196.304 282.858 195.878 282.38C195.455 281.898 195.243 281.241 195.243 280.407V280.256C195.243 279.742 195.338 279.284 195.526 278.884C195.715 278.483 195.985 278.173 196.337 277.951C196.692 277.73 197.11 277.619 197.592 277.619C198.184 277.619 198.676 277.797 199.066 278.151C199.46 278.506 199.67 278.967 199.696 279.533H198.842C198.816 279.191 198.686 278.911 198.451 278.693C198.22 278.472 197.934 278.361 197.592 278.361C197.133 278.361 196.776 278.527 196.522 278.859C196.272 279.188 196.146 279.665 196.146 280.29V280.461C196.146 281.07 196.272 281.538 196.522 281.867C196.773 282.196 197.131 282.36 197.597 282.36ZM202.904 283.098C202.188 283.098 201.605 282.863 201.156 282.395C200.707 281.923 200.482 281.293 200.482 280.505V280.339C200.482 279.815 200.582 279.348 200.78 278.938C200.982 278.524 201.262 278.202 201.62 277.971C201.981 277.736 202.372 277.619 202.792 277.619C203.479 277.619 204.013 277.845 204.394 278.298C204.774 278.75 204.965 279.398 204.965 280.241V280.617H201.386C201.399 281.138 201.55 281.56 201.84 281.882C202.133 282.201 202.504 282.36 202.953 282.36C203.272 282.36 203.542 282.295 203.764 282.165C203.985 282.035 204.179 281.862 204.345 281.647L204.896 282.077C204.454 282.757 203.79 283.098 202.904 283.098ZM202.792 278.361C202.427 278.361 202.121 278.495 201.874 278.762C201.627 279.025 201.474 279.396 201.415 279.875H204.062V279.807C204.035 279.348 203.912 278.993 203.69 278.742C203.469 278.488 203.17 278.361 202.792 278.361ZM207.235 279.006H207.914C208.34 278.999 208.676 278.887 208.92 278.669C209.164 278.451 209.286 278.156 209.286 277.785C209.286 276.952 208.871 276.535 208.041 276.535C207.65 276.535 207.338 276.647 207.104 276.872C206.872 277.093 206.757 277.388 206.757 277.756H205.854C205.854 277.193 206.059 276.726 206.469 276.354C206.882 275.98 207.406 275.793 208.041 275.793C208.712 275.793 209.237 275.97 209.618 276.325C209.999 276.68 210.189 277.173 210.189 277.805C210.189 278.114 210.089 278.413 209.887 278.703C209.688 278.993 209.416 279.209 209.071 279.353C209.462 279.476 209.763 279.681 209.975 279.968C210.189 280.254 210.297 280.604 210.297 281.018C210.297 281.656 210.089 282.162 209.672 282.536C209.255 282.91 208.713 283.098 208.046 283.098C207.379 283.098 206.835 282.917 206.415 282.556C205.998 282.194 205.79 281.717 205.79 281.125H206.698C206.698 281.499 206.82 281.799 207.064 282.023C207.309 282.248 207.636 282.36 208.046 282.36C208.482 282.36 208.816 282.246 209.047 282.019C209.278 281.791 209.394 281.464 209.394 281.037C209.394 280.624 209.267 280.306 209.013 280.085C208.759 279.864 208.393 279.75 207.914 279.743H207.235V279.006ZM214.999 279.875C214.81 280.1 214.584 280.28 214.32 280.417C214.06 280.554 213.773 280.622 213.461 280.622C213.051 280.622 212.693 280.521 212.387 280.319C212.084 280.118 211.85 279.834 211.684 279.47C211.518 279.102 211.435 278.697 211.435 278.254C211.435 277.779 211.524 277.351 211.703 276.97C211.885 276.589 212.143 276.298 212.475 276.096C212.807 275.894 213.194 275.793 213.637 275.793C214.34 275.793 214.893 276.057 215.297 276.584C215.704 277.108 215.907 277.824 215.907 278.732V278.996C215.907 280.38 215.634 281.39 215.087 282.028C214.54 282.663 213.715 282.989 212.611 283.005H212.436V282.243H212.626C213.371 282.23 213.944 282.036 214.345 281.662C214.745 281.285 214.963 280.689 214.999 279.875ZM213.607 279.875C213.91 279.875 214.188 279.782 214.442 279.597C214.7 279.411 214.887 279.182 215.004 278.908V278.547C215.004 277.954 214.875 277.473 214.618 277.102C214.361 276.73 214.035 276.545 213.642 276.545C213.244 276.545 212.925 276.698 212.685 277.004C212.444 277.307 212.323 277.707 212.323 278.205C212.323 278.69 212.439 279.09 212.67 279.406C212.904 279.719 213.217 279.875 213.607 279.875ZM220.966 280.612H221.952V281.35H220.966V283H220.058V281.35H216.82V280.817L220.004 275.891H220.966V280.612ZM217.846 280.612H220.058V277.126L219.95 277.321L217.846 280.612ZM222.641 280.314C222.641 279.504 222.833 278.853 223.217 278.361C223.601 277.867 224.104 277.619 224.726 277.619C225.344 277.619 225.834 277.831 226.195 278.254V275.5H227.099V283H226.269L226.225 282.434C225.863 282.876 225.36 283.098 224.716 283.098C224.104 283.098 223.604 282.847 223.217 282.346C222.833 281.844 222.641 281.19 222.641 280.383V280.314ZM223.544 280.417C223.544 281.016 223.668 281.485 223.915 281.823C224.162 282.162 224.504 282.331 224.94 282.331C225.513 282.331 225.932 282.074 226.195 281.56V279.133C225.925 278.635 225.51 278.386 224.95 278.386C224.507 278.386 224.162 278.557 223.915 278.898C223.668 279.24 223.544 279.746 223.544 280.417ZM186.692 291.15C185.122 290.87 183.412 289.55 183.412 288.06V287.37H182.552V288.06C182.552 289.55 180.852 290.87 179.282 291.15L179.622 291.83C181.002 291.54 182.402 290.61 182.982 289.33C183.562 290.61 184.972 291.54 186.342 291.83L186.692 291.15ZM183.392 293.9V291.72H182.572V293.9H178.952V294.57H187.092V293.9H183.392ZM194.711 291.48H195.541V286.78H194.711V287.69H192.951V288.34H194.711V289.3H192.951V289.95H194.711V291.48ZM193.391 290.69C192.101 290.25 191.191 289.14 191.191 287.94V287H190.381V287.94C190.381 289.19 189.481 290.39 188.151 290.88L188.571 291.5C189.611 291.12 190.421 290.3 190.801 289.28C191.191 290.21 191.971 290.96 192.971 291.33L193.391 290.69ZM190.591 294.98V294.03H195.541V291.92H189.761V292.55H194.731V293.42H189.781V295.62H195.881V294.98H190.591ZM200.311 287.73V288.41H203.601C203.411 290.53 202.181 292.25 199.891 293.4L200.341 294.04C203.241 292.59 204.411 290.28 204.411 287.73H200.311ZM208.171 290.41H206.731V286.77H205.911V295.74H206.731V291.09H208.171V290.41ZM215.57 286.78V291.59H216.39V286.78H215.57ZM210.61 292.03V295.62H216.39V292.03H215.58V293.13H211.42V292.03H210.61ZM211.42 293.77H215.58V294.96H211.42V293.77ZM211.57 287.2C210.22 287.2 209.24 288.04 209.24 289.26C209.24 290.5 210.22 291.33 211.57 291.33C212.93 291.33 213.92 290.5 213.92 289.26C213.92 288.04 212.93 287.2 211.57 287.2ZM211.57 287.88C212.48 287.88 213.12 288.45 213.12 289.26C213.12 290.08 212.48 290.65 211.57 290.65C210.68 290.65 210.04 290.08 210.04 289.26C210.04 288.45 210.68 287.88 211.57 287.88ZM228.83 291.21H227.5C227.75 289.92 227.75 288.97 227.75 288.13V287.35H221.73V288.01H226.95V288.13C226.95 288.97 226.95 289.92 226.67 291.21H220.72V291.88H224.34V295.75H225.17V291.88H228.83V291.21ZM234.949 289.16V289.83H236.459V291.04H234.949V291.71H236.459V293.61H237.289V286.78H236.459V289.16H234.949ZM234.949 287.87H232.889V286.76H232.069V287.87H229.929V288.53H234.949V287.87ZM231.219 290.73C231.219 290.1 231.729 289.67 232.469 289.67C233.209 289.67 233.719 290.1 233.719 290.73C233.719 291.37 233.209 291.81 232.469 291.81C231.729 291.81 231.219 291.37 231.219 290.73ZM234.499 290.73C234.499 289.71 233.659 289.03 232.469 289.03C231.279 289.03 230.439 289.71 230.439 290.73C230.439 291.76 231.279 292.45 232.469 292.45C233.659 292.45 234.499 291.76 234.499 290.73ZM232.349 294.87V293.03H231.529V295.54H237.499V294.87H232.349Z" fill="black"/>
<path d="M264.34 342H263.397V338.714H259.813V342H258.876V334.891H259.813V337.947H263.397V334.891H264.34V342ZM270.023 338.714H266.942V341.233H270.521V342H266.005V334.891H270.473V335.662H266.942V337.947H270.023V338.714ZM275.614 340.145H272.636L271.967 342H271L273.715 334.891H274.535L277.255 342H276.293L275.614 340.145ZM272.919 339.373H275.336L274.125 336.048L272.919 339.373ZM278.212 342V334.891H280.219C280.837 334.891 281.384 335.027 281.859 335.301C282.335 335.574 282.701 335.963 282.958 336.468C283.218 336.972 283.35 337.552 283.354 338.206V338.66C283.354 339.331 283.223 339.918 282.963 340.423C282.706 340.927 282.336 341.315 281.854 341.585C281.376 341.855 280.818 341.993 280.18 342H278.212ZM279.149 335.662V341.233H280.136C280.858 341.233 281.42 341.009 281.82 340.56C282.224 340.11 282.426 339.471 282.426 338.641V338.226C282.426 337.418 282.235 336.792 281.854 336.346C281.477 335.896 280.94 335.669 280.243 335.662H279.149Z" fill="#4000C7"/>
<path d="M85.1863 359C83.5646 352.553 91.8523 338.272 137 339.029" stroke="#4000C7"/>
<path d="M146.186 332C144.565 325.553 152.852 311.272 198 312.029" stroke="#4000C7"/>
<rect x="115.824" y="100.124" width="18" height="41" rx="5" transform="rotate(-90.1738 115.824 100.124)" fill="black"/>
<rect x="115.824" y="221.124" width="18" height="41" rx="5" transform="rotate(-90.1738 115.824 221.124)" fill="black"/>
<rect x="177.824" y="348.124" width="18" height="70.7284" rx="5" transform="rotate(-90.1738 177.824 348.124)" fill="black"/>
<rect x="239.824" y="321.264" width="18" height="102.065" rx="5" transform="rotate(-90.1738 239.824 321.264)" fill="black"/>
<path d="M108.001 91.1934L116.251 87.7304L116.25 94.6586L108.001 91.1934Z" fill="black"/>
<path d="M108.001 212.194L116.251 208.731L116.25 215.659L108.001 212.194Z" fill="black"/>
<path d="M108.001 366.193L116.251 362.73L116.25 369.659L108.001 366.193Z" fill="black"/>
<path d="M170.001 339.193L178.251 335.73L178.25 342.659L170.001 339.193Z" fill="black"/>
<path d="M232.001 312.333L240.251 308.87L240.25 315.798L232.001 312.333Z" fill="black"/>
<path d="M125.601 88.737L125.628 89.3815C126.054 88.8801 126.629 88.6294 127.352 88.6293C128.165 88.6291 128.718 88.9405 129.012 89.5635C129.205 89.2842 129.456 89.0586 129.764 88.8866C130.075 88.7147 130.442 88.6287 130.865 88.6286C132.14 88.6284 132.788 89.3032 132.81 90.6532L132.81 94.5472L131.817 94.5474L131.816 90.7124C131.816 90.2971 131.721 89.9874 131.531 89.7833C131.341 89.5756 131.023 89.4719 130.575 89.4719C130.206 89.472 129.9 89.5831 129.657 89.8051C129.413 90.0236 129.272 90.319 129.233 90.6914L129.233 94.5479L128.234 94.548L128.234 90.7399C128.233 89.8949 127.82 89.4724 126.993 89.4726C126.341 89.4727 125.895 89.7503 125.655 90.3053L125.656 94.5485L124.662 94.5487L124.661 88.7372L125.601 88.737ZM137.902 94.5463C137.845 94.4317 137.798 94.2276 137.762 93.934C137.301 94.4139 136.749 94.6539 136.108 94.654C135.535 94.6541 135.064 94.4931 134.696 94.1709C134.33 93.8451 134.148 93.4334 134.148 92.9356C134.147 92.3305 134.376 91.8614 134.835 91.5283C135.297 91.1916 135.945 91.0232 136.779 91.0231L137.746 91.0229L137.746 90.5663C137.746 90.219 137.642 89.9433 137.434 89.7393C137.226 89.5316 136.92 89.4278 136.516 89.4279C136.161 89.428 135.864 89.5175 135.624 89.6966C135.384 89.8757 135.264 90.0923 135.264 90.3466L134.265 90.3468C134.265 90.0567 134.367 89.7774 134.571 89.5088C134.779 89.2366 135.058 89.0217 135.409 88.8641C135.763 88.7065 136.152 88.6277 136.574 88.6276C137.244 88.6275 137.769 88.7957 138.148 89.1322C138.528 89.4651 138.725 89.9252 138.739 90.5125L138.74 93.1873C138.74 93.7208 138.808 94.1451 138.944 94.4602L138.944 94.5461L137.902 94.5463ZM136.253 93.7893C136.565 93.7892 136.86 93.7086 137.139 93.5474C137.419 93.3862 137.621 93.1767 137.746 92.9189L137.746 91.7265L136.967 91.7266C135.75 91.7269 135.141 92.0833 135.141 92.7958C135.141 93.1073 135.245 93.3508 135.453 93.5262C135.661 93.7016 135.927 93.7893 136.253 93.7893ZM141.377 94.5457L140.384 94.5458L140.383 88.7343L141.376 88.7341L141.377 94.5457ZM140.302 87.1928C140.302 87.0317 140.35 86.8956 140.447 86.7846C140.547 86.6736 140.694 86.6181 140.887 86.618C141.08 86.618 141.227 86.6735 141.328 86.7844C141.428 86.8954 141.478 87.0315 141.478 87.1926C141.478 87.3538 141.428 87.488 141.328 87.5955C141.227 87.7029 141.081 87.7567 140.887 87.7567C140.694 87.7567 140.547 87.703 140.447 87.5956C140.35 87.4882 140.302 87.354 140.302 87.1928ZM143.911 88.7337L143.944 89.4641C144.388 88.9055 144.968 88.6261 145.684 88.6259C146.912 88.6257 147.532 89.3185 147.543 90.7042L147.543 94.5445L146.55 94.5447L146.549 90.699C146.545 90.2801 146.449 89.9704 146.259 89.7699C146.073 89.5694 145.781 89.4692 145.383 89.4693C145.061 89.4693 144.778 89.5553 144.535 89.7272C144.291 89.8991 144.101 90.1248 143.965 90.4041L143.966 94.5452L142.973 94.5454L142.971 88.7339L143.911 88.7337Z" fill="white"/>
<path d="M125.601 209.737L125.628 210.382C126.054 209.88 126.629 209.63 127.352 209.63C128.165 209.629 128.718 209.941 129.012 210.564C129.205 210.284 129.456 210.059 129.764 209.887C130.075 209.715 130.442 209.629 130.865 209.629C132.14 209.629 132.788 210.303 132.81 211.653L132.81 215.547L131.817 215.548L131.816 211.713C131.816 211.297 131.721 210.988 131.531 210.784C131.341 210.576 131.023 210.472 130.575 210.472C130.206 210.472 129.9 210.583 129.657 210.805C129.413 211.024 129.272 211.319 129.233 211.692L129.233 215.548L128.234 215.548L128.234 211.74C128.233 210.895 127.82 210.473 126.993 210.473C126.341 210.473 125.895 210.751 125.655 211.306L125.656 215.549L124.662 215.549L124.661 209.737L125.601 209.737ZM137.902 215.547C137.845 215.432 137.798 215.228 137.762 214.934C137.301 215.414 136.749 215.654 136.108 215.654C135.535 215.654 135.064 215.493 134.696 215.171C134.33 214.845 134.148 214.434 134.148 213.936C134.147 213.331 134.376 212.862 134.835 212.529C135.297 212.192 135.945 212.023 136.779 212.023L137.746 212.023L137.746 211.567C137.746 211.219 137.642 210.944 137.434 210.739C137.226 210.532 136.92 210.428 136.516 210.428C136.161 210.428 135.864 210.518 135.624 210.697C135.384 210.876 135.264 211.093 135.264 211.347L134.265 211.347C134.265 211.057 134.367 210.778 134.571 210.509C134.779 210.237 135.058 210.022 135.409 209.864C135.763 209.707 136.152 209.628 136.574 209.628C137.244 209.628 137.769 209.796 138.148 210.132C138.528 210.465 138.725 210.925 138.739 211.513L138.74 214.188C138.74 214.721 138.808 215.145 138.944 215.46L138.944 215.546L137.902 215.547ZM136.253 214.79C136.565 214.789 136.86 214.709 137.139 214.548C137.419 214.386 137.621 214.177 137.746 213.919L137.746 212.727L136.967 212.727C135.75 212.727 135.141 213.083 135.141 213.796C135.141 214.108 135.245 214.351 135.453 214.526C135.661 214.702 135.927 214.79 136.253 214.79ZM141.377 215.546L140.384 215.546L140.383 209.735L141.376 209.734L141.377 215.546ZM140.302 208.193C140.302 208.032 140.35 207.896 140.447 207.785C140.547 207.674 140.694 207.618 140.887 207.618C141.08 207.618 141.227 207.674 141.328 207.785C141.428 207.896 141.478 208.032 141.478 208.193C141.478 208.354 141.428 208.488 141.328 208.596C141.227 208.703 141.081 208.757 140.887 208.757C140.694 208.757 140.547 208.703 140.447 208.596C140.35 208.488 140.302 208.354 140.302 208.193ZM143.911 209.734L143.944 210.464C144.388 209.906 144.968 209.626 145.684 209.626C146.912 209.626 147.532 210.319 147.543 211.704L147.543 215.545L146.55 215.545L146.549 211.699C146.545 211.28 146.449 210.971 146.259 210.77C146.073 210.57 145.781 210.469 145.383 210.47C145.061 210.47 144.778 210.556 144.535 210.727C144.291 210.899 144.101 211.125 143.965 211.404L143.966 215.545L142.973 215.546L142.971 209.734L143.911 209.734Z" fill="white"/>
<path d="M187.157 342.549L187.156 337.505L186.237 337.505L186.237 336.737L187.156 336.737L187.155 336.141C187.155 335.518 187.322 335.036 187.655 334.696C187.988 334.356 188.458 334.186 189.067 334.185C189.296 334.185 189.524 334.216 189.749 334.277L189.696 335.082C189.527 335.05 189.348 335.034 189.159 335.034C188.836 335.034 188.588 335.129 188.412 335.319C188.237 335.505 188.149 335.774 188.149 336.125L188.149 336.737L189.39 336.737L189.39 337.505L188.149 337.505L188.15 342.548L187.157 342.549ZM192.775 342.655C191.987 342.655 191.346 342.397 190.852 341.882C190.358 341.363 190.11 340.67 190.11 339.803L190.11 339.621C190.11 339.044 190.219 338.53 190.438 338.079C190.659 337.624 190.967 337.27 191.361 337.016C191.759 336.758 192.188 336.629 192.65 336.629C193.406 336.629 193.993 336.877 194.412 337.375C194.831 337.873 195.041 338.585 195.041 339.513L195.041 339.926L191.104 339.927C191.118 340.5 191.285 340.963 191.604 341.318C191.926 341.669 192.334 341.844 192.828 341.844C193.179 341.844 193.476 341.772 193.72 341.629C193.963 341.486 194.176 341.296 194.359 341.06L194.966 341.532C194.479 342.281 193.749 342.655 192.775 342.655ZM192.65 337.445C192.249 337.445 191.913 337.592 191.641 337.886C191.369 338.176 191.2 338.584 191.136 339.11L194.047 339.11L194.047 339.035C194.018 338.53 193.882 338.14 193.639 337.864C193.395 337.585 193.066 337.445 192.65 337.445ZM199.784 342.546C199.727 342.432 199.68 342.228 199.644 341.934C199.182 342.414 198.631 342.654 197.99 342.654C197.417 342.654 196.946 342.493 196.577 342.171C196.212 341.845 196.029 341.433 196.029 340.936C196.029 340.331 196.258 339.861 196.717 339.528C197.178 339.192 197.827 339.023 198.661 339.023L199.628 339.023L199.628 338.566C199.627 338.219 199.524 337.943 199.316 337.739C199.108 337.532 198.802 337.428 198.397 337.428C198.043 337.428 197.746 337.518 197.506 337.697C197.266 337.876 197.146 338.092 197.146 338.347L196.147 338.347C196.147 338.057 196.249 337.777 196.453 337.509C196.661 337.237 196.94 337.022 197.291 336.864C197.645 336.707 198.034 336.628 198.456 336.628C199.126 336.627 199.651 336.796 200.03 337.132C200.41 337.465 200.607 337.925 200.621 338.512L200.622 341.187C200.622 341.721 200.69 342.145 200.826 342.46L200.826 342.546L199.784 342.546ZM198.135 341.789C198.446 341.789 198.742 341.709 199.021 341.547C199.3 341.386 199.503 341.177 199.628 340.919L199.628 339.727L198.849 339.727C197.632 339.727 197.023 340.083 197.023 340.796C197.023 341.107 197.127 341.351 197.335 341.526C197.542 341.702 197.809 341.789 198.135 341.789ZM203.526 335.327L203.527 336.734L204.612 336.734L204.612 337.502L203.527 337.502L203.527 341.106C203.527 341.339 203.576 341.514 203.673 341.633C203.769 341.747 203.934 341.804 204.167 341.804C204.281 341.804 204.439 341.783 204.639 341.74L204.64 342.545C204.378 342.617 204.124 342.653 203.877 342.653C203.433 342.653 203.098 342.519 202.872 342.25C202.647 341.982 202.534 341.601 202.534 341.106L202.533 337.502L201.475 337.503L201.475 336.734L202.533 336.734L202.533 335.327L203.526 335.327ZM205.977 343.217L205.123 343.217L208.387 334.724L209.236 334.724L205.977 343.217ZM213.695 341.002C213.695 340.734 213.593 340.526 213.389 340.379C213.188 340.229 212.835 340.1 212.33 339.993C211.829 339.885 211.43 339.757 211.133 339.606C210.839 339.456 210.621 339.277 210.477 339.069C210.338 338.862 210.268 338.615 210.268 338.328C210.268 337.852 210.468 337.449 210.869 337.12C211.274 336.79 211.789 336.625 212.416 336.625C213.075 336.625 213.608 336.795 214.016 337.135C214.428 337.475 214.634 337.91 214.634 338.44L213.635 338.44C213.635 338.168 213.519 337.934 213.286 337.737C213.057 337.54 212.767 337.441 212.416 337.441C212.054 337.442 211.771 337.52 211.567 337.678C211.363 337.836 211.261 338.041 211.261 338.296C211.261 338.536 211.356 338.716 211.546 338.838C211.736 338.96 212.078 339.076 212.572 339.187C213.07 339.298 213.473 339.43 213.781 339.584C214.089 339.738 214.316 339.924 214.463 340.143C214.613 340.358 214.688 340.621 214.689 340.932C214.689 341.451 214.481 341.869 214.066 342.184C213.65 342.495 213.112 342.651 212.449 342.651C211.984 342.652 211.572 342.569 211.214 342.405C210.856 342.24 210.574 342.011 210.37 341.717C210.17 341.42 210.069 341.1 210.069 340.756L211.063 340.756C211.081 341.089 211.214 341.354 211.461 341.551C211.711 341.744 212.041 341.84 212.449 341.84C212.825 341.84 213.126 341.765 213.351 341.615C213.58 341.461 213.695 341.257 213.695 341.002ZM217.063 342.543L216.069 342.543L216.068 336.732L217.062 336.732L217.063 342.543ZM215.987 335.19C215.987 335.029 216.036 334.893 216.132 334.782C216.232 334.671 216.379 334.616 216.573 334.616C216.766 334.616 216.913 334.671 217.013 334.782C217.113 334.893 217.164 335.029 217.164 335.19C217.164 335.351 217.113 335.486 217.013 335.593C216.913 335.7 216.766 335.754 216.573 335.754C216.379 335.754 216.233 335.701 216.132 335.593C216.036 335.486 215.987 335.351 215.987 335.19ZM218.421 339.589C218.421 338.683 218.63 337.963 219.049 337.43C219.468 336.892 220.023 336.624 220.714 336.624C221.423 336.623 221.976 336.874 222.374 337.375L222.422 336.731L223.33 336.731L223.331 342.402C223.331 343.154 223.107 343.747 222.66 344.18C222.216 344.614 221.618 344.83 220.866 344.831C220.447 344.831 220.037 344.741 219.636 344.562C219.235 344.383 218.929 344.138 218.717 343.827L219.233 343.23C219.659 343.757 220.18 344.02 220.796 344.02C221.279 344.019 221.655 343.883 221.924 343.611C222.196 343.339 222.332 342.956 222.332 342.462L222.332 341.962C221.934 342.421 221.392 342.65 220.704 342.65C220.024 342.65 219.473 342.376 219.05 341.828C218.631 341.281 218.421 340.534 218.421 339.589ZM219.42 339.701C219.42 340.357 219.555 340.872 219.823 341.248C220.092 341.621 220.468 341.807 220.951 341.807C221.578 341.807 222.038 341.522 222.332 340.952L222.331 338.299C222.027 337.744 221.57 337.467 220.961 337.467C220.478 337.467 220.1 337.655 219.828 338.031C219.556 338.407 219.42 338.964 219.42 339.701ZM225.774 336.73L225.806 337.461C226.25 336.902 226.83 336.622 227.546 336.622C228.774 336.622 229.394 337.315 229.405 338.701L229.406 342.541L228.412 342.541L228.411 338.695C228.408 338.276 228.311 337.967 228.121 337.766C227.935 337.566 227.643 337.466 227.246 337.466C226.923 337.466 226.64 337.552 226.397 337.724C226.153 337.896 225.964 338.121 225.828 338.4L225.828 342.542L224.835 342.542L224.834 336.73L225.774 336.73ZM234.492 341.965C234.105 342.42 233.538 342.648 232.789 342.648C232.17 342.648 231.697 342.469 231.371 342.111C231.049 341.749 230.886 341.216 230.882 340.51L230.882 336.729L231.875 336.729L231.876 340.483C231.876 341.364 232.234 341.805 232.95 341.804C233.71 341.804 234.214 341.521 234.465 340.956L234.464 336.729L235.458 336.728L235.459 342.54L234.514 342.54L234.492 341.965ZM241.882 339.697C241.882 340.582 241.68 341.294 241.276 341.835C240.871 342.376 240.323 342.646 239.632 342.647C238.927 342.647 238.372 342.423 237.967 341.975L237.968 344.774L236.974 344.774L236.972 336.728L237.88 336.728L237.929 337.372C238.333 336.871 238.895 336.62 239.615 336.62C240.313 336.62 240.865 336.883 241.269 337.409C241.678 337.936 241.882 338.668 241.882 339.606L241.882 339.697ZM240.888 339.585C240.888 338.93 240.749 338.412 240.469 338.033C240.19 337.653 239.807 337.463 239.32 337.463C238.718 337.464 238.267 337.73 237.966 338.264L237.967 341.041C238.264 341.571 238.719 341.836 239.331 341.836C239.808 341.835 240.185 341.647 240.464 341.271C240.747 340.892 240.889 340.33 240.888 339.585Z" fill="white"/>
<path d="M249.157 315.688L249.156 310.645L248.237 310.645L248.237 309.877L249.156 309.877L249.155 309.281C249.155 308.657 249.322 308.176 249.655 307.836C249.988 307.495 250.458 307.325 251.067 307.325C251.296 307.325 251.524 307.355 251.749 307.416L251.696 308.222C251.527 308.19 251.348 308.174 251.159 308.174C250.836 308.174 250.588 308.269 250.412 308.459C250.237 308.645 250.149 308.913 250.149 309.264L250.149 309.877L251.39 309.876L251.39 310.644L250.149 310.645L250.15 315.688L249.157 315.688ZM254.775 315.795C253.987 315.795 253.346 315.537 252.852 315.022C252.358 314.502 252.11 313.81 252.11 312.943L252.11 312.76C252.11 312.184 252.219 311.67 252.438 311.219C252.659 310.764 252.967 310.41 253.361 310.155C253.759 309.897 254.188 309.768 254.65 309.768C255.406 309.768 255.993 310.017 256.412 310.515C256.831 311.012 257.041 311.725 257.041 312.652L257.041 313.066L253.104 313.066C253.118 313.639 253.285 314.103 253.604 314.457C253.926 314.808 254.334 314.984 254.828 314.984C255.179 314.984 255.476 314.912 255.72 314.769C255.963 314.625 256.176 314.436 256.359 314.199L256.966 314.672C256.479 315.42 255.749 315.794 254.775 315.795ZM254.65 310.585C254.249 310.585 253.913 310.732 253.641 311.025C253.369 311.315 253.2 311.724 253.136 312.25L256.047 312.25L256.047 312.174C256.018 311.669 255.882 311.279 255.639 311.003C255.395 310.724 255.066 310.585 254.65 310.585ZM261.784 315.686C261.727 315.571 261.68 315.367 261.644 315.074C261.182 315.554 260.631 315.794 259.99 315.794C259.417 315.794 258.946 315.633 258.577 315.311C258.212 314.985 258.029 314.573 258.029 314.075C258.029 313.47 258.258 313.001 258.717 312.668C259.178 312.331 259.827 312.163 260.661 312.163L261.628 312.163L261.628 311.706C261.627 311.359 261.524 311.083 261.316 310.879C261.108 310.671 260.802 310.567 260.397 310.568C260.043 310.568 259.746 310.657 259.506 310.836C259.266 311.015 259.146 311.232 259.146 311.486L258.147 311.486C258.147 311.196 258.249 310.917 258.453 310.648C258.661 310.376 258.94 310.161 259.291 310.004C259.645 309.846 260.034 309.767 260.456 309.767C261.126 309.767 261.651 309.935 262.03 310.272C262.41 310.605 262.607 311.065 262.621 311.652L262.622 314.327C262.622 314.86 262.69 315.285 262.826 315.6L262.826 315.686L261.784 315.686ZM260.135 314.929C260.446 314.929 260.742 314.848 261.021 314.687C261.3 314.526 261.503 314.316 261.628 314.059L261.628 312.866L260.849 312.866C259.632 312.867 259.023 313.223 259.023 313.935C259.023 314.247 259.127 314.49 259.335 314.666C259.542 314.841 259.809 314.929 260.135 314.929ZM265.526 308.467L265.527 309.874L266.612 309.874L266.612 310.642L265.527 310.642L265.527 314.246C265.527 314.479 265.576 314.654 265.673 314.772C265.769 314.887 265.934 314.944 266.167 314.944C266.281 314.944 266.439 314.922 266.639 314.879L266.64 315.685C266.378 315.757 266.124 315.793 265.877 315.793C265.433 315.793 265.098 315.659 264.872 315.39C264.647 315.121 264.534 314.74 264.534 314.246L264.533 310.642L263.475 310.642L263.475 309.874L264.533 309.874L264.533 308.467L265.526 308.467ZM267.977 316.356L267.123 316.356L270.387 307.864L271.236 307.864L267.977 316.356ZM275.695 314.142C275.695 313.873 275.593 313.666 275.389 313.519C275.188 313.369 274.835 313.24 274.33 313.132C273.829 313.025 273.43 312.896 273.133 312.746C272.839 312.596 272.621 312.417 272.477 312.209C272.338 312.001 272.268 311.754 272.268 311.468C272.268 310.992 272.468 310.589 272.869 310.259C273.274 309.93 273.789 309.765 274.416 309.765C275.075 309.765 275.608 309.935 276.016 310.275C276.428 310.615 276.634 311.05 276.634 311.58L275.635 311.58C275.635 311.308 275.519 311.073 275.286 310.876C275.057 310.679 274.767 310.581 274.416 310.581C274.054 310.581 273.771 310.66 273.567 310.818C273.363 310.975 273.261 311.181 273.261 311.435C273.261 311.675 273.356 311.856 273.546 311.978C273.736 312.099 274.078 312.216 274.572 312.327C275.07 312.438 275.473 312.57 275.781 312.724C276.089 312.878 276.316 313.064 276.463 313.282C276.613 313.497 276.688 313.76 276.689 314.072C276.689 314.591 276.481 315.008 276.066 315.324C275.65 315.635 275.112 315.791 274.449 315.791C273.984 315.791 273.572 315.709 273.214 315.544C272.856 315.38 272.574 315.15 272.37 314.857C272.17 314.56 272.069 314.239 272.069 313.896L273.063 313.895C273.081 314.228 273.214 314.493 273.461 314.69C273.711 314.884 274.041 314.98 274.449 314.98C274.825 314.98 275.126 314.905 275.351 314.754C275.58 314.6 275.695 314.396 275.695 314.142ZM279.063 315.683L278.069 315.683L278.068 309.871L279.062 309.871L279.063 315.683ZM277.987 308.33C277.987 308.169 278.036 308.033 278.132 307.922C278.232 307.811 278.379 307.755 278.573 307.755C278.766 307.755 278.913 307.811 279.013 307.922C279.113 308.033 279.164 308.169 279.164 308.33C279.164 308.491 279.113 308.625 279.013 308.733C278.913 308.84 278.766 308.894 278.573 308.894C278.379 308.894 278.233 308.84 278.132 308.733C278.036 308.625 277.987 308.491 277.987 308.33ZM280.421 312.728C280.421 311.823 280.63 311.103 281.049 310.569C281.468 310.032 282.023 309.763 282.714 309.763C283.423 309.763 283.976 310.014 284.374 310.515L284.422 309.87L285.33 309.87L285.331 315.542C285.331 316.294 285.107 316.887 284.66 317.32C284.216 317.753 283.618 317.97 282.866 317.97C282.447 317.97 282.037 317.881 281.636 317.702C281.235 317.523 280.929 317.278 280.717 316.966L281.233 316.37C281.659 316.896 282.18 317.159 282.796 317.159C283.279 317.159 283.655 317.023 283.924 316.751C284.196 316.479 284.332 316.095 284.332 315.601L284.332 315.102C283.934 315.56 283.392 315.789 282.704 315.79C282.024 315.79 281.473 315.516 281.05 314.968C280.631 314.42 280.421 313.674 280.421 312.728ZM281.42 312.841C281.42 313.496 281.555 314.012 281.823 314.388C282.092 314.76 282.468 314.946 282.951 314.946C283.578 314.946 284.038 314.661 284.332 314.092L284.331 311.439C284.027 310.884 283.57 310.606 282.961 310.606C282.478 310.607 282.1 310.795 281.828 311.171C281.556 311.547 281.42 312.103 281.42 312.841ZM287.774 309.87L287.806 310.6C288.25 310.042 288.83 309.762 289.546 309.762C290.774 309.762 291.394 310.455 291.405 311.84L291.406 315.681L290.412 315.681L290.411 311.835C290.408 311.416 290.311 311.106 290.121 310.906C289.935 310.705 289.643 310.605 289.246 310.605C288.923 310.605 288.64 310.691 288.397 310.863C288.153 311.035 287.964 311.261 287.828 311.54L287.828 315.681L286.835 315.681L286.834 309.87L287.774 309.87ZM296.492 315.105C296.105 315.56 295.538 315.787 294.789 315.787C294.17 315.788 293.697 315.609 293.371 315.251C293.049 314.889 292.886 314.355 292.882 313.65L292.882 309.869L293.875 309.869L293.876 313.623C293.876 314.504 294.234 314.944 294.95 314.944C295.71 314.944 296.214 314.661 296.465 314.095L296.464 309.868L297.458 309.868L297.459 315.68L296.514 315.68L296.492 315.105ZM303.882 312.837C303.882 313.721 303.68 314.434 303.276 314.975C302.871 315.516 302.323 315.786 301.632 315.786C300.927 315.786 300.372 315.563 299.967 315.115L299.968 317.913L298.974 317.914L298.972 309.868L299.88 309.868L299.929 310.512C300.333 310.011 300.895 309.76 301.615 309.76C302.313 309.76 302.865 310.023 303.269 310.549C303.678 311.075 303.882 311.808 303.882 312.746L303.882 312.837ZM302.888 312.724C302.888 312.069 302.749 311.552 302.469 311.172C302.19 310.793 301.807 310.603 301.32 310.603C300.718 310.603 300.267 310.87 299.966 311.404L299.967 314.181C300.264 314.71 300.719 314.975 301.331 314.975C301.808 314.975 302.185 314.787 302.464 314.411C302.747 314.031 302.889 313.469 302.888 312.724ZM307.218 312.761L304.596 312.762L304.596 311.951L307.217 311.95L307.218 312.761ZM307.927 312.718C307.926 312.149 308.037 311.637 308.259 311.182C308.485 310.727 308.796 310.376 309.194 310.129C309.595 309.882 310.051 309.758 310.563 309.758C311.355 309.758 311.994 310.032 312.481 310.58C312.972 311.127 313.217 311.856 313.217 312.766L313.217 312.835C313.217 313.401 313.108 313.91 312.89 314.361C312.675 314.808 312.365 315.158 311.961 315.408C311.56 315.659 311.098 315.784 310.575 315.785C309.787 315.785 309.148 315.511 308.657 314.963C308.17 314.415 307.927 313.69 307.927 312.788L307.927 312.718ZM308.926 312.836C308.926 313.481 309.074 313.998 309.372 314.388C309.673 314.779 310.074 314.974 310.575 314.974C311.08 314.973 311.481 314.776 311.778 314.382C312.075 313.985 312.224 313.43 312.223 312.717C312.223 312.08 312.071 311.564 311.767 311.171C311.466 310.773 311.065 310.575 310.563 310.575C310.073 310.575 309.677 310.77 309.376 311.16C309.076 311.551 308.925 312.109 308.926 312.836ZM318.052 315.676C317.994 315.561 317.948 315.357 317.912 315.063C317.45 315.543 316.899 315.783 316.258 315.784C315.685 315.784 315.214 315.623 314.845 315.3C314.48 314.975 314.297 314.563 314.297 314.065C314.297 313.46 314.526 312.991 314.984 312.658C315.446 312.321 316.094 312.153 316.928 312.153L317.895 312.152L317.895 311.696C317.895 311.348 317.791 311.073 317.583 310.869C317.376 310.661 317.07 310.557 316.665 310.557C316.31 310.557 316.013 310.647 315.773 310.826C315.534 311.005 315.414 311.222 315.414 311.476L314.415 311.476C314.415 311.186 314.517 310.907 314.721 310.638C314.928 310.366 315.208 310.151 315.558 309.994C315.913 309.836 316.301 309.757 316.724 309.757C317.393 309.757 317.918 309.925 318.298 310.262C318.677 310.595 318.874 311.055 318.889 311.642L318.889 314.317C318.889 314.85 318.957 315.275 319.094 315.59L319.094 315.676L318.052 315.676ZM316.403 314.919C316.714 314.919 317.009 314.838 317.289 314.677C317.568 314.516 317.77 314.306 317.896 314.048L317.895 312.856L317.117 312.856C315.899 312.856 315.29 313.213 315.291 313.925C315.291 314.237 315.394 314.48 315.602 314.656C315.81 314.831 316.077 314.919 316.403 314.919ZM324.035 315.1C323.648 315.555 323.081 315.782 322.332 315.782C321.713 315.783 321.24 315.604 320.914 315.246C320.592 314.884 320.429 314.35 320.425 313.645L320.425 309.864L321.418 309.864L321.419 313.618C321.419 314.499 321.777 314.939 322.493 314.939C323.252 314.939 323.757 314.656 324.008 314.09L324.007 309.863L325.001 309.863L325.002 315.675L324.056 315.675L324.035 315.1ZM327.863 308.455L327.864 309.862L328.949 309.862L328.949 310.63L327.864 310.631L327.864 314.235C327.864 314.467 327.913 314.643 328.009 314.761C328.106 314.875 328.271 314.933 328.504 314.933C328.618 314.933 328.776 314.911 328.976 314.868L328.976 315.674C328.715 315.745 328.461 315.781 328.214 315.781C327.77 315.781 327.435 315.647 327.209 315.379C326.984 315.11 326.871 314.729 326.871 314.235L326.87 310.631L325.812 310.631L325.812 309.863L326.87 309.863L326.87 308.455L327.863 308.455ZM331.108 310.566C331.548 310.025 332.121 309.754 332.826 309.754C334.055 309.754 334.674 310.447 334.685 311.832L334.686 315.673L333.692 315.673L333.692 311.827C333.688 311.408 333.591 311.099 333.401 310.898C333.215 310.698 332.923 310.597 332.526 310.597C332.204 310.598 331.921 310.684 331.677 310.855C331.434 311.027 331.244 311.253 331.108 311.532L331.109 315.673L330.115 315.674L330.114 307.424L331.107 307.423L331.108 310.566Z" fill="white"/>
<circle cx="84.5" cy="366.5" r="9.5" fill="#4000C7"/>
<circle cx="84.5" cy="212.5" r="9.5" fill="#4000C7"/>
<circle cx="84.5" cy="91.5" r="9.5" fill="#4000C7"/>
<circle cx="145.5" cy="339.5" r="9.5" fill="#4000C7"/>
<circle cx="207.5" cy="312.5" r="9.5" fill="#4000C7"/>
<rect x="115.824" y="375.124" width="18" height="41" rx="5" transform="rotate(-90.1738 115.824 375.124)" fill="black"/>
<path d="M125.601 363.737L125.628 364.382C126.054 363.88 126.629 363.629 127.352 363.629C128.165 363.629 128.718 363.941 129.012 364.564C129.205 364.284 129.456 364.059 129.764 363.887C130.075 363.715 130.442 363.629 130.865 363.629C132.14 363.628 132.788 364.303 132.81 365.653L132.81 369.547L131.817 369.547L131.816 365.712C131.816 365.297 131.721 364.987 131.531 364.783C131.341 364.576 131.023 364.472 130.575 364.472C130.206 364.472 129.9 364.583 129.657 364.805C129.413 365.024 129.272 365.319 129.233 365.691L129.233 369.548L128.234 369.548L128.234 365.74C128.233 364.895 127.82 364.472 126.993 364.473C126.341 364.473 125.895 364.75 125.655 365.305L125.656 369.549L124.662 369.549L124.661 363.737L125.601 363.737ZM137.902 369.546C137.845 369.432 137.798 369.228 137.762 368.934C137.301 369.414 136.749 369.654 136.108 369.654C135.535 369.654 135.064 369.493 134.696 369.171C134.33 368.845 134.148 368.433 134.148 367.936C134.147 367.331 134.376 366.861 134.835 366.528C135.297 366.192 135.945 366.023 136.779 366.023L137.746 366.023L137.746 365.566C137.746 365.219 137.642 364.943 137.434 364.739C137.226 364.532 136.92 364.428 136.516 364.428C136.161 364.428 135.864 364.518 135.624 364.697C135.384 364.876 135.264 365.092 135.264 365.347L134.265 365.347C134.265 365.057 134.367 364.777 134.571 364.509C134.779 364.237 135.058 364.022 135.409 363.864C135.763 363.707 136.152 363.628 136.574 363.628C137.244 363.627 137.769 363.796 138.148 364.132C138.528 364.465 138.725 364.925 138.739 365.512L138.74 368.187C138.74 368.721 138.808 369.145 138.944 369.46L138.944 369.546L137.902 369.546ZM136.253 368.789C136.565 368.789 136.86 368.709 137.139 368.547C137.419 368.386 137.621 368.177 137.746 367.919L137.746 366.726L136.967 366.727C135.75 366.727 135.141 367.083 135.141 367.796C135.141 368.107 135.245 368.351 135.453 368.526C135.661 368.702 135.927 368.789 136.253 368.789ZM141.377 369.546L140.384 369.546L140.383 363.734L141.376 363.734L141.377 369.546ZM140.302 362.193C140.302 362.032 140.35 361.896 140.447 361.785C140.547 361.674 140.694 361.618 140.887 361.618C141.08 361.618 141.227 361.673 141.328 361.784C141.428 361.895 141.478 362.031 141.478 362.193C141.478 362.354 141.428 362.488 141.328 362.595C141.227 362.703 141.081 362.757 140.887 362.757C140.694 362.757 140.547 362.703 140.447 362.596C140.35 362.488 140.302 362.354 140.302 362.193ZM143.911 363.734L143.944 364.464C144.388 363.905 144.968 363.626 145.684 363.626C146.912 363.626 147.532 364.318 147.543 365.704L147.543 369.545L146.55 369.545L146.549 365.699C146.545 365.28 146.449 364.97 146.259 364.77C146.073 364.569 145.781 364.469 145.383 364.469C145.061 364.469 144.778 364.555 144.535 364.727C144.291 364.899 144.101 365.125 143.965 365.404L143.966 369.545L142.973 369.545L142.971 363.734L143.911 363.734Z" fill="white"/>
</svg>
