<svg width="1152" height="587" viewBox="0 0 1152 587" fill="none" xmlns="http://www.w3.org/2000/svg">
<path d="M0 0H1152V587H0V0Z" fill="white" fill-opacity="0.01"/>
<path d="M135.466 307H130.808V306.351L133.269 303.616C133.633 303.203 133.884 302.868 134.021 302.61C134.16 302.35 134.23 302.081 134.23 301.805C134.23 301.434 134.118 301.129 133.894 300.892C133.669 300.654 133.369 300.535 132.995 300.535C132.546 300.535 132.196 300.664 131.945 300.921C131.698 301.175 131.574 301.53 131.574 301.985H130.671C130.671 301.331 130.881 300.802 131.301 300.398C131.724 299.995 132.289 299.793 132.995 299.793C133.656 299.793 134.178 299.967 134.562 300.315C134.947 300.66 135.139 301.121 135.139 301.697C135.139 302.397 134.693 303.23 133.801 304.197L131.896 306.263H135.466V307ZM138.635 306.36C138.957 306.36 139.239 306.263 139.479 306.067C139.72 305.872 139.854 305.628 139.88 305.335H140.734C140.718 305.638 140.614 305.926 140.422 306.199C140.23 306.473 139.973 306.691 139.65 306.854C139.331 307.016 138.993 307.098 138.635 307.098C137.915 307.098 137.342 306.858 136.916 306.38C136.493 305.898 136.281 305.241 136.281 304.407V304.256C136.281 303.742 136.376 303.284 136.564 302.884C136.753 302.483 137.023 302.173 137.375 301.951C137.73 301.73 138.148 301.619 138.63 301.619C139.222 301.619 139.714 301.797 140.104 302.151C140.498 302.506 140.708 302.967 140.734 303.533H139.88C139.854 303.191 139.724 302.911 139.489 302.693C139.258 302.472 138.972 302.361 138.63 302.361C138.171 302.361 137.814 302.527 137.561 302.859C137.31 303.188 137.185 303.665 137.185 304.29V304.461C137.185 305.07 137.31 305.538 137.561 305.867C137.811 306.196 138.169 306.36 138.635 306.36ZM145.012 307C144.96 306.896 144.917 306.71 144.885 306.443C144.465 306.88 143.964 307.098 143.381 307.098C142.86 307.098 142.432 306.951 142.097 306.658C141.765 306.362 141.599 305.988 141.599 305.535C141.599 304.985 141.807 304.559 142.224 304.256C142.644 303.95 143.233 303.797 143.991 303.797H144.87V303.382C144.87 303.066 144.776 302.815 144.587 302.63C144.398 302.441 144.12 302.347 143.752 302.347C143.43 302.347 143.16 302.428 142.941 302.591C142.723 302.754 142.614 302.951 142.614 303.182H141.706C141.706 302.918 141.799 302.664 141.984 302.42C142.173 302.173 142.427 301.977 142.746 301.834C143.068 301.691 143.422 301.619 143.806 301.619C144.414 301.619 144.891 301.772 145.236 302.078C145.581 302.381 145.76 302.799 145.773 303.333V305.765C145.773 306.25 145.835 306.635 145.959 306.922V307H145.012ZM143.513 306.312C143.796 306.312 144.064 306.238 144.318 306.092C144.572 305.945 144.756 305.755 144.87 305.521V304.437H144.162C143.055 304.437 142.502 304.76 142.502 305.408C142.502 305.691 142.596 305.913 142.785 306.072C142.974 306.232 143.216 306.312 143.513 306.312ZM151.755 307H147.097V306.351L149.558 303.616C149.922 303.203 150.173 302.868 150.31 302.61C150.45 302.35 150.52 302.081 150.52 301.805C150.52 301.434 150.407 301.129 150.183 300.892C149.958 300.654 149.659 300.535 149.284 300.535C148.835 300.535 148.485 300.664 148.234 300.921C147.987 301.175 147.863 301.53 147.863 301.985H146.96C146.96 301.331 147.17 300.802 147.59 300.398C148.013 299.995 148.578 299.793 149.284 299.793C149.945 299.793 150.467 299.967 150.852 300.315C151.236 300.66 151.428 301.121 151.428 301.697C151.428 302.397 150.982 303.23 150.09 304.197L148.186 306.263H151.755V307ZM156.257 299.886V300.652H156.091C155.388 300.665 154.828 300.874 154.411 301.277C153.994 301.681 153.754 302.249 153.688 302.981C154.063 302.552 154.574 302.337 155.222 302.337C155.84 302.337 156.333 302.555 156.701 302.991C157.072 303.427 157.258 303.991 157.258 304.681C157.258 305.413 157.058 305.999 156.657 306.438C156.26 306.878 155.726 307.098 155.056 307.098C154.375 307.098 153.824 306.837 153.4 306.316C152.977 305.792 152.766 305.118 152.766 304.295V303.948C152.766 302.64 153.044 301.64 153.601 300.95C154.16 300.257 154.992 299.902 156.096 299.886H156.257ZM155.07 303.089C154.761 303.089 154.476 303.182 154.216 303.367C153.955 303.553 153.775 303.785 153.674 304.065V304.397C153.674 304.983 153.806 305.455 154.069 305.813C154.333 306.172 154.662 306.351 155.056 306.351C155.463 306.351 155.782 306.201 156.013 305.901C156.247 305.602 156.364 305.21 156.364 304.725C156.364 304.236 156.245 303.842 156.008 303.543C155.773 303.24 155.461 303.089 155.07 303.089ZM162.141 304.612H163.127V305.35H162.141V307H161.232V305.35H157.995V304.817L161.179 299.891H162.141V304.612ZM159.021 304.612H161.232V301.126L161.125 301.321L159.021 304.612ZM165.017 307H164.113V301.717H165.017V307ZM164.04 300.315C164.04 300.169 164.084 300.045 164.172 299.944C164.263 299.843 164.396 299.793 164.572 299.793C164.748 299.793 164.882 299.843 164.973 299.944C165.064 300.045 165.109 300.169 165.109 300.315C165.109 300.462 165.064 300.584 164.973 300.682C164.882 300.779 164.748 300.828 164.572 300.828C164.396 300.828 164.263 300.779 164.172 300.682C164.084 300.584 164.04 300.462 164.04 300.315ZM125.382 311.87H123.072V310.77H122.252V311.87H119.932V312.53H125.382V311.87ZM121.282 314.7C121.282 314.07 121.842 313.67 122.662 313.67C123.472 313.67 124.032 314.07 124.032 314.7C124.032 315.32 123.472 315.72 122.662 315.72C121.842 315.72 121.282 315.32 121.282 314.7ZM123.072 316.34C124.132 316.21 124.812 315.59 124.812 314.7C124.812 313.69 123.942 313.04 122.662 313.04C121.382 313.04 120.502 313.69 120.502 314.7C120.502 315.6 121.192 316.22 122.252 316.35V317.31C121.362 317.34 120.502 317.35 119.742 317.35L119.862 318.04C121.512 318.04 123.672 318.01 125.672 317.68L125.612 317.07C124.792 317.18 123.922 317.24 123.072 317.28V316.34ZM126.182 310.77V319.74H127.002V310.77H126.182ZM133.591 316.07V316.68H135.411V317.6H136.231V310.77H135.411V316.07H133.591ZM131.761 311.74C132.611 311.74 133.191 312.12 133.191 312.69C133.191 313.27 132.611 313.65 131.761 313.65C130.911 313.65 130.331 313.27 130.331 312.69C130.331 312.12 130.911 311.74 131.761 311.74ZM131.761 314.26C133.071 314.26 133.971 313.65 133.971 312.69C133.971 311.75 133.071 311.13 131.761 311.13C130.451 311.13 129.551 311.75 129.551 312.69C129.551 313.65 130.451 314.26 131.761 314.26ZM131.441 317.28H132.261V315.51C133.071 315.46 133.901 315.37 134.691 315.25L134.621 314.66C132.721 314.9 130.501 314.92 128.841 314.92L128.951 315.6C129.691 315.6 130.551 315.59 131.441 315.55V317.28ZM130.941 318.87V316.93H130.121V319.54H136.461V318.87H130.941ZM138.571 311.73V312.41H141.861C141.671 314.53 140.441 316.25 138.151 317.4L138.601 318.04C141.501 316.59 142.671 314.28 142.671 311.73H138.571ZM146.431 314.41H144.991V310.77H144.171V319.74H144.991V315.09H146.431V314.41ZM153.83 310.78V315.59H154.65V310.78H153.83ZM148.87 316.03V319.62H154.65V316.03H153.84V317.13H149.68V316.03H148.87ZM149.68 317.77H153.84V318.96H149.68V317.77ZM149.83 311.2C148.48 311.2 147.5 312.04 147.5 313.26C147.5 314.5 148.48 315.33 149.83 315.33C151.19 315.33 152.18 314.5 152.18 313.26C152.18 312.04 151.19 311.2 149.83 311.2ZM149.83 311.88C150.74 311.88 151.38 312.45 151.38 313.26C151.38 314.08 150.74 314.65 149.83 314.65C148.94 314.65 148.3 314.08 148.3 313.26C148.3 312.45 148.94 311.88 149.83 311.88ZM167.089 315.21H165.759C166.009 313.92 166.009 312.97 166.009 312.13V311.35H159.989V312.01H165.209V312.13C165.209 312.97 165.209 313.92 164.929 315.21H158.979V315.88H162.599V319.75H163.429V315.88H167.089V315.21ZM173.209 313.16V313.83H174.719V315.04H173.209V315.71H174.719V317.61H175.549V310.78H174.719V313.16H173.209ZM173.209 311.87H171.149V310.76H170.329V311.87H168.189V312.53H173.209V311.87ZM169.479 314.73C169.479 314.1 169.989 313.67 170.729 313.67C171.469 313.67 171.979 314.1 171.979 314.73C171.979 315.37 171.469 315.81 170.729 315.81C169.989 315.81 169.479 315.37 169.479 314.73ZM172.759 314.73C172.759 313.71 171.919 313.03 170.729 313.03C169.539 313.03 168.699 313.71 168.699 314.73C168.699 315.76 169.539 316.45 170.729 316.45C171.919 316.45 172.759 315.76 172.759 314.73ZM170.609 318.87V317.03H169.789V319.54H175.759V318.87H170.609Z" fill="black"/>
<path d="M270.34 342H269.397V338.714H265.813V342H264.876V334.891H265.813V337.947H269.397V334.891H270.34V342ZM276.023 338.714H272.942V341.233H276.521V342H272.005V334.891H276.473V335.662H272.942V337.947H276.023V338.714ZM281.614 340.145H278.636L277.967 342H277L279.715 334.891H280.535L283.255 342H282.293L281.614 340.145ZM278.919 339.373H281.336L280.125 336.048L278.919 339.373ZM284.212 342V334.891H286.219C286.837 334.891 287.384 335.027 287.859 335.301C288.335 335.574 288.701 335.963 288.958 336.468C289.218 336.972 289.35 337.552 289.354 338.206V338.66C289.354 339.331 289.223 339.918 288.963 340.423C288.706 340.927 288.336 341.315 287.854 341.585C287.376 341.855 286.818 341.993 286.18 342H284.212ZM285.149 335.662V341.233H286.136C286.858 341.233 287.42 341.009 287.82 340.56C288.224 340.11 288.426 339.471 288.426 338.641V338.226C288.426 337.418 288.235 336.792 287.854 336.346C287.477 335.896 286.94 335.669 286.243 335.662H285.149Z" fill="#4000C7"/>
<path d="M85.1863 359C83.5646 352.553 91.8523 338.272 137 339.029" stroke="#4000C7"/>
<rect x="115.824" y="100.124" width="18" height="41" rx="5" transform="rotate(-90.1738 115.824 100.124)" fill="black"/>
<rect x="115.824" y="221.124" width="18" height="41" rx="5" transform="rotate(-90.1738 115.824 221.124)" fill="black"/>
<rect x="115.824" y="375.124" width="18" height="41" rx="5" transform="rotate(-90.1738 115.824 375.124)" fill="black"/>
<rect x="177.824" y="348.124" width="18" height="70.7284" rx="5" transform="rotate(-90.1738 177.824 348.124)" fill="black"/>
<path d="M108.001 91.1934L116.251 87.7304L116.25 94.6586L108.001 91.1934Z" fill="black"/>
<path d="M108.001 212.194L116.251 208.731L116.25 215.659L108.001 212.194Z" fill="black"/>
<path d="M108.001 366.193L116.251 362.73L116.25 369.659L108.001 366.193Z" fill="black"/>
<path d="M170.001 339.194L178.251 335.731L178.25 342.659L170.001 339.194Z" fill="black"/>
<path d="M125.601 88.737L125.628 89.3815C126.054 88.8801 126.629 88.6294 127.352 88.6293C128.165 88.6291 128.718 88.9405 129.012 89.5635C129.205 89.2842 129.456 89.0586 129.764 88.8866C130.075 88.7147 130.442 88.6287 130.865 88.6286C132.14 88.6284 132.788 89.3032 132.81 90.6532L132.81 94.5472L131.817 94.5474L131.816 90.7124C131.816 90.2971 131.721 89.9874 131.531 89.7833C131.341 89.5756 131.023 89.4719 130.575 89.4719C130.206 89.472 129.9 89.5831 129.657 89.8051C129.413 90.0236 129.272 90.319 129.233 90.6914L129.233 94.5479L128.234 94.548L128.234 90.7399C128.233 89.8949 127.82 89.4724 126.993 89.4726C126.341 89.4727 125.895 89.7503 125.655 90.3053L125.656 94.5485L124.662 94.5487L124.661 88.7372L125.601 88.737ZM137.902 94.5463C137.845 94.4317 137.798 94.2276 137.762 93.934C137.301 94.4139 136.749 94.6539 136.108 94.654C135.535 94.6541 135.064 94.4931 134.696 94.1709C134.33 93.8451 134.148 93.4334 134.148 92.9356C134.147 92.3305 134.376 91.8614 134.835 91.5283C135.297 91.1916 135.945 91.0232 136.779 91.0231L137.746 91.0229L137.746 90.5663C137.746 90.219 137.642 89.9433 137.434 89.7393C137.226 89.5316 136.92 89.4278 136.516 89.4279C136.161 89.428 135.864 89.5175 135.624 89.6966C135.384 89.8757 135.264 90.0923 135.264 90.3466L134.265 90.3468C134.265 90.0567 134.367 89.7774 134.571 89.5088C134.779 89.2366 135.058 89.0217 135.409 88.8641C135.763 88.7065 136.152 88.6277 136.574 88.6276C137.244 88.6275 137.769 88.7957 138.148 89.1322C138.528 89.4651 138.725 89.9252 138.739 90.5125L138.74 93.1873C138.74 93.7208 138.808 94.1451 138.944 94.4602L138.944 94.5461L137.902 94.5463ZM136.253 93.7893C136.565 93.7892 136.86 93.7086 137.139 93.5474C137.419 93.3862 137.621 93.1767 137.746 92.9189L137.746 91.7265L136.967 91.7266C135.75 91.7269 135.141 92.0833 135.141 92.7958C135.141 93.1073 135.245 93.3508 135.453 93.5262C135.661 93.7016 135.927 93.7893 136.253 93.7893ZM141.377 94.5457L140.384 94.5458L140.383 88.7343L141.376 88.7341L141.377 94.5457ZM140.302 87.1928C140.302 87.0317 140.35 86.8956 140.447 86.7846C140.547 86.6736 140.694 86.6181 140.887 86.618C141.08 86.618 141.227 86.6735 141.328 86.7844C141.428 86.8954 141.478 87.0315 141.478 87.1926C141.478 87.3538 141.428 87.488 141.328 87.5955C141.227 87.7029 141.081 87.7567 140.887 87.7567C140.694 87.7567 140.547 87.703 140.447 87.5956C140.35 87.4882 140.302 87.354 140.302 87.1928ZM143.911 88.7337L143.944 89.4641C144.388 88.9055 144.968 88.6261 145.684 88.6259C146.912 88.6257 147.532 89.3185 147.543 90.7042L147.543 94.5445L146.55 94.5447L146.549 90.699C146.545 90.2801 146.449 89.9704 146.259 89.7699C146.073 89.5694 145.781 89.4692 145.383 89.4693C145.061 89.4693 144.778 89.5553 144.535 89.7272C144.291 89.8991 144.101 90.1248 143.965 90.4041L143.966 94.5452L142.973 94.5454L142.971 88.7339L143.911 88.7337Z" fill="white"/>
<path d="M125.601 209.737L125.628 210.382C126.054 209.88 126.629 209.63 127.352 209.63C128.165 209.629 128.718 209.941 129.012 210.564C129.205 210.284 129.456 210.059 129.764 209.887C130.075 209.715 130.442 209.629 130.865 209.629C132.14 209.629 132.788 210.303 132.81 211.653L132.81 215.547L131.817 215.548L131.816 211.713C131.816 211.297 131.721 210.988 131.531 210.784C131.341 210.576 131.023 210.472 130.575 210.472C130.206 210.472 129.9 210.583 129.657 210.805C129.413 211.024 129.272 211.319 129.233 211.692L129.233 215.548L128.234 215.548L128.234 211.74C128.233 210.895 127.82 210.473 126.993 210.473C126.341 210.473 125.895 210.751 125.655 211.306L125.656 215.549L124.662 215.549L124.661 209.737L125.601 209.737ZM137.902 215.547C137.845 215.432 137.798 215.228 137.762 214.934C137.301 215.414 136.749 215.654 136.108 215.654C135.535 215.654 135.064 215.493 134.696 215.171C134.33 214.845 134.148 214.434 134.148 213.936C134.147 213.331 134.376 212.862 134.835 212.529C135.297 212.192 135.945 212.023 136.779 212.023L137.746 212.023L137.746 211.567C137.746 211.219 137.642 210.944 137.434 210.739C137.226 210.532 136.92 210.428 136.516 210.428C136.161 210.428 135.864 210.518 135.624 210.697C135.384 210.876 135.264 211.093 135.264 211.347L134.265 211.347C134.265 211.057 134.367 210.778 134.571 210.509C134.779 210.237 135.058 210.022 135.409 209.864C135.763 209.707 136.152 209.628 136.574 209.628C137.244 209.628 137.769 209.796 138.148 210.132C138.528 210.465 138.725 210.925 138.739 211.513L138.74 214.188C138.74 214.721 138.808 215.145 138.944 215.46L138.944 215.546L137.902 215.547ZM136.253 214.79C136.565 214.789 136.86 214.709 137.139 214.548C137.419 214.386 137.621 214.177 137.746 213.919L137.746 212.727L136.967 212.727C135.75 212.727 135.141 213.083 135.141 213.796C135.141 214.108 135.245 214.351 135.453 214.526C135.661 214.702 135.927 214.79 136.253 214.79ZM141.377 215.546L140.384 215.546L140.383 209.735L141.376 209.734L141.377 215.546ZM140.302 208.193C140.302 208.032 140.35 207.896 140.447 207.785C140.547 207.674 140.694 207.618 140.887 207.618C141.08 207.618 141.227 207.674 141.328 207.785C141.428 207.896 141.478 208.032 141.478 208.193C141.478 208.354 141.428 208.488 141.328 208.596C141.227 208.703 141.081 208.757 140.887 208.757C140.694 208.757 140.547 208.703 140.447 208.596C140.35 208.488 140.302 208.354 140.302 208.193ZM143.911 209.734L143.944 210.464C144.388 209.906 144.968 209.626 145.684 209.626C146.912 209.626 147.532 210.319 147.543 211.704L147.543 215.545L146.55 215.545L146.549 211.699C146.545 211.28 146.449 210.971 146.259 210.77C146.073 210.57 145.781 210.469 145.383 210.47C145.061 210.47 144.778 210.556 144.535 210.727C144.291 210.899 144.101 211.125 143.965 211.404L143.966 215.545L142.973 215.546L142.971 209.734L143.911 209.734Z" fill="white"/>
<path d="M125.601 363.737L125.628 364.382C126.054 363.88 126.629 363.629 127.352 363.629C128.165 363.629 128.718 363.941 129.012 364.564C129.205 364.284 129.456 364.059 129.764 363.887C130.075 363.715 130.442 363.629 130.865 363.629C132.14 363.628 132.788 364.303 132.81 365.653L132.81 369.547L131.817 369.547L131.816 365.712C131.816 365.297 131.721 364.987 131.531 364.783C131.341 364.576 131.023 364.472 130.575 364.472C130.206 364.472 129.9 364.583 129.657 364.805C129.413 365.024 129.272 365.319 129.233 365.691L129.233 369.548L128.234 369.548L128.234 365.74C128.233 364.895 127.82 364.472 126.993 364.473C126.341 364.473 125.895 364.75 125.655 365.305L125.656 369.549L124.662 369.549L124.661 363.737L125.601 363.737ZM137.902 369.546C137.845 369.432 137.798 369.228 137.762 368.934C137.301 369.414 136.749 369.654 136.108 369.654C135.535 369.654 135.064 369.493 134.696 369.171C134.33 368.845 134.148 368.433 134.148 367.936C134.147 367.331 134.376 366.861 134.835 366.528C135.297 366.192 135.945 366.023 136.779 366.023L137.746 366.023L137.746 365.566C137.746 365.219 137.642 364.943 137.434 364.739C137.226 364.532 136.92 364.428 136.516 364.428C136.161 364.428 135.864 364.518 135.624 364.697C135.384 364.876 135.264 365.092 135.264 365.347L134.265 365.347C134.265 365.057 134.367 364.777 134.571 364.509C134.779 364.237 135.058 364.022 135.409 363.864C135.763 363.707 136.152 363.628 136.574 363.628C137.244 363.627 137.769 363.796 138.148 364.132C138.528 364.465 138.725 364.925 138.739 365.512L138.74 368.187C138.74 368.721 138.808 369.145 138.944 369.46L138.944 369.546L137.902 369.546ZM136.253 368.789C136.565 368.789 136.86 368.709 137.139 368.547C137.419 368.386 137.621 368.177 137.746 367.919L137.746 366.726L136.967 366.727C135.75 366.727 135.141 367.083 135.141 367.796C135.141 368.107 135.245 368.351 135.453 368.526C135.661 368.702 135.927 368.789 136.253 368.789ZM141.377 369.546L140.384 369.546L140.383 363.734L141.376 363.734L141.377 369.546ZM140.302 362.193C140.302 362.032 140.35 361.896 140.447 361.785C140.547 361.674 140.694 361.618 140.887 361.618C141.08 361.618 141.227 361.673 141.328 361.784C141.428 361.895 141.478 362.031 141.478 362.193C141.478 362.354 141.428 362.488 141.328 362.595C141.227 362.703 141.081 362.757 140.887 362.757C140.694 362.757 140.547 362.703 140.447 362.596C140.35 362.488 140.302 362.354 140.302 362.193ZM143.911 363.734L143.944 364.464C144.388 363.905 144.968 363.626 145.684 363.626C146.912 363.626 147.532 364.318 147.543 365.704L147.543 369.545L146.55 369.545L146.549 365.699C146.545 365.28 146.449 364.97 146.259 364.77C146.073 364.569 145.781 364.469 145.383 364.469C145.061 364.469 144.778 364.555 144.535 364.727C144.291 364.899 144.101 365.125 143.965 365.404L143.966 369.545L142.973 369.545L142.971 363.734L143.911 363.734Z" fill="white"/>
<path d="M187.157 342.549L187.156 337.505L186.237 337.506L186.237 336.737L187.156 336.737L187.155 336.141C187.155 335.518 187.322 335.036 187.655 334.696C187.988 334.356 188.458 334.186 189.067 334.186C189.296 334.186 189.524 334.216 189.749 334.277L189.696 335.083C189.527 335.05 189.348 335.034 189.159 335.034C188.836 335.034 188.588 335.129 188.412 335.319C188.237 335.505 188.149 335.774 188.149 336.125L188.149 336.737L189.39 336.737L189.39 337.505L188.149 337.505L188.15 342.549L187.157 342.549ZM192.775 342.655C191.987 342.655 191.346 342.398 190.852 341.882C190.358 341.363 190.11 340.67 190.11 339.804L190.11 339.621C190.11 339.045 190.219 338.531 190.438 338.08C190.659 337.625 190.967 337.27 191.361 337.016C191.759 336.758 192.188 336.629 192.65 336.629C193.406 336.629 193.993 336.878 194.412 337.375C194.831 337.873 195.041 338.585 195.041 339.513L195.041 339.926L191.104 339.927C191.118 340.5 191.285 340.964 191.604 341.318C191.926 341.669 192.334 341.844 192.828 341.844C193.179 341.844 193.476 341.772 193.72 341.629C193.963 341.486 194.176 341.296 194.359 341.06L194.966 341.532C194.479 342.281 193.749 342.655 192.775 342.655ZM192.65 337.445C192.249 337.445 191.913 337.592 191.641 337.886C191.369 338.176 191.2 338.584 191.136 339.111L194.047 339.11L194.047 339.035C194.018 338.53 193.882 338.14 193.639 337.864C193.395 337.585 193.066 337.445 192.65 337.445ZM199.784 342.547C199.727 342.432 199.68 342.228 199.644 341.934C199.182 342.414 198.631 342.654 197.99 342.654C197.417 342.654 196.946 342.493 196.577 342.171C196.212 341.845 196.029 341.434 196.029 340.936C196.029 340.331 196.258 339.862 196.717 339.529C197.178 339.192 197.827 339.023 198.661 339.023L199.628 339.023L199.628 338.567C199.627 338.219 199.524 337.944 199.316 337.74C199.108 337.532 198.802 337.428 198.397 337.428C198.043 337.428 197.746 337.518 197.506 337.697C197.266 337.876 197.146 338.093 197.146 338.347L196.147 338.347C196.147 338.057 196.249 337.778 196.453 337.509C196.661 337.237 196.94 337.022 197.291 336.864C197.645 336.707 198.034 336.628 198.456 336.628C199.126 336.628 199.651 336.796 200.03 337.132C200.41 337.465 200.607 337.925 200.621 338.513L200.622 341.188C200.622 341.721 200.69 342.145 200.826 342.46L200.826 342.546L199.784 342.547ZM198.135 341.79C198.446 341.789 198.742 341.709 199.021 341.548C199.3 341.386 199.503 341.177 199.628 340.919L199.628 339.727L198.849 339.727C197.632 339.727 197.023 340.084 197.023 340.796C197.023 341.108 197.127 341.351 197.335 341.526C197.542 341.702 197.809 341.79 198.135 341.79ZM203.526 335.327L203.527 336.734L204.612 336.734L204.612 337.502L203.527 337.502L203.527 341.106C203.527 341.339 203.576 341.515 203.673 341.633C203.769 341.747 203.934 341.805 204.167 341.805C204.281 341.805 204.439 341.783 204.639 341.74L204.64 342.546C204.378 342.617 204.124 342.653 203.877 342.653C203.433 342.653 203.098 342.519 202.872 342.251C202.647 341.982 202.534 341.601 202.534 341.107L202.533 337.503L201.475 337.503L201.475 336.735L202.533 336.735L202.533 335.327L203.526 335.327ZM205.977 343.217L205.123 343.217L208.387 334.725L209.236 334.725L205.977 343.217ZM213.695 341.003C213.695 340.734 213.593 340.526 213.389 340.38C213.188 340.229 212.835 340.1 212.33 339.993C211.829 339.886 211.43 339.757 211.133 339.607C210.839 339.456 210.621 339.277 210.477 339.07C210.338 338.862 210.268 338.615 210.268 338.328C210.268 337.852 210.468 337.449 210.869 337.12C211.274 336.79 211.789 336.625 212.416 336.625C213.075 336.625 213.608 336.795 214.016 337.135C214.428 337.475 214.634 337.91 214.634 338.44L213.635 338.441C213.635 338.168 213.519 337.934 213.286 337.737C213.057 337.54 212.767 337.442 212.416 337.442C212.054 337.442 211.771 337.521 211.567 337.678C211.363 337.836 211.261 338.042 211.261 338.296C211.261 338.536 211.356 338.717 211.546 338.838C211.736 338.96 212.078 339.076 212.572 339.187C213.07 339.298 213.473 339.431 213.781 339.585C214.089 339.738 214.316 339.925 214.463 340.143C214.613 340.358 214.688 340.621 214.689 340.933C214.689 341.452 214.481 341.869 214.066 342.184C213.65 342.496 213.112 342.652 212.449 342.652C211.984 342.652 211.572 342.569 211.214 342.405C210.856 342.24 210.574 342.011 210.37 341.717C210.17 341.42 210.069 341.1 210.069 340.756L211.063 340.756C211.081 341.089 211.214 341.354 211.461 341.551C211.711 341.744 212.041 341.841 212.449 341.841C212.825 341.841 213.126 341.765 213.351 341.615C213.58 341.461 213.695 341.257 213.695 341.003ZM217.063 342.543L216.069 342.544L216.068 336.732L217.062 336.732L217.063 342.543ZM215.987 335.191C215.987 335.029 216.036 334.893 216.132 334.782C216.232 334.671 216.379 334.616 216.573 334.616C216.766 334.616 216.913 334.671 217.013 334.782C217.113 334.893 217.164 335.029 217.164 335.19C217.164 335.352 217.113 335.486 217.013 335.593C216.913 335.701 216.766 335.754 216.573 335.754C216.379 335.754 216.233 335.701 216.132 335.593C216.036 335.486 215.987 335.352 215.987 335.191ZM218.421 339.589C218.421 338.683 218.63 337.963 219.049 337.43C219.468 336.893 220.023 336.624 220.714 336.624C221.423 336.624 221.976 336.874 222.374 337.375L222.422 336.731L223.33 336.731L223.331 342.403C223.331 343.155 223.107 343.747 222.66 344.181C222.216 344.614 221.618 344.831 220.866 344.831C220.447 344.831 220.037 344.741 219.636 344.562C219.235 344.384 218.929 344.138 218.717 343.827L219.233 343.231C219.659 343.757 220.18 344.02 220.796 344.02C221.279 344.02 221.655 343.884 221.924 343.611C222.196 343.339 222.332 342.956 222.332 342.462L222.332 341.962C221.934 342.421 221.392 342.65 220.704 342.65C220.024 342.65 219.473 342.376 219.05 341.829C218.631 341.281 218.421 340.534 218.421 339.589ZM219.42 339.702C219.42 340.357 219.555 340.873 219.823 341.248C220.092 341.621 220.468 341.807 220.951 341.807C221.578 341.807 222.038 341.522 222.332 340.953L222.331 338.299C222.027 337.744 221.57 337.467 220.961 337.467C220.478 337.467 220.1 337.655 219.828 338.031C219.556 338.407 219.42 338.964 219.42 339.702ZM225.774 336.73L225.806 337.461C226.25 336.902 226.83 336.623 227.546 336.623C228.774 336.622 229.394 337.315 229.405 338.701L229.406 342.541L228.412 342.541L228.411 338.696C228.408 338.277 228.311 337.967 228.121 337.767C227.935 337.566 227.643 337.466 227.246 337.466C226.923 337.466 226.64 337.552 226.397 337.724C226.153 337.896 225.964 338.121 225.828 338.401L225.828 342.542L224.835 342.542L224.834 336.731L225.774 336.73ZM234.492 341.966C234.105 342.42 233.538 342.648 232.789 342.648C232.17 342.648 231.697 342.469 231.371 342.111C231.049 341.75 230.886 341.216 230.882 340.511L230.882 336.729L231.875 336.729L231.876 340.484C231.876 341.364 232.234 341.805 232.95 341.805C233.71 341.805 234.214 341.522 234.465 340.956L234.464 336.729L235.458 336.729L235.459 342.54L234.514 342.54L234.492 341.966ZM241.882 339.698C241.882 340.582 241.68 341.295 241.276 341.835C240.871 342.376 240.323 342.647 239.632 342.647C238.927 342.647 238.372 342.423 237.967 341.976L237.968 344.774L236.974 344.774L236.972 336.728L237.88 336.728L237.929 337.373C238.333 336.871 238.895 336.621 239.615 336.62C240.313 336.62 240.865 336.883 241.269 337.41C241.678 337.936 241.882 338.668 241.882 339.606L241.882 339.698ZM240.888 339.585C240.888 338.93 240.749 338.412 240.469 338.033C240.19 337.653 239.807 337.464 239.32 337.464C238.718 337.464 238.267 337.731 237.966 338.264L237.967 341.041C238.264 341.571 238.719 341.836 239.331 341.836C239.808 341.836 240.185 341.648 240.464 341.272C240.747 340.892 240.889 340.33 240.888 339.585Z" fill="white"/>
<circle cx="84.5" cy="366.5" r="9.5" fill="#4000C7"/>
<circle cx="84.5" cy="212.5" r="9.5" fill="#4000C7"/>
<circle cx="84.5" cy="91.5" r="9.5" fill="#4000C7"/>
<circle cx="145.5" cy="339.5" r="9.5" fill="#4000C7"/>
</svg>
