<svg width="1152" height="587" viewBox="0 0 1152 587" fill="none" xmlns="http://www.w3.org/2000/svg">
<path d="M0 0H1152V587H0V0Z" fill="white" fill-opacity="0.01"/>
<path d="M384.34 342H383.397V338.714H379.813V342H378.876V334.891H379.813V337.947H383.397V334.891H384.34V342ZM390.023 338.714H386.942V341.233H390.521V342H386.005V334.891H390.473V335.662H386.942V337.947H390.023V338.714ZM395.614 340.145H392.636L391.967 342H391L393.715 334.891H394.535L397.255 342H396.293L395.614 340.145ZM392.919 339.373H395.336L394.125 336.048L392.919 339.373ZM398.212 342V334.891H400.219C400.837 334.891 401.384 335.027 401.859 335.301C402.335 335.574 402.701 335.963 402.958 336.468C403.218 336.972 403.35 337.552 403.354 338.206V338.66C403.354 339.331 403.223 339.918 402.963 340.423C402.706 340.927 402.336 341.315 401.854 341.585C401.376 341.855 400.818 341.993 400.18 342H398.212ZM399.149 335.662V341.233H400.136C400.858 341.233 401.42 341.009 401.82 340.56C402.224 340.11 402.426 339.471 402.426 338.641V338.226C402.426 337.418 402.235 336.792 401.854 336.346C401.477 335.896 400.94 335.669 400.243 335.662H399.149Z" fill="#4000C7"/>
<path d="M268.814 332C270.435 325.553 262.148 311.272 217 312.029" stroke="#4000C7"/>
<rect x="297.824" y="348.124" width="18" height="70.7284" rx="5" transform="rotate(-90.1738 297.824 348.124)" fill="black"/>
<rect x="313.824" y="321.264" width="18" height="102.065" rx="5" transform="rotate(-90.1738 313.824 321.264)" fill="black"/>
<path d="M290.001 339.193L298.251 335.73L298.25 342.659L290.001 339.193Z" fill="black"/>
<path d="M306.001 312.333L314.251 308.87L314.25 315.798L306.001 312.333Z" fill="black"/>
<path d="M307.157 342.549L307.156 337.505L306.237 337.505L306.237 336.737L307.156 336.737L307.155 336.141C307.155 335.518 307.322 335.036 307.655 334.696C307.988 334.356 308.458 334.186 309.067 334.185C309.296 334.185 309.524 334.216 309.749 334.277L309.696 335.082C309.527 335.05 309.348 335.034 309.159 335.034C308.836 335.034 308.588 335.129 308.412 335.319C308.237 335.505 308.149 335.774 308.149 336.125L308.149 336.737L309.39 336.737L309.39 337.505L308.149 337.505L308.15 342.548L307.157 342.549ZM312.775 342.655C311.987 342.655 311.346 342.397 310.852 341.882C310.358 341.363 310.11 340.67 310.11 339.803L310.11 339.621C310.11 339.044 310.219 338.53 310.438 338.079C310.659 337.624 310.967 337.27 311.361 337.016C311.759 336.758 312.188 336.629 312.65 336.629C313.406 336.629 313.993 336.877 314.412 337.375C314.831 337.873 315.041 338.585 315.041 339.513L315.041 339.926L311.104 339.927C311.118 340.5 311.285 340.963 311.604 341.318C311.926 341.669 312.334 341.844 312.828 341.844C313.179 341.844 313.476 341.772 313.72 341.629C313.963 341.486 314.176 341.296 314.359 341.06L314.966 341.532C314.479 342.281 313.749 342.655 312.775 342.655ZM312.65 337.445C312.249 337.445 311.913 337.592 311.641 337.886C311.369 338.176 311.2 338.584 311.136 339.11L314.047 339.11L314.047 339.035C314.018 338.53 313.882 338.14 313.639 337.864C313.395 337.585 313.066 337.445 312.65 337.445ZM319.784 342.546C319.727 342.432 319.68 342.228 319.644 341.934C319.182 342.414 318.631 342.654 317.99 342.654C317.417 342.654 316.946 342.493 316.577 342.171C316.212 341.845 316.029 341.433 316.029 340.936C316.029 340.331 316.258 339.861 316.717 339.528C317.178 339.192 317.827 339.023 318.661 339.023L319.628 339.023L319.628 338.566C319.627 338.219 319.524 337.943 319.316 337.739C319.108 337.532 318.802 337.428 318.397 337.428C318.043 337.428 317.746 337.518 317.506 337.697C317.266 337.876 317.146 338.092 317.146 338.347L316.147 338.347C316.147 338.057 316.249 337.777 316.453 337.509C316.661 337.237 316.94 337.022 317.291 336.864C317.645 336.707 318.034 336.628 318.456 336.628C319.126 336.627 319.651 336.796 320.03 337.132C320.41 337.465 320.607 337.925 320.621 338.512L320.622 341.187C320.622 341.721 320.69 342.145 320.826 342.46L320.826 342.546L319.784 342.546ZM318.135 341.789C318.446 341.789 318.742 341.709 319.021 341.547C319.3 341.386 319.503 341.177 319.628 340.919L319.628 339.727L318.849 339.727C317.632 339.727 317.023 340.083 317.023 340.796C317.023 341.107 317.127 341.351 317.335 341.526C317.542 341.702 317.809 341.789 318.135 341.789ZM323.526 335.327L323.527 336.734L324.612 336.734L324.612 337.502L323.527 337.502L323.527 341.106C323.527 341.339 323.576 341.514 323.673 341.633C323.769 341.747 323.934 341.804 324.167 341.804C324.281 341.804 324.439 341.783 324.639 341.74L324.64 342.545C324.378 342.617 324.124 342.653 323.877 342.653C323.433 342.653 323.098 342.519 322.872 342.25C322.647 341.982 322.534 341.601 322.534 341.106L322.533 337.502L321.475 337.503L321.475 336.734L322.533 336.734L322.533 335.327L323.526 335.327ZM325.977 343.217L325.123 343.217L328.387 334.724L329.236 334.724L325.977 343.217ZM333.695 341.002C333.695 340.734 333.593 340.526 333.389 340.379C333.188 340.229 332.835 340.1 332.33 339.993C331.829 339.885 331.43 339.757 331.133 339.606C330.839 339.456 330.621 339.277 330.477 339.069C330.338 338.862 330.268 338.615 330.268 338.328C330.268 337.852 330.468 337.449 330.869 337.12C331.274 336.79 331.789 336.625 332.416 336.625C333.075 336.625 333.608 336.795 334.016 337.135C334.428 337.475 334.634 337.91 334.634 338.44L333.635 338.44C333.635 338.168 333.519 337.934 333.286 337.737C333.057 337.54 332.767 337.441 332.416 337.441C332.054 337.442 331.771 337.52 331.567 337.678C331.363 337.836 331.261 338.041 331.261 338.296C331.261 338.536 331.356 338.716 331.546 338.838C331.736 338.96 332.078 339.076 332.572 339.187C333.07 339.298 333.473 339.43 333.781 339.584C334.089 339.738 334.316 339.924 334.463 340.143C334.613 340.358 334.688 340.621 334.689 340.932C334.689 341.451 334.481 341.869 334.066 342.184C333.65 342.495 333.112 342.651 332.449 342.651C331.984 342.652 331.572 342.569 331.214 342.405C330.856 342.24 330.574 342.011 330.37 341.717C330.17 341.42 330.069 341.1 330.069 340.756L331.063 340.756C331.081 341.089 331.214 341.354 331.461 341.551C331.711 341.744 332.041 341.84 332.449 341.84C332.825 341.84 333.126 341.765 333.351 341.615C333.58 341.461 333.695 341.257 333.695 341.002ZM337.063 342.543L336.069 342.543L336.068 336.732L337.062 336.732L337.063 342.543ZM335.987 335.19C335.987 335.029 336.036 334.893 336.132 334.782C336.232 334.671 336.379 334.616 336.573 334.616C336.766 334.616 336.913 334.671 337.013 334.782C337.113 334.893 337.164 335.029 337.164 335.19C337.164 335.351 337.113 335.486 337.013 335.593C336.913 335.7 336.766 335.754 336.573 335.754C336.379 335.754 336.233 335.701 336.132 335.593C336.036 335.486 335.987 335.351 335.987 335.19ZM338.421 339.589C338.421 338.683 338.63 337.963 339.049 337.43C339.468 336.892 340.023 336.624 340.714 336.624C341.423 336.623 341.976 336.874 342.374 337.375L342.422 336.731L343.33 336.731L343.331 342.402C343.331 343.154 343.107 343.747 342.66 344.18C342.216 344.614 341.618 344.83 340.866 344.831C340.447 344.831 340.037 344.741 339.636 344.562C339.235 344.383 338.929 344.138 338.717 343.827L339.233 343.23C339.659 343.757 340.18 344.02 340.796 344.02C341.279 344.019 341.655 343.883 341.924 343.611C342.196 343.339 342.332 342.956 342.332 342.462L342.332 341.962C341.934 342.421 341.392 342.65 340.704 342.65C340.024 342.65 339.473 342.376 339.05 341.828C338.631 341.281 338.421 340.534 338.421 339.589ZM339.42 339.701C339.42 340.357 339.555 340.872 339.823 341.248C340.092 341.621 340.468 341.807 340.951 341.807C341.578 341.807 342.038 341.522 342.332 340.952L342.331 338.299C342.027 337.744 341.57 337.467 340.961 337.467C340.478 337.467 340.1 337.655 339.828 338.031C339.556 338.407 339.42 338.964 339.42 339.701ZM345.774 336.73L345.806 337.461C346.25 336.902 346.83 336.622 347.546 336.622C348.774 336.622 349.394 337.315 349.405 338.701L349.406 342.541L348.412 342.541L348.411 338.695C348.408 338.276 348.311 337.967 348.121 337.766C347.935 337.566 347.643 337.466 347.246 337.466C346.923 337.466 346.64 337.552 346.397 337.724C346.153 337.896 345.964 338.121 345.828 338.4L345.828 342.542L344.835 342.542L344.834 336.73L345.774 336.73ZM354.492 341.965C354.105 342.42 353.538 342.648 352.789 342.648C352.17 342.648 351.697 342.469 351.371 342.111C351.049 341.749 350.886 341.216 350.882 340.51L350.882 336.729L351.875 336.729L351.876 340.483C351.876 341.364 352.234 341.805 352.95 341.804C353.71 341.804 354.214 341.521 354.465 340.956L354.464 336.729L355.458 336.728L355.459 342.54L354.514 342.54L354.492 341.965ZM361.882 339.697C361.882 340.582 361.68 341.294 361.276 341.835C360.871 342.376 360.323 342.646 359.632 342.647C358.927 342.647 358.372 342.423 357.967 341.975L357.968 344.774L356.974 344.774L356.972 336.728L357.88 336.728L357.929 337.372C358.333 336.871 358.895 336.62 359.615 336.62C360.313 336.62 360.865 336.883 361.269 337.409C361.678 337.936 361.882 338.668 361.882 339.606L361.882 339.697ZM360.888 339.585C360.888 338.93 360.749 338.412 360.469 338.033C360.19 337.653 359.807 337.463 359.32 337.463C358.718 337.464 358.267 337.73 357.966 338.264L357.967 341.041C358.264 341.571 358.719 341.836 359.331 341.836C359.808 341.835 360.185 341.647 360.464 341.271C360.747 340.892 360.889 340.33 360.888 339.585Z" fill="white"/>
<path d="M323.157 315.688L323.156 310.645L322.237 310.645L322.237 309.877L323.156 309.877L323.155 309.281C323.155 308.657 323.322 308.176 323.655 307.836C323.988 307.495 324.458 307.325 325.067 307.325C325.296 307.325 325.524 307.355 325.749 307.416L325.696 308.222C325.527 308.19 325.348 308.174 325.159 308.174C324.836 308.174 324.588 308.269 324.412 308.459C324.237 308.645 324.149 308.913 324.149 309.264L324.149 309.877L325.39 309.876L325.39 310.644L324.149 310.645L324.15 315.688L323.157 315.688ZM328.775 315.795C327.987 315.795 327.346 315.537 326.852 315.022C326.358 314.502 326.11 313.81 326.11 312.943L326.11 312.76C326.11 312.184 326.219 311.67 326.438 311.219C326.659 310.764 326.967 310.41 327.361 310.155C327.759 309.897 328.188 309.768 328.65 309.768C329.406 309.768 329.993 310.017 330.412 310.515C330.831 311.012 331.041 311.725 331.041 312.652L331.041 313.066L327.104 313.066C327.118 313.639 327.285 314.103 327.604 314.457C327.926 314.808 328.334 314.984 328.828 314.984C329.179 314.984 329.476 314.912 329.72 314.769C329.963 314.625 330.176 314.436 330.359 314.199L330.966 314.672C330.479 315.42 329.749 315.794 328.775 315.795ZM328.65 310.585C328.249 310.585 327.913 310.732 327.641 311.025C327.369 311.315 327.2 311.724 327.136 312.25L330.047 312.25L330.047 312.174C330.018 311.669 329.882 311.279 329.639 311.003C329.395 310.724 329.066 310.585 328.65 310.585ZM335.784 315.686C335.727 315.571 335.68 315.367 335.644 315.074C335.182 315.554 334.631 315.794 333.99 315.794C333.417 315.794 332.946 315.633 332.577 315.311C332.212 314.985 332.029 314.573 332.029 314.075C332.029 313.47 332.258 313.001 332.717 312.668C333.178 312.331 333.827 312.163 334.661 312.163L335.628 312.163L335.628 311.706C335.627 311.359 335.524 311.083 335.316 310.879C335.108 310.671 334.802 310.567 334.397 310.568C334.043 310.568 333.746 310.657 333.506 310.836C333.266 311.015 333.146 311.232 333.146 311.486L332.147 311.486C332.147 311.196 332.249 310.917 332.453 310.648C332.661 310.376 332.94 310.161 333.291 310.004C333.645 309.846 334.034 309.767 334.456 309.767C335.126 309.767 335.651 309.935 336.03 310.272C336.41 310.605 336.607 311.065 336.621 311.652L336.622 314.327C336.622 314.86 336.69 315.285 336.826 315.6L336.826 315.686L335.784 315.686ZM334.135 314.929C334.446 314.929 334.742 314.848 335.021 314.687C335.3 314.526 335.503 314.316 335.628 314.059L335.628 312.866L334.849 312.866C333.632 312.867 333.023 313.223 333.023 313.935C333.023 314.247 333.127 314.49 333.335 314.666C333.542 314.841 333.809 314.929 334.135 314.929ZM339.526 308.467L339.527 309.874L340.612 309.874L340.612 310.642L339.527 310.642L339.527 314.246C339.527 314.479 339.576 314.654 339.673 314.772C339.769 314.887 339.934 314.944 340.167 314.944C340.281 314.944 340.439 314.922 340.639 314.879L340.64 315.685C340.378 315.757 340.124 315.793 339.877 315.793C339.433 315.793 339.098 315.659 338.872 315.39C338.647 315.121 338.534 314.74 338.534 314.246L338.533 310.642L337.475 310.642L337.475 309.874L338.533 309.874L338.533 308.467L339.526 308.467ZM341.977 316.356L341.123 316.356L344.387 307.864L345.236 307.864L341.977 316.356ZM349.695 314.142C349.695 313.873 349.593 313.666 349.389 313.519C349.188 313.369 348.835 313.24 348.33 313.132C347.829 313.025 347.43 312.896 347.133 312.746C346.839 312.596 346.621 312.417 346.477 312.209C346.338 312.001 346.268 311.754 346.268 311.468C346.268 310.992 346.468 310.589 346.869 310.259C347.274 309.93 347.789 309.765 348.416 309.765C349.075 309.765 349.608 309.935 350.016 310.275C350.428 310.615 350.634 311.05 350.634 311.58L349.635 311.58C349.635 311.308 349.519 311.073 349.286 310.876C349.057 310.679 348.767 310.581 348.416 310.581C348.054 310.581 347.771 310.66 347.567 310.818C347.363 310.975 347.261 311.181 347.261 311.435C347.261 311.675 347.356 311.856 347.546 311.978C347.736 312.099 348.078 312.216 348.572 312.327C349.07 312.438 349.473 312.57 349.781 312.724C350.089 312.878 350.316 313.064 350.463 313.282C350.613 313.497 350.688 313.76 350.689 314.072C350.689 314.591 350.481 315.008 350.066 315.324C349.65 315.635 349.112 315.791 348.449 315.791C347.984 315.791 347.572 315.709 347.214 315.544C346.856 315.38 346.574 315.15 346.37 314.857C346.17 314.56 346.069 314.239 346.069 313.896L347.063 313.895C347.081 314.228 347.214 314.493 347.461 314.69C347.711 314.884 348.041 314.98 348.449 314.98C348.825 314.98 349.126 314.905 349.351 314.754C349.58 314.6 349.695 314.396 349.695 314.142ZM353.063 315.683L352.069 315.683L352.068 309.871L353.062 309.871L353.063 315.683ZM351.987 308.33C351.987 308.169 352.036 308.033 352.132 307.922C352.232 307.811 352.379 307.755 352.573 307.755C352.766 307.755 352.913 307.811 353.013 307.922C353.113 308.033 353.164 308.169 353.164 308.33C353.164 308.491 353.113 308.625 353.013 308.733C352.913 308.84 352.766 308.894 352.573 308.894C352.379 308.894 352.233 308.84 352.132 308.733C352.036 308.625 351.987 308.491 351.987 308.33ZM354.421 312.728C354.421 311.823 354.63 311.103 355.049 310.569C355.468 310.032 356.023 309.763 356.714 309.763C357.423 309.763 357.976 310.014 358.374 310.515L358.422 309.87L359.33 309.87L359.331 315.542C359.331 316.294 359.107 316.887 358.66 317.32C358.216 317.753 357.618 317.97 356.866 317.97C356.447 317.97 356.037 317.881 355.636 317.702C355.235 317.523 354.929 317.278 354.717 316.966L355.233 316.37C355.659 316.896 356.18 317.159 356.796 317.159C357.279 317.159 357.655 317.023 357.924 316.751C358.196 316.479 358.332 316.095 358.332 315.601L358.332 315.102C357.934 315.56 357.392 315.789 356.704 315.79C356.024 315.79 355.473 315.516 355.05 314.968C354.631 314.42 354.421 313.674 354.421 312.728ZM355.42 312.841C355.42 313.496 355.555 314.012 355.823 314.388C356.092 314.76 356.468 314.946 356.951 314.946C357.578 314.946 358.038 314.661 358.332 314.092L358.331 311.439C358.027 310.884 357.57 310.606 356.961 310.606C356.478 310.607 356.1 310.795 355.828 311.171C355.556 311.547 355.42 312.103 355.42 312.841ZM361.774 309.87L361.806 310.6C362.25 310.042 362.83 309.762 363.546 309.762C364.774 309.762 365.394 310.455 365.405 311.84L365.406 315.681L364.412 315.681L364.411 311.835C364.408 311.416 364.311 311.106 364.121 310.906C363.935 310.705 363.643 310.605 363.246 310.605C362.923 310.605 362.64 310.691 362.397 310.863C362.153 311.035 361.964 311.261 361.828 311.54L361.828 315.681L360.835 315.681L360.834 309.87L361.774 309.87ZM370.492 315.105C370.105 315.56 369.538 315.787 368.789 315.787C368.17 315.788 367.697 315.609 367.371 315.251C367.049 314.889 366.886 314.355 366.882 313.65L366.882 309.869L367.875 309.869L367.876 313.623C367.876 314.504 368.234 314.944 368.95 314.944C369.71 314.944 370.214 314.661 370.465 314.095L370.464 309.868L371.458 309.868L371.459 315.68L370.514 315.68L370.492 315.105ZM377.882 312.837C377.882 313.721 377.68 314.434 377.276 314.975C376.871 315.516 376.323 315.786 375.632 315.786C374.927 315.786 374.372 315.563 373.967 315.115L373.968 317.913L372.974 317.914L372.972 309.868L373.88 309.868L373.929 310.512C374.333 310.011 374.895 309.76 375.615 309.76C376.313 309.76 376.865 310.023 377.269 310.549C377.678 311.075 377.882 311.808 377.882 312.746L377.882 312.837ZM376.888 312.724C376.888 312.069 376.749 311.552 376.469 311.172C376.19 310.793 375.807 310.603 375.32 310.603C374.718 310.603 374.267 310.87 373.966 311.404L373.967 314.181C374.264 314.71 374.719 314.975 375.331 314.975C375.808 314.975 376.185 314.787 376.464 314.411C376.747 314.031 376.889 313.469 376.888 312.724ZM381.218 312.761L378.596 312.762L378.596 311.951L381.217 311.95L381.218 312.761ZM381.927 312.718C381.926 312.149 382.037 311.637 382.259 311.182C382.485 310.727 382.796 310.376 383.194 310.129C383.595 309.882 384.051 309.758 384.563 309.758C385.355 309.758 385.994 310.032 386.481 310.58C386.972 311.127 387.217 311.856 387.217 312.766L387.217 312.835C387.217 313.401 387.108 313.91 386.89 314.361C386.675 314.808 386.365 315.158 385.961 315.408C385.56 315.659 385.098 315.784 384.575 315.785C383.787 315.785 383.148 315.511 382.657 314.963C382.17 314.415 381.927 313.69 381.927 312.788L381.927 312.718ZM382.926 312.836C382.926 313.481 383.074 313.998 383.372 314.388C383.673 314.779 384.074 314.974 384.575 314.974C385.08 314.973 385.481 314.776 385.778 314.382C386.075 313.985 386.224 313.43 386.223 312.717C386.223 312.08 386.071 311.564 385.767 311.171C385.466 310.773 385.065 310.575 384.563 310.575C384.073 310.575 383.677 310.77 383.376 311.16C383.076 311.551 382.925 312.109 382.926 312.836ZM392.052 315.676C391.994 315.561 391.948 315.357 391.912 315.063C391.45 315.543 390.899 315.783 390.258 315.784C389.685 315.784 389.214 315.623 388.845 315.3C388.48 314.975 388.297 314.563 388.297 314.065C388.297 313.46 388.526 312.991 388.984 312.658C389.446 312.321 390.094 312.153 390.928 312.153L391.895 312.152L391.895 311.696C391.895 311.348 391.791 311.073 391.583 310.869C391.376 310.661 391.07 310.557 390.665 310.557C390.31 310.557 390.013 310.647 389.773 310.826C389.534 311.005 389.414 311.222 389.414 311.476L388.415 311.476C388.415 311.186 388.517 310.907 388.721 310.638C388.928 310.366 389.208 310.151 389.558 309.994C389.913 309.836 390.301 309.757 390.724 309.757C391.393 309.757 391.918 309.925 392.298 310.262C392.677 310.595 392.874 311.055 392.889 311.642L392.889 314.317C392.889 314.85 392.957 315.275 393.094 315.59L393.094 315.676L392.052 315.676ZM390.403 314.919C390.714 314.919 391.009 314.838 391.289 314.677C391.568 314.516 391.77 314.306 391.896 314.048L391.895 312.856L391.117 312.856C389.899 312.856 389.29 313.213 389.291 313.925C389.291 314.237 389.394 314.48 389.602 314.656C389.81 314.831 390.077 314.919 390.403 314.919ZM398.035 315.1C397.648 315.555 397.081 315.782 396.332 315.782C395.713 315.783 395.24 315.604 394.914 315.246C394.592 314.884 394.429 314.35 394.425 313.645L394.425 309.864L395.418 309.864L395.419 313.618C395.419 314.499 395.777 314.939 396.493 314.939C397.252 314.939 397.757 314.656 398.008 314.09L398.007 309.863L399.001 309.863L399.002 315.675L398.056 315.675L398.035 315.1ZM401.863 308.455L401.864 309.862L402.949 309.862L402.949 310.63L401.864 310.631L401.864 314.235C401.864 314.467 401.913 314.643 402.009 314.761C402.106 314.875 402.271 314.933 402.504 314.933C402.618 314.933 402.776 314.911 402.976 314.868L402.976 315.674C402.715 315.745 402.461 315.781 402.214 315.781C401.77 315.781 401.435 315.647 401.209 315.379C400.984 315.11 400.871 314.729 400.871 314.235L400.87 310.631L399.812 310.631L399.812 309.863L400.87 309.863L400.87 308.455L401.863 308.455ZM405.108 310.566C405.548 310.025 406.121 309.754 406.826 309.754C408.055 309.754 408.674 310.447 408.685 311.832L408.686 315.673L407.692 315.673L407.692 311.827C407.688 311.408 407.591 311.099 407.401 310.898C407.215 310.698 406.923 310.597 406.526 310.597C406.204 310.598 405.921 310.684 405.677 310.855C405.434 311.027 405.244 311.253 405.108 311.532L405.109 315.673L404.115 315.674L404.114 307.424L405.107 307.423L405.108 310.566Z" fill="white"/>
<circle cx="268.5" cy="339.5" r="9.5" fill="#4000C7"/>
<line x1="155" y1="339.5" x2="259" y2="339.5" stroke="#4000C7"/>
<path d="M250.083 303.006H250.762C251.188 302.999 251.523 302.887 251.768 302.669C252.012 302.451 252.134 302.156 252.134 301.785C252.134 300.952 251.719 300.535 250.889 300.535C250.498 300.535 250.186 300.647 249.951 300.872C249.72 301.093 249.604 301.388 249.604 301.756H248.701C248.701 301.193 248.906 300.726 249.316 300.354C249.73 299.98 250.254 299.793 250.889 299.793C251.559 299.793 252.085 299.97 252.466 300.325C252.847 300.68 253.037 301.173 253.037 301.805C253.037 302.114 252.936 302.413 252.734 302.703C252.536 302.993 252.264 303.209 251.919 303.353C252.31 303.476 252.611 303.681 252.822 303.968C253.037 304.254 253.145 304.604 253.145 305.018C253.145 305.656 252.936 306.162 252.52 306.536C252.103 306.91 251.561 307.098 250.894 307.098C250.226 307.098 249.683 306.917 249.263 306.556C248.846 306.194 248.638 305.717 248.638 305.125H249.546C249.546 305.499 249.668 305.799 249.912 306.023C250.156 306.248 250.483 306.36 250.894 306.36C251.33 306.36 251.663 306.246 251.895 306.019C252.126 305.791 252.241 305.464 252.241 305.037C252.241 304.624 252.114 304.306 251.86 304.085C251.606 303.864 251.24 303.75 250.762 303.743H250.083V303.006ZM256.597 306.36C256.919 306.36 257.201 306.263 257.441 306.067C257.682 305.872 257.816 305.628 257.842 305.335H258.696C258.68 305.638 258.576 305.926 258.384 306.199C258.192 306.473 257.935 306.691 257.612 306.854C257.293 307.016 256.955 307.098 256.597 307.098C255.877 307.098 255.304 306.858 254.878 306.38C254.455 305.898 254.243 305.241 254.243 304.407V304.256C254.243 303.742 254.338 303.284 254.526 302.884C254.715 302.483 254.985 302.173 255.337 301.951C255.692 301.73 256.11 301.619 256.592 301.619C257.184 301.619 257.676 301.797 258.066 302.151C258.46 302.506 258.67 302.967 258.696 303.533H257.842C257.816 303.191 257.686 302.911 257.451 302.693C257.22 302.472 256.934 302.361 256.592 302.361C256.133 302.361 255.776 302.527 255.522 302.859C255.272 303.188 255.146 303.665 255.146 304.29V304.461C255.146 305.07 255.272 305.538 255.522 305.867C255.773 306.196 256.131 306.36 256.597 306.36ZM261.904 307.098C261.188 307.098 260.605 306.863 260.156 306.395C259.707 305.923 259.482 305.293 259.482 304.505V304.339C259.482 303.815 259.582 303.348 259.78 302.938C259.982 302.524 260.262 302.202 260.62 301.971C260.981 301.736 261.372 301.619 261.792 301.619C262.479 301.619 263.013 301.845 263.394 302.298C263.774 302.75 263.965 303.398 263.965 304.241V304.617H260.386C260.399 305.138 260.55 305.56 260.84 305.882C261.133 306.201 261.504 306.36 261.953 306.36C262.272 306.36 262.542 306.295 262.764 306.165C262.985 306.035 263.179 305.862 263.345 305.647L263.896 306.077C263.454 306.757 262.79 307.098 261.904 307.098ZM261.792 302.361C261.427 302.361 261.121 302.495 260.874 302.762C260.627 303.025 260.474 303.396 260.415 303.875H263.062V303.807C263.035 303.348 262.912 302.993 262.69 302.742C262.469 302.488 262.17 302.361 261.792 302.361ZM266.235 303.006H266.914C267.34 302.999 267.676 302.887 267.92 302.669C268.164 302.451 268.286 302.156 268.286 301.785C268.286 300.952 267.871 300.535 267.041 300.535C266.65 300.535 266.338 300.647 266.104 300.872C265.872 301.093 265.757 301.388 265.757 301.756H264.854C264.854 301.193 265.059 300.726 265.469 300.354C265.882 299.98 266.406 299.793 267.041 299.793C267.712 299.793 268.237 299.97 268.618 300.325C268.999 300.68 269.189 301.173 269.189 301.805C269.189 302.114 269.089 302.413 268.887 302.703C268.688 302.993 268.416 303.209 268.071 303.353C268.462 303.476 268.763 303.681 268.975 303.968C269.189 304.254 269.297 304.604 269.297 305.018C269.297 305.656 269.089 306.162 268.672 306.536C268.255 306.91 267.713 307.098 267.046 307.098C266.379 307.098 265.835 306.917 265.415 306.556C264.998 306.194 264.79 305.717 264.79 305.125H265.698C265.698 305.499 265.82 305.799 266.064 306.023C266.309 306.248 266.636 306.36 267.046 306.36C267.482 306.36 267.816 306.246 268.047 306.019C268.278 305.791 268.394 305.464 268.394 305.037C268.394 304.624 268.267 304.306 268.013 304.085C267.759 303.864 267.393 303.75 266.914 303.743H266.235V303.006ZM273.999 303.875C273.81 304.1 273.584 304.28 273.32 304.417C273.06 304.554 272.773 304.622 272.461 304.622C272.051 304.622 271.693 304.521 271.387 304.319C271.084 304.118 270.85 303.834 270.684 303.47C270.518 303.102 270.435 302.697 270.435 302.254C270.435 301.779 270.524 301.351 270.703 300.97C270.885 300.589 271.143 300.298 271.475 300.096C271.807 299.894 272.194 299.793 272.637 299.793C273.34 299.793 273.893 300.057 274.297 300.584C274.704 301.108 274.907 301.824 274.907 302.732V302.996C274.907 304.38 274.634 305.39 274.087 306.028C273.54 306.663 272.715 306.989 271.611 307.005H271.436V306.243H271.626C272.371 306.23 272.944 306.036 273.345 305.662C273.745 305.285 273.963 304.689 273.999 303.875ZM272.607 303.875C272.91 303.875 273.188 303.782 273.442 303.597C273.7 303.411 273.887 303.182 274.004 302.908V302.547C274.004 301.954 273.875 301.473 273.618 301.102C273.361 300.73 273.035 300.545 272.642 300.545C272.244 300.545 271.925 300.698 271.685 301.004C271.444 301.307 271.323 301.707 271.323 302.205C271.323 302.69 271.439 303.09 271.67 303.406C271.904 303.719 272.217 303.875 272.607 303.875ZM279.966 304.612H280.952V305.35H279.966V307H279.058V305.35H275.82V304.817L279.004 299.891H279.966V304.612ZM276.846 304.612H279.058V301.126L278.95 301.321L276.846 304.612ZM281.641 304.314C281.641 303.504 281.833 302.853 282.217 302.361C282.601 301.867 283.104 301.619 283.726 301.619C284.344 301.619 284.834 301.831 285.195 302.254V299.5H286.099V307H285.269L285.225 306.434C284.863 306.876 284.36 307.098 283.716 307.098C283.104 307.098 282.604 306.847 282.217 306.346C281.833 305.844 281.641 305.19 281.641 304.383V304.314ZM282.544 304.417C282.544 305.016 282.668 305.485 282.915 305.823C283.162 306.162 283.504 306.331 283.94 306.331C284.513 306.331 284.932 306.074 285.195 305.56V303.133C284.925 302.635 284.51 302.386 283.95 302.386C283.507 302.386 283.162 302.557 282.915 302.898C282.668 303.24 282.544 303.746 282.544 304.417ZM245.692 315.15C244.122 314.87 242.412 313.55 242.412 312.06V311.37H241.552V312.06C241.552 313.55 239.852 314.87 238.282 315.15L238.622 315.83C240.002 315.54 241.402 314.61 241.982 313.33C242.562 314.61 243.972 315.54 245.342 315.83L245.692 315.15ZM242.392 317.9V315.72H241.572V317.9H237.952V318.57H246.092V317.9H242.392ZM253.711 315.48H254.541V310.78H253.711V311.69H251.951V312.34H253.711V313.3H251.951V313.95H253.711V315.48ZM252.391 314.69C251.101 314.25 250.191 313.14 250.191 311.94V311H249.381V311.94C249.381 313.19 248.481 314.39 247.151 314.88L247.571 315.5C248.611 315.12 249.421 314.3 249.801 313.28C250.191 314.21 250.971 314.96 251.971 315.33L252.391 314.69ZM249.591 318.98V318.03H254.541V315.92H248.761V316.55H253.731V317.42H248.781V319.62H254.881V318.98H249.591ZM259.311 311.73V312.41H262.601C262.411 314.53 261.181 316.25 258.891 317.4L259.341 318.04C262.241 316.59 263.411 314.28 263.411 311.73H259.311ZM267.171 314.41H265.731V310.77H264.911V319.74H265.731V315.09H267.171V314.41ZM274.57 310.78V315.59H275.39V310.78H274.57ZM269.61 316.03V319.62H275.39V316.03H274.58V317.13H270.42V316.03H269.61ZM270.42 317.77H274.58V318.96H270.42V317.77ZM270.57 311.2C269.22 311.2 268.24 312.04 268.24 313.26C268.24 314.5 269.22 315.33 270.57 315.33C271.93 315.33 272.92 314.5 272.92 313.26C272.92 312.04 271.93 311.2 270.57 311.2ZM270.57 311.88C271.48 311.88 272.12 312.45 272.12 313.26C272.12 314.08 271.48 314.65 270.57 314.65C269.68 314.65 269.04 314.08 269.04 313.26C269.04 312.45 269.68 311.88 270.57 311.88ZM287.83 315.21H286.5C286.75 313.92 286.75 312.97 286.75 312.13V311.35H280.73V312.01H285.95V312.13C285.95 312.97 285.95 313.92 285.67 315.21H279.72V315.88H283.34V319.75H284.17V315.88H287.83V315.21ZM293.949 313.16V313.83H295.459V315.04H293.949V315.71H295.459V317.61H296.289V310.78H295.459V313.16H293.949ZM293.949 311.87H291.889V310.76H291.069V311.87H288.929V312.53H293.949V311.87ZM290.219 314.73C290.219 314.1 290.729 313.67 291.469 313.67C292.209 313.67 292.719 314.1 292.719 314.73C292.719 315.37 292.209 315.81 291.469 315.81C290.729 315.81 290.219 315.37 290.219 314.73ZM293.499 314.73C293.499 313.71 292.659 313.03 291.469 313.03C290.279 313.03 289.439 313.71 289.439 314.73C289.439 315.76 290.279 316.45 291.469 316.45C292.659 316.45 293.499 315.76 293.499 314.73ZM291.349 318.87V317.03H290.529V319.54H296.499V318.87H291.349Z" fill="black"/>
</svg>
