<svg width="1152" height="587" viewBox="0 0 1152 587" fill="none" xmlns="http://www.w3.org/2000/svg">
<path d="M0 0H1152V587H0V0Z" fill="white" fill-opacity="0.02"/>
<circle cx="355.5" cy="322.5" r="9.5" fill="#4000C7"/>
<circle cx="409.5" cy="281.5" r="9" fill="white" stroke="#4000C7" stroke-dasharray="2 2"/>
<rect x="489.031" y="342.209" width="18" height="41" rx="5" transform="rotate(-64.2277 489.031 342.209)" fill="black" fill-opacity="0.5"/>
<rect x="424.031" y="301.209" width="18" height="41" rx="5" transform="rotate(-64.2277 424.031 301.209)" fill="black" fill-opacity="0.5"/>
<path d="M485.739 330.626L494.465 330.993L491.453 337.232L485.739 330.626Z" fill="black" fill-opacity="0.5"/>
<path d="M420.739 289.626L429.477 289.998L426.464 296.237L420.739 289.626Z" fill="black" fill-opacity="0.5"/>
<path d="M506.334 336.418L505.722 337.685L506.699 338.157L506.366 338.848L505.388 338.377L503.821 341.622C503.72 341.832 503.688 342.011 503.723 342.159C503.76 342.304 503.884 342.428 504.093 342.529C504.197 342.579 504.348 342.628 504.547 342.676L504.197 343.402C503.93 343.353 503.686 343.274 503.463 343.167C503.063 342.974 502.82 342.707 502.734 342.367C502.648 342.028 502.712 341.635 502.927 341.19L504.494 337.945L503.541 337.485L503.875 336.793L504.828 337.253L505.439 335.986L506.334 336.418ZM507.347 345.042C506.638 344.7 506.173 344.189 505.952 343.51C505.733 342.827 505.811 342.096 506.188 341.316L506.268 341.151C506.518 340.632 506.84 340.217 507.233 339.905C507.631 339.592 508.062 339.407 508.527 339.349C508.997 339.29 509.44 339.361 509.856 339.562C510.537 339.89 510.957 340.37 511.118 341C511.279 341.63 511.158 342.363 510.755 343.198L510.575 343.571L507.029 341.859C506.793 342.381 506.741 342.871 506.874 343.329C507.012 343.785 507.303 344.12 507.748 344.335C508.064 344.488 508.363 344.553 508.645 344.529C508.926 344.506 509.201 344.428 509.468 344.295L509.809 344.984C509.045 345.446 508.224 345.466 507.347 345.042ZM509.501 340.297C509.14 340.122 508.773 340.108 508.4 340.254C508.029 340.397 507.7 340.692 507.413 341.138L510.035 342.403L510.068 342.336C510.261 341.869 510.308 341.458 510.209 341.104C510.111 340.746 509.875 340.477 509.501 340.297ZM514.192 346.516C514.309 346.274 514.308 346.043 514.188 345.822C514.072 345.599 513.811 345.33 513.403 345.014C512.998 344.699 512.695 344.409 512.492 344.145C512.293 343.882 512.175 343.625 512.136 343.376C512.1 343.128 512.145 342.875 512.27 342.617C512.477 342.189 512.832 341.913 513.337 341.791C513.844 341.67 514.38 341.746 514.945 342.018C515.538 342.305 515.944 342.69 516.164 343.174C516.387 343.659 516.383 344.14 516.153 344.618L515.253 344.183C515.372 343.938 515.369 343.676 515.245 343.398C515.124 343.121 514.906 342.906 514.59 342.754C514.264 342.596 513.975 342.544 513.723 342.597C513.47 342.651 513.289 342.792 513.178 343.02C513.074 343.237 513.081 343.441 513.199 343.633C513.317 343.825 513.574 344.078 513.971 344.393C514.371 344.71 514.676 345.004 514.886 345.277C515.097 345.549 515.221 345.816 515.258 346.076C515.3 346.335 515.253 346.605 515.118 346.885C514.892 347.353 514.523 347.638 514.012 347.741C513.503 347.841 512.95 347.747 512.353 347.459C511.934 347.257 511.599 347.004 511.348 346.7C511.097 346.396 510.944 346.067 510.888 345.714C510.837 345.359 510.886 345.027 511.035 344.717L511.93 345.149C511.801 345.457 511.805 345.753 511.942 346.038C512.084 346.321 512.338 346.551 512.706 346.729C513.045 346.892 513.348 346.955 513.617 346.918C513.89 346.879 514.082 346.745 514.192 346.516ZM519.935 342.985L519.324 344.252L520.301 344.724L519.967 345.415L518.99 344.944L517.423 348.189C517.321 348.399 517.289 348.578 517.324 348.726C517.362 348.871 517.485 348.995 517.695 349.096C517.798 349.146 517.949 349.195 518.148 349.243L517.798 349.969C517.531 349.92 517.287 349.841 517.064 349.734C516.665 349.541 516.421 349.274 516.335 348.934C516.249 348.594 516.313 348.202 516.528 347.757L518.095 344.512L517.142 344.051L517.476 343.36L518.429 343.82L519.041 342.553L519.935 342.985Z" fill="white"/>
<path d="M439.334 294.418L438.722 295.685L439.699 296.157L439.366 296.848L438.388 296.377L436.821 299.622C436.72 299.832 436.688 300.011 436.723 300.159C436.76 300.304 436.884 300.428 437.093 300.529C437.197 300.579 437.348 300.628 437.547 300.676L437.197 301.402C436.93 301.353 436.686 301.274 436.463 301.167C436.063 300.974 435.82 300.707 435.734 300.367C435.648 300.028 435.712 299.635 435.927 299.19L437.494 295.945L436.541 295.485L436.875 294.793L437.828 295.253L438.439 293.986L439.334 294.418ZM440.347 303.042C439.638 302.7 439.173 302.189 438.952 301.51C438.733 300.827 438.811 300.096 439.188 299.316L439.268 299.151C439.518 298.632 439.84 298.217 440.233 297.905C440.631 297.592 441.062 297.407 441.527 297.349C441.997 297.29 442.44 297.361 442.856 297.562C443.537 297.89 443.957 298.37 444.118 299C444.279 299.63 444.158 300.363 443.755 301.198L443.575 301.571L440.029 299.859C439.793 300.381 439.741 300.871 439.874 301.329C440.012 301.785 440.303 302.12 440.748 302.335C441.064 302.488 441.363 302.553 441.645 302.529C441.926 302.506 442.201 302.428 442.468 302.295L442.809 302.984C442.045 303.446 441.224 303.466 440.347 303.042ZM442.501 298.297C442.14 298.122 441.773 298.108 441.4 298.254C441.029 298.397 440.7 298.692 440.413 299.138L443.035 300.403L443.068 300.336C443.261 299.869 443.308 299.458 443.209 299.104C443.111 298.746 442.875 298.477 442.501 298.297ZM447.192 304.516C447.309 304.274 447.308 304.043 447.188 303.822C447.072 303.599 446.811 303.33 446.403 303.014C445.998 302.699 445.695 302.409 445.492 302.145C445.293 301.882 445.175 301.625 445.136 301.376C445.1 301.128 445.145 300.875 445.27 300.617C445.477 300.189 445.832 299.913 446.337 299.791C446.844 299.67 447.38 299.746 447.945 300.018C448.538 300.305 448.944 300.69 449.164 301.174C449.387 301.659 449.383 302.14 449.153 302.618L448.253 302.183C448.372 301.938 448.369 301.676 448.245 301.398C448.124 301.121 447.906 300.906 447.59 300.754C447.264 300.596 446.975 300.544 446.723 300.597C446.47 300.651 446.289 300.792 446.178 301.02C446.074 301.237 446.081 301.441 446.199 301.633C446.317 301.825 446.574 302.078 446.971 302.393C447.371 302.71 447.676 303.004 447.886 303.277C448.097 303.549 448.221 303.816 448.258 304.076C448.3 304.335 448.253 304.605 448.118 304.885C447.892 305.353 447.523 305.638 447.012 305.741C446.503 305.841 445.95 305.747 445.353 305.459C444.934 305.257 444.599 305.004 444.348 304.7C444.097 304.396 443.944 304.067 443.888 303.714C443.837 303.359 443.886 303.027 444.035 302.717L444.93 303.149C444.801 303.457 444.805 303.753 444.942 304.038C445.084 304.321 445.338 304.551 445.706 304.729C446.045 304.892 446.348 304.955 446.617 304.918C446.89 304.879 447.082 304.745 447.192 304.516ZM452.935 300.985L452.324 302.252L453.301 302.724L452.967 303.415L451.99 302.944L450.423 306.189C450.321 306.399 450.289 306.578 450.324 306.726C450.362 306.871 450.485 306.995 450.695 307.096C450.798 307.146 450.949 307.195 451.148 307.243L450.798 307.969C450.531 307.92 450.287 307.841 450.064 307.734C449.665 307.541 449.421 307.274 449.335 306.934C449.249 306.594 449.313 306.202 449.528 305.757L451.095 302.512L450.142 302.051L450.476 301.36L451.429 301.82L452.041 300.553L452.935 300.985ZM456.346 310.647L451.731 308.419L452.042 307.776L455.788 306.245C456.346 306.009 456.755 305.797 457.014 305.608C457.277 305.417 457.475 305.184 457.607 304.91C457.784 304.543 457.819 304.187 457.71 303.845C457.601 303.502 457.361 303.241 456.99 303.062C456.545 302.847 456.137 302.807 455.766 302.942C455.399 303.075 455.107 303.367 454.889 303.819L453.994 303.387C454.307 302.739 454.768 302.315 455.377 302.116C455.99 301.918 456.646 301.989 457.345 302.327C458 302.643 458.434 303.065 458.648 303.594C458.864 304.119 458.833 304.667 458.558 305.238C458.223 305.931 457.383 306.544 456.037 307.075L453.163 308.21L456.698 309.917L456.346 310.647Z" fill="white"/>
<circle cx="140.5" cy="362.5" r="9.5" fill="#4000C7"/>
<circle cx="220.5" cy="362.5" r="9.5" fill="#4000C7"/>
<circle cx="470.5" cy="322.5" r="9.5" fill="#4000C7"/>
<circle cx="301.5" cy="362.5" r="9.5" fill="#4000C7"/>
<line x1="150" y1="362.5" x2="292" y2="362.5" stroke="#4000C7"/>
<line x1="365" y1="322.5" x2="462" y2="322.5" stroke="#4000C7"/>
<line x1="308.7" y1="357.6" x2="348.7" y2="327.6" stroke="#4000C7"/>
<line x1="362.7" y1="316.6" x2="402.7" y2="286.6" stroke="#4000C7"/>
<path d="M342.931 339.006H343.609C344.036 338.999 344.371 338.887 344.615 338.669C344.859 338.451 344.981 338.156 344.981 337.785C344.981 336.952 344.566 336.535 343.736 336.535C343.346 336.535 343.033 336.647 342.799 336.872C342.568 337.093 342.452 337.388 342.452 337.756H341.549C341.549 337.193 341.754 336.726 342.164 336.354C342.577 335.98 343.102 335.793 343.736 335.793C344.407 335.793 344.933 335.97 345.313 336.325C345.694 336.68 345.885 337.173 345.885 337.805C345.885 338.114 345.784 338.413 345.582 338.703C345.383 338.993 345.112 339.209 344.767 339.353C345.157 339.476 345.458 339.681 345.67 339.968C345.885 340.254 345.992 340.604 345.992 341.018C345.992 341.656 345.784 342.162 345.367 342.536C344.951 342.91 344.409 343.098 343.741 343.098C343.074 343.098 342.53 342.917 342.11 342.556C341.694 342.194 341.485 341.717 341.485 341.125H342.394C342.394 341.499 342.516 341.799 342.76 342.023C343.004 342.248 343.331 342.36 343.741 342.36C344.177 342.36 344.511 342.246 344.742 342.019C344.973 341.791 345.089 341.464 345.089 341.037C345.089 340.624 344.962 340.306 344.708 340.085C344.454 339.864 344.088 339.75 343.609 339.743H342.931V339.006ZM349.518 343.098C348.801 343.098 348.219 342.863 347.77 342.395C347.32 341.923 347.096 341.293 347.096 340.505V340.339C347.096 339.815 347.195 339.348 347.394 338.938C347.595 338.524 347.875 338.202 348.233 337.971C348.595 337.736 348.985 337.619 349.405 337.619C350.092 337.619 350.626 337.845 351.007 338.298C351.388 338.75 351.578 339.398 351.578 340.241V340.617H347.999C348.012 341.138 348.163 341.56 348.453 341.882C348.746 342.201 349.117 342.36 349.566 342.36C349.885 342.36 350.156 342.295 350.377 342.165C350.598 342.035 350.792 341.862 350.958 341.647L351.51 342.077C351.067 342.757 350.403 343.098 349.518 343.098ZM349.405 338.361C349.041 338.361 348.735 338.495 348.487 338.762C348.24 339.025 348.087 339.396 348.028 339.875H350.675V339.807C350.649 339.348 350.525 338.993 350.304 338.742C350.082 338.488 349.783 338.361 349.405 338.361ZM353.072 343V338.415H352.237V337.717H353.072V337.175C353.072 336.608 353.224 336.171 353.526 335.861C353.829 335.552 354.257 335.397 354.811 335.397C355.019 335.397 355.226 335.425 355.431 335.48L355.382 336.213C355.229 336.184 355.066 336.169 354.894 336.169C354.601 336.169 354.374 336.255 354.215 336.428C354.055 336.597 353.976 336.841 353.976 337.16V337.717H355.104V338.415H353.976V343H353.072ZM355.772 340.314C355.772 339.491 355.963 338.837 356.344 338.352C356.725 337.863 357.229 337.619 357.857 337.619C358.502 337.619 359.005 337.847 359.366 338.303L359.41 337.717H360.235V342.873C360.235 343.557 360.032 344.095 359.625 344.489C359.221 344.883 358.678 345.08 357.994 345.08C357.613 345.08 357.241 344.999 356.876 344.836C356.511 344.673 356.233 344.45 356.041 344.167L356.51 343.625C356.897 344.104 357.371 344.343 357.931 344.343C358.37 344.343 358.712 344.219 358.956 343.972C359.203 343.724 359.327 343.376 359.327 342.927V342.473C358.966 342.889 358.473 343.098 357.848 343.098C357.229 343.098 356.728 342.849 356.344 342.351C355.963 341.853 355.772 341.174 355.772 340.314ZM356.681 340.417C356.681 341.013 356.803 341.481 357.047 341.823C357.291 342.162 357.633 342.331 358.072 342.331C358.642 342.331 359.06 342.072 359.327 341.555V339.143C359.05 338.638 358.635 338.386 358.082 338.386C357.643 338.386 357.299 338.557 357.052 338.898C356.804 339.24 356.681 339.746 356.681 340.417ZM364.864 343C364.812 342.896 364.77 342.71 364.737 342.443C364.317 342.88 363.816 343.098 363.233 343.098C362.713 343.098 362.285 342.951 361.949 342.658C361.617 342.362 361.451 341.988 361.451 341.535C361.451 340.985 361.66 340.559 362.076 340.256C362.496 339.95 363.085 339.797 363.844 339.797H364.723V339.382C364.723 339.066 364.628 338.815 364.439 338.63C364.251 338.441 363.972 338.347 363.604 338.347C363.282 338.347 363.012 338.428 362.794 338.591C362.576 338.754 362.467 338.951 362.467 339.182H361.559C361.559 338.918 361.651 338.664 361.837 338.42C362.026 338.173 362.28 337.977 362.599 337.834C362.921 337.691 363.274 337.619 363.658 337.619C364.267 337.619 364.744 337.772 365.089 338.078C365.434 338.381 365.613 338.799 365.626 339.333V341.765C365.626 342.25 365.688 342.635 365.812 342.922V343H364.864ZM363.365 342.312C363.648 342.312 363.917 342.238 364.171 342.092C364.425 341.945 364.609 341.755 364.723 341.521V340.437H364.015C362.908 340.437 362.354 340.76 362.354 341.408C362.354 341.691 362.449 341.913 362.638 342.072C362.826 342.232 363.069 342.312 363.365 342.312ZM371.515 340.417C371.515 341.224 371.329 341.874 370.958 342.365C370.587 342.854 370.089 343.098 369.464 343.098C368.797 343.098 368.281 342.862 367.916 342.39L367.872 343H367.042V335.5H367.945V338.298C368.31 337.845 368.813 337.619 369.454 337.619C370.095 337.619 370.598 337.862 370.963 338.347C371.331 338.832 371.515 339.496 371.515 340.339V340.417ZM370.611 340.314C370.611 339.699 370.493 339.224 370.255 338.889C370.017 338.553 369.675 338.386 369.229 338.386C368.634 338.386 368.206 338.662 367.945 339.216V341.501C368.222 342.054 368.653 342.331 369.239 342.331C369.672 342.331 370.009 342.163 370.25 341.828C370.491 341.493 370.611 340.988 370.611 340.314ZM337.262 353.96V352.27H340.132V351.61H334.612V350.16H339.922V347.43H333.782V348.1H339.122V349.5H333.802V352.27H336.432V353.96H332.782V354.63H340.932V353.96H337.262ZM348.211 348.62C348.211 349.73 348.211 351.07 347.851 352.9L348.671 352.99C349.021 351.05 349.021 349.76 349.021 348.62V347.72H342.871V348.39H348.211V348.62ZM342.001 353.75V354.43H350.111V353.75H342.001ZM358.55 346.78H357.73V353.33H358.55V346.78ZM352.2 349.6C352.2 348.73 352.86 348.11 353.73 348.11C354.62 348.11 355.28 348.73 355.28 349.6C355.28 350.49 354.62 351.11 353.73 351.11C352.86 351.11 352.2 350.49 352.2 349.6ZM356.08 349.6C356.08 348.31 355.07 347.4 353.73 347.4C352.4 347.4 351.4 348.31 351.4 349.6C351.4 350.9 352.4 351.82 353.73 351.82C355.07 351.82 356.08 350.9 356.08 349.6ZM353.6 354.87V352.66H352.78V355.54H358.82V354.87H353.6ZM370.99 351.21H369.66C369.91 349.92 369.91 348.97 369.91 348.13V347.35H363.89V348.01H369.11V348.13C369.11 348.97 369.11 349.92 368.83 351.21H362.88V351.88H366.5V355.75H367.33V351.88H370.99V351.21ZM377.109 349.16V349.83H378.619V351.04H377.109V351.71H378.619V353.61H379.449V346.78H378.619V349.16H377.109ZM377.109 347.87H375.049V346.76H374.229V347.87H372.089V348.53H377.109V347.87ZM373.379 350.73C373.379 350.1 373.889 349.67 374.629 349.67C375.369 349.67 375.879 350.1 375.879 350.73C375.879 351.37 375.369 351.81 374.629 351.81C373.889 351.81 373.379 351.37 373.379 350.73ZM376.659 350.73C376.659 349.71 375.819 349.03 374.629 349.03C373.439 349.03 372.599 349.71 372.599 350.73C372.599 351.76 373.439 352.45 374.629 352.45C375.819 352.45 376.659 351.76 376.659 350.73ZM374.509 354.87V353.03H373.689V355.54H379.659V354.87H374.509Z" fill="black"/>
<path d="M459.717 343H455.059V342.351L457.52 339.616C457.884 339.203 458.135 338.868 458.271 338.61C458.411 338.35 458.481 338.081 458.481 337.805C458.481 337.434 458.369 337.129 458.145 336.892C457.92 336.654 457.62 336.535 457.246 336.535C456.797 336.535 456.447 336.664 456.196 336.921C455.949 337.175 455.825 337.53 455.825 337.985H454.922C454.922 337.331 455.132 336.802 455.552 336.398C455.975 335.995 456.54 335.793 457.246 335.793C457.907 335.793 458.429 335.967 458.813 336.315C459.198 336.66 459.39 337.121 459.39 337.697C459.39 338.397 458.944 339.23 458.052 340.197L456.147 342.263H459.717V343ZM460.552 340.314C460.552 339.491 460.742 338.837 461.123 338.352C461.504 337.863 462.008 337.619 462.637 337.619C463.281 337.619 463.784 337.847 464.146 338.303L464.189 337.717H465.015V342.873C465.015 343.557 464.811 344.095 464.404 344.489C464.001 344.883 463.457 345.08 462.773 345.08C462.393 345.08 462.02 344.999 461.655 344.836C461.291 344.673 461.012 344.45 460.82 344.167L461.289 343.625C461.676 344.104 462.15 344.343 462.71 344.343C463.149 344.343 463.491 344.219 463.735 343.972C463.983 343.724 464.106 343.376 464.106 342.927V342.473C463.745 342.889 463.252 343.098 462.627 343.098C462.008 343.098 461.507 342.849 461.123 342.351C460.742 341.853 460.552 341.174 460.552 340.314ZM461.46 340.417C461.46 341.013 461.582 341.481 461.826 341.823C462.07 342.162 462.412 342.331 462.852 342.331C463.421 342.331 463.84 342.072 464.106 341.555V339.143C463.83 338.638 463.415 338.386 462.861 338.386C462.422 338.386 462.078 338.557 461.831 338.898C461.584 339.24 461.46 339.746 461.46 340.417ZM466.826 343V338.415H465.991V337.717H466.826V337.175C466.826 336.608 466.978 336.171 467.28 335.861C467.583 335.552 468.011 335.397 468.564 335.397C468.773 335.397 468.979 335.425 469.185 335.48L469.136 336.213C468.983 336.184 468.82 336.169 468.647 336.169C468.354 336.169 468.128 336.255 467.969 336.428C467.809 336.597 467.729 336.841 467.729 337.16V337.717H468.857V338.415H467.729V343H466.826ZM472.734 343H471.826V336.979L470.005 337.648V336.828L472.593 335.856H472.734V343ZM477.666 343.098C476.95 343.098 476.367 342.863 475.918 342.395C475.469 341.923 475.244 341.293 475.244 340.505V340.339C475.244 339.815 475.343 339.348 475.542 338.938C475.744 338.524 476.024 338.202 476.382 337.971C476.743 337.736 477.134 337.619 477.554 337.619C478.241 337.619 478.774 337.845 479.155 338.298C479.536 338.75 479.727 339.398 479.727 340.241V340.617H476.147C476.16 341.138 476.312 341.56 476.602 341.882C476.895 342.201 477.266 342.36 477.715 342.36C478.034 342.36 478.304 342.295 478.525 342.165C478.747 342.035 478.94 341.862 479.106 341.647L479.658 342.077C479.215 342.757 478.551 343.098 477.666 343.098ZM477.554 338.361C477.189 338.361 476.883 338.495 476.636 338.762C476.388 339.025 476.235 339.396 476.177 339.875H478.823V339.807C478.797 339.348 478.674 338.993 478.452 338.742C478.231 338.488 477.931 338.361 477.554 338.361ZM484.038 343C483.986 342.896 483.944 342.71 483.911 342.443C483.491 342.88 482.99 343.098 482.407 343.098C481.886 343.098 481.458 342.951 481.123 342.658C480.791 342.362 480.625 341.988 480.625 341.535C480.625 340.985 480.833 340.559 481.25 340.256C481.67 339.95 482.259 339.797 483.018 339.797H483.896V339.382C483.896 339.066 483.802 338.815 483.613 338.63C483.424 338.441 483.146 338.347 482.778 338.347C482.456 338.347 482.186 338.428 481.968 338.591C481.75 338.754 481.641 338.951 481.641 339.182H480.732C480.732 338.918 480.825 338.664 481.011 338.42C481.2 338.173 481.453 337.977 481.772 337.834C482.095 337.691 482.448 337.619 482.832 337.619C483.441 337.619 483.918 337.772 484.263 338.078C484.608 338.381 484.787 338.799 484.8 339.333V341.765C484.8 342.25 484.862 342.635 484.985 342.922V343H484.038ZM482.539 342.312C482.822 342.312 483.091 342.238 483.345 342.092C483.599 341.945 483.783 341.755 483.896 341.521V340.437H483.188C482.082 340.437 481.528 340.76 481.528 341.408C481.528 341.691 481.623 341.913 481.812 342.072C482 342.232 482.243 342.312 482.539 342.312ZM446.162 353.96V352.27H449.032V351.61H443.512V350.16H448.822V347.43H442.682V348.1H448.022V349.5H442.702V352.27H445.332V353.96H441.682V354.63H449.832V353.96H446.162ZM457.111 348.62C457.111 349.73 457.111 351.07 456.751 352.9L457.571 352.99C457.921 351.05 457.921 349.76 457.921 348.62V347.72H451.771V348.39H457.111V348.62ZM450.901 353.75V354.43H459.011V353.75H450.901ZM462.481 352.99C461.611 352.99 461.001 352.05 461.001 350.59C461.001 349.14 461.611 348.2 462.481 348.2C463.341 348.2 463.951 349.14 463.951 350.59C463.951 352.05 463.341 352.99 462.481 352.99ZM462.481 347.46C461.161 347.46 460.221 348.68 460.221 350.59C460.221 352.5 461.161 353.72 462.481 353.72C463.801 353.72 464.731 352.5 464.731 350.59C464.731 348.68 463.801 347.46 462.481 347.46ZM468.471 350.35H466.991V346.78H466.171V355.74H466.991V351.04H468.471V350.35ZM473.34 347.53C474.77 347.53 475.65 347.91 475.65 348.54C475.65 349.18 474.77 349.55 473.34 349.55C471.91 349.55 471.03 349.18 471.03 348.54C471.03 347.91 471.91 347.53 473.34 347.53ZM473.34 350.19C475.29 350.19 476.49 349.59 476.49 348.54C476.49 347.5 475.29 346.9 473.34 346.9C471.39 346.9 470.19 347.5 470.19 348.54C470.19 349.59 471.39 350.19 473.34 350.19ZM473.76 352.94H472.91V353.22C472.91 354.18 471.5 354.91 469.88 355.08L470.15 355.71C471.55 355.55 472.79 355 473.34 354.16C473.86 355.01 475.11 355.54 476.51 355.71L476.78 355.08C475.14 354.92 473.76 354.2 473.76 353.22V352.94ZM469.29 350.87V351.54H472.93V352.53H473.74V351.54H477.42V350.87H469.29ZM489.089 351.21H487.759C488.009 349.92 488.009 348.97 488.009 348.13V347.35H481.989V348.01H487.209V348.13C487.209 348.97 487.209 349.92 486.929 351.21H480.979V351.88H484.599V355.75H485.429V351.88H489.089V351.21ZM495.209 349.16V349.83H496.719V351.04H495.209V351.71H496.719V353.61H497.549V346.78H496.719V349.16H495.209ZM495.209 347.87H493.149V346.76H492.329V347.87H490.189V348.53H495.209V347.87ZM491.479 350.73C491.479 350.1 491.989 349.67 492.729 349.67C493.469 349.67 493.979 350.1 493.979 350.73C493.979 351.37 493.469 351.81 492.729 351.81C491.989 351.81 491.479 351.37 491.479 350.73ZM494.759 350.73C494.759 349.71 493.919 349.03 492.729 349.03C491.539 349.03 490.699 349.71 490.699 350.73C490.699 351.76 491.539 352.45 492.729 352.45C493.919 352.45 494.759 351.76 494.759 350.73ZM492.609 354.87V353.03H491.789V355.54H497.759V354.87H492.609Z" fill="black"/>
</svg>
