<svg width="1152" height="587" viewBox="0 0 1152 587" fill="none" xmlns="http://www.w3.org/2000/svg">
<path d="M0 0H1152V587H0V0Z" fill="white" fill-opacity="0.01"/>
<path d="M361.34 315H360.397V311.714H356.813V315H355.876V307.891H356.813V310.947H360.397V307.891H361.34V315ZM367.023 311.714H363.942V314.233H367.521V315H363.005V307.891H367.473V308.662H363.942V310.947H367.023V311.714ZM372.614 313.145H369.636L368.967 315H368L370.715 307.891H371.535L374.255 315H373.293L372.614 313.145ZM369.919 312.373H372.336L371.125 309.048L369.919 312.373ZM375.212 315V307.891H377.219C377.837 307.891 378.384 308.027 378.859 308.301C379.335 308.574 379.701 308.963 379.958 309.468C380.218 309.972 380.35 310.552 380.354 311.206V311.66C380.354 312.331 380.223 312.918 379.963 313.423C379.706 313.927 379.336 314.315 378.854 314.585C378.376 314.855 377.818 314.993 377.18 315H375.212ZM376.149 308.662V314.233H377.136C377.858 314.233 378.42 314.009 378.82 313.56C379.224 313.11 379.426 312.471 379.426 311.641V311.226C379.426 310.418 379.235 309.792 378.854 309.346C378.477 308.896 377.94 308.669 377.243 308.662H376.149Z" fill="#4000C7"/>
<path d="M146.186 332C144.565 325.553 152.852 311.272 198 312.029" stroke="#4000C7"/>
<rect x="239.824" y="321.263" width="18" height="102.065" rx="5" transform="rotate(-90.1738 239.824 321.263)" fill="black"/>
<path d="M232.001 312.333L240.251 308.87L240.25 315.798L232.001 312.333Z" fill="black"/>
<path d="M249.157 315.688L249.156 310.645L248.237 310.645L248.237 309.877L249.156 309.876L249.155 309.28C249.155 308.657 249.322 308.176 249.655 307.835C249.988 307.495 250.458 307.325 251.067 307.325C251.296 307.325 251.524 307.355 251.749 307.416L251.696 308.222C251.527 308.19 251.348 308.173 251.159 308.173C250.836 308.174 250.588 308.268 250.412 308.458C250.237 308.645 250.149 308.913 250.149 309.264L250.149 309.876L251.39 309.876L251.39 310.644L250.149 310.644L250.15 315.688L249.157 315.688ZM254.775 315.794C253.987 315.795 253.346 315.537 252.852 315.021C252.358 314.502 252.11 313.809 252.11 312.943L252.11 312.76C252.11 312.184 252.219 311.67 252.438 311.219C252.659 310.764 252.967 310.409 253.361 310.155C253.759 309.897 254.188 309.768 254.65 309.768C255.406 309.768 255.993 310.017 256.412 310.514C256.831 311.012 257.041 311.725 257.041 312.652L257.041 313.065L253.104 313.066C253.118 313.639 253.285 314.103 253.604 314.457C253.926 314.808 254.334 314.983 254.828 314.983C255.179 314.983 255.476 314.912 255.72 314.768C255.963 314.625 256.176 314.435 256.359 314.199L256.966 314.671C256.479 315.42 255.749 315.794 254.775 315.794ZM254.65 310.584C254.249 310.585 253.913 310.731 253.641 311.025C253.369 311.315 253.2 311.723 253.136 312.25L256.047 312.249L256.047 312.174C256.018 311.669 255.882 311.279 255.639 311.003C255.395 310.724 255.066 310.584 254.65 310.584ZM261.784 315.686C261.727 315.571 261.68 315.367 261.644 315.073C261.182 315.553 260.631 315.793 259.99 315.793C259.417 315.794 258.946 315.633 258.577 315.31C258.212 314.985 258.029 314.573 258.029 314.075C258.029 313.47 258.258 313.001 258.717 312.668C259.178 312.331 259.827 312.163 260.661 312.162L261.628 312.162L261.628 311.706C261.627 311.358 261.524 311.083 261.316 310.879C261.108 310.671 260.802 310.567 260.397 310.567C260.043 310.567 259.746 310.657 259.506 310.836C259.266 311.015 259.146 311.232 259.146 311.486L258.147 311.486C258.147 311.196 258.249 310.917 258.453 310.648C258.661 310.376 258.94 310.161 259.291 310.004C259.645 309.846 260.034 309.767 260.456 309.767C261.126 309.767 261.651 309.935 262.03 310.272C262.41 310.605 262.607 311.065 262.621 311.652L262.622 314.327C262.622 314.86 262.69 315.285 262.826 315.6L262.826 315.686L261.784 315.686ZM260.135 314.929C260.446 314.929 260.742 314.848 261.021 314.687C261.3 314.526 261.503 314.316 261.628 314.058L261.628 312.866L260.849 312.866C259.632 312.866 259.023 313.223 259.023 313.935C259.023 314.247 259.127 314.49 259.335 314.666C259.542 314.841 259.809 314.929 260.135 314.929ZM265.526 308.466L265.527 309.874L266.612 309.873L266.612 310.641L265.527 310.642L265.527 314.246C265.527 314.478 265.576 314.654 265.673 314.772C265.769 314.886 265.934 314.944 266.167 314.944C266.281 314.944 266.439 314.922 266.639 314.879L266.64 315.685C266.378 315.757 266.124 315.792 265.877 315.792C265.433 315.792 265.098 315.658 264.872 315.39C264.647 315.121 264.534 314.74 264.534 314.246L264.533 310.642L263.475 310.642L263.475 309.874L264.533 309.874L264.533 308.466L265.526 308.466ZM267.977 316.356L267.123 316.356L270.387 307.864L271.236 307.864L267.977 316.356ZM275.695 314.142C275.695 313.873 275.593 313.665 275.389 313.519C275.188 313.368 274.835 313.24 274.33 313.132C273.829 313.025 273.43 312.896 273.133 312.746C272.839 312.595 272.621 312.416 272.477 312.209C272.338 312.001 272.268 311.754 272.268 311.468C272.268 310.991 272.468 310.588 272.869 310.259C273.274 309.929 273.789 309.765 274.416 309.764C275.075 309.764 275.608 309.934 276.016 310.274C276.428 310.615 276.634 311.05 276.634 311.58L275.635 311.58C275.635 311.308 275.519 311.073 275.286 310.876C275.057 310.679 274.767 310.581 274.416 310.581C274.054 310.581 273.771 310.66 273.567 310.817C273.363 310.975 273.261 311.181 273.261 311.435C273.261 311.675 273.356 311.856 273.546 311.978C273.736 312.099 274.078 312.216 274.572 312.326C275.07 312.437 275.473 312.57 275.781 312.724C276.089 312.878 276.316 313.064 276.463 313.282C276.613 313.497 276.688 313.76 276.689 314.072C276.689 314.591 276.481 315.008 276.066 315.323C275.65 315.635 275.112 315.791 274.449 315.791C273.984 315.791 273.572 315.709 273.214 315.544C272.856 315.379 272.574 315.15 272.37 314.857C272.17 314.559 272.069 314.239 272.069 313.895L273.063 313.895C273.081 314.228 273.214 314.493 273.461 314.69C273.711 314.883 274.041 314.98 274.449 314.98C274.825 314.98 275.126 314.904 275.351 314.754C275.58 314.6 275.695 314.396 275.695 314.142ZM279.063 315.683L278.069 315.683L278.068 309.871L279.062 309.871L279.063 315.683ZM277.987 308.33C277.987 308.169 278.036 308.033 278.132 307.922C278.232 307.811 278.379 307.755 278.573 307.755C278.766 307.755 278.913 307.81 279.013 307.921C279.113 308.032 279.164 308.168 279.164 308.33C279.164 308.491 279.113 308.625 279.013 308.732C278.913 308.84 278.766 308.894 278.573 308.894C278.379 308.894 278.233 308.84 278.132 308.733C278.036 308.625 277.987 308.491 277.987 308.33ZM280.421 312.728C280.421 311.822 280.63 311.103 281.049 310.569C281.468 310.032 282.023 309.763 282.714 309.763C283.423 309.763 283.976 310.013 284.374 310.515L284.422 309.87L285.33 309.87L285.331 315.542C285.331 316.294 285.107 316.886 284.66 317.32C284.216 317.753 283.618 317.97 282.866 317.97C282.447 317.97 282.037 317.881 281.636 317.702C281.235 317.523 280.929 317.277 280.717 316.966L281.233 316.37C281.659 316.896 282.18 317.159 282.796 317.159C283.279 317.159 283.655 317.023 283.924 316.751C284.196 316.478 284.332 316.095 284.332 315.601L284.332 315.102C283.934 315.56 283.392 315.789 282.704 315.789C282.024 315.789 281.473 315.516 281.05 314.968C280.631 314.42 280.421 313.674 280.421 312.728ZM281.42 312.841C281.42 313.496 281.555 314.012 281.823 314.388C282.092 314.76 282.468 314.946 282.951 314.946C283.578 314.946 284.038 314.661 284.332 314.092L284.331 311.438C284.027 310.884 283.57 310.606 282.961 310.606C282.478 310.606 282.1 310.794 281.828 311.17C281.556 311.546 281.42 312.103 281.42 312.841ZM287.774 309.869L287.806 310.6C288.25 310.041 288.83 309.762 289.546 309.762C290.774 309.762 291.394 310.454 291.405 311.84L291.406 315.68L290.412 315.681L290.411 311.835C290.408 311.416 290.311 311.106 290.121 310.906C289.935 310.705 289.643 310.605 289.246 310.605C288.923 310.605 288.64 310.691 288.397 310.863C288.153 311.035 287.964 311.261 287.828 311.54L287.828 315.681L286.835 315.681L286.834 309.87L287.774 309.869ZM296.492 315.105C296.105 315.56 295.538 315.787 294.789 315.787C294.17 315.787 293.697 315.608 293.371 315.25C293.049 314.889 292.886 314.355 292.882 313.65L292.882 309.869L293.875 309.868L293.876 313.623C293.876 314.504 294.234 314.944 294.95 314.944C295.71 314.944 296.214 314.661 296.465 314.095L296.464 309.868L297.458 309.868L297.459 315.679L296.514 315.679L296.492 315.105ZM303.882 312.837C303.882 313.721 303.68 314.434 303.276 314.975C302.871 315.515 302.323 315.786 301.632 315.786C300.927 315.786 300.372 315.562 299.967 315.115L299.968 317.913L298.974 317.913L298.972 309.867L299.88 309.867L299.929 310.512C300.333 310.01 300.895 309.76 301.615 309.76C302.313 309.759 302.865 310.023 303.269 310.549C303.678 311.075 303.882 311.807 303.882 312.745L303.882 312.837ZM302.888 312.724C302.888 312.069 302.749 311.552 302.469 311.172C302.19 310.793 301.807 310.603 301.32 310.603C300.718 310.603 300.267 310.87 299.966 311.403L299.967 314.18C300.264 314.71 300.719 314.975 301.331 314.975C301.808 314.975 302.185 314.787 302.464 314.411C302.747 314.031 302.889 313.469 302.888 312.724ZM307.218 312.761L304.596 312.761L304.596 311.95L307.217 311.95L307.218 312.761ZM307.927 312.718C307.926 312.149 308.037 311.636 308.259 311.182C308.485 310.727 308.796 310.376 309.194 310.129C309.595 309.882 310.051 309.758 310.563 309.758C311.355 309.758 311.994 310.032 312.481 310.579C312.972 311.127 313.217 311.856 313.217 312.765L313.217 312.835C313.217 313.401 313.108 313.909 312.89 314.361C312.675 314.808 312.365 315.157 311.961 315.408C311.56 315.659 311.098 315.784 310.575 315.784C309.787 315.784 309.148 315.511 308.657 314.963C308.17 314.415 307.927 313.69 307.927 312.788L307.927 312.718ZM308.926 312.836C308.926 313.48 309.074 313.998 309.372 314.388C309.673 314.778 310.074 314.973 310.575 314.973C311.08 314.973 311.481 314.776 311.778 314.382C312.075 313.985 312.224 313.43 312.223 312.717C312.223 312.08 312.071 311.564 311.767 311.17C311.466 310.773 311.065 310.574 310.563 310.574C310.073 310.574 309.677 310.77 309.376 311.16C309.076 311.55 308.925 312.109 308.926 312.836ZM318.052 315.676C317.994 315.561 317.948 315.357 317.912 315.063C317.45 315.543 316.899 315.783 316.258 315.783C315.685 315.783 315.214 315.622 314.845 315.3C314.48 314.974 314.297 314.563 314.297 314.065C314.297 313.46 314.526 312.991 314.984 312.658C315.446 312.321 316.094 312.152 316.928 312.152L317.895 312.152L317.895 311.696C317.895 311.348 317.791 311.073 317.583 310.868C317.376 310.661 317.07 310.557 316.665 310.557C316.31 310.557 316.013 310.647 315.773 310.826C315.534 311.005 315.414 311.222 315.414 311.476L314.415 311.476C314.415 311.186 314.517 310.907 314.721 310.638C314.928 310.366 315.208 310.151 315.558 309.993C315.913 309.836 316.301 309.757 316.724 309.757C317.393 309.757 317.918 309.925 318.298 310.261C318.677 310.594 318.874 311.054 318.889 311.642L318.889 314.316C318.889 314.85 318.957 315.274 319.094 315.589L319.094 315.675L318.052 315.676ZM316.403 314.919C316.714 314.918 317.009 314.838 317.289 314.677C317.568 314.515 317.77 314.306 317.896 314.048L317.895 312.856L317.117 312.856C315.899 312.856 315.29 313.212 315.291 313.925C315.291 314.237 315.394 314.48 315.602 314.655C315.81 314.831 316.077 314.919 316.403 314.919ZM324.035 315.1C323.648 315.555 323.081 315.782 322.332 315.782C321.713 315.782 321.24 315.603 320.914 315.245C320.592 314.884 320.429 314.35 320.425 313.645L320.425 309.864L321.418 309.863L321.419 313.618C321.419 314.499 321.777 314.939 322.493 314.939C323.252 314.939 323.757 314.656 324.008 314.09L324.007 309.863L325.001 309.863L325.002 315.674L324.056 315.674L324.035 315.1ZM327.863 308.455L327.864 309.862L328.949 309.862L328.949 310.63L327.864 310.63L327.864 314.234C327.864 314.467 327.913 314.642 328.009 314.761C328.106 314.875 328.271 314.932 328.504 314.932C328.618 314.932 328.776 314.911 328.976 314.868L328.976 315.674C328.715 315.745 328.461 315.781 328.214 315.781C327.77 315.781 327.435 315.647 327.209 315.378C326.984 315.11 326.871 314.729 326.871 314.234L326.87 310.63L325.812 310.631L325.812 309.863L326.87 309.862L326.87 308.455L327.863 308.455ZM331.108 310.565C331.548 310.024 332.121 309.754 332.826 309.754C334.055 309.754 334.674 310.446 334.685 311.832L334.686 315.673L333.692 315.673L333.692 311.827C333.688 311.408 333.591 311.098 333.401 310.898C333.215 310.697 332.923 310.597 332.526 310.597C332.204 310.597 331.921 310.683 331.677 310.855C331.434 311.027 331.244 311.253 331.108 311.532L331.109 315.673L330.115 315.673L330.114 307.423L331.107 307.423L331.108 310.565Z" fill="white"/>
<circle cx="207.5" cy="312.5" r="9" fill="white" stroke="#4000C7" stroke-dasharray="2 2"/>
</svg>
