<svg width="1152" height="587" viewBox="0 0 1152 587" fill="none" xmlns="http://www.w3.org/2000/svg">
<path d="M0 0H1152V587H0V0Z" fill="white" fill-opacity="0.01"/>
<path d="M123.665 551H122.762V545.717H123.665V551ZM122.688 544.315C122.688 544.169 122.732 544.045 122.82 543.944C122.911 543.843 123.045 543.793 123.221 543.793C123.396 543.793 123.53 543.843 123.621 543.944C123.712 544.045 123.758 544.169 123.758 544.315C123.758 544.462 123.712 544.584 123.621 544.682C123.53 544.779 123.396 544.828 123.221 544.828C123.045 544.828 122.911 544.779 122.82 544.682C122.732 544.584 122.688 544.462 122.688 544.315ZM125.97 545.717L125.999 546.381C126.403 545.873 126.93 545.619 127.581 545.619C128.698 545.619 129.261 546.249 129.271 547.509V551H128.367V547.504C128.364 547.123 128.276 546.841 128.104 546.659C127.934 546.477 127.669 546.386 127.308 546.386C127.015 546.386 126.757 546.464 126.536 546.62C126.315 546.776 126.142 546.981 126.019 547.235V551H125.115V545.717H125.97ZM130.413 548.314C130.413 547.504 130.605 546.853 130.989 546.361C131.373 545.867 131.876 545.619 132.498 545.619C133.117 545.619 133.606 545.831 133.968 546.254V543.5H134.871V551H134.041L133.997 550.434C133.636 550.876 133.133 551.098 132.488 551.098C131.876 551.098 131.377 550.847 130.989 550.346C130.605 549.844 130.413 549.19 130.413 548.383V548.314ZM131.316 548.417C131.316 549.016 131.44 549.485 131.688 549.823C131.935 550.162 132.277 550.331 132.713 550.331C133.286 550.331 133.704 550.074 133.968 549.56V547.133C133.698 546.635 133.283 546.386 132.723 546.386C132.28 546.386 131.935 546.557 131.688 546.898C131.44 547.24 131.316 547.746 131.316 548.417ZM138.47 551.098C137.754 551.098 137.171 550.863 136.722 550.395C136.272 549.923 136.048 549.293 136.048 548.505V548.339C136.048 547.815 136.147 547.348 136.346 546.938C136.548 546.524 136.827 546.202 137.186 545.971C137.547 545.736 137.938 545.619 138.357 545.619C139.044 545.619 139.578 545.845 139.959 546.298C140.34 546.75 140.53 547.398 140.53 548.241V548.617H136.951C136.964 549.138 137.116 549.56 137.405 549.882C137.698 550.201 138.069 550.36 138.519 550.36C138.838 550.36 139.108 550.295 139.329 550.165C139.55 550.035 139.744 549.862 139.91 549.647L140.462 550.077C140.019 550.757 139.355 551.098 138.47 551.098ZM138.357 546.361C137.993 546.361 137.687 546.495 137.439 546.762C137.192 547.025 137.039 547.396 136.98 547.875H139.627V547.807C139.601 547.348 139.477 546.993 139.256 546.742C139.035 546.488 138.735 546.361 138.357 546.361ZM143.353 547.646L144.524 545.717H145.579L143.851 548.329L145.633 551H144.588L143.367 549.022L142.146 551H141.097L142.879 548.329L141.15 545.717H142.195L143.353 547.646ZM146.561 550.526C146.561 550.37 146.606 550.24 146.697 550.136C146.792 550.032 146.932 549.979 147.117 549.979C147.303 549.979 147.443 550.032 147.537 550.136C147.635 550.24 147.684 550.37 147.684 550.526C147.684 550.676 147.635 550.801 147.537 550.902C147.443 551.003 147.303 551.054 147.117 551.054C146.932 551.054 146.792 551.003 146.697 550.902C146.606 550.801 146.561 550.676 146.561 550.526ZM150.11 545.717V551.61C150.11 552.626 149.65 553.134 148.729 553.134C148.53 553.134 148.346 553.104 148.177 553.046V552.323C148.281 552.349 148.418 552.362 148.587 552.362C148.789 552.362 148.942 552.307 149.046 552.196C149.153 552.089 149.207 551.9 149.207 551.63V545.717H150.11ZM149.114 544.315C149.114 544.172 149.158 544.05 149.246 543.949C149.337 543.845 149.469 543.793 149.642 543.793C149.817 543.793 149.951 543.843 150.042 543.944C150.133 544.045 150.179 544.169 150.179 544.315C150.179 544.462 150.133 544.584 150.042 544.682C149.951 544.779 149.817 544.828 149.642 544.828C149.466 544.828 149.334 544.779 149.246 544.682C149.158 544.584 149.114 544.462 149.114 544.315ZM154.646 549.599C154.646 549.354 154.554 549.166 154.368 549.032C154.186 548.896 153.865 548.778 153.406 548.681C152.951 548.583 152.588 548.466 152.317 548.329C152.05 548.192 151.852 548.03 151.722 547.841C151.595 547.652 151.531 547.427 151.531 547.167C151.531 546.734 151.714 546.368 152.078 546.068C152.446 545.769 152.915 545.619 153.484 545.619C154.083 545.619 154.568 545.774 154.939 546.083C155.314 546.392 155.501 546.788 155.501 547.27H154.593C154.593 547.022 154.487 546.809 154.275 546.63C154.067 546.451 153.803 546.361 153.484 546.361C153.156 546.361 152.898 546.433 152.713 546.576C152.527 546.719 152.435 546.907 152.435 547.138C152.435 547.356 152.521 547.52 152.693 547.631C152.866 547.742 153.177 547.847 153.626 547.948C154.078 548.049 154.445 548.17 154.725 548.31C155.005 548.45 155.211 548.619 155.345 548.817C155.481 549.013 155.55 549.252 155.55 549.535C155.55 550.007 155.361 550.386 154.983 550.673C154.606 550.956 154.116 551.098 153.514 551.098C153.09 551.098 152.716 551.023 152.391 550.873C152.065 550.723 151.81 550.515 151.624 550.248C151.442 549.978 151.351 549.687 151.351 549.374H152.254C152.27 549.677 152.391 549.918 152.615 550.097C152.843 550.272 153.143 550.36 153.514 550.36C153.855 550.36 154.129 550.292 154.334 550.155C154.542 550.015 154.646 549.83 154.646 549.599Z" fill="#4000C7" fill-opacity="0.5"/>
<path d="M148.746 521.016L142.938 515.252C142.776 515.091 142.558 515 142.328 515H130.864C130.386 515 130 515.383 130 515.857V538.143C130 538.617 130.386 539 130.864 539H148.136C148.614 539 149 538.617 149 538.143V521.624C149 521.396 148.908 521.177 148.746 521.016ZM147.008 522.018H141.929V516.977L147.008 522.018ZM147.057 537.071H131.943V516.929H140.094V522.714C140.094 523.013 140.213 523.299 140.426 523.51C140.638 523.721 140.927 523.839 141.227 523.839H147.057V537.071ZM139.284 529.839H134.318C134.199 529.839 134.102 529.936 134.102 530.054V531.339C134.102 531.457 134.199 531.554 134.318 531.554H139.284C139.403 531.554 139.5 531.457 139.5 531.339V530.054C139.5 529.936 139.403 529.839 139.284 529.839ZM134.102 526.411V527.696C134.102 527.814 134.199 527.911 134.318 527.911H144.682C144.801 527.911 144.898 527.814 144.898 527.696V526.411C144.898 526.293 144.801 526.196 144.682 526.196H134.318C134.199 526.196 134.102 526.293 134.102 526.411Z" fill="#4000C7" fill-opacity="0.5"/>
<circle cx="355.5" cy="322.5" r="9" fill="white" stroke="#4000C7" stroke-dasharray="2 2"/>
<rect x="371.031" y="342.209" width="18" height="41" rx="5" transform="rotate(-64.2277 371.031 342.209)" fill="black"/>
<path d="M367.739 330.627L376.675 331.094L373.662 337.333L367.739 330.627Z" fill="black"/>
<path d="M388.334 336.418L387.722 337.685L388.699 338.157L388.366 338.848L387.388 338.377L385.821 341.622C385.72 341.832 385.688 342.011 385.723 342.159C385.76 342.304 385.884 342.428 386.093 342.529C386.197 342.579 386.348 342.628 386.547 342.676L386.197 343.402C385.93 343.353 385.686 343.274 385.463 343.167C385.063 342.974 384.82 342.707 384.734 342.367C384.648 342.028 384.712 341.635 384.927 341.19L386.494 337.945L385.541 337.485L385.875 336.793L386.828 337.253L387.439 335.986L388.334 336.418ZM389.347 345.042C388.638 344.7 388.173 344.189 387.952 343.51C387.733 342.827 387.811 342.096 388.188 341.316L388.268 341.151C388.518 340.632 388.84 340.217 389.233 339.905C389.631 339.592 390.062 339.407 390.527 339.349C390.997 339.29 391.44 339.361 391.856 339.562C392.537 339.89 392.957 340.37 393.118 341C393.279 341.63 393.158 342.363 392.755 343.198L392.575 343.571L389.029 341.859C388.793 342.381 388.741 342.871 388.874 343.329C389.012 343.785 389.303 344.12 389.748 344.335C390.064 344.488 390.363 344.553 390.645 344.529C390.926 344.506 391.201 344.428 391.468 344.295L391.809 344.984C391.045 345.446 390.224 345.466 389.347 345.042ZM391.501 340.297C391.14 340.122 390.773 340.108 390.4 340.254C390.029 340.397 389.7 340.692 389.413 341.138L392.035 342.403L392.068 342.336C392.261 341.869 392.308 341.458 392.209 341.104C392.111 340.746 391.875 340.477 391.501 340.297ZM396.192 346.516C396.309 346.274 396.308 346.043 396.188 345.822C396.072 345.599 395.811 345.33 395.403 345.014C394.998 344.699 394.695 344.409 394.492 344.145C394.293 343.882 394.175 343.625 394.136 343.376C394.1 343.128 394.145 342.875 394.27 342.617C394.477 342.189 394.832 341.913 395.337 341.791C395.844 341.67 396.38 341.746 396.945 342.018C397.538 342.305 397.944 342.69 398.164 343.174C398.387 343.659 398.383 344.14 398.153 344.618L397.253 344.183C397.372 343.938 397.369 343.676 397.245 343.398C397.124 343.121 396.906 342.906 396.59 342.754C396.264 342.596 395.975 342.544 395.723 342.597C395.47 342.651 395.289 342.792 395.178 343.02C395.074 343.237 395.081 343.441 395.199 343.633C395.317 343.825 395.574 344.078 395.971 344.393C396.371 344.71 396.676 345.004 396.886 345.277C397.097 345.549 397.221 345.816 397.258 346.076C397.3 346.335 397.253 346.605 397.118 346.885C396.892 347.353 396.523 347.638 396.012 347.741C395.503 347.841 394.95 347.747 394.353 347.459C393.934 347.257 393.599 347.004 393.348 346.7C393.097 346.396 392.944 346.067 392.888 345.714C392.837 345.359 392.886 345.027 393.035 344.717L393.93 345.149C393.801 345.457 393.805 345.753 393.942 346.038C394.084 346.321 394.338 346.551 394.706 346.729C395.045 346.892 395.348 346.955 395.617 346.918C395.89 346.879 396.082 346.745 396.192 346.516ZM401.935 342.985L401.324 344.252L402.301 344.724L401.967 345.415L400.99 344.944L399.423 348.189C399.321 348.399 399.289 348.578 399.324 348.726C399.362 348.871 399.485 348.995 399.695 349.096C399.798 349.146 399.949 349.195 400.148 349.243L399.798 349.969C399.531 349.92 399.287 349.841 399.064 349.734C398.665 349.541 398.421 349.274 398.335 348.934C398.249 348.594 398.313 348.202 398.528 347.757L400.095 344.512L399.142 344.051L399.476 343.36L400.429 343.82L401.041 342.553L401.935 342.985Z" fill="white"/>
<circle cx="140.5" cy="362.5" r="9.5" fill="#4000C7"/>
<circle cx="220.5" cy="362.5" r="9.5" fill="#4000C7"/>
<circle cx="301.5" cy="362.5" r="9.5" fill="#4000C7"/>
<rect x="318.031" y="379.209" width="18" height="41" rx="5" transform="rotate(-64.2277 318.031 379.209)" fill="black" fill-opacity="0.5"/>
<path d="M314.739 367.627L323.456 367.988L320.443 374.227L314.739 367.627Z" fill="black" fill-opacity="0.5"/>
<path d="M331.791 373.219L331.535 373.811C332.137 373.545 332.764 373.569 333.415 373.884C334.147 374.237 334.51 374.758 334.503 375.447C334.799 375.28 335.122 375.185 335.475 375.165C335.83 375.145 336.198 375.227 336.578 375.411C337.726 375.965 338.016 376.855 337.449 378.08L335.756 381.587L334.861 381.155L336.528 377.701C336.709 377.327 336.758 377.007 336.676 376.741C336.595 376.471 336.353 376.239 335.95 376.044C335.618 375.884 335.294 375.851 334.978 375.945C334.664 376.036 334.408 376.24 334.211 376.559L332.534 380.031L331.635 379.597L333.29 376.168C333.658 375.407 333.469 374.846 332.724 374.487C332.137 374.203 331.615 374.259 331.158 374.655L329.313 378.476L328.418 378.044L330.945 372.811L331.791 373.219ZM340.341 383.801C340.339 383.672 340.386 383.468 340.481 383.188C339.857 383.42 339.256 383.396 338.679 383.117C338.163 382.868 337.809 382.518 337.617 382.068C337.43 381.616 337.444 381.165 337.661 380.717C337.924 380.172 338.334 379.849 338.892 379.749C339.454 379.647 340.111 379.777 340.862 380.14L341.733 380.56L341.931 380.149C342.082 379.836 342.108 379.543 342.01 379.268C341.913 378.991 341.683 378.765 341.319 378.589C340.999 378.434 340.693 378.386 340.399 378.443C340.105 378.5 339.903 378.643 339.792 378.872L338.893 378.437C339.019 378.176 339.232 377.969 339.533 377.816C339.838 377.661 340.183 377.589 340.567 377.6C340.955 377.612 341.339 377.71 341.72 377.894C342.323 378.185 342.722 378.564 342.917 379.032C343.114 379.497 343.092 379.997 342.849 380.532L341.686 382.941C341.454 383.422 341.331 383.833 341.317 384.176L341.279 384.254L340.341 383.801ZM339.185 382.402C339.466 382.537 339.767 382.593 340.088 382.569C340.41 382.546 340.683 382.445 340.908 382.267L341.427 381.194L340.725 380.855C339.629 380.326 338.926 380.382 338.616 381.023C338.481 381.304 338.468 381.568 338.579 381.817C338.69 382.065 338.892 382.26 339.185 382.402ZM343.47 385.312L342.576 384.88L345.102 379.646L345.997 380.078L343.47 385.312ZM345.7 378.223C345.77 378.078 345.873 377.976 346.008 377.918C346.147 377.862 346.303 377.876 346.477 377.96C346.651 378.044 346.759 378.158 346.801 378.301C346.843 378.445 346.829 378.589 346.759 378.734C346.689 378.879 346.586 378.979 346.449 379.032C346.312 379.085 346.156 379.069 345.982 378.985C345.808 378.901 345.699 378.789 345.655 378.649C345.615 378.51 345.63 378.368 345.7 378.223ZM348.28 381.18L347.992 381.852C348.634 381.542 349.278 381.543 349.923 381.854C351.029 382.388 351.286 383.282 350.693 384.534L349.023 387.993L348.128 387.56L349.8 384.097C349.979 383.718 350.027 383.398 349.943 383.134C349.863 382.873 349.643 382.656 349.285 382.483C348.995 382.343 348.703 382.297 348.409 382.346C348.115 382.395 347.846 382.516 347.602 382.708L345.802 386.437L344.907 386.005L347.434 380.772L348.28 381.18Z" fill="white"/>
<line x1="150" y1="362.5" x2="292" y2="362.5" stroke="#4000C7"/>
<line x1="308.7" y1="357.6" x2="348.7" y2="327.6" stroke="#4000C7"/>
<path d="M356 337L352.636 341.693L358.382 342.259L356 337ZM259.01 424.925L259.044 425.424L259.01 424.925ZM150.485 459.467L150.025 459.273L150.485 459.467ZM140 505L143.185 500.185L137.422 499.834L140 505ZM355.063 341.409C353.213 355.529 346.504 375.102 331.606 391.732C316.719 408.35 293.635 422.054 258.976 424.426L259.044 425.424C293.959 423.034 317.287 409.215 332.351 392.4C347.404 375.596 354.182 355.826 356.055 341.539L355.063 341.409ZM258.976 424.426C213.123 427.565 188.409 430.314 173.917 435.246C166.649 437.72 161.915 440.753 158.371 444.683C154.837 448.602 152.517 453.38 150.025 459.273L150.946 459.662C153.434 453.778 155.701 449.137 159.114 445.352C162.517 441.579 167.089 438.626 174.239 436.193C188.581 431.312 213.148 428.566 259.044 425.424L258.976 424.426ZM150.025 459.273C143.33 475.101 140.594 491.288 139.776 500.463L140.772 500.552C141.583 491.449 144.303 475.369 150.946 459.662L150.025 459.273Z" fill="#4000C7"/>
</svg>
