<svg width="1152" height="587" viewBox="0 0 1152 587" fill="none" xmlns="http://www.w3.org/2000/svg">
<path d="M0 0H1152V587H0V0Z" fill="white" fill-opacity="0.01"/>
<path d="M259.34 370H258.397V366.714H254.813V370H253.876V362.891H254.813V365.947H258.397V362.891H259.34V370ZM265.023 366.714H261.942V369.233H265.521V370H261.005V362.891H265.473V363.662H261.942V365.947H265.023V366.714ZM270.614 368.145H267.636L266.967 370H266L268.715 362.891H269.535L272.255 370H271.293L270.614 368.145ZM267.919 367.373H270.336L269.125 364.048L267.919 367.373ZM273.212 370V362.891H275.219C275.837 362.891 276.384 363.027 276.859 363.301C277.335 363.574 277.701 363.963 277.958 364.468C278.218 364.972 278.35 365.552 278.354 366.206V366.66C278.354 367.331 278.223 367.918 277.963 368.423C277.706 368.927 277.336 369.315 276.854 369.585C276.376 369.855 275.818 369.993 275.18 370H273.212ZM274.149 363.662V369.233H275.136C275.858 369.233 276.42 369.009 276.82 368.56C277.224 368.11 277.426 367.471 277.426 366.641V366.226C277.426 365.418 277.235 364.792 276.854 364.346C276.477 363.896 275.94 363.669 275.243 363.662H274.149Z" fill="#4000C7"/>
<rect x="115.824" y="100.124" width="18" height="41" rx="5" transform="rotate(-90.1738 115.824 100.124)" fill="black"/>
<rect x="115.824" y="221.124" width="18" height="41" rx="5" transform="rotate(-90.1738 115.824 221.124)" fill="black"/>
<rect x="115.824" y="375.124" width="18" height="41" rx="5" transform="rotate(-90.1738 115.824 375.124)" fill="black"/>
<rect x="170.824" y="375.124" width="18" height="72.2432" rx="5" transform="rotate(-90.1738 170.824 375.124)" fill="black"/>
<path d="M108.001 91.1934L116.251 87.7304L116.25 94.6586L108.001 91.1934Z" fill="black"/>
<path d="M108.001 212.194L116.251 208.731L116.25 215.659L108.001 212.194Z" fill="black"/>
<path d="M108.001 366.193L116.251 362.73L116.25 369.659L108.001 366.193Z" fill="black"/>
<path d="M163.001 366.193L171.251 362.73L171.25 369.659L163.001 366.193Z" fill="black"/>
<path d="M125.601 88.737L125.628 89.3815C126.054 88.8801 126.629 88.6294 127.352 88.6293C128.165 88.6291 128.718 88.9405 129.012 89.5635C129.205 89.2842 129.456 89.0586 129.764 88.8866C130.075 88.7147 130.442 88.6287 130.865 88.6286C132.14 88.6284 132.788 89.3032 132.81 90.6532L132.81 94.5472L131.817 94.5474L131.816 90.7124C131.816 90.2971 131.721 89.9874 131.531 89.7833C131.341 89.5756 131.023 89.4719 130.575 89.4719C130.206 89.472 129.9 89.5831 129.657 89.8051C129.413 90.0236 129.272 90.319 129.233 90.6914L129.233 94.5479L128.234 94.548L128.234 90.7399C128.233 89.8949 127.82 89.4724 126.993 89.4726C126.341 89.4727 125.895 89.7503 125.655 90.3053L125.656 94.5485L124.662 94.5487L124.661 88.7372L125.601 88.737ZM137.902 94.5463C137.845 94.4317 137.798 94.2276 137.762 93.934C137.301 94.4139 136.749 94.6539 136.108 94.654C135.535 94.6541 135.064 94.4931 134.696 94.1709C134.33 93.8451 134.148 93.4334 134.148 92.9356C134.147 92.3305 134.376 91.8614 134.835 91.5283C135.297 91.1916 135.945 91.0232 136.779 91.0231L137.746 91.0229L137.746 90.5663C137.746 90.219 137.642 89.9433 137.434 89.7393C137.226 89.5316 136.92 89.4278 136.516 89.4279C136.161 89.428 135.864 89.5175 135.624 89.6966C135.384 89.8757 135.264 90.0923 135.264 90.3466L134.265 90.3468C134.265 90.0567 134.367 89.7774 134.571 89.5088C134.779 89.2366 135.058 89.0217 135.409 88.8641C135.763 88.7065 136.152 88.6277 136.574 88.6276C137.244 88.6275 137.769 88.7957 138.148 89.1322C138.528 89.4651 138.725 89.9252 138.739 90.5125L138.74 93.1873C138.74 93.7208 138.808 94.1451 138.944 94.4602L138.944 94.5461L137.902 94.5463ZM136.253 93.7893C136.565 93.7892 136.86 93.7086 137.139 93.5474C137.419 93.3862 137.621 93.1767 137.746 92.9189L137.746 91.7265L136.967 91.7266C135.75 91.7269 135.141 92.0833 135.141 92.7958C135.141 93.1073 135.245 93.3508 135.453 93.5262C135.661 93.7016 135.927 93.7893 136.253 93.7893ZM141.377 94.5457L140.384 94.5458L140.383 88.7343L141.376 88.7341L141.377 94.5457ZM140.302 87.1928C140.302 87.0317 140.35 86.8956 140.447 86.7846C140.547 86.6736 140.694 86.6181 140.887 86.618C141.08 86.618 141.227 86.6735 141.328 86.7844C141.428 86.8954 141.478 87.0315 141.478 87.1926C141.478 87.3538 141.428 87.488 141.328 87.5955C141.227 87.7029 141.081 87.7567 140.887 87.7567C140.694 87.7567 140.547 87.703 140.447 87.5956C140.35 87.4882 140.302 87.354 140.302 87.1928ZM143.911 88.7337L143.944 89.4641C144.388 88.9055 144.968 88.6261 145.684 88.6259C146.912 88.6257 147.532 89.3185 147.543 90.7042L147.543 94.5445L146.55 94.5447L146.549 90.699C146.545 90.2801 146.449 89.9704 146.259 89.7699C146.073 89.5694 145.781 89.4692 145.383 89.4693C145.061 89.4693 144.778 89.5553 144.535 89.7272C144.291 89.8991 144.101 90.1248 143.965 90.4041L143.966 94.5452L142.973 94.5454L142.971 88.7339L143.911 88.7337Z" fill="white"/>
<path d="M125.601 209.737L125.628 210.382C126.054 209.88 126.629 209.63 127.352 209.63C128.165 209.629 128.718 209.941 129.012 210.564C129.205 210.284 129.456 210.059 129.764 209.887C130.075 209.715 130.442 209.629 130.865 209.629C132.14 209.629 132.788 210.303 132.81 211.653L132.81 215.547L131.817 215.548L131.816 211.713C131.816 211.297 131.721 210.988 131.531 210.784C131.341 210.576 131.023 210.472 130.575 210.472C130.206 210.472 129.9 210.583 129.657 210.805C129.413 211.024 129.272 211.319 129.233 211.692L129.233 215.548L128.234 215.548L128.234 211.74C128.233 210.895 127.82 210.473 126.993 210.473C126.341 210.473 125.895 210.751 125.655 211.306L125.656 215.549L124.662 215.549L124.661 209.737L125.601 209.737ZM137.902 215.547C137.845 215.432 137.798 215.228 137.762 214.934C137.301 215.414 136.749 215.654 136.108 215.654C135.535 215.654 135.064 215.493 134.696 215.171C134.33 214.845 134.148 214.434 134.148 213.936C134.147 213.331 134.376 212.862 134.835 212.529C135.297 212.192 135.945 212.023 136.779 212.023L137.746 212.023L137.746 211.567C137.746 211.219 137.642 210.944 137.434 210.739C137.226 210.532 136.92 210.428 136.516 210.428C136.161 210.428 135.864 210.518 135.624 210.697C135.384 210.876 135.264 211.093 135.264 211.347L134.265 211.347C134.265 211.057 134.367 210.778 134.571 210.509C134.779 210.237 135.058 210.022 135.409 209.864C135.763 209.707 136.152 209.628 136.574 209.628C137.244 209.628 137.769 209.796 138.148 210.132C138.528 210.465 138.725 210.925 138.739 211.513L138.74 214.188C138.74 214.721 138.808 215.145 138.944 215.46L138.944 215.546L137.902 215.547ZM136.253 214.79C136.565 214.789 136.86 214.709 137.139 214.548C137.419 214.386 137.621 214.177 137.746 213.919L137.746 212.727L136.967 212.727C135.75 212.727 135.141 213.083 135.141 213.796C135.141 214.108 135.245 214.351 135.453 214.526C135.661 214.702 135.927 214.79 136.253 214.79ZM141.377 215.546L140.384 215.546L140.383 209.735L141.376 209.734L141.377 215.546ZM140.302 208.193C140.302 208.032 140.35 207.896 140.447 207.785C140.547 207.674 140.694 207.618 140.887 207.618C141.08 207.618 141.227 207.674 141.328 207.785C141.428 207.896 141.478 208.032 141.478 208.193C141.478 208.354 141.428 208.488 141.328 208.596C141.227 208.703 141.081 208.757 140.887 208.757C140.694 208.757 140.547 208.703 140.447 208.596C140.35 208.488 140.302 208.354 140.302 208.193ZM143.911 209.734L143.944 210.464C144.388 209.906 144.968 209.626 145.684 209.626C146.912 209.626 147.532 210.319 147.543 211.704L147.543 215.545L146.55 215.545L146.549 211.699C146.545 211.28 146.449 210.971 146.259 210.77C146.073 210.57 145.781 210.469 145.383 210.47C145.061 210.47 144.778 210.556 144.535 210.727C144.291 210.899 144.101 211.125 143.965 211.404L143.966 215.545L142.973 215.546L142.971 209.734L143.911 209.734Z" fill="white"/>
<path d="M125.601 363.737L125.628 364.382C126.054 363.88 126.629 363.629 127.352 363.629C128.165 363.629 128.718 363.941 129.012 364.564C129.205 364.284 129.456 364.059 129.764 363.887C130.075 363.715 130.442 363.629 130.865 363.629C132.14 363.628 132.788 364.303 132.81 365.653L132.81 369.547L131.817 369.547L131.816 365.712C131.816 365.297 131.721 364.987 131.531 364.783C131.341 364.576 131.023 364.472 130.575 364.472C130.206 364.472 129.9 364.583 129.657 364.805C129.413 365.024 129.272 365.319 129.233 365.691L129.233 369.548L128.234 369.548L128.234 365.74C128.233 364.895 127.82 364.472 126.993 364.473C126.341 364.473 125.895 364.75 125.655 365.305L125.656 369.549L124.662 369.549L124.661 363.737L125.601 363.737ZM137.902 369.546C137.845 369.432 137.798 369.228 137.762 368.934C137.301 369.414 136.749 369.654 136.108 369.654C135.535 369.654 135.064 369.493 134.696 369.171C134.33 368.845 134.148 368.433 134.148 367.936C134.147 367.331 134.376 366.861 134.835 366.528C135.297 366.192 135.945 366.023 136.779 366.023L137.746 366.023L137.746 365.566C137.746 365.219 137.642 364.943 137.434 364.739C137.226 364.532 136.92 364.428 136.516 364.428C136.161 364.428 135.864 364.518 135.624 364.697C135.384 364.876 135.264 365.092 135.264 365.347L134.265 365.347C134.265 365.057 134.367 364.777 134.571 364.509C134.779 364.237 135.058 364.022 135.409 363.864C135.763 363.707 136.152 363.628 136.574 363.628C137.244 363.627 137.769 363.796 138.148 364.132C138.528 364.465 138.725 364.925 138.739 365.512L138.74 368.187C138.74 368.721 138.808 369.145 138.944 369.46L138.944 369.546L137.902 369.546ZM136.253 368.789C136.565 368.789 136.86 368.709 137.139 368.547C137.419 368.386 137.621 368.177 137.746 367.919L137.746 366.726L136.967 366.727C135.75 366.727 135.141 367.083 135.141 367.796C135.141 368.107 135.245 368.351 135.453 368.526C135.661 368.702 135.927 368.789 136.253 368.789ZM141.377 369.546L140.384 369.546L140.383 363.734L141.376 363.734L141.377 369.546ZM140.302 362.193C140.302 362.032 140.35 361.896 140.447 361.785C140.547 361.674 140.694 361.618 140.887 361.618C141.08 361.618 141.227 361.673 141.328 361.784C141.428 361.895 141.478 362.031 141.478 362.193C141.478 362.354 141.428 362.488 141.328 362.595C141.227 362.703 141.081 362.757 140.887 362.757C140.694 362.757 140.547 362.703 140.447 362.596C140.35 362.488 140.302 362.354 140.302 362.193ZM143.911 363.734L143.944 364.464C144.388 363.905 144.968 363.626 145.684 363.626C146.912 363.626 147.532 364.318 147.543 365.704L147.543 369.545L146.55 369.545L146.549 365.699C146.545 365.28 146.449 364.97 146.259 364.77C146.073 364.569 145.781 364.469 145.383 364.469C145.061 364.469 144.778 364.555 144.535 364.727C144.291 364.899 144.101 365.125 143.965 365.404L143.966 369.545L142.973 369.545L142.971 363.734L143.911 363.734Z" fill="white"/>
<path d="M180.157 369.549L180.156 364.505L179.237 364.505L179.237 363.737L180.156 363.737L180.155 363.141C180.155 362.518 180.322 362.036 180.655 361.696C180.988 361.356 181.458 361.186 182.067 361.185C182.296 361.185 182.524 361.216 182.749 361.277L182.696 362.082C182.527 362.05 182.348 362.034 182.159 362.034C181.836 362.034 181.588 362.129 181.412 362.319C181.237 362.505 181.149 362.774 181.149 363.125L181.149 363.737L182.39 363.737L182.39 364.505L181.149 364.505L181.15 369.548L180.157 369.549ZM185.775 369.655C184.987 369.655 184.346 369.397 183.852 368.882C183.358 368.363 183.11 367.67 183.11 366.803L183.11 366.621C183.11 366.044 183.219 365.53 183.438 365.079C183.659 364.624 183.967 364.27 184.361 364.016C184.759 363.758 185.188 363.629 185.65 363.629C186.406 363.629 186.993 363.877 187.412 364.375C187.831 364.873 188.041 365.585 188.041 366.513L188.041 366.926L184.104 366.927C184.118 367.5 184.285 367.963 184.604 368.318C184.926 368.669 185.334 368.844 185.828 368.844C186.179 368.844 186.476 368.772 186.72 368.629C186.963 368.486 187.176 368.296 187.359 368.06L187.966 368.532C187.479 369.281 186.749 369.655 185.775 369.655ZM185.65 364.445C185.249 364.445 184.913 364.592 184.641 364.886C184.369 365.176 184.2 365.584 184.136 366.11L187.047 366.11L187.047 366.035C187.018 365.53 186.882 365.14 186.639 364.864C186.395 364.585 186.066 364.445 185.65 364.445ZM192.784 369.546C192.727 369.432 192.68 369.228 192.644 368.934C192.182 369.414 191.631 369.654 190.99 369.654C190.417 369.654 189.946 369.493 189.577 369.171C189.212 368.845 189.029 368.433 189.029 367.936C189.029 367.331 189.258 366.861 189.717 366.528C190.178 366.192 190.827 366.023 191.661 366.023L192.628 366.023L192.628 365.566C192.627 365.219 192.524 364.943 192.316 364.739C192.108 364.532 191.802 364.428 191.397 364.428C191.043 364.428 190.746 364.518 190.506 364.697C190.266 364.876 190.146 365.092 190.146 365.347L189.147 365.347C189.147 365.057 189.249 364.777 189.453 364.509C189.661 364.237 189.94 364.022 190.291 363.864C190.645 363.707 191.034 363.628 191.456 363.628C192.126 363.627 192.651 363.796 193.03 364.132C193.41 364.465 193.607 364.925 193.621 365.512L193.622 368.187C193.622 368.721 193.69 369.145 193.826 369.46L193.826 369.546L192.784 369.546ZM191.135 368.789C191.446 368.789 191.742 368.709 192.021 368.547C192.3 368.386 192.503 368.177 192.628 367.919L192.628 366.727L191.849 366.727C190.632 366.727 190.023 367.083 190.023 367.796C190.023 368.107 190.127 368.351 190.335 368.526C190.542 368.702 190.809 368.789 191.135 368.789ZM196.526 362.327L196.527 363.734L197.612 363.734L197.612 364.502L196.527 364.502L196.527 368.106C196.527 368.339 196.576 368.514 196.673 368.633C196.769 368.747 196.934 368.804 197.167 368.804C197.281 368.804 197.439 368.783 197.639 368.74L197.64 369.545C197.378 369.617 197.124 369.653 196.877 369.653C196.433 369.653 196.098 369.519 195.872 369.25C195.647 368.982 195.534 368.601 195.534 368.106L195.533 364.502L194.475 364.503L194.475 363.734L195.533 363.734L195.533 362.327L196.526 362.327ZM198.977 370.217L198.123 370.217L201.387 361.724L202.236 361.724L198.977 370.217ZM206.695 368.002C206.695 367.734 206.593 367.526 206.389 367.379C206.188 367.229 205.835 367.1 205.33 366.993C204.829 366.885 204.43 366.757 204.133 366.606C203.839 366.456 203.621 366.277 203.477 366.069C203.338 365.862 203.268 365.615 203.268 365.328C203.268 364.852 203.468 364.449 203.869 364.12C204.274 363.79 204.789 363.625 205.416 363.625C206.075 363.625 206.608 363.795 207.016 364.135C207.428 364.475 207.634 364.91 207.634 365.44L206.635 365.44C206.635 365.168 206.519 364.934 206.286 364.737C206.057 364.54 205.767 364.441 205.416 364.441C205.054 364.442 204.771 364.52 204.567 364.678C204.363 364.836 204.261 365.041 204.261 365.296C204.261 365.536 204.356 365.716 204.546 365.838C204.736 365.96 205.078 366.076 205.572 366.187C206.07 366.298 206.473 366.43 206.781 366.584C207.089 366.738 207.316 366.924 207.463 367.143C207.613 367.358 207.688 367.621 207.689 367.932C207.689 368.451 207.481 368.869 207.066 369.184C206.65 369.495 206.112 369.651 205.449 369.651C204.984 369.652 204.572 369.569 204.214 369.405C203.856 369.24 203.574 369.011 203.37 368.717C203.17 368.42 203.069 368.1 203.069 367.756L204.063 367.756C204.081 368.089 204.214 368.354 204.461 368.551C204.711 368.744 205.041 368.84 205.449 368.84C205.825 368.84 206.126 368.765 206.351 368.615C206.58 368.461 206.695 368.257 206.695 368.002ZM210.063 369.543L209.069 369.543L209.068 363.732L210.062 363.732L210.063 369.543ZM208.987 362.19C208.987 362.029 209.036 361.893 209.132 361.782C209.232 361.671 209.379 361.616 209.573 361.616C209.766 361.616 209.913 361.671 210.013 361.782C210.113 361.893 210.164 362.029 210.164 362.19C210.164 362.351 210.113 362.486 210.013 362.593C209.913 362.7 209.766 362.754 209.573 362.754C209.379 362.754 209.233 362.701 209.132 362.593C209.036 362.486 208.987 362.351 208.987 362.19ZM211.421 366.589C211.421 365.683 211.63 364.963 212.049 364.43C212.468 363.892 213.023 363.624 213.714 363.624C214.423 363.623 214.976 363.874 215.374 364.375L215.422 363.731L216.33 363.731L216.331 369.402C216.331 370.154 216.107 370.747 215.66 371.18C215.216 371.614 214.618 371.83 213.866 371.831C213.447 371.831 213.037 371.741 212.636 371.562C212.235 371.383 211.929 371.138 211.717 370.827L212.233 370.23C212.659 370.757 213.18 371.02 213.796 371.02C214.279 371.019 214.655 370.883 214.924 370.611C215.196 370.339 215.332 369.956 215.332 369.462L215.332 368.962C214.934 369.421 214.392 369.65 213.704 369.65C213.024 369.65 212.473 369.376 212.05 368.828C211.631 368.281 211.421 367.534 211.421 366.589ZM212.42 366.701C212.42 367.357 212.555 367.872 212.823 368.248C213.092 368.621 213.468 368.807 213.951 368.807C214.578 368.807 215.038 368.522 215.332 367.952L215.331 365.299C215.027 364.744 214.57 364.467 213.961 364.467C213.478 364.467 213.1 364.655 212.828 365.031C212.556 365.407 212.42 365.964 212.42 366.701ZM218.774 363.73L218.806 364.461C219.25 363.902 219.83 363.622 220.546 363.622C221.774 363.622 222.394 364.315 222.405 365.701L222.406 369.541L221.412 369.541L221.411 365.695C221.408 365.276 221.311 364.967 221.121 364.766C220.935 364.566 220.643 364.466 220.246 364.466C219.923 364.466 219.64 364.552 219.397 364.724C219.153 364.896 218.964 365.121 218.828 365.4L218.828 369.542L217.835 369.542L217.834 363.73L218.774 363.73ZM227.492 368.965C227.105 369.42 226.538 369.648 225.789 369.648C225.17 369.648 224.697 369.469 224.371 369.111C224.049 368.749 223.886 368.216 223.882 367.51L223.882 363.729L224.875 363.729L224.876 367.483C224.876 368.364 225.234 368.805 225.95 368.804C226.71 368.804 227.214 368.521 227.465 367.956L227.464 363.729L228.458 363.728L228.459 369.54L227.514 369.54L227.492 368.965ZM234.882 366.697C234.882 367.582 234.68 368.294 234.276 368.835C233.871 369.376 233.323 369.646 232.632 369.647C231.927 369.647 231.372 369.423 230.967 368.975L230.968 371.774L229.974 371.774L229.972 363.728L230.88 363.728L230.929 364.372C231.333 363.871 231.895 363.62 232.615 363.62C233.313 363.62 233.865 363.883 234.269 364.409C234.678 364.936 234.882 365.668 234.882 366.606L234.882 366.697ZM233.888 366.585C233.888 365.93 233.749 365.412 233.469 365.033C233.19 364.653 232.807 364.463 232.32 364.463C231.718 364.464 231.267 364.73 230.966 365.264L230.967 368.041C231.264 368.571 231.719 368.836 232.331 368.836C232.808 368.835 233.185 368.647 233.464 368.271C233.747 367.892 233.889 367.33 233.888 366.585Z" fill="white"/>
<circle cx="84.5" cy="366.5" r="9.5" fill="#4000C7"/>
<circle cx="84.5" cy="212.5" r="9.5" fill="#4000C7"/>
<circle cx="84.5" cy="91.5" r="9.5" fill="#4000C7"/>
</svg>
