<svg width="1152" height="587" viewBox="0 0 1152 587" fill="none" xmlns="http://www.w3.org/2000/svg">
<path d="M0 0H1152V587H0V0Z" fill="white" fill-opacity="0.01"/>
<path d="M871.665 512H870.762V506.717H871.665V512ZM870.688 505.315C870.688 505.169 870.732 505.045 870.82 504.944C870.911 504.843 871.045 504.793 871.221 504.793C871.396 504.793 871.53 504.843 871.621 504.944C871.712 505.045 871.758 505.169 871.758 505.315C871.758 505.462 871.712 505.584 871.621 505.682C871.53 505.779 871.396 505.828 871.221 505.828C871.045 505.828 870.911 505.779 870.82 505.682C870.732 505.584 870.688 505.462 870.688 505.315ZM873.97 506.717L873.999 507.381C874.403 506.873 874.93 506.619 875.581 506.619C876.698 506.619 877.261 507.249 877.271 508.509V512H876.367V508.504C876.364 508.123 876.276 507.841 876.104 507.659C875.934 507.477 875.669 507.386 875.308 507.386C875.015 507.386 874.757 507.464 874.536 507.62C874.315 507.776 874.142 507.981 874.019 508.235V512H873.115V506.717H873.97ZM878.413 509.314C878.413 508.504 878.605 507.853 878.989 507.361C879.373 506.867 879.876 506.619 880.498 506.619C881.117 506.619 881.606 506.831 881.968 507.254V504.5H882.871V512H882.041L881.997 511.434C881.636 511.876 881.133 512.098 880.488 512.098C879.876 512.098 879.377 511.847 878.989 511.346C878.605 510.844 878.413 510.19 878.413 509.383V509.314ZM879.316 509.417C879.316 510.016 879.44 510.485 879.688 510.823C879.935 511.162 880.277 511.331 880.713 511.331C881.286 511.331 881.704 511.074 881.968 510.56V508.133C881.698 507.635 881.283 507.386 880.723 507.386C880.28 507.386 879.935 507.557 879.688 507.898C879.44 508.24 879.316 508.746 879.316 509.417ZM886.47 512.098C885.754 512.098 885.171 511.863 884.722 511.395C884.272 510.923 884.048 510.293 884.048 509.505V509.339C884.048 508.815 884.147 508.348 884.346 507.938C884.548 507.524 884.827 507.202 885.186 506.971C885.547 506.736 885.938 506.619 886.357 506.619C887.044 506.619 887.578 506.845 887.959 507.298C888.34 507.75 888.53 508.398 888.53 509.241V509.617H884.951C884.964 510.138 885.116 510.56 885.405 510.882C885.698 511.201 886.069 511.36 886.519 511.36C886.838 511.36 887.108 511.295 887.329 511.165C887.55 511.035 887.744 510.862 887.91 510.647L888.462 511.077C888.019 511.757 887.355 512.098 886.47 512.098ZM886.357 507.361C885.993 507.361 885.687 507.495 885.439 507.762C885.192 508.025 885.039 508.396 884.98 508.875H887.627V508.807C887.601 508.348 887.477 507.993 887.256 507.742C887.035 507.488 886.735 507.361 886.357 507.361ZM891.353 508.646L892.524 506.717H893.579L891.851 509.329L893.633 512H892.588L891.367 510.022L890.146 512H889.097L890.879 509.329L889.15 506.717H890.195L891.353 508.646ZM894.561 511.526C894.561 511.37 894.606 511.24 894.697 511.136C894.792 511.032 894.932 510.979 895.117 510.979C895.303 510.979 895.443 511.032 895.537 511.136C895.635 511.24 895.684 511.37 895.684 511.526C895.684 511.676 895.635 511.801 895.537 511.902C895.443 512.003 895.303 512.054 895.117 512.054C894.932 512.054 894.792 512.003 894.697 511.902C894.606 511.801 894.561 511.676 894.561 511.526ZM898.11 506.717V512.61C898.11 513.626 897.65 514.134 896.729 514.134C896.53 514.134 896.346 514.104 896.177 514.046V513.323C896.281 513.349 896.418 513.362 896.587 513.362C896.789 513.362 896.942 513.307 897.046 513.196C897.153 513.089 897.207 512.9 897.207 512.63V506.717H898.11ZM897.114 505.315C897.114 505.172 897.158 505.05 897.246 504.949C897.337 504.845 897.469 504.793 897.642 504.793C897.817 504.793 897.951 504.843 898.042 504.944C898.133 505.045 898.179 505.169 898.179 505.315C898.179 505.462 898.133 505.584 898.042 505.682C897.951 505.779 897.817 505.828 897.642 505.828C897.466 505.828 897.334 505.779 897.246 505.682C897.158 505.584 897.114 505.462 897.114 505.315ZM902.646 510.599C902.646 510.354 902.554 510.166 902.368 510.032C902.186 509.896 901.865 509.778 901.406 509.681C900.951 509.583 900.588 509.466 900.317 509.329C900.05 509.192 899.852 509.03 899.722 508.841C899.595 508.652 899.531 508.427 899.531 508.167C899.531 507.734 899.714 507.368 900.078 507.068C900.446 506.769 900.915 506.619 901.484 506.619C902.083 506.619 902.568 506.774 902.939 507.083C903.314 507.392 903.501 507.788 903.501 508.27H902.593C902.593 508.022 902.487 507.809 902.275 507.63C902.067 507.451 901.803 507.361 901.484 507.361C901.156 507.361 900.898 507.433 900.713 507.576C900.527 507.719 900.435 507.907 900.435 508.138C900.435 508.356 900.521 508.52 900.693 508.631C900.866 508.742 901.177 508.847 901.626 508.948C902.078 509.049 902.445 509.17 902.725 509.31C903.005 509.45 903.211 509.619 903.345 509.817C903.481 510.013 903.55 510.252 903.55 510.535C903.55 511.007 903.361 511.386 902.983 511.673C902.606 511.956 902.116 512.098 901.514 512.098C901.09 512.098 900.716 512.023 900.391 511.873C900.065 511.723 899.81 511.515 899.624 511.248C899.442 510.978 899.351 510.687 899.351 510.374H900.254C900.27 510.677 900.391 510.918 900.615 511.097C900.843 511.272 901.143 511.36 901.514 511.36C901.855 511.36 902.129 511.292 902.334 511.155C902.542 511.015 902.646 510.83 902.646 510.599Z" fill="#4000C7"/>
<path d="M896.746 482.016L890.938 476.252C890.776 476.091 890.558 476 890.328 476H878.864C878.386 476 878 476.383 878 476.857V499.143C878 499.617 878.386 500 878.864 500H896.136C896.614 500 897 499.617 897 499.143V482.624C897 482.396 896.908 482.177 896.746 482.016ZM895.008 483.018H889.929V477.977L895.008 483.018ZM895.057 498.071H879.943V477.929H888.094V483.714C888.094 484.013 888.213 484.299 888.426 484.51C888.638 484.721 888.927 484.839 889.227 484.839H895.057V498.071ZM887.284 490.839H882.318C882.199 490.839 882.102 490.936 882.102 491.054V492.339C882.102 492.457 882.199 492.554 882.318 492.554H887.284C887.403 492.554 887.5 492.457 887.5 492.339V491.054C887.5 490.936 887.403 490.839 887.284 490.839ZM882.102 487.411V488.696C882.102 488.814 882.199 488.911 882.318 488.911H892.682C892.801 488.911 892.898 488.814 892.898 488.696V487.411C892.898 487.293 892.801 487.196 892.682 487.196H882.318C882.199 487.196 882.102 487.293 882.102 487.411Z" fill="#4000C7"/>
<path d="M866.372 492.198C866.551 491.988 866.527 491.673 866.317 491.493L862.899 488.566C862.689 488.387 862.373 488.411 862.194 488.621C862.014 488.831 862.039 489.146 862.248 489.326L865.287 491.927L862.686 494.966C862.506 495.176 862.53 495.491 862.74 495.671C862.95 495.851 863.266 495.826 863.445 495.616L866.372 492.198ZM374.039 530.499L866.031 492.371L865.953 491.374L373.961 529.501L374.039 530.499Z" fill="#4000C7"/>
</svg>
