<svg width="1152" height="587" viewBox="0 0 1152 587" fill="none" xmlns="http://www.w3.org/2000/svg">
<path d="M0 0H1152V587H0V0Z" fill="white" fill-opacity="0.01"/>
<path d="M272.34 342H271.397V338.714H267.813V342H266.876V334.891H267.813V337.947H271.397V334.891H272.34V342ZM278.023 338.714H274.942V341.233H278.521V342H274.005V334.891H278.473V335.662H274.942V337.947H278.023V338.714ZM283.614 340.145H280.636L279.967 342H279L281.715 334.891H282.535L285.255 342H284.293L283.614 340.145ZM280.919 339.373H283.336L282.125 336.048L280.919 339.373ZM286.212 342V334.891H288.219C288.837 334.891 289.384 335.027 289.859 335.301C290.335 335.574 290.701 335.963 290.958 336.468C291.218 336.972 291.35 337.552 291.354 338.206V338.66C291.354 339.331 291.223 339.918 290.963 340.423C290.706 340.927 290.336 341.315 289.854 341.585C289.376 341.855 288.818 341.993 288.18 342H286.212ZM287.149 335.662V341.233H288.136C288.858 341.233 289.42 341.009 289.82 340.56C290.224 340.11 290.426 339.471 290.426 338.641V338.226C290.426 337.418 290.235 336.792 289.854 336.346C289.477 335.896 288.94 335.669 288.243 335.662H287.149Z" fill="#4000C7"/>
<path d="M85.1863 359C83.5646 352.553 91.8523 338.272 137 339.029" stroke="#4000C7"/>
<rect x="115.824" y="100.124" width="18" height="41" rx="5" transform="rotate(-90.1738 115.824 100.124)" fill="black"/>
<rect x="115.824" y="221.124" width="18" height="41" rx="5" transform="rotate(-90.1738 115.824 221.124)" fill="black"/>
<rect x="177.824" y="348.124" width="18" height="70.7284" rx="5" transform="rotate(-90.1738 177.824 348.124)" fill="black"/>
<path d="M108.001 91.1934L116.251 87.7304L116.25 94.6586L108.001 91.1934Z" fill="black"/>
<path d="M108.001 212.194L116.251 208.731L116.25 215.659L108.001 212.194Z" fill="black"/>
<path d="M108.001 366.193L116.251 362.73L116.25 369.659L108.001 366.193Z" fill="black"/>
<path d="M170.001 339.194L178.251 335.731L178.25 342.659L170.001 339.194Z" fill="black"/>
<path d="M125.601 88.737L125.628 89.3815C126.054 88.8801 126.629 88.6294 127.352 88.6293C128.165 88.6291 128.718 88.9405 129.012 89.5635C129.205 89.2842 129.456 89.0586 129.764 88.8866C130.075 88.7147 130.442 88.6287 130.865 88.6286C132.14 88.6284 132.788 89.3032 132.81 90.6532L132.81 94.5472L131.817 94.5474L131.816 90.7124C131.816 90.2971 131.721 89.9874 131.531 89.7833C131.341 89.5756 131.023 89.4719 130.575 89.4719C130.206 89.472 129.9 89.5831 129.657 89.8051C129.413 90.0236 129.272 90.319 129.233 90.6914L129.233 94.5479L128.234 94.548L128.234 90.7399C128.233 89.8949 127.82 89.4724 126.993 89.4726C126.341 89.4727 125.895 89.7503 125.655 90.3053L125.656 94.5485L124.662 94.5487L124.661 88.7372L125.601 88.737ZM137.902 94.5463C137.845 94.4317 137.798 94.2276 137.762 93.934C137.301 94.4139 136.749 94.6539 136.108 94.654C135.535 94.6541 135.064 94.4931 134.696 94.1709C134.33 93.8451 134.148 93.4334 134.148 92.9356C134.147 92.3305 134.376 91.8614 134.835 91.5283C135.297 91.1916 135.945 91.0232 136.779 91.0231L137.746 91.0229L137.746 90.5663C137.746 90.219 137.642 89.9433 137.434 89.7393C137.226 89.5316 136.92 89.4278 136.516 89.4279C136.161 89.428 135.864 89.5175 135.624 89.6966C135.384 89.8757 135.264 90.0923 135.264 90.3466L134.265 90.3468C134.265 90.0567 134.367 89.7774 134.571 89.5088C134.779 89.2366 135.058 89.0217 135.409 88.8641C135.763 88.7065 136.152 88.6277 136.574 88.6276C137.244 88.6275 137.769 88.7957 138.148 89.1322C138.528 89.4651 138.725 89.9252 138.739 90.5125L138.74 93.1873C138.74 93.7208 138.808 94.1451 138.944 94.4602L138.944 94.5461L137.902 94.5463ZM136.253 93.7893C136.565 93.7892 136.86 93.7086 137.139 93.5474C137.419 93.3862 137.621 93.1767 137.746 92.9189L137.746 91.7265L136.967 91.7266C135.75 91.7269 135.141 92.0833 135.141 92.7958C135.141 93.1073 135.245 93.3508 135.453 93.5262C135.661 93.7016 135.927 93.7893 136.253 93.7893ZM141.377 94.5457L140.384 94.5458L140.383 88.7343L141.376 88.7341L141.377 94.5457ZM140.302 87.1928C140.302 87.0317 140.35 86.8956 140.447 86.7846C140.547 86.6736 140.694 86.6181 140.887 86.618C141.08 86.618 141.227 86.6735 141.328 86.7844C141.428 86.8954 141.478 87.0315 141.478 87.1926C141.478 87.3538 141.428 87.488 141.328 87.5955C141.227 87.7029 141.081 87.7567 140.887 87.7567C140.694 87.7567 140.547 87.703 140.447 87.5956C140.35 87.4882 140.302 87.354 140.302 87.1928ZM143.911 88.7337L143.944 89.4641C144.388 88.9055 144.968 88.6261 145.684 88.6259C146.912 88.6257 147.532 89.3185 147.543 90.7042L147.543 94.5445L146.55 94.5447L146.549 90.699C146.545 90.2801 146.449 89.9704 146.259 89.7699C146.073 89.5694 145.781 89.4692 145.383 89.4693C145.061 89.4693 144.778 89.5553 144.535 89.7272C144.291 89.8991 144.101 90.1248 143.965 90.4041L143.966 94.5452L142.973 94.5454L142.971 88.7339L143.911 88.7337Z" fill="white"/>
<path d="M125.601 209.737L125.628 210.382C126.054 209.88 126.629 209.63 127.352 209.63C128.165 209.629 128.718 209.941 129.012 210.564C129.205 210.284 129.456 210.059 129.764 209.887C130.075 209.715 130.442 209.629 130.865 209.629C132.14 209.629 132.788 210.303 132.81 211.653L132.81 215.547L131.817 215.548L131.816 211.713C131.816 211.297 131.721 210.988 131.531 210.784C131.341 210.576 131.023 210.472 130.575 210.472C130.206 210.472 129.9 210.583 129.657 210.805C129.413 211.024 129.272 211.319 129.233 211.692L129.233 215.548L128.234 215.548L128.234 211.74C128.233 210.895 127.82 210.473 126.993 210.473C126.341 210.473 125.895 210.751 125.655 211.306L125.656 215.549L124.662 215.549L124.661 209.737L125.601 209.737ZM137.902 215.547C137.845 215.432 137.798 215.228 137.762 214.934C137.301 215.414 136.749 215.654 136.108 215.654C135.535 215.654 135.064 215.493 134.696 215.171C134.33 214.845 134.148 214.434 134.148 213.936C134.147 213.331 134.376 212.862 134.835 212.529C135.297 212.192 135.945 212.023 136.779 212.023L137.746 212.023L137.746 211.567C137.746 211.219 137.642 210.944 137.434 210.739C137.226 210.532 136.92 210.428 136.516 210.428C136.161 210.428 135.864 210.518 135.624 210.697C135.384 210.876 135.264 211.093 135.264 211.347L134.265 211.347C134.265 211.057 134.367 210.778 134.571 210.509C134.779 210.237 135.058 210.022 135.409 209.864C135.763 209.707 136.152 209.628 136.574 209.628C137.244 209.628 137.769 209.796 138.148 210.132C138.528 210.465 138.725 210.925 138.739 211.513L138.74 214.188C138.74 214.721 138.808 215.145 138.944 215.46L138.944 215.546L137.902 215.547ZM136.253 214.79C136.565 214.789 136.86 214.709 137.139 214.548C137.419 214.386 137.621 214.177 137.746 213.919L137.746 212.727L136.967 212.727C135.75 212.727 135.141 213.083 135.141 213.796C135.141 214.108 135.245 214.351 135.453 214.526C135.661 214.702 135.927 214.79 136.253 214.79ZM141.377 215.546L140.384 215.546L140.383 209.735L141.376 209.734L141.377 215.546ZM140.302 208.193C140.302 208.032 140.35 207.896 140.447 207.785C140.547 207.674 140.694 207.618 140.887 207.618C141.08 207.618 141.227 207.674 141.328 207.785C141.428 207.896 141.478 208.032 141.478 208.193C141.478 208.354 141.428 208.488 141.328 208.596C141.227 208.703 141.081 208.757 140.887 208.757C140.694 208.757 140.547 208.703 140.447 208.596C140.35 208.488 140.302 208.354 140.302 208.193ZM143.911 209.734L143.944 210.464C144.388 209.906 144.968 209.626 145.684 209.626C146.912 209.626 147.532 210.319 147.543 211.704L147.543 215.545L146.55 215.545L146.549 211.699C146.545 211.28 146.449 210.971 146.259 210.77C146.073 210.57 145.781 210.469 145.383 210.47C145.061 210.47 144.778 210.556 144.535 210.727C144.291 210.899 144.101 211.125 143.965 211.404L143.966 215.545L142.973 215.546L142.971 209.734L143.911 209.734Z" fill="white"/>
<path d="M187.157 342.549L187.156 337.505L186.237 337.506L186.237 336.737L187.156 336.737L187.155 336.141C187.155 335.518 187.322 335.036 187.655 334.696C187.988 334.356 188.458 334.186 189.067 334.186C189.296 334.186 189.524 334.216 189.749 334.277L189.696 335.083C189.527 335.05 189.348 335.034 189.159 335.034C188.836 335.034 188.588 335.129 188.412 335.319C188.237 335.505 188.149 335.774 188.149 336.125L188.149 336.737L189.39 336.737L189.39 337.505L188.149 337.505L188.15 342.549L187.157 342.549ZM192.775 342.655C191.987 342.655 191.346 342.398 190.852 341.882C190.358 341.363 190.11 340.67 190.11 339.804L190.11 339.621C190.11 339.045 190.219 338.531 190.438 338.08C190.659 337.625 190.967 337.27 191.361 337.016C191.759 336.758 192.188 336.629 192.65 336.629C193.406 336.629 193.993 336.878 194.412 337.375C194.831 337.873 195.041 338.585 195.041 339.513L195.041 339.926L191.104 339.927C191.118 340.5 191.285 340.964 191.604 341.318C191.926 341.669 192.334 341.844 192.828 341.844C193.179 341.844 193.476 341.772 193.72 341.629C193.963 341.486 194.176 341.296 194.359 341.06L194.966 341.532C194.479 342.281 193.749 342.655 192.775 342.655ZM192.65 337.445C192.249 337.445 191.913 337.592 191.641 337.886C191.369 338.176 191.2 338.584 191.136 339.111L194.047 339.11L194.047 339.035C194.018 338.53 193.882 338.14 193.639 337.864C193.395 337.585 193.066 337.445 192.65 337.445ZM199.784 342.547C199.727 342.432 199.68 342.228 199.644 341.934C199.182 342.414 198.631 342.654 197.99 342.654C197.417 342.654 196.946 342.493 196.577 342.171C196.212 341.845 196.029 341.434 196.029 340.936C196.029 340.331 196.258 339.862 196.717 339.529C197.178 339.192 197.827 339.023 198.661 339.023L199.628 339.023L199.628 338.567C199.627 338.219 199.524 337.944 199.316 337.74C199.108 337.532 198.802 337.428 198.397 337.428C198.043 337.428 197.746 337.518 197.506 337.697C197.266 337.876 197.146 338.093 197.146 338.347L196.147 338.347C196.147 338.057 196.249 337.778 196.453 337.509C196.661 337.237 196.94 337.022 197.291 336.864C197.645 336.707 198.034 336.628 198.456 336.628C199.126 336.628 199.651 336.796 200.03 337.132C200.41 337.465 200.607 337.925 200.621 338.513L200.622 341.188C200.622 341.721 200.69 342.145 200.826 342.46L200.826 342.546L199.784 342.547ZM198.135 341.79C198.446 341.789 198.742 341.709 199.021 341.548C199.3 341.386 199.503 341.177 199.628 340.919L199.628 339.727L198.849 339.727C197.632 339.727 197.023 340.084 197.023 340.796C197.023 341.108 197.127 341.351 197.335 341.526C197.542 341.702 197.809 341.79 198.135 341.79ZM203.526 335.327L203.527 336.734L204.612 336.734L204.612 337.502L203.527 337.502L203.527 341.106C203.527 341.339 203.576 341.515 203.673 341.633C203.769 341.747 203.934 341.805 204.167 341.805C204.281 341.805 204.439 341.783 204.639 341.74L204.64 342.546C204.378 342.617 204.124 342.653 203.877 342.653C203.433 342.653 203.098 342.519 202.872 342.251C202.647 341.982 202.534 341.601 202.534 341.107L202.533 337.503L201.475 337.503L201.475 336.735L202.533 336.735L202.533 335.327L203.526 335.327ZM205.977 343.217L205.123 343.217L208.387 334.725L209.236 334.725L205.977 343.217ZM213.695 341.003C213.695 340.734 213.593 340.526 213.389 340.38C213.188 340.229 212.835 340.1 212.33 339.993C211.829 339.886 211.43 339.757 211.133 339.607C210.839 339.456 210.621 339.277 210.477 339.07C210.338 338.862 210.268 338.615 210.268 338.328C210.268 337.852 210.468 337.449 210.869 337.12C211.274 336.79 211.789 336.625 212.416 336.625C213.075 336.625 213.608 336.795 214.016 337.135C214.428 337.475 214.634 337.91 214.634 338.44L213.635 338.441C213.635 338.168 213.519 337.934 213.286 337.737C213.057 337.54 212.767 337.442 212.416 337.442C212.054 337.442 211.771 337.521 211.567 337.678C211.363 337.836 211.261 338.042 211.261 338.296C211.261 338.536 211.356 338.717 211.546 338.838C211.736 338.96 212.078 339.076 212.572 339.187C213.07 339.298 213.473 339.431 213.781 339.585C214.089 339.738 214.316 339.925 214.463 340.143C214.613 340.358 214.688 340.621 214.689 340.933C214.689 341.452 214.481 341.869 214.066 342.184C213.65 342.496 213.112 342.652 212.449 342.652C211.984 342.652 211.572 342.569 211.214 342.405C210.856 342.24 210.574 342.011 210.37 341.717C210.17 341.42 210.069 341.1 210.069 340.756L211.063 340.756C211.081 341.089 211.214 341.354 211.461 341.551C211.711 341.744 212.041 341.841 212.449 341.841C212.825 341.841 213.126 341.765 213.351 341.615C213.58 341.461 213.695 341.257 213.695 341.003ZM217.063 342.543L216.069 342.544L216.068 336.732L217.062 336.732L217.063 342.543ZM215.987 335.191C215.987 335.029 216.036 334.893 216.132 334.782C216.232 334.671 216.379 334.616 216.573 334.616C216.766 334.616 216.913 334.671 217.013 334.782C217.113 334.893 217.164 335.029 217.164 335.19C217.164 335.352 217.113 335.486 217.013 335.593C216.913 335.701 216.766 335.754 216.573 335.754C216.379 335.754 216.233 335.701 216.132 335.593C216.036 335.486 215.987 335.352 215.987 335.191ZM218.421 339.589C218.421 338.683 218.63 337.963 219.049 337.43C219.468 336.893 220.023 336.624 220.714 336.624C221.423 336.624 221.976 336.874 222.374 337.375L222.422 336.731L223.33 336.731L223.331 342.403C223.331 343.155 223.107 343.747 222.66 344.181C222.216 344.614 221.618 344.831 220.866 344.831C220.447 344.831 220.037 344.741 219.636 344.562C219.235 344.384 218.929 344.138 218.717 343.827L219.233 343.231C219.659 343.757 220.18 344.02 220.796 344.02C221.279 344.02 221.655 343.884 221.924 343.611C222.196 343.339 222.332 342.956 222.332 342.462L222.332 341.962C221.934 342.421 221.392 342.65 220.704 342.65C220.024 342.65 219.473 342.376 219.05 341.829C218.631 341.281 218.421 340.534 218.421 339.589ZM219.42 339.702C219.42 340.357 219.555 340.873 219.823 341.248C220.092 341.621 220.468 341.807 220.951 341.807C221.578 341.807 222.038 341.522 222.332 340.953L222.331 338.299C222.027 337.744 221.57 337.467 220.961 337.467C220.478 337.467 220.1 337.655 219.828 338.031C219.556 338.407 219.42 338.964 219.42 339.702ZM225.774 336.73L225.806 337.461C226.25 336.902 226.83 336.623 227.546 336.623C228.774 336.622 229.394 337.315 229.405 338.701L229.406 342.541L228.412 342.541L228.411 338.696C228.408 338.277 228.311 337.967 228.121 337.767C227.935 337.566 227.643 337.466 227.246 337.466C226.923 337.466 226.64 337.552 226.397 337.724C226.153 337.896 225.964 338.121 225.828 338.401L225.828 342.542L224.835 342.542L224.834 336.731L225.774 336.73ZM234.492 341.966C234.105 342.42 233.538 342.648 232.789 342.648C232.17 342.648 231.697 342.469 231.371 342.111C231.049 341.75 230.886 341.216 230.882 340.511L230.882 336.729L231.875 336.729L231.876 340.484C231.876 341.364 232.234 341.805 232.95 341.805C233.71 341.805 234.214 341.522 234.465 340.956L234.464 336.729L235.458 336.729L235.459 342.54L234.514 342.54L234.492 341.966ZM241.882 339.698C241.882 340.582 241.68 341.295 241.276 341.835C240.871 342.376 240.323 342.647 239.632 342.647C238.927 342.647 238.372 342.423 237.967 341.976L237.968 344.774L236.974 344.774L236.972 336.728L237.88 336.728L237.929 337.373C238.333 336.871 238.895 336.621 239.615 336.62C240.313 336.62 240.865 336.883 241.269 337.41C241.678 337.936 241.882 338.668 241.882 339.606L241.882 339.698ZM240.888 339.585C240.888 338.93 240.749 338.412 240.469 338.033C240.19 337.653 239.807 337.464 239.32 337.464C238.718 337.464 238.267 337.731 237.966 338.264L237.967 341.041C238.264 341.571 238.719 341.836 239.331 341.836C239.808 341.836 240.185 341.648 240.464 341.272C240.747 340.892 240.889 340.33 240.888 339.585Z" fill="white"/>
<circle cx="84.5" cy="366.5" r="9.5" fill="#4000C7"/>
<circle cx="84.5" cy="212.5" r="9.5" fill="#4000C7"/>
<circle cx="84.5" cy="91.5" r="9.5" fill="#4000C7"/>
<circle cx="145.5" cy="339.5" r="9" fill="white" stroke="#4000C7" stroke-dasharray="2 2"/>
<path d="M129.76 543.599C129.76 543.354 129.667 543.166 129.481 543.032C129.299 542.896 128.979 542.778 128.52 542.681C128.064 542.583 127.701 542.466 127.431 542.329C127.164 542.192 126.965 542.03 126.835 541.841C126.708 541.652 126.645 541.427 126.645 541.167C126.645 540.734 126.827 540.368 127.191 540.068C127.559 539.769 128.028 539.619 128.598 539.619C129.197 539.619 129.682 539.774 130.053 540.083C130.427 540.392 130.614 540.788 130.614 541.27H129.706C129.706 541.022 129.6 540.809 129.389 540.63C129.18 540.451 128.917 540.361 128.598 540.361C128.269 540.361 128.012 540.433 127.826 540.576C127.641 540.719 127.548 540.907 127.548 541.138C127.548 541.356 127.634 541.52 127.807 541.631C127.979 541.742 128.29 541.847 128.739 541.948C129.192 542.049 129.558 542.17 129.838 542.31C130.118 542.45 130.325 542.619 130.458 542.817C130.595 543.013 130.663 543.252 130.663 543.535C130.663 544.007 130.474 544.386 130.097 544.673C129.719 544.956 129.229 545.098 128.627 545.098C128.204 545.098 127.829 545.023 127.504 544.873C127.178 544.723 126.923 544.515 126.737 544.248C126.555 543.978 126.464 543.687 126.464 543.374H127.367C127.383 543.677 127.504 543.918 127.729 544.097C127.956 544.272 128.256 544.36 128.627 544.36C128.969 544.36 129.242 544.292 129.447 544.155C129.656 544.015 129.76 543.83 129.76 543.599ZM132.821 545H131.918V539.717H132.821V545ZM131.845 538.315C131.845 538.169 131.889 538.045 131.977 537.944C132.068 537.843 132.201 537.793 132.377 537.793C132.553 537.793 132.686 537.843 132.777 537.944C132.868 538.045 132.914 538.169 132.914 538.315C132.914 538.462 132.868 538.584 132.777 538.682C132.686 538.779 132.553 538.828 132.377 538.828C132.201 538.828 132.068 538.779 131.977 538.682C131.889 538.584 131.845 538.462 131.845 538.315ZM134.057 542.314C134.057 541.491 134.247 540.837 134.628 540.352C135.009 539.863 135.513 539.619 136.142 539.619C136.786 539.619 137.289 539.847 137.65 540.303L137.694 539.717H138.52V544.873C138.52 545.557 138.316 546.095 137.909 546.489C137.506 546.883 136.962 547.08 136.278 547.08C135.897 547.08 135.525 546.999 135.16 546.836C134.796 546.673 134.517 546.45 134.325 546.167L134.794 545.625C135.181 546.104 135.655 546.343 136.215 546.343C136.654 546.343 136.996 546.219 137.24 545.972C137.488 545.724 137.611 545.376 137.611 544.927V544.473C137.25 544.889 136.757 545.098 136.132 545.098C135.513 545.098 135.012 544.849 134.628 544.351C134.247 543.853 134.057 543.174 134.057 542.314ZM134.965 542.417C134.965 543.013 135.087 543.481 135.331 543.823C135.575 544.162 135.917 544.331 136.356 544.331C136.926 544.331 137.344 544.072 137.611 543.555V541.143C137.335 540.638 136.92 540.386 136.366 540.386C135.927 540.386 135.583 540.557 135.336 540.898C135.089 541.24 134.965 541.746 134.965 542.417ZM140.741 539.717L140.771 540.381C141.174 539.873 141.701 539.619 142.353 539.619C143.469 539.619 144.032 540.249 144.042 541.509V545H143.139V541.504C143.135 541.123 143.048 540.841 142.875 540.659C142.706 540.477 142.44 540.386 142.079 540.386C141.786 540.386 141.529 540.464 141.308 540.62C141.086 540.776 140.914 540.981 140.79 541.235V545H139.887V539.717H140.741ZM148.666 544.478C148.314 544.891 147.799 545.098 147.118 545.098C146.555 545.098 146.125 544.935 145.829 544.609C145.536 544.281 145.388 543.796 145.385 543.154V539.717H146.288V543.13C146.288 543.931 146.614 544.331 147.265 544.331C147.955 544.331 148.414 544.074 148.642 543.56V539.717H149.545V545H148.686L148.666 544.478ZM155.385 542.417C155.385 543.221 155.201 543.869 154.833 544.36C154.465 544.852 153.967 545.098 153.339 545.098C152.698 545.098 152.193 544.894 151.825 544.487V547.031H150.922V539.717H151.747L151.791 540.303C152.159 539.847 152.67 539.619 153.324 539.619C153.959 539.619 154.46 539.858 154.828 540.337C155.199 540.815 155.385 541.481 155.385 542.334V542.417ZM154.481 542.314C154.481 541.719 154.354 541.248 154.101 540.903C153.847 540.558 153.498 540.386 153.056 540.386C152.509 540.386 152.099 540.628 151.825 541.113V543.638C152.095 544.119 152.509 544.36 153.065 544.36C153.498 544.36 153.842 544.189 154.096 543.848C154.353 543.503 154.481 542.992 154.481 542.314ZM156.557 544.526C156.557 544.37 156.602 544.24 156.693 544.136C156.788 544.032 156.928 543.979 157.113 543.979C157.299 543.979 157.439 544.032 157.533 544.136C157.631 544.24 157.68 544.37 157.68 544.526C157.68 544.676 157.631 544.801 157.533 544.902C157.439 545.003 157.299 545.054 157.113 545.054C156.928 545.054 156.788 545.003 156.693 544.902C156.602 544.801 156.557 544.676 156.557 544.526ZM160.106 539.717V545.61C160.106 546.626 159.646 547.134 158.725 547.134C158.526 547.134 158.342 547.104 158.173 547.046V546.323C158.277 546.349 158.414 546.362 158.583 546.362C158.785 546.362 158.938 546.307 159.042 546.196C159.149 546.089 159.203 545.9 159.203 545.63V539.717H160.106ZM159.11 538.315C159.11 538.172 159.154 538.05 159.242 537.949C159.333 537.845 159.465 537.793 159.638 537.793C159.813 537.793 159.947 537.843 160.038 537.944C160.129 538.045 160.175 538.169 160.175 538.315C160.175 538.462 160.129 538.584 160.038 538.682C159.947 538.779 159.813 538.828 159.638 538.828C159.462 538.828 159.33 538.779 159.242 538.682C159.154 538.584 159.11 538.462 159.11 538.315ZM164.643 543.599C164.643 543.354 164.55 543.166 164.364 543.032C164.182 542.896 163.861 542.778 163.402 542.681C162.947 542.583 162.584 542.466 162.313 542.329C162.047 542.192 161.848 542.03 161.718 541.841C161.591 541.652 161.527 541.427 161.527 541.167C161.527 540.734 161.71 540.368 162.074 540.068C162.442 539.769 162.911 539.619 163.48 539.619C164.079 539.619 164.564 539.774 164.936 540.083C165.31 540.392 165.497 540.788 165.497 541.27H164.589C164.589 541.022 164.483 540.809 164.271 540.63C164.063 540.451 163.799 540.361 163.48 540.361C163.152 540.361 162.895 540.433 162.709 540.576C162.523 540.719 162.431 540.907 162.431 541.138C162.431 541.356 162.517 541.52 162.689 541.631C162.862 541.742 163.173 541.847 163.622 541.948C164.075 542.049 164.441 542.17 164.721 542.31C165.001 542.45 165.207 542.619 165.341 542.817C165.478 543.013 165.546 543.252 165.546 543.535C165.546 544.007 165.357 544.386 164.979 544.673C164.602 544.956 164.112 545.098 163.51 545.098C163.087 545.098 162.712 545.023 162.387 544.873C162.061 544.723 161.806 544.515 161.62 544.248C161.438 543.978 161.347 543.687 161.347 543.374H162.25C162.266 543.677 162.387 543.918 162.611 544.097C162.839 544.272 163.139 544.36 163.51 544.36C163.852 544.36 164.125 544.292 164.33 544.155C164.538 544.015 164.643 543.83 164.643 543.599Z" fill="#4000C7"/>
<path d="M155.746 515.016L149.938 509.252C149.776 509.091 149.558 509 149.328 509H137.864C137.386 509 137 509.383 137 509.857V532.143C137 532.617 137.386 533 137.864 533H155.136C155.614 533 156 532.617 156 532.143V515.624C156 515.396 155.908 515.177 155.746 515.016ZM154.008 516.018H148.929V510.977L154.008 516.018ZM154.057 531.071H138.943V510.929H147.094V516.714C147.094 517.013 147.213 517.299 147.426 517.51C147.638 517.721 147.927 517.839 148.227 517.839H154.057V531.071ZM146.284 523.839H141.318C141.199 523.839 141.102 523.936 141.102 524.054V525.339C141.102 525.457 141.199 525.554 141.318 525.554H146.284C146.403 525.554 146.5 525.457 146.5 525.339V524.054C146.5 523.936 146.403 523.839 146.284 523.839ZM141.102 520.411V521.696C141.102 521.814 141.199 521.911 141.318 521.911H151.682C151.801 521.911 151.898 521.814 151.898 521.696V520.411C151.898 520.293 151.801 520.196 151.682 520.196H141.318C141.199 520.196 141.102 520.293 141.102 520.411Z" fill="#4000C7"/>
<line x1="145.5" y1="348" x2="145.5" y2="509" stroke="#4000C7"/>
<rect x="115.824" y="375.124" width="18" height="41" rx="5" transform="rotate(-90.1738 115.824 375.124)" fill="black"/>
<path d="M125.601 363.737L125.628 364.382C126.054 363.88 126.629 363.629 127.352 363.629C128.165 363.629 128.718 363.941 129.012 364.564C129.205 364.284 129.456 364.059 129.764 363.887C130.075 363.715 130.442 363.629 130.865 363.629C132.14 363.628 132.788 364.303 132.81 365.653L132.81 369.547L131.817 369.547L131.816 365.712C131.816 365.297 131.721 364.987 131.531 364.783C131.341 364.576 131.023 364.472 130.575 364.472C130.206 364.472 129.9 364.583 129.657 364.805C129.413 365.024 129.272 365.319 129.233 365.691L129.233 369.548L128.234 369.548L128.234 365.74C128.233 364.895 127.82 364.472 126.993 364.473C126.341 364.473 125.895 364.75 125.655 365.305L125.656 369.549L124.662 369.549L124.661 363.737L125.601 363.737ZM137.902 369.546C137.845 369.432 137.798 369.228 137.762 368.934C137.301 369.414 136.749 369.654 136.108 369.654C135.535 369.654 135.064 369.493 134.696 369.171C134.33 368.845 134.148 368.433 134.148 367.936C134.147 367.331 134.376 366.861 134.835 366.528C135.297 366.192 135.945 366.023 136.779 366.023L137.746 366.023L137.746 365.566C137.746 365.219 137.642 364.943 137.434 364.739C137.226 364.532 136.92 364.428 136.516 364.428C136.161 364.428 135.864 364.518 135.624 364.697C135.384 364.876 135.264 365.092 135.264 365.347L134.265 365.347C134.265 365.057 134.367 364.777 134.571 364.509C134.779 364.237 135.058 364.022 135.409 363.864C135.763 363.707 136.152 363.628 136.574 363.628C137.244 363.627 137.769 363.796 138.148 364.132C138.528 364.465 138.725 364.925 138.739 365.512L138.74 368.187C138.74 368.721 138.808 369.145 138.944 369.46L138.944 369.546L137.902 369.546ZM136.253 368.789C136.565 368.789 136.86 368.709 137.139 368.547C137.419 368.386 137.621 368.177 137.746 367.919L137.746 366.726L136.967 366.727C135.75 366.727 135.141 367.083 135.141 367.796C135.141 368.107 135.245 368.351 135.453 368.526C135.661 368.702 135.927 368.789 136.253 368.789ZM141.377 369.546L140.384 369.546L140.383 363.734L141.376 363.734L141.377 369.546ZM140.302 362.193C140.302 362.032 140.35 361.896 140.447 361.785C140.547 361.674 140.694 361.618 140.887 361.618C141.08 361.618 141.227 361.673 141.328 361.784C141.428 361.895 141.478 362.031 141.478 362.193C141.478 362.354 141.428 362.488 141.328 362.595C141.227 362.703 141.081 362.757 140.887 362.757C140.694 362.757 140.547 362.703 140.447 362.596C140.35 362.488 140.302 362.354 140.302 362.193ZM143.911 363.734L143.944 364.464C144.388 363.905 144.968 363.626 145.684 363.626C146.912 363.626 147.532 364.318 147.543 365.704L147.543 369.545L146.55 369.545L146.549 365.699C146.545 365.28 146.449 364.97 146.259 364.77C146.073 364.569 145.781 364.469 145.383 364.469C145.061 364.469 144.778 364.555 144.535 364.727C144.291 364.899 144.101 365.125 143.965 365.404L143.966 369.545L142.973 369.545L142.971 363.734L143.911 363.734Z" fill="white"/>
</svg>
