<svg width="1152" height="587" viewBox="0 0 1152 587" fill="none" xmlns="http://www.w3.org/2000/svg">
<path d="M0 0H1152V587H0V0Z" fill="white" fill-opacity="0.01"/>
<path d="M191.083 279.006H191.762C192.188 278.999 192.523 278.887 192.768 278.669C193.012 278.451 193.134 278.156 193.134 277.785C193.134 276.952 192.719 276.535 191.889 276.535C191.498 276.535 191.186 276.647 190.951 276.872C190.72 277.093 190.604 277.388 190.604 277.756H189.701C189.701 277.193 189.906 276.726 190.316 276.354C190.73 275.98 191.254 275.793 191.889 275.793C192.559 275.793 193.085 275.97 193.466 276.325C193.847 276.68 194.037 277.173 194.037 277.805C194.037 278.114 193.936 278.413 193.734 278.703C193.536 278.993 193.264 279.209 192.919 279.353C193.31 279.476 193.611 279.681 193.822 279.968C194.037 280.254 194.145 280.604 194.145 281.018C194.145 281.656 193.936 282.162 193.52 282.536C193.103 282.91 192.561 283.098 191.894 283.098C191.226 283.098 190.683 282.917 190.263 282.556C189.846 282.194 189.638 281.717 189.638 281.125H190.546C190.546 281.499 190.668 281.799 190.912 282.023C191.156 282.248 191.483 282.36 191.894 282.36C192.33 282.36 192.663 282.246 192.895 282.019C193.126 281.791 193.241 281.464 193.241 281.037C193.241 280.624 193.114 280.306 192.86 280.085C192.606 279.864 192.24 279.75 191.762 279.743H191.083V279.006ZM197.597 282.36C197.919 282.36 198.201 282.263 198.441 282.067C198.682 281.872 198.816 281.628 198.842 281.335H199.696C199.68 281.638 199.576 281.926 199.384 282.199C199.192 282.473 198.935 282.691 198.612 282.854C198.293 283.016 197.955 283.098 197.597 283.098C196.877 283.098 196.304 282.858 195.878 282.38C195.455 281.898 195.243 281.241 195.243 280.407V280.256C195.243 279.742 195.338 279.284 195.526 278.884C195.715 278.483 195.985 278.173 196.337 277.951C196.692 277.73 197.11 277.619 197.592 277.619C198.184 277.619 198.676 277.797 199.066 278.151C199.46 278.506 199.67 278.967 199.696 279.533H198.842C198.816 279.191 198.686 278.911 198.451 278.693C198.22 278.472 197.934 278.361 197.592 278.361C197.133 278.361 196.776 278.527 196.522 278.859C196.272 279.188 196.146 279.665 196.146 280.29V280.461C196.146 281.07 196.272 281.538 196.522 281.867C196.773 282.196 197.131 282.36 197.597 282.36ZM202.904 283.098C202.188 283.098 201.605 282.863 201.156 282.395C200.707 281.923 200.482 281.293 200.482 280.505V280.339C200.482 279.815 200.582 279.348 200.78 278.938C200.982 278.524 201.262 278.202 201.62 277.971C201.981 277.736 202.372 277.619 202.792 277.619C203.479 277.619 204.013 277.845 204.394 278.298C204.774 278.75 204.965 279.398 204.965 280.241V280.617H201.386C201.399 281.138 201.55 281.56 201.84 281.882C202.133 282.201 202.504 282.36 202.953 282.36C203.272 282.36 203.542 282.295 203.764 282.165C203.985 282.035 204.179 281.862 204.345 281.647L204.896 282.077C204.454 282.757 203.79 283.098 202.904 283.098ZM202.792 278.361C202.427 278.361 202.121 278.495 201.874 278.762C201.627 279.025 201.474 279.396 201.415 279.875H204.062V279.807C204.035 279.348 203.912 278.993 203.69 278.742C203.469 278.488 203.17 278.361 202.792 278.361ZM207.235 279.006H207.914C208.34 278.999 208.676 278.887 208.92 278.669C209.164 278.451 209.286 278.156 209.286 277.785C209.286 276.952 208.871 276.535 208.041 276.535C207.65 276.535 207.338 276.647 207.104 276.872C206.872 277.093 206.757 277.388 206.757 277.756H205.854C205.854 277.193 206.059 276.726 206.469 276.354C206.882 275.98 207.406 275.793 208.041 275.793C208.712 275.793 209.237 275.97 209.618 276.325C209.999 276.68 210.189 277.173 210.189 277.805C210.189 278.114 210.089 278.413 209.887 278.703C209.688 278.993 209.416 279.209 209.071 279.353C209.462 279.476 209.763 279.681 209.975 279.968C210.189 280.254 210.297 280.604 210.297 281.018C210.297 281.656 210.089 282.162 209.672 282.536C209.255 282.91 208.713 283.098 208.046 283.098C207.379 283.098 206.835 282.917 206.415 282.556C205.998 282.194 205.79 281.717 205.79 281.125H206.698C206.698 281.499 206.82 281.799 207.064 282.023C207.309 282.248 207.636 282.36 208.046 282.36C208.482 282.36 208.816 282.246 209.047 282.019C209.278 281.791 209.394 281.464 209.394 281.037C209.394 280.624 209.267 280.306 209.013 280.085C208.759 279.864 208.393 279.75 207.914 279.743H207.235V279.006ZM214.999 279.875C214.81 280.1 214.584 280.28 214.32 280.417C214.06 280.554 213.773 280.622 213.461 280.622C213.051 280.622 212.693 280.521 212.387 280.319C212.084 280.118 211.85 279.834 211.684 279.47C211.518 279.102 211.435 278.697 211.435 278.254C211.435 277.779 211.524 277.351 211.703 276.97C211.885 276.589 212.143 276.298 212.475 276.096C212.807 275.894 213.194 275.793 213.637 275.793C214.34 275.793 214.893 276.057 215.297 276.584C215.704 277.108 215.907 277.824 215.907 278.732V278.996C215.907 280.38 215.634 281.39 215.087 282.028C214.54 282.663 213.715 282.989 212.611 283.005H212.436V282.243H212.626C213.371 282.23 213.944 282.036 214.345 281.662C214.745 281.285 214.963 280.689 214.999 279.875ZM213.607 279.875C213.91 279.875 214.188 279.782 214.442 279.597C214.7 279.411 214.887 279.182 215.004 278.908V278.547C215.004 277.954 214.875 277.473 214.618 277.102C214.361 276.73 214.035 276.545 213.642 276.545C213.244 276.545 212.925 276.698 212.685 277.004C212.444 277.307 212.323 277.707 212.323 278.205C212.323 278.69 212.439 279.09 212.67 279.406C212.904 279.719 213.217 279.875 213.607 279.875ZM220.966 280.612H221.952V281.35H220.966V283H220.058V281.35H216.82V280.817L220.004 275.891H220.966V280.612ZM217.846 280.612H220.058V277.126L219.95 277.321L217.846 280.612ZM222.641 280.314C222.641 279.504 222.833 278.853 223.217 278.361C223.601 277.867 224.104 277.619 224.726 277.619C225.344 277.619 225.834 277.831 226.195 278.254V275.5H227.099V283H226.269L226.225 282.434C225.863 282.876 225.36 283.098 224.716 283.098C224.104 283.098 223.604 282.847 223.217 282.346C222.833 281.844 222.641 281.19 222.641 280.383V280.314ZM223.544 280.417C223.544 281.016 223.668 281.485 223.915 281.823C224.162 282.162 224.504 282.331 224.94 282.331C225.513 282.331 225.932 282.074 226.195 281.56V279.133C225.925 278.635 225.51 278.386 224.95 278.386C224.507 278.386 224.162 278.557 223.915 278.898C223.668 279.24 223.544 279.746 223.544 280.417ZM186.692 291.15C185.122 290.87 183.412 289.55 183.412 288.06V287.37H182.552V288.06C182.552 289.55 180.852 290.87 179.282 291.15L179.622 291.83C181.002 291.54 182.402 290.61 182.982 289.33C183.562 290.61 184.972 291.54 186.342 291.83L186.692 291.15ZM183.392 293.9V291.72H182.572V293.9H178.952V294.57H187.092V293.9H183.392ZM194.711 291.48H195.541V286.78H194.711V287.69H192.951V288.34H194.711V289.3H192.951V289.95H194.711V291.48ZM193.391 290.69C192.101 290.25 191.191 289.14 191.191 287.94V287H190.381V287.94C190.381 289.19 189.481 290.39 188.151 290.88L188.571 291.5C189.611 291.12 190.421 290.3 190.801 289.28C191.191 290.21 191.971 290.96 192.971 291.33L193.391 290.69ZM190.591 294.98V294.03H195.541V291.92H189.761V292.55H194.731V293.42H189.781V295.62H195.881V294.98H190.591ZM200.311 287.73V288.41H203.601C203.411 290.53 202.181 292.25 199.891 293.4L200.341 294.04C203.241 292.59 204.411 290.28 204.411 287.73H200.311ZM208.171 290.41H206.731V286.77H205.911V295.74H206.731V291.09H208.171V290.41ZM215.57 286.78V291.59H216.39V286.78H215.57ZM210.61 292.03V295.62H216.39V292.03H215.58V293.13H211.42V292.03H210.61ZM211.42 293.77H215.58V294.96H211.42V293.77ZM211.57 287.2C210.22 287.2 209.24 288.04 209.24 289.26C209.24 290.5 210.22 291.33 211.57 291.33C212.93 291.33 213.92 290.5 213.92 289.26C213.92 288.04 212.93 287.2 211.57 287.2ZM211.57 287.88C212.48 287.88 213.12 288.45 213.12 289.26C213.12 290.08 212.48 290.65 211.57 290.65C210.68 290.65 210.04 290.08 210.04 289.26C210.04 288.45 210.68 287.88 211.57 287.88ZM228.83 291.21H227.5C227.75 289.92 227.75 288.97 227.75 288.13V287.35H221.73V288.01H226.95V288.13C226.95 288.97 226.95 289.92 226.67 291.21H220.72V291.88H224.34V295.75H225.17V291.88H228.83V291.21ZM234.949 289.16V289.83H236.459V291.04H234.949V291.71H236.459V293.61H237.289V286.78H236.459V289.16H234.949ZM234.949 287.87H232.889V286.76H232.069V287.87H229.929V288.53H234.949V287.87ZM231.219 290.73C231.219 290.1 231.729 289.67 232.469 289.67C233.209 289.67 233.719 290.1 233.719 290.73C233.719 291.37 233.209 291.81 232.469 291.81C231.729 291.81 231.219 291.37 231.219 290.73ZM234.499 290.73C234.499 289.71 233.659 289.03 232.469 289.03C231.279 289.03 230.439 289.71 230.439 290.73C230.439 291.76 231.279 292.45 232.469 292.45C233.659 292.45 234.499 291.76 234.499 290.73ZM232.349 294.87V293.03H231.529V295.54H237.499V294.87H232.349Z" fill="black"/>
<path d="M133.466 307H128.808V306.351L131.269 303.616C131.633 303.203 131.884 302.868 132.021 302.61C132.16 302.35 132.23 302.081 132.23 301.805C132.23 301.434 132.118 301.129 131.894 300.892C131.669 300.654 131.369 300.535 130.995 300.535C130.546 300.535 130.196 300.664 129.945 300.921C129.698 301.175 129.574 301.53 129.574 301.985H128.671C128.671 301.331 128.881 300.802 129.301 300.398C129.724 299.995 130.289 299.793 130.995 299.793C131.656 299.793 132.178 299.967 132.562 300.315C132.947 300.66 133.139 301.121 133.139 301.697C133.139 302.397 132.693 303.23 131.801 304.197L129.896 306.263H133.466V307ZM136.635 306.36C136.957 306.36 137.239 306.263 137.479 306.067C137.72 305.872 137.854 305.628 137.88 305.335H138.734C138.718 305.638 138.614 305.926 138.422 306.199C138.23 306.473 137.973 306.691 137.65 306.854C137.331 307.016 136.993 307.098 136.635 307.098C135.915 307.098 135.342 306.858 134.916 306.38C134.493 305.898 134.281 305.241 134.281 304.407V304.256C134.281 303.742 134.376 303.284 134.564 302.884C134.753 302.483 135.023 302.173 135.375 301.951C135.73 301.73 136.148 301.619 136.63 301.619C137.222 301.619 137.714 301.797 138.104 302.151C138.498 302.506 138.708 302.967 138.734 303.533H137.88C137.854 303.191 137.724 302.911 137.489 302.693C137.258 302.472 136.972 302.361 136.63 302.361C136.171 302.361 135.814 302.527 135.561 302.859C135.31 303.188 135.185 303.665 135.185 304.29V304.461C135.185 305.07 135.31 305.538 135.561 305.867C135.811 306.196 136.169 306.36 136.635 306.36ZM143.012 307C142.96 306.896 142.917 306.71 142.885 306.443C142.465 306.88 141.964 307.098 141.381 307.098C140.86 307.098 140.432 306.951 140.097 306.658C139.765 306.362 139.599 305.988 139.599 305.535C139.599 304.985 139.807 304.559 140.224 304.256C140.644 303.95 141.233 303.797 141.991 303.797H142.87V303.382C142.87 303.066 142.776 302.815 142.587 302.63C142.398 302.441 142.12 302.347 141.752 302.347C141.43 302.347 141.16 302.428 140.941 302.591C140.723 302.754 140.614 302.951 140.614 303.182H139.706C139.706 302.918 139.799 302.664 139.984 302.42C140.173 302.173 140.427 301.977 140.746 301.834C141.068 301.691 141.422 301.619 141.806 301.619C142.414 301.619 142.891 301.772 143.236 302.078C143.581 302.381 143.76 302.799 143.773 303.333V305.765C143.773 306.25 143.835 306.635 143.959 306.922V307H143.012ZM141.513 306.312C141.796 306.312 142.064 306.238 142.318 306.092C142.572 305.945 142.756 305.755 142.87 305.521V304.437H142.162C141.055 304.437 140.502 304.76 140.502 305.408C140.502 305.691 140.596 305.913 140.785 306.072C140.974 306.232 141.216 306.312 141.513 306.312ZM149.755 307H145.097V306.351L147.558 303.616C147.922 303.203 148.173 302.868 148.31 302.61C148.45 302.35 148.52 302.081 148.52 301.805C148.52 301.434 148.407 301.129 148.183 300.892C147.958 300.654 147.659 300.535 147.284 300.535C146.835 300.535 146.485 300.664 146.234 300.921C145.987 301.175 145.863 301.53 145.863 301.985H144.96C144.96 301.331 145.17 300.802 145.59 300.398C146.013 299.995 146.578 299.793 147.284 299.793C147.945 299.793 148.467 299.967 148.852 300.315C149.236 300.66 149.428 301.121 149.428 301.697C149.428 302.397 148.982 303.23 148.09 304.197L146.186 306.263H149.755V307ZM154.257 299.886V300.652H154.091C153.388 300.665 152.828 300.874 152.411 301.277C151.994 301.681 151.754 302.249 151.688 302.981C152.063 302.552 152.574 302.337 153.222 302.337C153.84 302.337 154.333 302.555 154.701 302.991C155.072 303.427 155.258 303.991 155.258 304.681C155.258 305.413 155.058 305.999 154.657 306.438C154.26 306.878 153.726 307.098 153.056 307.098C152.375 307.098 151.824 306.837 151.4 306.316C150.977 305.792 150.766 305.118 150.766 304.295V303.948C150.766 302.64 151.044 301.64 151.601 300.95C152.16 300.257 152.992 299.902 154.096 299.886H154.257ZM153.07 303.089C152.761 303.089 152.476 303.182 152.216 303.367C151.955 303.553 151.775 303.785 151.674 304.065V304.397C151.674 304.983 151.806 305.455 152.069 305.813C152.333 306.172 152.662 306.351 153.056 306.351C153.463 306.351 153.782 306.201 154.013 305.901C154.247 305.602 154.364 305.21 154.364 304.725C154.364 304.236 154.245 303.842 154.008 303.543C153.773 303.24 153.461 303.089 153.07 303.089ZM160.141 304.612H161.127V305.35H160.141V307H159.232V305.35H155.995V304.817L159.179 299.891H160.141V304.612ZM157.021 304.612H159.232V301.126L159.125 301.321L157.021 304.612ZM163.017 307H162.113V301.717H163.017V307ZM162.04 300.315C162.04 300.169 162.084 300.045 162.172 299.944C162.263 299.843 162.396 299.793 162.572 299.793C162.748 299.793 162.882 299.843 162.973 299.944C163.064 300.045 163.109 300.169 163.109 300.315C163.109 300.462 163.064 300.584 162.973 300.682C162.882 300.779 162.748 300.828 162.572 300.828C162.396 300.828 162.263 300.779 162.172 300.682C162.084 300.584 162.04 300.462 162.04 300.315ZM123.382 311.87H121.072V310.77H120.252V311.87H117.932V312.53H123.382V311.87ZM119.282 314.7C119.282 314.07 119.842 313.67 120.662 313.67C121.472 313.67 122.032 314.07 122.032 314.7C122.032 315.32 121.472 315.72 120.662 315.72C119.842 315.72 119.282 315.32 119.282 314.7ZM121.072 316.34C122.132 316.21 122.812 315.59 122.812 314.7C122.812 313.69 121.942 313.04 120.662 313.04C119.382 313.04 118.502 313.69 118.502 314.7C118.502 315.6 119.192 316.22 120.252 316.35V317.31C119.362 317.34 118.502 317.35 117.742 317.35L117.862 318.04C119.512 318.04 121.672 318.01 123.672 317.68L123.612 317.07C122.792 317.18 121.922 317.24 121.072 317.28V316.34ZM124.182 310.77V319.74H125.002V310.77H124.182ZM131.591 316.07V316.68H133.411V317.6H134.231V310.77H133.411V316.07H131.591ZM129.761 311.74C130.611 311.74 131.191 312.12 131.191 312.69C131.191 313.27 130.611 313.65 129.761 313.65C128.911 313.65 128.331 313.27 128.331 312.69C128.331 312.12 128.911 311.74 129.761 311.74ZM129.761 314.26C131.071 314.26 131.971 313.65 131.971 312.69C131.971 311.75 131.071 311.13 129.761 311.13C128.451 311.13 127.551 311.75 127.551 312.69C127.551 313.65 128.451 314.26 129.761 314.26ZM129.441 317.28H130.261V315.51C131.071 315.46 131.901 315.37 132.691 315.25L132.621 314.66C130.721 314.9 128.501 314.92 126.841 314.92L126.951 315.6C127.691 315.6 128.551 315.59 129.441 315.55V317.28ZM128.941 318.87V316.93H128.121V319.54H134.461V318.87H128.941ZM136.571 311.73V312.41H139.861C139.671 314.53 138.441 316.25 136.151 317.4L136.601 318.04C139.501 316.59 140.671 314.28 140.671 311.73H136.571ZM144.431 314.41H142.991V310.77H142.171V319.74H142.991V315.09H144.431V314.41ZM151.83 310.78V315.59H152.65V310.78H151.83ZM146.87 316.03V319.62H152.65V316.03H151.84V317.13H147.68V316.03H146.87ZM147.68 317.77H151.84V318.96H147.68V317.77ZM147.83 311.2C146.48 311.2 145.5 312.04 145.5 313.26C145.5 314.5 146.48 315.33 147.83 315.33C149.19 315.33 150.18 314.5 150.18 313.26C150.18 312.04 149.19 311.2 147.83 311.2ZM147.83 311.88C148.74 311.88 149.38 312.45 149.38 313.26C149.38 314.08 148.74 314.65 147.83 314.65C146.94 314.65 146.3 314.08 146.3 313.26C146.3 312.45 146.94 311.88 147.83 311.88ZM165.089 315.21H163.759C164.009 313.92 164.009 312.97 164.009 312.13V311.35H157.989V312.01H163.209V312.13C163.209 312.97 163.209 313.92 162.929 315.21H156.979V315.88H160.599V319.75H161.429V315.88H165.089V315.21ZM171.209 313.16V313.83H172.719V315.04H171.209V315.71H172.719V317.61H173.549V310.78H172.719V313.16H171.209ZM171.209 311.87H169.149V310.76H168.329V311.87H166.189V312.53H171.209V311.87ZM167.479 314.73C167.479 314.1 167.989 313.67 168.729 313.67C169.469 313.67 169.979 314.1 169.979 314.73C169.979 315.37 169.469 315.81 168.729 315.81C167.989 315.81 167.479 315.37 167.479 314.73ZM170.759 314.73C170.759 313.71 169.919 313.03 168.729 313.03C167.539 313.03 166.699 313.71 166.699 314.73C166.699 315.76 167.539 316.45 168.729 316.45C169.919 316.45 170.759 315.76 170.759 314.73ZM168.609 318.87V317.03H167.789V319.54H173.759V318.87H168.609Z" fill="black"/>
<path d="M85.1863 359C83.5646 352.553 91.8523 338.272 137 339.029" stroke="#4000C7"/>
<path d="M146.186 332C144.565 325.553 152.852 311.272 198 312.029" stroke="#4000C7"/>
<rect x="115.824" y="100.124" width="18" height="41" rx="5" transform="rotate(-90.1738 115.824 100.124)" fill="black"/>
<rect x="115.824" y="221.124" width="18" height="41" rx="5" transform="rotate(-90.1738 115.824 221.124)" fill="black"/>
<path d="M108.001 91.1934L116.251 87.7304L116.25 94.6586L108.001 91.1934Z" fill="black"/>
<path d="M108.001 212.193L116.251 208.73L116.25 215.659L108.001 212.193Z" fill="black"/>
<path d="M108.001 366.193L116.251 362.73L116.25 369.659L108.001 366.193Z" fill="black"/>
<path d="M125.601 88.737L125.628 89.3815C126.054 88.8801 126.629 88.6294 127.352 88.6293C128.165 88.6291 128.718 88.9405 129.012 89.5635C129.205 89.2842 129.456 89.0586 129.764 88.8866C130.075 88.7147 130.442 88.6287 130.865 88.6286C132.14 88.6284 132.788 89.3032 132.81 90.6532L132.81 94.5472L131.817 94.5474L131.816 90.7124C131.816 90.2971 131.721 89.9874 131.531 89.7833C131.341 89.5756 131.023 89.4719 130.575 89.4719C130.206 89.472 129.9 89.5831 129.657 89.8051C129.413 90.0236 129.272 90.319 129.233 90.6914L129.233 94.5479L128.234 94.548L128.234 90.7399C128.233 89.8949 127.82 89.4724 126.993 89.4726C126.341 89.4727 125.895 89.7503 125.655 90.3053L125.656 94.5485L124.662 94.5487L124.661 88.7372L125.601 88.737ZM137.902 94.5463C137.845 94.4317 137.798 94.2276 137.762 93.934C137.301 94.4139 136.749 94.6539 136.108 94.654C135.535 94.6541 135.064 94.4931 134.696 94.1709C134.33 93.8451 134.148 93.4334 134.148 92.9356C134.147 92.3305 134.376 91.8614 134.835 91.5283C135.297 91.1916 135.945 91.0232 136.779 91.0231L137.746 91.0229L137.746 90.5663C137.746 90.219 137.642 89.9433 137.434 89.7393C137.226 89.5316 136.92 89.4278 136.516 89.4279C136.161 89.428 135.864 89.5175 135.624 89.6966C135.384 89.8757 135.264 90.0923 135.264 90.3466L134.265 90.3468C134.265 90.0567 134.367 89.7774 134.571 89.5088C134.779 89.2366 135.058 89.0217 135.409 88.8641C135.763 88.7065 136.152 88.6277 136.574 88.6276C137.244 88.6275 137.769 88.7957 138.148 89.1322C138.528 89.4651 138.725 89.9252 138.739 90.5125L138.74 93.1873C138.74 93.7208 138.808 94.1451 138.944 94.4602L138.944 94.5461L137.902 94.5463ZM136.253 93.7893C136.565 93.7892 136.86 93.7086 137.139 93.5474C137.419 93.3862 137.621 93.1767 137.746 92.9189L137.746 91.7265L136.967 91.7266C135.75 91.7269 135.141 92.0833 135.141 92.7958C135.141 93.1073 135.245 93.3508 135.453 93.5262C135.661 93.7016 135.927 93.7893 136.253 93.7893ZM141.377 94.5457L140.384 94.5458L140.383 88.7343L141.376 88.7341L141.377 94.5457ZM140.302 87.1928C140.302 87.0317 140.35 86.8956 140.447 86.7846C140.547 86.6736 140.694 86.6181 140.887 86.618C141.08 86.618 141.227 86.6735 141.328 86.7844C141.428 86.8954 141.478 87.0315 141.478 87.1926C141.478 87.3538 141.428 87.488 141.328 87.5955C141.227 87.7029 141.081 87.7567 140.887 87.7567C140.694 87.7567 140.547 87.703 140.447 87.5956C140.35 87.4882 140.302 87.354 140.302 87.1928ZM143.911 88.7337L143.944 89.4641C144.388 88.9055 144.968 88.6261 145.684 88.6259C146.912 88.6257 147.532 89.3185 147.543 90.7042L147.543 94.5445L146.55 94.5447L146.549 90.699C146.545 90.2801 146.449 89.9704 146.259 89.7699C146.073 89.5694 145.781 89.4692 145.383 89.4693C145.061 89.4693 144.778 89.5553 144.535 89.7272C144.291 89.8991 144.101 90.1248 143.965 90.4041L143.966 94.5452L142.973 94.5454L142.971 88.7339L143.911 88.7337Z" fill="white"/>
<path d="M125.601 209.737L125.628 210.382C126.054 209.88 126.629 209.629 127.352 209.629C128.165 209.629 128.718 209.941 129.012 210.564C129.205 210.284 129.456 210.059 129.764 209.887C130.075 209.715 130.442 209.629 130.865 209.629C132.14 209.628 132.788 210.303 132.81 211.653L132.81 215.547L131.817 215.547L131.816 211.712C131.816 211.297 131.721 210.987 131.531 210.783C131.341 210.576 131.023 210.472 130.575 210.472C130.206 210.472 129.9 210.583 129.657 210.805C129.413 211.024 129.272 211.319 129.233 211.691L129.233 215.548L128.234 215.548L128.234 211.74C128.233 210.895 127.82 210.472 126.993 210.473C126.341 210.473 125.895 210.75 125.655 211.305L125.656 215.549L124.662 215.549L124.661 209.737L125.601 209.737ZM137.902 215.546C137.845 215.432 137.798 215.228 137.762 214.934C137.301 215.414 136.749 215.654 136.108 215.654C135.535 215.654 135.064 215.493 134.696 215.171C134.33 214.845 134.148 214.433 134.148 213.936C134.147 213.331 134.376 212.861 134.835 212.528C135.297 212.192 135.945 212.023 136.779 212.023L137.746 212.023L137.746 211.566C137.746 211.219 137.642 210.943 137.434 210.739C137.226 210.532 136.92 210.428 136.516 210.428C136.161 210.428 135.864 210.518 135.624 210.697C135.384 210.876 135.264 211.092 135.264 211.347L134.265 211.347C134.265 211.057 134.367 210.777 134.571 210.509C134.779 210.237 135.058 210.022 135.409 209.864C135.763 209.707 136.152 209.628 136.574 209.628C137.244 209.627 137.769 209.796 138.148 210.132C138.528 210.465 138.725 210.925 138.739 211.512L138.74 214.187C138.74 214.721 138.808 215.145 138.944 215.46L138.944 215.546L137.902 215.546ZM136.253 214.789C136.565 214.789 136.86 214.709 137.139 214.547C137.419 214.386 137.621 214.177 137.746 213.919L137.746 212.726L136.967 212.727C135.75 212.727 135.141 213.083 135.141 213.796C135.141 214.107 135.245 214.351 135.453 214.526C135.661 214.702 135.927 214.789 136.253 214.789ZM141.377 215.546L140.384 215.546L140.383 209.734L141.376 209.734L141.377 215.546ZM140.302 208.193C140.302 208.032 140.35 207.896 140.447 207.785C140.547 207.674 140.694 207.618 140.887 207.618C141.08 207.618 141.227 207.673 141.328 207.784C141.428 207.895 141.478 208.031 141.478 208.193C141.478 208.354 141.428 208.488 141.328 208.595C141.227 208.703 141.081 208.757 140.887 208.757C140.694 208.757 140.547 208.703 140.447 208.596C140.35 208.488 140.302 208.354 140.302 208.193ZM143.911 209.734L143.944 210.464C144.388 209.905 144.968 209.626 145.684 209.626C146.912 209.626 147.532 210.318 147.543 211.704L147.543 215.545L146.55 215.545L146.549 211.699C146.545 211.28 146.449 210.97 146.259 210.77C146.073 210.569 145.781 210.469 145.383 210.469C145.061 210.469 144.778 210.555 144.535 210.727C144.291 210.899 144.101 211.125 143.965 211.404L143.966 215.545L142.973 215.545L142.971 209.734L143.911 209.734Z" fill="white"/>
<circle cx="84.5" cy="366.5" r="9.5" fill="#4000C7"/>
<circle cx="84.5" cy="212.5" r="9.5" fill="#4000C7"/>
<circle cx="84.5" cy="91.5" r="9.5" fill="#4000C7"/>
<circle cx="145.5" cy="339.5" r="9.5" fill="#4000C7"/>
<circle cx="207.5" cy="312.5" r="9.5" fill="#4000C7"/>
<rect x="115.824" y="375.124" width="18" height="41" rx="5" transform="rotate(-90.1738 115.824 375.124)" fill="black"/>
<path d="M125.601 363.737L125.628 364.382C126.054 363.88 126.629 363.629 127.352 363.629C128.165 363.629 128.718 363.941 129.012 364.564C129.205 364.284 129.456 364.059 129.764 363.887C130.075 363.715 130.442 363.629 130.865 363.629C132.14 363.628 132.788 364.303 132.81 365.653L132.81 369.547L131.817 369.547L131.816 365.712C131.816 365.297 131.721 364.987 131.531 364.783C131.341 364.576 131.023 364.472 130.575 364.472C130.206 364.472 129.9 364.583 129.657 364.805C129.413 365.024 129.272 365.319 129.233 365.691L129.233 369.548L128.234 369.548L128.234 365.74C128.233 364.895 127.82 364.472 126.993 364.473C126.341 364.473 125.895 364.75 125.655 365.305L125.656 369.549L124.662 369.549L124.661 363.737L125.601 363.737ZM137.902 369.546C137.845 369.432 137.798 369.228 137.762 368.934C137.301 369.414 136.749 369.654 136.108 369.654C135.535 369.654 135.064 369.493 134.696 369.171C134.33 368.845 134.148 368.433 134.148 367.936C134.147 367.331 134.376 366.861 134.835 366.528C135.297 366.192 135.945 366.023 136.779 366.023L137.746 366.023L137.746 365.566C137.746 365.219 137.642 364.943 137.434 364.739C137.226 364.532 136.92 364.428 136.516 364.428C136.161 364.428 135.864 364.518 135.624 364.697C135.384 364.876 135.264 365.092 135.264 365.347L134.265 365.347C134.265 365.057 134.367 364.777 134.571 364.509C134.779 364.237 135.058 364.022 135.409 363.864C135.763 363.707 136.152 363.628 136.574 363.628C137.244 363.627 137.769 363.796 138.148 364.132C138.528 364.465 138.725 364.925 138.739 365.512L138.74 368.187C138.74 368.721 138.808 369.145 138.944 369.46L138.944 369.546L137.902 369.546ZM136.253 368.789C136.565 368.789 136.86 368.709 137.139 368.547C137.419 368.386 137.621 368.177 137.746 367.919L137.746 366.726L136.967 366.727C135.75 366.727 135.141 367.083 135.141 367.796C135.141 368.107 135.245 368.351 135.453 368.526C135.661 368.702 135.927 368.789 136.253 368.789ZM141.377 369.546L140.384 369.546L140.383 363.734L141.376 363.734L141.377 369.546ZM140.302 362.193C140.302 362.032 140.35 361.896 140.447 361.785C140.547 361.674 140.694 361.618 140.887 361.618C141.08 361.618 141.227 361.673 141.328 361.784C141.428 361.895 141.478 362.031 141.478 362.193C141.478 362.354 141.428 362.488 141.328 362.595C141.227 362.703 141.081 362.757 140.887 362.757C140.694 362.757 140.547 362.703 140.447 362.596C140.35 362.488 140.302 362.354 140.302 362.193ZM143.911 363.734L143.944 364.464C144.388 363.905 144.968 363.626 145.684 363.626C146.912 363.626 147.532 364.318 147.543 365.704L147.543 369.545L146.55 369.545L146.549 365.699C146.545 365.28 146.449 364.97 146.259 364.77C146.073 364.569 145.781 364.469 145.383 364.469C145.061 364.469 144.778 364.555 144.535 364.727C144.291 364.899 144.101 365.125 143.965 365.404L143.966 369.545L142.973 369.545L142.971 363.734L143.911 363.734Z" fill="white"/>
</svg>
