<svg width="1152" height="587" viewBox="0 0 1152 587" fill="none" xmlns="http://www.w3.org/2000/svg">
<path d="M0 0H1152V587H0V0Z" fill="white" fill-opacity="0.01"/>
<path d="M272.34 342H271.397V338.714H267.813V342H266.876V334.891H267.813V337.947H271.397V334.891H272.34V342ZM278.023 338.714H274.942V341.233H278.521V342H274.005V334.891H278.473V335.662H274.942V337.947H278.023V338.714ZM283.614 340.145H280.636L279.967 342H279L281.715 334.891H282.535L285.255 342H284.293L283.614 340.145ZM280.919 339.373H283.336L282.125 336.048L280.919 339.373ZM286.212 342V334.891H288.219C288.837 334.891 289.384 335.027 289.859 335.301C290.335 335.574 290.701 335.963 290.958 336.468C291.218 336.972 291.35 337.552 291.354 338.206V338.66C291.354 339.331 291.223 339.918 290.963 340.423C290.706 340.927 290.336 341.315 289.854 341.585C289.376 341.855 288.818 341.993 288.18 342H286.212ZM287.149 335.662V341.233H288.136C288.858 341.233 289.42 341.009 289.82 340.56C290.224 340.11 290.426 339.471 290.426 338.641V338.226C290.426 337.418 290.235 336.792 289.854 336.346C289.477 335.896 288.94 335.669 288.243 335.662H287.149Z" fill="#4000C7"/>
<path d="M85.1863 359C83.5646 352.553 91.8523 338.272 137 339.029" stroke="#4000C7"/>
<rect x="177.824" y="348.124" width="18" height="70.7284" rx="5" transform="rotate(-90.1738 177.824 348.124)" fill="black"/>
<path d="M170.001 339.194L178.251 335.731L178.25 342.659L170.001 339.194Z" fill="black"/>
<path d="M187.157 342.549L187.156 337.505L186.237 337.506L186.237 336.737L187.156 336.737L187.155 336.141C187.155 335.518 187.322 335.036 187.655 334.696C187.988 334.356 188.458 334.186 189.067 334.186C189.296 334.186 189.524 334.216 189.749 334.277L189.696 335.083C189.527 335.05 189.348 335.034 189.159 335.034C188.836 335.034 188.588 335.129 188.412 335.319C188.237 335.505 188.149 335.774 188.149 336.125L188.149 336.737L189.39 336.737L189.39 337.505L188.149 337.505L188.15 342.549L187.157 342.549ZM192.775 342.655C191.987 342.655 191.346 342.398 190.852 341.882C190.358 341.363 190.11 340.67 190.11 339.804L190.11 339.621C190.11 339.045 190.219 338.531 190.438 338.08C190.659 337.625 190.967 337.27 191.361 337.016C191.759 336.758 192.188 336.629 192.65 336.629C193.406 336.629 193.993 336.878 194.412 337.375C194.831 337.873 195.041 338.585 195.041 339.513L195.041 339.926L191.104 339.927C191.118 340.5 191.285 340.964 191.604 341.318C191.926 341.669 192.334 341.844 192.828 341.844C193.179 341.844 193.476 341.772 193.72 341.629C193.963 341.486 194.176 341.296 194.359 341.06L194.966 341.532C194.479 342.281 193.749 342.655 192.775 342.655ZM192.65 337.445C192.249 337.445 191.913 337.592 191.641 337.886C191.369 338.176 191.2 338.584 191.136 339.111L194.047 339.11L194.047 339.035C194.018 338.53 193.882 338.14 193.639 337.864C193.395 337.585 193.066 337.445 192.65 337.445ZM199.784 342.547C199.727 342.432 199.68 342.228 199.644 341.934C199.182 342.414 198.631 342.654 197.99 342.654C197.417 342.654 196.946 342.493 196.577 342.171C196.212 341.845 196.029 341.434 196.029 340.936C196.029 340.331 196.258 339.862 196.717 339.529C197.178 339.192 197.827 339.023 198.661 339.023L199.628 339.023L199.628 338.567C199.627 338.219 199.524 337.944 199.316 337.74C199.108 337.532 198.802 337.428 198.397 337.428C198.043 337.428 197.746 337.518 197.506 337.697C197.266 337.876 197.146 338.093 197.146 338.347L196.147 338.347C196.147 338.057 196.249 337.778 196.453 337.509C196.661 337.237 196.94 337.022 197.291 336.864C197.645 336.707 198.034 336.628 198.456 336.628C199.126 336.628 199.651 336.796 200.03 337.132C200.41 337.465 200.607 337.925 200.621 338.513L200.622 341.188C200.622 341.721 200.69 342.145 200.826 342.46L200.826 342.546L199.784 342.547ZM198.135 341.79C198.446 341.789 198.742 341.709 199.021 341.548C199.3 341.386 199.503 341.177 199.628 340.919L199.628 339.727L198.849 339.727C197.632 339.727 197.023 340.084 197.023 340.796C197.023 341.108 197.127 341.351 197.335 341.526C197.542 341.702 197.809 341.79 198.135 341.79ZM203.526 335.327L203.527 336.734L204.612 336.734L204.612 337.502L203.527 337.502L203.527 341.106C203.527 341.339 203.576 341.515 203.673 341.633C203.769 341.747 203.934 341.805 204.167 341.805C204.281 341.805 204.439 341.783 204.639 341.74L204.64 342.546C204.378 342.617 204.124 342.653 203.877 342.653C203.433 342.653 203.098 342.519 202.872 342.251C202.647 341.982 202.534 341.601 202.534 341.107L202.533 337.503L201.475 337.503L201.475 336.735L202.533 336.735L202.533 335.327L203.526 335.327ZM205.977 343.217L205.123 343.217L208.387 334.725L209.236 334.725L205.977 343.217ZM213.695 341.003C213.695 340.734 213.593 340.526 213.389 340.38C213.188 340.229 212.835 340.1 212.33 339.993C211.829 339.886 211.43 339.757 211.133 339.607C210.839 339.456 210.621 339.277 210.477 339.07C210.338 338.862 210.268 338.615 210.268 338.328C210.268 337.852 210.468 337.449 210.869 337.12C211.274 336.79 211.789 336.625 212.416 336.625C213.075 336.625 213.608 336.795 214.016 337.135C214.428 337.475 214.634 337.91 214.634 338.44L213.635 338.441C213.635 338.168 213.519 337.934 213.286 337.737C213.057 337.54 212.767 337.442 212.416 337.442C212.054 337.442 211.771 337.521 211.567 337.678C211.363 337.836 211.261 338.042 211.261 338.296C211.261 338.536 211.356 338.717 211.546 338.838C211.736 338.96 212.078 339.076 212.572 339.187C213.07 339.298 213.473 339.431 213.781 339.585C214.089 339.738 214.316 339.925 214.463 340.143C214.613 340.358 214.688 340.621 214.689 340.933C214.689 341.452 214.481 341.869 214.066 342.184C213.65 342.496 213.112 342.652 212.449 342.652C211.984 342.652 211.572 342.569 211.214 342.405C210.856 342.24 210.574 342.011 210.37 341.717C210.17 341.42 210.069 341.1 210.069 340.756L211.063 340.756C211.081 341.089 211.214 341.354 211.461 341.551C211.711 341.744 212.041 341.841 212.449 341.841C212.825 341.841 213.126 341.765 213.351 341.615C213.58 341.461 213.695 341.257 213.695 341.003ZM217.063 342.543L216.069 342.544L216.068 336.732L217.062 336.732L217.063 342.543ZM215.987 335.191C215.987 335.029 216.036 334.893 216.132 334.782C216.232 334.671 216.379 334.616 216.573 334.616C216.766 334.616 216.913 334.671 217.013 334.782C217.113 334.893 217.164 335.029 217.164 335.19C217.164 335.352 217.113 335.486 217.013 335.593C216.913 335.701 216.766 335.754 216.573 335.754C216.379 335.754 216.233 335.701 216.132 335.593C216.036 335.486 215.987 335.352 215.987 335.191ZM218.421 339.589C218.421 338.683 218.63 337.963 219.049 337.43C219.468 336.893 220.023 336.624 220.714 336.624C221.423 336.624 221.976 336.874 222.374 337.375L222.422 336.731L223.33 336.731L223.331 342.403C223.331 343.155 223.107 343.747 222.66 344.181C222.216 344.614 221.618 344.831 220.866 344.831C220.447 344.831 220.037 344.741 219.636 344.562C219.235 344.384 218.929 344.138 218.717 343.827L219.233 343.231C219.659 343.757 220.18 344.02 220.796 344.02C221.279 344.02 221.655 343.884 221.924 343.611C222.196 343.339 222.332 342.956 222.332 342.462L222.332 341.962C221.934 342.421 221.392 342.65 220.704 342.65C220.024 342.65 219.473 342.376 219.05 341.829C218.631 341.281 218.421 340.534 218.421 339.589ZM219.42 339.702C219.42 340.357 219.555 340.873 219.823 341.248C220.092 341.621 220.468 341.807 220.951 341.807C221.578 341.807 222.038 341.522 222.332 340.953L222.331 338.299C222.027 337.744 221.57 337.467 220.961 337.467C220.478 337.467 220.1 337.655 219.828 338.031C219.556 338.407 219.42 338.964 219.42 339.702ZM225.774 336.73L225.806 337.461C226.25 336.902 226.83 336.623 227.546 336.623C228.774 336.622 229.394 337.315 229.405 338.701L229.406 342.541L228.412 342.541L228.411 338.696C228.408 338.277 228.311 337.967 228.121 337.767C227.935 337.566 227.643 337.466 227.246 337.466C226.923 337.466 226.64 337.552 226.397 337.724C226.153 337.896 225.964 338.121 225.828 338.401L225.828 342.542L224.835 342.542L224.834 336.731L225.774 336.73ZM234.492 341.966C234.105 342.42 233.538 342.648 232.789 342.648C232.17 342.648 231.697 342.469 231.371 342.111C231.049 341.75 230.886 341.216 230.882 340.511L230.882 336.729L231.875 336.729L231.876 340.484C231.876 341.364 232.234 341.805 232.95 341.805C233.71 341.805 234.214 341.522 234.465 340.956L234.464 336.729L235.458 336.729L235.459 342.54L234.514 342.54L234.492 341.966ZM241.882 339.698C241.882 340.582 241.68 341.295 241.276 341.835C240.871 342.376 240.323 342.647 239.632 342.647C238.927 342.647 238.372 342.423 237.967 341.976L237.968 344.774L236.974 344.774L236.972 336.728L237.88 336.728L237.929 337.373C238.333 336.871 238.895 336.621 239.615 336.62C240.313 336.62 240.865 336.883 241.269 337.41C241.678 337.936 241.882 338.668 241.882 339.606L241.882 339.698ZM240.888 339.585C240.888 338.93 240.749 338.412 240.469 338.033C240.19 337.653 239.807 337.464 239.32 337.464C238.718 337.464 238.267 337.731 237.966 338.264L237.967 341.041C238.264 341.571 238.719 341.836 239.331 341.836C239.808 341.836 240.185 341.648 240.464 341.272C240.747 340.892 240.889 340.33 240.888 339.585Z" fill="white"/>
<circle cx="145.5" cy="339.5" r="9" fill="white" stroke="#4000C7" stroke-dasharray="2 2"/>
</svg>
