<svg width="1152" height="587" viewBox="0 0 1152 587" fill="none" xmlns="http://www.w3.org/2000/svg">
<path d="M0 0H1152V587H0V0Z" fill="white" fill-opacity="0.01"/>
<circle cx="140.5" cy="334.5" r="9" fill="white" stroke="#4000C7" stroke-dasharray="2 2"/>
<rect x="97" y="290" width="88" height="27" rx="13.5" fill="#7D7D7D"/>
<path d="M117.241 300.408V301.279H119.204V302.852H117.241V303.723H119.204V306.193H120.283V297.314H119.204V300.408H117.241ZM117.241 298.731H114.563V297.288H113.497V298.731H110.715V299.589H117.241V298.731ZM112.392 302.449C112.392 301.63 113.055 301.071 114.017 301.071C114.979 301.071 115.642 301.63 115.642 302.449C115.642 303.281 114.979 303.853 114.017 303.853C113.055 303.853 112.392 303.281 112.392 302.449ZM116.656 302.449C116.656 301.123 115.564 300.239 114.017 300.239C112.47 300.239 111.378 301.123 111.378 302.449C111.378 303.788 112.47 304.685 114.017 304.685C115.564 304.685 116.656 303.788 116.656 302.449ZM113.861 307.831V305.439H112.795V308.702H120.556V307.831H113.861ZM126.093 299.55H128.212V298.679H122.804V299.55H125.066V300.46C125.066 302.826 124.195 304.815 122.531 305.751L123.181 306.557C124.39 305.855 125.209 304.594 125.599 303.008C126.015 304.386 126.821 305.517 127.965 306.154L128.589 305.335C126.938 304.477 126.093 302.592 126.093 300.46V299.55ZM131.566 297.288V302.007H130.032V297.561H129.031V308.39H130.032V302.891H131.566V308.962H132.593V297.288H131.566ZM147.4 297.314H146.334V305.842H147.4V297.314ZM144.956 303.333C143.24 302.761 142.031 301.344 142.031 299.771V299.134H144.67V298.276H138.274V299.134H140.939V299.771C140.939 301.435 139.756 302.956 137.988 303.567L138.547 304.399C139.925 303.905 141.004 302.852 141.498 301.526C142.031 302.748 143.097 303.71 144.436 304.178L144.956 303.333ZM140.965 307.831V305.036H139.899V308.702H147.751V307.831H140.965ZM157.123 301.344H158.605V304.685H159.632V297.301H158.605V300.473H157.123V297.522H156.109V304.256H157.123V301.344ZM155.641 298.692H153.223V297.392H152.17V298.692H149.726V299.537H155.654L155.641 298.692ZM151.169 302.137C151.169 301.422 151.78 300.941 152.703 300.941C153.613 300.941 154.237 301.422 154.237 302.137C154.237 302.865 153.613 303.346 152.703 303.346C151.78 303.346 151.169 302.865 151.169 302.137ZM155.186 302.137C155.186 300.941 154.172 300.148 152.703 300.148C151.234 300.148 150.207 300.941 150.207 302.137C150.207 303.359 151.234 304.139 152.703 304.139C154.172 304.139 155.186 303.359 155.186 302.137ZM155.797 308.13C154.016 308.13 152.95 307.688 152.95 306.921C152.95 306.141 154.016 305.699 155.797 305.699C157.565 305.699 158.631 306.141 158.631 306.921C158.631 307.688 157.565 308.13 155.797 308.13ZM155.797 304.88C153.366 304.88 151.897 305.608 151.897 306.921C151.897 308.221 153.366 308.949 155.797 308.949C158.228 308.949 159.697 308.221 159.697 306.921C159.697 305.608 158.228 304.88 155.797 304.88ZM162.725 302.059C164.636 301.825 166.391 300.967 167.028 299.68C167.678 300.967 169.42 301.825 171.331 302.059L171.708 301.214C169.667 300.98 167.808 299.979 167.717 298.692H171.344V297.834H162.725V298.692H166.339C166.248 299.979 164.389 300.98 162.348 301.214L162.725 302.059ZM169.927 306.895C169.927 307.675 168.835 308.13 167.015 308.13C165.182 308.13 164.103 307.675 164.103 306.895C164.103 306.115 165.182 305.673 167.015 305.673C168.835 305.673 169.927 306.115 169.927 306.895ZM172.293 303.619V302.761H161.75V303.619H166.482V304.867C164.311 304.971 163.024 305.686 163.024 306.895C163.024 308.221 164.532 308.949 167.028 308.949C169.511 308.949 171.006 308.221 171.006 306.895C171.006 305.686 169.732 304.971 167.561 304.867V303.619H172.293Z" fill="white"/>
<path d="M141 350L137.701 354.738L143.454 355.226L141 350ZM108.221 395.009L108.272 395.507L108.272 395.507L108.221 395.009ZM71.5437 412.692L71.0621 412.557L71.5437 412.692ZM68 436L71.1605 431.168L65.3959 430.847L68 436ZM140.124 354.421C139.216 361.77 136.726 371.244 131.703 379.155C126.687 387.055 119.165 393.372 108.169 394.512L108.272 395.507C119.649 394.327 127.414 387.776 132.547 379.691C137.674 371.617 140.197 361.987 141.116 354.544L140.124 354.421ZM108.169 394.512C100.415 395.316 94.4403 396.071 89.7903 396.942C85.1439 397.811 81.7881 398.802 79.2879 400.091C76.7715 401.388 75.1282 402.984 73.9047 405.039C72.6931 407.074 71.9034 409.544 71.0621 412.557L72.0253 412.826C72.8673 409.811 73.6279 407.459 74.764 405.55C75.8882 403.662 77.3899 402.194 79.7461 400.979C82.1184 399.757 85.3628 398.788 89.9743 397.925C94.5822 397.062 100.523 396.31 108.272 395.507L108.169 394.512ZM71.0621 412.557C69.1165 419.525 68.1593 426.624 67.7521 431.465L68.7486 431.549C69.1524 426.748 70.1017 419.715 72.0253 412.826L71.0621 412.557Z" fill="#4000C7"/>
<path d="M52.665 477H51.7617V471.717H52.665V477ZM51.6885 470.315C51.6885 470.169 51.7324 470.045 51.8203 469.944C51.9115 469.843 52.0449 469.793 52.2207 469.793C52.3965 469.793 52.5299 469.843 52.6211 469.944C52.7122 470.045 52.7578 470.169 52.7578 470.315C52.7578 470.462 52.7122 470.584 52.6211 470.682C52.5299 470.779 52.3965 470.828 52.2207 470.828C52.0449 470.828 51.9115 470.779 51.8203 470.682C51.7324 470.584 51.6885 470.462 51.6885 470.315ZM54.9697 471.717L54.999 472.381C55.4027 471.873 55.93 471.619 56.5811 471.619C57.6976 471.619 58.2607 472.249 58.2705 473.509V477H57.3672V473.504C57.3639 473.123 57.276 472.841 57.1035 472.659C56.9342 472.477 56.6689 472.386 56.3076 472.386C56.0146 472.386 55.7575 472.464 55.5361 472.62C55.3148 472.776 55.1423 472.981 55.0186 473.235V477H54.1152V471.717H54.9697ZM59.4131 474.314C59.4131 473.504 59.6051 472.853 59.9893 472.361C60.3734 471.867 60.8763 471.619 61.498 471.619C62.1165 471.619 62.6064 471.831 62.9678 472.254V469.5H63.8711V477H63.041L62.9971 476.434C62.6357 476.876 62.1328 477.098 61.4883 477.098C60.8763 477.098 60.3766 476.847 59.9893 476.346C59.6051 475.844 59.4131 475.19 59.4131 474.383V474.314ZM60.3164 474.417C60.3164 475.016 60.4401 475.485 60.6875 475.823C60.9349 476.162 61.2767 476.331 61.7129 476.331C62.2858 476.331 62.7041 476.074 62.9678 475.56V473.133C62.6976 472.635 62.2826 472.386 61.7227 472.386C61.2799 472.386 60.9349 472.557 60.6875 472.898C60.4401 473.24 60.3164 473.746 60.3164 474.417ZM67.4697 477.098C66.7536 477.098 66.1709 476.863 65.7217 476.395C65.2725 475.923 65.0479 475.293 65.0479 474.505V474.339C65.0479 473.815 65.1471 473.348 65.3457 472.938C65.5475 472.524 65.8275 472.202 66.1855 471.971C66.5469 471.736 66.9375 471.619 67.3574 471.619C68.0443 471.619 68.5781 471.845 68.959 472.298C69.3398 472.75 69.5303 473.398 69.5303 474.241V474.617H65.9512C65.9642 475.138 66.1156 475.56 66.4053 475.882C66.6982 476.201 67.0693 476.36 67.5186 476.36C67.8376 476.36 68.1077 476.295 68.3291 476.165C68.5505 476.035 68.7441 475.862 68.9102 475.647L69.4619 476.077C69.0192 476.757 68.3551 477.098 67.4697 477.098ZM67.3574 472.361C66.9928 472.361 66.6868 472.495 66.4395 472.762C66.1921 473.025 66.0391 473.396 65.9805 473.875H68.627V473.807C68.6009 473.348 68.4772 472.993 68.2559 472.742C68.0345 472.488 67.735 472.361 67.3574 472.361ZM72.3525 473.646L73.5244 471.717H74.5791L72.8506 474.329L74.6328 477H73.5879L72.3672 475.022L71.1465 477H70.0967L71.8789 474.329L70.1504 471.717H71.1953L72.3525 473.646ZM75.5605 476.526C75.5605 476.37 75.6061 476.24 75.6973 476.136C75.7917 476.032 75.9316 475.979 76.1172 475.979C76.3027 475.979 76.4427 476.032 76.5371 476.136C76.6348 476.24 76.6836 476.37 76.6836 476.526C76.6836 476.676 76.6348 476.801 76.5371 476.902C76.4427 477.003 76.3027 477.054 76.1172 477.054C75.9316 477.054 75.7917 477.003 75.6973 476.902C75.6061 476.801 75.5605 476.676 75.5605 476.526ZM79.1104 471.717V477.61C79.1104 478.626 78.6497 479.134 77.7285 479.134C77.5299 479.134 77.346 479.104 77.1768 479.046V478.323C77.2809 478.349 77.4176 478.362 77.5869 478.362C77.7887 478.362 77.9417 478.307 78.0459 478.196C78.1533 478.089 78.207 477.9 78.207 477.63V471.717H79.1104ZM78.1143 470.315C78.1143 470.172 78.1582 470.05 78.2461 469.949C78.3372 469.845 78.4691 469.793 78.6416 469.793C78.8174 469.793 78.9508 469.843 79.042 469.944C79.1331 470.045 79.1787 470.169 79.1787 470.315C79.1787 470.462 79.1331 470.584 79.042 470.682C78.9508 470.779 78.8174 470.828 78.6416 470.828C78.4658 470.828 78.334 470.779 78.2461 470.682C78.1582 470.584 78.1143 470.462 78.1143 470.315ZM83.6465 475.599C83.6465 475.354 83.5537 475.166 83.3682 475.032C83.1859 474.896 82.8652 474.778 82.4062 474.681C81.9505 474.583 81.5876 474.466 81.3174 474.329C81.0505 474.192 80.8519 474.03 80.7217 473.841C80.5947 473.652 80.5312 473.427 80.5312 473.167C80.5312 472.734 80.7135 472.368 81.0781 472.068C81.446 471.769 81.9147 471.619 82.4844 471.619C83.0833 471.619 83.5684 471.774 83.9395 472.083C84.3138 472.392 84.501 472.788 84.501 473.27H83.5928C83.5928 473.022 83.487 472.809 83.2754 472.63C83.0671 472.451 82.8034 472.361 82.4844 472.361C82.1556 472.361 81.8984 472.433 81.7129 472.576C81.5273 472.719 81.4346 472.907 81.4346 473.138C81.4346 473.356 81.5208 473.52 81.6934 473.631C81.8659 473.742 82.1768 473.847 82.626 473.948C83.0785 474.049 83.4447 474.17 83.7246 474.31C84.0046 474.45 84.2113 474.619 84.3447 474.817C84.4814 475.013 84.5498 475.252 84.5498 475.535C84.5498 476.007 84.361 476.386 83.9834 476.673C83.6058 476.956 83.1159 477.098 82.5137 477.098C82.0905 477.098 81.7161 477.023 81.3906 476.873C81.0651 476.723 80.8096 476.515 80.624 476.248C80.4417 475.978 80.3506 475.687 80.3506 475.374H81.2539C81.2702 475.677 81.3906 475.918 81.6152 476.097C81.8431 476.272 82.1426 476.36 82.5137 476.36C82.8555 476.36 83.1289 476.292 83.334 476.155C83.5423 476.015 83.6465 475.83 83.6465 475.599Z" fill="#4000C7"/>
<path d="M77.7463 447.016L71.9384 441.252C71.7764 441.091 71.5578 441 71.3284 441H59.8636C59.3859 441 59 441.383 59 441.857V464.143C59 464.617 59.3859 465 59.8636 465H77.1364C77.6141 465 78 464.617 78 464.143V447.624C78 447.396 77.9082 447.177 77.7463 447.016ZM76.0082 448.018H70.929V442.977L76.0082 448.018ZM76.0568 463.071H60.9432V442.929H69.0938V448.714C69.0938 449.013 69.2132 449.299 69.4258 449.51C69.6383 449.721 69.9266 449.839 70.2273 449.839H76.0568V463.071ZM68.2841 455.839H63.3182C63.1994 455.839 63.1023 455.936 63.1023 456.054V457.339C63.1023 457.457 63.1994 457.554 63.3182 457.554H68.2841C68.4028 457.554 68.5 457.457 68.5 457.339V456.054C68.5 455.936 68.4028 455.839 68.2841 455.839ZM63.1023 452.411V453.696C63.1023 453.814 63.1994 453.911 63.3182 453.911H73.6818C73.8006 453.911 73.8977 453.814 73.8977 453.696V452.411C73.8977 452.293 73.8006 452.196 73.6818 452.196H63.3182C63.1994 452.196 63.1023 452.293 63.1023 452.411Z" fill="#4000C7"/>
</svg>
