<svg width="1152" height="587" viewBox="0 0 1152 587" fill="none" xmlns="http://www.w3.org/2000/svg">
<path d="M0 0H1152V587H0V0Z" fill="white" fill-opacity="0.01"/>
<circle cx="140.5" cy="334.5" r="9.5" fill="#4000C7"/>
<rect x="158.031" y="351.209" width="18" height="41" rx="5" transform="rotate(-64.2277 158.031 351.209)" fill="black"/>
<path d="M154.739 339.602L163.675 340.07L160.662 346.309L154.739 339.602Z" fill="black"/>
<path d="M171.791 345.219L171.535 345.811C172.137 345.545 172.764 345.569 173.415 345.884C174.147 346.237 174.51 346.758 174.503 347.447C174.799 347.279 175.122 347.185 175.475 347.164C175.83 347.145 176.198 347.227 176.578 347.411C177.726 347.965 178.016 348.855 177.449 350.08L175.756 353.586L174.861 353.154L176.528 349.701C176.709 349.327 176.758 349.007 176.676 348.74C176.595 348.471 176.353 348.239 175.95 348.044C175.618 347.884 175.294 347.851 174.978 347.945C174.664 348.036 174.408 348.24 174.211 348.558L172.534 352.031L171.635 351.597L173.29 348.167C173.658 347.406 173.469 346.846 172.724 346.487C172.137 346.203 171.615 346.259 171.158 346.655L169.313 350.476L168.418 350.044L170.945 344.81L171.791 345.219ZM180.341 355.8C180.339 355.672 180.386 355.468 180.481 355.188C179.857 355.419 179.256 355.396 178.679 355.117C178.163 354.868 177.809 354.518 177.617 354.068C177.43 353.615 177.444 353.165 177.661 352.717C177.924 352.172 178.334 351.849 178.892 351.749C179.454 351.646 180.111 351.777 180.862 352.139L181.733 352.56L181.931 352.149C182.082 351.836 182.108 351.542 182.01 351.268C181.913 350.991 181.683 350.764 181.319 350.588C180.999 350.434 180.693 350.386 180.399 350.443C180.105 350.499 179.903 350.642 179.792 350.871L178.893 350.437C179.019 350.176 179.232 349.969 179.533 349.816C179.838 349.661 180.183 349.589 180.567 349.599C180.955 349.612 181.339 349.71 181.72 349.893C182.323 350.184 182.722 350.564 182.917 351.032C183.114 351.497 183.092 351.997 182.849 352.532L181.686 354.941C181.454 355.421 181.331 355.833 181.317 356.176L181.279 356.253L180.341 355.8ZM179.185 354.401C179.466 354.537 179.767 354.593 180.088 354.569C180.41 354.545 180.683 354.445 180.908 354.267L181.427 353.193L180.725 352.855C179.629 352.325 178.926 352.381 178.616 353.023C178.481 353.304 178.468 353.568 178.579 353.816C178.69 354.065 178.892 354.26 179.185 354.401ZM183.47 357.311L182.576 356.879L185.102 351.646L185.997 352.078L183.47 357.311ZM185.7 350.223C185.77 350.078 185.873 349.976 186.008 349.918C186.147 349.862 186.303 349.876 186.477 349.96C186.651 350.044 186.759 350.158 186.801 350.301C186.843 350.445 186.829 350.589 186.759 350.734C186.689 350.879 186.586 350.978 186.449 351.031C186.312 351.085 186.156 351.069 185.982 350.985C185.808 350.901 185.699 350.789 185.655 350.648C185.615 350.51 185.63 350.368 185.7 350.223ZM188.28 353.18L187.992 353.852C188.634 353.542 189.278 353.543 189.923 353.854C191.029 354.388 191.286 355.281 190.693 356.534L189.023 359.992L188.128 359.56L189.8 356.097C189.979 355.718 190.027 355.397 189.943 355.134C189.863 354.873 189.643 354.655 189.285 354.483C188.995 354.343 188.703 354.297 188.409 354.346C188.115 354.395 187.846 354.515 187.602 354.708L185.802 358.437L184.907 358.005L187.434 352.771L188.28 353.18Z" fill="white"/>
<path d="M127.931 302.006H128.609C129.036 301.999 129.371 301.887 129.615 301.669C129.859 301.451 129.981 301.156 129.981 300.785C129.981 299.952 129.566 299.535 128.736 299.535C128.346 299.535 128.033 299.647 127.799 299.872C127.568 300.093 127.452 300.388 127.452 300.756H126.549C126.549 300.193 126.754 299.726 127.164 299.354C127.577 298.98 128.102 298.793 128.736 298.793C129.407 298.793 129.933 298.97 130.313 299.325C130.694 299.68 130.885 300.173 130.885 300.805C130.885 301.114 130.784 301.413 130.582 301.703C130.383 301.993 130.112 302.209 129.767 302.353C130.157 302.476 130.458 302.681 130.67 302.968C130.885 303.254 130.992 303.604 130.992 304.018C130.992 304.656 130.784 305.162 130.367 305.536C129.951 305.91 129.409 306.098 128.741 306.098C128.074 306.098 127.53 305.917 127.11 305.556C126.694 305.194 126.485 304.717 126.485 304.125H127.394C127.394 304.499 127.516 304.799 127.76 305.023C128.004 305.248 128.331 305.36 128.741 305.36C129.177 305.36 129.511 305.246 129.742 305.019C129.973 304.791 130.089 304.464 130.089 304.037C130.089 303.624 129.962 303.306 129.708 303.085C129.454 302.864 129.088 302.75 128.609 302.743H127.931V302.006ZM134.518 306.098C133.801 306.098 133.219 305.863 132.77 305.395C132.32 304.923 132.096 304.293 132.096 303.505V303.339C132.096 302.815 132.195 302.348 132.394 301.938C132.595 301.524 132.875 301.202 133.233 300.971C133.595 300.736 133.985 300.619 134.405 300.619C135.092 300.619 135.626 300.845 136.007 301.298C136.388 301.75 136.578 302.398 136.578 303.241V303.617H132.999C133.012 304.138 133.163 304.56 133.453 304.882C133.746 305.201 134.117 305.36 134.566 305.36C134.885 305.36 135.156 305.295 135.377 305.165C135.598 305.035 135.792 304.862 135.958 304.647L136.51 305.077C136.067 305.757 135.403 306.098 134.518 306.098ZM134.405 301.361C134.041 301.361 133.735 301.495 133.487 301.762C133.24 302.025 133.087 302.396 133.028 302.875H135.675V302.807C135.649 302.348 135.525 301.993 135.304 301.742C135.082 301.488 134.783 301.361 134.405 301.361ZM138.072 306V301.415H137.237V300.717H138.072V300.175C138.072 299.608 138.224 299.171 138.526 298.861C138.829 298.552 139.257 298.397 139.811 298.397C140.019 298.397 140.226 298.425 140.431 298.48L140.382 299.213C140.229 299.184 140.066 299.169 139.894 299.169C139.601 299.169 139.374 299.255 139.215 299.428C139.055 299.597 138.976 299.841 138.976 300.16V300.717H140.104V301.415H138.976V306H138.072ZM140.772 303.314C140.772 302.491 140.963 301.837 141.344 301.352C141.725 300.863 142.229 300.619 142.857 300.619C143.502 300.619 144.005 300.847 144.366 301.303L144.41 300.717H145.235V305.873C145.235 306.557 145.032 307.095 144.625 307.489C144.221 307.883 143.678 308.08 142.994 308.08C142.613 308.08 142.241 307.999 141.876 307.836C141.511 307.673 141.233 307.45 141.041 307.167L141.51 306.625C141.897 307.104 142.371 307.343 142.931 307.343C143.37 307.343 143.712 307.219 143.956 306.972C144.203 306.724 144.327 306.376 144.327 305.927V305.473C143.966 305.889 143.473 306.098 142.848 306.098C142.229 306.098 141.728 305.849 141.344 305.351C140.963 304.853 140.772 304.174 140.772 303.314ZM141.681 303.417C141.681 304.013 141.803 304.481 142.047 304.823C142.291 305.162 142.633 305.331 143.072 305.331C143.642 305.331 144.06 305.072 144.327 304.555V302.143C144.05 301.638 143.635 301.386 143.082 301.386C142.643 301.386 142.299 301.557 142.052 301.898C141.804 302.24 141.681 302.746 141.681 303.417ZM149.864 306C149.812 305.896 149.77 305.71 149.737 305.443C149.317 305.88 148.816 306.098 148.233 306.098C147.713 306.098 147.285 305.951 146.949 305.658C146.617 305.362 146.451 304.988 146.451 304.535C146.451 303.985 146.66 303.559 147.076 303.256C147.496 302.95 148.085 302.797 148.844 302.797H149.723V302.382C149.723 302.066 149.628 301.815 149.439 301.63C149.251 301.441 148.972 301.347 148.604 301.347C148.282 301.347 148.012 301.428 147.794 301.591C147.576 301.754 147.467 301.951 147.467 302.182H146.559C146.559 301.918 146.651 301.664 146.837 301.42C147.026 301.173 147.28 300.977 147.599 300.834C147.921 300.691 148.274 300.619 148.658 300.619C149.267 300.619 149.744 300.772 150.089 301.078C150.434 301.381 150.613 301.799 150.626 302.333V304.765C150.626 305.25 150.688 305.635 150.812 305.922V306H149.864ZM148.365 305.312C148.648 305.312 148.917 305.238 149.171 305.092C149.425 304.945 149.609 304.755 149.723 304.521V303.437H149.015C147.908 303.437 147.354 303.76 147.354 304.408C147.354 304.691 147.449 304.913 147.638 305.072C147.826 305.232 148.069 305.312 148.365 305.312ZM156.515 303.417C156.515 304.224 156.329 304.874 155.958 305.365C155.587 305.854 155.089 306.098 154.464 306.098C153.797 306.098 153.281 305.862 152.916 305.39L152.872 306H152.042V298.5H152.945V301.298C153.31 300.845 153.813 300.619 154.454 300.619C155.095 300.619 155.598 300.862 155.963 301.347C156.331 301.832 156.515 302.496 156.515 303.339V303.417ZM155.611 303.314C155.611 302.699 155.493 302.224 155.255 301.889C155.017 301.553 154.675 301.386 154.229 301.386C153.634 301.386 153.206 301.662 152.945 302.216V304.501C153.222 305.054 153.653 305.331 154.239 305.331C154.672 305.331 155.009 305.163 155.25 304.828C155.491 304.493 155.611 303.988 155.611 303.314ZM115.479 318V313.415H114.645V312.717H115.479V312.268C115.479 311.678 115.647 311.219 115.982 310.891C116.321 310.562 116.798 310.397 117.413 310.397C117.778 310.397 118.238 310.497 118.795 310.695L118.644 311.457C118.237 311.294 117.849 311.213 117.481 311.213C117.094 311.213 116.814 311.301 116.642 311.477C116.472 311.649 116.388 311.91 116.388 312.258V312.717H117.467V313.415H116.388V318H115.479ZM119.244 318H118.336V312.717H119.244V318ZM123.268 313.527C123.131 313.505 122.983 313.493 122.823 313.493C122.231 313.493 121.829 313.745 121.617 314.25V318H120.714V312.717H121.593L121.607 313.327C121.904 312.855 122.324 312.619 122.867 312.619C123.043 312.619 123.176 312.642 123.268 312.688V313.527ZM127.179 316.599C127.179 316.354 127.086 316.166 126.9 316.032C126.718 315.896 126.397 315.778 125.938 315.681C125.483 315.583 125.12 315.466 124.85 315.329C124.583 315.192 124.384 315.03 124.254 314.841C124.127 314.652 124.063 314.427 124.063 314.167C124.063 313.734 124.246 313.368 124.61 313.068C124.978 312.769 125.447 312.619 126.017 312.619C126.616 312.619 127.101 312.774 127.472 313.083C127.846 313.392 128.033 313.788 128.033 314.27H127.125C127.125 314.022 127.019 313.809 126.808 313.63C126.599 313.451 126.336 313.361 126.017 313.361C125.688 313.361 125.431 313.433 125.245 313.576C125.06 313.719 124.967 313.907 124.967 314.138C124.967 314.356 125.053 314.52 125.226 314.631C125.398 314.742 125.709 314.847 126.158 314.948C126.611 315.049 126.977 315.17 127.257 315.31C127.537 315.45 127.743 315.619 127.877 315.817C128.014 316.013 128.082 316.252 128.082 316.535C128.082 317.007 127.893 317.386 127.516 317.673C127.138 317.956 126.648 318.098 126.046 318.098C125.623 318.098 125.248 318.023 124.923 317.873C124.597 317.723 124.342 317.515 124.156 317.248C123.974 316.978 123.883 316.687 123.883 316.374H124.786C124.802 316.677 124.923 316.918 125.147 317.097C125.375 317.272 125.675 317.36 126.046 317.36C126.388 317.36 126.661 317.292 126.866 317.155C127.075 317.015 127.179 316.83 127.179 316.599ZM130.484 311.438V312.717H131.471V313.415H130.484V316.691C130.484 316.903 130.528 317.062 130.616 317.17C130.704 317.274 130.854 317.326 131.065 317.326C131.17 317.326 131.313 317.307 131.495 317.268V318C131.257 318.065 131.026 318.098 130.802 318.098C130.398 318.098 130.094 317.976 129.889 317.731C129.684 317.487 129.581 317.141 129.581 316.691V313.415H128.619V312.717H129.581V311.438H130.484ZM137.13 317.36C137.452 317.36 137.734 317.263 137.975 317.067C138.215 316.872 138.349 316.628 138.375 316.335H139.229C139.213 316.638 139.109 316.926 138.917 317.199C138.725 317.473 138.468 317.691 138.146 317.854C137.826 318.016 137.488 318.098 137.13 318.098C136.41 318.098 135.838 317.858 135.411 317.38C134.988 316.898 134.776 316.241 134.776 315.407V315.256C134.776 314.742 134.871 314.284 135.06 313.884C135.248 313.483 135.519 313.173 135.87 312.951C136.225 312.73 136.643 312.619 137.125 312.619C137.717 312.619 138.209 312.797 138.6 313.151C138.993 313.506 139.203 313.967 139.229 314.533H138.375C138.349 314.191 138.219 313.911 137.984 313.693C137.753 313.472 137.467 313.361 137.125 313.361C136.666 313.361 136.31 313.527 136.056 313.859C135.805 314.188 135.68 314.665 135.68 315.29V315.461C135.68 316.07 135.805 316.538 136.056 316.867C136.306 317.196 136.664 317.36 137.13 317.36ZM140.006 315.31C140.006 314.792 140.107 314.326 140.309 313.913C140.514 313.5 140.797 313.181 141.158 312.956C141.523 312.731 141.938 312.619 142.403 312.619C143.123 312.619 143.704 312.868 144.146 313.366C144.592 313.864 144.815 314.527 144.815 315.354V315.417C144.815 315.931 144.716 316.394 144.518 316.804C144.322 317.211 144.041 317.528 143.673 317.756C143.308 317.984 142.888 318.098 142.413 318.098C141.697 318.098 141.116 317.849 140.67 317.351C140.227 316.853 140.006 316.193 140.006 315.373V315.31ZM140.914 315.417C140.914 316.003 141.049 316.473 141.319 316.828C141.593 317.183 141.957 317.36 142.413 317.36C142.872 317.36 143.237 317.181 143.507 316.823C143.777 316.462 143.912 315.957 143.912 315.31C143.912 314.73 143.774 314.261 143.497 313.903C143.224 313.542 142.859 313.361 142.403 313.361C141.957 313.361 141.598 313.539 141.324 313.894C141.051 314.248 140.914 314.756 140.914 315.417ZM146.798 312.717L146.822 313.303C147.21 312.847 147.732 312.619 148.39 312.619C149.129 312.619 149.632 312.902 149.898 313.469C150.074 313.215 150.302 313.01 150.582 312.854C150.865 312.697 151.199 312.619 151.583 312.619C152.742 312.619 153.331 313.233 153.351 314.46V318H152.447V314.514C152.447 314.136 152.361 313.854 152.188 313.669C152.016 313.48 151.726 313.386 151.319 313.386C150.984 313.386 150.706 313.487 150.484 313.688C150.263 313.887 150.134 314.156 150.099 314.494V318H149.19V314.538C149.19 313.77 148.814 313.386 148.062 313.386C147.47 313.386 147.065 313.638 146.847 314.143V318H145.943V312.717H146.798ZM155.567 312.717L155.592 313.303C155.979 312.847 156.502 312.619 157.159 312.619C157.898 312.619 158.401 312.902 158.668 313.469C158.844 313.215 159.072 313.01 159.352 312.854C159.635 312.697 159.968 312.619 160.353 312.619C161.511 312.619 162.101 313.233 162.12 314.46V318H161.217V314.514C161.217 314.136 161.131 313.854 160.958 313.669C160.785 313.48 160.496 313.386 160.089 313.386C159.754 313.386 159.475 313.487 159.254 313.688C159.033 313.887 158.904 314.156 158.868 314.494V318H157.96V314.538C157.96 313.77 157.584 313.386 156.832 313.386C156.24 313.386 155.834 313.638 155.616 314.143V318H154.713V312.717H155.567ZM164.469 318H163.565V312.717H164.469V318ZM163.492 311.315C163.492 311.169 163.536 311.045 163.624 310.944C163.715 310.843 163.849 310.793 164.024 310.793C164.2 310.793 164.334 310.843 164.425 310.944C164.516 311.045 164.562 311.169 164.562 311.315C164.562 311.462 164.516 311.584 164.425 311.682C164.334 311.779 164.2 311.828 164.024 311.828C163.849 311.828 163.715 311.779 163.624 311.682C163.536 311.584 163.492 311.462 163.492 311.315ZM167.145 311.438V312.717H168.131V313.415H167.145V316.691C167.145 316.903 167.188 317.062 167.276 317.17C167.364 317.274 167.514 317.326 167.726 317.326C167.83 317.326 167.973 317.307 168.155 317.268V318C167.918 318.065 167.687 318.098 167.462 318.098C167.058 318.098 166.754 317.976 166.549 317.731C166.344 317.487 166.241 317.141 166.241 316.691V313.415H165.279V312.717H166.241V311.438H167.145Z" fill="black"/>
</svg>
