<svg width="1152" height="587" viewBox="0 0 1152 587" fill="none" xmlns="http://www.w3.org/2000/svg">
<path d="M0 0H1152V587H0V0Z" fill="white" fill-opacity="0.01"/>
<rect x="400.031" y="150.209" width="18" height="41" rx="5" transform="rotate(-64.2277 400.031 150.209)" fill="black"/>
<rect x="400.031" y="352.209" width="18" height="41" rx="5" transform="rotate(-64.2277 400.031 352.209)" fill="black"/>
<path d="M396.739 138.626L405.675 139.094L402.662 145.333L396.739 138.626Z" fill="black"/>
<path d="M396.739 340.626L405.675 341.094L402.662 347.333L396.739 340.626Z" fill="black"/>
<path d="M413.791 144.219L413.535 144.811C414.137 144.545 414.764 144.569 415.415 144.884C416.147 145.237 416.51 145.758 416.503 146.447C416.799 146.279 417.122 146.185 417.475 146.164C417.83 146.145 418.198 146.227 418.578 146.411C419.726 146.965 420.016 147.855 419.449 149.08L417.756 152.586L416.861 152.154L418.528 148.701C418.709 148.327 418.758 148.007 418.676 147.74C418.595 147.471 418.353 147.239 417.95 147.044C417.618 146.884 417.294 146.851 416.978 146.945C416.664 147.036 416.408 147.24 416.211 147.558L414.534 151.031L413.635 150.597L415.29 147.167C415.658 146.406 415.469 145.846 414.724 145.487C414.137 145.203 413.615 145.259 413.158 145.655L411.313 149.476L410.418 149.044L412.945 143.81L413.791 144.219ZM422.341 154.8C422.339 154.672 422.386 154.468 422.481 154.188C421.857 154.419 421.256 154.396 420.679 154.117C420.163 153.868 419.809 153.518 419.617 153.068C419.43 152.615 419.444 152.165 419.661 151.717C419.924 151.172 420.334 150.849 420.892 150.749C421.454 150.646 422.111 150.777 422.862 151.139L423.733 151.56L423.931 151.149C424.082 150.836 424.108 150.542 424.01 150.268C423.913 149.991 423.683 149.764 423.319 149.588C422.999 149.434 422.693 149.386 422.399 149.443C422.105 149.499 421.903 149.642 421.792 149.871L420.893 149.437C421.019 149.176 421.232 148.969 421.533 148.816C421.838 148.661 422.183 148.589 422.567 148.599C422.955 148.612 423.339 148.71 423.72 148.893C424.323 149.184 424.722 149.564 424.917 150.032C425.114 150.497 425.092 150.997 424.849 151.532L423.686 153.941C423.454 154.421 423.331 154.833 423.317 155.176L423.279 155.253L422.341 154.8ZM421.185 153.401C421.466 153.537 421.767 153.593 422.088 153.569C422.41 153.545 422.683 153.445 422.908 153.267L423.427 152.193L422.725 151.855C421.629 151.325 420.926 151.381 420.616 152.023C420.481 152.304 420.468 152.568 420.579 152.816C420.69 153.065 420.892 153.26 421.185 153.401ZM425.47 156.311L424.576 155.879L427.102 150.646L427.997 151.078L425.47 156.311ZM427.7 149.223C427.77 149.078 427.873 148.976 428.008 148.918C428.147 148.862 428.303 148.876 428.477 148.96C428.651 149.044 428.759 149.158 428.801 149.301C428.843 149.445 428.829 149.589 428.759 149.734C428.689 149.879 428.586 149.978 428.449 150.031C428.312 150.085 428.156 150.069 427.982 149.985C427.808 149.901 427.699 149.789 427.655 149.648C427.615 149.51 427.63 149.368 427.7 149.223ZM430.28 152.18L429.992 152.852C430.634 152.542 431.278 152.543 431.923 152.854C433.029 153.388 433.286 154.281 432.693 155.534L431.023 158.992L430.128 158.56L431.8 155.097C431.979 154.718 432.027 154.397 431.943 154.134C431.863 153.873 431.643 153.655 431.285 153.483C430.995 153.343 430.703 153.297 430.409 153.346C430.115 153.395 429.846 153.515 429.602 153.708L427.802 157.437L426.907 157.005L429.434 151.771L430.28 152.18Z" fill="white"/>
<path d="M413.791 346.219L413.535 346.811C414.137 346.545 414.764 346.569 415.415 346.884C416.147 347.237 416.51 347.758 416.503 348.447C416.799 348.279 417.122 348.185 417.475 348.164C417.83 348.145 418.198 348.227 418.578 348.411C419.726 348.965 420.016 349.855 419.449 351.08L417.756 354.586L416.861 354.154L418.528 350.701C418.709 350.327 418.758 350.007 418.676 349.74C418.595 349.471 418.353 349.239 417.95 349.044C417.618 348.884 417.294 348.851 416.978 348.945C416.664 349.036 416.408 349.24 416.211 349.558L414.534 353.031L413.635 352.597L415.29 349.167C415.658 348.406 415.469 347.846 414.724 347.487C414.137 347.203 413.615 347.259 413.158 347.655L411.313 351.476L410.418 351.044L412.945 345.81L413.791 346.219ZM422.341 356.8C422.339 356.672 422.386 356.468 422.481 356.188C421.857 356.419 421.256 356.396 420.679 356.117C420.163 355.868 419.809 355.518 419.617 355.068C419.43 354.615 419.444 354.165 419.661 353.717C419.924 353.172 420.334 352.849 420.892 352.749C421.454 352.646 422.111 352.777 422.862 353.139L423.733 353.56L423.931 353.149C424.082 352.836 424.108 352.542 424.01 352.268C423.913 351.991 423.683 351.764 423.319 351.588C422.999 351.434 422.693 351.386 422.399 351.443C422.105 351.499 421.903 351.642 421.792 351.871L420.893 351.437C421.019 351.176 421.232 350.969 421.533 350.816C421.838 350.661 422.183 350.589 422.567 350.599C422.955 350.612 423.339 350.71 423.72 350.893C424.323 351.184 424.722 351.564 424.917 352.032C425.114 352.497 425.092 352.997 424.849 353.532L423.686 355.941C423.454 356.421 423.331 356.833 423.317 357.176L423.279 357.253L422.341 356.8ZM421.185 355.401C421.466 355.537 421.767 355.593 422.088 355.569C422.41 355.545 422.683 355.445 422.908 355.267L423.427 354.193L422.725 353.855C421.629 353.325 420.926 353.381 420.616 354.023C420.481 354.304 420.468 354.568 420.579 354.816C420.69 355.065 420.892 355.26 421.185 355.401ZM425.47 358.311L424.576 357.879L427.102 352.646L427.997 353.078L425.47 358.311ZM427.7 351.223C427.77 351.078 427.873 350.976 428.008 350.918C428.147 350.862 428.303 350.876 428.477 350.96C428.651 351.044 428.759 351.158 428.801 351.301C428.843 351.445 428.829 351.589 428.759 351.734C428.689 351.879 428.586 351.978 428.449 352.031C428.312 352.085 428.156 352.069 427.982 351.985C427.808 351.901 427.699 351.789 427.655 351.648C427.615 351.51 427.63 351.368 427.7 351.223ZM430.28 354.18L429.992 354.852C430.634 354.542 431.278 354.543 431.923 354.854C433.029 355.388 433.286 356.281 432.693 357.534L431.023 360.992L430.128 360.56L431.8 357.097C431.979 356.718 432.027 356.397 431.943 356.134C431.863 355.873 431.643 355.655 431.285 355.483C430.995 355.343 430.703 355.297 430.409 355.346C430.115 355.395 429.846 355.515 429.602 355.708L427.802 359.437L426.907 359.005L429.434 353.771L430.28 354.18Z" fill="white"/>
<line x1="382.5" y1="141" x2="382.5" y2="329" stroke="#4000C7"/>
<path d="M367.173 96.8857V97.6523H367.007C366.304 97.6654 365.744 97.8737 365.327 98.2773C364.91 98.681 364.67 99.249 364.604 99.9814C364.979 99.5518 365.49 99.3369 366.138 99.3369C366.756 99.3369 367.249 99.555 367.617 99.9912C367.988 100.427 368.174 100.991 368.174 101.681C368.174 102.413 367.974 102.999 367.573 103.438C367.176 103.878 366.642 104.098 365.972 104.098C365.291 104.098 364.74 103.837 364.316 103.316C363.893 102.792 363.682 102.118 363.682 101.295V100.948C363.682 99.6396 363.96 98.6403 364.517 97.9502C365.076 97.2568 365.908 96.902 367.012 96.8857H367.173ZM365.986 100.089C365.677 100.089 365.392 100.182 365.132 100.367C364.871 100.553 364.691 100.785 364.59 101.065V101.397C364.59 101.983 364.722 102.455 364.985 102.813C365.249 103.172 365.578 103.351 365.972 103.351C366.379 103.351 366.698 103.201 366.929 102.901C367.163 102.602 367.28 102.21 367.28 101.725C367.28 101.236 367.161 100.842 366.924 100.543C366.689 100.24 366.377 100.089 365.986 100.089ZM373.809 101.417C373.809 102.224 373.623 102.874 373.252 103.365C372.881 103.854 372.383 104.098 371.758 104.098C371.09 104.098 370.575 103.862 370.21 103.39L370.166 104H369.336V96.5H370.239V99.2979C370.604 98.8454 371.107 98.6191 371.748 98.6191C372.389 98.6191 372.892 98.8617 373.257 99.3467C373.625 99.8317 373.809 100.496 373.809 101.339V101.417ZM372.905 101.314C372.905 100.699 372.786 100.224 372.549 99.8887C372.311 99.5534 371.969 99.3857 371.523 99.3857C370.928 99.3857 370.5 99.6624 370.239 100.216V102.501C370.516 103.054 370.947 103.331 371.533 103.331C371.966 103.331 372.303 103.163 372.544 102.828C372.785 102.493 372.905 101.988 372.905 101.314ZM378.672 101.612H379.658V102.35H378.672V104H377.764V102.35H374.526V101.817L377.71 96.8906H378.672V101.612ZM375.552 101.612H377.764V98.126L377.656 98.3213L375.552 101.612ZM381.787 100.006H382.466C382.892 99.9993 383.228 99.887 383.472 99.6689C383.716 99.4508 383.838 99.1562 383.838 98.7852C383.838 97.9518 383.423 97.5352 382.593 97.5352C382.202 97.5352 381.89 97.6475 381.655 97.8721C381.424 98.0934 381.309 98.388 381.309 98.7559H380.405C380.405 98.1927 380.61 97.7256 381.021 97.3545C381.434 96.9801 381.958 96.793 382.593 96.793C383.263 96.793 383.789 96.9704 384.17 97.3252C384.551 97.68 384.741 98.1732 384.741 98.8047C384.741 99.1139 384.64 99.4134 384.438 99.7031C384.24 99.9928 383.968 100.209 383.623 100.353C384.014 100.476 384.315 100.681 384.526 100.968C384.741 101.254 384.849 101.604 384.849 102.018C384.849 102.656 384.64 103.162 384.224 103.536C383.807 103.91 383.265 104.098 382.598 104.098C381.93 104.098 381.387 103.917 380.967 103.556C380.55 103.194 380.342 102.717 380.342 102.125H381.25C381.25 102.499 381.372 102.799 381.616 103.023C381.86 103.248 382.188 103.36 382.598 103.36C383.034 103.36 383.368 103.246 383.599 103.019C383.83 102.791 383.945 102.464 383.945 102.037C383.945 101.624 383.818 101.306 383.564 101.085C383.311 100.864 382.944 100.75 382.466 100.743H381.787V100.006ZM389.551 100.875C389.362 101.1 389.136 101.28 388.872 101.417C388.612 101.554 388.325 101.622 388.013 101.622C387.603 101.622 387.244 101.521 386.938 101.319C386.636 101.118 386.401 100.834 386.235 100.47C386.069 100.102 385.986 99.6966 385.986 99.2539C385.986 98.7786 386.076 98.3506 386.255 97.9697C386.437 97.5889 386.694 97.2975 387.026 97.0957C387.358 96.8939 387.746 96.793 388.188 96.793C388.892 96.793 389.445 97.0566 389.849 97.584C390.256 98.1081 390.459 98.8242 390.459 99.7324V99.9961C390.459 101.38 390.186 102.39 389.639 103.028C389.092 103.663 388.267 103.989 387.163 104.005H386.987V103.243H387.178C387.923 103.23 388.496 103.036 388.896 102.662C389.297 102.285 389.515 101.689 389.551 100.875ZM388.159 100.875C388.462 100.875 388.74 100.782 388.994 100.597C389.251 100.411 389.438 100.182 389.556 99.9082V99.5469C389.556 98.9544 389.427 98.4727 389.17 98.1016C388.913 97.7305 388.587 97.5449 388.193 97.5449C387.796 97.5449 387.477 97.6979 387.236 98.0039C386.995 98.3066 386.875 98.707 386.875 99.2051C386.875 99.6901 386.991 100.09 387.222 100.406C387.456 100.719 387.769 100.875 388.159 100.875ZM392.119 100.436L392.48 96.8906H396.123V97.7256H393.247L393.032 99.6641C393.381 99.459 393.776 99.3564 394.219 99.3564C394.867 99.3564 395.381 99.5713 395.762 100.001C396.143 100.427 396.333 101.005 396.333 101.734C396.333 102.467 396.134 103.045 395.737 103.468C395.343 103.888 394.792 104.098 394.082 104.098C393.454 104.098 392.941 103.924 392.544 103.575C392.147 103.227 391.921 102.745 391.865 102.13H392.72C392.775 102.537 392.92 102.844 393.154 103.053C393.389 103.258 393.698 103.36 394.082 103.36C394.502 103.36 394.831 103.217 395.068 102.931C395.309 102.644 395.43 102.249 395.43 101.744C395.43 101.269 395.299 100.888 395.039 100.602C394.782 100.312 394.438 100.167 394.009 100.167C393.615 100.167 393.306 100.253 393.081 100.426L392.842 100.621L392.119 100.436ZM399.531 103.36C399.854 103.36 400.135 103.263 400.376 103.067C400.617 102.872 400.75 102.628 400.776 102.335H401.631C401.615 102.638 401.51 102.926 401.318 103.199C401.126 103.473 400.869 103.691 400.547 103.854C400.228 104.016 399.889 104.098 399.531 104.098C398.812 104.098 398.239 103.858 397.812 103.38C397.389 102.898 397.178 102.241 397.178 101.407V101.256C397.178 100.742 397.272 100.284 397.461 99.8838C397.65 99.4834 397.92 99.1725 398.271 98.9512C398.626 98.7298 399.045 98.6191 399.526 98.6191C400.119 98.6191 400.61 98.7965 401.001 99.1514C401.395 99.5062 401.605 99.9668 401.631 100.533H400.776C400.75 100.191 400.62 99.9115 400.386 99.6934C400.155 99.472 399.868 99.3613 399.526 99.3613C399.067 99.3613 398.711 99.5273 398.457 99.8594C398.206 100.188 398.081 100.665 398.081 101.29V101.461C398.081 102.07 398.206 102.538 398.457 102.867C398.708 103.196 399.066 103.36 399.531 103.36ZM356.704 116H355.801V110.717H356.704V116ZM355.728 109.315C355.728 109.169 355.771 109.045 355.859 108.944C355.951 108.843 356.084 108.793 356.26 108.793C356.436 108.793 356.569 108.843 356.66 108.944C356.751 109.045 356.797 109.169 356.797 109.315C356.797 109.462 356.751 109.584 356.66 109.682C356.569 109.779 356.436 109.828 356.26 109.828C356.084 109.828 355.951 109.779 355.859 109.682C355.771 109.584 355.728 109.462 355.728 109.315ZM359.009 110.717L359.038 111.381C359.442 110.873 359.969 110.619 360.62 110.619C361.737 110.619 362.3 111.249 362.31 112.509V116H361.406V112.504C361.403 112.123 361.315 111.841 361.143 111.659C360.973 111.477 360.708 111.386 360.347 111.386C360.054 111.386 359.797 111.464 359.575 111.62C359.354 111.776 359.181 111.981 359.058 112.235V116H358.154V110.717H359.009ZM363.452 113.314C363.452 112.504 363.644 111.853 364.028 111.361C364.412 110.867 364.915 110.619 365.537 110.619C366.156 110.619 366.646 110.831 367.007 111.254V108.5H367.91V116H367.08L367.036 115.434C366.675 115.876 366.172 116.098 365.527 116.098C364.915 116.098 364.416 115.847 364.028 115.346C363.644 114.844 363.452 114.19 363.452 113.383V113.314ZM364.355 113.417C364.355 114.016 364.479 114.485 364.727 114.823C364.974 115.162 365.316 115.331 365.752 115.331C366.325 115.331 366.743 115.074 367.007 114.56V112.133C366.737 111.635 366.322 111.386 365.762 111.386C365.319 111.386 364.974 111.557 364.727 111.898C364.479 112.24 364.355 112.746 364.355 113.417ZM371.509 116.098C370.793 116.098 370.21 115.863 369.761 115.395C369.312 114.923 369.087 114.293 369.087 113.505V113.339C369.087 112.815 369.186 112.348 369.385 111.938C369.587 111.524 369.867 111.202 370.225 110.971C370.586 110.736 370.977 110.619 371.396 110.619C372.083 110.619 372.617 110.845 372.998 111.298C373.379 111.75 373.569 112.398 373.569 113.241V113.617H369.99C370.003 114.138 370.155 114.56 370.444 114.882C370.737 115.201 371.108 115.36 371.558 115.36C371.877 115.36 372.147 115.295 372.368 115.165C372.59 115.035 372.783 114.862 372.949 114.647L373.501 115.077C373.058 115.757 372.394 116.098 371.509 116.098ZM371.396 111.361C371.032 111.361 370.726 111.495 370.479 111.762C370.231 112.025 370.078 112.396 370.02 112.875H372.666V112.807C372.64 112.348 372.516 111.993 372.295 111.742C372.074 111.488 371.774 111.361 371.396 111.361ZM376.392 112.646L377.563 110.717H378.618L376.89 113.329L378.672 116H377.627L376.406 114.022L375.186 116H374.136L375.918 113.329L374.189 110.717H375.234L376.392 112.646ZM379.6 115.526C379.6 115.37 379.645 115.24 379.736 115.136C379.831 115.032 379.971 114.979 380.156 114.979C380.342 114.979 380.482 115.032 380.576 115.136C380.674 115.24 380.723 115.37 380.723 115.526C380.723 115.676 380.674 115.801 380.576 115.902C380.482 116.003 380.342 116.054 380.156 116.054C379.971 116.054 379.831 116.003 379.736 115.902C379.645 115.801 379.6 115.676 379.6 115.526ZM383.149 110.717V116.61C383.149 117.626 382.689 118.134 381.768 118.134C381.569 118.134 381.385 118.104 381.216 118.046V117.323C381.32 117.349 381.457 117.362 381.626 117.362C381.828 117.362 381.981 117.307 382.085 117.196C382.192 117.089 382.246 116.9 382.246 116.63V110.717H383.149ZM382.153 109.315C382.153 109.172 382.197 109.05 382.285 108.949C382.376 108.845 382.508 108.793 382.681 108.793C382.856 108.793 382.99 108.843 383.081 108.944C383.172 109.045 383.218 109.169 383.218 109.315C383.218 109.462 383.172 109.584 383.081 109.682C382.99 109.779 382.856 109.828 382.681 109.828C382.505 109.828 382.373 109.779 382.285 109.682C382.197 109.584 382.153 109.462 382.153 109.315ZM387.686 114.599C387.686 114.354 387.593 114.166 387.407 114.032C387.225 113.896 386.904 113.778 386.445 113.681C385.99 113.583 385.627 113.466 385.356 113.329C385.09 113.192 384.891 113.03 384.761 112.841C384.634 112.652 384.57 112.427 384.57 112.167C384.57 111.734 384.753 111.368 385.117 111.068C385.485 110.769 385.954 110.619 386.523 110.619C387.122 110.619 387.607 110.774 387.979 111.083C388.353 111.392 388.54 111.788 388.54 112.27H387.632C387.632 112.022 387.526 111.809 387.314 111.63C387.106 111.451 386.842 111.361 386.523 111.361C386.195 111.361 385.938 111.433 385.752 111.576C385.566 111.719 385.474 111.907 385.474 112.138C385.474 112.356 385.56 112.52 385.732 112.631C385.905 112.742 386.216 112.847 386.665 112.948C387.118 113.049 387.484 113.17 387.764 113.31C388.044 113.45 388.25 113.619 388.384 113.817C388.521 114.013 388.589 114.252 388.589 114.535C388.589 115.007 388.4 115.386 388.022 115.673C387.645 115.956 387.155 116.098 386.553 116.098C386.13 116.098 385.755 116.023 385.43 115.873C385.104 115.723 384.849 115.515 384.663 115.248C384.481 114.978 384.39 114.687 384.39 114.374H385.293C385.309 114.677 385.43 114.918 385.654 115.097C385.882 115.272 386.182 115.36 386.553 115.36C386.895 115.36 387.168 115.292 387.373 115.155C387.581 115.015 387.686 114.83 387.686 114.599ZM399.813 111.19C398.183 110.95 396.583 109.84 396.583 108.59V108.09H395.723V108.59C395.723 109.87 394.143 110.95 392.513 111.19L392.843 111.85C394.243 111.61 395.593 110.84 396.153 109.75C396.733 110.83 398.083 111.61 399.473 111.85L399.813 111.19ZM400.203 112.82H392.103V113.5H395.723V116.75H396.543V113.5H400.213L400.203 112.82ZM406.082 110.1V110.77H407.852V113.12H408.682V107.78H407.852V110.1H406.082ZM406.582 112.14C405.282 111.68 404.402 110.55 404.402 109.4V109.09H406.372V108.43H401.582V109.09H403.582V109.4C403.582 110.69 402.662 111.9 401.322 112.39L401.752 113.04C402.802 112.64 403.632 111.8 404.012 110.76C404.402 111.68 405.172 112.42 406.172 112.78L406.582 112.14ZM405.722 116.1C404.372 116.1 403.552 115.72 403.552 115.07C403.552 114.42 404.372 114.03 405.722 114.03C407.072 114.03 407.892 114.42 407.892 115.07C407.892 115.72 407.072 116.1 405.722 116.1ZM405.722 113.4C403.882 113.4 402.732 114.01 402.732 115.07C402.732 116.13 403.882 116.74 405.722 116.74C407.562 116.74 408.712 116.13 408.712 115.07C408.712 114.01 407.562 113.4 405.722 113.4Z" fill="black"/>
<path d="M367.173 298.886V299.652H367.007C366.304 299.665 365.744 299.874 365.327 300.277C364.91 300.681 364.67 301.249 364.604 301.981C364.979 301.552 365.49 301.337 366.138 301.337C366.756 301.337 367.249 301.555 367.617 301.991C367.988 302.427 368.174 302.991 368.174 303.681C368.174 304.413 367.974 304.999 367.573 305.438C367.176 305.878 366.642 306.098 365.972 306.098C365.291 306.098 364.74 305.837 364.316 305.316C363.893 304.792 363.682 304.118 363.682 303.295V302.948C363.682 301.64 363.96 300.64 364.517 299.95C365.076 299.257 365.908 298.902 367.012 298.886H367.173ZM365.986 302.089C365.677 302.089 365.392 302.182 365.132 302.367C364.871 302.553 364.691 302.785 364.59 303.065V303.397C364.59 303.983 364.722 304.455 364.985 304.813C365.249 305.172 365.578 305.351 365.972 305.351C366.379 305.351 366.698 305.201 366.929 304.901C367.163 304.602 367.28 304.21 367.28 303.725C367.28 303.236 367.161 302.842 366.924 302.543C366.689 302.24 366.377 302.089 365.986 302.089ZM373.809 303.417C373.809 304.224 373.623 304.874 373.252 305.365C372.881 305.854 372.383 306.098 371.758 306.098C371.09 306.098 370.575 305.862 370.21 305.39L370.166 306H369.336V298.5H370.239V301.298C370.604 300.845 371.107 300.619 371.748 300.619C372.389 300.619 372.892 300.862 373.257 301.347C373.625 301.832 373.809 302.496 373.809 303.339V303.417ZM372.905 303.314C372.905 302.699 372.786 302.224 372.549 301.889C372.311 301.553 371.969 301.386 371.523 301.386C370.928 301.386 370.5 301.662 370.239 302.216V304.501C370.516 305.054 370.947 305.331 371.533 305.331C371.966 305.331 372.303 305.163 372.544 304.828C372.785 304.493 372.905 303.988 372.905 303.314ZM378.672 303.612H379.658V304.35H378.672V306H377.764V304.35H374.526V303.817L377.71 298.891H378.672V303.612ZM375.552 303.612H377.764V300.126L377.656 300.321L375.552 303.612ZM381.787 302.006H382.466C382.892 301.999 383.228 301.887 383.472 301.669C383.716 301.451 383.838 301.156 383.838 300.785C383.838 299.952 383.423 299.535 382.593 299.535C382.202 299.535 381.89 299.647 381.655 299.872C381.424 300.093 381.309 300.388 381.309 300.756H380.405C380.405 300.193 380.61 299.726 381.021 299.354C381.434 298.98 381.958 298.793 382.593 298.793C383.263 298.793 383.789 298.97 384.17 299.325C384.551 299.68 384.741 300.173 384.741 300.805C384.741 301.114 384.64 301.413 384.438 301.703C384.24 301.993 383.968 302.209 383.623 302.353C384.014 302.476 384.315 302.681 384.526 302.968C384.741 303.254 384.849 303.604 384.849 304.018C384.849 304.656 384.64 305.162 384.224 305.536C383.807 305.91 383.265 306.098 382.598 306.098C381.93 306.098 381.387 305.917 380.967 305.556C380.55 305.194 380.342 304.717 380.342 304.125H381.25C381.25 304.499 381.372 304.799 381.616 305.023C381.86 305.248 382.188 305.36 382.598 305.36C383.034 305.36 383.368 305.246 383.599 305.019C383.83 304.791 383.945 304.464 383.945 304.037C383.945 303.624 383.818 303.306 383.564 303.085C383.311 302.864 382.944 302.75 382.466 302.743H381.787V302.006ZM389.551 302.875C389.362 303.1 389.136 303.28 388.872 303.417C388.612 303.554 388.325 303.622 388.013 303.622C387.603 303.622 387.244 303.521 386.938 303.319C386.636 303.118 386.401 302.834 386.235 302.47C386.069 302.102 385.986 301.697 385.986 301.254C385.986 300.779 386.076 300.351 386.255 299.97C386.437 299.589 386.694 299.298 387.026 299.096C387.358 298.894 387.746 298.793 388.188 298.793C388.892 298.793 389.445 299.057 389.849 299.584C390.256 300.108 390.459 300.824 390.459 301.732V301.996C390.459 303.38 390.186 304.39 389.639 305.028C389.092 305.663 388.267 305.989 387.163 306.005H386.987V305.243H387.178C387.923 305.23 388.496 305.036 388.896 304.662C389.297 304.285 389.515 303.689 389.551 302.875ZM388.159 302.875C388.462 302.875 388.74 302.782 388.994 302.597C389.251 302.411 389.438 302.182 389.556 301.908V301.547C389.556 300.954 389.427 300.473 389.17 300.102C388.913 299.73 388.587 299.545 388.193 299.545C387.796 299.545 387.477 299.698 387.236 300.004C386.995 300.307 386.875 300.707 386.875 301.205C386.875 301.69 386.991 302.09 387.222 302.406C387.456 302.719 387.769 302.875 388.159 302.875ZM392.119 302.436L392.48 298.891H396.123V299.726H393.247L393.032 301.664C393.381 301.459 393.776 301.356 394.219 301.356C394.867 301.356 395.381 301.571 395.762 302.001C396.143 302.427 396.333 303.005 396.333 303.734C396.333 304.467 396.134 305.045 395.737 305.468C395.343 305.888 394.792 306.098 394.082 306.098C393.454 306.098 392.941 305.924 392.544 305.575C392.147 305.227 391.921 304.745 391.865 304.13H392.72C392.775 304.537 392.92 304.844 393.154 305.053C393.389 305.258 393.698 305.36 394.082 305.36C394.502 305.36 394.831 305.217 395.068 304.931C395.309 304.644 395.43 304.249 395.43 303.744C395.43 303.269 395.299 302.888 395.039 302.602C394.782 302.312 394.438 302.167 394.009 302.167C393.615 302.167 393.306 302.253 393.081 302.426L392.842 302.621L392.119 302.436ZM399.531 305.36C399.854 305.36 400.135 305.263 400.376 305.067C400.617 304.872 400.75 304.628 400.776 304.335H401.631C401.615 304.638 401.51 304.926 401.318 305.199C401.126 305.473 400.869 305.691 400.547 305.854C400.228 306.016 399.889 306.098 399.531 306.098C398.812 306.098 398.239 305.858 397.812 305.38C397.389 304.898 397.178 304.241 397.178 303.407V303.256C397.178 302.742 397.272 302.284 397.461 301.884C397.65 301.483 397.92 301.173 398.271 300.951C398.626 300.73 399.045 300.619 399.526 300.619C400.119 300.619 400.61 300.797 401.001 301.151C401.395 301.506 401.605 301.967 401.631 302.533H400.776C400.75 302.191 400.62 301.911 400.386 301.693C400.155 301.472 399.868 301.361 399.526 301.361C399.067 301.361 398.711 301.527 398.457 301.859C398.206 302.188 398.081 302.665 398.081 303.29V303.461C398.081 304.07 398.206 304.538 398.457 304.867C398.708 305.196 399.066 305.36 399.531 305.36ZM356.704 318H355.801V312.717H356.704V318ZM355.728 311.315C355.728 311.169 355.771 311.045 355.859 310.944C355.951 310.843 356.084 310.793 356.26 310.793C356.436 310.793 356.569 310.843 356.66 310.944C356.751 311.045 356.797 311.169 356.797 311.315C356.797 311.462 356.751 311.584 356.66 311.682C356.569 311.779 356.436 311.828 356.26 311.828C356.084 311.828 355.951 311.779 355.859 311.682C355.771 311.584 355.728 311.462 355.728 311.315ZM359.009 312.717L359.038 313.381C359.442 312.873 359.969 312.619 360.62 312.619C361.737 312.619 362.3 313.249 362.31 314.509V318H361.406V314.504C361.403 314.123 361.315 313.841 361.143 313.659C360.973 313.477 360.708 313.386 360.347 313.386C360.054 313.386 359.797 313.464 359.575 313.62C359.354 313.776 359.181 313.981 359.058 314.235V318H358.154V312.717H359.009ZM363.452 315.314C363.452 314.504 363.644 313.853 364.028 313.361C364.412 312.867 364.915 312.619 365.537 312.619C366.156 312.619 366.646 312.831 367.007 313.254V310.5H367.91V318H367.08L367.036 317.434C366.675 317.876 366.172 318.098 365.527 318.098C364.915 318.098 364.416 317.847 364.028 317.346C363.644 316.844 363.452 316.19 363.452 315.383V315.314ZM364.355 315.417C364.355 316.016 364.479 316.485 364.727 316.823C364.974 317.162 365.316 317.331 365.752 317.331C366.325 317.331 366.743 317.074 367.007 316.56V314.133C366.737 313.635 366.322 313.386 365.762 313.386C365.319 313.386 364.974 313.557 364.727 313.898C364.479 314.24 364.355 314.746 364.355 315.417ZM371.509 318.098C370.793 318.098 370.21 317.863 369.761 317.395C369.312 316.923 369.087 316.293 369.087 315.505V315.339C369.087 314.815 369.186 314.348 369.385 313.938C369.587 313.524 369.867 313.202 370.225 312.971C370.586 312.736 370.977 312.619 371.396 312.619C372.083 312.619 372.617 312.845 372.998 313.298C373.379 313.75 373.569 314.398 373.569 315.241V315.617H369.99C370.003 316.138 370.155 316.56 370.444 316.882C370.737 317.201 371.108 317.36 371.558 317.36C371.877 317.36 372.147 317.295 372.368 317.165C372.59 317.035 372.783 316.862 372.949 316.647L373.501 317.077C373.058 317.757 372.394 318.098 371.509 318.098ZM371.396 313.361C371.032 313.361 370.726 313.495 370.479 313.762C370.231 314.025 370.078 314.396 370.02 314.875H372.666V314.807C372.64 314.348 372.516 313.993 372.295 313.742C372.074 313.488 371.774 313.361 371.396 313.361ZM376.392 314.646L377.563 312.717H378.618L376.89 315.329L378.672 318H377.627L376.406 316.022L375.186 318H374.136L375.918 315.329L374.189 312.717H375.234L376.392 314.646ZM379.6 317.526C379.6 317.37 379.645 317.24 379.736 317.136C379.831 317.032 379.971 316.979 380.156 316.979C380.342 316.979 380.482 317.032 380.576 317.136C380.674 317.24 380.723 317.37 380.723 317.526C380.723 317.676 380.674 317.801 380.576 317.902C380.482 318.003 380.342 318.054 380.156 318.054C379.971 318.054 379.831 318.003 379.736 317.902C379.645 317.801 379.6 317.676 379.6 317.526ZM383.149 312.717V318.61C383.149 319.626 382.689 320.134 381.768 320.134C381.569 320.134 381.385 320.104 381.216 320.046V319.323C381.32 319.349 381.457 319.362 381.626 319.362C381.828 319.362 381.981 319.307 382.085 319.196C382.192 319.089 382.246 318.9 382.246 318.63V312.717H383.149ZM382.153 311.315C382.153 311.172 382.197 311.05 382.285 310.949C382.376 310.845 382.508 310.793 382.681 310.793C382.856 310.793 382.99 310.843 383.081 310.944C383.172 311.045 383.218 311.169 383.218 311.315C383.218 311.462 383.172 311.584 383.081 311.682C382.99 311.779 382.856 311.828 382.681 311.828C382.505 311.828 382.373 311.779 382.285 311.682C382.197 311.584 382.153 311.462 382.153 311.315ZM387.686 316.599C387.686 316.354 387.593 316.166 387.407 316.032C387.225 315.896 386.904 315.778 386.445 315.681C385.99 315.583 385.627 315.466 385.356 315.329C385.09 315.192 384.891 315.03 384.761 314.841C384.634 314.652 384.57 314.427 384.57 314.167C384.57 313.734 384.753 313.368 385.117 313.068C385.485 312.769 385.954 312.619 386.523 312.619C387.122 312.619 387.607 312.774 387.979 313.083C388.353 313.392 388.54 313.788 388.54 314.27H387.632C387.632 314.022 387.526 313.809 387.314 313.63C387.106 313.451 386.842 313.361 386.523 313.361C386.195 313.361 385.938 313.433 385.752 313.576C385.566 313.719 385.474 313.907 385.474 314.138C385.474 314.356 385.56 314.52 385.732 314.631C385.905 314.742 386.216 314.847 386.665 314.948C387.118 315.049 387.484 315.17 387.764 315.31C388.044 315.45 388.25 315.619 388.384 315.817C388.521 316.013 388.589 316.252 388.589 316.535C388.589 317.007 388.4 317.386 388.022 317.673C387.645 317.956 387.155 318.098 386.553 318.098C386.13 318.098 385.755 318.023 385.43 317.873C385.104 317.723 384.849 317.515 384.663 317.248C384.481 316.978 384.39 316.687 384.39 316.374H385.293C385.309 316.677 385.43 316.918 385.654 317.097C385.882 317.272 386.182 317.36 386.553 317.36C386.895 317.36 387.168 317.292 387.373 317.155C387.581 317.015 387.686 316.83 387.686 316.599ZM399.813 313.19C398.183 312.95 396.583 311.84 396.583 310.59V310.09H395.723V310.59C395.723 311.87 394.143 312.95 392.513 313.19L392.843 313.85C394.243 313.61 395.593 312.84 396.153 311.75C396.733 312.83 398.083 313.61 399.473 313.85L399.813 313.19ZM400.203 314.82H392.103V315.5H395.723V318.75H396.543V315.5H400.213L400.203 314.82ZM406.082 312.1V312.77H407.852V315.12H408.682V309.78H407.852V312.1H406.082ZM406.582 314.14C405.282 313.68 404.402 312.55 404.402 311.4V311.09H406.372V310.43H401.582V311.09H403.582V311.4C403.582 312.69 402.662 313.9 401.322 314.39L401.752 315.04C402.802 314.64 403.632 313.8 404.012 312.76C404.402 313.68 405.172 314.42 406.172 314.78L406.582 314.14ZM405.722 318.1C404.372 318.1 403.552 317.72 403.552 317.07C403.552 316.42 404.372 316.03 405.722 316.03C407.072 316.03 407.892 316.42 407.892 317.07C407.892 317.72 407.072 318.1 405.722 318.1ZM405.722 315.4C403.882 315.4 402.732 316.01 402.732 317.07C402.732 318.13 403.882 318.74 405.722 318.74C407.562 318.74 408.712 318.13 408.712 317.07C408.712 316.01 407.562 315.4 405.722 315.4Z" fill="black"/>
<circle cx="140.5" cy="133.5" r="9.5" fill="#4000C7"/>
<circle cx="140.5" cy="335.5" r="9.5" fill="#4000C7"/>
<circle cx="220.5" cy="133.5" r="9.5" fill="#4000C7"/>
<circle cx="220.5" cy="335.5" r="9.5" fill="#4000C7"/>
<circle cx="301.5" cy="133.5" r="9.5" fill="#4000C7"/>
<circle cx="301.5" cy="335.5" r="9.5" fill="#4000C7"/>
<circle cx="382.5" cy="133.5" r="9.5" fill="#4000C7"/>
<circle cx="382.5" cy="335.5" r="9.5" fill="#4000C7"/>
<line x1="150" y1="133.5" x2="392" y2="133.5" stroke="#4000C7"/>
<line x1="150" y1="335.5" x2="392" y2="335.5" stroke="#4000C7"/>
</svg>
