<svg width="1152" height="587" viewBox="0 0 1152 587" fill="none" xmlns="http://www.w3.org/2000/svg">
<path d="M0 0H1152V587H0V0Z" fill="white" fill-opacity="0.01"/>
<circle cx="140.5" cy="133.5" r="9.5" fill="#4000C7"/>
<rect x="158.031" y="150.209" width="18" height="41" rx="5" transform="rotate(-64.2277 158.031 150.209)" fill="black"/>
<path d="M154.739 138.626L163.675 139.094L160.662 145.333L154.739 138.626Z" fill="black"/>
<path d="M171.791 144.219L171.535 144.811C172.137 144.545 172.764 144.569 173.415 144.884C174.147 145.237 174.51 145.758 174.503 146.447C174.799 146.279 175.122 146.185 175.475 146.164C175.83 146.145 176.198 146.227 176.578 146.411C177.726 146.965 178.016 147.855 177.449 149.08L175.756 152.586L174.861 152.154L176.528 148.701C176.709 148.327 176.758 148.007 176.676 147.74C176.595 147.471 176.353 147.239 175.95 147.044C175.618 146.884 175.294 146.851 174.978 146.945C174.664 147.036 174.408 147.24 174.211 147.558L172.534 151.031L171.635 150.597L173.29 147.167C173.658 146.406 173.469 145.846 172.724 145.487C172.137 145.203 171.615 145.259 171.158 145.655L169.313 149.476L168.418 149.044L170.945 143.81L171.791 144.219ZM180.341 154.8C180.339 154.672 180.386 154.468 180.481 154.188C179.857 154.419 179.256 154.396 178.679 154.117C178.163 153.868 177.809 153.518 177.617 153.068C177.43 152.615 177.444 152.165 177.661 151.717C177.924 151.172 178.334 150.849 178.892 150.749C179.454 150.646 180.111 150.777 180.862 151.139L181.733 151.56L181.931 151.149C182.082 150.836 182.108 150.542 182.01 150.268C181.913 149.991 181.683 149.764 181.319 149.588C180.999 149.434 180.693 149.386 180.399 149.443C180.105 149.499 179.903 149.642 179.792 149.871L178.893 149.437C179.019 149.176 179.232 148.969 179.533 148.816C179.838 148.661 180.183 148.589 180.567 148.599C180.955 148.612 181.339 148.71 181.72 148.893C182.323 149.184 182.722 149.564 182.917 150.032C183.114 150.497 183.092 150.997 182.849 151.532L181.686 153.941C181.454 154.421 181.331 154.833 181.317 155.176L181.279 155.253L180.341 154.8ZM179.185 153.401C179.466 153.537 179.767 153.593 180.088 153.569C180.41 153.545 180.683 153.445 180.908 153.267L181.427 152.193L180.725 151.855C179.629 151.325 178.926 151.381 178.616 152.023C178.481 152.304 178.468 152.568 178.579 152.816C178.69 153.065 178.892 153.26 179.185 153.401ZM183.47 156.311L182.576 155.879L185.102 150.646L185.997 151.078L183.47 156.311ZM185.7 149.223C185.77 149.078 185.873 148.976 186.008 148.918C186.147 148.862 186.303 148.876 186.477 148.96C186.651 149.044 186.759 149.158 186.801 149.301C186.843 149.445 186.829 149.589 186.759 149.734C186.689 149.879 186.586 149.978 186.449 150.031C186.312 150.085 186.156 150.069 185.982 149.985C185.808 149.901 185.699 149.789 185.655 149.648C185.615 149.51 185.63 149.368 185.7 149.223ZM188.28 152.18L187.992 152.852C188.634 152.542 189.278 152.543 189.923 152.854C191.029 153.388 191.286 154.281 190.693 155.534L189.023 158.992L188.128 158.56L189.8 155.097C189.979 154.718 190.027 154.397 189.943 154.134C189.863 153.873 189.643 153.655 189.285 153.483C188.995 153.343 188.703 153.297 188.409 153.346C188.115 153.395 187.846 153.515 187.602 153.708L185.802 157.437L184.907 157.005L187.434 151.771L188.28 152.18Z" fill="white"/>
<line x1="140.5" y1="141" x2="140.5" y2="329" stroke="#4000C7"/>
<path d="M131.358 108.604H131.766C132.021 108.6 132.223 108.532 132.369 108.401C132.516 108.271 132.589 108.094 132.589 107.871C132.589 107.371 132.34 107.121 131.842 107.121C131.607 107.121 131.42 107.188 131.279 107.323C131.141 107.456 131.071 107.633 131.071 107.854H130.529C130.529 107.516 130.652 107.235 130.898 107.013C131.146 106.788 131.461 106.676 131.842 106.676C132.244 106.676 132.56 106.782 132.788 106.995C133.017 107.208 133.131 107.504 133.131 107.883C133.131 108.068 133.07 108.248 132.949 108.422C132.83 108.596 132.667 108.726 132.46 108.812C132.694 108.886 132.875 109.009 133.002 109.181C133.131 109.353 133.195 109.562 133.195 109.811C133.195 110.193 133.07 110.497 132.82 110.722C132.57 110.946 132.245 111.059 131.845 111.059C131.444 111.059 131.118 110.95 130.866 110.733C130.616 110.517 130.491 110.23 130.491 109.875H131.036C131.036 110.1 131.109 110.279 131.256 110.414C131.402 110.549 131.599 110.616 131.845 110.616C132.106 110.616 132.307 110.548 132.445 110.411C132.584 110.274 132.653 110.078 132.653 109.822C132.653 109.574 132.577 109.384 132.425 109.251C132.272 109.118 132.053 109.05 131.766 109.046H131.358V108.604ZM135.311 111.059C134.881 111.059 134.531 110.918 134.262 110.637C133.992 110.354 133.857 109.976 133.857 109.503V109.403C133.857 109.089 133.917 108.809 134.036 108.562C134.157 108.314 134.325 108.121 134.54 107.982C134.757 107.842 134.991 107.771 135.243 107.771C135.655 107.771 135.976 107.907 136.204 108.179C136.433 108.45 136.547 108.839 136.547 109.345V109.57H134.399C134.407 109.883 134.498 110.136 134.672 110.329C134.848 110.521 135.07 110.616 135.34 110.616C135.531 110.616 135.693 110.577 135.826 110.499C135.959 110.421 136.075 110.317 136.175 110.188L136.506 110.446C136.24 110.854 135.842 111.059 135.311 111.059ZM135.243 108.217C135.024 108.217 134.841 108.297 134.692 108.457C134.544 108.615 134.452 108.838 134.417 109.125H136.005V109.084C135.989 108.809 135.915 108.596 135.782 108.445C135.649 108.293 135.47 108.217 135.243 108.217ZM137.443 111V108.249H136.942V107.83H137.443V107.505C137.443 107.165 137.534 106.902 137.716 106.717C137.897 106.531 138.154 106.438 138.486 106.438C138.611 106.438 138.735 106.455 138.858 106.488L138.829 106.928C138.737 106.91 138.64 106.901 138.536 106.901C138.36 106.901 138.225 106.953 138.129 107.057C138.033 107.158 137.985 107.305 137.985 107.496V107.83H138.662V108.249H137.985V111H137.443ZM139.063 109.389C139.063 108.895 139.178 108.502 139.406 108.211C139.635 107.918 139.938 107.771 140.314 107.771C140.701 107.771 141.003 107.908 141.22 108.182L141.246 107.83H141.741V110.924C141.741 111.334 141.619 111.657 141.375 111.894C141.133 112.13 140.807 112.248 140.396 112.248C140.168 112.248 139.944 112.199 139.726 112.102C139.507 112.004 139.34 111.87 139.225 111.7L139.506 111.375C139.738 111.662 140.022 111.806 140.358 111.806C140.622 111.806 140.827 111.731 140.974 111.583C141.122 111.435 141.196 111.226 141.196 110.956V110.684C140.979 110.934 140.684 111.059 140.309 111.059C139.938 111.059 139.637 110.909 139.406 110.61C139.178 110.312 139.063 109.904 139.063 109.389ZM139.608 109.45C139.608 109.808 139.682 110.089 139.828 110.294C139.975 110.497 140.18 110.599 140.443 110.599C140.785 110.599 141.036 110.443 141.196 110.133V108.686C141.03 108.383 140.781 108.231 140.449 108.231C140.186 108.231 139.979 108.334 139.831 108.539C139.683 108.744 139.608 109.048 139.608 109.45ZM144.519 111C144.487 110.938 144.462 110.826 144.442 110.666C144.19 110.928 143.89 111.059 143.54 111.059C143.228 111.059 142.971 110.971 142.77 110.795C142.57 110.617 142.471 110.393 142.471 110.121C142.471 109.791 142.596 109.535 142.846 109.354C143.098 109.17 143.451 109.078 143.906 109.078H144.434V108.829C144.434 108.64 144.377 108.489 144.264 108.378C144.15 108.265 143.983 108.208 143.763 108.208C143.569 108.208 143.407 108.257 143.276 108.354C143.146 108.452 143.08 108.57 143.08 108.709H142.535C142.535 108.551 142.591 108.398 142.702 108.252C142.815 108.104 142.968 107.986 143.159 107.9C143.353 107.814 143.564 107.771 143.795 107.771C144.16 107.771 144.446 107.863 144.653 108.047C144.86 108.229 144.968 108.479 144.976 108.8V110.259C144.976 110.55 145.013 110.781 145.087 110.953V111H144.519ZM143.619 110.587C143.789 110.587 143.95 110.543 144.103 110.455C144.255 110.367 144.365 110.253 144.434 110.112V109.462H144.009C143.345 109.462 143.013 109.656 143.013 110.045C143.013 110.215 143.069 110.348 143.183 110.443C143.296 110.539 143.441 110.587 143.619 110.587ZM148.509 109.45C148.509 109.935 148.397 110.324 148.175 110.619C147.952 110.912 147.653 111.059 147.278 111.059C146.878 111.059 146.568 110.917 146.35 110.634L146.323 111H145.825V106.5H146.367V108.179C146.586 107.907 146.888 107.771 147.272 107.771C147.657 107.771 147.959 107.917 148.178 108.208C148.398 108.499 148.509 108.897 148.509 109.403V109.45ZM147.967 109.389C147.967 109.02 147.896 108.734 147.753 108.533C147.61 108.332 147.405 108.231 147.138 108.231C146.78 108.231 146.523 108.397 146.367 108.729V110.101C146.533 110.433 146.792 110.599 147.144 110.599C147.403 110.599 147.605 110.498 147.75 110.297C147.895 110.096 147.967 109.793 147.967 109.389ZM123.888 118V115.249H123.387V114.83H123.888V114.561C123.888 114.207 123.988 113.932 124.189 113.734C124.393 113.537 124.679 113.438 125.048 113.438C125.267 113.438 125.543 113.498 125.877 113.617L125.786 114.074C125.542 113.977 125.31 113.928 125.089 113.928C124.856 113.928 124.688 113.98 124.585 114.086C124.483 114.189 124.433 114.346 124.433 114.555V114.83H125.08V115.249H124.433V118H123.888ZM126.146 118H125.602V114.83H126.146V118ZM128.561 115.316C128.479 115.303 128.39 115.296 128.294 115.296C127.938 115.296 127.697 115.447 127.57 115.75V118H127.028V114.83H127.556L127.564 115.196C127.742 114.913 127.994 114.771 128.32 114.771C128.426 114.771 128.506 114.785 128.561 114.812V115.316ZM130.907 117.159C130.907 117.013 130.852 116.899 130.74 116.819C130.631 116.737 130.438 116.667 130.163 116.608C129.89 116.55 129.672 116.479 129.51 116.397C129.35 116.315 129.23 116.218 129.152 116.104C129.076 115.991 129.038 115.856 129.038 115.7C129.038 115.44 129.147 115.221 129.366 115.041C129.587 114.861 129.868 114.771 130.21 114.771C130.569 114.771 130.86 114.864 131.083 115.05C131.308 115.235 131.42 115.473 131.42 115.762H130.875C130.875 115.613 130.812 115.485 130.685 115.378C130.56 115.271 130.401 115.217 130.21 115.217C130.013 115.217 129.858 115.26 129.747 115.346C129.636 115.432 129.58 115.544 129.58 115.683C129.58 115.813 129.632 115.912 129.735 115.979C129.839 116.045 130.025 116.108 130.295 116.169C130.566 116.229 130.786 116.302 130.954 116.386C131.122 116.47 131.246 116.571 131.326 116.69C131.408 116.808 131.449 116.951 131.449 117.121C131.449 117.404 131.336 117.632 131.109 117.804C130.883 117.974 130.589 118.059 130.228 118.059C129.974 118.059 129.749 118.014 129.554 117.924C129.358 117.834 129.205 117.709 129.094 117.549C128.984 117.387 128.93 117.212 128.93 117.024H129.472C129.481 117.206 129.554 117.351 129.688 117.458C129.825 117.563 130.005 117.616 130.228 117.616C130.433 117.616 130.597 117.575 130.72 117.493C130.845 117.409 130.907 117.298 130.907 117.159ZM132.891 114.062V114.83H133.482V115.249H132.891V117.215C132.891 117.342 132.917 117.438 132.97 117.502C133.022 117.564 133.112 117.596 133.239 117.596C133.302 117.596 133.388 117.584 133.497 117.561V118C133.354 118.039 133.216 118.059 133.081 118.059C132.839 118.059 132.656 117.985 132.533 117.839C132.41 117.692 132.349 117.484 132.349 117.215V115.249H131.771V114.83H132.349V114.062H132.891ZM136.878 117.616C137.071 117.616 137.24 117.558 137.385 117.44C137.529 117.323 137.609 117.177 137.625 117.001H138.138C138.128 117.183 138.065 117.355 137.95 117.52C137.835 117.684 137.681 117.814 137.487 117.912C137.296 118.01 137.093 118.059 136.878 118.059C136.446 118.059 136.103 117.915 135.847 117.628C135.593 117.339 135.466 116.944 135.466 116.444V116.354C135.466 116.045 135.522 115.771 135.636 115.53C135.749 115.29 135.911 115.104 136.122 114.971C136.335 114.838 136.586 114.771 136.875 114.771C137.23 114.771 137.525 114.878 137.76 115.091C137.996 115.304 138.122 115.58 138.138 115.92H137.625C137.609 115.715 137.531 115.547 137.391 115.416C137.252 115.283 137.08 115.217 136.875 115.217C136.6 115.217 136.386 115.316 136.233 115.516C136.083 115.713 136.008 115.999 136.008 116.374V116.477C136.008 116.842 136.083 117.123 136.233 117.32C136.384 117.518 136.599 117.616 136.878 117.616ZM138.604 116.386C138.604 116.075 138.664 115.796 138.785 115.548C138.908 115.3 139.078 115.108 139.295 114.974C139.514 114.839 139.763 114.771 140.042 114.771C140.474 114.771 140.822 114.921 141.088 115.22C141.355 115.519 141.489 115.916 141.489 116.412V116.45C141.489 116.759 141.43 117.036 141.311 117.282C141.193 117.526 141.024 117.717 140.804 117.854C140.585 117.99 140.333 118.059 140.048 118.059C139.618 118.059 139.27 117.909 139.002 117.61C138.736 117.312 138.604 116.916 138.604 116.424V116.386ZM139.148 116.45C139.148 116.802 139.229 117.084 139.392 117.297C139.556 117.51 139.774 117.616 140.048 117.616C140.323 117.616 140.542 117.509 140.704 117.294C140.866 117.077 140.947 116.774 140.947 116.386C140.947 116.038 140.864 115.757 140.698 115.542C140.534 115.325 140.315 115.217 140.042 115.217C139.774 115.217 139.559 115.323 139.395 115.536C139.23 115.749 139.148 116.054 139.148 116.45ZM142.679 114.83L142.693 115.182C142.926 114.908 143.239 114.771 143.634 114.771C144.077 114.771 144.379 114.941 144.539 115.281C144.645 115.129 144.781 115.006 144.949 114.912C145.119 114.818 145.319 114.771 145.55 114.771C146.245 114.771 146.599 115.14 146.61 115.876V118H146.068V115.908C146.068 115.682 146.017 115.513 145.913 115.401C145.81 115.288 145.636 115.231 145.392 115.231C145.19 115.231 145.023 115.292 144.891 115.413C144.758 115.532 144.681 115.693 144.659 115.896V118H144.114V115.923C144.114 115.462 143.889 115.231 143.438 115.231C143.082 115.231 142.839 115.383 142.708 115.686V118H142.166V114.83H142.679ZM147.94 114.83L147.955 115.182C148.188 114.908 148.501 114.771 148.896 114.771C149.339 114.771 149.641 114.941 149.801 115.281C149.906 115.129 150.043 115.006 150.211 114.912C150.381 114.818 150.581 114.771 150.812 114.771C151.507 114.771 151.86 115.14 151.872 115.876V118H151.33V115.908C151.33 115.682 151.278 115.513 151.175 115.401C151.071 115.288 150.897 115.231 150.653 115.231C150.452 115.231 150.285 115.292 150.152 115.413C150.02 115.532 149.942 115.693 149.921 115.896V118H149.376V115.923C149.376 115.462 149.15 115.231 148.699 115.231C148.344 115.231 148.101 115.383 147.97 115.686V118H147.428V114.83H147.94ZM153.281 118H152.739V114.83H153.281V118ZM152.695 113.989C152.695 113.901 152.722 113.827 152.774 113.767C152.829 113.706 152.909 113.676 153.015 113.676C153.12 113.676 153.2 113.706 153.255 113.767C153.31 113.827 153.337 113.901 153.337 113.989C153.337 114.077 153.31 114.15 153.255 114.209C153.2 114.268 153.12 114.297 153.015 114.297C152.909 114.297 152.829 114.268 152.774 114.209C152.722 114.15 152.695 114.077 152.695 113.989ZM154.887 114.062V114.83H155.479V115.249H154.887V117.215C154.887 117.342 154.913 117.438 154.966 117.502C155.019 117.564 155.108 117.596 155.235 117.596C155.298 117.596 155.384 117.584 155.493 117.561V118C155.351 118.039 155.212 118.059 155.077 118.059C154.835 118.059 154.652 117.985 154.529 117.839C154.406 117.692 154.345 117.484 154.345 117.215V115.249H153.768V114.83H154.345V114.062H154.887Z" fill="black"/>
</svg>
