<svg width="1152" height="587" viewBox="0 0 1152 587" fill="none" xmlns="http://www.w3.org/2000/svg">
<path d="M0 0H1152V587H0V0Z" fill="white" fill-opacity="0.01"/>
<circle cx="140.5" cy="334.5" r="9.5" fill="#4000C7"/>
<circle cx="140.5" cy="133.5" r="9.5" fill="#4000C7"/>
<rect x="158.031" y="351.209" width="18" height="41" rx="5" transform="rotate(-64.2277 158.031 351.209)" fill="black"/>
<rect x="158.031" y="150.209" width="18" height="41" rx="5" transform="rotate(-64.2277 158.031 150.209)" fill="black"/>
<path d="M154.739 339.602L163.675 340.07L160.662 346.309L154.739 339.602Z" fill="black"/>
<path d="M154.739 138.626L163.675 139.094L160.662 145.333L154.739 138.626Z" fill="black"/>
<path d="M171.791 345.219L171.535 345.811C172.137 345.545 172.764 345.569 173.415 345.884C174.147 346.237 174.51 346.758 174.503 347.447C174.799 347.279 175.122 347.185 175.475 347.164C175.83 347.145 176.198 347.227 176.578 347.411C177.726 347.965 178.016 348.855 177.449 350.08L175.756 353.586L174.861 353.154L176.528 349.701C176.709 349.327 176.758 349.007 176.676 348.74C176.595 348.471 176.353 348.239 175.95 348.044C175.618 347.884 175.294 347.851 174.978 347.945C174.664 348.036 174.408 348.24 174.211 348.558L172.534 352.031L171.635 351.597L173.29 348.167C173.658 347.406 173.469 346.846 172.724 346.487C172.137 346.203 171.615 346.259 171.158 346.655L169.313 350.476L168.418 350.044L170.945 344.81L171.791 345.219ZM180.341 355.8C180.339 355.672 180.386 355.468 180.481 355.188C179.857 355.419 179.256 355.396 178.679 355.117C178.163 354.868 177.809 354.518 177.617 354.068C177.43 353.615 177.444 353.165 177.661 352.717C177.924 352.172 178.334 351.849 178.892 351.749C179.454 351.646 180.111 351.777 180.862 352.139L181.733 352.56L181.931 352.149C182.082 351.836 182.108 351.542 182.01 351.268C181.913 350.991 181.683 350.764 181.319 350.588C180.999 350.434 180.693 350.386 180.399 350.443C180.105 350.499 179.903 350.642 179.792 350.871L178.893 350.437C179.019 350.176 179.232 349.969 179.533 349.816C179.838 349.661 180.183 349.589 180.567 349.599C180.955 349.612 181.339 349.71 181.72 349.893C182.323 350.184 182.722 350.564 182.917 351.032C183.114 351.497 183.092 351.997 182.849 352.532L181.686 354.941C181.454 355.421 181.331 355.833 181.317 356.176L181.279 356.253L180.341 355.8ZM179.185 354.401C179.466 354.537 179.767 354.593 180.088 354.569C180.41 354.545 180.683 354.445 180.908 354.267L181.427 353.193L180.725 352.855C179.629 352.325 178.926 352.381 178.616 353.023C178.481 353.304 178.468 353.568 178.579 353.816C178.69 354.065 178.892 354.26 179.185 354.401ZM183.47 357.311L182.576 356.879L185.102 351.646L185.997 352.078L183.47 357.311ZM185.7 350.223C185.77 350.078 185.873 349.976 186.008 349.918C186.147 349.862 186.303 349.876 186.477 349.96C186.651 350.044 186.759 350.158 186.801 350.301C186.843 350.445 186.829 350.589 186.759 350.734C186.689 350.879 186.586 350.978 186.449 351.031C186.312 351.085 186.156 351.069 185.982 350.985C185.808 350.901 185.699 350.789 185.655 350.648C185.615 350.51 185.63 350.368 185.7 350.223ZM188.28 353.18L187.992 353.852C188.634 353.542 189.278 353.543 189.923 353.854C191.029 354.388 191.286 355.281 190.693 356.534L189.023 359.992L188.128 359.56L189.8 356.097C189.979 355.718 190.027 355.397 189.943 355.134C189.863 354.873 189.643 354.655 189.285 354.483C188.995 354.343 188.703 354.297 188.409 354.346C188.115 354.395 187.846 354.515 187.602 354.708L185.802 358.437L184.907 358.005L187.434 352.771L188.28 353.18Z" fill="white"/>
<path d="M171.791 144.219L171.535 144.811C172.137 144.545 172.764 144.569 173.415 144.884C174.147 145.237 174.51 145.758 174.503 146.447C174.799 146.279 175.122 146.185 175.475 146.164C175.83 146.145 176.198 146.227 176.578 146.411C177.726 146.965 178.016 147.855 177.449 149.08L175.756 152.586L174.861 152.154L176.528 148.701C176.709 148.327 176.758 148.007 176.676 147.74C176.595 147.471 176.353 147.239 175.95 147.044C175.618 146.884 175.294 146.851 174.978 146.945C174.664 147.036 174.408 147.24 174.211 147.558L172.534 151.031L171.635 150.597L173.29 147.167C173.658 146.406 173.469 145.846 172.724 145.487C172.137 145.203 171.615 145.259 171.158 145.655L169.313 149.476L168.418 149.044L170.945 143.81L171.791 144.219ZM180.341 154.8C180.339 154.672 180.386 154.468 180.481 154.188C179.857 154.419 179.256 154.396 178.679 154.117C178.163 153.868 177.809 153.518 177.617 153.068C177.43 152.615 177.444 152.165 177.661 151.717C177.924 151.172 178.334 150.849 178.892 150.749C179.454 150.646 180.111 150.777 180.862 151.139L181.733 151.56L181.931 151.149C182.082 150.836 182.108 150.542 182.01 150.268C181.913 149.991 181.683 149.764 181.319 149.588C180.999 149.434 180.693 149.386 180.399 149.443C180.105 149.499 179.903 149.642 179.792 149.871L178.893 149.437C179.019 149.176 179.232 148.969 179.533 148.816C179.838 148.661 180.183 148.589 180.567 148.599C180.955 148.612 181.339 148.71 181.72 148.893C182.323 149.184 182.722 149.564 182.917 150.032C183.114 150.497 183.092 150.997 182.849 151.532L181.686 153.941C181.454 154.421 181.331 154.833 181.317 155.176L181.279 155.253L180.341 154.8ZM179.185 153.401C179.466 153.537 179.767 153.593 180.088 153.569C180.41 153.545 180.683 153.445 180.908 153.267L181.427 152.193L180.725 151.855C179.629 151.325 178.926 151.381 178.616 152.023C178.481 152.304 178.468 152.568 178.579 152.816C178.69 153.065 178.892 153.26 179.185 153.401ZM183.47 156.311L182.576 155.879L185.102 150.646L185.997 151.078L183.47 156.311ZM185.7 149.223C185.77 149.078 185.873 148.976 186.008 148.918C186.147 148.862 186.303 148.876 186.477 148.96C186.651 149.044 186.759 149.158 186.801 149.301C186.843 149.445 186.829 149.589 186.759 149.734C186.689 149.879 186.586 149.978 186.449 150.031C186.312 150.085 186.156 150.069 185.982 149.985C185.808 149.901 185.699 149.789 185.655 149.648C185.615 149.51 185.63 149.368 185.7 149.223ZM188.28 152.18L187.992 152.852C188.634 152.542 189.278 152.543 189.923 152.854C191.029 153.388 191.286 154.281 190.693 155.534L189.023 158.992L188.128 158.56L189.8 155.097C189.979 154.718 190.027 154.397 189.943 154.134C189.863 153.873 189.643 153.655 189.285 153.483C188.995 153.343 188.703 153.297 188.409 153.346C188.115 153.395 187.846 153.515 187.602 153.708L185.802 157.437L184.907 157.005L187.434 151.771L188.28 152.18Z" fill="white"/>
<line x1="140.5" y1="141" x2="140.5" y2="329" stroke="#4000C7"/>
<path d="M131.358 108.604H131.766C132.021 108.6 132.223 108.532 132.369 108.401C132.516 108.271 132.589 108.094 132.589 107.871C132.589 107.371 132.34 107.121 131.842 107.121C131.607 107.121 131.42 107.188 131.279 107.323C131.141 107.456 131.071 107.633 131.071 107.854H130.529C130.529 107.516 130.652 107.235 130.898 107.013C131.146 106.788 131.461 106.676 131.842 106.676C132.244 106.676 132.56 106.782 132.788 106.995C133.017 107.208 133.131 107.504 133.131 107.883C133.131 108.068 133.07 108.248 132.949 108.422C132.83 108.596 132.667 108.726 132.46 108.812C132.694 108.886 132.875 109.009 133.002 109.181C133.131 109.353 133.195 109.562 133.195 109.811C133.195 110.193 133.07 110.497 132.82 110.722C132.57 110.946 132.245 111.059 131.845 111.059C131.444 111.059 131.118 110.95 130.866 110.733C130.616 110.517 130.491 110.23 130.491 109.875H131.036C131.036 110.1 131.109 110.279 131.256 110.414C131.402 110.549 131.599 110.616 131.845 110.616C132.106 110.616 132.307 110.548 132.445 110.411C132.584 110.274 132.653 110.078 132.653 109.822C132.653 109.574 132.577 109.384 132.425 109.251C132.272 109.118 132.053 109.05 131.766 109.046H131.358V108.604ZM135.311 111.059C134.881 111.059 134.531 110.918 134.262 110.637C133.992 110.354 133.857 109.976 133.857 109.503V109.403C133.857 109.089 133.917 108.809 134.036 108.562C134.157 108.314 134.325 108.121 134.54 107.982C134.757 107.842 134.991 107.771 135.243 107.771C135.655 107.771 135.976 107.907 136.204 108.179C136.433 108.45 136.547 108.839 136.547 109.345V109.57H134.399C134.407 109.883 134.498 110.136 134.672 110.329C134.848 110.521 135.07 110.616 135.34 110.616C135.531 110.616 135.693 110.577 135.826 110.499C135.959 110.421 136.075 110.317 136.175 110.188L136.506 110.446C136.24 110.854 135.842 111.059 135.311 111.059ZM135.243 108.217C135.024 108.217 134.841 108.297 134.692 108.457C134.544 108.615 134.452 108.838 134.417 109.125H136.005V109.084C135.989 108.809 135.915 108.596 135.782 108.445C135.649 108.293 135.47 108.217 135.243 108.217ZM137.443 111V108.249H136.942V107.83H137.443V107.505C137.443 107.165 137.534 106.902 137.716 106.717C137.897 106.531 138.154 106.438 138.486 106.438C138.611 106.438 138.735 106.455 138.858 106.488L138.829 106.928C138.737 106.91 138.64 106.901 138.536 106.901C138.36 106.901 138.225 106.953 138.129 107.057C138.033 107.158 137.985 107.305 137.985 107.496V107.83H138.662V108.249H137.985V111H137.443ZM139.063 109.389C139.063 108.895 139.178 108.502 139.406 108.211C139.635 107.918 139.938 107.771 140.314 107.771C140.701 107.771 141.003 107.908 141.22 108.182L141.246 107.83H141.741V110.924C141.741 111.334 141.619 111.657 141.375 111.894C141.133 112.13 140.807 112.248 140.396 112.248C140.168 112.248 139.944 112.199 139.726 112.102C139.507 112.004 139.34 111.87 139.225 111.7L139.506 111.375C139.738 111.662 140.022 111.806 140.358 111.806C140.622 111.806 140.827 111.731 140.974 111.583C141.122 111.435 141.196 111.226 141.196 110.956V110.684C140.979 110.934 140.684 111.059 140.309 111.059C139.938 111.059 139.637 110.909 139.406 110.61C139.178 110.312 139.063 109.904 139.063 109.389ZM139.608 109.45C139.608 109.808 139.682 110.089 139.828 110.294C139.975 110.497 140.18 110.599 140.443 110.599C140.785 110.599 141.036 110.443 141.196 110.133V108.686C141.03 108.383 140.781 108.231 140.449 108.231C140.186 108.231 139.979 108.334 139.831 108.539C139.683 108.744 139.608 109.048 139.608 109.45ZM144.519 111C144.487 110.938 144.462 110.826 144.442 110.666C144.19 110.928 143.89 111.059 143.54 111.059C143.228 111.059 142.971 110.971 142.77 110.795C142.57 110.617 142.471 110.393 142.471 110.121C142.471 109.791 142.596 109.535 142.846 109.354C143.098 109.17 143.451 109.078 143.906 109.078H144.434V108.829C144.434 108.64 144.377 108.489 144.264 108.378C144.15 108.265 143.983 108.208 143.763 108.208C143.569 108.208 143.407 108.257 143.276 108.354C143.146 108.452 143.08 108.57 143.08 108.709H142.535C142.535 108.551 142.591 108.398 142.702 108.252C142.815 108.104 142.968 107.986 143.159 107.9C143.353 107.814 143.564 107.771 143.795 107.771C144.16 107.771 144.446 107.863 144.653 108.047C144.86 108.229 144.968 108.479 144.976 108.8V110.259C144.976 110.55 145.013 110.781 145.087 110.953V111H144.519ZM143.619 110.587C143.789 110.587 143.95 110.543 144.103 110.455C144.255 110.367 144.365 110.253 144.434 110.112V109.462H144.009C143.345 109.462 143.013 109.656 143.013 110.045C143.013 110.215 143.069 110.348 143.183 110.443C143.296 110.539 143.441 110.587 143.619 110.587ZM148.509 109.45C148.509 109.935 148.397 110.324 148.175 110.619C147.952 110.912 147.653 111.059 147.278 111.059C146.878 111.059 146.568 110.917 146.35 110.634L146.323 111H145.825V106.5H146.367V108.179C146.586 107.907 146.888 107.771 147.272 107.771C147.657 107.771 147.959 107.917 148.178 108.208C148.398 108.499 148.509 108.897 148.509 109.403V109.45ZM147.967 109.389C147.967 109.02 147.896 108.734 147.753 108.533C147.61 108.332 147.405 108.231 147.138 108.231C146.78 108.231 146.523 108.397 146.367 108.729V110.101C146.533 110.433 146.792 110.599 147.144 110.599C147.403 110.599 147.605 110.498 147.75 110.297C147.895 110.096 147.967 109.793 147.967 109.389ZM123.888 118V115.249H123.387V114.83H123.888V114.561C123.888 114.207 123.988 113.932 124.189 113.734C124.393 113.537 124.679 113.438 125.048 113.438C125.267 113.438 125.543 113.498 125.877 113.617L125.786 114.074C125.542 113.977 125.31 113.928 125.089 113.928C124.856 113.928 124.688 113.98 124.585 114.086C124.483 114.189 124.433 114.346 124.433 114.555V114.83H125.08V115.249H124.433V118H123.888ZM126.146 118H125.602V114.83H126.146V118ZM128.561 115.316C128.479 115.303 128.39 115.296 128.294 115.296C127.938 115.296 127.697 115.447 127.57 115.75V118H127.028V114.83H127.556L127.564 115.196C127.742 114.913 127.994 114.771 128.32 114.771C128.426 114.771 128.506 114.785 128.561 114.812V115.316ZM130.907 117.159C130.907 117.013 130.852 116.899 130.74 116.819C130.631 116.737 130.438 116.667 130.163 116.608C129.89 116.55 129.672 116.479 129.51 116.397C129.35 116.315 129.23 116.218 129.152 116.104C129.076 115.991 129.038 115.856 129.038 115.7C129.038 115.44 129.147 115.221 129.366 115.041C129.587 114.861 129.868 114.771 130.21 114.771C130.569 114.771 130.86 114.864 131.083 115.05C131.308 115.235 131.42 115.473 131.42 115.762H130.875C130.875 115.613 130.812 115.485 130.685 115.378C130.56 115.271 130.401 115.217 130.21 115.217C130.013 115.217 129.858 115.26 129.747 115.346C129.636 115.432 129.58 115.544 129.58 115.683C129.58 115.813 129.632 115.912 129.735 115.979C129.839 116.045 130.025 116.108 130.295 116.169C130.566 116.229 130.786 116.302 130.954 116.386C131.122 116.47 131.246 116.571 131.326 116.69C131.408 116.808 131.449 116.951 131.449 117.121C131.449 117.404 131.336 117.632 131.109 117.804C130.883 117.974 130.589 118.059 130.228 118.059C129.974 118.059 129.749 118.014 129.554 117.924C129.358 117.834 129.205 117.709 129.094 117.549C128.984 117.387 128.93 117.212 128.93 117.024H129.472C129.481 117.206 129.554 117.351 129.688 117.458C129.825 117.563 130.005 117.616 130.228 117.616C130.433 117.616 130.597 117.575 130.72 117.493C130.845 117.409 130.907 117.298 130.907 117.159ZM132.891 114.062V114.83H133.482V115.249H132.891V117.215C132.891 117.342 132.917 117.438 132.97 117.502C133.022 117.564 133.112 117.596 133.239 117.596C133.302 117.596 133.388 117.584 133.497 117.561V118C133.354 118.039 133.216 118.059 133.081 118.059C132.839 118.059 132.656 117.985 132.533 117.839C132.41 117.692 132.349 117.484 132.349 117.215V115.249H131.771V114.83H132.349V114.062H132.891ZM136.878 117.616C137.071 117.616 137.24 117.558 137.385 117.44C137.529 117.323 137.609 117.177 137.625 117.001H138.138C138.128 117.183 138.065 117.355 137.95 117.52C137.835 117.684 137.681 117.814 137.487 117.912C137.296 118.01 137.093 118.059 136.878 118.059C136.446 118.059 136.103 117.915 135.847 117.628C135.593 117.339 135.466 116.944 135.466 116.444V116.354C135.466 116.045 135.522 115.771 135.636 115.53C135.749 115.29 135.911 115.104 136.122 114.971C136.335 114.838 136.586 114.771 136.875 114.771C137.23 114.771 137.525 114.878 137.76 115.091C137.996 115.304 138.122 115.58 138.138 115.92H137.625C137.609 115.715 137.531 115.547 137.391 115.416C137.252 115.283 137.08 115.217 136.875 115.217C136.6 115.217 136.386 115.316 136.233 115.516C136.083 115.713 136.008 115.999 136.008 116.374V116.477C136.008 116.842 136.083 117.123 136.233 117.32C136.384 117.518 136.599 117.616 136.878 117.616ZM138.604 116.386C138.604 116.075 138.664 115.796 138.785 115.548C138.908 115.3 139.078 115.108 139.295 114.974C139.514 114.839 139.763 114.771 140.042 114.771C140.474 114.771 140.822 114.921 141.088 115.22C141.355 115.519 141.489 115.916 141.489 116.412V116.45C141.489 116.759 141.43 117.036 141.311 117.282C141.193 117.526 141.024 117.717 140.804 117.854C140.585 117.99 140.333 118.059 140.048 118.059C139.618 118.059 139.27 117.909 139.002 117.61C138.736 117.312 138.604 116.916 138.604 116.424V116.386ZM139.148 116.45C139.148 116.802 139.229 117.084 139.392 117.297C139.556 117.51 139.774 117.616 140.048 117.616C140.323 117.616 140.542 117.509 140.704 117.294C140.866 117.077 140.947 116.774 140.947 116.386C140.947 116.038 140.864 115.757 140.698 115.542C140.534 115.325 140.315 115.217 140.042 115.217C139.774 115.217 139.559 115.323 139.395 115.536C139.23 115.749 139.148 116.054 139.148 116.45ZM142.679 114.83L142.693 115.182C142.926 114.908 143.239 114.771 143.634 114.771C144.077 114.771 144.379 114.941 144.539 115.281C144.645 115.129 144.781 115.006 144.949 114.912C145.119 114.818 145.319 114.771 145.55 114.771C146.245 114.771 146.599 115.14 146.61 115.876V118H146.068V115.908C146.068 115.682 146.017 115.513 145.913 115.401C145.81 115.288 145.636 115.231 145.392 115.231C145.19 115.231 145.023 115.292 144.891 115.413C144.758 115.532 144.681 115.693 144.659 115.896V118H144.114V115.923C144.114 115.462 143.889 115.231 143.438 115.231C143.082 115.231 142.839 115.383 142.708 115.686V118H142.166V114.83H142.679ZM147.94 114.83L147.955 115.182C148.188 114.908 148.501 114.771 148.896 114.771C149.339 114.771 149.641 114.941 149.801 115.281C149.906 115.129 150.043 115.006 150.211 114.912C150.381 114.818 150.581 114.771 150.812 114.771C151.507 114.771 151.86 115.14 151.872 115.876V118H151.33V115.908C151.33 115.682 151.278 115.513 151.175 115.401C151.071 115.288 150.897 115.231 150.653 115.231C150.452 115.231 150.285 115.292 150.152 115.413C150.02 115.532 149.942 115.693 149.921 115.896V118H149.376V115.923C149.376 115.462 149.15 115.231 148.699 115.231C148.344 115.231 148.101 115.383 147.97 115.686V118H147.428V114.83H147.94ZM153.281 118H152.739V114.83H153.281V118ZM152.695 113.989C152.695 113.901 152.722 113.827 152.774 113.767C152.829 113.706 152.909 113.676 153.015 113.676C153.12 113.676 153.2 113.706 153.255 113.767C153.31 113.827 153.337 113.901 153.337 113.989C153.337 114.077 153.31 114.15 153.255 114.209C153.2 114.268 153.12 114.297 153.015 114.297C152.909 114.297 152.829 114.268 152.774 114.209C152.722 114.15 152.695 114.077 152.695 113.989ZM154.887 114.062V114.83H155.479V115.249H154.887V117.215C154.887 117.342 154.913 117.438 154.966 117.502C155.019 117.564 155.108 117.596 155.235 117.596C155.298 117.596 155.384 117.584 155.493 117.561V118C155.351 118.039 155.212 118.059 155.077 118.059C154.835 118.059 154.652 117.985 154.529 117.839C154.406 117.692 154.345 117.484 154.345 117.215V115.249H153.768V114.83H154.345V114.062H154.887Z" fill="black"/>
<path d="M133.358 309.604H133.766C134.021 309.6 134.223 309.532 134.369 309.401C134.516 309.271 134.589 309.094 134.589 308.871C134.589 308.371 134.34 308.121 133.842 308.121C133.607 308.121 133.42 308.188 133.279 308.323C133.141 308.456 133.071 308.633 133.071 308.854H132.529C132.529 308.516 132.652 308.235 132.898 308.013C133.146 307.788 133.461 307.676 133.842 307.676C134.244 307.676 134.56 307.782 134.788 307.995C135.017 308.208 135.131 308.504 135.131 308.883C135.131 309.068 135.07 309.248 134.949 309.422C134.83 309.596 134.667 309.726 134.46 309.812C134.694 309.886 134.875 310.009 135.002 310.181C135.131 310.353 135.195 310.562 135.195 310.811C135.195 311.193 135.07 311.497 134.82 311.722C134.57 311.946 134.245 312.059 133.845 312.059C133.444 312.059 133.118 311.95 132.866 311.733C132.616 311.517 132.491 311.23 132.491 310.875H133.036C133.036 311.1 133.109 311.279 133.256 311.414C133.402 311.549 133.599 311.616 133.845 311.616C134.106 311.616 134.307 311.548 134.445 311.411C134.584 311.274 134.653 311.078 134.653 310.822C134.653 310.574 134.577 310.384 134.425 310.251C134.272 310.118 134.053 310.05 133.766 310.046H133.358V309.604ZM137.311 312.059C136.881 312.059 136.531 311.918 136.262 311.637C135.992 311.354 135.857 310.976 135.857 310.503V310.403C135.857 310.089 135.917 309.809 136.036 309.562C136.157 309.314 136.325 309.121 136.54 308.982C136.757 308.842 136.991 308.771 137.243 308.771C137.655 308.771 137.976 308.907 138.204 309.179C138.433 309.45 138.547 309.839 138.547 310.345V310.57H136.399C136.407 310.883 136.498 311.136 136.672 311.329C136.848 311.521 137.07 311.616 137.34 311.616C137.531 311.616 137.693 311.577 137.826 311.499C137.959 311.421 138.075 311.317 138.175 311.188L138.506 311.446C138.24 311.854 137.842 312.059 137.311 312.059ZM137.243 309.217C137.024 309.217 136.841 309.297 136.692 309.457C136.544 309.615 136.452 309.838 136.417 310.125H138.005V310.084C137.989 309.809 137.915 309.596 137.782 309.445C137.649 309.293 137.47 309.217 137.243 309.217ZM139.443 312V309.249H138.942V308.83H139.443V308.505C139.443 308.165 139.534 307.902 139.716 307.717C139.897 307.531 140.154 307.438 140.486 307.438C140.611 307.438 140.735 307.455 140.858 307.488L140.829 307.928C140.737 307.91 140.64 307.901 140.536 307.901C140.36 307.901 140.225 307.953 140.129 308.057C140.033 308.158 139.985 308.305 139.985 308.496V308.83H140.662V309.249H139.985V312H139.443ZM141.063 310.389C141.063 309.895 141.178 309.502 141.406 309.211C141.635 308.918 141.938 308.771 142.314 308.771C142.701 308.771 143.003 308.908 143.22 309.182L143.246 308.83H143.741V311.924C143.741 312.334 143.619 312.657 143.375 312.894C143.133 313.13 142.807 313.248 142.396 313.248C142.168 313.248 141.944 313.199 141.726 313.102C141.507 313.004 141.34 312.87 141.225 312.7L141.506 312.375C141.738 312.662 142.022 312.806 142.358 312.806C142.622 312.806 142.827 312.731 142.974 312.583C143.122 312.435 143.196 312.226 143.196 311.956V311.684C142.979 311.934 142.684 312.059 142.309 312.059C141.938 312.059 141.637 311.909 141.406 311.61C141.178 311.312 141.063 310.904 141.063 310.389ZM141.608 310.45C141.608 310.808 141.682 311.089 141.828 311.294C141.975 311.497 142.18 311.599 142.443 311.599C142.785 311.599 143.036 311.443 143.196 311.133V309.686C143.03 309.383 142.781 309.231 142.449 309.231C142.186 309.231 141.979 309.334 141.831 309.539C141.683 309.744 141.608 310.048 141.608 310.45ZM146.519 312C146.487 311.938 146.462 311.826 146.442 311.666C146.19 311.928 145.89 312.059 145.54 312.059C145.228 312.059 144.971 311.971 144.77 311.795C144.57 311.617 144.471 311.393 144.471 311.121C144.471 310.791 144.596 310.535 144.846 310.354C145.098 310.17 145.451 310.078 145.906 310.078H146.434V309.829C146.434 309.64 146.377 309.489 146.264 309.378C146.15 309.265 145.983 309.208 145.763 309.208C145.569 309.208 145.407 309.257 145.276 309.354C145.146 309.452 145.08 309.57 145.08 309.709H144.535C144.535 309.551 144.591 309.398 144.702 309.252C144.815 309.104 144.968 308.986 145.159 308.9C145.353 308.814 145.564 308.771 145.795 308.771C146.16 308.771 146.446 308.863 146.653 309.047C146.86 309.229 146.968 309.479 146.976 309.8V311.259C146.976 311.55 147.013 311.781 147.087 311.953V312H146.519ZM145.619 311.587C145.789 311.587 145.95 311.543 146.103 311.455C146.255 311.367 146.365 311.253 146.434 311.112V310.462H146.009C145.345 310.462 145.013 310.656 145.013 311.045C145.013 311.215 145.069 311.348 145.183 311.443C145.296 311.539 145.441 311.587 145.619 311.587ZM150.509 310.45C150.509 310.935 150.397 311.324 150.175 311.619C149.952 311.912 149.653 312.059 149.278 312.059C148.878 312.059 148.568 311.917 148.35 311.634L148.323 312H147.825V307.5H148.367V309.179C148.586 308.907 148.888 308.771 149.272 308.771C149.657 308.771 149.959 308.917 150.178 309.208C150.398 309.499 150.509 309.897 150.509 310.403V310.45ZM149.967 310.389C149.967 310.02 149.896 309.734 149.753 309.533C149.61 309.332 149.405 309.231 149.138 309.231C148.78 309.231 148.523 309.397 148.367 309.729V311.101C148.533 311.433 148.792 311.599 149.144 311.599C149.403 311.599 149.605 311.498 149.75 311.297C149.895 311.096 149.967 310.793 149.967 310.389ZM125.888 319V316.249H125.387V315.83H125.888V315.561C125.888 315.207 125.988 314.932 126.189 314.734C126.393 314.537 126.679 314.438 127.048 314.438C127.267 314.438 127.543 314.498 127.877 314.617L127.786 315.074C127.542 314.977 127.31 314.928 127.089 314.928C126.856 314.928 126.688 314.98 126.585 315.086C126.483 315.189 126.433 315.346 126.433 315.555V315.83H127.08V316.249H126.433V319H125.888ZM128.146 319H127.602V315.83H128.146V319ZM130.561 316.316C130.479 316.303 130.39 316.296 130.294 316.296C129.938 316.296 129.697 316.447 129.57 316.75V319H129.028V315.83H129.556L129.564 316.196C129.742 315.913 129.994 315.771 130.32 315.771C130.426 315.771 130.506 315.785 130.561 315.812V316.316ZM132.907 318.159C132.907 318.013 132.852 317.899 132.74 317.819C132.631 317.737 132.438 317.667 132.163 317.608C131.89 317.55 131.672 317.479 131.51 317.397C131.35 317.315 131.23 317.218 131.152 317.104C131.076 316.991 131.038 316.856 131.038 316.7C131.038 316.44 131.147 316.221 131.366 316.041C131.587 315.861 131.868 315.771 132.21 315.771C132.569 315.771 132.86 315.864 133.083 316.05C133.308 316.235 133.42 316.473 133.42 316.762H132.875C132.875 316.613 132.812 316.485 132.685 316.378C132.56 316.271 132.401 316.217 132.21 316.217C132.013 316.217 131.858 316.26 131.747 316.346C131.636 316.432 131.58 316.544 131.58 316.683C131.58 316.813 131.632 316.912 131.735 316.979C131.839 317.045 132.025 317.108 132.295 317.169C132.566 317.229 132.786 317.302 132.954 317.386C133.122 317.47 133.246 317.571 133.326 317.69C133.408 317.808 133.449 317.951 133.449 318.121C133.449 318.404 133.336 318.632 133.109 318.804C132.883 318.974 132.589 319.059 132.228 319.059C131.974 319.059 131.749 319.014 131.554 318.924C131.358 318.834 131.205 318.709 131.094 318.549C130.984 318.387 130.93 318.212 130.93 318.024H131.472C131.481 318.206 131.554 318.351 131.688 318.458C131.825 318.563 132.005 318.616 132.228 318.616C132.433 318.616 132.597 318.575 132.72 318.493C132.845 318.409 132.907 318.298 132.907 318.159ZM134.891 315.062V315.83H135.482V316.249H134.891V318.215C134.891 318.342 134.917 318.438 134.97 318.502C135.022 318.564 135.112 318.596 135.239 318.596C135.302 318.596 135.388 318.584 135.497 318.561V319C135.354 319.039 135.216 319.059 135.081 319.059C134.839 319.059 134.656 318.985 134.533 318.839C134.41 318.692 134.349 318.484 134.349 318.215V316.249H133.771V315.83H134.349V315.062H134.891ZM138.878 318.616C139.071 318.616 139.24 318.558 139.385 318.44C139.529 318.323 139.609 318.177 139.625 318.001H140.138C140.128 318.183 140.065 318.355 139.95 318.52C139.835 318.684 139.681 318.814 139.487 318.912C139.296 319.01 139.093 319.059 138.878 319.059C138.446 319.059 138.103 318.915 137.847 318.628C137.593 318.339 137.466 317.944 137.466 317.444V317.354C137.466 317.045 137.522 316.771 137.636 316.53C137.749 316.29 137.911 316.104 138.122 315.971C138.335 315.838 138.586 315.771 138.875 315.771C139.23 315.771 139.525 315.878 139.76 316.091C139.996 316.304 140.122 316.58 140.138 316.92H139.625C139.609 316.715 139.531 316.547 139.391 316.416C139.252 316.283 139.08 316.217 138.875 316.217C138.6 316.217 138.386 316.316 138.233 316.516C138.083 316.713 138.008 316.999 138.008 317.374V317.477C138.008 317.842 138.083 318.123 138.233 318.32C138.384 318.518 138.599 318.616 138.878 318.616ZM140.604 317.386C140.604 317.075 140.664 316.796 140.785 316.548C140.908 316.3 141.078 316.108 141.295 315.974C141.514 315.839 141.763 315.771 142.042 315.771C142.474 315.771 142.822 315.921 143.088 316.22C143.355 316.519 143.489 316.916 143.489 317.412V317.45C143.489 317.759 143.43 318.036 143.311 318.282C143.193 318.526 143.024 318.717 142.804 318.854C142.585 318.99 142.333 319.059 142.048 319.059C141.618 319.059 141.27 318.909 141.002 318.61C140.736 318.312 140.604 317.916 140.604 317.424V317.386ZM141.148 317.45C141.148 317.802 141.229 318.084 141.392 318.297C141.556 318.51 141.774 318.616 142.048 318.616C142.323 318.616 142.542 318.509 142.704 318.294C142.866 318.077 142.947 317.774 142.947 317.386C142.947 317.038 142.864 316.757 142.698 316.542C142.534 316.325 142.315 316.217 142.042 316.217C141.774 316.217 141.559 316.323 141.395 316.536C141.23 316.749 141.148 317.054 141.148 317.45ZM144.679 315.83L144.693 316.182C144.926 315.908 145.239 315.771 145.634 315.771C146.077 315.771 146.379 315.941 146.539 316.281C146.645 316.129 146.781 316.006 146.949 315.912C147.119 315.818 147.319 315.771 147.55 315.771C148.245 315.771 148.599 316.14 148.61 316.876V319H148.068V316.908C148.068 316.682 148.017 316.513 147.913 316.401C147.81 316.288 147.636 316.231 147.392 316.231C147.19 316.231 147.023 316.292 146.891 316.413C146.758 316.532 146.681 316.693 146.659 316.896V319H146.114V316.923C146.114 316.462 145.889 316.231 145.438 316.231C145.082 316.231 144.839 316.383 144.708 316.686V319H144.166V315.83H144.679ZM149.94 315.83L149.955 316.182C150.188 315.908 150.501 315.771 150.896 315.771C151.339 315.771 151.641 315.941 151.801 316.281C151.906 316.129 152.043 316.006 152.211 315.912C152.381 315.818 152.581 315.771 152.812 315.771C153.507 315.771 153.86 316.14 153.872 316.876V319H153.33V316.908C153.33 316.682 153.278 316.513 153.175 316.401C153.071 316.288 152.897 316.231 152.653 316.231C152.452 316.231 152.285 316.292 152.152 316.413C152.02 316.532 151.942 316.693 151.921 316.896V319H151.376V316.923C151.376 316.462 151.15 316.231 150.699 316.231C150.344 316.231 150.101 316.383 149.97 316.686V319H149.428V315.83H149.94ZM155.281 319H154.739V315.83H155.281V319ZM154.695 314.989C154.695 314.901 154.722 314.827 154.774 314.767C154.829 314.706 154.909 314.676 155.015 314.676C155.12 314.676 155.2 314.706 155.255 314.767C155.31 314.827 155.337 314.901 155.337 314.989C155.337 315.077 155.31 315.15 155.255 315.209C155.2 315.268 155.12 315.297 155.015 315.297C154.909 315.297 154.829 315.268 154.774 315.209C154.722 315.15 154.695 315.077 154.695 314.989ZM156.887 315.062V315.83H157.479V316.249H156.887V318.215C156.887 318.342 156.913 318.438 156.966 318.502C157.019 318.564 157.108 318.596 157.235 318.596C157.298 318.596 157.384 318.584 157.493 318.561V319C157.351 319.039 157.212 319.059 157.077 319.059C156.835 319.059 156.652 318.985 156.529 318.839C156.406 318.692 156.345 318.484 156.345 318.215V316.249H155.768V315.83H156.345V315.062H156.887Z" fill="black"/>
</svg>
