<svg width="1152" height="587" viewBox="0 0 1152 587" fill="none" xmlns="http://www.w3.org/2000/svg">
<path d="M0 0H1152V587H0V0Z" fill="white" fill-opacity="0.01"/>
<rect x="319.031" y="150.209" width="18" height="41" rx="5" transform="rotate(-64.2277 319.031 150.209)" fill="black"/>
<path d="M315.739 138.626L324.675 139.094L321.662 145.333L315.739 138.626Z" fill="black"/>
<path d="M332.791 144.219L332.535 144.811C333.137 144.545 333.764 144.569 334.415 144.884C335.147 145.237 335.51 145.758 335.503 146.447C335.799 146.279 336.122 146.185 336.475 146.164C336.83 146.145 337.198 146.227 337.578 146.411C338.726 146.965 339.016 147.855 338.449 149.08L336.756 152.586L335.861 152.154L337.528 148.701C337.709 148.327 337.758 148.007 337.676 147.74C337.595 147.471 337.353 147.239 336.95 147.044C336.618 146.884 336.294 146.851 335.978 146.945C335.664 147.036 335.408 147.24 335.211 147.558L333.534 151.031L332.635 150.597L334.29 147.167C334.658 146.406 334.469 145.846 333.724 145.487C333.137 145.203 332.615 145.259 332.158 145.655L330.313 149.476L329.418 149.044L331.945 143.81L332.791 144.219ZM341.341 154.8C341.339 154.672 341.386 154.468 341.481 154.188C340.857 154.419 340.256 154.396 339.679 154.117C339.163 153.868 338.809 153.518 338.617 153.068C338.43 152.615 338.444 152.165 338.661 151.717C338.924 151.172 339.334 150.849 339.892 150.749C340.454 150.646 341.111 150.777 341.862 151.139L342.733 151.56L342.931 151.149C343.082 150.836 343.108 150.542 343.01 150.268C342.913 149.991 342.683 149.764 342.319 149.588C341.999 149.434 341.693 149.386 341.399 149.443C341.105 149.499 340.903 149.642 340.792 149.871L339.893 149.437C340.019 149.176 340.232 148.969 340.533 148.816C340.838 148.661 341.183 148.589 341.567 148.599C341.955 148.612 342.339 148.71 342.72 148.893C343.323 149.184 343.722 149.564 343.917 150.032C344.114 150.497 344.092 150.997 343.849 151.532L342.686 153.941C342.454 154.421 342.331 154.833 342.317 155.176L342.279 155.253L341.341 154.8ZM340.185 153.401C340.466 153.537 340.767 153.593 341.088 153.569C341.41 153.545 341.683 153.445 341.908 153.267L342.427 152.193L341.725 151.855C340.629 151.325 339.926 151.381 339.616 152.023C339.481 152.304 339.468 152.568 339.579 152.816C339.69 153.065 339.892 153.26 340.185 153.401ZM344.47 156.311L343.576 155.879L346.102 150.646L346.997 151.078L344.47 156.311ZM346.7 149.223C346.77 149.078 346.873 148.976 347.008 148.918C347.147 148.862 347.303 148.876 347.477 148.96C347.651 149.044 347.759 149.158 347.801 149.301C347.843 149.445 347.829 149.589 347.759 149.734C347.689 149.879 347.586 149.978 347.449 150.031C347.312 150.085 347.156 150.069 346.982 149.985C346.808 149.901 346.699 149.789 346.655 149.648C346.615 149.51 346.63 149.368 346.7 149.223ZM349.28 152.18L348.992 152.852C349.634 152.542 350.278 152.543 350.923 152.854C352.029 153.388 352.286 154.281 351.693 155.534L350.023 158.992L349.128 158.56L350.8 155.097C350.979 154.718 351.027 154.397 350.943 154.134C350.863 153.873 350.643 153.655 350.285 153.483C349.995 153.343 349.703 153.297 349.409 153.346C349.115 153.395 348.846 153.515 348.602 153.708L346.802 157.437L345.907 157.005L348.434 151.771L349.28 152.18Z" fill="white"/>
<circle cx="140.5" cy="133.5" r="9.5" fill="#4000C7"/>
<circle cx="140.5" cy="335.5" r="9.5" fill="#4000C7"/>
<circle cx="220.5" cy="133.5" r="9.5" fill="#4000C7"/>
<circle cx="220.5" cy="335.5" r="9.5" fill="#4000C7"/>
<circle cx="301.5" cy="133.5" r="9.5" fill="#4000C7"/>
<circle cx="301.5" cy="335.5" r="9.5" fill="#4000C7"/>
<line x1="141" y1="133.5" x2="302" y2="133.5" stroke="#4000C7"/>
<line x1="150" y1="335.5" x2="298" y2="335.5" stroke="#4000C7"/>
</svg>
