<svg width="1152" height="587" viewBox="0 0 1152 587" fill="none" xmlns="http://www.w3.org/2000/svg">
<path d="M0 0H1152V587H0V0Z" fill="white" fill-opacity="0.01"/>
<path d="M123.665 551H122.762V545.717H123.665V551ZM122.688 544.315C122.688 544.169 122.732 544.045 122.82 543.944C122.911 543.843 123.045 543.793 123.221 543.793C123.396 543.793 123.53 543.843 123.621 543.944C123.712 544.045 123.758 544.169 123.758 544.315C123.758 544.462 123.712 544.584 123.621 544.682C123.53 544.779 123.396 544.828 123.221 544.828C123.045 544.828 122.911 544.779 122.82 544.682C122.732 544.584 122.688 544.462 122.688 544.315ZM125.97 545.717L125.999 546.381C126.403 545.873 126.93 545.619 127.581 545.619C128.698 545.619 129.261 546.249 129.271 547.509V551H128.367V547.504C128.364 547.123 128.276 546.841 128.104 546.659C127.934 546.477 127.669 546.386 127.308 546.386C127.015 546.386 126.757 546.464 126.536 546.62C126.315 546.776 126.142 546.981 126.019 547.235V551H125.115V545.717H125.97ZM130.413 548.314C130.413 547.504 130.605 546.853 130.989 546.361C131.373 545.867 131.876 545.619 132.498 545.619C133.117 545.619 133.606 545.831 133.968 546.254V543.5H134.871V551H134.041L133.997 550.434C133.636 550.876 133.133 551.098 132.488 551.098C131.876 551.098 131.377 550.847 130.989 550.346C130.605 549.844 130.413 549.19 130.413 548.383V548.314ZM131.316 548.417C131.316 549.016 131.44 549.485 131.688 549.823C131.935 550.162 132.277 550.331 132.713 550.331C133.286 550.331 133.704 550.074 133.968 549.56V547.133C133.698 546.635 133.283 546.386 132.723 546.386C132.28 546.386 131.935 546.557 131.688 546.898C131.44 547.24 131.316 547.746 131.316 548.417ZM138.47 551.098C137.754 551.098 137.171 550.863 136.722 550.395C136.272 549.923 136.048 549.293 136.048 548.505V548.339C136.048 547.815 136.147 547.348 136.346 546.938C136.548 546.524 136.827 546.202 137.186 545.971C137.547 545.736 137.938 545.619 138.357 545.619C139.044 545.619 139.578 545.845 139.959 546.298C140.34 546.75 140.53 547.398 140.53 548.241V548.617H136.951C136.964 549.138 137.116 549.56 137.405 549.882C137.698 550.201 138.069 550.36 138.519 550.36C138.838 550.36 139.108 550.295 139.329 550.165C139.55 550.035 139.744 549.862 139.91 549.647L140.462 550.077C140.019 550.757 139.355 551.098 138.47 551.098ZM138.357 546.361C137.993 546.361 137.687 546.495 137.439 546.762C137.192 547.025 137.039 547.396 136.98 547.875H139.627V547.807C139.601 547.348 139.477 546.993 139.256 546.742C139.035 546.488 138.735 546.361 138.357 546.361ZM143.353 547.646L144.524 545.717H145.579L143.851 548.329L145.633 551H144.588L143.367 549.022L142.146 551H141.097L142.879 548.329L141.15 545.717H142.195L143.353 547.646ZM146.561 550.526C146.561 550.37 146.606 550.24 146.697 550.136C146.792 550.032 146.932 549.979 147.117 549.979C147.303 549.979 147.443 550.032 147.537 550.136C147.635 550.24 147.684 550.37 147.684 550.526C147.684 550.676 147.635 550.801 147.537 550.902C147.443 551.003 147.303 551.054 147.117 551.054C146.932 551.054 146.792 551.003 146.697 550.902C146.606 550.801 146.561 550.676 146.561 550.526ZM150.11 545.717V551.61C150.11 552.626 149.65 553.134 148.729 553.134C148.53 553.134 148.346 553.104 148.177 553.046V552.323C148.281 552.349 148.418 552.362 148.587 552.362C148.789 552.362 148.942 552.307 149.046 552.196C149.153 552.089 149.207 551.9 149.207 551.63V545.717H150.11ZM149.114 544.315C149.114 544.172 149.158 544.05 149.246 543.949C149.337 543.845 149.469 543.793 149.642 543.793C149.817 543.793 149.951 543.843 150.042 543.944C150.133 544.045 150.179 544.169 150.179 544.315C150.179 544.462 150.133 544.584 150.042 544.682C149.951 544.779 149.817 544.828 149.642 544.828C149.466 544.828 149.334 544.779 149.246 544.682C149.158 544.584 149.114 544.462 149.114 544.315ZM154.646 549.599C154.646 549.354 154.554 549.166 154.368 549.032C154.186 548.896 153.865 548.778 153.406 548.681C152.951 548.583 152.588 548.466 152.317 548.329C152.05 548.192 151.852 548.03 151.722 547.841C151.595 547.652 151.531 547.427 151.531 547.167C151.531 546.734 151.714 546.368 152.078 546.068C152.446 545.769 152.915 545.619 153.484 545.619C154.083 545.619 154.568 545.774 154.939 546.083C155.314 546.392 155.501 546.788 155.501 547.27H154.593C154.593 547.022 154.487 546.809 154.275 546.63C154.067 546.451 153.803 546.361 153.484 546.361C153.156 546.361 152.898 546.433 152.713 546.576C152.527 546.719 152.435 546.907 152.435 547.138C152.435 547.356 152.521 547.52 152.693 547.631C152.866 547.742 153.177 547.847 153.626 547.948C154.078 548.049 154.445 548.17 154.725 548.31C155.005 548.45 155.211 548.619 155.345 548.817C155.481 549.013 155.55 549.252 155.55 549.535C155.55 550.007 155.361 550.386 154.983 550.673C154.606 550.956 154.116 551.098 153.514 551.098C153.09 551.098 152.716 551.023 152.391 550.873C152.065 550.723 151.81 550.515 151.624 550.248C151.442 549.978 151.351 549.687 151.351 549.374H152.254C152.27 549.677 152.391 549.918 152.615 550.097C152.843 550.272 153.143 550.36 153.514 550.36C153.855 550.36 154.129 550.292 154.334 550.155C154.542 550.015 154.646 549.83 154.646 549.599Z" fill="#4000C7"/>
<path d="M148.746 521.016L142.938 515.252C142.776 515.091 142.558 515 142.328 515H130.864C130.386 515 130 515.383 130 515.857V538.143C130 538.617 130.386 539 130.864 539H148.136C148.614 539 149 538.617 149 538.143V521.624C149 521.396 148.908 521.177 148.746 521.016ZM147.008 522.018H141.929V516.977L147.008 522.018ZM147.057 537.071H131.943V516.929H140.094V522.714C140.094 523.013 140.213 523.299 140.426 523.51C140.638 523.721 140.927 523.839 141.227 523.839H147.057V537.071ZM139.284 529.839H134.318C134.199 529.839 134.102 529.936 134.102 530.054V531.339C134.102 531.457 134.199 531.554 134.318 531.554H139.284C139.403 531.554 139.5 531.457 139.5 531.339V530.054C139.5 529.936 139.403 529.839 139.284 529.839ZM134.102 526.411V527.696C134.102 527.814 134.199 527.911 134.318 527.911H144.682C144.801 527.911 144.898 527.814 144.898 527.696V526.411C144.898 526.293 144.801 526.196 144.682 526.196H134.318C134.199 526.196 134.102 526.293 134.102 526.411Z" fill="#4000C7"/>
<rect x="319.031" y="352.209" width="18" height="41" rx="5" transform="rotate(-64.2277 319.031 352.209)" fill="black"/>
<rect x="319.031" y="150.209" width="18" height="41" rx="5" transform="rotate(-64.2277 319.031 150.209)" fill="black"/>
<path d="M315.739 340.626L324.675 341.094L321.662 347.333L315.739 340.626Z" fill="black"/>
<path d="M315.739 138.626L324.675 139.094L321.662 145.333L315.739 138.626Z" fill="black"/>
<path d="M332.791 346.219L332.535 346.811C333.137 346.545 333.764 346.569 334.415 346.884C335.147 347.237 335.51 347.758 335.503 348.447C335.799 348.279 336.122 348.185 336.475 348.164C336.83 348.145 337.198 348.227 337.578 348.411C338.726 348.965 339.016 349.855 338.449 351.08L336.756 354.586L335.861 354.154L337.528 350.701C337.709 350.327 337.758 350.007 337.676 349.74C337.595 349.471 337.353 349.239 336.95 349.044C336.618 348.884 336.294 348.851 335.978 348.945C335.664 349.036 335.408 349.24 335.211 349.558L333.534 353.031L332.635 352.597L334.29 349.167C334.658 348.406 334.469 347.846 333.724 347.487C333.137 347.203 332.615 347.259 332.158 347.655L330.313 351.476L329.418 351.044L331.945 345.81L332.791 346.219ZM341.341 356.8C341.339 356.672 341.386 356.468 341.481 356.188C340.857 356.419 340.256 356.396 339.679 356.117C339.163 355.868 338.809 355.518 338.617 355.068C338.43 354.615 338.444 354.165 338.661 353.717C338.924 353.172 339.334 352.849 339.892 352.749C340.454 352.646 341.111 352.777 341.862 353.139L342.733 353.56L342.931 353.149C343.082 352.836 343.108 352.542 343.01 352.268C342.913 351.991 342.683 351.764 342.319 351.588C341.999 351.434 341.693 351.386 341.399 351.443C341.105 351.499 340.903 351.642 340.792 351.871L339.893 351.437C340.019 351.176 340.232 350.969 340.533 350.816C340.838 350.661 341.183 350.589 341.567 350.599C341.955 350.612 342.339 350.71 342.72 350.893C343.323 351.184 343.722 351.564 343.917 352.032C344.114 352.497 344.092 352.997 343.849 353.532L342.686 355.941C342.454 356.421 342.331 356.833 342.317 357.176L342.279 357.253L341.341 356.8ZM340.185 355.401C340.466 355.537 340.767 355.593 341.088 355.569C341.41 355.545 341.683 355.445 341.908 355.267L342.427 354.193L341.725 353.855C340.629 353.325 339.926 353.381 339.616 354.023C339.481 354.304 339.468 354.568 339.579 354.816C339.69 355.065 339.892 355.26 340.185 355.401ZM344.47 358.311L343.576 357.879L346.102 352.646L346.997 353.078L344.47 358.311ZM346.7 351.223C346.77 351.078 346.873 350.976 347.008 350.918C347.147 350.862 347.303 350.876 347.477 350.96C347.651 351.044 347.759 351.158 347.801 351.301C347.843 351.445 347.829 351.589 347.759 351.734C347.689 351.879 347.586 351.978 347.449 352.031C347.312 352.085 347.156 352.069 346.982 351.985C346.808 351.901 346.699 351.789 346.655 351.648C346.615 351.51 346.63 351.368 346.7 351.223ZM349.28 354.18L348.992 354.852C349.634 354.542 350.278 354.543 350.923 354.854C352.029 355.388 352.286 356.281 351.693 357.534L350.023 360.992L349.128 360.56L350.8 357.097C350.979 356.718 351.027 356.397 350.943 356.134C350.863 355.873 350.643 355.655 350.285 355.483C349.995 355.343 349.703 355.297 349.409 355.346C349.115 355.395 348.846 355.515 348.602 355.708L346.802 359.437L345.907 359.005L348.434 353.771L349.28 354.18Z" fill="white"/>
<path d="M332.791 144.219L332.535 144.811C333.137 144.545 333.764 144.569 334.415 144.884C335.147 145.237 335.51 145.758 335.503 146.447C335.799 146.279 336.122 146.185 336.475 146.164C336.83 146.145 337.198 146.227 337.578 146.411C338.726 146.965 339.016 147.855 338.449 149.08L336.756 152.586L335.861 152.154L337.528 148.701C337.709 148.327 337.758 148.007 337.676 147.74C337.595 147.471 337.353 147.239 336.95 147.044C336.618 146.884 336.294 146.851 335.978 146.945C335.664 147.036 335.408 147.24 335.211 147.558L333.534 151.031L332.635 150.597L334.29 147.167C334.658 146.406 334.469 145.846 333.724 145.487C333.137 145.203 332.615 145.259 332.158 145.655L330.313 149.476L329.418 149.044L331.945 143.81L332.791 144.219ZM341.341 154.8C341.339 154.672 341.386 154.468 341.481 154.188C340.857 154.419 340.256 154.396 339.679 154.117C339.163 153.868 338.809 153.518 338.617 153.068C338.43 152.615 338.444 152.165 338.661 151.717C338.924 151.172 339.334 150.849 339.892 150.749C340.454 150.646 341.111 150.777 341.862 151.139L342.733 151.56L342.931 151.149C343.082 150.836 343.108 150.542 343.01 150.268C342.913 149.991 342.683 149.764 342.319 149.588C341.999 149.434 341.693 149.386 341.399 149.443C341.105 149.499 340.903 149.642 340.792 149.871L339.893 149.437C340.019 149.176 340.232 148.969 340.533 148.816C340.838 148.661 341.183 148.589 341.567 148.599C341.955 148.612 342.339 148.71 342.72 148.893C343.323 149.184 343.722 149.564 343.917 150.032C344.114 150.497 344.092 150.997 343.849 151.532L342.686 153.941C342.454 154.421 342.331 154.833 342.317 155.176L342.279 155.253L341.341 154.8ZM340.185 153.401C340.466 153.537 340.767 153.593 341.088 153.569C341.41 153.545 341.683 153.445 341.908 153.267L342.427 152.193L341.725 151.855C340.629 151.325 339.926 151.381 339.616 152.023C339.481 152.304 339.468 152.568 339.579 152.816C339.69 153.065 339.892 153.26 340.185 153.401ZM344.47 156.311L343.576 155.879L346.102 150.646L346.997 151.078L344.47 156.311ZM346.7 149.223C346.77 149.078 346.873 148.976 347.008 148.918C347.147 148.862 347.303 148.876 347.477 148.96C347.651 149.044 347.759 149.158 347.801 149.301C347.843 149.445 347.829 149.589 347.759 149.734C347.689 149.879 347.586 149.978 347.449 150.031C347.312 150.085 347.156 150.069 346.982 149.985C346.808 149.901 346.699 149.789 346.655 149.648C346.615 149.51 346.63 149.368 346.7 149.223ZM349.28 152.18L348.992 152.852C349.634 152.542 350.278 152.543 350.923 152.854C352.029 153.388 352.286 154.281 351.693 155.534L350.023 158.992L349.128 158.56L350.8 155.097C350.979 154.718 351.027 154.397 350.943 154.134C350.863 153.873 350.643 153.655 350.285 153.483C349.995 153.343 349.703 153.297 349.409 153.346C349.115 153.395 348.846 153.515 348.602 153.708L346.802 157.437L345.907 157.005L348.434 151.771L349.28 152.18Z" fill="white"/>
<circle cx="140.5" cy="133.5" r="9.5" fill="#4000C7"/>
<circle cx="140.5" cy="335.5" r="9.5" fill="#4000C7"/>
<circle cx="220.5" cy="133.5" r="9.5" fill="#4000C7"/>
<circle cx="220.5" cy="335.5" r="9.5" fill="#4000C7"/>
<circle cx="301.5" cy="133.5" r="9.5" fill="#4000C7"/>
<circle cx="301.5" cy="335.5" r="9.5" fill="#4000C7"/>
<line x1="141" y1="133.5" x2="302" y2="133.5" stroke="#4000C7"/>
<line x1="131" y1="335.5" x2="302" y2="335.5" stroke="#4000C7"/>
</svg>
