<svg width="1152" height="587" viewBox="0 0 1152 587" fill="none" xmlns="http://www.w3.org/2000/svg">
<path d="M0 0H1152V587H0V0Z" fill="white" fill-opacity="0.01"/>
<circle cx="140.5" cy="133.5" r="9.5" fill="#4000C7"/>
<rect x="158.031" y="150.209" width="18" height="41" rx="5" transform="rotate(-64.2277 158.031 150.209)" fill="black"/>
<path d="M154.739 138.626L163.675 139.094L160.662 145.333L154.739 138.626Z" fill="black"/>
<path d="M171.791 144.219L171.535 144.811C172.137 144.545 172.764 144.569 173.415 144.884C174.147 145.237 174.51 145.758 174.503 146.447C174.799 146.279 175.122 146.185 175.475 146.164C175.83 146.145 176.198 146.227 176.578 146.411C177.726 146.965 178.016 147.855 177.449 149.08L175.756 152.586L174.861 152.154L176.528 148.701C176.709 148.327 176.758 148.007 176.676 147.74C176.595 147.471 176.353 147.239 175.95 147.044C175.618 146.884 175.294 146.851 174.978 146.945C174.664 147.036 174.408 147.24 174.211 147.558L172.534 151.031L171.635 150.597L173.29 147.167C173.658 146.406 173.469 145.846 172.724 145.487C172.137 145.203 171.615 145.259 171.158 145.655L169.313 149.476L168.418 149.044L170.945 143.81L171.791 144.219ZM180.341 154.8C180.339 154.672 180.386 154.468 180.481 154.188C179.857 154.419 179.256 154.396 178.679 154.117C178.163 153.868 177.809 153.518 177.617 153.068C177.43 152.615 177.444 152.165 177.661 151.717C177.924 151.172 178.334 150.849 178.892 150.749C179.454 150.646 180.111 150.777 180.862 151.139L181.733 151.56L181.931 151.149C182.082 150.836 182.108 150.542 182.01 150.268C181.913 149.991 181.683 149.764 181.319 149.588C180.999 149.434 180.693 149.386 180.399 149.443C180.105 149.499 179.903 149.642 179.792 149.871L178.893 149.437C179.019 149.176 179.232 148.969 179.533 148.816C179.838 148.661 180.183 148.589 180.567 148.599C180.955 148.612 181.339 148.71 181.72 148.893C182.323 149.184 182.722 149.564 182.917 150.032C183.114 150.497 183.092 150.997 182.849 151.532L181.686 153.941C181.454 154.421 181.331 154.833 181.317 155.176L181.279 155.253L180.341 154.8ZM179.185 153.401C179.466 153.537 179.767 153.593 180.088 153.569C180.41 153.545 180.683 153.445 180.908 153.267L181.427 152.193L180.725 151.855C179.629 151.325 178.926 151.381 178.616 152.023C178.481 152.304 178.468 152.568 178.579 152.816C178.69 153.065 178.892 153.26 179.185 153.401ZM183.47 156.311L182.576 155.879L185.102 150.646L185.997 151.078L183.47 156.311ZM185.7 149.223C185.77 149.078 185.873 148.976 186.008 148.918C186.147 148.862 186.303 148.876 186.477 148.96C186.651 149.044 186.759 149.158 186.801 149.301C186.843 149.445 186.829 149.589 186.759 149.734C186.689 149.879 186.586 149.978 186.449 150.031C186.312 150.085 186.156 150.069 185.982 149.985C185.808 149.901 185.699 149.789 185.655 149.648C185.615 149.51 185.63 149.368 185.7 149.223ZM188.28 152.18L187.992 152.852C188.634 152.542 189.278 152.543 189.923 152.854C191.029 153.388 191.286 154.281 190.693 155.534L189.023 158.992L188.128 158.56L189.8 155.097C189.979 154.718 190.027 154.397 189.943 154.134C189.863 153.873 189.643 153.655 189.285 153.483C188.995 153.343 188.703 153.297 188.409 153.346C188.115 153.395 187.846 153.515 187.602 153.708L185.802 157.437L184.907 157.005L187.434 151.771L188.28 152.18Z" fill="white"/>
<line x1="140.5" y1="141" x2="140.5" y2="329" stroke="#4000C7"/>
<path d="M125.931 100.006H126.609C127.036 99.9993 127.371 99.887 127.615 99.6689C127.859 99.4508 127.981 99.1562 127.981 98.7852C127.981 97.9518 127.566 97.5352 126.736 97.5352C126.346 97.5352 126.033 97.6475 125.799 97.8721C125.568 98.0934 125.452 98.388 125.452 98.7559H124.549C124.549 98.1927 124.754 97.7256 125.164 97.3545C125.577 96.9801 126.102 96.793 126.736 96.793C127.407 96.793 127.933 96.9704 128.313 97.3252C128.694 97.68 128.885 98.1732 128.885 98.8047C128.885 99.1139 128.784 99.4134 128.582 99.7031C128.383 99.9928 128.112 100.209 127.767 100.353C128.157 100.476 128.458 100.681 128.67 100.968C128.885 101.254 128.992 101.604 128.992 102.018C128.992 102.656 128.784 103.162 128.367 103.536C127.951 103.91 127.409 104.098 126.741 104.098C126.074 104.098 125.53 103.917 125.11 103.556C124.694 103.194 124.485 102.717 124.485 102.125H125.394C125.394 102.499 125.516 102.799 125.76 103.023C126.004 103.248 126.331 103.36 126.741 103.36C127.177 103.36 127.511 103.246 127.742 103.019C127.973 102.791 128.089 102.464 128.089 102.037C128.089 101.624 127.962 101.306 127.708 101.085C127.454 100.864 127.088 100.75 126.609 100.743H125.931V100.006ZM132.518 104.098C131.801 104.098 131.219 103.863 130.77 103.395C130.32 102.923 130.096 102.293 130.096 101.505V101.339C130.096 100.815 130.195 100.348 130.394 99.9375C130.595 99.5241 130.875 99.2018 131.233 98.9707C131.595 98.7363 131.985 98.6191 132.405 98.6191C133.092 98.6191 133.626 98.8454 134.007 99.2979C134.388 99.7503 134.578 100.398 134.578 101.241V101.617H130.999C131.012 102.138 131.163 102.56 131.453 102.882C131.746 103.201 132.117 103.36 132.566 103.36C132.885 103.36 133.156 103.295 133.377 103.165C133.598 103.035 133.792 102.862 133.958 102.647L134.51 103.077C134.067 103.757 133.403 104.098 132.518 104.098ZM132.405 99.3613C132.041 99.3613 131.735 99.4948 131.487 99.7617C131.24 100.025 131.087 100.396 131.028 100.875H133.675V100.807C133.649 100.348 133.525 99.9928 133.304 99.7422C133.082 99.4883 132.783 99.3613 132.405 99.3613ZM136.072 104V99.415H135.237V98.7168H136.072V98.1748C136.072 97.6084 136.224 97.1706 136.526 96.8613C136.829 96.5521 137.257 96.3975 137.811 96.3975C138.019 96.3975 138.226 96.4251 138.431 96.4805L138.382 97.2129C138.229 97.1836 138.066 97.1689 137.894 97.1689C137.601 97.1689 137.374 97.2552 137.215 97.4277C137.055 97.597 136.976 97.8411 136.976 98.1602V98.7168H138.104V99.415H136.976V104H136.072ZM138.772 101.314C138.772 100.491 138.963 99.8366 139.344 99.3516C139.725 98.8633 140.229 98.6191 140.857 98.6191C141.502 98.6191 142.005 98.847 142.366 99.3027L142.41 98.7168H143.235V103.873C143.235 104.557 143.032 105.095 142.625 105.489C142.221 105.883 141.678 106.08 140.994 106.08C140.613 106.08 140.241 105.999 139.876 105.836C139.511 105.673 139.233 105.45 139.041 105.167L139.51 104.625C139.897 105.104 140.371 105.343 140.931 105.343C141.37 105.343 141.712 105.219 141.956 104.972C142.203 104.724 142.327 104.376 142.327 103.927V103.473C141.966 103.889 141.473 104.098 140.848 104.098C140.229 104.098 139.728 103.849 139.344 103.351C138.963 102.853 138.772 102.174 138.772 101.314ZM139.681 101.417C139.681 102.013 139.803 102.481 140.047 102.823C140.291 103.162 140.633 103.331 141.072 103.331C141.642 103.331 142.06 103.072 142.327 102.555V100.143C142.05 99.638 141.635 99.3857 141.082 99.3857C140.643 99.3857 140.299 99.5566 140.052 99.8984C139.804 100.24 139.681 100.746 139.681 101.417ZM147.864 104C147.812 103.896 147.77 103.71 147.737 103.443C147.317 103.88 146.816 104.098 146.233 104.098C145.713 104.098 145.285 103.951 144.949 103.658C144.617 103.362 144.451 102.988 144.451 102.535C144.451 101.985 144.66 101.559 145.076 101.256C145.496 100.95 146.085 100.797 146.844 100.797H147.723V100.382C147.723 100.066 147.628 99.8154 147.439 99.6299C147.251 99.4411 146.972 99.3467 146.604 99.3467C146.282 99.3467 146.012 99.4281 145.794 99.5908C145.576 99.7536 145.467 99.9505 145.467 100.182H144.559C144.559 99.918 144.651 99.6641 144.837 99.4199C145.026 99.1725 145.28 98.9772 145.599 98.834C145.921 98.6908 146.274 98.6191 146.658 98.6191C147.267 98.6191 147.744 98.7721 148.089 99.0781C148.434 99.3809 148.613 99.7992 148.626 100.333V102.765C148.626 103.25 148.688 103.635 148.812 103.922V104H147.864ZM146.365 103.312C146.648 103.312 146.917 103.238 147.171 103.092C147.425 102.945 147.609 102.755 147.723 102.521V101.437H147.015C145.908 101.437 145.354 101.76 145.354 102.408C145.354 102.691 145.449 102.913 145.638 103.072C145.826 103.232 146.069 103.312 146.365 103.312ZM154.515 101.417C154.515 102.224 154.329 102.874 153.958 103.365C153.587 103.854 153.089 104.098 152.464 104.098C151.797 104.098 151.281 103.862 150.916 103.39L150.872 104H150.042V96.5H150.945V99.2979C151.31 98.8454 151.813 98.6191 152.454 98.6191C153.095 98.6191 153.598 98.8617 153.963 99.3467C154.331 99.8317 154.515 100.496 154.515 101.339V101.417ZM153.611 101.314C153.611 100.699 153.493 100.224 153.255 99.8887C153.017 99.5534 152.675 99.3857 152.229 99.3857C151.634 99.3857 151.206 99.6624 150.945 100.216V102.501C151.222 103.054 151.653 103.331 152.239 103.331C152.672 103.331 153.009 103.163 153.25 102.828C153.491 102.493 153.611 101.988 153.611 101.314ZM113.479 116V111.415H112.645V110.717H113.479V110.268C113.479 109.678 113.647 109.219 113.982 108.891C114.321 108.562 114.798 108.397 115.413 108.397C115.778 108.397 116.238 108.497 116.795 108.695L116.644 109.457C116.237 109.294 115.849 109.213 115.481 109.213C115.094 109.213 114.814 109.301 114.642 109.477C114.472 109.649 114.388 109.91 114.388 110.258V110.717H115.467V111.415H114.388V116H113.479ZM117.244 116H116.336V110.717H117.244V116ZM121.268 111.527C121.131 111.505 120.983 111.493 120.823 111.493C120.231 111.493 119.829 111.745 119.617 112.25V116H118.714V110.717H119.593L119.607 111.327C119.904 110.855 120.324 110.619 120.867 110.619C121.043 110.619 121.176 110.642 121.268 110.688V111.527ZM125.179 114.599C125.179 114.354 125.086 114.166 124.9 114.032C124.718 113.896 124.397 113.778 123.938 113.681C123.483 113.583 123.12 113.466 122.85 113.329C122.583 113.192 122.384 113.03 122.254 112.841C122.127 112.652 122.063 112.427 122.063 112.167C122.063 111.734 122.246 111.368 122.61 111.068C122.978 110.769 123.447 110.619 124.017 110.619C124.616 110.619 125.101 110.774 125.472 111.083C125.846 111.392 126.033 111.788 126.033 112.27H125.125C125.125 112.022 125.019 111.809 124.808 111.63C124.599 111.451 124.336 111.361 124.017 111.361C123.688 111.361 123.431 111.433 123.245 111.576C123.06 111.719 122.967 111.907 122.967 112.138C122.967 112.356 123.053 112.52 123.226 112.631C123.398 112.742 123.709 112.847 124.158 112.948C124.611 113.049 124.977 113.17 125.257 113.31C125.537 113.45 125.743 113.619 125.877 113.817C126.014 114.013 126.082 114.252 126.082 114.535C126.082 115.007 125.893 115.386 125.516 115.673C125.138 115.956 124.648 116.098 124.046 116.098C123.623 116.098 123.248 116.023 122.923 115.873C122.597 115.723 122.342 115.515 122.156 115.248C121.974 114.978 121.883 114.687 121.883 114.374H122.786C122.802 114.677 122.923 114.918 123.147 115.097C123.375 115.272 123.675 115.36 124.046 115.36C124.388 115.36 124.661 115.292 124.866 115.155C125.075 115.015 125.179 114.83 125.179 114.599ZM128.484 109.438V110.717H129.471V111.415H128.484V114.691C128.484 114.903 128.528 115.062 128.616 115.17C128.704 115.274 128.854 115.326 129.065 115.326C129.17 115.326 129.313 115.307 129.495 115.268V116C129.257 116.065 129.026 116.098 128.802 116.098C128.398 116.098 128.094 115.976 127.889 115.731C127.684 115.487 127.581 115.141 127.581 114.691V111.415H126.619V110.717H127.581V109.438H128.484ZM135.13 115.36C135.452 115.36 135.734 115.263 135.975 115.067C136.215 114.872 136.349 114.628 136.375 114.335H137.229C137.213 114.638 137.109 114.926 136.917 115.199C136.725 115.473 136.468 115.691 136.146 115.854C135.826 116.016 135.488 116.098 135.13 116.098C134.41 116.098 133.838 115.858 133.411 115.38C132.988 114.898 132.776 114.241 132.776 113.407V113.256C132.776 112.742 132.871 112.284 133.06 111.884C133.248 111.483 133.519 111.173 133.87 110.951C134.225 110.73 134.643 110.619 135.125 110.619C135.717 110.619 136.209 110.797 136.6 111.151C136.993 111.506 137.203 111.967 137.229 112.533H136.375C136.349 112.191 136.219 111.911 135.984 111.693C135.753 111.472 135.467 111.361 135.125 111.361C134.666 111.361 134.31 111.527 134.056 111.859C133.805 112.188 133.68 112.665 133.68 113.29V113.461C133.68 114.07 133.805 114.538 134.056 114.867C134.306 115.196 134.664 115.36 135.13 115.36ZM138.006 113.31C138.006 112.792 138.107 112.326 138.309 111.913C138.514 111.5 138.797 111.181 139.158 110.956C139.523 110.731 139.938 110.619 140.403 110.619C141.123 110.619 141.704 110.868 142.146 111.366C142.592 111.864 142.815 112.527 142.815 113.354V113.417C142.815 113.931 142.716 114.394 142.518 114.804C142.322 115.211 142.041 115.528 141.673 115.756C141.308 115.984 140.888 116.098 140.413 116.098C139.697 116.098 139.116 115.849 138.67 115.351C138.227 114.853 138.006 114.193 138.006 113.373V113.31ZM138.914 113.417C138.914 114.003 139.049 114.473 139.319 114.828C139.593 115.183 139.957 115.36 140.413 115.36C140.872 115.36 141.237 115.181 141.507 114.823C141.777 114.462 141.912 113.957 141.912 113.31C141.912 112.73 141.774 112.261 141.497 111.903C141.224 111.542 140.859 111.361 140.403 111.361C139.957 111.361 139.598 111.539 139.324 111.894C139.051 112.248 138.914 112.756 138.914 113.417ZM144.798 110.717L144.822 111.303C145.21 110.847 145.732 110.619 146.39 110.619C147.129 110.619 147.632 110.902 147.898 111.469C148.074 111.215 148.302 111.01 148.582 110.854C148.865 110.697 149.199 110.619 149.583 110.619C150.742 110.619 151.331 111.233 151.351 112.46V116H150.447V112.514C150.447 112.136 150.361 111.854 150.188 111.669C150.016 111.48 149.726 111.386 149.319 111.386C148.984 111.386 148.706 111.487 148.484 111.688C148.263 111.887 148.134 112.156 148.099 112.494V116H147.19V112.538C147.19 111.77 146.814 111.386 146.062 111.386C145.47 111.386 145.065 111.638 144.847 112.143V116H143.943V110.717H144.798ZM153.567 110.717L153.592 111.303C153.979 110.847 154.502 110.619 155.159 110.619C155.898 110.619 156.401 110.902 156.668 111.469C156.844 111.215 157.072 111.01 157.352 110.854C157.635 110.697 157.968 110.619 158.353 110.619C159.511 110.619 160.101 111.233 160.12 112.46V116H159.217V112.514C159.217 112.136 159.131 111.854 158.958 111.669C158.785 111.48 158.496 111.386 158.089 111.386C157.754 111.386 157.475 111.487 157.254 111.688C157.033 111.887 156.904 112.156 156.868 112.494V116H155.96V112.538C155.96 111.77 155.584 111.386 154.832 111.386C154.24 111.386 153.834 111.638 153.616 112.143V116H152.713V110.717H153.567ZM162.469 116H161.565V110.717H162.469V116ZM161.492 109.315C161.492 109.169 161.536 109.045 161.624 108.944C161.715 108.843 161.849 108.793 162.024 108.793C162.2 108.793 162.334 108.843 162.425 108.944C162.516 109.045 162.562 109.169 162.562 109.315C162.562 109.462 162.516 109.584 162.425 109.682C162.334 109.779 162.2 109.828 162.024 109.828C161.849 109.828 161.715 109.779 161.624 109.682C161.536 109.584 161.492 109.462 161.492 109.315ZM165.145 109.438V110.717H166.131V111.415H165.145V114.691C165.145 114.903 165.188 115.062 165.276 115.17C165.364 115.274 165.514 115.326 165.726 115.326C165.83 115.326 165.973 115.307 166.155 115.268V116C165.918 116.065 165.687 116.098 165.462 116.098C165.058 116.098 164.754 115.976 164.549 115.731C164.344 115.487 164.241 115.141 164.241 114.691V111.415H163.279V110.717H164.241V109.438H165.145Z" fill="black"/>
</svg>
