<svg width="1152" height="587" viewBox="0 0 1152 587" fill="none" xmlns="http://www.w3.org/2000/svg">
<path d="M0 0H1152V587H0V0Z" fill="white" fill-opacity="0.01"/>
<circle cx="140.5" cy="334.5" r="9.5" fill="#4000C7"/>
<circle cx="140.5" cy="133.5" r="9.5" fill="#4000C7"/>
<rect x="158.031" y="351.209" width="18" height="41" rx="5" transform="rotate(-64.2277 158.031 351.209)" fill="black"/>
<rect x="158.031" y="150.209" width="18" height="41" rx="5" transform="rotate(-64.2277 158.031 150.209)" fill="black"/>
<path d="M154.739 339.602L163.675 340.07L160.662 346.309L154.739 339.602Z" fill="black"/>
<path d="M154.739 138.626L163.675 139.094L160.662 145.333L154.739 138.626Z" fill="black"/>
<path d="M171.791 345.219L171.535 345.811C172.137 345.545 172.764 345.569 173.415 345.884C174.147 346.237 174.51 346.758 174.503 347.447C174.799 347.279 175.122 347.185 175.475 347.164C175.83 347.145 176.198 347.227 176.578 347.411C177.726 347.965 178.016 348.855 177.449 350.08L175.756 353.586L174.861 353.154L176.528 349.701C176.709 349.327 176.758 349.007 176.676 348.74C176.595 348.471 176.353 348.239 175.95 348.044C175.618 347.884 175.294 347.851 174.978 347.945C174.664 348.036 174.408 348.24 174.211 348.558L172.534 352.031L171.635 351.597L173.29 348.167C173.658 347.406 173.469 346.846 172.724 346.487C172.137 346.203 171.615 346.259 171.158 346.655L169.313 350.476L168.418 350.044L170.945 344.81L171.791 345.219ZM180.341 355.8C180.339 355.672 180.386 355.468 180.481 355.188C179.857 355.419 179.256 355.396 178.679 355.117C178.163 354.868 177.809 354.518 177.617 354.068C177.43 353.615 177.444 353.165 177.661 352.717C177.924 352.172 178.334 351.849 178.892 351.749C179.454 351.646 180.111 351.777 180.862 352.139L181.733 352.56L181.931 352.149C182.082 351.836 182.108 351.542 182.01 351.268C181.913 350.991 181.683 350.764 181.319 350.588C180.999 350.434 180.693 350.386 180.399 350.443C180.105 350.499 179.903 350.642 179.792 350.871L178.893 350.437C179.019 350.176 179.232 349.969 179.533 349.816C179.838 349.661 180.183 349.589 180.567 349.599C180.955 349.612 181.339 349.71 181.72 349.893C182.323 350.184 182.722 350.564 182.917 351.032C183.114 351.497 183.092 351.997 182.849 352.532L181.686 354.941C181.454 355.421 181.331 355.833 181.317 356.176L181.279 356.253L180.341 355.8ZM179.185 354.401C179.466 354.537 179.767 354.593 180.088 354.569C180.41 354.545 180.683 354.445 180.908 354.267L181.427 353.193L180.725 352.855C179.629 352.325 178.926 352.381 178.616 353.023C178.481 353.304 178.468 353.568 178.579 353.816C178.69 354.065 178.892 354.26 179.185 354.401ZM183.47 357.311L182.576 356.879L185.102 351.646L185.997 352.078L183.47 357.311ZM185.7 350.223C185.77 350.078 185.873 349.976 186.008 349.918C186.147 349.862 186.303 349.876 186.477 349.96C186.651 350.044 186.759 350.158 186.801 350.301C186.843 350.445 186.829 350.589 186.759 350.734C186.689 350.879 186.586 350.978 186.449 351.031C186.312 351.085 186.156 351.069 185.982 350.985C185.808 350.901 185.699 350.789 185.655 350.648C185.615 350.51 185.63 350.368 185.7 350.223ZM188.28 353.18L187.992 353.852C188.634 353.542 189.278 353.543 189.923 353.854C191.029 354.388 191.286 355.281 190.693 356.534L189.023 359.992L188.128 359.56L189.8 356.097C189.979 355.718 190.027 355.397 189.943 355.134C189.863 354.873 189.643 354.655 189.285 354.483C188.995 354.343 188.703 354.297 188.409 354.346C188.115 354.395 187.846 354.515 187.602 354.708L185.802 358.437L184.907 358.005L187.434 352.771L188.28 353.18Z" fill="white"/>
<path d="M171.791 144.219L171.535 144.811C172.137 144.545 172.764 144.569 173.415 144.884C174.147 145.237 174.51 145.758 174.503 146.447C174.799 146.279 175.122 146.185 175.475 146.164C175.83 146.145 176.198 146.227 176.578 146.411C177.726 146.965 178.016 147.855 177.449 149.08L175.756 152.586L174.861 152.154L176.528 148.701C176.709 148.327 176.758 148.007 176.676 147.74C176.595 147.471 176.353 147.239 175.95 147.044C175.618 146.884 175.294 146.851 174.978 146.945C174.664 147.036 174.408 147.24 174.211 147.558L172.534 151.031L171.635 150.597L173.29 147.167C173.658 146.406 173.469 145.846 172.724 145.487C172.137 145.203 171.615 145.259 171.158 145.655L169.313 149.476L168.418 149.044L170.945 143.81L171.791 144.219ZM180.341 154.8C180.339 154.672 180.386 154.468 180.481 154.188C179.857 154.419 179.256 154.396 178.679 154.117C178.163 153.868 177.809 153.518 177.617 153.068C177.43 152.615 177.444 152.165 177.661 151.717C177.924 151.172 178.334 150.849 178.892 150.749C179.454 150.646 180.111 150.777 180.862 151.139L181.733 151.56L181.931 151.149C182.082 150.836 182.108 150.542 182.01 150.268C181.913 149.991 181.683 149.764 181.319 149.588C180.999 149.434 180.693 149.386 180.399 149.443C180.105 149.499 179.903 149.642 179.792 149.871L178.893 149.437C179.019 149.176 179.232 148.969 179.533 148.816C179.838 148.661 180.183 148.589 180.567 148.599C180.955 148.612 181.339 148.71 181.72 148.893C182.323 149.184 182.722 149.564 182.917 150.032C183.114 150.497 183.092 150.997 182.849 151.532L181.686 153.941C181.454 154.421 181.331 154.833 181.317 155.176L181.279 155.253L180.341 154.8ZM179.185 153.401C179.466 153.537 179.767 153.593 180.088 153.569C180.41 153.545 180.683 153.445 180.908 153.267L181.427 152.193L180.725 151.855C179.629 151.325 178.926 151.381 178.616 152.023C178.481 152.304 178.468 152.568 178.579 152.816C178.69 153.065 178.892 153.26 179.185 153.401ZM183.47 156.311L182.576 155.879L185.102 150.646L185.997 151.078L183.47 156.311ZM185.7 149.223C185.77 149.078 185.873 148.976 186.008 148.918C186.147 148.862 186.303 148.876 186.477 148.96C186.651 149.044 186.759 149.158 186.801 149.301C186.843 149.445 186.829 149.589 186.759 149.734C186.689 149.879 186.586 149.978 186.449 150.031C186.312 150.085 186.156 150.069 185.982 149.985C185.808 149.901 185.699 149.789 185.655 149.648C185.615 149.51 185.63 149.368 185.7 149.223ZM188.28 152.18L187.992 152.852C188.634 152.542 189.278 152.543 189.923 152.854C191.029 153.388 191.286 154.281 190.693 155.534L189.023 158.992L188.128 158.56L189.8 155.097C189.979 154.718 190.027 154.397 189.943 154.134C189.863 153.873 189.643 153.655 189.285 153.483C188.995 153.343 188.703 153.297 188.409 153.346C188.115 153.395 187.846 153.515 187.602 153.708L185.802 157.437L184.907 157.005L187.434 151.771L188.28 152.18Z" fill="white"/>
<line x1="140.5" y1="141" x2="140.5" y2="329" stroke="#4000C7"/>
<path d="M125.931 100.006H126.609C127.036 99.9993 127.371 99.887 127.615 99.6689C127.859 99.4508 127.981 99.1562 127.981 98.7852C127.981 97.9518 127.566 97.5352 126.736 97.5352C126.346 97.5352 126.033 97.6475 125.799 97.8721C125.568 98.0934 125.452 98.388 125.452 98.7559H124.549C124.549 98.1927 124.754 97.7256 125.164 97.3545C125.577 96.9801 126.102 96.793 126.736 96.793C127.407 96.793 127.933 96.9704 128.313 97.3252C128.694 97.68 128.885 98.1732 128.885 98.8047C128.885 99.1139 128.784 99.4134 128.582 99.7031C128.383 99.9928 128.112 100.209 127.767 100.353C128.157 100.476 128.458 100.681 128.67 100.968C128.885 101.254 128.992 101.604 128.992 102.018C128.992 102.656 128.784 103.162 128.367 103.536C127.951 103.91 127.409 104.098 126.741 104.098C126.074 104.098 125.53 103.917 125.11 103.556C124.694 103.194 124.485 102.717 124.485 102.125H125.394C125.394 102.499 125.516 102.799 125.76 103.023C126.004 103.248 126.331 103.36 126.741 103.36C127.177 103.36 127.511 103.246 127.742 103.019C127.973 102.791 128.089 102.464 128.089 102.037C128.089 101.624 127.962 101.306 127.708 101.085C127.454 100.864 127.088 100.75 126.609 100.743H125.931V100.006ZM132.518 104.098C131.801 104.098 131.219 103.863 130.77 103.395C130.32 102.923 130.096 102.293 130.096 101.505V101.339C130.096 100.815 130.195 100.348 130.394 99.9375C130.595 99.5241 130.875 99.2018 131.233 98.9707C131.595 98.7363 131.985 98.6191 132.405 98.6191C133.092 98.6191 133.626 98.8454 134.007 99.2979C134.388 99.7503 134.578 100.398 134.578 101.241V101.617H130.999C131.012 102.138 131.163 102.56 131.453 102.882C131.746 103.201 132.117 103.36 132.566 103.36C132.885 103.36 133.156 103.295 133.377 103.165C133.598 103.035 133.792 102.862 133.958 102.647L134.51 103.077C134.067 103.757 133.403 104.098 132.518 104.098ZM132.405 99.3613C132.041 99.3613 131.735 99.4948 131.487 99.7617C131.24 100.025 131.087 100.396 131.028 100.875H133.675V100.807C133.649 100.348 133.525 99.9928 133.304 99.7422C133.082 99.4883 132.783 99.3613 132.405 99.3613ZM136.072 104V99.415H135.237V98.7168H136.072V98.1748C136.072 97.6084 136.224 97.1706 136.526 96.8613C136.829 96.5521 137.257 96.3975 137.811 96.3975C138.019 96.3975 138.226 96.4251 138.431 96.4805L138.382 97.2129C138.229 97.1836 138.066 97.1689 137.894 97.1689C137.601 97.1689 137.374 97.2552 137.215 97.4277C137.055 97.597 136.976 97.8411 136.976 98.1602V98.7168H138.104V99.415H136.976V104H136.072ZM138.772 101.314C138.772 100.491 138.963 99.8366 139.344 99.3516C139.725 98.8633 140.229 98.6191 140.857 98.6191C141.502 98.6191 142.005 98.847 142.366 99.3027L142.41 98.7168H143.235V103.873C143.235 104.557 143.032 105.095 142.625 105.489C142.221 105.883 141.678 106.08 140.994 106.08C140.613 106.08 140.241 105.999 139.876 105.836C139.511 105.673 139.233 105.45 139.041 105.167L139.51 104.625C139.897 105.104 140.371 105.343 140.931 105.343C141.37 105.343 141.712 105.219 141.956 104.972C142.203 104.724 142.327 104.376 142.327 103.927V103.473C141.966 103.889 141.473 104.098 140.848 104.098C140.229 104.098 139.728 103.849 139.344 103.351C138.963 102.853 138.772 102.174 138.772 101.314ZM139.681 101.417C139.681 102.013 139.803 102.481 140.047 102.823C140.291 103.162 140.633 103.331 141.072 103.331C141.642 103.331 142.06 103.072 142.327 102.555V100.143C142.05 99.638 141.635 99.3857 141.082 99.3857C140.643 99.3857 140.299 99.5566 140.052 99.8984C139.804 100.24 139.681 100.746 139.681 101.417ZM147.864 104C147.812 103.896 147.77 103.71 147.737 103.443C147.317 103.88 146.816 104.098 146.233 104.098C145.713 104.098 145.285 103.951 144.949 103.658C144.617 103.362 144.451 102.988 144.451 102.535C144.451 101.985 144.66 101.559 145.076 101.256C145.496 100.95 146.085 100.797 146.844 100.797H147.723V100.382C147.723 100.066 147.628 99.8154 147.439 99.6299C147.251 99.4411 146.972 99.3467 146.604 99.3467C146.282 99.3467 146.012 99.4281 145.794 99.5908C145.576 99.7536 145.467 99.9505 145.467 100.182H144.559C144.559 99.918 144.651 99.6641 144.837 99.4199C145.026 99.1725 145.28 98.9772 145.599 98.834C145.921 98.6908 146.274 98.6191 146.658 98.6191C147.267 98.6191 147.744 98.7721 148.089 99.0781C148.434 99.3809 148.613 99.7992 148.626 100.333V102.765C148.626 103.25 148.688 103.635 148.812 103.922V104H147.864ZM146.365 103.312C146.648 103.312 146.917 103.238 147.171 103.092C147.425 102.945 147.609 102.755 147.723 102.521V101.437H147.015C145.908 101.437 145.354 101.76 145.354 102.408C145.354 102.691 145.449 102.913 145.638 103.072C145.826 103.232 146.069 103.312 146.365 103.312ZM154.515 101.417C154.515 102.224 154.329 102.874 153.958 103.365C153.587 103.854 153.089 104.098 152.464 104.098C151.797 104.098 151.281 103.862 150.916 103.39L150.872 104H150.042V96.5H150.945V99.2979C151.31 98.8454 151.813 98.6191 152.454 98.6191C153.095 98.6191 153.598 98.8617 153.963 99.3467C154.331 99.8317 154.515 100.496 154.515 101.339V101.417ZM153.611 101.314C153.611 100.699 153.493 100.224 153.255 99.8887C153.017 99.5534 152.675 99.3857 152.229 99.3857C151.634 99.3857 151.206 99.6624 150.945 100.216V102.501C151.222 103.054 151.653 103.331 152.239 103.331C152.672 103.331 153.009 103.163 153.25 102.828C153.491 102.493 153.611 101.988 153.611 101.314ZM113.479 116V111.415H112.645V110.717H113.479V110.268C113.479 109.678 113.647 109.219 113.982 108.891C114.321 108.562 114.798 108.397 115.413 108.397C115.778 108.397 116.238 108.497 116.795 108.695L116.644 109.457C116.237 109.294 115.849 109.213 115.481 109.213C115.094 109.213 114.814 109.301 114.642 109.477C114.472 109.649 114.388 109.91 114.388 110.258V110.717H115.467V111.415H114.388V116H113.479ZM117.244 116H116.336V110.717H117.244V116ZM121.268 111.527C121.131 111.505 120.983 111.493 120.823 111.493C120.231 111.493 119.829 111.745 119.617 112.25V116H118.714V110.717H119.593L119.607 111.327C119.904 110.855 120.324 110.619 120.867 110.619C121.043 110.619 121.176 110.642 121.268 110.688V111.527ZM125.179 114.599C125.179 114.354 125.086 114.166 124.9 114.032C124.718 113.896 124.397 113.778 123.938 113.681C123.483 113.583 123.12 113.466 122.85 113.329C122.583 113.192 122.384 113.03 122.254 112.841C122.127 112.652 122.063 112.427 122.063 112.167C122.063 111.734 122.246 111.368 122.61 111.068C122.978 110.769 123.447 110.619 124.017 110.619C124.616 110.619 125.101 110.774 125.472 111.083C125.846 111.392 126.033 111.788 126.033 112.27H125.125C125.125 112.022 125.019 111.809 124.808 111.63C124.599 111.451 124.336 111.361 124.017 111.361C123.688 111.361 123.431 111.433 123.245 111.576C123.06 111.719 122.967 111.907 122.967 112.138C122.967 112.356 123.053 112.52 123.226 112.631C123.398 112.742 123.709 112.847 124.158 112.948C124.611 113.049 124.977 113.17 125.257 113.31C125.537 113.45 125.743 113.619 125.877 113.817C126.014 114.013 126.082 114.252 126.082 114.535C126.082 115.007 125.893 115.386 125.516 115.673C125.138 115.956 124.648 116.098 124.046 116.098C123.623 116.098 123.248 116.023 122.923 115.873C122.597 115.723 122.342 115.515 122.156 115.248C121.974 114.978 121.883 114.687 121.883 114.374H122.786C122.802 114.677 122.923 114.918 123.147 115.097C123.375 115.272 123.675 115.36 124.046 115.36C124.388 115.36 124.661 115.292 124.866 115.155C125.075 115.015 125.179 114.83 125.179 114.599ZM128.484 109.438V110.717H129.471V111.415H128.484V114.691C128.484 114.903 128.528 115.062 128.616 115.17C128.704 115.274 128.854 115.326 129.065 115.326C129.17 115.326 129.313 115.307 129.495 115.268V116C129.257 116.065 129.026 116.098 128.802 116.098C128.398 116.098 128.094 115.976 127.889 115.731C127.684 115.487 127.581 115.141 127.581 114.691V111.415H126.619V110.717H127.581V109.438H128.484ZM135.13 115.36C135.452 115.36 135.734 115.263 135.975 115.067C136.215 114.872 136.349 114.628 136.375 114.335H137.229C137.213 114.638 137.109 114.926 136.917 115.199C136.725 115.473 136.468 115.691 136.146 115.854C135.826 116.016 135.488 116.098 135.13 116.098C134.41 116.098 133.838 115.858 133.411 115.38C132.988 114.898 132.776 114.241 132.776 113.407V113.256C132.776 112.742 132.871 112.284 133.06 111.884C133.248 111.483 133.519 111.173 133.87 110.951C134.225 110.73 134.643 110.619 135.125 110.619C135.717 110.619 136.209 110.797 136.6 111.151C136.993 111.506 137.203 111.967 137.229 112.533H136.375C136.349 112.191 136.219 111.911 135.984 111.693C135.753 111.472 135.467 111.361 135.125 111.361C134.666 111.361 134.31 111.527 134.056 111.859C133.805 112.188 133.68 112.665 133.68 113.29V113.461C133.68 114.07 133.805 114.538 134.056 114.867C134.306 115.196 134.664 115.36 135.13 115.36ZM138.006 113.31C138.006 112.792 138.107 112.326 138.309 111.913C138.514 111.5 138.797 111.181 139.158 110.956C139.523 110.731 139.938 110.619 140.403 110.619C141.123 110.619 141.704 110.868 142.146 111.366C142.592 111.864 142.815 112.527 142.815 113.354V113.417C142.815 113.931 142.716 114.394 142.518 114.804C142.322 115.211 142.041 115.528 141.673 115.756C141.308 115.984 140.888 116.098 140.413 116.098C139.697 116.098 139.116 115.849 138.67 115.351C138.227 114.853 138.006 114.193 138.006 113.373V113.31ZM138.914 113.417C138.914 114.003 139.049 114.473 139.319 114.828C139.593 115.183 139.957 115.36 140.413 115.36C140.872 115.36 141.237 115.181 141.507 114.823C141.777 114.462 141.912 113.957 141.912 113.31C141.912 112.73 141.774 112.261 141.497 111.903C141.224 111.542 140.859 111.361 140.403 111.361C139.957 111.361 139.598 111.539 139.324 111.894C139.051 112.248 138.914 112.756 138.914 113.417ZM144.798 110.717L144.822 111.303C145.21 110.847 145.732 110.619 146.39 110.619C147.129 110.619 147.632 110.902 147.898 111.469C148.074 111.215 148.302 111.01 148.582 110.854C148.865 110.697 149.199 110.619 149.583 110.619C150.742 110.619 151.331 111.233 151.351 112.46V116H150.447V112.514C150.447 112.136 150.361 111.854 150.188 111.669C150.016 111.48 149.726 111.386 149.319 111.386C148.984 111.386 148.706 111.487 148.484 111.688C148.263 111.887 148.134 112.156 148.099 112.494V116H147.19V112.538C147.19 111.77 146.814 111.386 146.062 111.386C145.47 111.386 145.065 111.638 144.847 112.143V116H143.943V110.717H144.798ZM153.567 110.717L153.592 111.303C153.979 110.847 154.502 110.619 155.159 110.619C155.898 110.619 156.401 110.902 156.668 111.469C156.844 111.215 157.072 111.01 157.352 110.854C157.635 110.697 157.968 110.619 158.353 110.619C159.511 110.619 160.101 111.233 160.12 112.46V116H159.217V112.514C159.217 112.136 159.131 111.854 158.958 111.669C158.785 111.48 158.496 111.386 158.089 111.386C157.754 111.386 157.475 111.487 157.254 111.688C157.033 111.887 156.904 112.156 156.868 112.494V116H155.96V112.538C155.96 111.77 155.584 111.386 154.832 111.386C154.24 111.386 153.834 111.638 153.616 112.143V116H152.713V110.717H153.567ZM162.469 116H161.565V110.717H162.469V116ZM161.492 109.315C161.492 109.169 161.536 109.045 161.624 108.944C161.715 108.843 161.849 108.793 162.024 108.793C162.2 108.793 162.334 108.843 162.425 108.944C162.516 109.045 162.562 109.169 162.562 109.315C162.562 109.462 162.516 109.584 162.425 109.682C162.334 109.779 162.2 109.828 162.024 109.828C161.849 109.828 161.715 109.779 161.624 109.682C161.536 109.584 161.492 109.462 161.492 109.315ZM165.145 109.438V110.717H166.131V111.415H165.145V114.691C165.145 114.903 165.188 115.062 165.276 115.17C165.364 115.274 165.514 115.326 165.726 115.326C165.83 115.326 165.973 115.307 166.155 115.268V116C165.918 116.065 165.687 116.098 165.462 116.098C165.058 116.098 164.754 115.976 164.549 115.731C164.344 115.487 164.241 115.141 164.241 114.691V111.415H163.279V110.717H164.241V109.438H165.145Z" fill="black"/>
<path d="M127.931 302.006H128.609C129.036 301.999 129.371 301.887 129.615 301.669C129.859 301.451 129.981 301.156 129.981 300.785C129.981 299.952 129.566 299.535 128.736 299.535C128.346 299.535 128.033 299.647 127.799 299.872C127.568 300.093 127.452 300.388 127.452 300.756H126.549C126.549 300.193 126.754 299.726 127.164 299.354C127.577 298.98 128.102 298.793 128.736 298.793C129.407 298.793 129.933 298.97 130.313 299.325C130.694 299.68 130.885 300.173 130.885 300.805C130.885 301.114 130.784 301.413 130.582 301.703C130.383 301.993 130.112 302.209 129.767 302.353C130.157 302.476 130.458 302.681 130.67 302.968C130.885 303.254 130.992 303.604 130.992 304.018C130.992 304.656 130.784 305.162 130.367 305.536C129.951 305.91 129.409 306.098 128.741 306.098C128.074 306.098 127.53 305.917 127.11 305.556C126.694 305.194 126.485 304.717 126.485 304.125H127.394C127.394 304.499 127.516 304.799 127.76 305.023C128.004 305.248 128.331 305.36 128.741 305.36C129.177 305.36 129.511 305.246 129.742 305.019C129.973 304.791 130.089 304.464 130.089 304.037C130.089 303.624 129.962 303.306 129.708 303.085C129.454 302.864 129.088 302.75 128.609 302.743H127.931V302.006ZM134.518 306.098C133.801 306.098 133.219 305.863 132.77 305.395C132.32 304.923 132.096 304.293 132.096 303.505V303.339C132.096 302.815 132.195 302.348 132.394 301.938C132.595 301.524 132.875 301.202 133.233 300.971C133.595 300.736 133.985 300.619 134.405 300.619C135.092 300.619 135.626 300.845 136.007 301.298C136.388 301.75 136.578 302.398 136.578 303.241V303.617H132.999C133.012 304.138 133.163 304.56 133.453 304.882C133.746 305.201 134.117 305.36 134.566 305.36C134.885 305.36 135.156 305.295 135.377 305.165C135.598 305.035 135.792 304.862 135.958 304.647L136.51 305.077C136.067 305.757 135.403 306.098 134.518 306.098ZM134.405 301.361C134.041 301.361 133.735 301.495 133.487 301.762C133.24 302.025 133.087 302.396 133.028 302.875H135.675V302.807C135.649 302.348 135.525 301.993 135.304 301.742C135.082 301.488 134.783 301.361 134.405 301.361ZM138.072 306V301.415H137.237V300.717H138.072V300.175C138.072 299.608 138.224 299.171 138.526 298.861C138.829 298.552 139.257 298.397 139.811 298.397C140.019 298.397 140.226 298.425 140.431 298.48L140.382 299.213C140.229 299.184 140.066 299.169 139.894 299.169C139.601 299.169 139.374 299.255 139.215 299.428C139.055 299.597 138.976 299.841 138.976 300.16V300.717H140.104V301.415H138.976V306H138.072ZM140.772 303.314C140.772 302.491 140.963 301.837 141.344 301.352C141.725 300.863 142.229 300.619 142.857 300.619C143.502 300.619 144.005 300.847 144.366 301.303L144.41 300.717H145.235V305.873C145.235 306.557 145.032 307.095 144.625 307.489C144.221 307.883 143.678 308.08 142.994 308.08C142.613 308.08 142.241 307.999 141.876 307.836C141.511 307.673 141.233 307.45 141.041 307.167L141.51 306.625C141.897 307.104 142.371 307.343 142.931 307.343C143.37 307.343 143.712 307.219 143.956 306.972C144.203 306.724 144.327 306.376 144.327 305.927V305.473C143.966 305.889 143.473 306.098 142.848 306.098C142.229 306.098 141.728 305.849 141.344 305.351C140.963 304.853 140.772 304.174 140.772 303.314ZM141.681 303.417C141.681 304.013 141.803 304.481 142.047 304.823C142.291 305.162 142.633 305.331 143.072 305.331C143.642 305.331 144.06 305.072 144.327 304.555V302.143C144.05 301.638 143.635 301.386 143.082 301.386C142.643 301.386 142.299 301.557 142.052 301.898C141.804 302.24 141.681 302.746 141.681 303.417ZM149.864 306C149.812 305.896 149.77 305.71 149.737 305.443C149.317 305.88 148.816 306.098 148.233 306.098C147.713 306.098 147.285 305.951 146.949 305.658C146.617 305.362 146.451 304.988 146.451 304.535C146.451 303.985 146.66 303.559 147.076 303.256C147.496 302.95 148.085 302.797 148.844 302.797H149.723V302.382C149.723 302.066 149.628 301.815 149.439 301.63C149.251 301.441 148.972 301.347 148.604 301.347C148.282 301.347 148.012 301.428 147.794 301.591C147.576 301.754 147.467 301.951 147.467 302.182H146.559C146.559 301.918 146.651 301.664 146.837 301.42C147.026 301.173 147.28 300.977 147.599 300.834C147.921 300.691 148.274 300.619 148.658 300.619C149.267 300.619 149.744 300.772 150.089 301.078C150.434 301.381 150.613 301.799 150.626 302.333V304.765C150.626 305.25 150.688 305.635 150.812 305.922V306H149.864ZM148.365 305.312C148.648 305.312 148.917 305.238 149.171 305.092C149.425 304.945 149.609 304.755 149.723 304.521V303.437H149.015C147.908 303.437 147.354 303.76 147.354 304.408C147.354 304.691 147.449 304.913 147.638 305.072C147.826 305.232 148.069 305.312 148.365 305.312ZM156.515 303.417C156.515 304.224 156.329 304.874 155.958 305.365C155.587 305.854 155.089 306.098 154.464 306.098C153.797 306.098 153.281 305.862 152.916 305.39L152.872 306H152.042V298.5H152.945V301.298C153.31 300.845 153.813 300.619 154.454 300.619C155.095 300.619 155.598 300.862 155.963 301.347C156.331 301.832 156.515 302.496 156.515 303.339V303.417ZM155.611 303.314C155.611 302.699 155.493 302.224 155.255 301.889C155.017 301.553 154.675 301.386 154.229 301.386C153.634 301.386 153.206 301.662 152.945 302.216V304.501C153.222 305.054 153.653 305.331 154.239 305.331C154.672 305.331 155.009 305.163 155.25 304.828C155.491 304.493 155.611 303.988 155.611 303.314ZM115.479 318V313.415H114.645V312.717H115.479V312.268C115.479 311.678 115.647 311.219 115.982 310.891C116.321 310.562 116.798 310.397 117.413 310.397C117.778 310.397 118.238 310.497 118.795 310.695L118.644 311.457C118.237 311.294 117.849 311.213 117.481 311.213C117.094 311.213 116.814 311.301 116.642 311.477C116.472 311.649 116.388 311.91 116.388 312.258V312.717H117.467V313.415H116.388V318H115.479ZM119.244 318H118.336V312.717H119.244V318ZM123.268 313.527C123.131 313.505 122.983 313.493 122.823 313.493C122.231 313.493 121.829 313.745 121.617 314.25V318H120.714V312.717H121.593L121.607 313.327C121.904 312.855 122.324 312.619 122.867 312.619C123.043 312.619 123.176 312.642 123.268 312.688V313.527ZM127.179 316.599C127.179 316.354 127.086 316.166 126.9 316.032C126.718 315.896 126.397 315.778 125.938 315.681C125.483 315.583 125.12 315.466 124.85 315.329C124.583 315.192 124.384 315.03 124.254 314.841C124.127 314.652 124.063 314.427 124.063 314.167C124.063 313.734 124.246 313.368 124.61 313.068C124.978 312.769 125.447 312.619 126.017 312.619C126.616 312.619 127.101 312.774 127.472 313.083C127.846 313.392 128.033 313.788 128.033 314.27H127.125C127.125 314.022 127.019 313.809 126.808 313.63C126.599 313.451 126.336 313.361 126.017 313.361C125.688 313.361 125.431 313.433 125.245 313.576C125.06 313.719 124.967 313.907 124.967 314.138C124.967 314.356 125.053 314.52 125.226 314.631C125.398 314.742 125.709 314.847 126.158 314.948C126.611 315.049 126.977 315.17 127.257 315.31C127.537 315.45 127.743 315.619 127.877 315.817C128.014 316.013 128.082 316.252 128.082 316.535C128.082 317.007 127.893 317.386 127.516 317.673C127.138 317.956 126.648 318.098 126.046 318.098C125.623 318.098 125.248 318.023 124.923 317.873C124.597 317.723 124.342 317.515 124.156 317.248C123.974 316.978 123.883 316.687 123.883 316.374H124.786C124.802 316.677 124.923 316.918 125.147 317.097C125.375 317.272 125.675 317.36 126.046 317.36C126.388 317.36 126.661 317.292 126.866 317.155C127.075 317.015 127.179 316.83 127.179 316.599ZM130.484 311.438V312.717H131.471V313.415H130.484V316.691C130.484 316.903 130.528 317.062 130.616 317.17C130.704 317.274 130.854 317.326 131.065 317.326C131.17 317.326 131.313 317.307 131.495 317.268V318C131.257 318.065 131.026 318.098 130.802 318.098C130.398 318.098 130.094 317.976 129.889 317.731C129.684 317.487 129.581 317.141 129.581 316.691V313.415H128.619V312.717H129.581V311.438H130.484ZM137.13 317.36C137.452 317.36 137.734 317.263 137.975 317.067C138.215 316.872 138.349 316.628 138.375 316.335H139.229C139.213 316.638 139.109 316.926 138.917 317.199C138.725 317.473 138.468 317.691 138.146 317.854C137.826 318.016 137.488 318.098 137.13 318.098C136.41 318.098 135.838 317.858 135.411 317.38C134.988 316.898 134.776 316.241 134.776 315.407V315.256C134.776 314.742 134.871 314.284 135.06 313.884C135.248 313.483 135.519 313.173 135.87 312.951C136.225 312.73 136.643 312.619 137.125 312.619C137.717 312.619 138.209 312.797 138.6 313.151C138.993 313.506 139.203 313.967 139.229 314.533H138.375C138.349 314.191 138.219 313.911 137.984 313.693C137.753 313.472 137.467 313.361 137.125 313.361C136.666 313.361 136.31 313.527 136.056 313.859C135.805 314.188 135.68 314.665 135.68 315.29V315.461C135.68 316.07 135.805 316.538 136.056 316.867C136.306 317.196 136.664 317.36 137.13 317.36ZM140.006 315.31C140.006 314.792 140.107 314.326 140.309 313.913C140.514 313.5 140.797 313.181 141.158 312.956C141.523 312.731 141.938 312.619 142.403 312.619C143.123 312.619 143.704 312.868 144.146 313.366C144.592 313.864 144.815 314.527 144.815 315.354V315.417C144.815 315.931 144.716 316.394 144.518 316.804C144.322 317.211 144.041 317.528 143.673 317.756C143.308 317.984 142.888 318.098 142.413 318.098C141.697 318.098 141.116 317.849 140.67 317.351C140.227 316.853 140.006 316.193 140.006 315.373V315.31ZM140.914 315.417C140.914 316.003 141.049 316.473 141.319 316.828C141.593 317.183 141.957 317.36 142.413 317.36C142.872 317.36 143.237 317.181 143.507 316.823C143.777 316.462 143.912 315.957 143.912 315.31C143.912 314.73 143.774 314.261 143.497 313.903C143.224 313.542 142.859 313.361 142.403 313.361C141.957 313.361 141.598 313.539 141.324 313.894C141.051 314.248 140.914 314.756 140.914 315.417ZM146.798 312.717L146.822 313.303C147.21 312.847 147.732 312.619 148.39 312.619C149.129 312.619 149.632 312.902 149.898 313.469C150.074 313.215 150.302 313.01 150.582 312.854C150.865 312.697 151.199 312.619 151.583 312.619C152.742 312.619 153.331 313.233 153.351 314.46V318H152.447V314.514C152.447 314.136 152.361 313.854 152.188 313.669C152.016 313.48 151.726 313.386 151.319 313.386C150.984 313.386 150.706 313.487 150.484 313.688C150.263 313.887 150.134 314.156 150.099 314.494V318H149.19V314.538C149.19 313.77 148.814 313.386 148.062 313.386C147.47 313.386 147.065 313.638 146.847 314.143V318H145.943V312.717H146.798ZM155.567 312.717L155.592 313.303C155.979 312.847 156.502 312.619 157.159 312.619C157.898 312.619 158.401 312.902 158.668 313.469C158.844 313.215 159.072 313.01 159.352 312.854C159.635 312.697 159.968 312.619 160.353 312.619C161.511 312.619 162.101 313.233 162.12 314.46V318H161.217V314.514C161.217 314.136 161.131 313.854 160.958 313.669C160.785 313.48 160.496 313.386 160.089 313.386C159.754 313.386 159.475 313.487 159.254 313.688C159.033 313.887 158.904 314.156 158.868 314.494V318H157.96V314.538C157.96 313.77 157.584 313.386 156.832 313.386C156.24 313.386 155.834 313.638 155.616 314.143V318H154.713V312.717H155.567ZM164.469 318H163.565V312.717H164.469V318ZM163.492 311.315C163.492 311.169 163.536 311.045 163.624 310.944C163.715 310.843 163.849 310.793 164.024 310.793C164.2 310.793 164.334 310.843 164.425 310.944C164.516 311.045 164.562 311.169 164.562 311.315C164.562 311.462 164.516 311.584 164.425 311.682C164.334 311.779 164.2 311.828 164.024 311.828C163.849 311.828 163.715 311.779 163.624 311.682C163.536 311.584 163.492 311.462 163.492 311.315ZM167.145 311.438V312.717H168.131V313.415H167.145V316.691C167.145 316.903 167.188 317.062 167.276 317.17C167.364 317.274 167.514 317.326 167.726 317.326C167.83 317.326 167.973 317.307 168.155 317.268V318C167.918 318.065 167.687 318.098 167.462 318.098C167.058 318.098 166.754 317.976 166.549 317.731C166.344 317.487 166.241 317.141 166.241 316.691V313.415H165.279V312.717H166.241V311.438H167.145Z" fill="black"/>
</svg>
