<svg width="1152" height="587" viewBox="0 0 1152 587" fill="none" xmlns="http://www.w3.org/2000/svg">
<path d="M0 0H1152V587H0V0Z" fill="white" fill-opacity="0.01"/>
<circle cx="140.5" cy="334.5" r="9.5" fill="#4000C7"/>
<rect x="158.031" y="351.209" width="18" height="41" rx="5" transform="rotate(-64.2277 158.031 351.209)" fill="black"/>
<path d="M154.739 339.602L163.675 340.07L160.662 346.309L154.739 339.602Z" fill="black"/>
<path d="M171.791 345.219L171.535 345.811C172.137 345.545 172.764 345.569 173.415 345.884C174.147 346.237 174.51 346.758 174.503 347.447C174.799 347.279 175.122 347.185 175.475 347.164C175.83 347.145 176.198 347.227 176.578 347.411C177.726 347.965 178.016 348.855 177.449 350.08L175.756 353.586L174.861 353.154L176.528 349.701C176.709 349.327 176.758 349.007 176.676 348.74C176.595 348.471 176.353 348.239 175.95 348.044C175.618 347.884 175.294 347.851 174.978 347.945C174.664 348.036 174.408 348.24 174.211 348.558L172.534 352.031L171.635 351.597L173.29 348.167C173.658 347.406 173.469 346.846 172.724 346.487C172.137 346.203 171.615 346.259 171.158 346.655L169.313 350.476L168.418 350.044L170.945 344.81L171.791 345.219ZM180.341 355.8C180.339 355.672 180.386 355.468 180.481 355.188C179.857 355.419 179.256 355.396 178.679 355.117C178.163 354.868 177.809 354.518 177.617 354.068C177.43 353.615 177.444 353.165 177.661 352.717C177.924 352.172 178.334 351.849 178.892 351.749C179.454 351.646 180.111 351.777 180.862 352.139L181.733 352.56L181.931 352.149C182.082 351.836 182.108 351.542 182.01 351.268C181.913 350.991 181.683 350.764 181.319 350.588C180.999 350.434 180.693 350.386 180.399 350.443C180.105 350.499 179.903 350.642 179.792 350.871L178.893 350.437C179.019 350.176 179.232 349.969 179.533 349.816C179.838 349.661 180.183 349.589 180.567 349.599C180.955 349.612 181.339 349.71 181.72 349.893C182.323 350.184 182.722 350.564 182.917 351.032C183.114 351.497 183.092 351.997 182.849 352.532L181.686 354.941C181.454 355.421 181.331 355.833 181.317 356.176L181.279 356.253L180.341 355.8ZM179.185 354.401C179.466 354.537 179.767 354.593 180.088 354.569C180.41 354.545 180.683 354.445 180.908 354.267L181.427 353.193L180.725 352.855C179.629 352.325 178.926 352.381 178.616 353.023C178.481 353.304 178.468 353.568 178.579 353.816C178.69 354.065 178.892 354.26 179.185 354.401ZM183.47 357.311L182.576 356.879L185.102 351.646L185.997 352.078L183.47 357.311ZM185.7 350.223C185.77 350.078 185.873 349.976 186.008 349.918C186.147 349.862 186.303 349.876 186.477 349.96C186.651 350.044 186.759 350.158 186.801 350.301C186.843 350.445 186.829 350.589 186.759 350.734C186.689 350.879 186.586 350.978 186.449 351.031C186.312 351.085 186.156 351.069 185.982 350.985C185.808 350.901 185.699 350.789 185.655 350.648C185.615 350.51 185.63 350.368 185.7 350.223ZM188.28 353.18L187.992 353.852C188.634 353.542 189.278 353.543 189.923 353.854C191.029 354.388 191.286 355.281 190.693 356.534L189.023 359.992L188.128 359.56L189.8 356.097C189.979 355.718 190.027 355.397 189.943 355.134C189.863 354.873 189.643 354.655 189.285 354.483C188.995 354.343 188.703 354.297 188.409 354.346C188.115 354.395 187.846 354.515 187.602 354.708L185.802 358.437L184.907 358.005L187.434 352.771L188.28 353.18Z" fill="white"/>
<path d="M133.358 309.604H133.766C134.021 309.6 134.223 309.532 134.369 309.401C134.516 309.271 134.589 309.094 134.589 308.871C134.589 308.371 134.34 308.121 133.842 308.121C133.607 308.121 133.42 308.188 133.279 308.323C133.141 308.456 133.071 308.633 133.071 308.854H132.529C132.529 308.516 132.652 308.235 132.898 308.013C133.146 307.788 133.461 307.676 133.842 307.676C134.244 307.676 134.56 307.782 134.788 307.995C135.017 308.208 135.131 308.504 135.131 308.883C135.131 309.068 135.07 309.248 134.949 309.422C134.83 309.596 134.667 309.726 134.46 309.812C134.694 309.886 134.875 310.009 135.002 310.181C135.131 310.353 135.195 310.562 135.195 310.811C135.195 311.193 135.07 311.497 134.82 311.722C134.57 311.946 134.245 312.059 133.845 312.059C133.444 312.059 133.118 311.95 132.866 311.733C132.616 311.517 132.491 311.23 132.491 310.875H133.036C133.036 311.1 133.109 311.279 133.256 311.414C133.402 311.549 133.599 311.616 133.845 311.616C134.106 311.616 134.307 311.548 134.445 311.411C134.584 311.274 134.653 311.078 134.653 310.822C134.653 310.574 134.577 310.384 134.425 310.251C134.272 310.118 134.053 310.05 133.766 310.046H133.358V309.604ZM137.311 312.059C136.881 312.059 136.531 311.918 136.262 311.637C135.992 311.354 135.857 310.976 135.857 310.503V310.403C135.857 310.089 135.917 309.809 136.036 309.562C136.157 309.314 136.325 309.121 136.54 308.982C136.757 308.842 136.991 308.771 137.243 308.771C137.655 308.771 137.976 308.907 138.204 309.179C138.433 309.45 138.547 309.839 138.547 310.345V310.57H136.399C136.407 310.883 136.498 311.136 136.672 311.329C136.848 311.521 137.07 311.616 137.34 311.616C137.531 311.616 137.693 311.577 137.826 311.499C137.959 311.421 138.075 311.317 138.175 311.188L138.506 311.446C138.24 311.854 137.842 312.059 137.311 312.059ZM137.243 309.217C137.024 309.217 136.841 309.297 136.692 309.457C136.544 309.615 136.452 309.838 136.417 310.125H138.005V310.084C137.989 309.809 137.915 309.596 137.782 309.445C137.649 309.293 137.47 309.217 137.243 309.217ZM139.443 312V309.249H138.942V308.83H139.443V308.505C139.443 308.165 139.534 307.902 139.716 307.717C139.897 307.531 140.154 307.438 140.486 307.438C140.611 307.438 140.735 307.455 140.858 307.488L140.829 307.928C140.737 307.91 140.64 307.901 140.536 307.901C140.36 307.901 140.225 307.953 140.129 308.057C140.033 308.158 139.985 308.305 139.985 308.496V308.83H140.662V309.249H139.985V312H139.443ZM141.063 310.389C141.063 309.895 141.178 309.502 141.406 309.211C141.635 308.918 141.938 308.771 142.314 308.771C142.701 308.771 143.003 308.908 143.22 309.182L143.246 308.83H143.741V311.924C143.741 312.334 143.619 312.657 143.375 312.894C143.133 313.13 142.807 313.248 142.396 313.248C142.168 313.248 141.944 313.199 141.726 313.102C141.507 313.004 141.34 312.87 141.225 312.7L141.506 312.375C141.738 312.662 142.022 312.806 142.358 312.806C142.622 312.806 142.827 312.731 142.974 312.583C143.122 312.435 143.196 312.226 143.196 311.956V311.684C142.979 311.934 142.684 312.059 142.309 312.059C141.938 312.059 141.637 311.909 141.406 311.61C141.178 311.312 141.063 310.904 141.063 310.389ZM141.608 310.45C141.608 310.808 141.682 311.089 141.828 311.294C141.975 311.497 142.18 311.599 142.443 311.599C142.785 311.599 143.036 311.443 143.196 311.133V309.686C143.03 309.383 142.781 309.231 142.449 309.231C142.186 309.231 141.979 309.334 141.831 309.539C141.683 309.744 141.608 310.048 141.608 310.45ZM146.519 312C146.487 311.938 146.462 311.826 146.442 311.666C146.19 311.928 145.89 312.059 145.54 312.059C145.228 312.059 144.971 311.971 144.77 311.795C144.57 311.617 144.471 311.393 144.471 311.121C144.471 310.791 144.596 310.535 144.846 310.354C145.098 310.17 145.451 310.078 145.906 310.078H146.434V309.829C146.434 309.64 146.377 309.489 146.264 309.378C146.15 309.265 145.983 309.208 145.763 309.208C145.569 309.208 145.407 309.257 145.276 309.354C145.146 309.452 145.08 309.57 145.08 309.709H144.535C144.535 309.551 144.591 309.398 144.702 309.252C144.815 309.104 144.968 308.986 145.159 308.9C145.353 308.814 145.564 308.771 145.795 308.771C146.16 308.771 146.446 308.863 146.653 309.047C146.86 309.229 146.968 309.479 146.976 309.8V311.259C146.976 311.55 147.013 311.781 147.087 311.953V312H146.519ZM145.619 311.587C145.789 311.587 145.95 311.543 146.103 311.455C146.255 311.367 146.365 311.253 146.434 311.112V310.462H146.009C145.345 310.462 145.013 310.656 145.013 311.045C145.013 311.215 145.069 311.348 145.183 311.443C145.296 311.539 145.441 311.587 145.619 311.587ZM150.509 310.45C150.509 310.935 150.397 311.324 150.175 311.619C149.952 311.912 149.653 312.059 149.278 312.059C148.878 312.059 148.568 311.917 148.35 311.634L148.323 312H147.825V307.5H148.367V309.179C148.586 308.907 148.888 308.771 149.272 308.771C149.657 308.771 149.959 308.917 150.178 309.208C150.398 309.499 150.509 309.897 150.509 310.403V310.45ZM149.967 310.389C149.967 310.02 149.896 309.734 149.753 309.533C149.61 309.332 149.405 309.231 149.138 309.231C148.78 309.231 148.523 309.397 148.367 309.729V311.101C148.533 311.433 148.792 311.599 149.144 311.599C149.403 311.599 149.605 311.498 149.75 311.297C149.895 311.096 149.967 310.793 149.967 310.389ZM125.888 319V316.249H125.387V315.83H125.888V315.561C125.888 315.207 125.988 314.932 126.189 314.734C126.393 314.537 126.679 314.438 127.048 314.438C127.267 314.438 127.543 314.498 127.877 314.617L127.786 315.074C127.542 314.977 127.31 314.928 127.089 314.928C126.856 314.928 126.688 314.98 126.585 315.086C126.483 315.189 126.433 315.346 126.433 315.555V315.83H127.08V316.249H126.433V319H125.888ZM128.146 319H127.602V315.83H128.146V319ZM130.561 316.316C130.479 316.303 130.39 316.296 130.294 316.296C129.938 316.296 129.697 316.447 129.57 316.75V319H129.028V315.83H129.556L129.564 316.196C129.742 315.913 129.994 315.771 130.32 315.771C130.426 315.771 130.506 315.785 130.561 315.812V316.316ZM132.907 318.159C132.907 318.013 132.852 317.899 132.74 317.819C132.631 317.737 132.438 317.667 132.163 317.608C131.89 317.55 131.672 317.479 131.51 317.397C131.35 317.315 131.23 317.218 131.152 317.104C131.076 316.991 131.038 316.856 131.038 316.7C131.038 316.44 131.147 316.221 131.366 316.041C131.587 315.861 131.868 315.771 132.21 315.771C132.569 315.771 132.86 315.864 133.083 316.05C133.308 316.235 133.42 316.473 133.42 316.762H132.875C132.875 316.613 132.812 316.485 132.685 316.378C132.56 316.271 132.401 316.217 132.21 316.217C132.013 316.217 131.858 316.26 131.747 316.346C131.636 316.432 131.58 316.544 131.58 316.683C131.58 316.813 131.632 316.912 131.735 316.979C131.839 317.045 132.025 317.108 132.295 317.169C132.566 317.229 132.786 317.302 132.954 317.386C133.122 317.47 133.246 317.571 133.326 317.69C133.408 317.808 133.449 317.951 133.449 318.121C133.449 318.404 133.336 318.632 133.109 318.804C132.883 318.974 132.589 319.059 132.228 319.059C131.974 319.059 131.749 319.014 131.554 318.924C131.358 318.834 131.205 318.709 131.094 318.549C130.984 318.387 130.93 318.212 130.93 318.024H131.472C131.481 318.206 131.554 318.351 131.688 318.458C131.825 318.563 132.005 318.616 132.228 318.616C132.433 318.616 132.597 318.575 132.72 318.493C132.845 318.409 132.907 318.298 132.907 318.159ZM134.891 315.062V315.83H135.482V316.249H134.891V318.215C134.891 318.342 134.917 318.438 134.97 318.502C135.022 318.564 135.112 318.596 135.239 318.596C135.302 318.596 135.388 318.584 135.497 318.561V319C135.354 319.039 135.216 319.059 135.081 319.059C134.839 319.059 134.656 318.985 134.533 318.839C134.41 318.692 134.349 318.484 134.349 318.215V316.249H133.771V315.83H134.349V315.062H134.891ZM138.878 318.616C139.071 318.616 139.24 318.558 139.385 318.44C139.529 318.323 139.609 318.177 139.625 318.001H140.138C140.128 318.183 140.065 318.355 139.95 318.52C139.835 318.684 139.681 318.814 139.487 318.912C139.296 319.01 139.093 319.059 138.878 319.059C138.446 319.059 138.103 318.915 137.847 318.628C137.593 318.339 137.466 317.944 137.466 317.444V317.354C137.466 317.045 137.522 316.771 137.636 316.53C137.749 316.29 137.911 316.104 138.122 315.971C138.335 315.838 138.586 315.771 138.875 315.771C139.23 315.771 139.525 315.878 139.76 316.091C139.996 316.304 140.122 316.58 140.138 316.92H139.625C139.609 316.715 139.531 316.547 139.391 316.416C139.252 316.283 139.08 316.217 138.875 316.217C138.6 316.217 138.386 316.316 138.233 316.516C138.083 316.713 138.008 316.999 138.008 317.374V317.477C138.008 317.842 138.083 318.123 138.233 318.32C138.384 318.518 138.599 318.616 138.878 318.616ZM140.604 317.386C140.604 317.075 140.664 316.796 140.785 316.548C140.908 316.3 141.078 316.108 141.295 315.974C141.514 315.839 141.763 315.771 142.042 315.771C142.474 315.771 142.822 315.921 143.088 316.22C143.355 316.519 143.489 316.916 143.489 317.412V317.45C143.489 317.759 143.43 318.036 143.311 318.282C143.193 318.526 143.024 318.717 142.804 318.854C142.585 318.99 142.333 319.059 142.048 319.059C141.618 319.059 141.27 318.909 141.002 318.61C140.736 318.312 140.604 317.916 140.604 317.424V317.386ZM141.148 317.45C141.148 317.802 141.229 318.084 141.392 318.297C141.556 318.51 141.774 318.616 142.048 318.616C142.323 318.616 142.542 318.509 142.704 318.294C142.866 318.077 142.947 317.774 142.947 317.386C142.947 317.038 142.864 316.757 142.698 316.542C142.534 316.325 142.315 316.217 142.042 316.217C141.774 316.217 141.559 316.323 141.395 316.536C141.23 316.749 141.148 317.054 141.148 317.45ZM144.679 315.83L144.693 316.182C144.926 315.908 145.239 315.771 145.634 315.771C146.077 315.771 146.379 315.941 146.539 316.281C146.645 316.129 146.781 316.006 146.949 315.912C147.119 315.818 147.319 315.771 147.55 315.771C148.245 315.771 148.599 316.14 148.61 316.876V319H148.068V316.908C148.068 316.682 148.017 316.513 147.913 316.401C147.81 316.288 147.636 316.231 147.392 316.231C147.19 316.231 147.023 316.292 146.891 316.413C146.758 316.532 146.681 316.693 146.659 316.896V319H146.114V316.923C146.114 316.462 145.889 316.231 145.438 316.231C145.082 316.231 144.839 316.383 144.708 316.686V319H144.166V315.83H144.679ZM149.94 315.83L149.955 316.182C150.188 315.908 150.501 315.771 150.896 315.771C151.339 315.771 151.641 315.941 151.801 316.281C151.906 316.129 152.043 316.006 152.211 315.912C152.381 315.818 152.581 315.771 152.812 315.771C153.507 315.771 153.86 316.14 153.872 316.876V319H153.33V316.908C153.33 316.682 153.278 316.513 153.175 316.401C153.071 316.288 152.897 316.231 152.653 316.231C152.452 316.231 152.285 316.292 152.152 316.413C152.02 316.532 151.942 316.693 151.921 316.896V319H151.376V316.923C151.376 316.462 151.15 316.231 150.699 316.231C150.344 316.231 150.101 316.383 149.97 316.686V319H149.428V315.83H149.94ZM155.281 319H154.739V315.83H155.281V319ZM154.695 314.989C154.695 314.901 154.722 314.827 154.774 314.767C154.829 314.706 154.909 314.676 155.015 314.676C155.12 314.676 155.2 314.706 155.255 314.767C155.31 314.827 155.337 314.901 155.337 314.989C155.337 315.077 155.31 315.15 155.255 315.209C155.2 315.268 155.12 315.297 155.015 315.297C154.909 315.297 154.829 315.268 154.774 315.209C154.722 315.15 154.695 315.077 154.695 314.989ZM156.887 315.062V315.83H157.479V316.249H156.887V318.215C156.887 318.342 156.913 318.438 156.966 318.502C157.019 318.564 157.108 318.596 157.235 318.596C157.298 318.596 157.384 318.584 157.493 318.561V319C157.351 319.039 157.212 319.059 157.077 319.059C156.835 319.059 156.652 318.985 156.529 318.839C156.406 318.692 156.345 318.484 156.345 318.215V316.249H155.768V315.83H156.345V315.062H156.887Z" fill="black"/>
</svg>
