<svg width="1152" height="587" viewBox="0 0 1152 587" fill="none" xmlns="http://www.w3.org/2000/svg">
<path d="M0 0H1152V587H0V0Z" fill="white" fill-opacity="0.01"/>
<path d="M52.665 551H51.7617V545.717H52.665V551ZM51.6885 544.315C51.6885 544.169 51.7324 544.045 51.8203 543.944C51.9115 543.843 52.0449 543.793 52.2207 543.793C52.3965 543.793 52.5299 543.843 52.6211 543.944C52.7122 544.045 52.7578 544.169 52.7578 544.315C52.7578 544.462 52.7122 544.584 52.6211 544.682C52.5299 544.779 52.3965 544.828 52.2207 544.828C52.0449 544.828 51.9115 544.779 51.8203 544.682C51.7324 544.584 51.6885 544.462 51.6885 544.315ZM54.9697 545.717L54.999 546.381C55.4027 545.873 55.93 545.619 56.5811 545.619C57.6976 545.619 58.2607 546.249 58.2705 547.509V551H57.3672V547.504C57.3639 547.123 57.276 546.841 57.1035 546.659C56.9342 546.477 56.6689 546.386 56.3076 546.386C56.0146 546.386 55.7575 546.464 55.5361 546.62C55.3148 546.776 55.1423 546.981 55.0186 547.235V551H54.1152V545.717H54.9697ZM59.4131 548.314C59.4131 547.504 59.6051 546.853 59.9893 546.361C60.3734 545.867 60.8763 545.619 61.498 545.619C62.1165 545.619 62.6064 545.831 62.9678 546.254V543.5H63.8711V551H63.041L62.9971 550.434C62.6357 550.876 62.1328 551.098 61.4883 551.098C60.8763 551.098 60.3766 550.847 59.9893 550.346C59.6051 549.844 59.4131 549.19 59.4131 548.383V548.314ZM60.3164 548.417C60.3164 549.016 60.4401 549.485 60.6875 549.823C60.9349 550.162 61.2767 550.331 61.7129 550.331C62.2858 550.331 62.7041 550.074 62.9678 549.56V547.133C62.6976 546.635 62.2826 546.386 61.7227 546.386C61.2799 546.386 60.9349 546.557 60.6875 546.898C60.4401 547.24 60.3164 547.746 60.3164 548.417ZM67.4697 551.098C66.7536 551.098 66.1709 550.863 65.7217 550.395C65.2725 549.923 65.0479 549.293 65.0479 548.505V548.339C65.0479 547.815 65.1471 547.348 65.3457 546.938C65.5475 546.524 65.8275 546.202 66.1855 545.971C66.5469 545.736 66.9375 545.619 67.3574 545.619C68.0443 545.619 68.5781 545.845 68.959 546.298C69.3398 546.75 69.5303 547.398 69.5303 548.241V548.617H65.9512C65.9642 549.138 66.1156 549.56 66.4053 549.882C66.6982 550.201 67.0693 550.36 67.5186 550.36C67.8376 550.36 68.1077 550.295 68.3291 550.165C68.5505 550.035 68.7441 549.862 68.9102 549.647L69.4619 550.077C69.0192 550.757 68.3551 551.098 67.4697 551.098ZM67.3574 546.361C66.9928 546.361 66.6868 546.495 66.4395 546.762C66.1921 547.025 66.0391 547.396 65.9805 547.875H68.627V547.807C68.6009 547.348 68.4772 546.993 68.2559 546.742C68.0345 546.488 67.735 546.361 67.3574 546.361ZM72.3525 547.646L73.5244 545.717H74.5791L72.8506 548.329L74.6328 551H73.5879L72.3672 549.022L71.1465 551H70.0967L71.8789 548.329L70.1504 545.717H71.1953L72.3525 547.646ZM75.5605 550.526C75.5605 550.37 75.6061 550.24 75.6973 550.136C75.7917 550.032 75.9316 549.979 76.1172 549.979C76.3027 549.979 76.4427 550.032 76.5371 550.136C76.6348 550.24 76.6836 550.37 76.6836 550.526C76.6836 550.676 76.6348 550.801 76.5371 550.902C76.4427 551.003 76.3027 551.054 76.1172 551.054C75.9316 551.054 75.7917 551.003 75.6973 550.902C75.6061 550.801 75.5605 550.676 75.5605 550.526ZM79.1104 545.717V551.61C79.1104 552.626 78.6497 553.134 77.7285 553.134C77.5299 553.134 77.346 553.104 77.1768 553.046V552.323C77.2809 552.349 77.4176 552.362 77.5869 552.362C77.7887 552.362 77.9417 552.307 78.0459 552.196C78.1533 552.089 78.207 551.9 78.207 551.63V545.717H79.1104ZM78.1143 544.315C78.1143 544.172 78.1582 544.05 78.2461 543.949C78.3372 543.845 78.4691 543.793 78.6416 543.793C78.8174 543.793 78.9508 543.843 79.042 543.944C79.1331 544.045 79.1787 544.169 79.1787 544.315C79.1787 544.462 79.1331 544.584 79.042 544.682C78.9508 544.779 78.8174 544.828 78.6416 544.828C78.4658 544.828 78.334 544.779 78.2461 544.682C78.1582 544.584 78.1143 544.462 78.1143 544.315ZM83.6465 549.599C83.6465 549.354 83.5537 549.166 83.3682 549.032C83.1859 548.896 82.8652 548.778 82.4062 548.681C81.9505 548.583 81.5876 548.466 81.3174 548.329C81.0505 548.192 80.8519 548.03 80.7217 547.841C80.5947 547.652 80.5312 547.427 80.5312 547.167C80.5312 546.734 80.7135 546.368 81.0781 546.068C81.446 545.769 81.9147 545.619 82.4844 545.619C83.0833 545.619 83.5684 545.774 83.9395 546.083C84.3138 546.392 84.501 546.788 84.501 547.27H83.5928C83.5928 547.022 83.487 546.809 83.2754 546.63C83.0671 546.451 82.8034 546.361 82.4844 546.361C82.1556 546.361 81.8984 546.433 81.7129 546.576C81.5273 546.719 81.4346 546.907 81.4346 547.138C81.4346 547.356 81.5208 547.52 81.6934 547.631C81.8659 547.742 82.1768 547.847 82.626 547.948C83.0785 548.049 83.4447 548.17 83.7246 548.31C84.0046 548.45 84.2113 548.619 84.3447 548.817C84.4814 549.013 84.5498 549.252 84.5498 549.535C84.5498 550.007 84.361 550.386 83.9834 550.673C83.6058 550.956 83.1159 551.098 82.5137 551.098C82.0905 551.098 81.7161 551.023 81.3906 550.873C81.0651 550.723 80.8096 550.515 80.624 550.248C80.4417 549.978 80.3506 549.687 80.3506 549.374H81.2539C81.2702 549.677 81.3906 549.918 81.6152 550.097C81.8431 550.272 82.1426 550.36 82.5137 550.36C82.8555 550.36 83.1289 550.292 83.334 550.155C83.5423 550.015 83.6465 549.83 83.6465 549.599Z" fill="#4000C7"/>
<path d="M77.7463 521.016L71.9384 515.252C71.7764 515.091 71.5578 515 71.3284 515H59.8636C59.3859 515 59 515.383 59 515.857V538.143C59 538.617 59.3859 539 59.8636 539H77.1364C77.6141 539 78 538.617 78 538.143V521.624C78 521.396 77.9082 521.177 77.7463 521.016ZM76.0082 522.018H70.929V516.977L76.0082 522.018ZM76.0568 537.071H60.9432V516.929H69.0938V522.714C69.0938 523.013 69.2132 523.299 69.4258 523.51C69.6383 523.721 69.9266 523.839 70.2273 523.839H76.0568V537.071ZM68.2841 529.839H63.3182C63.1994 529.839 63.1023 529.936 63.1023 530.054V531.339C63.1023 531.457 63.1994 531.554 63.3182 531.554H68.2841C68.4028 531.554 68.5 531.457 68.5 531.339V530.054C68.5 529.936 68.4028 529.839 68.2841 529.839ZM63.1023 526.411V527.696C63.1023 527.814 63.1994 527.911 63.3182 527.911H73.6818C73.8006 527.911 73.8977 527.814 73.8977 527.696V526.411C73.8977 526.293 73.8006 526.196 73.6818 526.196H63.3182C63.1994 526.196 63.1023 526.293 63.1023 526.411Z" fill="#4000C7"/>
</svg>
