<svg width="1152" height="587" viewBox="0 0 1152 587" fill="none" xmlns="http://www.w3.org/2000/svg">
<path d="M0 0H1152V587H0V0Z" fill="white" fill-opacity="0.01"/>
<circle cx="382.5" cy="335.5" r="9" fill="white" stroke="#4000C7" stroke-dasharray="2 2"/>
<rect x="339" y="291" width="88" height="27" rx="13.5" fill="#7D7D7D"/>
<path d="M359.241 301.408V302.279H361.204V303.852H359.241V304.723H361.204V307.193H362.283V298.314H361.204V301.408H359.241ZM359.241 299.731H356.563V298.288H355.497V299.731H352.715V300.589H359.241V299.731ZM354.392 303.449C354.392 302.63 355.055 302.071 356.017 302.071C356.979 302.071 357.642 302.63 357.642 303.449C357.642 304.281 356.979 304.853 356.017 304.853C355.055 304.853 354.392 304.281 354.392 303.449ZM358.656 303.449C358.656 302.123 357.564 301.239 356.017 301.239C354.47 301.239 353.378 302.123 353.378 303.449C353.378 304.788 354.47 305.685 356.017 305.685C357.564 305.685 358.656 304.788 358.656 303.449ZM355.861 308.831V306.439H354.795V309.702H362.556V308.831H355.861ZM368.093 300.55H370.212V299.679H364.804V300.55H367.066V301.46C367.066 303.826 366.195 305.815 364.531 306.751L365.181 307.557C366.39 306.855 367.209 305.594 367.599 304.008C368.015 305.386 368.821 306.517 369.965 307.154L370.589 306.335C368.938 305.477 368.093 303.592 368.093 301.46V300.55ZM373.566 298.288V303.007H372.032V298.561H371.031V309.39H372.032V303.891H373.566V309.962H374.593V298.288H373.566ZM389.4 298.314H388.334V306.842H389.4V298.314ZM386.956 304.333C385.24 303.761 384.031 302.344 384.031 300.771V300.134H386.67V299.276H380.274V300.134H382.939V300.771C382.939 302.435 381.756 303.956 379.988 304.567L380.547 305.399C381.925 304.905 383.004 303.852 383.498 302.526C384.031 303.748 385.097 304.71 386.436 305.178L386.956 304.333ZM382.965 308.831V306.036H381.899V309.702H389.751V308.831H382.965ZM399.123 302.344H400.605V305.685H401.632V298.301H400.605V301.473H399.123V298.522H398.109V305.256H399.123V302.344ZM397.641 299.692H395.223V298.392H394.17V299.692H391.726V300.537H397.654L397.641 299.692ZM393.169 303.137C393.169 302.422 393.78 301.941 394.703 301.941C395.613 301.941 396.237 302.422 396.237 303.137C396.237 303.865 395.613 304.346 394.703 304.346C393.78 304.346 393.169 303.865 393.169 303.137ZM397.186 303.137C397.186 301.941 396.172 301.148 394.703 301.148C393.234 301.148 392.207 301.941 392.207 303.137C392.207 304.359 393.234 305.139 394.703 305.139C396.172 305.139 397.186 304.359 397.186 303.137ZM397.797 309.13C396.016 309.13 394.95 308.688 394.95 307.921C394.95 307.141 396.016 306.699 397.797 306.699C399.565 306.699 400.631 307.141 400.631 307.921C400.631 308.688 399.565 309.13 397.797 309.13ZM397.797 305.88C395.366 305.88 393.897 306.608 393.897 307.921C393.897 309.221 395.366 309.949 397.797 309.949C400.228 309.949 401.697 309.221 401.697 307.921C401.697 306.608 400.228 305.88 397.797 305.88ZM404.725 303.059C406.636 302.825 408.391 301.967 409.028 300.68C409.678 301.967 411.42 302.825 413.331 303.059L413.708 302.214C411.667 301.98 409.808 300.979 409.717 299.692H413.344V298.834H404.725V299.692H408.339C408.248 300.979 406.389 301.98 404.348 302.214L404.725 303.059ZM411.927 307.895C411.927 308.675 410.835 309.13 409.015 309.13C407.182 309.13 406.103 308.675 406.103 307.895C406.103 307.115 407.182 306.673 409.015 306.673C410.835 306.673 411.927 307.115 411.927 307.895ZM414.293 304.619V303.761H403.75V304.619H408.482V305.867C406.311 305.971 405.024 306.686 405.024 307.895C405.024 309.221 406.532 309.949 409.028 309.949C411.511 309.949 413.006 309.221 413.006 307.895C413.006 306.686 411.732 305.971 409.561 305.867V304.619H414.293Z" fill="white"/>
<path d="M383 355L378.849 359.013L384.4 360.601L383 355ZM274.335 398.963L274.35 399.462L274.335 398.963ZM152.748 416.234L152.385 415.89L152.748 416.234ZM141 439L144.769 434.626L139.097 433.549L141 439ZM381.3 359.134C378.357 366.206 370.179 375.471 353.428 383.257C336.683 391.041 311.401 397.33 274.32 398.463L274.35 399.462C311.523 398.327 336.948 392.021 353.85 384.164C370.746 376.311 379.154 366.892 382.224 359.519L381.3 359.134ZM274.32 398.463C222.935 400.033 195.294 401.407 179.105 403.865C171.005 405.096 165.734 406.602 161.777 408.561C157.809 410.524 155.192 412.928 152.385 415.89L153.11 416.578C155.884 413.651 158.406 411.345 162.221 409.457C166.046 407.564 171.201 406.077 179.255 404.854C195.371 402.406 222.944 401.033 274.35 399.462L274.32 398.463ZM152.385 415.89C145.926 422.704 142.728 429.662 141.359 434.441L142.32 434.717C143.649 430.079 146.772 423.266 153.11 416.578L152.385 415.89Z" fill="#4000C7"/>
<path d="M123.665 478H122.762V472.717H123.665V478ZM122.688 471.315C122.688 471.169 122.732 471.045 122.82 470.944C122.911 470.843 123.045 470.793 123.221 470.793C123.396 470.793 123.53 470.843 123.621 470.944C123.712 471.045 123.758 471.169 123.758 471.315C123.758 471.462 123.712 471.584 123.621 471.682C123.53 471.779 123.396 471.828 123.221 471.828C123.045 471.828 122.911 471.779 122.82 471.682C122.732 471.584 122.688 471.462 122.688 471.315ZM125.97 472.717L125.999 473.381C126.403 472.873 126.93 472.619 127.581 472.619C128.698 472.619 129.261 473.249 129.271 474.509V478H128.367V474.504C128.364 474.123 128.276 473.841 128.104 473.659C127.934 473.477 127.669 473.386 127.308 473.386C127.015 473.386 126.757 473.464 126.536 473.62C126.315 473.776 126.142 473.981 126.019 474.235V478H125.115V472.717H125.97ZM130.413 475.314C130.413 474.504 130.605 473.853 130.989 473.361C131.373 472.867 131.876 472.619 132.498 472.619C133.117 472.619 133.606 472.831 133.968 473.254V470.5H134.871V478H134.041L133.997 477.434C133.636 477.876 133.133 478.098 132.488 478.098C131.876 478.098 131.377 477.847 130.989 477.346C130.605 476.844 130.413 476.19 130.413 475.383V475.314ZM131.316 475.417C131.316 476.016 131.44 476.485 131.688 476.823C131.935 477.162 132.277 477.331 132.713 477.331C133.286 477.331 133.704 477.074 133.968 476.56V474.133C133.698 473.635 133.283 473.386 132.723 473.386C132.28 473.386 131.935 473.557 131.688 473.898C131.44 474.24 131.316 474.746 131.316 475.417ZM138.47 478.098C137.754 478.098 137.171 477.863 136.722 477.395C136.272 476.923 136.048 476.293 136.048 475.505V475.339C136.048 474.815 136.147 474.348 136.346 473.938C136.548 473.524 136.827 473.202 137.186 472.971C137.547 472.736 137.938 472.619 138.357 472.619C139.044 472.619 139.578 472.845 139.959 473.298C140.34 473.75 140.53 474.398 140.53 475.241V475.617H136.951C136.964 476.138 137.116 476.56 137.405 476.882C137.698 477.201 138.069 477.36 138.519 477.36C138.838 477.36 139.108 477.295 139.329 477.165C139.55 477.035 139.744 476.862 139.91 476.647L140.462 477.077C140.019 477.757 139.355 478.098 138.47 478.098ZM138.357 473.361C137.993 473.361 137.687 473.495 137.439 473.762C137.192 474.025 137.039 474.396 136.98 474.875H139.627V474.807C139.601 474.348 139.477 473.993 139.256 473.742C139.035 473.488 138.735 473.361 138.357 473.361ZM143.353 474.646L144.524 472.717H145.579L143.851 475.329L145.633 478H144.588L143.367 476.022L142.146 478H141.097L142.879 475.329L141.15 472.717H142.195L143.353 474.646ZM146.561 477.526C146.561 477.37 146.606 477.24 146.697 477.136C146.792 477.032 146.932 476.979 147.117 476.979C147.303 476.979 147.443 477.032 147.537 477.136C147.635 477.24 147.684 477.37 147.684 477.526C147.684 477.676 147.635 477.801 147.537 477.902C147.443 478.003 147.303 478.054 147.117 478.054C146.932 478.054 146.792 478.003 146.697 477.902C146.606 477.801 146.561 477.676 146.561 477.526ZM150.11 472.717V478.61C150.11 479.626 149.65 480.134 148.729 480.134C148.53 480.134 148.346 480.104 148.177 480.046V479.323C148.281 479.349 148.418 479.362 148.587 479.362C148.789 479.362 148.942 479.307 149.046 479.196C149.153 479.089 149.207 478.9 149.207 478.63V472.717H150.11ZM149.114 471.315C149.114 471.172 149.158 471.05 149.246 470.949C149.337 470.845 149.469 470.793 149.642 470.793C149.817 470.793 149.951 470.843 150.042 470.944C150.133 471.045 150.179 471.169 150.179 471.315C150.179 471.462 150.133 471.584 150.042 471.682C149.951 471.779 149.817 471.828 149.642 471.828C149.466 471.828 149.334 471.779 149.246 471.682C149.158 471.584 149.114 471.462 149.114 471.315ZM154.646 476.599C154.646 476.354 154.554 476.166 154.368 476.032C154.186 475.896 153.865 475.778 153.406 475.681C152.951 475.583 152.588 475.466 152.317 475.329C152.05 475.192 151.852 475.03 151.722 474.841C151.595 474.652 151.531 474.427 151.531 474.167C151.531 473.734 151.714 473.368 152.078 473.068C152.446 472.769 152.915 472.619 153.484 472.619C154.083 472.619 154.568 472.774 154.939 473.083C155.314 473.392 155.501 473.788 155.501 474.27H154.593C154.593 474.022 154.487 473.809 154.275 473.63C154.067 473.451 153.803 473.361 153.484 473.361C153.156 473.361 152.898 473.433 152.713 473.576C152.527 473.719 152.435 473.907 152.435 474.138C152.435 474.356 152.521 474.52 152.693 474.631C152.866 474.742 153.177 474.847 153.626 474.948C154.078 475.049 154.445 475.17 154.725 475.31C155.005 475.45 155.211 475.619 155.345 475.817C155.481 476.013 155.55 476.252 155.55 476.535C155.55 477.007 155.361 477.386 154.983 477.673C154.606 477.956 154.116 478.098 153.514 478.098C153.09 478.098 152.716 478.023 152.391 477.873C152.065 477.723 151.81 477.515 151.624 477.248C151.442 476.978 151.351 476.687 151.351 476.374H152.254C152.27 476.677 152.391 476.918 152.615 477.097C152.843 477.272 153.143 477.36 153.514 477.36C153.855 477.36 154.129 477.292 154.334 477.155C154.542 477.015 154.646 476.83 154.646 476.599Z" fill="#4000C7"/>
<path d="M148.746 448.016L142.938 442.252C142.776 442.091 142.558 442 142.328 442H130.864C130.386 442 130 442.383 130 442.857V465.143C130 465.617 130.386 466 130.864 466H148.136C148.614 466 149 465.617 149 465.143V448.624C149 448.396 148.908 448.177 148.746 448.016ZM147.008 449.018H141.929V443.977L147.008 449.018ZM147.057 464.071H131.943V443.929H140.094V449.714C140.094 450.013 140.213 450.299 140.426 450.51C140.638 450.721 140.927 450.839 141.227 450.839H147.057V464.071ZM139.284 456.839H134.318C134.199 456.839 134.102 456.936 134.102 457.054V458.339C134.102 458.457 134.199 458.554 134.318 458.554H139.284C139.403 458.554 139.5 458.457 139.5 458.339V457.054C139.5 456.936 139.403 456.839 139.284 456.839ZM134.102 453.411V454.696C134.102 454.814 134.199 454.911 134.318 454.911H144.682C144.801 454.911 144.898 454.814 144.898 454.696V453.411C144.898 453.293 144.801 453.196 144.682 453.196H134.318C134.199 453.196 134.102 453.293 134.102 453.411Z" fill="#4000C7"/>
<rect x="400.031" y="352.209" width="18" height="41" rx="5" transform="rotate(-64.2277 400.031 352.209)" fill="black"/>
<path d="M396.739 340.626L405.675 341.094L402.662 347.333L396.739 340.626Z" fill="black"/>
<path d="M413.791 346.219L413.535 346.811C414.137 346.545 414.764 346.569 415.415 346.884C416.147 347.237 416.51 347.758 416.503 348.447C416.799 348.279 417.122 348.185 417.475 348.164C417.83 348.145 418.198 348.227 418.578 348.411C419.726 348.965 420.016 349.855 419.449 351.08L417.756 354.586L416.861 354.154L418.528 350.701C418.709 350.327 418.758 350.007 418.676 349.74C418.595 349.471 418.353 349.239 417.95 349.044C417.618 348.884 417.294 348.851 416.978 348.945C416.664 349.036 416.408 349.24 416.211 349.558L414.534 353.031L413.635 352.597L415.29 349.167C415.658 348.406 415.469 347.846 414.724 347.487C414.137 347.203 413.615 347.259 413.158 347.655L411.313 351.476L410.418 351.044L412.945 345.81L413.791 346.219ZM422.341 356.8C422.339 356.672 422.386 356.468 422.481 356.188C421.857 356.419 421.256 356.396 420.679 356.117C420.163 355.868 419.809 355.518 419.617 355.068C419.43 354.615 419.444 354.165 419.661 353.717C419.924 353.172 420.334 352.849 420.892 352.749C421.454 352.646 422.111 352.777 422.862 353.139L423.733 353.56L423.931 353.149C424.082 352.836 424.108 352.542 424.01 352.268C423.913 351.991 423.683 351.764 423.319 351.588C422.999 351.434 422.693 351.386 422.399 351.443C422.105 351.499 421.903 351.642 421.792 351.871L420.893 351.437C421.019 351.176 421.232 350.969 421.533 350.816C421.838 350.661 422.183 350.589 422.567 350.599C422.955 350.612 423.339 350.71 423.72 350.893C424.323 351.184 424.722 351.564 424.917 352.032C425.114 352.497 425.092 352.997 424.849 353.532L423.686 355.941C423.454 356.421 423.331 356.833 423.317 357.176L423.279 357.253L422.341 356.8ZM421.185 355.401C421.466 355.537 421.767 355.593 422.088 355.569C422.41 355.545 422.683 355.445 422.908 355.267L423.427 354.193L422.725 353.855C421.629 353.325 420.926 353.381 420.616 354.023C420.481 354.304 420.468 354.568 420.579 354.816C420.69 355.065 420.892 355.26 421.185 355.401ZM425.47 358.311L424.576 357.879L427.102 352.646L427.997 353.078L425.47 358.311ZM427.7 351.223C427.77 351.078 427.873 350.976 428.008 350.918C428.147 350.862 428.303 350.876 428.477 350.96C428.651 351.044 428.759 351.158 428.801 351.301C428.843 351.445 428.829 351.589 428.759 351.734C428.689 351.879 428.586 351.978 428.449 352.031C428.312 352.085 428.156 352.069 427.982 351.985C427.808 351.901 427.699 351.789 427.655 351.648C427.615 351.51 427.63 351.368 427.7 351.223ZM430.28 354.18L429.992 354.852C430.634 354.542 431.278 354.543 431.923 354.854C433.029 355.388 433.286 356.281 432.693 357.534L431.023 360.992L430.128 360.56L431.8 357.097C431.979 356.718 432.027 356.397 431.943 356.134C431.863 355.873 431.643 355.655 431.285 355.483C430.995 355.343 430.703 355.297 430.409 355.346C430.115 355.395 429.846 355.515 429.602 355.708L427.802 359.437L426.907 359.005L429.434 353.771L430.28 354.18Z" fill="white"/>
<line x1="306" y1="335.5" x2="373" y2="335.5" stroke="#4000C7"/>
</svg>
