<svg width="1152" height="587" viewBox="0 0 1152 587" fill="none" xmlns="http://www.w3.org/2000/svg">
<path d="M0 0H1152V587H0V0Z" fill="white" fill-opacity="0.01"/>
<rect x="400.031" y="352.209" width="18" height="41" rx="5" transform="rotate(-64.2277 400.031 352.209)" fill="black"/>
<path d="M396.739 340.626L405.675 341.094L402.662 347.333L396.739 340.626Z" fill="black"/>
<path d="M413.791 346.219L413.535 346.811C414.137 346.545 414.764 346.569 415.415 346.884C416.147 347.237 416.51 347.758 416.503 348.447C416.799 348.279 417.122 348.185 417.475 348.164C417.83 348.145 418.198 348.227 418.578 348.411C419.726 348.965 420.016 349.855 419.449 351.08L417.756 354.586L416.861 354.154L418.528 350.701C418.709 350.327 418.758 350.007 418.676 349.74C418.595 349.471 418.353 349.239 417.95 349.044C417.618 348.884 417.294 348.851 416.978 348.945C416.664 349.036 416.408 349.24 416.211 349.558L414.534 353.031L413.635 352.597L415.29 349.167C415.658 348.406 415.469 347.846 414.724 347.487C414.137 347.203 413.615 347.259 413.158 347.655L411.313 351.476L410.418 351.044L412.945 345.81L413.791 346.219ZM422.341 356.8C422.339 356.672 422.386 356.468 422.481 356.188C421.857 356.419 421.256 356.396 420.679 356.117C420.163 355.868 419.809 355.518 419.617 355.068C419.43 354.615 419.444 354.165 419.661 353.717C419.924 353.172 420.334 352.849 420.892 352.749C421.454 352.646 422.111 352.777 422.862 353.139L423.733 353.56L423.931 353.149C424.082 352.836 424.108 352.542 424.01 352.268C423.913 351.991 423.683 351.764 423.319 351.588C422.999 351.434 422.693 351.386 422.399 351.443C422.105 351.499 421.903 351.642 421.792 351.871L420.893 351.437C421.019 351.176 421.232 350.969 421.533 350.816C421.838 350.661 422.183 350.589 422.567 350.599C422.955 350.612 423.339 350.71 423.72 350.893C424.323 351.184 424.722 351.564 424.917 352.032C425.114 352.497 425.092 352.997 424.849 353.532L423.686 355.941C423.454 356.421 423.331 356.833 423.317 357.176L423.279 357.253L422.341 356.8ZM421.185 355.401C421.466 355.537 421.767 355.593 422.088 355.569C422.41 355.545 422.683 355.445 422.908 355.267L423.427 354.193L422.725 353.855C421.629 353.325 420.926 353.381 420.616 354.023C420.481 354.304 420.468 354.568 420.579 354.816C420.69 355.065 420.892 355.26 421.185 355.401ZM425.47 358.311L424.576 357.879L427.102 352.646L427.997 353.078L425.47 358.311ZM427.7 351.223C427.77 351.078 427.873 350.976 428.008 350.918C428.147 350.862 428.303 350.876 428.477 350.96C428.651 351.044 428.759 351.158 428.801 351.301C428.843 351.445 428.829 351.589 428.759 351.734C428.689 351.879 428.586 351.978 428.449 352.031C428.312 352.085 428.156 352.069 427.982 351.985C427.808 351.901 427.699 351.789 427.655 351.648C427.615 351.51 427.63 351.368 427.7 351.223ZM430.28 354.18L429.992 354.852C430.634 354.542 431.278 354.543 431.923 354.854C433.029 355.388 433.286 356.281 432.693 357.534L431.023 360.992L430.128 360.56L431.8 357.097C431.979 356.718 432.027 356.397 431.943 356.134C431.863 355.873 431.643 355.655 431.285 355.483C430.995 355.343 430.703 355.297 430.409 355.346C430.115 355.395 429.846 355.515 429.602 355.708L427.802 359.437L426.907 359.005L429.434 353.771L430.28 354.18Z" fill="white"/>
<path d="M369.253 306H364.595V305.351L367.056 302.616C367.42 302.203 367.671 301.868 367.808 301.61C367.948 301.35 368.018 301.081 368.018 300.805C368.018 300.434 367.905 300.129 367.681 299.892C367.456 299.654 367.157 299.535 366.782 299.535C366.333 299.535 365.983 299.664 365.732 299.921C365.485 300.175 365.361 300.53 365.361 300.985H364.458C364.458 300.331 364.668 299.802 365.088 299.398C365.511 298.995 366.076 298.793 366.782 298.793C367.443 298.793 367.965 298.967 368.35 299.315C368.734 299.66 368.926 300.121 368.926 300.697C368.926 301.397 368.48 302.23 367.588 303.197L365.684 305.263H369.253V306ZM373.564 306C373.512 305.896 373.47 305.71 373.438 305.443C373.018 305.88 372.516 306.098 371.934 306.098C371.413 306.098 370.985 305.951 370.649 305.658C370.317 305.362 370.151 304.988 370.151 304.535C370.151 303.985 370.36 303.559 370.776 303.256C371.196 302.95 371.785 302.797 372.544 302.797H373.423V302.382C373.423 302.066 373.328 301.815 373.14 301.63C372.951 301.441 372.673 301.347 372.305 301.347C371.982 301.347 371.712 301.428 371.494 301.591C371.276 301.754 371.167 301.951 371.167 302.182H370.259C370.259 301.918 370.352 301.664 370.537 301.42C370.726 301.173 370.98 300.977 371.299 300.834C371.621 300.691 371.974 300.619 372.358 300.619C372.967 300.619 373.444 300.772 373.789 301.078C374.134 301.381 374.313 301.799 374.326 302.333V304.765C374.326 305.25 374.388 305.635 374.512 305.922V306H373.564ZM372.065 305.312C372.349 305.312 372.617 305.238 372.871 305.092C373.125 304.945 373.309 304.755 373.423 304.521V303.437H372.715C371.608 303.437 371.055 303.76 371.055 304.408C371.055 304.691 371.149 304.913 371.338 305.072C371.527 305.232 371.769 305.312 372.065 305.312ZM379.463 303.612H380.449V304.35H379.463V306H378.555V304.35H375.317V303.817L378.501 298.891H379.463V303.612ZM376.343 303.612H378.555V300.126L378.447 300.321L376.343 303.612ZM381.68 302.436L382.041 298.891H385.684V299.726H382.808L382.593 301.664C382.941 301.459 383.337 301.356 383.779 301.356C384.427 301.356 384.941 301.571 385.322 302.001C385.703 302.427 385.894 303.005 385.894 303.734C385.894 304.467 385.695 305.045 385.298 305.468C384.904 305.888 384.352 306.098 383.643 306.098C383.014 306.098 382.502 305.924 382.104 305.575C381.707 305.227 381.481 304.745 381.426 304.13H382.28C382.336 304.537 382.48 304.844 382.715 305.053C382.949 305.258 383.258 305.36 383.643 305.36C384.062 305.36 384.391 305.217 384.629 304.931C384.87 304.644 384.99 304.249 384.99 303.744C384.99 303.269 384.86 302.888 384.6 302.602C384.342 302.312 383.999 302.167 383.569 302.167C383.175 302.167 382.866 302.253 382.642 302.426L382.402 302.621L381.68 302.436ZM388.193 302.006H388.872C389.299 301.999 389.634 301.887 389.878 301.669C390.122 301.451 390.244 301.156 390.244 300.785C390.244 299.952 389.829 299.535 388.999 299.535C388.608 299.535 388.296 299.647 388.062 299.872C387.83 300.093 387.715 300.388 387.715 300.756H386.812C386.812 300.193 387.017 299.726 387.427 299.354C387.84 298.98 388.364 298.793 388.999 298.793C389.67 298.793 390.195 298.97 390.576 299.325C390.957 299.68 391.147 300.173 391.147 300.805C391.147 301.114 391.047 301.413 390.845 301.703C390.646 301.993 390.374 302.209 390.029 302.353C390.42 302.476 390.721 302.681 390.933 302.968C391.147 303.254 391.255 303.604 391.255 304.018C391.255 304.656 391.047 305.162 390.63 305.536C390.213 305.91 389.671 306.098 389.004 306.098C388.337 306.098 387.793 305.917 387.373 305.556C386.956 305.194 386.748 304.717 386.748 304.125H387.656C387.656 304.499 387.778 304.799 388.022 305.023C388.267 305.248 388.594 305.36 389.004 305.36C389.44 305.36 389.774 305.246 390.005 305.019C390.236 304.791 390.352 304.464 390.352 304.037C390.352 303.624 390.225 303.306 389.971 303.085C389.717 302.864 389.351 302.75 388.872 302.743H388.193V302.006ZM392.91 302.436L393.271 298.891H396.914V299.726H394.038L393.823 301.664C394.172 301.459 394.567 301.356 395.01 301.356C395.658 301.356 396.172 301.571 396.553 302.001C396.934 302.427 397.124 303.005 397.124 303.734C397.124 304.467 396.925 305.045 396.528 305.468C396.134 305.888 395.583 306.098 394.873 306.098C394.245 306.098 393.732 305.924 393.335 305.575C392.938 305.227 392.712 304.745 392.656 304.13H393.511C393.566 304.537 393.711 304.844 393.945 305.053C394.18 305.258 394.489 305.36 394.873 305.36C395.293 305.36 395.622 305.217 395.859 304.931C396.1 304.644 396.221 304.249 396.221 303.744C396.221 303.269 396.09 302.888 395.83 302.602C395.573 302.312 395.229 302.167 394.8 302.167C394.406 302.167 394.097 302.253 393.872 302.426L393.633 302.621L392.91 302.436ZM398.647 306V301.415H397.812V300.717H398.647V300.175C398.647 299.608 398.799 299.171 399.102 298.861C399.404 298.552 399.832 298.397 400.386 298.397C400.594 298.397 400.801 298.425 401.006 298.48L400.957 299.213C400.804 299.184 400.641 299.169 400.469 299.169C400.176 299.169 399.95 299.255 399.79 299.428C399.631 299.597 399.551 299.841 399.551 300.16V300.717H400.679V301.415H399.551V306H398.647ZM356.704 318H355.801V312.717H356.704V318ZM355.728 311.315C355.728 311.169 355.771 311.045 355.859 310.944C355.951 310.843 356.084 310.793 356.26 310.793C356.436 310.793 356.569 310.843 356.66 310.944C356.751 311.045 356.797 311.169 356.797 311.315C356.797 311.462 356.751 311.584 356.66 311.682C356.569 311.779 356.436 311.828 356.26 311.828C356.084 311.828 355.951 311.779 355.859 311.682C355.771 311.584 355.728 311.462 355.728 311.315ZM359.009 312.717L359.038 313.381C359.442 312.873 359.969 312.619 360.62 312.619C361.737 312.619 362.3 313.249 362.31 314.509V318H361.406V314.504C361.403 314.123 361.315 313.841 361.143 313.659C360.973 313.477 360.708 313.386 360.347 313.386C360.054 313.386 359.797 313.464 359.575 313.62C359.354 313.776 359.181 313.981 359.058 314.235V318H358.154V312.717H359.009ZM363.452 315.314C363.452 314.504 363.644 313.853 364.028 313.361C364.412 312.867 364.915 312.619 365.537 312.619C366.156 312.619 366.646 312.831 367.007 313.254V310.5H367.91V318H367.08L367.036 317.434C366.675 317.876 366.172 318.098 365.527 318.098C364.915 318.098 364.416 317.847 364.028 317.346C363.644 316.844 363.452 316.19 363.452 315.383V315.314ZM364.355 315.417C364.355 316.016 364.479 316.485 364.727 316.823C364.974 317.162 365.316 317.331 365.752 317.331C366.325 317.331 366.743 317.074 367.007 316.56V314.133C366.737 313.635 366.322 313.386 365.762 313.386C365.319 313.386 364.974 313.557 364.727 313.898C364.479 314.24 364.355 314.746 364.355 315.417ZM371.509 318.098C370.793 318.098 370.21 317.863 369.761 317.395C369.312 316.923 369.087 316.293 369.087 315.505V315.339C369.087 314.815 369.186 314.348 369.385 313.938C369.587 313.524 369.867 313.202 370.225 312.971C370.586 312.736 370.977 312.619 371.396 312.619C372.083 312.619 372.617 312.845 372.998 313.298C373.379 313.75 373.569 314.398 373.569 315.241V315.617H369.99C370.003 316.138 370.155 316.56 370.444 316.882C370.737 317.201 371.108 317.36 371.558 317.36C371.877 317.36 372.147 317.295 372.368 317.165C372.59 317.035 372.783 316.862 372.949 316.647L373.501 317.077C373.058 317.757 372.394 318.098 371.509 318.098ZM371.396 313.361C371.032 313.361 370.726 313.495 370.479 313.762C370.231 314.025 370.078 314.396 370.02 314.875H372.666V314.807C372.64 314.348 372.516 313.993 372.295 313.742C372.074 313.488 371.774 313.361 371.396 313.361ZM376.392 314.646L377.563 312.717H378.618L376.89 315.329L378.672 318H377.627L376.406 316.022L375.186 318H374.136L375.918 315.329L374.189 312.717H375.234L376.392 314.646ZM379.6 317.526C379.6 317.37 379.645 317.24 379.736 317.136C379.831 317.032 379.971 316.979 380.156 316.979C380.342 316.979 380.482 317.032 380.576 317.136C380.674 317.24 380.723 317.37 380.723 317.526C380.723 317.676 380.674 317.801 380.576 317.902C380.482 318.003 380.342 318.054 380.156 318.054C379.971 318.054 379.831 318.003 379.736 317.902C379.645 317.801 379.6 317.676 379.6 317.526ZM383.149 312.717V318.61C383.149 319.626 382.689 320.134 381.768 320.134C381.569 320.134 381.385 320.104 381.216 320.046V319.323C381.32 319.349 381.457 319.362 381.626 319.362C381.828 319.362 381.981 319.307 382.085 319.196C382.192 319.089 382.246 318.9 382.246 318.63V312.717H383.149ZM382.153 311.315C382.153 311.172 382.197 311.05 382.285 310.949C382.376 310.845 382.508 310.793 382.681 310.793C382.856 310.793 382.99 310.843 383.081 310.944C383.172 311.045 383.218 311.169 383.218 311.315C383.218 311.462 383.172 311.584 383.081 311.682C382.99 311.779 382.856 311.828 382.681 311.828C382.505 311.828 382.373 311.779 382.285 311.682C382.197 311.584 382.153 311.462 382.153 311.315ZM387.686 316.599C387.686 316.354 387.593 316.166 387.407 316.032C387.225 315.896 386.904 315.778 386.445 315.681C385.99 315.583 385.627 315.466 385.356 315.329C385.09 315.192 384.891 315.03 384.761 314.841C384.634 314.652 384.57 314.427 384.57 314.167C384.57 313.734 384.753 313.368 385.117 313.068C385.485 312.769 385.954 312.619 386.523 312.619C387.122 312.619 387.607 312.774 387.979 313.083C388.353 313.392 388.54 313.788 388.54 314.27H387.632C387.632 314.022 387.526 313.809 387.314 313.63C387.106 313.451 386.842 313.361 386.523 313.361C386.195 313.361 385.938 313.433 385.752 313.576C385.566 313.719 385.474 313.907 385.474 314.138C385.474 314.356 385.56 314.52 385.732 314.631C385.905 314.742 386.216 314.847 386.665 314.948C387.118 315.049 387.484 315.17 387.764 315.31C388.044 315.45 388.25 315.619 388.384 315.817C388.521 316.013 388.589 316.252 388.589 316.535C388.589 317.007 388.4 317.386 388.022 317.673C387.645 317.956 387.155 318.098 386.553 318.098C386.13 318.098 385.755 318.023 385.43 317.873C385.104 317.723 384.849 317.515 384.663 317.248C384.481 316.978 384.39 316.687 384.39 316.374H385.293C385.309 316.677 385.43 316.918 385.654 317.097C385.882 317.272 386.182 317.36 386.553 317.36C386.895 317.36 387.168 317.292 387.373 317.155C387.581 317.015 387.686 316.83 387.686 316.599ZM399.813 313.19C398.183 312.95 396.583 311.84 396.583 310.59V310.09H395.723V310.59C395.723 311.87 394.143 312.95 392.513 313.19L392.843 313.85C394.243 313.61 395.593 312.84 396.153 311.75C396.733 312.83 398.083 313.61 399.473 313.85L399.813 313.19ZM400.203 314.82H392.103V315.5H395.723V318.75H396.543V315.5H400.213L400.203 314.82ZM406.082 312.1V312.77H407.852V315.12H408.682V309.78H407.852V312.1H406.082ZM406.582 314.14C405.282 313.68 404.402 312.55 404.402 311.4V311.09H406.372V310.43H401.582V311.09H403.582V311.4C403.582 312.69 402.662 313.9 401.322 314.39L401.752 315.04C402.802 314.64 403.632 313.8 404.012 312.76C404.402 313.68 405.172 314.42 406.172 314.78L406.582 314.14ZM405.722 318.1C404.372 318.1 403.552 317.72 403.552 317.07C403.552 316.42 404.372 316.03 405.722 316.03C407.072 316.03 407.892 316.42 407.892 317.07C407.892 317.72 407.072 318.1 405.722 318.1ZM405.722 315.4C403.882 315.4 402.732 316.01 402.732 317.07C402.732 318.13 403.882 318.74 405.722 318.74C407.562 318.74 408.712 318.13 408.712 317.07C408.712 316.01 407.562 315.4 405.722 315.4Z" fill="black"/>
<circle cx="382.5" cy="335.5" r="9.5" fill="#4000C7"/>
<line x1="302" y1="335.5" x2="382" y2="335.5" stroke="#4000C7"/>
</svg>
