<svg width="1152" height="587" viewBox="0 0 1152 587" fill="none" xmlns="http://www.w3.org/2000/svg">
<path d="M0 0H1152V587H0V0Z" fill="white" fill-opacity="0.01"/>
<rect x="400.031" y="352.209" width="18" height="41" rx="5" transform="rotate(-64.2277 400.031 352.209)" fill="black"/>
<path d="M396.739 340.626L405.675 341.094L402.662 347.333L396.739 340.626Z" fill="black"/>
<path d="M413.791 346.219L413.535 346.811C414.137 346.545 414.764 346.569 415.415 346.884C416.147 347.237 416.51 347.758 416.503 348.447C416.799 348.279 417.122 348.185 417.475 348.164C417.83 348.145 418.198 348.227 418.578 348.411C419.726 348.965 420.016 349.855 419.449 351.08L417.756 354.586L416.861 354.154L418.528 350.701C418.709 350.327 418.758 350.007 418.676 349.74C418.595 349.471 418.353 349.239 417.95 349.044C417.618 348.884 417.294 348.851 416.978 348.945C416.664 349.036 416.408 349.24 416.211 349.558L414.534 353.031L413.635 352.597L415.29 349.167C415.658 348.406 415.469 347.846 414.724 347.487C414.137 347.203 413.615 347.259 413.158 347.655L411.313 351.476L410.418 351.044L412.945 345.81L413.791 346.219ZM422.341 356.8C422.339 356.672 422.386 356.468 422.481 356.188C421.857 356.419 421.256 356.396 420.679 356.117C420.163 355.868 419.809 355.518 419.617 355.068C419.43 354.615 419.444 354.165 419.661 353.717C419.924 353.172 420.334 352.849 420.892 352.749C421.454 352.646 422.111 352.777 422.862 353.139L423.733 353.56L423.931 353.149C424.082 352.836 424.108 352.542 424.01 352.268C423.913 351.991 423.683 351.764 423.319 351.588C422.999 351.434 422.693 351.386 422.399 351.443C422.105 351.499 421.903 351.642 421.792 351.871L420.893 351.437C421.019 351.176 421.232 350.969 421.533 350.816C421.838 350.661 422.183 350.589 422.567 350.599C422.955 350.612 423.339 350.71 423.72 350.893C424.323 351.184 424.722 351.564 424.917 352.032C425.114 352.497 425.092 352.997 424.849 353.532L423.686 355.941C423.454 356.421 423.331 356.833 423.317 357.176L423.279 357.253L422.341 356.8ZM421.185 355.401C421.466 355.537 421.767 355.593 422.088 355.569C422.41 355.545 422.683 355.445 422.908 355.267L423.427 354.193L422.725 353.855C421.629 353.325 420.926 353.381 420.616 354.023C420.481 354.304 420.468 354.568 420.579 354.816C420.69 355.065 420.892 355.26 421.185 355.401ZM425.47 358.311L424.576 357.879L427.102 352.646L427.997 353.078L425.47 358.311ZM427.7 351.223C427.77 351.078 427.873 350.976 428.008 350.918C428.147 350.862 428.303 350.876 428.477 350.96C428.651 351.044 428.759 351.158 428.801 351.301C428.843 351.445 428.829 351.589 428.759 351.734C428.689 351.879 428.586 351.978 428.449 352.031C428.312 352.085 428.156 352.069 427.982 351.985C427.808 351.901 427.699 351.789 427.655 351.648C427.615 351.51 427.63 351.368 427.7 351.223ZM430.28 354.18L429.992 354.852C430.634 354.542 431.278 354.543 431.923 354.854C433.029 355.388 433.286 356.281 432.693 357.534L431.023 360.992L430.128 360.56L431.8 357.097C431.979 356.718 432.027 356.397 431.943 356.134C431.863 355.873 431.643 355.655 431.285 355.483C430.995 355.343 430.703 355.297 430.409 355.346C430.115 355.395 429.846 355.515 429.602 355.708L427.802 359.437L426.907 359.005L429.434 353.771L430.28 354.18Z" fill="white"/>
<path d="M367.173 298.886V299.652H367.007C366.304 299.665 365.744 299.874 365.327 300.277C364.91 300.681 364.67 301.249 364.604 301.981C364.979 301.552 365.49 301.337 366.138 301.337C366.756 301.337 367.249 301.555 367.617 301.991C367.988 302.427 368.174 302.991 368.174 303.681C368.174 304.413 367.974 304.999 367.573 305.438C367.176 305.878 366.642 306.098 365.972 306.098C365.291 306.098 364.74 305.837 364.316 305.316C363.893 304.792 363.682 304.118 363.682 303.295V302.948C363.682 301.64 363.96 300.64 364.517 299.95C365.076 299.257 365.908 298.902 367.012 298.886H367.173ZM365.986 302.089C365.677 302.089 365.392 302.182 365.132 302.367C364.871 302.553 364.691 302.785 364.59 303.065V303.397C364.59 303.983 364.722 304.455 364.985 304.813C365.249 305.172 365.578 305.351 365.972 305.351C366.379 305.351 366.698 305.201 366.929 304.901C367.163 304.602 367.28 304.21 367.28 303.725C367.28 303.236 367.161 302.842 366.924 302.543C366.689 302.24 366.377 302.089 365.986 302.089ZM373.809 303.417C373.809 304.224 373.623 304.874 373.252 305.365C372.881 305.854 372.383 306.098 371.758 306.098C371.09 306.098 370.575 305.862 370.21 305.39L370.166 306H369.336V298.5H370.239V301.298C370.604 300.845 371.107 300.619 371.748 300.619C372.389 300.619 372.892 300.862 373.257 301.347C373.625 301.832 373.809 302.496 373.809 303.339V303.417ZM372.905 303.314C372.905 302.699 372.786 302.224 372.549 301.889C372.311 301.553 371.969 301.386 371.523 301.386C370.928 301.386 370.5 301.662 370.239 302.216V304.501C370.516 305.054 370.947 305.331 371.533 305.331C371.966 305.331 372.303 305.163 372.544 304.828C372.785 304.493 372.905 303.988 372.905 303.314ZM378.672 303.612H379.658V304.35H378.672V306H377.764V304.35H374.526V303.817L377.71 298.891H378.672V303.612ZM375.552 303.612H377.764V300.126L377.656 300.321L375.552 303.612ZM381.787 302.006H382.466C382.892 301.999 383.228 301.887 383.472 301.669C383.716 301.451 383.838 301.156 383.838 300.785C383.838 299.952 383.423 299.535 382.593 299.535C382.202 299.535 381.89 299.647 381.655 299.872C381.424 300.093 381.309 300.388 381.309 300.756H380.405C380.405 300.193 380.61 299.726 381.021 299.354C381.434 298.98 381.958 298.793 382.593 298.793C383.263 298.793 383.789 298.97 384.17 299.325C384.551 299.68 384.741 300.173 384.741 300.805C384.741 301.114 384.64 301.413 384.438 301.703C384.24 301.993 383.968 302.209 383.623 302.353C384.014 302.476 384.315 302.681 384.526 302.968C384.741 303.254 384.849 303.604 384.849 304.018C384.849 304.656 384.64 305.162 384.224 305.536C383.807 305.91 383.265 306.098 382.598 306.098C381.93 306.098 381.387 305.917 380.967 305.556C380.55 305.194 380.342 304.717 380.342 304.125H381.25C381.25 304.499 381.372 304.799 381.616 305.023C381.86 305.248 382.188 305.36 382.598 305.36C383.034 305.36 383.368 305.246 383.599 305.019C383.83 304.791 383.945 304.464 383.945 304.037C383.945 303.624 383.818 303.306 383.564 303.085C383.311 302.864 382.944 302.75 382.466 302.743H381.787V302.006ZM389.551 302.875C389.362 303.1 389.136 303.28 388.872 303.417C388.612 303.554 388.325 303.622 388.013 303.622C387.603 303.622 387.244 303.521 386.938 303.319C386.636 303.118 386.401 302.834 386.235 302.47C386.069 302.102 385.986 301.697 385.986 301.254C385.986 300.779 386.076 300.351 386.255 299.97C386.437 299.589 386.694 299.298 387.026 299.096C387.358 298.894 387.746 298.793 388.188 298.793C388.892 298.793 389.445 299.057 389.849 299.584C390.256 300.108 390.459 300.824 390.459 301.732V301.996C390.459 303.38 390.186 304.39 389.639 305.028C389.092 305.663 388.267 305.989 387.163 306.005H386.987V305.243H387.178C387.923 305.23 388.496 305.036 388.896 304.662C389.297 304.285 389.515 303.689 389.551 302.875ZM388.159 302.875C388.462 302.875 388.74 302.782 388.994 302.597C389.251 302.411 389.438 302.182 389.556 301.908V301.547C389.556 300.954 389.427 300.473 389.17 300.102C388.913 299.73 388.587 299.545 388.193 299.545C387.796 299.545 387.477 299.698 387.236 300.004C386.995 300.307 386.875 300.707 386.875 301.205C386.875 301.69 386.991 302.09 387.222 302.406C387.456 302.719 387.769 302.875 388.159 302.875ZM392.119 302.436L392.48 298.891H396.123V299.726H393.247L393.032 301.664C393.381 301.459 393.776 301.356 394.219 301.356C394.867 301.356 395.381 301.571 395.762 302.001C396.143 302.427 396.333 303.005 396.333 303.734C396.333 304.467 396.134 305.045 395.737 305.468C395.343 305.888 394.792 306.098 394.082 306.098C393.454 306.098 392.941 305.924 392.544 305.575C392.147 305.227 391.921 304.745 391.865 304.13H392.72C392.775 304.537 392.92 304.844 393.154 305.053C393.389 305.258 393.698 305.36 394.082 305.36C394.502 305.36 394.831 305.217 395.068 304.931C395.309 304.644 395.43 304.249 395.43 303.744C395.43 303.269 395.299 302.888 395.039 302.602C394.782 302.312 394.438 302.167 394.009 302.167C393.615 302.167 393.306 302.253 393.081 302.426L392.842 302.621L392.119 302.436ZM399.531 305.36C399.854 305.36 400.135 305.263 400.376 305.067C400.617 304.872 400.75 304.628 400.776 304.335H401.631C401.615 304.638 401.51 304.926 401.318 305.199C401.126 305.473 400.869 305.691 400.547 305.854C400.228 306.016 399.889 306.098 399.531 306.098C398.812 306.098 398.239 305.858 397.812 305.38C397.389 304.898 397.178 304.241 397.178 303.407V303.256C397.178 302.742 397.272 302.284 397.461 301.884C397.65 301.483 397.92 301.173 398.271 300.951C398.626 300.73 399.045 300.619 399.526 300.619C400.119 300.619 400.61 300.797 401.001 301.151C401.395 301.506 401.605 301.967 401.631 302.533H400.776C400.75 302.191 400.62 301.911 400.386 301.693C400.155 301.472 399.868 301.361 399.526 301.361C399.067 301.361 398.711 301.527 398.457 301.859C398.206 302.188 398.081 302.665 398.081 303.29V303.461C398.081 304.07 398.206 304.538 398.457 304.867C398.708 305.196 399.066 305.36 399.531 305.36ZM356.704 318H355.801V312.717H356.704V318ZM355.728 311.315C355.728 311.169 355.771 311.045 355.859 310.944C355.951 310.843 356.084 310.793 356.26 310.793C356.436 310.793 356.569 310.843 356.66 310.944C356.751 311.045 356.797 311.169 356.797 311.315C356.797 311.462 356.751 311.584 356.66 311.682C356.569 311.779 356.436 311.828 356.26 311.828C356.084 311.828 355.951 311.779 355.859 311.682C355.771 311.584 355.728 311.462 355.728 311.315ZM359.009 312.717L359.038 313.381C359.442 312.873 359.969 312.619 360.62 312.619C361.737 312.619 362.3 313.249 362.31 314.509V318H361.406V314.504C361.403 314.123 361.315 313.841 361.143 313.659C360.973 313.477 360.708 313.386 360.347 313.386C360.054 313.386 359.797 313.464 359.575 313.62C359.354 313.776 359.181 313.981 359.058 314.235V318H358.154V312.717H359.009ZM363.452 315.314C363.452 314.504 363.644 313.853 364.028 313.361C364.412 312.867 364.915 312.619 365.537 312.619C366.156 312.619 366.646 312.831 367.007 313.254V310.5H367.91V318H367.08L367.036 317.434C366.675 317.876 366.172 318.098 365.527 318.098C364.915 318.098 364.416 317.847 364.028 317.346C363.644 316.844 363.452 316.19 363.452 315.383V315.314ZM364.355 315.417C364.355 316.016 364.479 316.485 364.727 316.823C364.974 317.162 365.316 317.331 365.752 317.331C366.325 317.331 366.743 317.074 367.007 316.56V314.133C366.737 313.635 366.322 313.386 365.762 313.386C365.319 313.386 364.974 313.557 364.727 313.898C364.479 314.24 364.355 314.746 364.355 315.417ZM371.509 318.098C370.793 318.098 370.21 317.863 369.761 317.395C369.312 316.923 369.087 316.293 369.087 315.505V315.339C369.087 314.815 369.186 314.348 369.385 313.938C369.587 313.524 369.867 313.202 370.225 312.971C370.586 312.736 370.977 312.619 371.396 312.619C372.083 312.619 372.617 312.845 372.998 313.298C373.379 313.75 373.569 314.398 373.569 315.241V315.617H369.99C370.003 316.138 370.155 316.56 370.444 316.882C370.737 317.201 371.108 317.36 371.558 317.36C371.877 317.36 372.147 317.295 372.368 317.165C372.59 317.035 372.783 316.862 372.949 316.647L373.501 317.077C373.058 317.757 372.394 318.098 371.509 318.098ZM371.396 313.361C371.032 313.361 370.726 313.495 370.479 313.762C370.231 314.025 370.078 314.396 370.02 314.875H372.666V314.807C372.64 314.348 372.516 313.993 372.295 313.742C372.074 313.488 371.774 313.361 371.396 313.361ZM376.392 314.646L377.563 312.717H378.618L376.89 315.329L378.672 318H377.627L376.406 316.022L375.186 318H374.136L375.918 315.329L374.189 312.717H375.234L376.392 314.646ZM379.6 317.526C379.6 317.37 379.645 317.24 379.736 317.136C379.831 317.032 379.971 316.979 380.156 316.979C380.342 316.979 380.482 317.032 380.576 317.136C380.674 317.24 380.723 317.37 380.723 317.526C380.723 317.676 380.674 317.801 380.576 317.902C380.482 318.003 380.342 318.054 380.156 318.054C379.971 318.054 379.831 318.003 379.736 317.902C379.645 317.801 379.6 317.676 379.6 317.526ZM383.149 312.717V318.61C383.149 319.626 382.689 320.134 381.768 320.134C381.569 320.134 381.385 320.104 381.216 320.046V319.323C381.32 319.349 381.457 319.362 381.626 319.362C381.828 319.362 381.981 319.307 382.085 319.196C382.192 319.089 382.246 318.9 382.246 318.63V312.717H383.149ZM382.153 311.315C382.153 311.172 382.197 311.05 382.285 310.949C382.376 310.845 382.508 310.793 382.681 310.793C382.856 310.793 382.99 310.843 383.081 310.944C383.172 311.045 383.218 311.169 383.218 311.315C383.218 311.462 383.172 311.584 383.081 311.682C382.99 311.779 382.856 311.828 382.681 311.828C382.505 311.828 382.373 311.779 382.285 311.682C382.197 311.584 382.153 311.462 382.153 311.315ZM387.686 316.599C387.686 316.354 387.593 316.166 387.407 316.032C387.225 315.896 386.904 315.778 386.445 315.681C385.99 315.583 385.627 315.466 385.356 315.329C385.09 315.192 384.891 315.03 384.761 314.841C384.634 314.652 384.57 314.427 384.57 314.167C384.57 313.734 384.753 313.368 385.117 313.068C385.485 312.769 385.954 312.619 386.523 312.619C387.122 312.619 387.607 312.774 387.979 313.083C388.353 313.392 388.54 313.788 388.54 314.27H387.632C387.632 314.022 387.526 313.809 387.314 313.63C387.106 313.451 386.842 313.361 386.523 313.361C386.195 313.361 385.938 313.433 385.752 313.576C385.566 313.719 385.474 313.907 385.474 314.138C385.474 314.356 385.56 314.52 385.732 314.631C385.905 314.742 386.216 314.847 386.665 314.948C387.118 315.049 387.484 315.17 387.764 315.31C388.044 315.45 388.25 315.619 388.384 315.817C388.521 316.013 388.589 316.252 388.589 316.535C388.589 317.007 388.4 317.386 388.022 317.673C387.645 317.956 387.155 318.098 386.553 318.098C386.13 318.098 385.755 318.023 385.43 317.873C385.104 317.723 384.849 317.515 384.663 317.248C384.481 316.978 384.39 316.687 384.39 316.374H385.293C385.309 316.677 385.43 316.918 385.654 317.097C385.882 317.272 386.182 317.36 386.553 317.36C386.895 317.36 387.168 317.292 387.373 317.155C387.581 317.015 387.686 316.83 387.686 316.599ZM399.813 313.19C398.183 312.95 396.583 311.84 396.583 310.59V310.09H395.723V310.59C395.723 311.87 394.143 312.95 392.513 313.19L392.843 313.85C394.243 313.61 395.593 312.84 396.153 311.75C396.733 312.83 398.083 313.61 399.473 313.85L399.813 313.19ZM400.203 314.82H392.103V315.5H395.723V318.75H396.543V315.5H400.213L400.203 314.82ZM406.082 312.1V312.77H407.852V315.12H408.682V309.78H407.852V312.1H406.082ZM406.582 314.14C405.282 313.68 404.402 312.55 404.402 311.4V311.09H406.372V310.43H401.582V311.09H403.582V311.4C403.582 312.69 402.662 313.9 401.322 314.39L401.752 315.04C402.802 314.64 403.632 313.8 404.012 312.76C404.402 313.68 405.172 314.42 406.172 314.78L406.582 314.14ZM405.722 318.1C404.372 318.1 403.552 317.72 403.552 317.07C403.552 316.42 404.372 316.03 405.722 316.03C407.072 316.03 407.892 316.42 407.892 317.07C407.892 317.72 407.072 318.1 405.722 318.1ZM405.722 315.4C403.882 315.4 402.732 316.01 402.732 317.07C402.732 318.13 403.882 318.74 405.722 318.74C407.562 318.74 408.712 318.13 408.712 317.07C408.712 316.01 407.562 315.4 405.722 315.4Z" fill="black"/>
<circle cx="140.5" cy="133.5" r="9.5" fill="#4000C7"/>
<circle cx="140.5" cy="335.5" r="9.5" fill="#4000C7"/>
<circle cx="220.5" cy="133.5" r="9.5" fill="#4000C7"/>
<circle cx="220.5" cy="335.5" r="9.5" fill="#4000C7"/>
<circle cx="301.5" cy="133.5" r="9.5" fill="#4000C7"/>
<circle cx="301.5" cy="335.5" r="9.5" fill="#4000C7"/>
<circle cx="382.5" cy="335.5" r="9.5" fill="#4000C7"/>
<line x1="141" y1="133.5" x2="302" y2="133.5" stroke="#4000C7"/>
<line x1="150" y1="335.5" x2="392" y2="335.5" stroke="#4000C7"/>
</svg>
