<svg width="1152" height="587" viewBox="0 0 1152 587" fill="none" xmlns="http://www.w3.org/2000/svg">
<path d="M0 0H1152V587H0V0Z" fill="white" fill-opacity="0.01"/>
<rect x="197.824" y="221.124" width="18" height="41" rx="5" transform="rotate(-90.1738 197.824 221.124)" fill="black"/>
<path d="M190.001 212.193L198.251 208.73L198.25 215.659L190.001 212.193Z" fill="black"/>
<path d="M207.603 209.737L207.63 210.382C208.056 209.88 208.631 209.629 209.354 209.629C210.167 209.629 210.72 209.941 211.014 210.564C211.207 210.284 211.458 210.059 211.766 209.887C212.077 209.715 212.444 209.629 212.867 209.629C214.142 209.628 214.79 210.303 214.812 211.653L214.812 215.547L213.819 215.547L213.818 211.712C213.818 211.297 213.723 210.987 213.533 210.783C213.343 210.576 213.025 210.472 212.577 210.472C212.208 210.472 211.902 210.583 211.659 210.805C211.415 211.024 211.274 211.319 211.235 211.691L211.235 215.548L210.236 215.548L210.235 211.74C210.235 210.895 209.822 210.472 208.995 210.473C208.343 210.473 207.897 210.75 207.657 211.305L207.658 215.549L206.664 215.549L206.663 209.737L207.603 209.737ZM219.904 215.546C219.847 215.432 219.8 215.228 219.764 214.934C219.303 215.414 218.751 215.654 218.11 215.654C217.537 215.654 217.066 215.493 216.698 215.171C216.332 214.845 216.15 214.433 216.149 213.936C216.149 213.331 216.378 212.861 216.837 212.528C217.299 212.192 217.947 212.023 218.781 212.023L219.748 212.023L219.748 211.566C219.748 211.219 219.644 210.943 219.436 210.739C219.228 210.532 218.922 210.428 218.517 210.428C218.163 210.428 217.866 210.518 217.626 210.697C217.386 210.876 217.266 211.092 217.266 211.347L216.267 211.347C216.267 211.057 216.369 210.777 216.573 210.509C216.781 210.237 217.06 210.022 217.411 209.864C217.765 209.707 218.154 209.628 218.576 209.628C219.246 209.627 219.771 209.796 220.15 210.132C220.53 210.465 220.727 210.925 220.741 211.512L220.742 214.187C220.742 214.721 220.81 215.145 220.946 215.46L220.946 215.546L219.904 215.546ZM218.255 214.789C218.567 214.789 218.862 214.709 219.141 214.547C219.421 214.386 219.623 214.177 219.748 213.919L219.748 212.726L218.969 212.727C217.752 212.727 217.143 213.083 217.143 213.796C217.143 214.107 217.247 214.351 217.455 214.526C217.662 214.702 217.929 214.789 218.255 214.789ZM223.379 215.546L222.386 215.546L222.385 209.734L223.378 209.734L223.379 215.546ZM222.304 208.193C222.304 208.032 222.352 207.896 222.449 207.785C222.549 207.674 222.696 207.618 222.889 207.618C223.082 207.618 223.229 207.673 223.33 207.784C223.43 207.895 223.48 208.031 223.48 208.193C223.48 208.354 223.43 208.488 223.33 208.595C223.229 208.703 223.083 208.757 222.889 208.757C222.696 208.757 222.549 208.703 222.449 208.596C222.352 208.488 222.304 208.354 222.304 208.193ZM225.913 209.734L225.946 210.464C226.39 209.905 226.97 209.626 227.686 209.626C228.914 209.626 229.534 210.318 229.545 211.704L229.545 215.545L228.552 215.545L228.551 211.699C228.547 211.28 228.451 210.97 228.261 210.77C228.074 210.569 227.783 210.469 227.385 210.469C227.063 210.469 226.78 210.555 226.537 210.727C226.293 210.899 226.103 211.125 225.967 211.404L225.968 215.545L224.974 215.545L224.973 209.734L225.913 209.734Z" fill="white"/>
<circle cx="84.5" cy="212.5" r="9.5" fill="#4000C7"/>
<circle cx="165.5" cy="212.5" r="9.5" fill="#4000C7"/>
<line x1="85" y1="212.5" x2="165" y2="212.5" stroke="#4000C7"/>
<path d="M166.354 227.646C166.158 227.451 165.842 227.451 165.646 227.646L162.464 230.828C162.269 231.024 162.269 231.34 162.464 231.536C162.66 231.731 162.976 231.731 163.172 231.536L166 228.707L168.828 231.536C169.024 231.731 169.34 231.731 169.536 231.536C169.731 231.34 169.731 231.024 169.536 230.828L166.354 227.646ZM166.5 358L166.5 228L165.5 228L165.5 358L166.5 358Z" fill="#4000C7"/>
</svg>
