<svg width="1152" height="587" viewBox="0 0 1152 587" fill="none" xmlns="http://www.w3.org/2000/svg">
<path d="M0 0H1152V587H0V0Z" fill="white" fill-opacity="0.01"/>
<path d="M415.159 316.875C414.97 317.1 414.744 317.28 414.48 317.417C414.22 317.554 413.934 317.622 413.621 317.622C413.211 317.622 412.853 317.521 412.547 317.319C412.244 317.118 412.01 316.834 411.844 316.47C411.678 316.102 411.595 315.697 411.595 315.254C411.595 314.779 411.684 314.351 411.863 313.97C412.046 313.589 412.303 313.298 412.635 313.096C412.967 312.894 413.354 312.793 413.797 312.793C414.5 312.793 415.053 313.057 415.457 313.584C415.864 314.108 416.067 314.824 416.067 315.732V315.996C416.067 317.38 415.794 318.39 415.247 319.028C414.7 319.663 413.875 319.989 412.771 320.005H412.596V319.243H412.786C413.532 319.23 414.104 319.036 414.505 318.662C414.905 318.285 415.123 317.689 415.159 316.875ZM413.768 316.875C414.07 316.875 414.349 316.782 414.603 316.597C414.86 316.411 415.047 316.182 415.164 315.908V315.547C415.164 314.954 415.035 314.473 414.778 314.102C414.521 313.73 414.196 313.545 413.802 313.545C413.405 313.545 413.086 313.698 412.845 314.004C412.604 314.307 412.483 314.707 412.483 315.205C412.483 315.69 412.599 316.09 412.83 316.406C413.064 316.719 413.377 316.875 413.768 316.875ZM421.878 317.417C421.878 318.224 421.692 318.874 421.321 319.365C420.95 319.854 420.452 320.098 419.827 320.098C419.16 320.098 418.644 319.862 418.279 319.39L418.235 320H417.405V312.5H418.309V315.298C418.673 314.845 419.176 314.619 419.817 314.619C420.459 314.619 420.962 314.862 421.326 315.347C421.694 315.832 421.878 316.496 421.878 317.339V317.417ZM420.975 317.314C420.975 316.699 420.856 316.224 420.618 315.889C420.381 315.553 420.039 315.386 419.593 315.386C418.997 315.386 418.569 315.662 418.309 316.216V318.501C418.585 319.054 419.017 319.331 419.603 319.331C420.035 319.331 420.372 319.163 420.613 318.828C420.854 318.493 420.975 317.988 420.975 317.314ZM423.465 320V315.415H422.63V314.717H423.465V314.175C423.465 313.608 423.616 313.171 423.919 312.861C424.222 312.552 424.65 312.397 425.203 312.397C425.411 312.397 425.618 312.425 425.823 312.48L425.774 313.213C425.621 313.184 425.459 313.169 425.286 313.169C424.993 313.169 424.767 313.255 424.607 313.428C424.448 313.597 424.368 313.841 424.368 314.16V314.717H425.496V315.415H424.368V320H423.465ZM427.718 316.006H428.396C428.823 315.999 429.158 315.887 429.402 315.669C429.646 315.451 429.769 315.156 429.769 314.785C429.769 313.952 429.354 313.535 428.523 313.535C428.133 313.535 427.82 313.647 427.586 313.872C427.355 314.093 427.239 314.388 427.239 314.756H426.336C426.336 314.193 426.541 313.726 426.951 313.354C427.365 312.98 427.889 312.793 428.523 312.793C429.194 312.793 429.72 312.97 430.101 313.325C430.481 313.68 430.672 314.173 430.672 314.805C430.672 315.114 430.571 315.413 430.369 315.703C430.171 315.993 429.899 316.209 429.554 316.353C429.944 316.476 430.245 316.681 430.457 316.968C430.672 317.254 430.779 317.604 430.779 318.018C430.779 318.656 430.571 319.162 430.154 319.536C429.738 319.91 429.196 320.098 428.528 320.098C427.861 320.098 427.317 319.917 426.897 319.556C426.481 319.194 426.272 318.717 426.272 318.125H427.181C427.181 318.499 427.303 318.799 427.547 319.023C427.791 319.248 428.118 319.36 428.528 319.36C428.965 319.36 429.298 319.246 429.529 319.019C429.76 318.791 429.876 318.464 429.876 318.037C429.876 317.624 429.749 317.306 429.495 317.085C429.241 316.864 428.875 316.75 428.396 316.743H427.718V316.006ZM436.609 313.398L433.665 320H432.718L435.652 313.633H431.805V312.891H436.609V313.398ZM438.948 316.006H439.627C440.053 315.999 440.389 315.887 440.633 315.669C440.877 315.451 440.999 315.156 440.999 314.785C440.999 313.952 440.584 313.535 439.754 313.535C439.363 313.535 439.051 313.647 438.816 313.872C438.585 314.093 438.47 314.388 438.47 314.756H437.566C437.566 314.193 437.771 313.726 438.182 313.354C438.595 312.98 439.119 312.793 439.754 312.793C440.424 312.793 440.95 312.97 441.331 313.325C441.712 313.68 441.902 314.173 441.902 314.805C441.902 315.114 441.801 315.413 441.6 315.703C441.401 315.993 441.129 316.209 440.784 316.353C441.175 316.476 441.476 316.681 441.688 316.968C441.902 317.254 442.01 317.604 442.01 318.018C442.01 318.656 441.801 319.162 441.385 319.536C440.968 319.91 440.426 320.098 439.759 320.098C439.091 320.098 438.548 319.917 438.128 319.556C437.711 319.194 437.503 318.717 437.503 318.125H438.411C438.411 318.499 438.533 318.799 438.777 319.023C439.021 319.248 439.349 319.36 439.759 319.36C440.195 319.36 440.529 319.246 440.76 319.019C440.991 318.791 441.106 318.464 441.106 318.037C441.106 317.624 440.979 317.306 440.726 317.085C440.472 316.864 440.105 316.75 439.627 316.743H438.948V316.006ZM445.462 319.36C445.784 319.36 446.066 319.263 446.307 319.067C446.548 318.872 446.681 318.628 446.707 318.335H447.562C447.545 318.638 447.441 318.926 447.249 319.199C447.057 319.473 446.8 319.691 446.478 319.854C446.159 320.016 445.82 320.098 445.462 320.098C444.743 320.098 444.17 319.858 443.743 319.38C443.32 318.898 443.108 318.241 443.108 317.407V317.256C443.108 316.742 443.203 316.284 443.392 315.884C443.58 315.483 443.851 315.173 444.202 314.951C444.557 314.73 444.975 314.619 445.457 314.619C446.049 314.619 446.541 314.797 446.932 315.151C447.326 315.506 447.535 315.967 447.562 316.533H446.707C446.681 316.191 446.551 315.911 446.316 315.693C446.085 315.472 445.799 315.361 445.457 315.361C444.998 315.361 444.642 315.527 444.388 315.859C444.137 316.188 444.012 316.665 444.012 317.29V317.461C444.012 318.07 444.137 318.538 444.388 318.867C444.638 319.196 444.996 319.36 445.462 319.36ZM395.223 330.96V329.27H398.093V328.61H392.573V327.16H397.883V324.43H391.743V325.1H397.083V326.5H391.763V329.27H394.393V330.96H390.743V331.63H398.893V330.96H395.223ZM406.172 325.62C406.172 326.73 406.172 328.07 405.812 329.9L406.632 329.99C406.982 328.05 406.982 326.76 406.982 325.62V324.72H400.832V325.39H406.172V325.62ZM399.962 330.75V331.43H408.072V330.75H399.962ZM416.511 323.78H415.691V330.33H416.511V323.78ZM410.161 326.6C410.161 325.73 410.821 325.11 411.691 325.11C412.581 325.11 413.241 325.73 413.241 326.6C413.241 327.49 412.581 328.11 411.691 328.11C410.821 328.11 410.161 327.49 410.161 326.6ZM414.041 326.6C414.041 325.31 413.031 324.4 411.691 324.4C410.361 324.4 409.361 325.31 409.361 326.6C409.361 327.9 410.361 328.82 411.691 328.82C413.031 328.82 414.041 327.9 414.041 326.6ZM411.561 331.87V329.66H410.741V332.54H416.781V331.87H411.561ZM422.401 325.57H423.521V329.78C423.141 329.8 422.771 329.81 422.401 329.82V325.57ZM424.271 325.57H425.011V324.91H420.911V325.57H421.651V329.84C421.311 329.85 421.011 329.85 420.741 329.85L420.821 330.53C421.991 330.53 423.871 330.49 425.261 330.23L425.211 329.63C424.921 329.67 424.591 329.7 424.271 329.73V325.57ZM425.971 327.19H424.741V327.91H425.971V332.27H426.741V323.99H425.971V327.19ZM427.701 323.78V332.74H428.491V323.78H427.701ZM436.55 323.77V332.76H437.37V323.77H436.55ZM432.64 324.46C431.31 324.46 430.36 325.68 430.36 327.59C430.36 329.5 431.31 330.72 432.64 330.72C433.97 330.72 434.92 329.5 434.92 327.59C434.92 325.68 433.97 324.46 432.64 324.46ZM432.64 325.2C433.51 325.2 434.13 326.14 434.13 327.59C434.13 329.05 433.51 329.99 432.64 329.99C431.76 329.99 431.14 329.05 431.14 327.59C431.14 326.14 431.76 325.2 432.64 325.2ZM442.429 325.37H444.539V324.69H439.529V325.37H441.609V326.51C441.609 328.06 440.519 329.75 439.229 330.36L439.709 331.02C440.729 330.5 441.609 329.37 442.019 328.06C442.449 329.29 443.329 330.32 444.369 330.8L444.829 330.14C443.509 329.58 442.429 328.03 442.429 326.51V325.37ZM445.749 323.78V332.74H446.569V323.78H445.749ZM459.029 328.21H457.699C457.949 326.92 457.949 325.97 457.949 325.13V324.35H451.929V325.01H457.149V325.13C457.149 325.97 457.149 326.92 456.869 328.21H450.919V328.88H454.539V332.75H455.369V328.88H459.029V328.21ZM465.148 326.16V326.83H466.658V328.04H465.148V328.71H466.658V330.61H467.488V323.78H466.658V326.16H465.148ZM465.148 324.87H463.088V323.76H462.268V324.87H460.128V325.53H465.148V324.87ZM461.418 327.73C461.418 327.1 461.928 326.67 462.668 326.67C463.408 326.67 463.918 327.1 463.918 327.73C463.918 328.37 463.408 328.81 462.668 328.81C461.928 328.81 461.418 328.37 461.418 327.73ZM464.698 327.73C464.698 326.71 463.858 326.03 462.668 326.03C461.478 326.03 460.638 326.71 460.638 327.73C460.638 328.76 461.478 329.45 462.668 329.45C463.858 329.45 464.698 328.76 464.698 327.73ZM462.548 331.87V330.03H461.728V332.54H467.698V331.87H462.548Z" fill="black"/>
<path d="M497.166 43H496.258V36.9795L494.437 37.6484V36.8281L497.024 35.8564H497.166V43ZM502.024 42.3604C502.347 42.3604 502.628 42.2627 502.869 42.0674C503.11 41.8721 503.243 41.6279 503.27 41.335H504.124C504.108 41.6377 504.004 41.9258 503.812 42.1992C503.619 42.4727 503.362 42.6908 503.04 42.8535C502.721 43.0163 502.382 43.0977 502.024 43.0977C501.305 43.0977 500.732 42.8584 500.306 42.3799C499.882 41.8981 499.671 41.2406 499.671 40.4072V40.2559C499.671 39.7415 499.765 39.2842 499.954 38.8838C500.143 38.4834 500.413 38.1725 500.765 37.9512C501.119 37.7298 501.538 37.6191 502.02 37.6191C502.612 37.6191 503.104 37.7965 503.494 38.1514C503.888 38.5062 504.098 38.9668 504.124 39.5332H503.27C503.243 39.1914 503.113 38.9115 502.879 38.6934C502.648 38.472 502.361 38.3613 502.02 38.3613C501.561 38.3613 501.204 38.5273 500.95 38.8594C500.7 39.1882 500.574 39.665 500.574 40.29V40.4609C500.574 41.0697 500.7 41.5384 500.95 41.8672C501.201 42.196 501.559 42.3604 502.024 42.3604ZM505.584 43V38.415H504.749V37.7168H505.584V37.1748C505.584 36.6084 505.735 36.1706 506.038 35.8613C506.341 35.5521 506.769 35.3975 507.322 35.3975C507.531 35.3975 507.737 35.4251 507.942 35.4805L507.894 36.2129C507.741 36.1836 507.578 36.1689 507.405 36.1689C507.112 36.1689 506.886 36.2552 506.727 36.4277C506.567 36.597 506.487 36.8411 506.487 37.1602V37.7168H507.615V38.415H506.487V43H505.584ZM513.182 43H508.523V42.3506L510.984 39.6162C511.349 39.2028 511.6 38.8675 511.736 38.6104C511.876 38.3499 511.946 38.0814 511.946 37.8047C511.946 37.4336 511.834 37.1292 511.609 36.8916C511.385 36.654 511.085 36.5352 510.711 36.5352C510.262 36.5352 509.912 36.6637 509.661 36.9209C509.414 37.1748 509.29 37.5296 509.29 37.9854H508.387C508.387 37.3311 508.597 36.8021 509.017 36.3984C509.44 35.9948 510.005 35.793 510.711 35.793C511.372 35.793 511.894 35.9671 512.278 36.3154C512.662 36.6605 512.854 37.1211 512.854 37.6973C512.854 38.3971 512.409 39.2305 511.517 40.1973L509.612 42.2627H513.182V43ZM517.952 40.6123H518.938V41.3496H517.952V43H517.044V41.3496H513.807V40.8174L516.99 35.8906H517.952V40.6123ZM514.832 40.6123H517.044V37.126L516.937 37.3213L514.832 40.6123ZM524.344 36.3984L521.399 43H520.452L523.387 36.6328H519.539V35.8906H524.344V36.3984ZM529.935 40.417C529.935 41.2243 529.749 41.8737 529.378 42.3652C529.007 42.8535 528.509 43.0977 527.884 43.0977C527.216 43.0977 526.701 42.8617 526.336 42.3896L526.292 43H525.462V35.5H526.365V38.2979C526.73 37.8454 527.233 37.6191 527.874 37.6191C528.515 37.6191 529.018 37.8617 529.383 38.3467C529.751 38.8317 529.935 39.4958 529.935 40.3389V40.417ZM529.031 40.3145C529.031 39.6992 528.912 39.224 528.675 38.8887C528.437 38.5534 528.095 38.3857 527.649 38.3857C527.054 38.3857 526.626 38.6624 526.365 39.2158V41.501C526.642 42.0544 527.073 42.3311 527.659 42.3311C528.092 42.3311 528.429 42.1634 528.67 41.8281C528.911 41.4928 529.031 40.9883 529.031 40.3145ZM474.343 47.87H472.033V46.77H471.213V47.87H468.893V48.53H474.343V47.87ZM470.243 50.7C470.243 50.07 470.803 49.67 471.623 49.67C472.433 49.67 472.993 50.07 472.993 50.7C472.993 51.32 472.433 51.72 471.623 51.72C470.803 51.72 470.243 51.32 470.243 50.7ZM472.033 52.34C473.093 52.21 473.773 51.59 473.773 50.7C473.773 49.69 472.903 49.04 471.623 49.04C470.343 49.04 469.463 49.69 469.463 50.7C469.463 51.6 470.153 52.22 471.213 52.35V53.31C470.323 53.34 469.463 53.35 468.703 53.35L468.823 54.04C470.473 54.04 472.633 54.01 474.633 53.68L474.573 53.07C473.753 53.18 472.883 53.24 472.033 53.28V52.34ZM475.143 46.77V55.74H475.963V46.77H475.143ZM482.552 52.07V52.68H484.372V53.6H485.192V46.77H484.372V52.07H482.552ZM480.722 47.74C481.572 47.74 482.152 48.12 482.152 48.69C482.152 49.27 481.572 49.65 480.722 49.65C479.872 49.65 479.292 49.27 479.292 48.69C479.292 48.12 479.872 47.74 480.722 47.74ZM480.722 50.26C482.032 50.26 482.932 49.65 482.932 48.69C482.932 47.75 482.032 47.13 480.722 47.13C479.412 47.13 478.512 47.75 478.512 48.69C478.512 49.65 479.412 50.26 480.722 50.26ZM480.402 53.28H481.222V51.51C482.032 51.46 482.862 51.37 483.652 51.25L483.582 50.66C481.682 50.9 479.462 50.92 477.802 50.92L477.912 51.6C478.652 51.6 479.512 51.59 480.402 51.55V53.28ZM479.902 54.87V52.93H479.082V55.54H485.422V54.87H479.902ZM487.531 47.73V48.41H490.821C490.631 50.53 489.401 52.25 487.111 53.4L487.561 54.04C490.461 52.59 491.631 50.28 491.631 47.73H487.531ZM495.391 50.41H493.951V46.77H493.131V55.74H493.951V51.09H495.391V50.41ZM502.791 46.78V51.59H503.611V46.78H502.791ZM497.831 52.03V55.62H503.611V52.03H502.801V53.13H498.641V52.03H497.831ZM498.641 53.77H502.801V54.96H498.641V53.77ZM498.791 47.2C497.441 47.2 496.461 48.04 496.461 49.26C496.461 50.5 497.441 51.33 498.791 51.33C500.151 51.33 501.141 50.5 501.141 49.26C501.141 48.04 500.151 47.2 498.791 47.2ZM498.791 47.88C499.701 47.88 500.341 48.45 500.341 49.26C500.341 50.08 499.701 50.65 498.791 50.65C497.901 50.65 497.261 50.08 497.261 49.26C497.261 48.45 497.901 47.88 498.791 47.88ZM509.5 48.57H510.62V52.78C510.24 52.8 509.87 52.81 509.5 52.82V48.57ZM511.37 48.57H512.11V47.91H508.01V48.57H508.75V52.84C508.41 52.85 508.11 52.85 507.84 52.85L507.92 53.53C509.09 53.53 510.97 53.49 512.36 53.23L512.31 52.63C512.02 52.67 511.69 52.7 511.37 52.73V48.57ZM513.07 50.19H511.84V50.91H513.07V55.27H513.84V46.99H513.07V50.19ZM514.8 46.78V55.74H515.59V46.78H514.8ZM523.65 46.77V55.76H524.47V46.77H523.65ZM519.74 47.46C518.41 47.46 517.46 48.68 517.46 50.59C517.46 52.5 518.41 53.72 519.74 53.72C521.07 53.72 522.02 52.5 522.02 50.59C522.02 48.68 521.07 47.46 519.74 47.46ZM519.74 48.2C520.61 48.2 521.23 49.14 521.23 50.59C521.23 52.05 520.61 52.99 519.74 52.99C518.86 52.99 518.24 52.05 518.24 50.59C518.24 49.14 518.86 48.2 519.74 48.2ZM529.529 48.37H531.639V47.69H526.629V48.37H528.709V49.51C528.709 51.06 527.619 52.75 526.329 53.36L526.809 54.02C527.829 53.5 528.709 52.37 529.119 51.06C529.549 52.29 530.429 53.32 531.469 53.8L531.929 53.14C530.609 52.58 529.529 51.03 529.529 49.51V48.37ZM532.849 46.78V55.74H533.669V46.78H532.849ZM546.129 51.21H544.799C545.049 49.92 545.049 48.97 545.049 48.13V47.35H539.029V48.01H544.249V48.13C544.249 48.97 544.249 49.92 543.969 51.21H538.019V51.88H541.639V55.75H542.469V51.88H546.129V51.21ZM552.248 49.16V49.83H553.758V51.04H552.248V51.71H553.758V53.61H554.588V46.78H553.758V49.16H552.248ZM552.248 47.87H550.188V46.76H549.368V47.87H547.228V48.53H552.248V47.87ZM548.518 50.73C548.518 50.1 549.028 49.67 549.768 49.67C550.508 49.67 551.018 50.1 551.018 50.73C551.018 51.37 550.508 51.81 549.768 51.81C549.028 51.81 548.518 51.37 548.518 50.73ZM551.798 50.73C551.798 49.71 550.958 49.03 549.768 49.03C548.578 49.03 547.738 49.71 547.738 50.73C547.738 51.76 548.578 52.45 549.768 52.45C550.958 52.45 551.798 51.76 551.798 50.73ZM549.648 54.87V53.03H548.828V55.54H554.798V54.87H549.648Z" fill="black"/>
<path d="M603.621 333.73C605.101 333.57 606.401 333.04 606.951 332.16C607.491 333.04 608.801 333.57 610.281 333.73L610.531 333.09C608.851 332.95 607.491 332.27 607.401 331.3H610.171V330.65H607.361V329.74H606.541V330.65H603.731V331.3H606.491C606.401 332.27 605.041 332.95 603.371 333.09L603.621 333.73ZM609.181 337.24C609.181 337.8 608.361 338.11 606.941 338.11C605.521 338.11 604.701 337.8 604.701 337.24C604.701 336.69 605.521 336.37 606.941 336.37C608.361 336.37 609.181 336.69 609.181 337.24ZM611.001 334.86V334.2H602.891V334.86H606.541V335.76C604.851 335.83 603.871 336.35 603.871 337.24C603.871 338.21 605.011 338.73 606.951 338.73C608.871 338.73 610.011 338.21 610.011 337.24C610.011 336.35 609.031 335.83 607.351 335.76V334.86H611.001ZM613.891 337.1H619.161V335.08H613.061V335.71H618.351V336.5H613.091V338.63H619.431V338H613.891V337.1ZM616.561 333.67V332.82H619.241V332.16H613.991V330.77H619.151V330.11H613.171V332.82H615.741V333.67H612.081V334.33H620.201V333.67H616.561ZM625.99 335.98C625.29 335.98 624.8 335.41 624.8 334.61C624.8 333.83 625.29 333.26 625.99 333.26C626.68 333.26 627.18 333.83 627.18 334.61C627.18 335.41 626.68 335.98 625.99 335.98ZM625.99 332.57C624.88 332.57 624.07 333.41 624.07 334.61C624.07 335.83 624.88 336.66 625.99 336.66C627.1 336.66 627.91 335.83 627.91 334.61C627.91 333.41 627.1 332.57 625.99 332.57ZM626.39 330.03H625.58V331.3H623.76V331.97H628.21V331.3H626.39V330.03ZM630.58 329.76V333.55H629.43V329.97H628.66V338.3H629.43V334.22H630.58V338.73H631.37V329.76H630.58ZM639.529 331.71V332.78H637.189V333.42H639.529V334.35H640.359V329.77H639.529V331.07H637.499C637.559 330.79 637.589 330.51 637.589 330.21H633.579V330.88H636.699C636.549 332.3 635.299 333.37 633.109 333.88L633.409 334.55C635.389 334.08 636.759 333.12 637.319 331.71H639.529ZM635.409 338V336.96H640.359V334.76H634.579V335.42H639.539V336.34H634.599V338.65H640.659V338H635.409Z" fill="#19B500"/>
<path d="M432.262 348C429.985 338.652 441.62 317.945 505 319.042" stroke="#4000C7"/>
<path d="M590.738 348C593.015 338.652 581.38 317.945 518 319.042" stroke="#4000C7"/>
<rect x="609.031" y="367.209" width="18" height="41" rx="5" transform="rotate(-64.2277 609.031 367.209)" fill="black"/>
<rect x="370.031" y="211.209" width="18" height="41" rx="5" transform="rotate(-64.2277 370.031 211.209)" fill="black"/>
<rect x="536.031" y="89.209" width="18" height="41" rx="5" transform="rotate(-64.2277 536.031 89.209)" fill="black"/>
<path d="M605.739 355.626L614.675 356.094L611.662 362.333L605.739 355.626Z" fill="black"/>
<path d="M366.739 199.626L375.675 200.094L372.662 206.333L366.739 199.626Z" fill="black"/>
<path d="M532.739 77.6264L541.675 78.0939L538.662 84.333L532.739 77.6264Z" fill="black"/>
<path d="M622.791 361.219L622.535 361.811C623.137 361.545 623.764 361.569 624.415 361.884C625.147 362.237 625.51 362.758 625.503 363.447C625.799 363.279 626.122 363.185 626.475 363.164C626.83 363.145 627.198 363.227 627.578 363.411C628.726 363.965 629.016 364.855 628.449 366.08L626.756 369.586L625.861 369.154L627.528 365.701C627.709 365.327 627.758 365.007 627.676 364.74C627.595 364.471 627.353 364.239 626.95 364.044C626.618 363.884 626.294 363.851 625.978 363.945C625.664 364.036 625.408 364.24 625.211 364.558L623.534 368.031L622.635 367.597L624.29 364.167C624.658 363.406 624.469 362.846 623.724 362.487C623.137 362.203 622.615 362.259 622.158 362.655L620.313 366.476L619.418 366.044L621.945 360.81L622.791 361.219ZM631.341 371.8C631.339 371.672 631.386 371.468 631.481 371.188C630.857 371.419 630.256 371.396 629.679 371.117C629.163 370.868 628.809 370.518 628.617 370.068C628.43 369.615 628.444 369.165 628.661 368.717C628.924 368.172 629.334 367.849 629.892 367.749C630.454 367.646 631.111 367.777 631.862 368.139L632.733 368.56L632.931 368.149C633.082 367.836 633.108 367.542 633.01 367.268C632.913 366.991 632.683 366.764 632.319 366.588C631.999 366.434 631.693 366.386 631.399 366.443C631.105 366.499 630.903 366.642 630.792 366.871L629.893 366.437C630.019 366.176 630.232 365.969 630.533 365.816C630.838 365.661 631.183 365.589 631.567 365.599C631.955 365.612 632.339 365.71 632.72 365.893C633.323 366.184 633.722 366.564 633.917 367.032C634.114 367.497 634.092 367.997 633.849 368.532L632.686 370.941C632.454 371.421 632.331 371.833 632.317 372.176L632.279 372.253L631.341 371.8ZM630.185 370.401C630.466 370.537 630.767 370.593 631.088 370.569C631.41 370.545 631.683 370.445 631.908 370.267L632.427 369.193L631.725 368.855C630.629 368.325 629.926 368.381 629.616 369.023C629.481 369.304 629.468 369.568 629.579 369.816C629.69 370.065 629.892 370.26 630.185 370.401ZM634.47 373.311L633.576 372.879L636.102 367.646L636.997 368.078L634.47 373.311ZM636.7 366.223C636.77 366.078 636.873 365.976 637.008 365.918C637.147 365.862 637.303 365.876 637.477 365.96C637.651 366.044 637.759 366.158 637.801 366.301C637.843 366.445 637.829 366.589 637.759 366.734C637.689 366.879 637.586 366.978 637.449 367.031C637.312 367.085 637.156 367.069 636.982 366.985C636.808 366.901 636.699 366.789 636.655 366.648C636.615 366.51 636.63 366.368 636.7 366.223ZM639.28 369.18L638.992 369.852C639.634 369.542 640.278 369.543 640.923 369.854C642.029 370.388 642.286 371.281 641.693 372.534L640.023 375.992L639.128 375.56L640.8 372.097C640.979 371.718 641.027 371.397 640.943 371.134C640.863 370.873 640.643 370.655 640.285 370.483C639.995 370.343 639.703 370.297 639.409 370.346C639.115 370.395 638.846 370.515 638.602 370.708L636.802 374.437L635.907 374.005L638.434 368.771L639.28 369.18Z" fill="white"/>
<path d="M383.791 205.219L383.535 205.811C384.137 205.545 384.764 205.569 385.415 205.884C386.147 206.237 386.51 206.758 386.503 207.447C386.799 207.279 387.122 207.185 387.475 207.164C387.83 207.145 388.198 207.227 388.578 207.411C389.726 207.965 390.016 208.855 389.449 210.08L387.756 213.586L386.861 213.154L388.528 209.701C388.709 209.327 388.758 209.007 388.676 208.74C388.595 208.471 388.353 208.239 387.95 208.044C387.618 207.884 387.294 207.851 386.978 207.945C386.664 208.036 386.408 208.24 386.211 208.558L384.534 212.031L383.635 211.597L385.29 208.167C385.658 207.406 385.469 206.846 384.724 206.487C384.137 206.203 383.615 206.259 383.158 206.655L381.313 210.476L380.418 210.044L382.945 204.81L383.791 205.219ZM392.341 215.8C392.339 215.672 392.386 215.468 392.481 215.188C391.857 215.419 391.256 215.396 390.679 215.117C390.163 214.868 389.809 214.518 389.617 214.068C389.43 213.615 389.444 213.165 389.661 212.717C389.924 212.172 390.334 211.849 390.892 211.749C391.454 211.646 392.111 211.777 392.862 212.139L393.733 212.56L393.931 212.149C394.082 211.836 394.108 211.542 394.01 211.268C393.913 210.991 393.683 210.764 393.319 210.588C392.999 210.434 392.693 210.386 392.399 210.443C392.105 210.499 391.903 210.642 391.792 210.871L390.893 210.437C391.019 210.176 391.232 209.969 391.533 209.816C391.838 209.661 392.183 209.589 392.567 209.599C392.955 209.612 393.339 209.71 393.72 209.893C394.323 210.184 394.722 210.564 394.917 211.032C395.114 211.497 395.092 211.997 394.849 212.532L393.686 214.941C393.454 215.421 393.331 215.833 393.317 216.176L393.279 216.253L392.341 215.8ZM391.185 214.401C391.466 214.537 391.767 214.593 392.088 214.569C392.41 214.545 392.683 214.445 392.908 214.267L393.427 213.193L392.725 212.855C391.629 212.325 390.926 212.381 390.616 213.023C390.481 213.304 390.468 213.568 390.579 213.816C390.69 214.065 390.892 214.26 391.185 214.401ZM395.47 217.311L394.576 216.879L397.102 211.646L397.997 212.078L395.47 217.311ZM397.7 210.223C397.77 210.078 397.873 209.976 398.008 209.918C398.147 209.862 398.303 209.876 398.477 209.96C398.651 210.044 398.759 210.158 398.801 210.301C398.843 210.445 398.829 210.589 398.759 210.734C398.689 210.879 398.586 210.978 398.449 211.031C398.312 211.085 398.156 211.069 397.982 210.985C397.808 210.901 397.699 210.789 397.655 210.648C397.615 210.51 397.63 210.368 397.7 210.223ZM400.28 213.18L399.992 213.852C400.634 213.542 401.278 213.543 401.923 213.854C403.029 214.388 403.286 215.281 402.693 216.534L401.023 219.992L400.128 219.56L401.8 216.097C401.979 215.718 402.027 215.397 401.943 215.134C401.863 214.873 401.643 214.655 401.285 214.483C400.995 214.343 400.703 214.297 400.409 214.346C400.115 214.395 399.846 214.515 399.602 214.708L397.802 218.437L396.907 218.005L399.434 212.771L400.28 213.18Z" fill="white"/>
<path d="M549.791 83.22L549.535 83.8121C550.137 83.5459 550.764 83.5701 551.415 83.8846C552.147 84.238 552.51 84.759 552.503 85.4478C552.799 85.2803 553.122 85.1862 553.475 85.1653C553.83 85.146 554.198 85.2282 554.578 85.4119C555.726 85.9661 556.016 86.8557 555.449 88.0807L553.756 91.5874L552.861 91.1554L554.528 87.7019C554.709 87.3279 554.758 87.0077 554.676 86.7414C554.595 86.4718 554.353 86.2397 553.95 86.0451C553.618 85.8848 553.294 85.8516 552.978 85.9457C552.664 86.0365 552.408 86.241 552.211 86.5593L550.534 90.0321L549.635 89.5977L551.29 86.1684C551.658 85.4074 551.469 84.8471 550.724 84.4875C550.137 84.2041 549.615 84.2602 549.158 84.6557L547.313 88.4768L546.418 88.0447L548.945 82.8113L549.791 83.22ZM558.341 93.8013C558.339 93.6732 558.386 93.4692 558.481 93.1892C557.857 93.4205 557.256 93.3967 556.679 93.1181C556.163 92.869 555.809 92.5191 555.617 92.0686C555.43 91.6163 555.444 91.1661 555.661 90.7179C555.924 90.1729 556.334 89.8502 556.892 89.7496C557.454 89.6473 558.111 89.7775 558.862 90.1403L559.733 90.5606L559.931 90.1495C560.082 89.8367 560.108 89.5433 560.01 89.2692C559.913 88.9919 559.683 88.7652 559.319 88.5893C558.999 88.4352 558.693 88.3866 558.399 88.4435C558.105 88.5004 557.903 88.6433 557.792 88.8723L556.893 88.4379C557.019 88.1767 557.232 87.9696 557.533 87.8165C557.838 87.6617 558.183 87.5897 558.567 87.6004C558.955 87.6126 559.339 87.7106 559.72 87.8943C560.323 88.1855 560.722 88.5651 560.917 89.0332C561.114 89.4981 561.092 89.9981 560.849 90.5332L559.686 92.9419C559.454 93.4224 559.331 93.8341 559.317 94.177L559.279 94.2544L558.341 93.8013ZM557.185 92.4024C557.466 92.5378 557.767 92.5937 558.088 92.5701C558.41 92.5464 558.683 92.4457 558.908 92.268L559.427 91.1943L558.725 90.8556C557.629 90.3263 556.926 90.3825 556.616 91.0242C556.481 91.3047 556.468 91.5691 556.579 91.8174C556.69 92.0657 556.892 92.2607 557.185 92.4024ZM561.47 95.3123L560.576 94.8802L563.102 89.6468L563.997 90.0788L561.47 95.3123ZM563.7 88.2236C563.77 88.0785 563.873 87.977 564.008 87.9191C564.147 87.8627 564.303 87.8765 564.477 87.9606C564.651 88.0447 564.759 88.1585 564.801 88.302C564.843 88.4456 564.829 88.5899 564.759 88.735C564.689 88.8801 564.586 88.9793 564.449 89.0324C564.312 89.0856 564.156 89.0701 563.982 88.986C563.808 88.9019 563.699 88.7897 563.655 88.6494C563.615 88.5106 563.63 88.3687 563.7 88.2236ZM566.28 91.1811L565.992 91.8529C566.634 91.543 567.278 91.5437 567.923 91.855C569.029 92.389 569.286 93.2823 568.693 94.5349L567.023 97.9932L566.128 97.5612L567.8 94.098C567.979 93.7192 568.027 93.3982 567.943 93.1352C567.863 92.8736 567.643 92.6564 567.285 92.4836C566.995 92.3435 566.703 92.2979 566.409 92.3468C566.115 92.3957 565.846 92.5164 565.602 92.7087L563.802 96.4379L562.907 96.0059L565.434 90.7724L566.28 91.1811Z" fill="white"/>
<circle cx="104.5" cy="350.5" r="9.5" fill="#4000C7"/>
<circle cx="104.5" cy="194.5" r="9.5" fill="#4000C7"/>
<circle cx="104.5" cy="72.5" r="9.5" fill="#4000C7"/>
<circle cx="184.5" cy="350.5" r="9.5" fill="#4000C7"/>
<circle cx="184.5" cy="194.5" r="9.5" fill="#4000C7"/>
<circle cx="184.5" cy="72.5" r="9.5" fill="#4000C7"/>
<circle cx="265.5" cy="350.5" r="9.5" fill="#4000C7"/>
<circle cx="265.5" cy="194.5" r="9.5" fill="#4000C7"/>
<circle cx="347.5" cy="194.5" r="9.5" fill="#4000C7"/>
<circle cx="511.5" cy="318.5" r="9.5" fill="#4000C7"/>
<circle cx="347.5" cy="350.5" r="9.5" fill="#4000C7"/>
<circle cx="429.5" cy="350.5" r="9.5" fill="#4000C7"/>
<circle cx="265.5" cy="72.5" r="9.5" fill="#4000C7"/>
<circle cx="347.5" cy="72.5" r="9.5" fill="#4000C7"/>
<circle cx="431.5" cy="72.5" r="9.5" fill="#4000C7"/>
<circle cx="511.5" cy="72.5" r="9.5" fill="#4000C7"/>
<line x1="105" y1="350.5" x2="590" y2="350.5" stroke="#4000C7"/>
<line x1="108" y1="194.5" x2="344" y2="194.5" stroke="#4000C7"/>
<line x1="108" y1="72.5" x2="508" y2="72.5" stroke="#4000C7"/>
<path d="M573.665 542H572.762V534.5H573.665V542ZM574.876 539.31C574.876 538.792 574.977 538.326 575.179 537.913C575.384 537.5 575.667 537.181 576.028 536.956C576.393 536.731 576.808 536.619 577.273 536.619C577.993 536.619 578.574 536.868 579.017 537.366C579.463 537.864 579.686 538.527 579.686 539.354V539.417C579.686 539.931 579.586 540.394 579.388 540.804C579.192 541.211 578.911 541.528 578.543 541.756C578.178 541.984 577.758 542.098 577.283 542.098C576.567 542.098 575.986 541.849 575.54 541.351C575.097 540.853 574.876 540.193 574.876 539.373V539.31ZM575.784 539.417C575.784 540.003 575.919 540.473 576.189 540.828C576.463 541.183 576.827 541.36 577.283 541.36C577.742 541.36 578.107 541.181 578.377 540.823C578.647 540.462 578.782 539.957 578.782 539.31C578.782 538.73 578.644 538.261 578.367 537.903C578.094 537.542 577.729 537.361 577.273 537.361C576.827 537.361 576.468 537.539 576.194 537.894C575.921 538.248 575.784 538.756 575.784 539.417ZM580.604 539.314C580.604 538.491 580.794 537.837 581.175 537.352C581.556 536.863 582.06 536.619 582.688 536.619C583.333 536.619 583.836 536.847 584.197 537.303L584.241 536.717H585.066V541.873C585.066 542.557 584.863 543.095 584.456 543.489C584.052 543.883 583.509 544.08 582.825 544.08C582.444 544.08 582.072 543.999 581.707 543.836C581.342 543.673 581.064 543.45 580.872 543.167L581.341 542.625C581.728 543.104 582.202 543.343 582.762 543.343C583.201 543.343 583.543 543.219 583.787 542.972C584.035 542.724 584.158 542.376 584.158 541.927V541.473C583.797 541.889 583.304 542.098 582.679 542.098C582.06 542.098 581.559 541.849 581.175 541.351C580.794 540.853 580.604 540.174 580.604 539.314ZM581.512 539.417C581.512 540.013 581.634 540.481 581.878 540.823C582.122 541.162 582.464 541.331 582.903 541.331C583.473 541.331 583.891 541.072 584.158 540.555V538.143C583.882 537.638 583.466 537.386 582.913 537.386C582.474 537.386 582.13 537.557 581.883 537.898C581.635 538.24 581.512 538.746 581.512 539.417ZM587.415 542H586.512V536.717H587.415V542ZM586.438 535.315C586.438 535.169 586.482 535.045 586.57 534.944C586.661 534.843 586.795 534.793 586.971 534.793C587.146 534.793 587.28 534.843 587.371 534.944C587.462 535.045 587.508 535.169 587.508 535.315C587.508 535.462 587.462 535.584 587.371 535.682C587.28 535.779 587.146 535.828 586.971 535.828C586.795 535.828 586.661 535.779 586.57 535.682C586.482 535.584 586.438 535.462 586.438 535.315ZM589.72 536.717L589.749 537.381C590.153 536.873 590.68 536.619 591.331 536.619C592.448 536.619 593.011 537.249 593.021 538.509V542H592.117V538.504C592.114 538.123 592.026 537.841 591.854 537.659C591.684 537.477 591.419 537.386 591.058 537.386C590.765 537.386 590.507 537.464 590.286 537.62C590.065 537.776 589.892 537.981 589.769 538.235V542H588.865V536.717H589.72ZM594.402 541.526C594.402 541.37 594.448 541.24 594.539 541.136C594.633 541.032 594.773 540.979 594.959 540.979C595.145 540.979 595.285 541.032 595.379 541.136C595.477 541.24 595.525 541.37 595.525 541.526C595.525 541.676 595.477 541.801 595.379 541.902C595.285 542.003 595.145 542.054 594.959 542.054C594.773 542.054 594.633 542.003 594.539 541.902C594.448 541.801 594.402 541.676 594.402 541.526ZM597.952 536.717V542.61C597.952 543.626 597.492 544.134 596.57 544.134C596.372 544.134 596.188 544.104 596.019 544.046V543.323C596.123 543.349 596.259 543.362 596.429 543.362C596.631 543.362 596.784 543.307 596.888 543.196C596.995 543.089 597.049 542.9 597.049 542.63V536.717H597.952ZM596.956 535.315C596.956 535.172 597 535.05 597.088 534.949C597.179 534.845 597.311 534.793 597.483 534.793C597.659 534.793 597.793 534.843 597.884 534.944C597.975 535.045 598.021 535.169 598.021 535.315C598.021 535.462 597.975 535.584 597.884 535.682C597.793 535.779 597.659 535.828 597.483 535.828C597.308 535.828 597.176 535.779 597.088 535.682C597 535.584 596.956 535.462 596.956 535.315ZM602.488 540.599C602.488 540.354 602.396 540.166 602.21 540.032C602.028 539.896 601.707 539.778 601.248 539.681C600.792 539.583 600.429 539.466 600.159 539.329C599.892 539.192 599.694 539.03 599.563 538.841C599.437 538.652 599.373 538.427 599.373 538.167C599.373 537.734 599.555 537.368 599.92 537.068C600.288 536.769 600.757 536.619 601.326 536.619C601.925 536.619 602.41 536.774 602.781 537.083C603.156 537.392 603.343 537.788 603.343 538.27H602.435C602.435 538.022 602.329 537.809 602.117 537.63C601.909 537.451 601.645 537.361 601.326 537.361C600.997 537.361 600.74 537.433 600.555 537.576C600.369 537.719 600.276 537.907 600.276 538.138C600.276 538.356 600.363 538.52 600.535 538.631C600.708 538.742 601.019 538.847 601.468 538.948C601.92 539.049 602.286 539.17 602.566 539.31C602.846 539.45 603.053 539.619 603.187 539.817C603.323 540.013 603.392 540.252 603.392 540.535C603.392 541.007 603.203 541.386 602.825 541.673C602.448 541.956 601.958 542.098 601.355 542.098C600.932 542.098 600.558 542.023 600.232 541.873C599.907 541.723 599.651 541.515 599.466 541.248C599.284 540.978 599.192 540.687 599.192 540.374H600.096C600.112 540.677 600.232 540.918 600.457 541.097C600.685 541.272 600.984 541.36 601.355 541.36C601.697 541.36 601.971 541.292 602.176 541.155C602.384 541.015 602.488 540.83 602.488 540.599Z" fill="#4000C7"/>
<path d="M598.746 512.016L592.938 506.252C592.776 506.091 592.558 506 592.328 506H580.864C580.386 506 580 506.383 580 506.857V529.143C580 529.617 580.386 530 580.864 530H598.136C598.614 530 599 529.617 599 529.143V512.624C599 512.396 598.908 512.177 598.746 512.016ZM597.008 513.018H591.929V507.977L597.008 513.018ZM597.057 528.071H581.943V507.929H590.094V513.714C590.094 514.013 590.213 514.299 590.426 514.51C590.638 514.721 590.927 514.839 591.227 514.839H597.057V528.071ZM589.284 520.839H584.318C584.199 520.839 584.102 520.936 584.102 521.054V522.339C584.102 522.457 584.199 522.554 584.318 522.554H589.284C589.403 522.554 589.5 522.457 589.5 522.339V521.054C589.5 520.936 589.403 520.839 589.284 520.839ZM584.102 517.411V518.696C584.102 518.814 584.199 518.911 584.318 518.911H594.682C594.801 518.911 594.898 518.814 594.898 518.696V517.411C594.898 517.293 594.801 517.196 594.682 517.196H584.318C584.199 517.196 584.102 517.293 584.102 517.411Z" fill="#4000C7"/>
<path d="M511.646 300.354C511.842 300.549 512.158 300.549 512.354 300.354L515.536 297.172C515.731 296.976 515.731 296.66 515.536 296.464C515.34 296.269 515.024 296.269 514.828 296.464L512 299.293L509.172 296.464C508.976 296.269 508.66 296.269 508.464 296.464C508.269 296.66 508.269 296.976 508.464 297.172L511.646 300.354ZM511.5 80L511.5 300L512.5 300L512.5 80L511.5 80Z" fill="#4000C7"/>
<path d="M589.646 497.354C589.842 497.549 590.158 497.549 590.354 497.354L593.536 494.172C593.731 493.976 593.731 493.66 593.536 493.464C593.34 493.269 593.024 493.269 592.828 493.464L590 496.293L587.172 493.464C586.976 493.269 586.66 493.269 586.464 493.464C586.269 493.66 586.269 493.976 586.464 494.172L589.646 497.354ZM589.5 360L589.5 497L590.5 497L590.5 360L589.5 360Z" fill="#4000C7"/>
<circle cx="590.5" cy="350.5" r="9" fill="white" stroke="#4000C7" stroke-dasharray="2 2"/>
</svg>
