<svg width="1152" height="587" viewBox="0 0 1152 587" fill="none" xmlns="http://www.w3.org/2000/svg">
<path d="M0 0H1152V587H0V0Z" fill="white" fill-opacity="0.01"/>
<path d="M573.252 163H568.594V162.351L571.055 159.616C571.419 159.203 571.67 158.868 571.807 158.61C571.947 158.35 572.017 158.081 572.017 157.805C572.017 157.434 571.904 157.129 571.68 156.892C571.455 156.654 571.156 156.535 570.781 156.535C570.332 156.535 569.982 156.664 569.731 156.921C569.484 157.175 569.36 157.53 569.36 157.985H568.457C568.457 157.331 568.667 156.802 569.087 156.398C569.51 155.995 570.075 155.793 570.781 155.793C571.442 155.793 571.965 155.967 572.349 156.315C572.733 156.66 572.925 157.121 572.925 157.697C572.925 158.397 572.479 159.23 571.587 160.197L569.683 162.263H573.252V163ZM576.494 163.098C575.778 163.098 575.195 162.863 574.746 162.395C574.297 161.923 574.072 161.293 574.072 160.505V160.339C574.072 159.815 574.172 159.348 574.37 158.938C574.572 158.524 574.852 158.202 575.21 157.971C575.571 157.736 575.962 157.619 576.382 157.619C577.069 157.619 577.603 157.845 577.983 158.298C578.364 158.75 578.555 159.398 578.555 160.241V160.617H574.976C574.989 161.138 575.14 161.56 575.43 161.882C575.723 162.201 576.094 162.36 576.543 162.36C576.862 162.36 577.132 162.295 577.354 162.165C577.575 162.035 577.769 161.862 577.935 161.647L578.486 162.077C578.044 162.757 577.38 163.098 576.494 163.098ZM576.382 158.361C576.017 158.361 575.711 158.495 575.464 158.762C575.216 159.025 575.063 159.396 575.005 159.875H577.651V159.807C577.625 159.348 577.502 158.993 577.28 158.742C577.059 158.488 576.759 158.361 576.382 158.361ZM583.057 155.886V156.652H582.891C582.188 156.665 581.628 156.874 581.211 157.277C580.794 157.681 580.553 158.249 580.488 158.981C580.863 158.552 581.374 158.337 582.021 158.337C582.64 158.337 583.133 158.555 583.501 158.991C583.872 159.427 584.058 159.991 584.058 160.681C584.058 161.413 583.857 161.999 583.457 162.438C583.06 162.878 582.526 163.098 581.855 163.098C581.175 163.098 580.623 162.837 580.2 162.316C579.777 161.792 579.565 161.118 579.565 160.295V159.948C579.565 158.64 579.844 157.64 580.4 156.95C580.96 156.257 581.792 155.902 582.896 155.886H583.057ZM581.87 159.089C581.561 159.089 581.276 159.182 581.016 159.367C580.755 159.553 580.575 159.785 580.474 160.065V160.397C580.474 160.983 580.605 161.455 580.869 161.813C581.133 162.172 581.462 162.351 581.855 162.351C582.262 162.351 582.581 162.201 582.812 161.901C583.047 161.602 583.164 161.21 583.164 160.725C583.164 160.236 583.045 159.842 582.808 159.543C582.573 159.24 582.261 159.089 581.87 159.089ZM588.94 160.612H589.927V161.35H588.94V163H588.032V161.35H584.795V160.817L587.979 155.891H588.94V160.612ZM585.82 160.612H588.032V157.126L587.925 157.321L585.82 160.612ZM595.054 157.746C595.054 158.101 594.959 158.417 594.771 158.693C594.585 158.97 594.333 159.187 594.014 159.343C594.385 159.502 594.678 159.735 594.893 160.041C595.111 160.347 595.22 160.694 595.22 161.081C595.22 161.696 595.011 162.186 594.595 162.551C594.181 162.915 593.636 163.098 592.959 163.098C592.275 163.098 591.727 162.915 591.313 162.551C590.903 162.183 590.698 161.693 590.698 161.081C590.698 160.697 590.802 160.35 591.011 160.041C591.222 159.732 591.514 159.497 591.885 159.338C591.569 159.182 591.32 158.965 591.138 158.688C590.955 158.412 590.864 158.098 590.864 157.746C590.864 157.147 591.056 156.672 591.44 156.32C591.825 155.969 592.331 155.793 592.959 155.793C593.584 155.793 594.089 155.969 594.473 156.32C594.86 156.672 595.054 157.147 595.054 157.746ZM594.316 161.062C594.316 160.664 594.189 160.34 593.936 160.09C593.685 159.839 593.356 159.714 592.949 159.714C592.542 159.714 592.215 159.838 591.968 160.085C591.724 160.332 591.602 160.658 591.602 161.062C591.602 161.465 591.72 161.783 591.958 162.014C592.199 162.245 592.533 162.36 592.959 162.36C593.382 162.36 593.714 162.245 593.955 162.014C594.196 161.779 594.316 161.462 594.316 161.062ZM592.959 156.535C592.604 156.535 592.316 156.646 592.095 156.867C591.877 157.085 591.768 157.383 591.768 157.761C591.768 158.122 591.875 158.415 592.09 158.64C592.308 158.861 592.598 158.972 592.959 158.972C593.32 158.972 593.608 158.861 593.823 158.64C594.041 158.415 594.15 158.122 594.15 157.761C594.15 157.399 594.038 157.105 593.813 156.877C593.589 156.649 593.304 156.535 592.959 156.535ZM596.772 159.436L597.134 155.891H600.776V156.726H597.9L597.686 158.664C598.034 158.459 598.429 158.356 598.872 158.356C599.52 158.356 600.034 158.571 600.415 159.001C600.796 159.427 600.986 160.005 600.986 160.734C600.986 161.467 600.788 162.045 600.391 162.468C599.997 162.888 599.445 163.098 598.735 163.098C598.107 163.098 597.594 162.924 597.197 162.575C596.8 162.227 596.574 161.745 596.519 161.13H597.373C597.428 161.537 597.573 161.844 597.808 162.053C598.042 162.258 598.351 162.36 598.735 162.36C599.155 162.36 599.484 162.217 599.722 161.931C599.963 161.644 600.083 161.249 600.083 160.744C600.083 160.269 599.953 159.888 599.692 159.602C599.435 159.312 599.092 159.167 598.662 159.167C598.268 159.167 597.959 159.253 597.734 159.426L597.495 159.621L596.772 159.436ZM606.538 160.417C606.538 161.224 606.353 161.874 605.981 162.365C605.61 162.854 605.112 163.098 604.487 163.098C603.82 163.098 603.304 162.862 602.939 162.39L602.896 163H602.065V155.5H602.969V158.298C603.333 157.845 603.836 157.619 604.478 157.619C605.119 157.619 605.622 157.862 605.986 158.347C606.354 158.832 606.538 159.496 606.538 160.339V160.417ZM605.635 160.314C605.635 159.699 605.516 159.224 605.278 158.889C605.041 158.553 604.699 158.386 604.253 158.386C603.657 158.386 603.229 158.662 602.969 159.216V161.501C603.245 162.054 603.677 162.331 604.263 162.331C604.696 162.331 605.033 162.163 605.273 161.828C605.514 161.493 605.635 160.988 605.635 160.314ZM556.562 169.717L556.587 170.303C556.974 169.847 557.497 169.619 558.154 169.619C558.893 169.619 559.396 169.902 559.663 170.469C559.839 170.215 560.067 170.01 560.347 169.854C560.63 169.697 560.964 169.619 561.348 169.619C562.507 169.619 563.096 170.233 563.115 171.46V175H562.212V171.514C562.212 171.136 562.126 170.854 561.953 170.669C561.781 170.48 561.491 170.386 561.084 170.386C560.749 170.386 560.47 170.487 560.249 170.688C560.028 170.887 559.899 171.156 559.863 171.494V175H558.955V171.538C558.955 170.77 558.579 170.386 557.827 170.386C557.235 170.386 556.829 170.638 556.611 171.143V175H555.708V169.717H556.562ZM566.675 175.098C565.959 175.098 565.376 174.863 564.927 174.395C564.478 173.923 564.253 173.293 564.253 172.505V172.339C564.253 171.815 564.352 171.348 564.551 170.938C564.753 170.524 565.033 170.202 565.391 169.971C565.752 169.736 566.143 169.619 566.562 169.619C567.249 169.619 567.783 169.845 568.164 170.298C568.545 170.75 568.735 171.398 568.735 172.241V172.617H565.156C565.169 173.138 565.321 173.56 565.61 173.882C565.903 174.201 566.274 174.36 566.724 174.36C567.043 174.36 567.313 174.295 567.534 174.165C567.756 174.035 567.949 173.862 568.115 173.647L568.667 174.077C568.224 174.757 567.56 175.098 566.675 175.098ZM566.562 170.361C566.198 170.361 565.892 170.495 565.645 170.762C565.397 171.025 565.244 171.396 565.186 171.875H567.832V171.807C567.806 171.348 567.682 170.993 567.461 170.742C567.24 170.488 566.94 170.361 566.562 170.361ZM572.339 170.527C572.202 170.505 572.054 170.493 571.895 170.493C571.302 170.493 570.9 170.745 570.688 171.25V175H569.785V169.717H570.664L570.679 170.327C570.975 169.855 571.395 169.619 571.938 169.619C572.114 169.619 572.248 169.642 572.339 169.688V170.527ZM572.861 172.314C572.861 171.491 573.052 170.837 573.433 170.352C573.813 169.863 574.318 169.619 574.946 169.619C575.591 169.619 576.094 169.847 576.455 170.303L576.499 169.717H577.324V174.873C577.324 175.557 577.121 176.095 576.714 176.489C576.31 176.883 575.767 177.08 575.083 177.08C574.702 177.08 574.329 176.999 573.965 176.836C573.6 176.673 573.322 176.45 573.13 176.167L573.599 175.625C573.986 176.104 574.46 176.343 575.02 176.343C575.459 176.343 575.801 176.219 576.045 175.972C576.292 175.724 576.416 175.376 576.416 174.927V174.473C576.055 174.889 575.562 175.098 574.937 175.098C574.318 175.098 573.817 174.849 573.433 174.351C573.052 173.853 572.861 173.174 572.861 172.314ZM573.77 172.417C573.77 173.013 573.892 173.481 574.136 173.823C574.38 174.162 574.722 174.331 575.161 174.331C575.731 174.331 576.149 174.072 576.416 173.555V171.143C576.139 170.638 575.724 170.386 575.171 170.386C574.731 170.386 574.388 170.557 574.141 170.898C573.893 171.24 573.77 171.746 573.77 172.417ZM580.884 175.098C580.168 175.098 579.585 174.863 579.136 174.395C578.687 173.923 578.462 173.293 578.462 172.505V172.339C578.462 171.815 578.561 171.348 578.76 170.938C578.962 170.524 579.242 170.202 579.6 169.971C579.961 169.736 580.352 169.619 580.771 169.619C581.458 169.619 581.992 169.845 582.373 170.298C582.754 170.75 582.944 171.398 582.944 172.241V172.617H579.365C579.378 173.138 579.53 173.56 579.819 173.882C580.112 174.201 580.483 174.36 580.933 174.36C581.252 174.36 581.522 174.295 581.743 174.165C581.965 174.035 582.158 173.862 582.324 173.647L582.876 174.077C582.433 174.757 581.769 175.098 580.884 175.098ZM580.771 170.361C580.407 170.361 580.101 170.495 579.854 170.762C579.606 171.025 579.453 171.396 579.395 171.875H582.041V171.807C582.015 171.348 581.891 170.993 581.67 170.742C581.449 170.488 581.149 170.361 580.771 170.361ZM588.594 174.36C588.916 174.36 589.198 174.263 589.438 174.067C589.679 173.872 589.813 173.628 589.839 173.335H590.693C590.677 173.638 590.573 173.926 590.381 174.199C590.189 174.473 589.932 174.691 589.609 174.854C589.29 175.016 588.952 175.098 588.594 175.098C587.874 175.098 587.301 174.858 586.875 174.38C586.452 173.898 586.24 173.241 586.24 172.407V172.256C586.24 171.742 586.335 171.284 586.523 170.884C586.712 170.483 586.982 170.173 587.334 169.951C587.689 169.73 588.107 169.619 588.589 169.619C589.181 169.619 589.673 169.797 590.063 170.151C590.457 170.506 590.667 170.967 590.693 171.533H589.839C589.813 171.191 589.683 170.911 589.448 170.693C589.217 170.472 588.931 170.361 588.589 170.361C588.13 170.361 587.773 170.527 587.52 170.859C587.269 171.188 587.144 171.665 587.144 172.29V172.461C587.144 173.07 587.269 173.538 587.52 173.867C587.77 174.196 588.128 174.36 588.594 174.36ZM591.47 172.31C591.47 171.792 591.571 171.326 591.772 170.913C591.978 170.5 592.261 170.181 592.622 169.956C592.987 169.731 593.402 169.619 593.867 169.619C594.587 169.619 595.168 169.868 595.61 170.366C596.056 170.864 596.279 171.527 596.279 172.354V172.417C596.279 172.931 596.18 173.394 595.981 173.804C595.786 174.211 595.505 174.528 595.137 174.756C594.772 174.984 594.352 175.098 593.877 175.098C593.161 175.098 592.58 174.849 592.134 174.351C591.691 173.853 591.47 173.193 591.47 172.373V172.31ZM592.378 172.417C592.378 173.003 592.513 173.473 592.783 173.828C593.057 174.183 593.421 174.36 593.877 174.36C594.336 174.36 594.701 174.181 594.971 173.823C595.241 173.462 595.376 172.957 595.376 172.31C595.376 171.73 595.238 171.261 594.961 170.903C594.688 170.542 594.323 170.361 593.867 170.361C593.421 170.361 593.062 170.539 592.788 170.894C592.515 171.248 592.378 171.756 592.378 172.417ZM598.262 169.717L598.286 170.303C598.674 169.847 599.196 169.619 599.854 169.619C600.592 169.619 601.095 169.902 601.362 170.469C601.538 170.215 601.766 170.01 602.046 169.854C602.329 169.697 602.663 169.619 603.047 169.619C604.206 169.619 604.795 170.233 604.814 171.46V175H603.911V171.514C603.911 171.136 603.825 170.854 603.652 170.669C603.48 170.48 603.19 170.386 602.783 170.386C602.448 170.386 602.17 170.487 601.948 170.688C601.727 170.887 601.598 171.156 601.562 171.494V175H600.654V171.538C600.654 170.77 600.278 170.386 599.526 170.386C598.934 170.386 598.529 170.638 598.311 171.143V175H597.407V169.717H598.262ZM607.031 169.717L607.056 170.303C607.443 169.847 607.965 169.619 608.623 169.619C609.362 169.619 609.865 169.902 610.132 170.469C610.308 170.215 610.535 170.01 610.815 169.854C611.099 169.697 611.432 169.619 611.816 169.619C612.975 169.619 613.564 170.233 613.584 171.46V175H612.681V171.514C612.681 171.136 612.594 170.854 612.422 170.669C612.249 170.48 611.96 170.386 611.553 170.386C611.217 170.386 610.939 170.487 610.718 170.688C610.496 170.887 610.368 171.156 610.332 171.494V175H609.424V171.538C609.424 170.77 609.048 170.386 608.296 170.386C607.703 170.386 607.298 170.638 607.08 171.143V175H606.177V169.717H607.031ZM615.933 175H615.029V169.717H615.933V175ZM614.956 168.315C614.956 168.169 615 168.045 615.088 167.944C615.179 167.843 615.312 167.793 615.488 167.793C615.664 167.793 615.798 167.843 615.889 167.944C615.98 168.045 616.025 168.169 616.025 168.315C616.025 168.462 615.98 168.584 615.889 168.682C615.798 168.779 615.664 168.828 615.488 168.828C615.312 168.828 615.179 168.779 615.088 168.682C615 168.584 614.956 168.462 614.956 168.315ZM618.608 168.438V169.717H619.595V170.415H618.608V173.691C618.608 173.903 618.652 174.062 618.74 174.17C618.828 174.274 618.978 174.326 619.189 174.326C619.294 174.326 619.437 174.307 619.619 174.268V175C619.382 175.065 619.15 175.098 618.926 175.098C618.522 175.098 618.218 174.976 618.013 174.731C617.808 174.487 617.705 174.141 617.705 173.691V170.415H616.743V169.717H617.705V168.438H618.608Z" fill="black"/>
<path d="M415.159 160.875C414.97 161.1 414.744 161.28 414.48 161.417C414.22 161.554 413.934 161.622 413.621 161.622C413.211 161.622 412.853 161.521 412.547 161.319C412.244 161.118 412.01 160.834 411.844 160.47C411.678 160.102 411.595 159.697 411.595 159.254C411.595 158.779 411.684 158.351 411.863 157.97C412.046 157.589 412.303 157.298 412.635 157.096C412.967 156.894 413.354 156.793 413.797 156.793C414.5 156.793 415.053 157.057 415.457 157.584C415.864 158.108 416.067 158.824 416.067 159.732V159.996C416.067 161.38 415.794 162.39 415.247 163.028C414.7 163.663 413.875 163.989 412.771 164.005H412.596V163.243H412.786C413.532 163.23 414.104 163.036 414.505 162.662C414.905 162.285 415.123 161.689 415.159 160.875ZM413.768 160.875C414.07 160.875 414.349 160.782 414.603 160.597C414.86 160.411 415.047 160.182 415.164 159.908V159.547C415.164 158.954 415.035 158.473 414.778 158.102C414.521 157.73 414.196 157.545 413.802 157.545C413.405 157.545 413.086 157.698 412.845 158.004C412.604 158.307 412.483 158.707 412.483 159.205C412.483 159.69 412.599 160.09 412.83 160.406C413.064 160.719 413.377 160.875 413.768 160.875ZM421.878 161.417C421.878 162.224 421.692 162.874 421.321 163.365C420.95 163.854 420.452 164.098 419.827 164.098C419.16 164.098 418.644 163.862 418.279 163.39L418.235 164H417.405V156.5H418.309V159.298C418.673 158.845 419.176 158.619 419.817 158.619C420.459 158.619 420.962 158.862 421.326 159.347C421.694 159.832 421.878 160.496 421.878 161.339V161.417ZM420.975 161.314C420.975 160.699 420.856 160.224 420.618 159.889C420.381 159.553 420.039 159.386 419.593 159.386C418.997 159.386 418.569 159.662 418.309 160.216V162.501C418.585 163.054 419.017 163.331 419.603 163.331C420.035 163.331 420.372 163.163 420.613 162.828C420.854 162.493 420.975 161.988 420.975 161.314ZM423.465 164V159.415H422.63V158.717H423.465V158.175C423.465 157.608 423.616 157.171 423.919 156.861C424.222 156.552 424.65 156.397 425.203 156.397C425.411 156.397 425.618 156.425 425.823 156.48L425.774 157.213C425.621 157.184 425.459 157.169 425.286 157.169C424.993 157.169 424.767 157.255 424.607 157.428C424.448 157.597 424.368 157.841 424.368 158.16V158.717H425.496V159.415H424.368V164H423.465ZM427.718 160.006H428.396C428.823 159.999 429.158 159.887 429.402 159.669C429.646 159.451 429.769 159.156 429.769 158.785C429.769 157.952 429.354 157.535 428.523 157.535C428.133 157.535 427.82 157.647 427.586 157.872C427.355 158.093 427.239 158.388 427.239 158.756H426.336C426.336 158.193 426.541 157.726 426.951 157.354C427.365 156.98 427.889 156.793 428.523 156.793C429.194 156.793 429.72 156.97 430.101 157.325C430.481 157.68 430.672 158.173 430.672 158.805C430.672 159.114 430.571 159.413 430.369 159.703C430.171 159.993 429.899 160.209 429.554 160.353C429.944 160.476 430.245 160.681 430.457 160.968C430.672 161.254 430.779 161.604 430.779 162.018C430.779 162.656 430.571 163.162 430.154 163.536C429.738 163.91 429.196 164.098 428.528 164.098C427.861 164.098 427.317 163.917 426.897 163.556C426.481 163.194 426.272 162.717 426.272 162.125H427.181C427.181 162.499 427.303 162.799 427.547 163.023C427.791 163.248 428.118 163.36 428.528 163.36C428.965 163.36 429.298 163.246 429.529 163.019C429.76 162.791 429.876 162.464 429.876 162.037C429.876 161.624 429.749 161.306 429.495 161.085C429.241 160.864 428.875 160.75 428.396 160.743H427.718V160.006ZM436.609 157.398L433.665 164H432.718L435.652 157.633H431.805V156.891H436.609V157.398ZM438.948 160.006H439.627C440.053 159.999 440.389 159.887 440.633 159.669C440.877 159.451 440.999 159.156 440.999 158.785C440.999 157.952 440.584 157.535 439.754 157.535C439.363 157.535 439.051 157.647 438.816 157.872C438.585 158.093 438.47 158.388 438.47 158.756H437.566C437.566 158.193 437.771 157.726 438.182 157.354C438.595 156.98 439.119 156.793 439.754 156.793C440.424 156.793 440.95 156.97 441.331 157.325C441.712 157.68 441.902 158.173 441.902 158.805C441.902 159.114 441.801 159.413 441.6 159.703C441.401 159.993 441.129 160.209 440.784 160.353C441.175 160.476 441.476 160.681 441.688 160.968C441.902 161.254 442.01 161.604 442.01 162.018C442.01 162.656 441.801 163.162 441.385 163.536C440.968 163.91 440.426 164.098 439.759 164.098C439.091 164.098 438.548 163.917 438.128 163.556C437.711 163.194 437.503 162.717 437.503 162.125H438.411C438.411 162.499 438.533 162.799 438.777 163.023C439.021 163.248 439.349 163.36 439.759 163.36C440.195 163.36 440.529 163.246 440.76 163.019C440.991 162.791 441.106 162.464 441.106 162.037C441.106 161.624 440.979 161.306 440.726 161.085C440.472 160.864 440.105 160.75 439.627 160.743H438.948V160.006ZM445.462 163.36C445.784 163.36 446.066 163.263 446.307 163.067C446.548 162.872 446.681 162.628 446.707 162.335H447.562C447.545 162.638 447.441 162.926 447.249 163.199C447.057 163.473 446.8 163.691 446.478 163.854C446.159 164.016 445.82 164.098 445.462 164.098C444.743 164.098 444.17 163.858 443.743 163.38C443.32 162.898 443.108 162.241 443.108 161.407V161.256C443.108 160.742 443.203 160.284 443.392 159.884C443.58 159.483 443.851 159.173 444.202 158.951C444.557 158.73 444.975 158.619 445.457 158.619C446.049 158.619 446.541 158.797 446.932 159.151C447.326 159.506 447.535 159.967 447.562 160.533H446.707C446.681 160.191 446.551 159.911 446.316 159.693C446.085 159.472 445.799 159.361 445.457 159.361C444.998 159.361 444.642 159.527 444.388 159.859C444.137 160.188 444.012 160.665 444.012 161.29V161.461C444.012 162.07 444.137 162.538 444.388 162.867C444.638 163.196 444.996 163.36 445.462 163.36ZM395.223 174.96V173.27H398.093V172.61H392.573V171.16H397.883V168.43H391.743V169.1H397.083V170.5H391.763V173.27H394.393V174.96H390.743V175.63H398.893V174.96H395.223ZM406.172 169.62C406.172 170.73 406.172 172.07 405.812 173.9L406.632 173.99C406.982 172.05 406.982 170.76 406.982 169.62V168.72H400.832V169.39H406.172V169.62ZM399.962 174.75V175.43H408.072V174.75H399.962ZM416.511 167.78H415.691V174.33H416.511V167.78ZM410.161 170.6C410.161 169.73 410.821 169.11 411.691 169.11C412.581 169.11 413.241 169.73 413.241 170.6C413.241 171.49 412.581 172.11 411.691 172.11C410.821 172.11 410.161 171.49 410.161 170.6ZM414.041 170.6C414.041 169.31 413.031 168.4 411.691 168.4C410.361 168.4 409.361 169.31 409.361 170.6C409.361 171.9 410.361 172.82 411.691 172.82C413.031 172.82 414.041 171.9 414.041 170.6ZM411.561 175.87V173.66H410.741V176.54H416.781V175.87H411.561ZM422.401 169.57H423.521V173.78C423.141 173.8 422.771 173.81 422.401 173.82V169.57ZM424.271 169.57H425.011V168.91H420.911V169.57H421.651V173.84C421.311 173.85 421.011 173.85 420.741 173.85L420.821 174.53C421.991 174.53 423.871 174.49 425.261 174.23L425.211 173.63C424.921 173.67 424.591 173.7 424.271 173.73V169.57ZM425.971 171.19H424.741V171.91H425.971V176.27H426.741V167.99H425.971V171.19ZM427.701 167.78V176.74H428.491V167.78H427.701ZM436.55 167.77V176.76H437.37V167.77H436.55ZM432.64 168.46C431.31 168.46 430.36 169.68 430.36 171.59C430.36 173.5 431.31 174.72 432.64 174.72C433.97 174.72 434.92 173.5 434.92 171.59C434.92 169.68 433.97 168.46 432.64 168.46ZM432.64 169.2C433.51 169.2 434.13 170.14 434.13 171.59C434.13 173.05 433.51 173.99 432.64 173.99C431.76 173.99 431.14 173.05 431.14 171.59C431.14 170.14 431.76 169.2 432.64 169.2ZM442.429 169.37H444.539V168.69H439.529V169.37H441.609V170.51C441.609 172.06 440.519 173.75 439.229 174.36L439.709 175.02C440.729 174.5 441.609 173.37 442.019 172.06C442.449 173.29 443.329 174.32 444.369 174.8L444.829 174.14C443.509 173.58 442.429 172.03 442.429 170.51V169.37ZM445.749 167.78V176.74H446.569V167.78H445.749ZM459.029 172.21H457.699C457.949 170.92 457.949 169.97 457.949 169.13V168.35H451.929V169.01H457.149V169.13C457.149 169.97 457.149 170.92 456.869 172.21H450.919V172.88H454.539V176.75H455.369V172.88H459.029V172.21ZM465.148 170.16V170.83H466.658V172.04H465.148V172.71H466.658V174.61H467.488V167.78H466.658V170.16H465.148ZM465.148 168.87H463.088V167.76H462.268V168.87H460.128V169.53H465.148V168.87ZM461.418 171.73C461.418 171.1 461.928 170.67 462.668 170.67C463.408 170.67 463.918 171.1 463.918 171.73C463.918 172.37 463.408 172.81 462.668 172.81C461.928 172.81 461.418 172.37 461.418 171.73ZM464.698 171.73C464.698 170.71 463.858 170.03 462.668 170.03C461.478 170.03 460.638 170.71 460.638 171.73C460.638 172.76 461.478 173.45 462.668 173.45C463.858 173.45 464.698 172.76 464.698 171.73ZM462.548 175.87V174.03H461.728V176.54H467.698V175.87H462.548Z" fill="black"/>
<path d="M432.262 192C429.985 182.652 441.62 161.945 505 163.042" stroke="#4000C7"/>
<path d="M590.738 192C593.015 182.652 581.38 161.945 518 163.042" stroke="#4000C7"/>
<rect x="609.031" y="211.209" width="18" height="41" rx="5" transform="rotate(-64.2277 609.031 211.209)" fill="black"/>
<path d="M605.739 199.626L614.675 200.094L611.662 206.333L605.739 199.626Z" fill="black"/>
<path d="M622.791 205.219L622.535 205.811C623.137 205.545 623.764 205.569 624.415 205.884C625.147 206.237 625.51 206.758 625.503 207.447C625.799 207.279 626.122 207.185 626.475 207.164C626.83 207.145 627.198 207.227 627.578 207.411C628.726 207.965 629.016 208.855 628.449 210.08L626.756 213.586L625.861 213.154L627.528 209.701C627.709 209.327 627.758 209.007 627.676 208.74C627.595 208.471 627.353 208.239 626.95 208.044C626.618 207.884 626.294 207.851 625.978 207.945C625.664 208.036 625.408 208.24 625.211 208.558L623.534 212.031L622.635 211.597L624.29 208.167C624.658 207.406 624.469 206.846 623.724 206.487C623.137 206.203 622.615 206.259 622.158 206.655L620.313 210.476L619.418 210.044L621.945 204.81L622.791 205.219ZM631.341 215.8C631.339 215.672 631.386 215.468 631.481 215.188C630.857 215.419 630.256 215.396 629.679 215.117C629.163 214.868 628.809 214.518 628.617 214.068C628.43 213.615 628.444 213.165 628.661 212.717C628.924 212.172 629.334 211.849 629.892 211.749C630.454 211.646 631.111 211.777 631.862 212.139L632.733 212.56L632.931 212.149C633.082 211.836 633.108 211.542 633.01 211.268C632.913 210.991 632.683 210.764 632.319 210.588C631.999 210.434 631.693 210.386 631.399 210.443C631.105 210.499 630.903 210.642 630.792 210.871L629.893 210.437C630.019 210.176 630.232 209.969 630.533 209.816C630.838 209.661 631.183 209.589 631.567 209.599C631.955 209.612 632.339 209.71 632.72 209.893C633.323 210.184 633.722 210.564 633.917 211.032C634.114 211.497 634.092 211.997 633.849 212.532L632.686 214.941C632.454 215.421 632.331 215.833 632.317 216.176L632.279 216.253L631.341 215.8ZM630.185 214.401C630.466 214.537 630.767 214.593 631.088 214.569C631.41 214.545 631.683 214.445 631.908 214.267L632.427 213.193L631.725 212.855C630.629 212.325 629.926 212.381 629.616 213.023C629.481 213.304 629.468 213.568 629.579 213.816C629.69 214.065 629.892 214.26 630.185 214.401ZM634.47 217.311L633.576 216.879L636.102 211.646L636.997 212.078L634.47 217.311ZM636.7 210.223C636.77 210.078 636.873 209.976 637.008 209.918C637.147 209.862 637.303 209.876 637.477 209.96C637.651 210.044 637.759 210.158 637.801 210.301C637.843 210.445 637.829 210.589 637.759 210.734C637.689 210.879 637.586 210.978 637.449 211.031C637.312 211.085 637.156 211.069 636.982 210.985C636.808 210.901 636.699 210.789 636.655 210.648C636.615 210.51 636.63 210.368 636.7 210.223ZM639.28 213.18L638.992 213.852C639.634 213.542 640.278 213.543 640.923 213.854C642.029 214.388 642.286 215.281 641.693 216.534L640.023 219.992L639.128 219.56L640.8 216.097C640.979 215.718 641.027 215.397 640.943 215.134C640.863 214.873 640.643 214.655 640.285 214.483C639.995 214.343 639.703 214.297 639.409 214.346C639.115 214.395 638.846 214.515 638.602 214.708L636.802 218.437L635.907 218.005L638.434 212.771L639.28 213.18Z" fill="white"/>
<circle cx="511.5" cy="162.5" r="9.5" fill="#4000C7"/>
<circle cx="429.5" cy="194.5" r="9.5" fill="#4000C7"/>
<line x1="350" y1="194.5" x2="588" y2="194.5" stroke="#4000C7"/>
<path d="M591.354 211.646C591.158 211.451 590.842 211.451 590.646 211.646L587.464 214.828C587.269 215.024 587.269 215.34 587.464 215.536C587.66 215.731 587.976 215.731 588.172 215.536L591 212.707L593.828 215.536C594.024 215.731 594.34 215.731 594.536 215.536C594.731 215.34 594.731 215.024 594.536 214.828L591.354 211.646ZM591.5 344L591.5 212L590.5 212L590.5 344L591.5 344Z" fill="#4000C7"/>
<circle cx="590.5" cy="194.5" r="9.5" fill="#4000C7"/>
</svg>
