<svg width="1152" height="587" viewBox="0 0 1152 587" fill="none" xmlns="http://www.w3.org/2000/svg">
<path d="M0 0H1152V587H0V0Z" fill="white" fill-opacity="0.01"/>
<path d="M331.048 323H330.14V316.979L328.318 317.648V316.828L330.906 315.856H331.048V323ZM333.567 320.314C333.567 319.504 333.759 318.853 334.144 318.361C334.528 317.867 335.031 317.619 335.652 317.619C336.271 317.619 336.761 317.831 337.122 318.254V315.5H338.025V323H337.195L337.151 322.434C336.79 322.876 336.287 323.098 335.643 323.098C335.031 323.098 334.531 322.847 334.144 322.346C333.759 321.844 333.567 321.19 333.567 320.383V320.314ZM334.471 320.417C334.471 321.016 334.594 321.485 334.842 321.823C335.089 322.162 335.431 322.331 335.867 322.331C336.44 322.331 336.858 322.074 337.122 321.56V319.133C336.852 318.635 336.437 318.386 335.877 318.386C335.434 318.386 335.089 318.557 334.842 318.898C334.594 319.24 334.471 319.746 334.471 320.417ZM341.624 323.098C340.908 323.098 340.325 322.863 339.876 322.395C339.427 321.923 339.202 321.293 339.202 320.505V320.339C339.202 319.815 339.301 319.348 339.5 318.938C339.702 318.524 339.982 318.202 340.34 317.971C340.701 317.736 341.092 317.619 341.512 317.619C342.199 317.619 342.732 317.845 343.113 318.298C343.494 318.75 343.685 319.398 343.685 320.241V320.617H340.105C340.118 321.138 340.27 321.56 340.56 321.882C340.853 322.201 341.224 322.36 341.673 322.36C341.992 322.36 342.262 322.295 342.483 322.165C342.705 322.035 342.898 321.862 343.064 321.647L343.616 322.077C343.174 322.757 342.509 323.098 341.624 323.098ZM341.512 318.361C341.147 318.361 340.841 318.495 340.594 318.762C340.346 319.025 340.193 319.396 340.135 319.875H342.781V319.807C342.755 319.348 342.632 318.993 342.41 318.742C342.189 318.488 341.889 318.361 341.512 318.361ZM348.953 317.746C348.953 318.101 348.859 318.417 348.67 318.693C348.484 318.97 348.232 319.187 347.913 319.343C348.284 319.502 348.577 319.735 348.792 320.041C349.01 320.347 349.119 320.694 349.119 321.081C349.119 321.696 348.911 322.186 348.494 322.551C348.081 322.915 347.535 323.098 346.858 323.098C346.175 323.098 345.626 322.915 345.213 322.551C344.803 322.183 344.598 321.693 344.598 321.081C344.598 320.697 344.702 320.35 344.91 320.041C345.122 319.732 345.413 319.497 345.784 319.338C345.468 319.182 345.219 318.965 345.037 318.688C344.855 318.412 344.764 318.098 344.764 317.746C344.764 317.147 344.956 316.672 345.34 316.32C345.724 315.969 346.23 315.793 346.858 315.793C347.483 315.793 347.988 315.969 348.372 316.32C348.759 316.672 348.953 317.147 348.953 317.746ZM348.216 321.062C348.216 320.664 348.089 320.34 347.835 320.09C347.584 319.839 347.256 319.714 346.849 319.714C346.442 319.714 346.115 319.838 345.867 320.085C345.623 320.332 345.501 320.658 345.501 321.062C345.501 321.465 345.62 321.783 345.857 322.014C346.098 322.245 346.432 322.36 346.858 322.36C347.282 322.36 347.614 322.245 347.854 322.014C348.095 321.779 348.216 321.462 348.216 321.062ZM346.858 316.535C346.504 316.535 346.215 316.646 345.994 316.867C345.776 317.085 345.667 317.383 345.667 317.761C345.667 318.122 345.774 318.415 345.989 318.64C346.207 318.861 346.497 318.972 346.858 318.972C347.22 318.972 347.508 318.861 347.723 318.64C347.941 318.415 348.05 318.122 348.05 317.761C348.05 317.399 347.938 317.105 347.713 316.877C347.488 316.649 347.203 316.535 346.858 316.535ZM354.847 316.398L351.902 323H350.955L353.89 316.633H350.042V315.891H354.847V316.398ZM360.53 323H355.872V322.351L358.333 319.616C358.698 319.203 358.948 318.868 359.085 318.61C359.225 318.35 359.295 318.081 359.295 317.805C359.295 317.434 359.183 317.129 358.958 316.892C358.733 316.654 358.434 316.535 358.06 316.535C357.61 316.535 357.26 316.664 357.01 316.921C356.762 317.175 356.639 317.53 356.639 317.985H355.735C355.735 317.331 355.945 316.802 356.365 316.398C356.788 315.995 357.353 315.793 358.06 315.793C358.72 315.793 359.243 315.967 359.627 316.315C360.011 316.66 360.203 317.121 360.203 317.697C360.203 318.397 359.757 319.23 358.865 320.197L356.961 322.263H360.53V323ZM366.053 320.417C366.053 321.224 365.867 321.874 365.496 322.365C365.125 322.854 364.627 323.098 364.002 323.098C363.335 323.098 362.819 322.862 362.454 322.39L362.41 323H361.58V315.5H362.483V318.298C362.848 317.845 363.351 317.619 363.992 317.619C364.633 317.619 365.136 317.862 365.501 318.347C365.869 318.832 366.053 319.496 366.053 320.339V320.417ZM365.149 320.314C365.149 319.699 365.031 319.224 364.793 318.889C364.555 318.553 364.214 318.386 363.768 318.386C363.172 318.386 362.744 318.662 362.483 319.216V321.501C362.76 322.054 363.191 322.331 363.777 322.331C364.21 322.331 364.547 322.163 364.788 321.828C365.029 321.493 365.149 320.988 365.149 320.314ZM332.291 328.31H330.481V327H329.671V328.31H327.881V328.97H332.291V328.31ZM330.081 332.99C329.401 332.99 328.921 332.42 328.921 331.63C328.921 330.84 329.401 330.27 330.081 330.27C330.741 330.27 331.231 330.84 331.231 331.63C331.231 332.42 330.741 332.99 330.081 332.99ZM330.081 329.58C328.991 329.58 328.201 330.42 328.201 331.63C328.201 332.84 328.991 333.68 330.081 333.68C331.161 333.68 331.951 332.84 331.951 331.63C331.951 330.42 331.161 329.58 330.081 329.58ZM333.041 330.23H332.041V330.92H333.041V335.29H333.821V326.97H333.041V330.23ZM334.731 326.77V335.74H335.511V326.77H334.731ZM338.361 328.3H341.621V327.62H337.541V333.54H338.231C339.931 333.54 341.011 333.48 342.311 333.24L342.211 332.56C341.001 332.79 339.951 332.85 338.361 332.85V328.3ZM343.661 326.77V330.02H341.091V330.7H343.661V335.76H344.481V326.77H343.661ZM356.49 330.19C354.86 329.95 353.26 328.84 353.26 327.59V327.09H352.4V327.59C352.4 328.87 350.82 329.95 349.19 330.19L349.52 330.85C350.92 330.61 352.27 329.84 352.83 328.75C353.41 329.83 354.76 330.61 356.15 330.85L356.49 330.19ZM356.88 331.82H348.78V332.5H352.4V335.75H353.22V332.5H356.89L356.88 331.82ZM362.759 329.1V329.77H364.529V332.12H365.359V326.78H364.529V329.1H362.759ZM363.259 331.14C361.959 330.68 361.079 329.55 361.079 328.4V328.09H363.049V327.43H358.259V328.09H360.259V328.4C360.259 329.69 359.339 330.9 357.999 331.39L358.429 332.04C359.479 331.64 360.309 330.8 360.689 329.76C361.079 330.68 361.849 331.42 362.849 331.78L363.259 331.14ZM362.399 335.1C361.049 335.1 360.229 334.72 360.229 334.07C360.229 333.42 361.049 333.03 362.399 333.03C363.749 333.03 364.569 333.42 364.569 334.07C364.569 334.72 363.749 335.1 362.399 335.1ZM362.399 332.4C360.559 332.4 359.409 333.01 359.409 334.07C359.409 335.13 360.559 335.74 362.399 335.74C364.239 335.74 365.389 335.13 365.389 334.07C365.389 333.01 364.239 332.4 362.399 332.4Z" fill="black"/>
<rect x="386" y="302" width="88" height="27" rx="13.5" fill="#7D7D7D"/>
<path d="M406.241 312.408V313.279H408.204V314.852H406.241V315.723H408.204V318.193H409.283V309.314H408.204V312.408H406.241ZM406.241 310.731H403.563V309.288H402.497V310.731H399.715V311.589H406.241V310.731ZM401.392 314.449C401.392 313.63 402.055 313.071 403.017 313.071C403.979 313.071 404.642 313.63 404.642 314.449C404.642 315.281 403.979 315.853 403.017 315.853C402.055 315.853 401.392 315.281 401.392 314.449ZM405.656 314.449C405.656 313.123 404.564 312.239 403.017 312.239C401.47 312.239 400.378 313.123 400.378 314.449C400.378 315.788 401.47 316.685 403.017 316.685C404.564 316.685 405.656 315.788 405.656 314.449ZM402.861 319.831V317.439H401.795V320.702H409.556V319.831H402.861ZM415.093 311.55H417.212V310.679H411.804V311.55H414.066V312.46C414.066 314.826 413.195 316.815 411.531 317.751L412.181 318.557C413.39 317.855 414.209 316.594 414.599 315.008C415.015 316.386 415.821 317.517 416.965 318.154L417.589 317.335C415.938 316.477 415.093 314.592 415.093 312.46V311.55ZM420.566 309.288V314.007H419.032V309.561H418.031V320.39H419.032V314.891H420.566V320.962H421.593V309.288H420.566ZM436.4 309.314H435.334V317.842H436.4V309.314ZM433.956 315.333C432.24 314.761 431.031 313.344 431.031 311.771V311.134H433.67V310.276H427.274V311.134H429.939V311.771C429.939 313.435 428.756 314.956 426.988 315.567L427.547 316.399C428.925 315.905 430.004 314.852 430.498 313.526C431.031 314.748 432.097 315.71 433.436 316.178L433.956 315.333ZM429.965 319.831V317.036H428.899V320.702H436.751V319.831H429.965ZM446.123 313.344H447.605V316.685H448.632V309.301H447.605V312.473H446.123V309.522H445.109V316.256H446.123V313.344ZM444.641 310.692H442.223V309.392H441.17V310.692H438.726V311.537H444.654L444.641 310.692ZM440.169 314.137C440.169 313.422 440.78 312.941 441.703 312.941C442.613 312.941 443.237 313.422 443.237 314.137C443.237 314.865 442.613 315.346 441.703 315.346C440.78 315.346 440.169 314.865 440.169 314.137ZM444.186 314.137C444.186 312.941 443.172 312.148 441.703 312.148C440.234 312.148 439.207 312.941 439.207 314.137C439.207 315.359 440.234 316.139 441.703 316.139C443.172 316.139 444.186 315.359 444.186 314.137ZM444.797 320.13C443.016 320.13 441.95 319.688 441.95 318.921C441.95 318.141 443.016 317.699 444.797 317.699C446.565 317.699 447.631 318.141 447.631 318.921C447.631 319.688 446.565 320.13 444.797 320.13ZM444.797 316.88C442.366 316.88 440.897 317.608 440.897 318.921C440.897 320.221 442.366 320.949 444.797 320.949C447.228 320.949 448.697 320.221 448.697 318.921C448.697 317.608 447.228 316.88 444.797 316.88ZM451.725 314.059C453.636 313.825 455.391 312.967 456.028 311.68C456.678 312.967 458.42 313.825 460.331 314.059L460.708 313.214C458.667 312.98 456.808 311.979 456.717 310.692H460.344V309.834H451.725V310.692H455.339C455.248 311.979 453.389 312.98 451.348 313.214L451.725 314.059ZM458.927 318.895C458.927 319.675 457.835 320.13 456.015 320.13C454.182 320.13 453.103 319.675 453.103 318.895C453.103 318.115 454.182 317.673 456.015 317.673C457.835 317.673 458.927 318.115 458.927 318.895ZM461.293 315.619V314.761H450.75V315.619H455.482V316.867C453.311 316.971 452.024 317.686 452.024 318.895C452.024 320.221 453.532 320.949 456.028 320.949C458.511 320.949 460.006 320.221 460.006 318.895C460.006 317.686 458.732 316.971 456.561 316.867V315.619H461.293Z" fill="white"/>
<rect x="451.031" y="367.209" width="18" height="41" rx="5" transform="rotate(-64.2277 451.031 367.209)" fill="black"/>
<path d="M447.739 355.626L456.675 356.094L453.662 362.333L447.739 355.626Z" fill="black"/>
<path d="M464.791 361.219L464.535 361.811C465.137 361.545 465.764 361.569 466.415 361.884C467.147 362.237 467.51 362.758 467.503 363.447C467.799 363.279 468.122 363.185 468.475 363.164C468.83 363.145 469.198 363.227 469.578 363.411C470.726 363.965 471.016 364.855 470.449 366.08L468.756 369.586L467.861 369.154L469.528 365.701C469.709 365.327 469.758 365.007 469.676 364.74C469.595 364.471 469.353 364.239 468.95 364.044C468.618 363.884 468.294 363.851 467.978 363.945C467.664 364.036 467.408 364.24 467.211 364.558L465.534 368.031L464.635 367.597L466.29 364.167C466.658 363.406 466.469 362.846 465.724 362.487C465.137 362.203 464.615 362.259 464.158 362.655L462.313 366.476L461.418 366.044L463.945 360.81L464.791 361.219ZM473.341 371.8C473.339 371.672 473.386 371.468 473.481 371.188C472.857 371.419 472.256 371.396 471.679 371.117C471.163 370.868 470.809 370.518 470.617 370.068C470.43 369.615 470.444 369.165 470.661 368.717C470.924 368.172 471.334 367.849 471.892 367.749C472.454 367.646 473.111 367.777 473.862 368.139L474.733 368.56L474.931 368.149C475.082 367.836 475.108 367.542 475.01 367.268C474.913 366.991 474.683 366.764 474.319 366.588C473.999 366.434 473.693 366.386 473.399 366.443C473.105 366.499 472.903 366.642 472.792 366.871L471.893 366.437C472.019 366.176 472.232 365.969 472.533 365.816C472.838 365.661 473.183 365.589 473.567 365.599C473.955 365.612 474.339 365.71 474.72 365.893C475.323 366.184 475.722 366.564 475.917 367.032C476.114 367.497 476.092 367.997 475.849 368.532L474.686 370.941C474.454 371.421 474.331 371.833 474.317 372.176L474.279 372.253L473.341 371.8ZM472.185 370.401C472.466 370.537 472.767 370.593 473.088 370.569C473.41 370.545 473.683 370.445 473.908 370.267L474.427 369.193L473.725 368.855C472.629 368.325 471.926 368.381 471.616 369.023C471.481 369.304 471.468 369.568 471.579 369.816C471.69 370.065 471.892 370.26 472.185 370.401ZM476.47 373.311L475.576 372.879L478.102 367.646L478.997 368.078L476.47 373.311ZM478.7 366.223C478.77 366.078 478.873 365.976 479.008 365.918C479.147 365.862 479.303 365.876 479.477 365.96C479.651 366.044 479.759 366.158 479.801 366.301C479.843 366.445 479.829 366.589 479.759 366.734C479.689 366.879 479.586 366.978 479.449 367.031C479.312 367.085 479.156 367.069 478.982 366.985C478.808 366.901 478.699 366.789 478.655 366.648C478.615 366.51 478.63 366.368 478.7 366.223ZM481.28 369.18L480.992 369.852C481.634 369.542 482.278 369.543 482.923 369.854C484.029 370.388 484.286 371.281 483.693 372.534L482.023 375.992L481.128 375.56L482.8 372.097C482.979 371.718 483.027 371.397 482.943 371.134C482.863 370.873 482.643 370.655 482.285 370.483C481.995 370.343 481.703 370.297 481.409 370.346C481.115 370.395 480.846 370.515 480.602 370.708L478.802 374.437L477.907 374.005L480.434 368.771L481.28 369.18Z" fill="white"/>
<circle cx="347.5" cy="350.5" r="9.5" fill="#4000C7"/>
<circle cx="429.5" cy="350.5" r="9" fill="white" stroke="#4000C7" stroke-dasharray="2 2"/>
<line x1="348" y1="350.5" x2="420" y2="350.5" stroke="#4000C7"/>
<path d="M412.665 536H411.762V528.5H412.665V536ZM413.876 533.31C413.876 532.792 413.977 532.326 414.179 531.913C414.384 531.5 414.667 531.181 415.028 530.956C415.393 530.731 415.808 530.619 416.273 530.619C416.993 530.619 417.574 530.868 418.017 531.366C418.463 531.864 418.686 532.527 418.686 533.354V533.417C418.686 533.931 418.586 534.394 418.388 534.804C418.192 535.211 417.911 535.528 417.543 535.756C417.178 535.984 416.758 536.098 416.283 536.098C415.567 536.098 414.986 535.849 414.54 535.351C414.097 534.853 413.876 534.193 413.876 533.373V533.31ZM414.784 533.417C414.784 534.003 414.919 534.473 415.189 534.828C415.463 535.183 415.827 535.36 416.283 535.36C416.742 535.36 417.107 535.181 417.377 534.823C417.647 534.462 417.782 533.957 417.782 533.31C417.782 532.73 417.644 532.261 417.367 531.903C417.094 531.542 416.729 531.361 416.273 531.361C415.827 531.361 415.468 531.539 415.194 531.894C414.921 532.248 414.784 532.756 414.784 533.417ZM419.604 533.314C419.604 532.491 419.794 531.837 420.175 531.352C420.556 530.863 421.06 530.619 421.688 530.619C422.333 530.619 422.836 530.847 423.197 531.303L423.241 530.717H424.066V535.873C424.066 536.557 423.863 537.095 423.456 537.489C423.052 537.883 422.509 538.08 421.825 538.08C421.444 538.08 421.072 537.999 420.707 537.836C420.342 537.673 420.064 537.45 419.872 537.167L420.341 536.625C420.728 537.104 421.202 537.343 421.762 537.343C422.201 537.343 422.543 537.219 422.787 536.972C423.035 536.724 423.158 536.376 423.158 535.927V535.473C422.797 535.889 422.304 536.098 421.679 536.098C421.06 536.098 420.559 535.849 420.175 535.351C419.794 534.853 419.604 534.174 419.604 533.314ZM420.512 533.417C420.512 534.013 420.634 534.481 420.878 534.823C421.122 535.162 421.464 535.331 421.903 535.331C422.473 535.331 422.891 535.072 423.158 534.555V532.143C422.882 531.638 422.466 531.386 421.913 531.386C421.474 531.386 421.13 531.557 420.883 531.898C420.635 532.24 420.512 532.746 420.512 533.417ZM426.415 536H425.512V530.717H426.415V536ZM425.438 529.315C425.438 529.169 425.482 529.045 425.57 528.944C425.661 528.843 425.795 528.793 425.971 528.793C426.146 528.793 426.28 528.843 426.371 528.944C426.462 529.045 426.508 529.169 426.508 529.315C426.508 529.462 426.462 529.584 426.371 529.682C426.28 529.779 426.146 529.828 425.971 529.828C425.795 529.828 425.661 529.779 425.57 529.682C425.482 529.584 425.438 529.462 425.438 529.315ZM428.72 530.717L428.749 531.381C429.153 530.873 429.68 530.619 430.331 530.619C431.448 530.619 432.011 531.249 432.021 532.509V536H431.117V532.504C431.114 532.123 431.026 531.841 430.854 531.659C430.684 531.477 430.419 531.386 430.058 531.386C429.765 531.386 429.507 531.464 429.286 531.62C429.065 531.776 428.892 531.981 428.769 532.235V536H427.865V530.717H428.72ZM433.402 535.526C433.402 535.37 433.448 535.24 433.539 535.136C433.633 535.032 433.773 534.979 433.959 534.979C434.145 534.979 434.285 535.032 434.379 535.136C434.477 535.24 434.525 535.37 434.525 535.526C434.525 535.676 434.477 535.801 434.379 535.902C434.285 536.003 434.145 536.054 433.959 536.054C433.773 536.054 433.633 536.003 433.539 535.902C433.448 535.801 433.402 535.676 433.402 535.526ZM436.952 530.717V536.61C436.952 537.626 436.492 538.134 435.57 538.134C435.372 538.134 435.188 538.104 435.019 538.046V537.323C435.123 537.349 435.259 537.362 435.429 537.362C435.631 537.362 435.784 537.307 435.888 537.196C435.995 537.089 436.049 536.9 436.049 536.63V530.717H436.952ZM435.956 529.315C435.956 529.172 436 529.05 436.088 528.949C436.179 528.845 436.311 528.793 436.483 528.793C436.659 528.793 436.793 528.843 436.884 528.944C436.975 529.045 437.021 529.169 437.021 529.315C437.021 529.462 436.975 529.584 436.884 529.682C436.793 529.779 436.659 529.828 436.483 529.828C436.308 529.828 436.176 529.779 436.088 529.682C436 529.584 435.956 529.462 435.956 529.315ZM441.488 534.599C441.488 534.354 441.396 534.166 441.21 534.032C441.028 533.896 440.707 533.778 440.248 533.681C439.792 533.583 439.429 533.466 439.159 533.329C438.892 533.192 438.694 533.03 438.563 532.841C438.437 532.652 438.373 532.427 438.373 532.167C438.373 531.734 438.555 531.368 438.92 531.068C439.288 530.769 439.757 530.619 440.326 530.619C440.925 530.619 441.41 530.774 441.781 531.083C442.156 531.392 442.343 531.788 442.343 532.27H441.435C441.435 532.022 441.329 531.809 441.117 531.63C440.909 531.451 440.645 531.361 440.326 531.361C439.997 531.361 439.74 531.433 439.555 531.576C439.369 531.719 439.276 531.907 439.276 532.138C439.276 532.356 439.363 532.52 439.535 532.631C439.708 532.742 440.019 532.847 440.468 532.948C440.92 533.049 441.286 533.17 441.566 533.31C441.846 533.45 442.053 533.619 442.187 533.817C442.323 534.013 442.392 534.252 442.392 534.535C442.392 535.007 442.203 535.386 441.825 535.673C441.448 535.956 440.958 536.098 440.355 536.098C439.932 536.098 439.558 536.023 439.232 535.873C438.907 535.723 438.651 535.515 438.466 535.248C438.284 534.978 438.192 534.687 438.192 534.374H439.096C439.112 534.677 439.232 534.918 439.457 535.097C439.685 535.272 439.984 535.36 440.355 535.36C440.697 535.36 440.971 535.292 441.176 535.155C441.384 535.015 441.488 534.83 441.488 534.599Z" fill="#4000C7"/>
<path d="M437.746 506.016L431.938 500.252C431.776 500.091 431.558 500 431.328 500H419.864C419.386 500 419 500.383 419 500.857V523.143C419 523.617 419.386 524 419.864 524H437.136C437.614 524 438 523.617 438 523.143V506.624C438 506.396 437.908 506.177 437.746 506.016ZM436.008 507.018H430.929V501.977L436.008 507.018ZM436.057 522.071H420.943V501.929H429.094V507.714C429.094 508.013 429.213 508.299 429.426 508.51C429.638 508.721 429.927 508.839 430.227 508.839H436.057V522.071ZM428.284 514.839H423.318C423.199 514.839 423.102 514.936 423.102 515.054V516.339C423.102 516.457 423.199 516.554 423.318 516.554H428.284C428.403 516.554 428.5 516.457 428.5 516.339V515.054C428.5 514.936 428.403 514.839 428.284 514.839ZM423.102 511.411V512.696C423.102 512.814 423.199 512.911 423.318 512.911H433.682C433.801 512.911 433.898 512.814 433.898 512.696V511.411C433.898 511.293 433.801 511.196 433.682 511.196H423.318C423.199 511.196 423.102 511.293 423.102 511.411Z" fill="#4000C7"/>
<path d="M348.354 211.646C348.158 211.451 347.842 211.451 347.646 211.646L344.464 214.828C344.269 215.024 344.269 215.34 344.464 215.536C344.66 215.731 344.976 215.731 345.172 215.536L348 212.707L350.828 215.536C351.024 215.731 351.34 215.731 351.536 215.536C351.731 215.34 351.731 215.024 351.536 214.828L348.354 211.646ZM348.5 346V212H347.5V346H348.5Z" fill="#4000C7"/>
<path d="M429.354 494.354C429.158 494.549 428.842 494.549 428.646 494.354L425.464 491.172C425.269 490.976 425.269 490.66 425.464 490.464C425.66 490.269 425.976 490.269 426.172 490.464L429 493.293L431.828 490.464C432.024 490.269 432.34 490.269 432.536 490.464C432.731 490.66 432.731 490.976 432.536 491.172L429.354 494.354ZM429.5 360V494H428.5V360H429.5Z" fill="#4000C7"/>
</svg>
