<svg width="1152" height="587" viewBox="0 0 1152 587" fill="none" xmlns="http://www.w3.org/2000/svg">
<path d="M0 0H1152V587H0V0Z" fill="white" fill-opacity="0.01"/>
<rect x="197.824" y="375.124" width="18" height="41" rx="5" transform="rotate(-90.1738 197.824 375.124)" fill="black"/>
<path d="M190.001 366.193L198.251 362.73L198.25 369.659L190.001 366.193Z" fill="black"/>
<path d="M207.603 363.737L207.63 364.382C208.056 363.88 208.631 363.629 209.354 363.629C210.167 363.629 210.72 363.941 211.014 364.564C211.207 364.284 211.458 364.059 211.766 363.887C212.077 363.715 212.444 363.629 212.867 363.629C214.142 363.628 214.79 364.303 214.812 365.653L214.812 369.547L213.819 369.547L213.818 365.712C213.818 365.297 213.723 364.987 213.533 364.783C213.343 364.576 213.025 364.472 212.577 364.472C212.208 364.472 211.902 364.583 211.659 364.805C211.415 365.024 211.274 365.319 211.235 365.691L211.235 369.548L210.236 369.548L210.235 365.74C210.235 364.895 209.822 364.472 208.995 364.473C208.343 364.473 207.897 364.75 207.657 365.305L207.658 369.549L206.664 369.549L206.663 363.737L207.603 363.737ZM219.904 369.546C219.847 369.432 219.8 369.228 219.764 368.934C219.303 369.414 218.751 369.654 218.11 369.654C217.537 369.654 217.066 369.493 216.698 369.171C216.332 368.845 216.15 368.433 216.149 367.936C216.149 367.331 216.378 366.861 216.837 366.528C217.299 366.192 217.947 366.023 218.781 366.023L219.748 366.023L219.748 365.566C219.748 365.219 219.644 364.943 219.436 364.739C219.228 364.532 218.922 364.428 218.517 364.428C218.163 364.428 217.866 364.518 217.626 364.697C217.386 364.876 217.266 365.092 217.266 365.347L216.267 365.347C216.267 365.057 216.369 364.777 216.573 364.509C216.781 364.237 217.06 364.022 217.411 363.864C217.765 363.707 218.154 363.628 218.576 363.628C219.246 363.627 219.771 363.796 220.15 364.132C220.53 364.465 220.727 364.925 220.741 365.512L220.742 368.187C220.742 368.721 220.81 369.145 220.946 369.46L220.946 369.546L219.904 369.546ZM218.255 368.789C218.567 368.789 218.862 368.709 219.141 368.547C219.421 368.386 219.623 368.177 219.748 367.919L219.748 366.726L218.969 366.727C217.752 366.727 217.143 367.083 217.143 367.796C217.143 368.107 217.247 368.351 217.455 368.526C217.662 368.702 217.929 368.789 218.255 368.789ZM223.379 369.546L222.386 369.546L222.385 363.734L223.378 363.734L223.379 369.546ZM222.304 362.193C222.304 362.032 222.352 361.896 222.449 361.785C222.549 361.674 222.696 361.618 222.889 361.618C223.082 361.618 223.229 361.673 223.33 361.784C223.43 361.895 223.48 362.031 223.48 362.193C223.48 362.354 223.43 362.488 223.33 362.595C223.229 362.703 223.083 362.757 222.889 362.757C222.696 362.757 222.549 362.703 222.449 362.596C222.352 362.488 222.304 362.354 222.304 362.193ZM225.913 363.734L225.946 364.464C226.39 363.905 226.97 363.626 227.686 363.626C228.914 363.626 229.534 364.318 229.545 365.704L229.545 369.545L228.552 369.545L228.551 365.699C228.547 365.28 228.451 364.97 228.261 364.77C228.074 364.569 227.783 364.469 227.385 364.469C227.063 364.469 226.78 364.555 226.537 364.727C226.293 364.899 226.103 365.125 225.967 365.404L225.968 369.545L224.974 369.545L224.973 363.734L225.913 363.734Z" fill="white"/>
<circle cx="84.5" cy="366.5" r="9.5" fill="#4000C7"/>
<circle cx="165.5" cy="366.5" r="9.5" fill="#4000C7"/>
<line x1="85" y1="366.5" x2="165" y2="366.5" stroke="#4000C7"/>
</svg>
