<svg width="1152" height="587" viewBox="0 0 1152 587" fill="none" xmlns="http://www.w3.org/2000/svg">
<path d="M0 0H1152V587H0V0Z" fill="white" fill-opacity="0.01"/>
<path d="M332.048 44H331.14V37.9795L329.318 38.6484V37.8281L331.906 36.8564H332.048V44ZM334.567 41.3145C334.567 40.5039 334.759 39.8529 335.144 39.3613C335.528 38.8665 336.031 38.6191 336.652 38.6191C337.271 38.6191 337.761 38.8307 338.122 39.2539V36.5H339.025V44H338.195L338.151 43.4336C337.79 43.8763 337.287 44.0977 336.643 44.0977C336.031 44.0977 335.531 43.847 335.144 43.3457C334.759 42.8444 334.567 42.1901 334.567 41.3828V41.3145ZM335.471 41.417C335.471 42.016 335.594 42.4847 335.842 42.8232C336.089 43.1618 336.431 43.3311 336.867 43.3311C337.44 43.3311 337.858 43.0739 338.122 42.5596V40.1328C337.852 39.6348 337.437 39.3857 336.877 39.3857C336.434 39.3857 336.089 39.5566 335.842 39.8984C335.594 40.2402 335.471 40.7464 335.471 41.417ZM342.624 44.0977C341.908 44.0977 341.325 43.8633 340.876 43.3945C340.427 42.9225 340.202 42.2926 340.202 41.5049V41.3389C340.202 40.8148 340.301 40.3477 340.5 39.9375C340.702 39.5241 340.982 39.2018 341.34 38.9707C341.701 38.7363 342.092 38.6191 342.512 38.6191C343.199 38.6191 343.732 38.8454 344.113 39.2979C344.494 39.7503 344.685 40.3981 344.685 41.2412V41.6172H341.105C341.118 42.138 341.27 42.5596 341.56 42.8818C341.853 43.2008 342.224 43.3604 342.673 43.3604C342.992 43.3604 343.262 43.2952 343.483 43.165C343.705 43.0348 343.898 42.8623 344.064 42.6475L344.616 43.0771C344.174 43.7575 343.509 44.0977 342.624 44.0977ZM342.512 39.3613C342.147 39.3613 341.841 39.4948 341.594 39.7617C341.346 40.0254 341.193 40.3965 341.135 40.875H343.781V40.8066C343.755 40.3477 343.632 39.9928 343.41 39.7422C343.189 39.4883 342.889 39.3613 342.512 39.3613ZM349.953 38.7461C349.953 39.1009 349.859 39.4167 349.67 39.6934C349.484 39.9701 349.232 40.1865 348.913 40.3428C349.284 40.5023 349.577 40.735 349.792 41.041C350.01 41.347 350.119 41.6937 350.119 42.0811C350.119 42.6963 349.911 43.1862 349.494 43.5508C349.081 43.9154 348.535 44.0977 347.858 44.0977C347.175 44.0977 346.626 43.9154 346.213 43.5508C345.803 43.1829 345.598 42.693 345.598 42.0811C345.598 41.6969 345.702 41.3503 345.91 41.041C346.122 40.7318 346.413 40.4974 346.784 40.3379C346.468 40.1816 346.219 39.9652 346.037 39.6885C345.855 39.4118 345.764 39.0977 345.764 38.7461C345.764 38.1471 345.956 37.6719 346.34 37.3203C346.724 36.9688 347.23 36.793 347.858 36.793C348.483 36.793 348.988 36.9688 349.372 37.3203C349.759 37.6719 349.953 38.1471 349.953 38.7461ZM349.216 42.0615C349.216 41.6644 349.089 41.3405 348.835 41.0898C348.584 40.8392 348.256 40.7139 347.849 40.7139C347.442 40.7139 347.115 40.8376 346.867 41.085C346.623 41.3324 346.501 41.6579 346.501 42.0615C346.501 42.4652 346.62 42.7826 346.857 43.0137C347.098 43.2448 347.432 43.3604 347.858 43.3604C348.282 43.3604 348.614 43.2448 348.854 43.0137C349.095 42.7793 349.216 42.4619 349.216 42.0615ZM347.858 37.5352C347.504 37.5352 347.215 37.6458 346.994 37.8672C346.776 38.0853 346.667 38.3831 346.667 38.7607C346.667 39.1221 346.774 39.415 346.989 39.6396C347.207 39.861 347.497 39.9717 347.858 39.9717C348.22 39.9717 348.508 39.861 348.723 39.6396C348.941 39.415 349.05 39.1221 349.05 38.7607C349.05 38.3994 348.938 38.1048 348.713 37.877C348.488 37.6491 348.203 37.5352 347.858 37.5352ZM355.847 37.3984L352.902 44H351.955L354.89 37.6328H351.042V36.8906H355.847V37.3984ZM361.53 44H356.872V43.3506L359.333 40.6162C359.698 40.2028 359.948 39.8675 360.085 39.6104C360.225 39.3499 360.295 39.0814 360.295 38.8047C360.295 38.4336 360.183 38.1292 359.958 37.8916C359.733 37.654 359.434 37.5352 359.06 37.5352C358.61 37.5352 358.26 37.6637 358.01 37.9209C357.762 38.1748 357.639 38.5296 357.639 38.9854H356.735C356.735 38.3311 356.945 37.8021 357.365 37.3984C357.788 36.9948 358.353 36.793 359.06 36.793C359.72 36.793 360.243 36.9671 360.627 37.3154C361.011 37.6605 361.203 38.1211 361.203 38.6973C361.203 39.3971 360.757 40.2305 359.865 41.1973L357.961 43.2627H361.53V44ZM367.053 41.417C367.053 42.2243 366.867 42.8737 366.496 43.3652C366.125 43.8535 365.627 44.0977 365.002 44.0977C364.335 44.0977 363.819 43.8617 363.454 43.3896L363.41 44H362.58V36.5H363.483V39.2979C363.848 38.8454 364.351 38.6191 364.992 38.6191C365.633 38.6191 366.136 38.8617 366.501 39.3467C366.869 39.8317 367.053 40.4958 367.053 41.3389V41.417ZM366.149 41.3145C366.149 40.6992 366.031 40.224 365.793 39.8887C365.555 39.5534 365.214 39.3857 364.768 39.3857C364.172 39.3857 363.744 39.6624 363.483 40.2158V42.501C363.76 43.0544 364.191 43.3311 364.777 43.3311C365.21 43.3311 365.547 43.1634 365.788 42.8281C366.029 42.4928 366.149 41.9883 366.149 41.3145ZM333.291 49.31H331.481V48H330.671V49.31H328.881V49.97H333.291V49.31ZM331.081 53.99C330.401 53.99 329.921 53.42 329.921 52.63C329.921 51.84 330.401 51.27 331.081 51.27C331.741 51.27 332.231 51.84 332.231 52.63C332.231 53.42 331.741 53.99 331.081 53.99ZM331.081 50.58C329.991 50.58 329.201 51.42 329.201 52.63C329.201 53.84 329.991 54.68 331.081 54.68C332.161 54.68 332.951 53.84 332.951 52.63C332.951 51.42 332.161 50.58 331.081 50.58ZM334.041 51.23H333.041V51.92H334.041V56.29H334.821V47.97H334.041V51.23ZM335.731 47.77V56.74H336.511V47.77H335.731ZM339.361 49.3H342.621V48.62H338.541V54.54H339.231C340.931 54.54 342.011 54.48 343.311 54.24L343.211 53.56C342.001 53.79 340.951 53.85 339.361 53.85V49.3ZM344.661 47.77V51.02H342.091V51.7H344.661V56.76H345.481V47.77H344.661ZM357.49 51.19C355.86 50.95 354.26 49.84 354.26 48.59V48.09H353.4V48.59C353.4 49.87 351.82 50.95 350.19 51.19L350.52 51.85C351.92 51.61 353.27 50.84 353.83 49.75C354.41 50.83 355.76 51.61 357.15 51.85L357.49 51.19ZM357.88 52.82H349.78V53.5H353.4V56.75H354.22V53.5H357.89L357.88 52.82ZM363.759 50.1V50.77H365.529V53.12H366.359V47.78H365.529V50.1H363.759ZM364.259 52.14C362.959 51.68 362.079 50.55 362.079 49.4V49.09H364.049V48.43H359.259V49.09H361.259V49.4C361.259 50.69 360.339 51.9 358.999 52.39L359.429 53.04C360.479 52.64 361.309 51.8 361.689 50.76C362.079 51.68 362.849 52.42 363.849 52.78L364.259 52.14ZM363.399 56.1C362.049 56.1 361.229 55.72 361.229 55.07C361.229 54.42 362.049 54.03 363.399 54.03C364.749 54.03 365.569 54.42 365.569 55.07C365.569 55.72 364.749 56.1 363.399 56.1ZM363.399 53.4C361.559 53.4 360.409 54.01 360.409 55.07C360.409 56.13 361.559 56.74 363.399 56.74C365.239 56.74 366.389 56.13 366.389 55.07C366.389 54.01 365.239 53.4 363.399 53.4Z" fill="black"/>
<rect x="370.031" y="211.209" width="18" height="41" rx="5" transform="rotate(-64.2277 370.031 211.209)" fill="black"/>
<rect x="370.031" y="89.209" width="18" height="41" rx="5" transform="rotate(-64.2277 370.031 89.209)" fill="black"/>
<path d="M366.739 199.626L375.675 200.094L372.662 206.333L366.739 199.626Z" fill="black"/>
<path d="M366.739 77.6264L375.675 78.0939L372.662 84.333L366.739 77.6264Z" fill="black"/>
<path d="M383.791 205.219L383.535 205.811C384.137 205.545 384.764 205.569 385.415 205.884C386.147 206.237 386.51 206.758 386.503 207.447C386.799 207.279 387.122 207.185 387.475 207.164C387.83 207.145 388.198 207.227 388.578 207.411C389.726 207.965 390.016 208.855 389.449 210.08L387.756 213.586L386.861 213.154L388.528 209.701C388.709 209.327 388.758 209.007 388.676 208.74C388.595 208.471 388.353 208.239 387.95 208.044C387.618 207.884 387.294 207.851 386.978 207.945C386.664 208.036 386.408 208.24 386.211 208.558L384.534 212.031L383.635 211.597L385.29 208.167C385.658 207.406 385.469 206.846 384.724 206.487C384.137 206.203 383.615 206.259 383.158 206.655L381.313 210.476L380.418 210.044L382.945 204.81L383.791 205.219ZM392.341 215.8C392.339 215.672 392.386 215.468 392.481 215.188C391.857 215.419 391.256 215.396 390.679 215.117C390.163 214.868 389.809 214.518 389.617 214.068C389.43 213.615 389.444 213.165 389.661 212.717C389.924 212.172 390.334 211.849 390.892 211.749C391.454 211.646 392.111 211.777 392.862 212.139L393.733 212.56L393.931 212.149C394.082 211.836 394.108 211.542 394.01 211.268C393.913 210.991 393.683 210.764 393.319 210.588C392.999 210.434 392.693 210.386 392.399 210.443C392.105 210.499 391.903 210.642 391.792 210.871L390.893 210.437C391.019 210.176 391.232 209.969 391.533 209.816C391.838 209.661 392.183 209.589 392.567 209.599C392.955 209.612 393.339 209.71 393.72 209.893C394.323 210.184 394.722 210.564 394.917 211.032C395.114 211.497 395.092 211.997 394.849 212.532L393.686 214.941C393.454 215.421 393.331 215.833 393.317 216.176L393.279 216.253L392.341 215.8ZM391.185 214.401C391.466 214.537 391.767 214.593 392.088 214.569C392.41 214.545 392.683 214.445 392.908 214.267L393.427 213.193L392.725 212.855C391.629 212.325 390.926 212.381 390.616 213.023C390.481 213.304 390.468 213.568 390.579 213.816C390.69 214.065 390.892 214.26 391.185 214.401ZM395.47 217.311L394.576 216.879L397.102 211.646L397.997 212.078L395.47 217.311ZM397.7 210.223C397.77 210.078 397.873 209.976 398.008 209.918C398.147 209.862 398.303 209.876 398.477 209.96C398.651 210.044 398.759 210.158 398.801 210.301C398.843 210.445 398.829 210.589 398.759 210.734C398.689 210.879 398.586 210.978 398.449 211.031C398.312 211.085 398.156 211.069 397.982 210.985C397.808 210.901 397.699 210.789 397.655 210.648C397.615 210.51 397.63 210.368 397.7 210.223ZM400.28 213.18L399.992 213.852C400.634 213.542 401.278 213.543 401.923 213.854C403.029 214.388 403.286 215.281 402.693 216.534L401.023 219.992L400.128 219.56L401.8 216.097C401.979 215.718 402.027 215.397 401.943 215.134C401.863 214.873 401.643 214.655 401.285 214.483C400.995 214.343 400.703 214.297 400.409 214.346C400.115 214.395 399.846 214.515 399.602 214.708L397.802 218.437L396.907 218.005L399.434 212.771L400.28 213.18Z" fill="white"/>
<path d="M383.791 83.219L383.535 83.8111C384.137 83.5449 384.764 83.5691 385.415 83.8836C386.147 84.237 386.51 84.7581 386.503 85.4468C386.799 85.2794 387.122 85.1852 387.475 85.1643C387.83 85.145 388.198 85.2272 388.578 85.4109C389.726 85.9651 390.016 86.8548 389.449 88.0798L387.756 91.5865L386.861 91.1544L388.528 87.7009C388.709 87.3269 388.758 87.0067 388.676 86.7404C388.595 86.4708 388.353 86.2388 387.95 86.0442C387.618 85.8838 387.294 85.8507 386.978 85.9447C386.664 86.0355 386.408 86.2401 386.211 86.5583L384.534 90.0311L383.635 89.5968L385.29 86.1675C385.658 85.4065 385.469 84.8461 384.724 84.4865C384.137 84.2031 383.615 84.2592 383.158 84.6547L381.313 88.4758L380.418 88.0438L382.945 82.8103L383.791 83.219ZM392.341 93.8003C392.339 93.6723 392.386 93.4682 392.481 93.1882C391.857 93.4195 391.256 93.3958 390.679 93.1171C390.163 92.868 389.809 92.5181 389.617 92.0676C389.43 91.6153 389.444 91.1651 389.661 90.7169C389.924 90.172 390.334 89.8492 390.892 89.7486C391.454 89.6463 392.111 89.7766 392.862 90.1393L393.733 90.5597L393.931 90.1485C394.082 89.8358 394.108 89.5423 394.01 89.2682C393.913 88.9909 393.683 88.7643 393.319 88.5883C392.999 88.4342 392.693 88.3856 392.399 88.4425C392.105 88.4994 391.903 88.6424 391.792 88.8713L390.893 88.4369C391.019 88.1757 391.232 87.9686 391.533 87.8155C391.838 87.6607 392.183 87.5887 392.567 87.5994C392.955 87.6116 393.339 87.7096 393.72 87.8933C394.323 88.1845 394.722 88.5641 394.917 89.0323C395.114 89.4972 395.092 89.9971 394.849 90.5322L393.686 92.9409C393.454 93.4214 393.331 93.8331 393.317 94.176L393.279 94.2534L392.341 93.8003ZM391.185 92.4014C391.466 92.5369 391.767 92.5927 392.088 92.5691C392.41 92.5454 392.683 92.4447 392.908 92.2671L393.427 91.1933L392.725 90.8547C391.629 90.3253 390.926 90.3815 390.616 91.0232C390.481 91.3037 390.468 91.5681 390.579 91.8164C390.69 92.0647 390.892 92.2597 391.185 92.4014ZM395.47 95.3113L394.576 94.8793L397.102 89.6458L397.997 90.0779L395.47 95.3113ZM397.7 88.2226C397.77 88.0775 397.873 87.976 398.008 87.9181C398.147 87.8617 398.303 87.8756 398.477 87.9596C398.651 88.0437 398.759 88.1575 398.801 88.3011C398.843 88.4446 398.829 88.589 398.759 88.7341C398.689 88.8792 398.586 88.9783 398.449 89.0314C398.312 89.0846 398.156 89.0691 397.982 88.985C397.808 88.901 397.699 88.7888 397.655 88.6484C397.615 88.5097 397.63 88.3677 397.7 88.2226ZM400.28 91.1801L399.992 91.852C400.634 91.542 401.278 91.5427 401.923 91.8541C403.029 92.3881 403.286 93.2814 402.693 94.5339L401.023 97.9923L400.128 97.5602L401.8 94.0971C401.979 93.7182 402.027 93.3973 401.943 93.1342C401.863 92.8726 401.643 92.6555 401.285 92.4827C400.995 92.3425 400.703 92.2969 400.409 92.3458C400.115 92.3948 399.846 92.5154 399.602 92.7077L397.802 96.4369L396.907 96.0049L399.434 90.7714L400.28 91.1801Z" fill="white"/>
<circle cx="104.5" cy="350.5" r="9.5" fill="#4000C7"/>
<circle cx="104.5" cy="194.5" r="9.5" fill="#4000C7"/>
<circle cx="104.5" cy="72.5" r="9.5" fill="#4000C7"/>
<circle cx="184.5" cy="350.5" r="9.5" fill="#4000C7"/>
<circle cx="184.5" cy="194.5" r="9.5" fill="#4000C7"/>
<circle cx="184.5" cy="72.5" r="9.5" fill="#4000C7"/>
<circle cx="265.5" cy="350.5" r="9.5" fill="#4000C7"/>
<circle cx="265.5" cy="194.5" r="9.5" fill="#4000C7"/>
<circle cx="347.5" cy="194.5" r="9.5" fill="#4000C7"/>
<circle cx="265.5" cy="72.5" r="9.5" fill="#4000C7"/>
<circle cx="347.5" cy="72.5" r="9.5" fill="#4000C7"/>
<line x1="111" y1="350.5" x2="344" y2="350.5" stroke="#4000C7"/>
<line x1="108" y1="194.5" x2="344" y2="194.5" stroke="#4000C7"/>
<line x1="108" y1="72.5" x2="344" y2="72.5" stroke="#4000C7"/>
</svg>
