<svg width="1152" height="587" viewBox="0 0 1152 587" fill="none" xmlns="http://www.w3.org/2000/svg">
<path d="M0 0H1152V587H0V0Z" fill="white" fill-opacity="0.01"/>
<path d="M253.466 320H248.808V319.351L251.269 316.616C251.633 316.203 251.884 315.868 252.021 315.61C252.16 315.35 252.23 315.081 252.23 314.805C252.23 314.434 252.118 314.129 251.894 313.892C251.669 313.654 251.369 313.535 250.995 313.535C250.546 313.535 250.196 313.664 249.945 313.921C249.698 314.175 249.574 314.53 249.574 314.985H248.671C248.671 314.331 248.881 313.802 249.301 313.398C249.724 312.995 250.289 312.793 250.995 312.793C251.656 312.793 252.178 312.967 252.562 313.315C252.947 313.66 253.139 314.121 253.139 314.697C253.139 315.397 252.693 316.23 251.801 317.197L249.896 319.263H253.466V320ZM256.635 319.36C256.957 319.36 257.239 319.263 257.479 319.067C257.72 318.872 257.854 318.628 257.88 318.335H258.734C258.718 318.638 258.614 318.926 258.422 319.199C258.23 319.473 257.973 319.691 257.65 319.854C257.331 320.016 256.993 320.098 256.635 320.098C255.915 320.098 255.342 319.858 254.916 319.38C254.493 318.898 254.281 318.241 254.281 317.407V317.256C254.281 316.742 254.376 316.284 254.564 315.884C254.753 315.483 255.023 315.173 255.375 314.951C255.73 314.73 256.148 314.619 256.63 314.619C257.222 314.619 257.714 314.797 258.104 315.151C258.498 315.506 258.708 315.967 258.734 316.533H257.88C257.854 316.191 257.724 315.911 257.489 315.693C257.258 315.472 256.972 315.361 256.63 315.361C256.171 315.361 255.814 315.527 255.561 315.859C255.31 316.188 255.185 316.665 255.185 317.29V317.461C255.185 318.07 255.31 318.538 255.561 318.867C255.811 319.196 256.169 319.36 256.635 319.36ZM263.012 320C262.96 319.896 262.917 319.71 262.885 319.443C262.465 319.88 261.964 320.098 261.381 320.098C260.86 320.098 260.432 319.951 260.097 319.658C259.765 319.362 259.599 318.988 259.599 318.535C259.599 317.985 259.807 317.559 260.224 317.256C260.644 316.95 261.233 316.797 261.991 316.797H262.87V316.382C262.87 316.066 262.776 315.815 262.587 315.63C262.398 315.441 262.12 315.347 261.752 315.347C261.43 315.347 261.16 315.428 260.941 315.591C260.723 315.754 260.614 315.951 260.614 316.182H259.706C259.706 315.918 259.799 315.664 259.984 315.42C260.173 315.173 260.427 314.977 260.746 314.834C261.068 314.691 261.422 314.619 261.806 314.619C262.414 314.619 262.891 314.772 263.236 315.078C263.581 315.381 263.76 315.799 263.773 316.333V318.765C263.773 319.25 263.835 319.635 263.959 319.922V320H263.012ZM261.513 319.312C261.796 319.312 262.064 319.238 262.318 319.092C262.572 318.945 262.756 318.755 262.87 318.521V317.437H262.162C261.055 317.437 260.502 317.76 260.502 318.408C260.502 318.691 260.596 318.913 260.785 319.072C260.974 319.232 261.216 319.312 261.513 319.312ZM269.755 320H265.097V319.351L267.558 316.616C267.922 316.203 268.173 315.868 268.31 315.61C268.45 315.35 268.52 315.081 268.52 314.805C268.52 314.434 268.407 314.129 268.183 313.892C267.958 313.654 267.659 313.535 267.284 313.535C266.835 313.535 266.485 313.664 266.234 313.921C265.987 314.175 265.863 314.53 265.863 314.985H264.96C264.96 314.331 265.17 313.802 265.59 313.398C266.013 312.995 266.578 312.793 267.284 312.793C267.945 312.793 268.467 312.967 268.852 313.315C269.236 313.66 269.428 314.121 269.428 314.697C269.428 315.397 268.982 316.23 268.09 317.197L266.186 319.263H269.755V320ZM274.257 312.886V313.652H274.091C273.388 313.665 272.828 313.874 272.411 314.277C271.994 314.681 271.754 315.249 271.688 315.981C272.063 315.552 272.574 315.337 273.222 315.337C273.84 315.337 274.333 315.555 274.701 315.991C275.072 316.427 275.258 316.991 275.258 317.681C275.258 318.413 275.058 318.999 274.657 319.438C274.26 319.878 273.726 320.098 273.056 320.098C272.375 320.098 271.824 319.837 271.4 319.316C270.977 318.792 270.766 318.118 270.766 317.295V316.948C270.766 315.64 271.044 314.64 271.601 313.95C272.16 313.257 272.992 312.902 274.096 312.886H274.257ZM273.07 316.089C272.761 316.089 272.476 316.182 272.216 316.367C271.955 316.553 271.775 316.785 271.674 317.065V317.397C271.674 317.983 271.806 318.455 272.069 318.813C272.333 319.172 272.662 319.351 273.056 319.351C273.463 319.351 273.782 319.201 274.013 318.901C274.247 318.602 274.364 318.21 274.364 317.725C274.364 317.236 274.245 316.842 274.008 316.543C273.773 316.24 273.461 316.089 273.07 316.089ZM280.141 317.612H281.127V318.35H280.141V320H279.232V318.35H275.995V317.817L279.179 312.891H280.141V317.612ZM277.021 317.612H279.232V314.126L279.125 314.321L277.021 317.612ZM283.017 320H282.113V314.717H283.017V320ZM282.04 313.315C282.04 313.169 282.084 313.045 282.172 312.944C282.263 312.843 282.396 312.793 282.572 312.793C282.748 312.793 282.882 312.843 282.973 312.944C283.064 313.045 283.109 313.169 283.109 313.315C283.109 313.462 283.064 313.584 282.973 313.682C282.882 313.779 282.748 313.828 282.572 313.828C282.396 313.828 282.263 313.779 282.172 313.682C282.084 313.584 282.04 313.462 282.04 313.315ZM252.061 327.38H249.831V324.94H252.061V327.38ZM249.011 327.38H247.691V328.05H254.201V327.38H252.881V324.94H254.231V324.27H247.661V324.94H249.011V327.38ZM255.011 329.09H246.881V329.76H250.531V332.74H251.361V329.76H255.011V329.09ZM257.321 327.77H260.261V327.11H257.321V325.26H260.651V324.58H256.501V330.59H257.191C258.901 330.59 259.991 330.54 261.291 330.31L261.201 329.64C259.981 329.86 258.941 329.92 257.321 329.92V327.77ZM262.661 323.76V327.15H260.811V327.83H262.661V332.75H263.481V323.76H262.661ZM275.49 327.19C273.86 326.95 272.26 325.84 272.26 324.59V324.09H271.4V324.59C271.4 325.87 269.82 326.95 268.19 327.19L268.52 327.85C269.92 327.61 271.27 326.84 271.83 325.75C272.41 326.83 273.76 327.61 275.15 327.85L275.49 327.19ZM275.88 328.82H267.78V329.5H271.4V332.75H272.22V329.5H275.89L275.88 328.82ZM281.759 326.1V326.77H283.529V329.12H284.359V323.78H283.529V326.1H281.759ZM282.259 328.14C280.959 327.68 280.079 326.55 280.079 325.4V325.09H282.049V324.43H277.259V325.09H279.259V325.4C279.259 326.69 278.339 327.9 276.999 328.39L277.429 329.04C278.479 328.64 279.309 327.8 279.689 326.76C280.079 327.68 280.849 328.42 281.849 328.78L282.259 328.14ZM281.399 332.1C280.049 332.1 279.229 331.72 279.229 331.07C279.229 330.42 280.049 330.03 281.399 330.03C282.749 330.03 283.569 330.42 283.569 331.07C283.569 331.72 282.749 332.1 281.399 332.1ZM281.399 329.4C279.559 329.4 278.409 330.01 278.409 331.07C278.409 332.13 279.559 332.74 281.399 332.74C283.239 332.74 284.389 332.13 284.389 331.07C284.389 330.01 283.239 329.4 281.399 329.4Z" fill="black"/>
<path d="M332.048 44H331.14V37.9795L329.318 38.6484V37.8281L331.906 36.8564H332.048V44ZM334.567 41.3145C334.567 40.5039 334.759 39.8529 335.144 39.3613C335.528 38.8665 336.031 38.6191 336.652 38.6191C337.271 38.6191 337.761 38.8307 338.122 39.2539V36.5H339.025V44H338.195L338.151 43.4336C337.79 43.8763 337.287 44.0977 336.643 44.0977C336.031 44.0977 335.531 43.847 335.144 43.3457C334.759 42.8444 334.567 42.1901 334.567 41.3828V41.3145ZM335.471 41.417C335.471 42.016 335.594 42.4847 335.842 42.8232C336.089 43.1618 336.431 43.3311 336.867 43.3311C337.44 43.3311 337.858 43.0739 338.122 42.5596V40.1328C337.852 39.6348 337.437 39.3857 336.877 39.3857C336.434 39.3857 336.089 39.5566 335.842 39.8984C335.594 40.2402 335.471 40.7464 335.471 41.417ZM342.624 44.0977C341.908 44.0977 341.325 43.8633 340.876 43.3945C340.427 42.9225 340.202 42.2926 340.202 41.5049V41.3389C340.202 40.8148 340.301 40.3477 340.5 39.9375C340.702 39.5241 340.982 39.2018 341.34 38.9707C341.701 38.7363 342.092 38.6191 342.512 38.6191C343.199 38.6191 343.732 38.8454 344.113 39.2979C344.494 39.7503 344.685 40.3981 344.685 41.2412V41.6172H341.105C341.118 42.138 341.27 42.5596 341.56 42.8818C341.853 43.2008 342.224 43.3604 342.673 43.3604C342.992 43.3604 343.262 43.2952 343.483 43.165C343.705 43.0348 343.898 42.8623 344.064 42.6475L344.616 43.0771C344.174 43.7575 343.509 44.0977 342.624 44.0977ZM342.512 39.3613C342.147 39.3613 341.841 39.4948 341.594 39.7617C341.346 40.0254 341.193 40.3965 341.135 40.875H343.781V40.8066C343.755 40.3477 343.632 39.9928 343.41 39.7422C343.189 39.4883 342.889 39.3613 342.512 39.3613ZM349.953 38.7461C349.953 39.1009 349.859 39.4167 349.67 39.6934C349.484 39.9701 349.232 40.1865 348.913 40.3428C349.284 40.5023 349.577 40.735 349.792 41.041C350.01 41.347 350.119 41.6937 350.119 42.0811C350.119 42.6963 349.911 43.1862 349.494 43.5508C349.081 43.9154 348.535 44.0977 347.858 44.0977C347.175 44.0977 346.626 43.9154 346.213 43.5508C345.803 43.1829 345.598 42.693 345.598 42.0811C345.598 41.6969 345.702 41.3503 345.91 41.041C346.122 40.7318 346.413 40.4974 346.784 40.3379C346.468 40.1816 346.219 39.9652 346.037 39.6885C345.855 39.4118 345.764 39.0977 345.764 38.7461C345.764 38.1471 345.956 37.6719 346.34 37.3203C346.724 36.9688 347.23 36.793 347.858 36.793C348.483 36.793 348.988 36.9688 349.372 37.3203C349.759 37.6719 349.953 38.1471 349.953 38.7461ZM349.216 42.0615C349.216 41.6644 349.089 41.3405 348.835 41.0898C348.584 40.8392 348.256 40.7139 347.849 40.7139C347.442 40.7139 347.115 40.8376 346.867 41.085C346.623 41.3324 346.501 41.6579 346.501 42.0615C346.501 42.4652 346.62 42.7826 346.857 43.0137C347.098 43.2448 347.432 43.3604 347.858 43.3604C348.282 43.3604 348.614 43.2448 348.854 43.0137C349.095 42.7793 349.216 42.4619 349.216 42.0615ZM347.858 37.5352C347.504 37.5352 347.215 37.6458 346.994 37.8672C346.776 38.0853 346.667 38.3831 346.667 38.7607C346.667 39.1221 346.774 39.415 346.989 39.6396C347.207 39.861 347.497 39.9717 347.858 39.9717C348.22 39.9717 348.508 39.861 348.723 39.6396C348.941 39.415 349.05 39.1221 349.05 38.7607C349.05 38.3994 348.938 38.1048 348.713 37.877C348.488 37.6491 348.203 37.5352 347.858 37.5352ZM355.847 37.3984L352.902 44H351.955L354.89 37.6328H351.042V36.8906H355.847V37.3984ZM361.53 44H356.872V43.3506L359.333 40.6162C359.698 40.2028 359.948 39.8675 360.085 39.6104C360.225 39.3499 360.295 39.0814 360.295 38.8047C360.295 38.4336 360.183 38.1292 359.958 37.8916C359.733 37.654 359.434 37.5352 359.06 37.5352C358.61 37.5352 358.26 37.6637 358.01 37.9209C357.762 38.1748 357.639 38.5296 357.639 38.9854H356.735C356.735 38.3311 356.945 37.8021 357.365 37.3984C357.788 36.9948 358.353 36.793 359.06 36.793C359.72 36.793 360.243 36.9671 360.627 37.3154C361.011 37.6605 361.203 38.1211 361.203 38.6973C361.203 39.3971 360.757 40.2305 359.865 41.1973L357.961 43.2627H361.53V44ZM367.053 41.417C367.053 42.2243 366.867 42.8737 366.496 43.3652C366.125 43.8535 365.627 44.0977 365.002 44.0977C364.335 44.0977 363.819 43.8617 363.454 43.3896L363.41 44H362.58V36.5H363.483V39.2979C363.848 38.8454 364.351 38.6191 364.992 38.6191C365.633 38.6191 366.136 38.8617 366.501 39.3467C366.869 39.8317 367.053 40.4958 367.053 41.3389V41.417ZM366.149 41.3145C366.149 40.6992 366.031 40.224 365.793 39.8887C365.555 39.5534 365.214 39.3857 364.768 39.3857C364.172 39.3857 363.744 39.6624 363.483 40.2158V42.501C363.76 43.0544 364.191 43.3311 364.777 43.3311C365.21 43.3311 365.547 43.1634 365.788 42.8281C366.029 42.4928 366.149 41.9883 366.149 41.3145ZM333.291 49.31H331.481V48H330.671V49.31H328.881V49.97H333.291V49.31ZM331.081 53.99C330.401 53.99 329.921 53.42 329.921 52.63C329.921 51.84 330.401 51.27 331.081 51.27C331.741 51.27 332.231 51.84 332.231 52.63C332.231 53.42 331.741 53.99 331.081 53.99ZM331.081 50.58C329.991 50.58 329.201 51.42 329.201 52.63C329.201 53.84 329.991 54.68 331.081 54.68C332.161 54.68 332.951 53.84 332.951 52.63C332.951 51.42 332.161 50.58 331.081 50.58ZM334.041 51.23H333.041V51.92H334.041V56.29H334.821V47.97H334.041V51.23ZM335.731 47.77V56.74H336.511V47.77H335.731ZM339.361 49.3H342.621V48.62H338.541V54.54H339.231C340.931 54.54 342.011 54.48 343.311 54.24L343.211 53.56C342.001 53.79 340.951 53.85 339.361 53.85V49.3ZM344.661 47.77V51.02H342.091V51.7H344.661V56.76H345.481V47.77H344.661ZM357.49 51.19C355.86 50.95 354.26 49.84 354.26 48.59V48.09H353.4V48.59C353.4 49.87 351.82 50.95 350.19 51.19L350.52 51.85C351.92 51.61 353.27 50.84 353.83 49.75C354.41 50.83 355.76 51.61 357.15 51.85L357.49 51.19ZM357.88 52.82H349.78V53.5H353.4V56.75H354.22V53.5H357.89L357.88 52.82ZM363.759 50.1V50.77H365.529V53.12H366.359V47.78H365.529V50.1H363.759ZM364.259 52.14C362.959 51.68 362.079 50.55 362.079 49.4V49.09H364.049V48.43H359.259V49.09H361.259V49.4C361.259 50.69 360.339 51.9 358.999 52.39L359.429 53.04C360.479 52.64 361.309 51.8 361.689 50.76C362.079 51.68 362.849 52.42 363.849 52.78L364.259 52.14ZM363.399 56.1C362.049 56.1 361.229 55.72 361.229 55.07C361.229 54.42 362.049 54.03 363.399 54.03C364.749 54.03 365.569 54.42 365.569 55.07C365.569 55.72 364.749 56.1 363.399 56.1ZM363.399 53.4C361.559 53.4 360.409 54.01 360.409 55.07C360.409 56.13 361.559 56.74 363.399 56.74C365.239 56.74 366.389 56.13 366.389 55.07C366.389 54.01 365.239 53.4 363.399 53.4Z" fill="black"/>
<rect x="287.031" y="367.209" width="18" height="41" rx="5" transform="rotate(-64.2277 287.031 367.209)" fill="black"/>
<rect x="287.031" y="211.209" width="18" height="41" rx="5" transform="rotate(-64.2277 287.031 211.209)" fill="black"/>
<rect x="368.031" y="89.209" width="18" height="41" rx="5" transform="rotate(-64.2277 368.031 89.209)" fill="black"/>
<path d="M283.739 355.626L292.675 356.094L289.662 362.333L283.739 355.626Z" fill="black"/>
<path d="M283.739 199.626L292.675 200.094L289.662 206.333L283.739 199.626Z" fill="black"/>
<path d="M364.739 77.6264L373.675 78.0939L370.662 84.333L364.739 77.6264Z" fill="black"/>
<path d="M300.791 361.219L300.535 361.811C301.137 361.545 301.764 361.569 302.415 361.884C303.147 362.237 303.51 362.758 303.503 363.447C303.799 363.279 304.122 363.185 304.475 363.164C304.83 363.145 305.198 363.227 305.578 363.411C306.726 363.965 307.016 364.855 306.449 366.08L304.756 369.586L303.861 369.154L305.528 365.701C305.709 365.327 305.758 365.007 305.676 364.74C305.595 364.471 305.353 364.239 304.95 364.044C304.618 363.884 304.294 363.851 303.978 363.945C303.664 364.036 303.408 364.24 303.211 364.558L301.534 368.031L300.635 367.597L302.29 364.167C302.658 363.406 302.469 362.846 301.724 362.487C301.137 362.203 300.615 362.259 300.158 362.655L298.313 366.476L297.418 366.044L299.945 360.81L300.791 361.219ZM309.341 371.8C309.339 371.672 309.386 371.468 309.481 371.188C308.857 371.419 308.256 371.396 307.679 371.117C307.163 370.868 306.809 370.518 306.617 370.068C306.43 369.615 306.444 369.165 306.661 368.717C306.924 368.172 307.334 367.849 307.892 367.749C308.454 367.646 309.111 367.777 309.862 368.139L310.733 368.56L310.931 368.149C311.082 367.836 311.108 367.542 311.01 367.268C310.913 366.991 310.683 366.764 310.319 366.588C309.999 366.434 309.693 366.386 309.399 366.443C309.105 366.499 308.903 366.642 308.792 366.871L307.893 366.437C308.019 366.176 308.232 365.969 308.533 365.816C308.838 365.661 309.183 365.589 309.567 365.599C309.955 365.612 310.339 365.71 310.72 365.893C311.323 366.184 311.722 366.564 311.917 367.032C312.114 367.497 312.092 367.997 311.849 368.532L310.686 370.941C310.454 371.421 310.331 371.833 310.317 372.176L310.279 372.253L309.341 371.8ZM308.185 370.401C308.466 370.537 308.767 370.593 309.088 370.569C309.41 370.545 309.683 370.445 309.908 370.267L310.427 369.193L309.725 368.855C308.629 368.325 307.926 368.381 307.616 369.023C307.481 369.304 307.468 369.568 307.579 369.816C307.69 370.065 307.892 370.26 308.185 370.401ZM312.47 373.311L311.576 372.879L314.102 367.646L314.997 368.078L312.47 373.311ZM314.7 366.223C314.77 366.078 314.873 365.976 315.008 365.918C315.147 365.862 315.303 365.876 315.477 365.96C315.651 366.044 315.759 366.158 315.801 366.301C315.843 366.445 315.829 366.589 315.759 366.734C315.689 366.879 315.586 366.978 315.449 367.031C315.312 367.085 315.156 367.069 314.982 366.985C314.808 366.901 314.699 366.789 314.655 366.648C314.615 366.51 314.63 366.368 314.7 366.223ZM317.28 369.18L316.992 369.852C317.634 369.542 318.278 369.543 318.923 369.854C320.029 370.388 320.286 371.281 319.693 372.534L318.023 375.992L317.128 375.56L318.8 372.097C318.979 371.718 319.027 371.397 318.943 371.134C318.863 370.873 318.643 370.655 318.285 370.483C317.995 370.343 317.703 370.297 317.409 370.346C317.115 370.395 316.846 370.515 316.602 370.708L314.802 374.437L313.907 374.005L316.434 368.771L317.28 369.18Z" fill="white"/>
<path d="M300.791 205.219L300.535 205.811C301.137 205.545 301.764 205.569 302.415 205.884C303.147 206.237 303.51 206.758 303.503 207.447C303.799 207.279 304.122 207.185 304.475 207.164C304.83 207.145 305.198 207.227 305.578 207.411C306.726 207.965 307.016 208.855 306.449 210.08L304.756 213.586L303.861 213.154L305.528 209.701C305.709 209.327 305.758 209.007 305.676 208.74C305.595 208.471 305.353 208.239 304.95 208.044C304.618 207.884 304.294 207.851 303.978 207.945C303.664 208.036 303.408 208.24 303.211 208.558L301.534 212.031L300.635 211.597L302.29 208.167C302.658 207.406 302.469 206.846 301.724 206.487C301.137 206.203 300.615 206.259 300.158 206.655L298.313 210.476L297.418 210.044L299.945 204.81L300.791 205.219ZM309.341 215.8C309.339 215.672 309.386 215.468 309.481 215.188C308.857 215.419 308.256 215.396 307.679 215.117C307.163 214.868 306.809 214.518 306.617 214.068C306.43 213.615 306.444 213.165 306.661 212.717C306.924 212.172 307.334 211.849 307.892 211.749C308.454 211.646 309.111 211.777 309.862 212.139L310.733 212.56L310.931 212.149C311.082 211.836 311.108 211.542 311.01 211.268C310.913 210.991 310.683 210.764 310.319 210.588C309.999 210.434 309.693 210.386 309.399 210.443C309.105 210.499 308.903 210.642 308.792 210.871L307.893 210.437C308.019 210.176 308.232 209.969 308.533 209.816C308.838 209.661 309.183 209.589 309.567 209.599C309.955 209.612 310.339 209.71 310.72 209.893C311.323 210.184 311.722 210.564 311.917 211.032C312.114 211.497 312.092 211.997 311.849 212.532L310.686 214.941C310.454 215.421 310.331 215.833 310.317 216.176L310.279 216.253L309.341 215.8ZM308.185 214.401C308.466 214.537 308.767 214.593 309.088 214.569C309.41 214.545 309.683 214.445 309.908 214.267L310.427 213.193L309.725 212.855C308.629 212.325 307.926 212.381 307.616 213.023C307.481 213.304 307.468 213.568 307.579 213.816C307.69 214.065 307.892 214.26 308.185 214.401ZM312.47 217.311L311.576 216.879L314.102 211.646L314.997 212.078L312.47 217.311ZM314.7 210.223C314.77 210.078 314.873 209.976 315.008 209.918C315.147 209.862 315.303 209.876 315.477 209.96C315.651 210.044 315.759 210.158 315.801 210.301C315.843 210.445 315.829 210.589 315.759 210.734C315.689 210.879 315.586 210.978 315.449 211.031C315.312 211.085 315.156 211.069 314.982 210.985C314.808 210.901 314.699 210.789 314.655 210.648C314.615 210.51 314.63 210.368 314.7 210.223ZM317.28 213.18L316.992 213.852C317.634 213.542 318.278 213.543 318.923 213.854C320.029 214.388 320.286 215.281 319.693 216.534L318.023 219.992L317.128 219.56L318.8 216.097C318.979 215.718 319.027 215.397 318.943 215.134C318.863 214.873 318.643 214.655 318.285 214.483C317.995 214.343 317.703 214.297 317.409 214.346C317.115 214.395 316.846 214.515 316.602 214.708L314.802 218.437L313.907 218.005L316.434 212.771L317.28 213.18Z" fill="white"/>
<path d="M381.791 83.219L381.535 83.8111C382.137 83.5449 382.764 83.5691 383.415 83.8836C384.147 84.237 384.51 84.7581 384.503 85.4468C384.799 85.2794 385.122 85.1852 385.475 85.1643C385.83 85.145 386.198 85.2272 386.578 85.4109C387.726 85.9651 388.016 86.8548 387.449 88.0798L385.756 91.5865L384.861 91.1544L386.528 87.7009C386.709 87.3269 386.758 87.0067 386.676 86.7404C386.595 86.4708 386.353 86.2388 385.95 86.0442C385.618 85.8838 385.294 85.8507 384.978 85.9447C384.664 86.0355 384.408 86.2401 384.211 86.5583L382.534 90.0311L381.635 89.5968L383.29 86.1675C383.658 85.4065 383.469 84.8461 382.724 84.4865C382.137 84.2031 381.615 84.2592 381.158 84.6547L379.313 88.4758L378.418 88.0438L380.945 82.8103L381.791 83.219ZM390.341 93.8003C390.339 93.6723 390.386 93.4682 390.481 93.1882C389.857 93.4195 389.256 93.3958 388.679 93.1171C388.163 92.868 387.809 92.5181 387.617 92.0676C387.43 91.6153 387.444 91.1651 387.661 90.7169C387.924 90.172 388.334 89.8492 388.892 89.7486C389.454 89.6463 390.111 89.7766 390.862 90.1393L391.733 90.5597L391.931 90.1485C392.082 89.8358 392.108 89.5423 392.01 89.2682C391.913 88.9909 391.683 88.7643 391.319 88.5883C390.999 88.4342 390.693 88.3856 390.399 88.4425C390.105 88.4994 389.903 88.6424 389.792 88.8713L388.893 88.4369C389.019 88.1757 389.232 87.9686 389.533 87.8155C389.838 87.6607 390.183 87.5887 390.567 87.5994C390.955 87.6116 391.339 87.7096 391.72 87.8933C392.323 88.1845 392.722 88.5641 392.917 89.0323C393.114 89.4972 393.092 89.9971 392.849 90.5322L391.686 92.9409C391.454 93.4214 391.331 93.8331 391.317 94.176L391.279 94.2534L390.341 93.8003ZM389.185 92.4014C389.466 92.5369 389.767 92.5927 390.088 92.5691C390.41 92.5454 390.683 92.4447 390.908 92.2671L391.427 91.1933L390.725 90.8547C389.629 90.3253 388.926 90.3815 388.616 91.0232C388.481 91.3037 388.468 91.5681 388.579 91.8164C388.69 92.0647 388.892 92.2597 389.185 92.4014ZM393.47 95.3113L392.576 94.8793L395.102 89.6458L395.997 90.0779L393.47 95.3113ZM395.7 88.2226C395.77 88.0775 395.873 87.976 396.008 87.9181C396.147 87.8617 396.303 87.8756 396.477 87.9596C396.651 88.0437 396.759 88.1575 396.801 88.3011C396.843 88.4446 396.829 88.589 396.759 88.7341C396.689 88.8792 396.586 88.9783 396.449 89.0314C396.312 89.0846 396.156 89.0691 395.982 88.985C395.808 88.901 395.699 88.7888 395.655 88.6484C395.615 88.5097 395.63 88.3677 395.7 88.2226ZM398.28 91.1801L397.992 91.852C398.634 91.542 399.278 91.5427 399.923 91.8541C401.029 92.3881 401.286 93.2814 400.693 94.5339L399.023 97.9923L398.128 97.5602L399.8 94.0971C399.979 93.7182 400.027 93.3973 399.943 93.1342C399.863 92.8726 399.643 92.6555 399.285 92.4827C398.995 92.3425 398.703 92.2969 398.409 92.3458C398.115 92.3948 397.846 92.5154 397.602 92.7077L395.802 96.4369L394.907 96.0049L397.434 90.7714L398.28 91.1801Z" fill="white"/>
<circle cx="104.5" cy="350.5" r="9.5" fill="#4000C7"/>
<circle cx="104.5" cy="194.5" r="9.5" fill="#4000C7"/>
<circle cx="104.5" cy="72.5" r="9.5" fill="#4000C7"/>
<circle cx="184.5" cy="350.5" r="9.5" fill="#4000C7"/>
<circle cx="184.5" cy="194.5" r="9.5" fill="#4000C7"/>
<circle cx="184.5" cy="72.5" r="9.5" fill="#4000C7"/>
<circle cx="265.5" cy="350.5" r="9.5" fill="#4000C7"/>
<circle cx="265.5" cy="194.5" r="9.5" fill="#4000C7"/>
<circle cx="265.5" cy="72.5" r="9.5" fill="#4000C7"/>
<circle cx="347.5" cy="72.5" r="9.5" fill="#4000C7"/>
<line x1="98" y1="350.5" x2="266" y2="350.5" stroke="#4000C7"/>
<line x1="108" y1="194.5" x2="261" y2="194.5" stroke="#4000C7"/>
<line x1="108" y1="72.5" x2="341" y2="72.5" stroke="#4000C7"/>
</svg>
