<svg width="1152" height="587" viewBox="0 0 1152 587" fill="none" xmlns="http://www.w3.org/2000/svg">
<path d="M0 0H1152V587H0V0Z" fill="white" fill-opacity="0.01"/>
<rect x="197.824" y="100.124" width="18" height="41" rx="5" transform="rotate(-90.1738 197.824 100.124)" fill="black"/>
<rect x="197.824" y="221.124" width="18" height="41" rx="5" transform="rotate(-90.1738 197.824 221.124)" fill="black"/>
<rect x="197.824" y="375.124" width="18" height="41" rx="5" transform="rotate(-90.1738 197.824 375.124)" fill="black"/>
<path d="M190.001 91.1934L198.251 87.7304L198.25 94.6586L190.001 91.1934Z" fill="black"/>
<path d="M190.001 212.193L198.251 208.73L198.25 215.659L190.001 212.193Z" fill="black"/>
<path d="M190.001 366.193L198.251 362.73L198.25 369.659L190.001 366.193Z" fill="black"/>
<path d="M207.603 88.737L207.63 89.3815C208.056 88.8801 208.631 88.6294 209.354 88.6293C210.167 88.6291 210.72 88.9405 211.014 89.5635C211.207 89.2842 211.458 89.0586 211.766 88.8866C212.077 88.7147 212.444 88.6287 212.867 88.6286C214.142 88.6284 214.79 89.3032 214.812 90.6532L214.812 94.5472L213.819 94.5474L213.818 90.7124C213.818 90.2971 213.723 89.9874 213.533 89.7833C213.343 89.5756 213.025 89.4719 212.577 89.4719C212.208 89.472 211.902 89.5831 211.659 89.8051C211.415 90.0236 211.274 90.319 211.235 90.6914L211.235 94.5479L210.236 94.548L210.235 90.7399C210.235 89.8949 209.822 89.4724 208.995 89.4726C208.343 89.4727 207.897 89.7503 207.657 90.3053L207.658 94.5485L206.664 94.5487L206.663 88.7372L207.603 88.737ZM219.904 94.5463C219.847 94.4317 219.8 94.2276 219.764 93.934C219.303 94.4139 218.751 94.6539 218.11 94.654C217.537 94.6541 217.066 94.4931 216.698 94.1709C216.332 93.8451 216.15 93.4334 216.149 92.9356C216.149 92.3305 216.378 91.8614 216.837 91.5283C217.299 91.1916 217.947 91.0232 218.781 91.0231L219.748 91.0229L219.748 90.5663C219.748 90.219 219.644 89.9433 219.436 89.7393C219.228 89.5316 218.922 89.4278 218.517 89.4279C218.163 89.428 217.866 89.5175 217.626 89.6966C217.386 89.8757 217.266 90.0923 217.266 90.3466L216.267 90.3468C216.267 90.0567 216.369 89.7774 216.573 89.5088C216.781 89.2366 217.06 89.0217 217.411 88.8641C217.765 88.7065 218.154 88.6277 218.576 88.6276C219.246 88.6275 219.771 88.7957 220.15 89.1322C220.53 89.4651 220.727 89.9252 220.741 90.5125L220.742 93.1873C220.742 93.7208 220.81 94.1451 220.946 94.4602L220.946 94.5461L219.904 94.5463ZM218.255 93.7893C218.567 93.7892 218.862 93.7086 219.141 93.5474C219.421 93.3862 219.623 93.1767 219.748 92.9189L219.748 91.7265L218.969 91.7266C217.752 91.7269 217.143 92.0833 217.143 92.7958C217.143 93.1073 217.247 93.3508 217.455 93.5262C217.662 93.7016 217.929 93.7893 218.255 93.7893ZM223.379 94.5457L222.386 94.5458L222.385 88.7343L223.378 88.7341L223.379 94.5457ZM222.304 87.1928C222.304 87.0317 222.352 86.8956 222.449 86.7846C222.549 86.6736 222.696 86.6181 222.889 86.618C223.082 86.618 223.229 86.6735 223.33 86.7844C223.43 86.8954 223.48 87.0315 223.48 87.1926C223.48 87.3538 223.43 87.488 223.33 87.5955C223.229 87.7029 223.083 87.7567 222.889 87.7567C222.696 87.7567 222.549 87.703 222.449 87.5956C222.352 87.4882 222.304 87.354 222.304 87.1928ZM225.913 88.7337L225.946 89.4641C226.39 88.9055 226.97 88.6261 227.686 88.6259C228.914 88.6257 229.534 89.3185 229.545 90.7042L229.545 94.5445L228.552 94.5447L228.551 90.699C228.547 90.2801 228.451 89.9704 228.261 89.7699C228.074 89.5694 227.783 89.4692 227.385 89.4693C227.063 89.4693 226.78 89.5553 226.537 89.7272C226.293 89.8991 226.103 90.1248 225.967 90.4041L225.968 94.5452L224.974 94.5454L224.973 88.7339L225.913 88.7337Z" fill="white"/>
<path d="M207.603 209.737L207.63 210.382C208.056 209.88 208.631 209.629 209.354 209.629C210.167 209.629 210.72 209.941 211.014 210.564C211.207 210.284 211.458 210.059 211.766 209.887C212.077 209.715 212.444 209.629 212.867 209.629C214.142 209.628 214.79 210.303 214.812 211.653L214.812 215.547L213.819 215.547L213.818 211.712C213.818 211.297 213.723 210.987 213.533 210.783C213.343 210.576 213.025 210.472 212.577 210.472C212.208 210.472 211.902 210.583 211.659 210.805C211.415 211.024 211.274 211.319 211.235 211.691L211.235 215.548L210.236 215.548L210.235 211.74C210.235 210.895 209.822 210.472 208.995 210.473C208.343 210.473 207.897 210.75 207.657 211.305L207.658 215.549L206.664 215.549L206.663 209.737L207.603 209.737ZM219.904 215.546C219.847 215.432 219.8 215.228 219.764 214.934C219.303 215.414 218.751 215.654 218.11 215.654C217.537 215.654 217.066 215.493 216.698 215.171C216.332 214.845 216.15 214.433 216.149 213.936C216.149 213.331 216.378 212.861 216.837 212.528C217.299 212.192 217.947 212.023 218.781 212.023L219.748 212.023L219.748 211.566C219.748 211.219 219.644 210.943 219.436 210.739C219.228 210.532 218.922 210.428 218.517 210.428C218.163 210.428 217.866 210.518 217.626 210.697C217.386 210.876 217.266 211.092 217.266 211.347L216.267 211.347C216.267 211.057 216.369 210.777 216.573 210.509C216.781 210.237 217.06 210.022 217.411 209.864C217.765 209.707 218.154 209.628 218.576 209.628C219.246 209.627 219.771 209.796 220.15 210.132C220.53 210.465 220.727 210.925 220.741 211.512L220.742 214.187C220.742 214.721 220.81 215.145 220.946 215.46L220.946 215.546L219.904 215.546ZM218.255 214.789C218.567 214.789 218.862 214.709 219.141 214.547C219.421 214.386 219.623 214.177 219.748 213.919L219.748 212.726L218.969 212.727C217.752 212.727 217.143 213.083 217.143 213.796C217.143 214.107 217.247 214.351 217.455 214.526C217.662 214.702 217.929 214.789 218.255 214.789ZM223.379 215.546L222.386 215.546L222.385 209.734L223.378 209.734L223.379 215.546ZM222.304 208.193C222.304 208.032 222.352 207.896 222.449 207.785C222.549 207.674 222.696 207.618 222.889 207.618C223.082 207.618 223.229 207.673 223.33 207.784C223.43 207.895 223.48 208.031 223.48 208.193C223.48 208.354 223.43 208.488 223.33 208.595C223.229 208.703 223.083 208.757 222.889 208.757C222.696 208.757 222.549 208.703 222.449 208.596C222.352 208.488 222.304 208.354 222.304 208.193ZM225.913 209.734L225.946 210.464C226.39 209.905 226.97 209.626 227.686 209.626C228.914 209.626 229.534 210.318 229.545 211.704L229.545 215.545L228.552 215.545L228.551 211.699C228.547 211.28 228.451 210.97 228.261 210.77C228.074 210.569 227.783 210.469 227.385 210.469C227.063 210.469 226.78 210.555 226.537 210.727C226.293 210.899 226.103 211.125 225.967 211.404L225.968 215.545L224.974 215.545L224.973 209.734L225.913 209.734Z" fill="white"/>
<path d="M207.603 363.737L207.63 364.382C208.056 363.88 208.631 363.629 209.354 363.629C210.167 363.629 210.72 363.941 211.014 364.564C211.207 364.284 211.458 364.059 211.766 363.887C212.077 363.715 212.444 363.629 212.867 363.629C214.142 363.628 214.79 364.303 214.812 365.653L214.812 369.547L213.819 369.547L213.818 365.712C213.818 365.297 213.723 364.987 213.533 364.783C213.343 364.576 213.025 364.472 212.577 364.472C212.208 364.472 211.902 364.583 211.659 364.805C211.415 365.024 211.274 365.319 211.235 365.691L211.235 369.548L210.236 369.548L210.235 365.74C210.235 364.895 209.822 364.472 208.995 364.473C208.343 364.473 207.897 364.75 207.657 365.305L207.658 369.549L206.664 369.549L206.663 363.737L207.603 363.737ZM219.904 369.546C219.847 369.432 219.8 369.228 219.764 368.934C219.303 369.414 218.751 369.654 218.11 369.654C217.537 369.654 217.066 369.493 216.698 369.171C216.332 368.845 216.15 368.433 216.149 367.936C216.149 367.331 216.378 366.861 216.837 366.528C217.299 366.192 217.947 366.023 218.781 366.023L219.748 366.023L219.748 365.566C219.748 365.219 219.644 364.943 219.436 364.739C219.228 364.532 218.922 364.428 218.517 364.428C218.163 364.428 217.866 364.518 217.626 364.697C217.386 364.876 217.266 365.092 217.266 365.347L216.267 365.347C216.267 365.057 216.369 364.777 216.573 364.509C216.781 364.237 217.06 364.022 217.411 363.864C217.765 363.707 218.154 363.628 218.576 363.628C219.246 363.627 219.771 363.796 220.15 364.132C220.53 364.465 220.727 364.925 220.741 365.512L220.742 368.187C220.742 368.721 220.81 369.145 220.946 369.46L220.946 369.546L219.904 369.546ZM218.255 368.789C218.567 368.789 218.862 368.709 219.141 368.547C219.421 368.386 219.623 368.177 219.748 367.919L219.748 366.726L218.969 366.727C217.752 366.727 217.143 367.083 217.143 367.796C217.143 368.107 217.247 368.351 217.455 368.526C217.662 368.702 217.929 368.789 218.255 368.789ZM223.379 369.546L222.386 369.546L222.385 363.734L223.378 363.734L223.379 369.546ZM222.304 362.193C222.304 362.032 222.352 361.896 222.449 361.785C222.549 361.674 222.696 361.618 222.889 361.618C223.082 361.618 223.229 361.673 223.33 361.784C223.43 361.895 223.48 362.031 223.48 362.193C223.48 362.354 223.43 362.488 223.33 362.595C223.229 362.703 223.083 362.757 222.889 362.757C222.696 362.757 222.549 362.703 222.449 362.596C222.352 362.488 222.304 362.354 222.304 362.193ZM225.913 363.734L225.946 364.464C226.39 363.905 226.97 363.626 227.686 363.626C228.914 363.626 229.534 364.318 229.545 365.704L229.545 369.545L228.552 369.545L228.551 365.699C228.547 365.28 228.451 364.97 228.261 364.77C228.074 364.569 227.783 364.469 227.385 364.469C227.063 364.469 226.78 364.555 226.537 364.727C226.293 364.899 226.103 365.125 225.967 365.404L225.968 369.545L224.974 369.545L224.973 363.734L225.913 363.734Z" fill="white"/>
<circle cx="84.5" cy="366.5" r="9.5" fill="#4000C7"/>
<circle cx="84.5" cy="212.5" r="9.5" fill="#4000C7"/>
<circle cx="84.5" cy="91.5" r="9.5" fill="#4000C7"/>
<circle cx="165.5" cy="366.5" r="9.5" fill="#4000C7"/>
<circle cx="165.5" cy="212.5" r="9.5" fill="#4000C7"/>
<circle cx="165.5" cy="91.5" r="9.5" fill="#4000C7"/>
<line x1="85" y1="366.5" x2="165" y2="366.5" stroke="#4000C7"/>
<line x1="85" y1="212.5" x2="165" y2="212.5" stroke="#4000C7"/>
<line x1="89" y1="91.5" x2="165" y2="91.5" stroke="#4000C7"/>
</svg>
