<svg width="1152" height="587" viewBox="0 0 1152 587" fill="none" xmlns="http://www.w3.org/2000/svg">
<path d="M0 0H1152V587H0V0Z" fill="white" fill-opacity="0.01"/>
<rect x="286.031" y="367.209" width="18" height="41" rx="5" transform="rotate(-64.2277 286.031 367.209)" fill="black"/>
<path d="M282.739 355.626L291.675 356.094L288.662 362.333L282.739 355.626Z" fill="black"/>
<path d="M299.791 361.219L299.535 361.811C300.137 361.545 300.764 361.569 301.415 361.884C302.147 362.237 302.51 362.758 302.503 363.447C302.799 363.279 303.122 363.185 303.475 363.164C303.83 363.145 304.198 363.227 304.578 363.411C305.726 363.965 306.016 364.855 305.449 366.08L303.756 369.586L302.861 369.154L304.528 365.701C304.709 365.327 304.758 365.007 304.676 364.74C304.595 364.471 304.353 364.239 303.95 364.044C303.618 363.884 303.294 363.851 302.978 363.945C302.664 364.036 302.408 364.24 302.211 364.558L300.534 368.031L299.635 367.597L301.29 364.167C301.658 363.406 301.469 362.846 300.724 362.487C300.137 362.203 299.615 362.259 299.158 362.655L297.313 366.476L296.418 366.044L298.945 360.81L299.791 361.219ZM308.341 371.8C308.339 371.672 308.386 371.468 308.481 371.188C307.857 371.419 307.256 371.396 306.679 371.117C306.163 370.868 305.809 370.518 305.617 370.068C305.43 369.615 305.444 369.165 305.661 368.717C305.924 368.172 306.334 367.849 306.892 367.749C307.454 367.646 308.111 367.777 308.862 368.139L309.733 368.56L309.931 368.149C310.082 367.836 310.108 367.542 310.01 367.268C309.913 366.991 309.683 366.764 309.319 366.588C308.999 366.434 308.693 366.386 308.399 366.443C308.105 366.499 307.903 366.642 307.792 366.871L306.893 366.437C307.019 366.176 307.232 365.969 307.533 365.816C307.838 365.661 308.183 365.589 308.567 365.599C308.955 365.612 309.339 365.71 309.72 365.893C310.323 366.184 310.722 366.564 310.917 367.032C311.114 367.497 311.092 367.997 310.849 368.532L309.686 370.941C309.454 371.421 309.331 371.833 309.317 372.176L309.279 372.253L308.341 371.8ZM307.185 370.401C307.466 370.537 307.767 370.593 308.088 370.569C308.41 370.545 308.683 370.445 308.908 370.267L309.427 369.193L308.725 368.855C307.629 368.325 306.926 368.381 306.616 369.023C306.481 369.304 306.468 369.568 306.579 369.816C306.69 370.065 306.892 370.26 307.185 370.401ZM311.47 373.311L310.576 372.879L313.102 367.646L313.997 368.078L311.47 373.311ZM313.7 366.223C313.77 366.078 313.873 365.976 314.008 365.918C314.147 365.862 314.303 365.876 314.477 365.96C314.651 366.044 314.759 366.158 314.801 366.301C314.843 366.445 314.829 366.589 314.759 366.734C314.689 366.879 314.586 366.978 314.449 367.031C314.312 367.085 314.156 367.069 313.982 366.985C313.808 366.901 313.699 366.789 313.655 366.648C313.615 366.51 313.63 366.368 313.7 366.223ZM316.28 369.18L315.992 369.852C316.634 369.542 317.278 369.543 317.923 369.854C319.029 370.388 319.286 371.281 318.693 372.534L317.023 375.992L316.128 375.56L317.8 372.097C317.979 371.718 318.027 371.397 317.943 371.134C317.863 370.873 317.643 370.655 317.285 370.483C316.995 370.343 316.703 370.297 316.409 370.346C316.115 370.395 315.846 370.515 315.602 370.708L313.802 374.437L312.907 374.005L315.434 368.771L316.28 369.18Z" fill="white"/>
<circle cx="104.5" cy="350.5" r="9.5" fill="#4000C7"/>
<circle cx="184.5" cy="350.5" r="9.5" fill="#4000C7"/>
<circle cx="265.5" cy="350.5" r="9.5" fill="#4000C7"/>
<line x1="98" y1="350.5" x2="261" y2="350.5" stroke="#4000C7"/>
</svg>
