<svg width="1152" height="587" viewBox="0 0 1152 587" fill="none" xmlns="http://www.w3.org/2000/svg">
<path d="M0 0H1152V587H0V0Z" fill="white" fill-opacity="0.01"/>
<path d="M415.159 316.875C414.97 317.1 414.744 317.28 414.48 317.417C414.22 317.554 413.934 317.622 413.621 317.622C413.211 317.622 412.853 317.521 412.547 317.319C412.244 317.118 412.01 316.834 411.844 316.47C411.678 316.102 411.595 315.697 411.595 315.254C411.595 314.779 411.684 314.351 411.863 313.97C412.046 313.589 412.303 313.298 412.635 313.096C412.967 312.894 413.354 312.793 413.797 312.793C414.5 312.793 415.053 313.057 415.457 313.584C415.864 314.108 416.067 314.824 416.067 315.732V315.996C416.067 317.38 415.794 318.39 415.247 319.028C414.7 319.663 413.875 319.989 412.771 320.005H412.596V319.243H412.786C413.532 319.23 414.104 319.036 414.505 318.662C414.905 318.285 415.123 317.689 415.159 316.875ZM413.768 316.875C414.07 316.875 414.349 316.782 414.603 316.597C414.86 316.411 415.047 316.182 415.164 315.908V315.547C415.164 314.954 415.035 314.473 414.778 314.102C414.521 313.73 414.196 313.545 413.802 313.545C413.405 313.545 413.086 313.698 412.845 314.004C412.604 314.307 412.483 314.707 412.483 315.205C412.483 315.69 412.599 316.09 412.83 316.406C413.064 316.719 413.377 316.875 413.768 316.875ZM421.878 317.417C421.878 318.224 421.692 318.874 421.321 319.365C420.95 319.854 420.452 320.098 419.827 320.098C419.16 320.098 418.644 319.862 418.279 319.39L418.235 320H417.405V312.5H418.309V315.298C418.673 314.845 419.176 314.619 419.817 314.619C420.459 314.619 420.962 314.862 421.326 315.347C421.694 315.832 421.878 316.496 421.878 317.339V317.417ZM420.975 317.314C420.975 316.699 420.856 316.224 420.618 315.889C420.381 315.553 420.039 315.386 419.593 315.386C418.997 315.386 418.569 315.662 418.309 316.216V318.501C418.585 319.054 419.017 319.331 419.603 319.331C420.035 319.331 420.372 319.163 420.613 318.828C420.854 318.493 420.975 317.988 420.975 317.314ZM423.465 320V315.415H422.63V314.717H423.465V314.175C423.465 313.608 423.616 313.171 423.919 312.861C424.222 312.552 424.65 312.397 425.203 312.397C425.411 312.397 425.618 312.425 425.823 312.48L425.774 313.213C425.621 313.184 425.459 313.169 425.286 313.169C424.993 313.169 424.767 313.255 424.607 313.428C424.448 313.597 424.368 313.841 424.368 314.16V314.717H425.496V315.415H424.368V320H423.465ZM427.718 316.006H428.396C428.823 315.999 429.158 315.887 429.402 315.669C429.646 315.451 429.769 315.156 429.769 314.785C429.769 313.952 429.354 313.535 428.523 313.535C428.133 313.535 427.82 313.647 427.586 313.872C427.355 314.093 427.239 314.388 427.239 314.756H426.336C426.336 314.193 426.541 313.726 426.951 313.354C427.365 312.98 427.889 312.793 428.523 312.793C429.194 312.793 429.72 312.97 430.101 313.325C430.481 313.68 430.672 314.173 430.672 314.805C430.672 315.114 430.571 315.413 430.369 315.703C430.171 315.993 429.899 316.209 429.554 316.353C429.944 316.476 430.245 316.681 430.457 316.968C430.672 317.254 430.779 317.604 430.779 318.018C430.779 318.656 430.571 319.162 430.154 319.536C429.738 319.91 429.196 320.098 428.528 320.098C427.861 320.098 427.317 319.917 426.897 319.556C426.481 319.194 426.272 318.717 426.272 318.125H427.181C427.181 318.499 427.303 318.799 427.547 319.023C427.791 319.248 428.118 319.36 428.528 319.36C428.965 319.36 429.298 319.246 429.529 319.019C429.76 318.791 429.876 318.464 429.876 318.037C429.876 317.624 429.749 317.306 429.495 317.085C429.241 316.864 428.875 316.75 428.396 316.743H427.718V316.006ZM436.609 313.398L433.665 320H432.718L435.652 313.633H431.805V312.891H436.609V313.398ZM438.948 316.006H439.627C440.053 315.999 440.389 315.887 440.633 315.669C440.877 315.451 440.999 315.156 440.999 314.785C440.999 313.952 440.584 313.535 439.754 313.535C439.363 313.535 439.051 313.647 438.816 313.872C438.585 314.093 438.47 314.388 438.47 314.756H437.566C437.566 314.193 437.771 313.726 438.182 313.354C438.595 312.98 439.119 312.793 439.754 312.793C440.424 312.793 440.95 312.97 441.331 313.325C441.712 313.68 441.902 314.173 441.902 314.805C441.902 315.114 441.801 315.413 441.6 315.703C441.401 315.993 441.129 316.209 440.784 316.353C441.175 316.476 441.476 316.681 441.688 316.968C441.902 317.254 442.01 317.604 442.01 318.018C442.01 318.656 441.801 319.162 441.385 319.536C440.968 319.91 440.426 320.098 439.759 320.098C439.091 320.098 438.548 319.917 438.128 319.556C437.711 319.194 437.503 318.717 437.503 318.125H438.411C438.411 318.499 438.533 318.799 438.777 319.023C439.021 319.248 439.349 319.36 439.759 319.36C440.195 319.36 440.529 319.246 440.76 319.019C440.991 318.791 441.106 318.464 441.106 318.037C441.106 317.624 440.979 317.306 440.726 317.085C440.472 316.864 440.105 316.75 439.627 316.743H438.948V316.006ZM445.462 319.36C445.784 319.36 446.066 319.263 446.307 319.067C446.548 318.872 446.681 318.628 446.707 318.335H447.562C447.545 318.638 447.441 318.926 447.249 319.199C447.057 319.473 446.8 319.691 446.478 319.854C446.159 320.016 445.82 320.098 445.462 320.098C444.743 320.098 444.17 319.858 443.743 319.38C443.32 318.898 443.108 318.241 443.108 317.407V317.256C443.108 316.742 443.203 316.284 443.392 315.884C443.58 315.483 443.851 315.173 444.202 314.951C444.557 314.73 444.975 314.619 445.457 314.619C446.049 314.619 446.541 314.797 446.932 315.151C447.326 315.506 447.535 315.967 447.562 316.533H446.707C446.681 316.191 446.551 315.911 446.316 315.693C446.085 315.472 445.799 315.361 445.457 315.361C444.998 315.361 444.642 315.527 444.388 315.859C444.137 316.188 444.012 316.665 444.012 317.29V317.461C444.012 318.07 444.137 318.538 444.388 318.867C444.638 319.196 444.996 319.36 445.462 319.36ZM395.223 330.96V329.27H398.093V328.61H392.573V327.16H397.883V324.43H391.743V325.1H397.083V326.5H391.763V329.27H394.393V330.96H390.743V331.63H398.893V330.96H395.223ZM406.172 325.62C406.172 326.73 406.172 328.07 405.812 329.9L406.632 329.99C406.982 328.05 406.982 326.76 406.982 325.62V324.72H400.832V325.39H406.172V325.62ZM399.962 330.75V331.43H408.072V330.75H399.962ZM416.511 323.78H415.691V330.33H416.511V323.78ZM410.161 326.6C410.161 325.73 410.821 325.11 411.691 325.11C412.581 325.11 413.241 325.73 413.241 326.6C413.241 327.49 412.581 328.11 411.691 328.11C410.821 328.11 410.161 327.49 410.161 326.6ZM414.041 326.6C414.041 325.31 413.031 324.4 411.691 324.4C410.361 324.4 409.361 325.31 409.361 326.6C409.361 327.9 410.361 328.82 411.691 328.82C413.031 328.82 414.041 327.9 414.041 326.6ZM411.561 331.87V329.66H410.741V332.54H416.781V331.87H411.561ZM422.401 325.57H423.521V329.78C423.141 329.8 422.771 329.81 422.401 329.82V325.57ZM424.271 325.57H425.011V324.91H420.911V325.57H421.651V329.84C421.311 329.85 421.011 329.85 420.741 329.85L420.821 330.53C421.991 330.53 423.871 330.49 425.261 330.23L425.211 329.63C424.921 329.67 424.591 329.7 424.271 329.73V325.57ZM425.971 327.19H424.741V327.91H425.971V332.27H426.741V323.99H425.971V327.19ZM427.701 323.78V332.74H428.491V323.78H427.701ZM436.55 323.77V332.76H437.37V323.77H436.55ZM432.64 324.46C431.31 324.46 430.36 325.68 430.36 327.59C430.36 329.5 431.31 330.72 432.64 330.72C433.97 330.72 434.92 329.5 434.92 327.59C434.92 325.68 433.97 324.46 432.64 324.46ZM432.64 325.2C433.51 325.2 434.13 326.14 434.13 327.59C434.13 329.05 433.51 329.99 432.64 329.99C431.76 329.99 431.14 329.05 431.14 327.59C431.14 326.14 431.76 325.2 432.64 325.2ZM442.429 325.37H444.539V324.69H439.529V325.37H441.609V326.51C441.609 328.06 440.519 329.75 439.229 330.36L439.709 331.02C440.729 330.5 441.609 329.37 442.019 328.06C442.449 329.29 443.329 330.32 444.369 330.8L444.829 330.14C443.509 329.58 442.429 328.03 442.429 326.51V325.37ZM445.749 323.78V332.74H446.569V323.78H445.749ZM459.029 328.21H457.699C457.949 326.92 457.949 325.97 457.949 325.13V324.35H451.929V325.01H457.149V325.13C457.149 325.97 457.149 326.92 456.869 328.21H450.919V328.88H454.539V332.75H455.369V328.88H459.029V328.21ZM465.148 326.16V326.83H466.658V328.04H465.148V328.71H466.658V330.61H467.488V323.78H466.658V326.16H465.148ZM465.148 324.87H463.088V323.76H462.268V324.87H460.128V325.53H465.148V324.87ZM461.418 327.73C461.418 327.1 461.928 326.67 462.668 326.67C463.408 326.67 463.918 327.1 463.918 327.73C463.918 328.37 463.408 328.81 462.668 328.81C461.928 328.81 461.418 328.37 461.418 327.73ZM464.698 327.73C464.698 326.71 463.858 326.03 462.668 326.03C461.478 326.03 460.638 326.71 460.638 327.73C460.638 328.76 461.478 329.45 462.668 329.45C463.858 329.45 464.698 328.76 464.698 327.73ZM462.548 331.87V330.03H461.728V332.54H467.698V331.87H462.548Z" fill="black"/>
<circle cx="429.5" cy="350.5" r="9.5" fill="#4000C7"/>
<path d="M412.665 462H411.762V454.5H412.665V462ZM413.876 459.31C413.876 458.792 413.977 458.326 414.179 457.913C414.384 457.5 414.667 457.181 415.028 456.956C415.393 456.731 415.808 456.619 416.273 456.619C416.993 456.619 417.574 456.868 418.017 457.366C418.463 457.864 418.686 458.527 418.686 459.354V459.417C418.686 459.931 418.586 460.394 418.388 460.804C418.192 461.211 417.911 461.528 417.543 461.756C417.178 461.984 416.758 462.098 416.283 462.098C415.567 462.098 414.986 461.849 414.54 461.351C414.097 460.853 413.876 460.193 413.876 459.373V459.31ZM414.784 459.417C414.784 460.003 414.919 460.473 415.189 460.828C415.463 461.183 415.827 461.36 416.283 461.36C416.742 461.36 417.107 461.181 417.377 460.823C417.647 460.462 417.782 459.957 417.782 459.31C417.782 458.73 417.644 458.261 417.367 457.903C417.094 457.542 416.729 457.361 416.273 457.361C415.827 457.361 415.468 457.539 415.194 457.894C414.921 458.248 414.784 458.756 414.784 459.417ZM419.604 459.314C419.604 458.491 419.794 457.837 420.175 457.352C420.556 456.863 421.06 456.619 421.688 456.619C422.333 456.619 422.836 456.847 423.197 457.303L423.241 456.717H424.066V461.873C424.066 462.557 423.863 463.095 423.456 463.489C423.052 463.883 422.509 464.08 421.825 464.08C421.444 464.08 421.072 463.999 420.707 463.836C420.342 463.673 420.064 463.45 419.872 463.167L420.341 462.625C420.728 463.104 421.202 463.343 421.762 463.343C422.201 463.343 422.543 463.219 422.787 462.972C423.035 462.724 423.158 462.376 423.158 461.927V461.473C422.797 461.889 422.304 462.098 421.679 462.098C421.06 462.098 420.559 461.849 420.175 461.351C419.794 460.853 419.604 460.174 419.604 459.314ZM420.512 459.417C420.512 460.013 420.634 460.481 420.878 460.823C421.122 461.162 421.464 461.331 421.903 461.331C422.473 461.331 422.891 461.072 423.158 460.555V458.143C422.882 457.638 422.466 457.386 421.913 457.386C421.474 457.386 421.13 457.557 420.883 457.898C420.635 458.24 420.512 458.746 420.512 459.417ZM426.415 462H425.512V456.717H426.415V462ZM425.438 455.315C425.438 455.169 425.482 455.045 425.57 454.944C425.661 454.843 425.795 454.793 425.971 454.793C426.146 454.793 426.28 454.843 426.371 454.944C426.462 455.045 426.508 455.169 426.508 455.315C426.508 455.462 426.462 455.584 426.371 455.682C426.28 455.779 426.146 455.828 425.971 455.828C425.795 455.828 425.661 455.779 425.57 455.682C425.482 455.584 425.438 455.462 425.438 455.315ZM428.72 456.717L428.749 457.381C429.153 456.873 429.68 456.619 430.331 456.619C431.448 456.619 432.011 457.249 432.021 458.509V462H431.117V458.504C431.114 458.123 431.026 457.841 430.854 457.659C430.684 457.477 430.419 457.386 430.058 457.386C429.765 457.386 429.507 457.464 429.286 457.62C429.065 457.776 428.892 457.981 428.769 458.235V462H427.865V456.717H428.72ZM433.402 461.526C433.402 461.37 433.448 461.24 433.539 461.136C433.633 461.032 433.773 460.979 433.959 460.979C434.145 460.979 434.285 461.032 434.379 461.136C434.477 461.24 434.525 461.37 434.525 461.526C434.525 461.676 434.477 461.801 434.379 461.902C434.285 462.003 434.145 462.054 433.959 462.054C433.773 462.054 433.633 462.003 433.539 461.902C433.448 461.801 433.402 461.676 433.402 461.526ZM436.952 456.717V462.61C436.952 463.626 436.492 464.134 435.57 464.134C435.372 464.134 435.188 464.104 435.019 464.046V463.323C435.123 463.349 435.259 463.362 435.429 463.362C435.631 463.362 435.784 463.307 435.888 463.196C435.995 463.089 436.049 462.9 436.049 462.63V456.717H436.952ZM435.956 455.315C435.956 455.172 436 455.05 436.088 454.949C436.179 454.845 436.311 454.793 436.483 454.793C436.659 454.793 436.793 454.843 436.884 454.944C436.975 455.045 437.021 455.169 437.021 455.315C437.021 455.462 436.975 455.584 436.884 455.682C436.793 455.779 436.659 455.828 436.483 455.828C436.308 455.828 436.176 455.779 436.088 455.682C436 455.584 435.956 455.462 435.956 455.315ZM441.488 460.599C441.488 460.354 441.396 460.166 441.21 460.032C441.028 459.896 440.707 459.778 440.248 459.681C439.792 459.583 439.429 459.466 439.159 459.329C438.892 459.192 438.694 459.03 438.563 458.841C438.437 458.652 438.373 458.427 438.373 458.167C438.373 457.734 438.555 457.368 438.92 457.068C439.288 456.769 439.757 456.619 440.326 456.619C440.925 456.619 441.41 456.774 441.781 457.083C442.156 457.392 442.343 457.788 442.343 458.27H441.435C441.435 458.022 441.329 457.809 441.117 457.63C440.909 457.451 440.645 457.361 440.326 457.361C439.997 457.361 439.74 457.433 439.555 457.576C439.369 457.719 439.276 457.907 439.276 458.138C439.276 458.356 439.363 458.52 439.535 458.631C439.708 458.742 440.019 458.847 440.468 458.948C440.92 459.049 441.286 459.17 441.566 459.31C441.846 459.45 442.053 459.619 442.187 459.817C442.323 460.013 442.392 460.252 442.392 460.535C442.392 461.007 442.203 461.386 441.825 461.673C441.448 461.956 440.958 462.098 440.355 462.098C439.932 462.098 439.558 462.023 439.232 461.873C438.907 461.723 438.651 461.515 438.466 461.248C438.284 460.978 438.192 460.687 438.192 460.374H439.096C439.112 460.677 439.232 460.918 439.457 461.097C439.685 461.272 439.984 461.36 440.355 461.36C440.697 461.36 440.971 461.292 441.176 461.155C441.384 461.015 441.488 460.83 441.488 460.599Z" fill="#4000C7"/>
<path d="M437.746 432.016L431.938 426.252C431.776 426.091 431.558 426 431.328 426H419.864C419.386 426 419 426.383 419 426.857V449.143C419 449.617 419.386 450 419.864 450H437.136C437.614 450 438 449.617 438 449.143V432.624C438 432.396 437.908 432.177 437.746 432.016ZM436.008 433.018H430.929V427.977L436.008 433.018ZM436.057 448.071H420.943V427.929H429.094V433.714C429.094 434.013 429.213 434.299 429.426 434.51C429.638 434.721 429.927 434.839 430.227 434.839H436.057V448.071ZM428.284 440.839H423.318C423.199 440.839 423.102 440.936 423.102 441.054V442.339C423.102 442.457 423.199 442.554 423.318 442.554H428.284C428.403 442.554 428.5 442.457 428.5 442.339V441.054C428.5 440.936 428.403 440.839 428.284 440.839ZM423.102 437.411V438.696C423.102 438.814 423.199 438.911 423.318 438.911H433.682C433.801 438.911 433.898 438.814 433.898 438.696V437.411C433.898 437.293 433.801 437.196 433.682 437.196H423.318C423.199 437.196 423.102 437.293 423.102 437.411Z" fill="#4000C7"/>
<path d="M429.354 368.646C429.158 368.451 428.842 368.451 428.646 368.646L425.464 371.828C425.269 372.024 425.269 372.34 425.464 372.536C425.66 372.731 425.976 372.731 426.172 372.536L429 369.707L431.828 372.536C432.024 372.731 432.34 372.731 432.536 372.536C432.731 372.34 432.731 372.024 432.536 371.828L429.354 368.646ZM429.5 426L429.5 369L428.5 369L428.5 426L429.5 426Z" fill="#4000C7"/>
</svg>
