<svg width="1152" height="587" viewBox="0 0 1152 587" fill="none" xmlns="http://www.w3.org/2000/svg">
<path d="M0 0H1152V587H0V0Z" fill="white" fill-opacity="0.01"/>
<path d="M392.905 337.746C392.905 338.101 392.811 338.417 392.622 338.693C392.437 338.97 392.184 339.187 391.865 339.343C392.236 339.502 392.529 339.735 392.744 340.041C392.962 340.347 393.071 340.694 393.071 341.081C393.071 341.696 392.863 342.186 392.446 342.551C392.033 342.915 391.488 343.098 390.811 343.098C390.127 343.098 389.578 342.915 389.165 342.551C388.755 342.183 388.55 341.693 388.55 341.081C388.55 340.697 388.654 340.35 388.862 340.041C389.074 339.732 389.365 339.497 389.736 339.338C389.421 339.182 389.172 338.965 388.989 338.688C388.807 338.412 388.716 338.098 388.716 337.746C388.716 337.147 388.908 336.672 389.292 336.32C389.676 335.969 390.182 335.793 390.811 335.793C391.436 335.793 391.94 335.969 392.324 336.32C392.712 336.672 392.905 337.147 392.905 337.746ZM392.168 341.062C392.168 340.664 392.041 340.34 391.787 340.09C391.536 339.839 391.208 339.714 390.801 339.714C390.394 339.714 390.067 339.838 389.819 340.085C389.575 340.332 389.453 340.658 389.453 341.062C389.453 341.465 389.572 341.783 389.81 342.014C390.05 342.245 390.384 342.36 390.811 342.36C391.234 342.36 391.566 342.245 391.807 342.014C392.048 341.779 392.168 341.462 392.168 341.062ZM390.811 336.535C390.456 336.535 390.168 336.646 389.946 336.867C389.728 337.085 389.619 337.383 389.619 337.761C389.619 338.122 389.727 338.415 389.941 338.64C390.16 338.861 390.449 338.972 390.811 338.972C391.172 338.972 391.46 338.861 391.675 338.64C391.893 338.415 392.002 338.122 392.002 337.761C392.002 337.399 391.89 337.105 391.665 336.877C391.44 336.649 391.156 336.535 390.811 336.535ZM398.867 343H394.209V342.351L396.67 339.616C397.035 339.203 397.285 338.868 397.422 338.61C397.562 338.35 397.632 338.081 397.632 337.805C397.632 337.434 397.52 337.129 397.295 336.892C397.07 336.654 396.771 336.535 396.396 336.535C395.947 336.535 395.597 336.664 395.347 336.921C395.099 337.175 394.976 337.53 394.976 337.985H394.072C394.072 337.331 394.282 336.802 394.702 336.398C395.125 335.995 395.69 335.793 396.396 335.793C397.057 335.793 397.58 335.967 397.964 336.315C398.348 336.66 398.54 337.121 398.54 337.697C398.54 338.397 398.094 339.23 397.202 340.197L395.298 342.263H398.867V343ZM404.414 336.398L401.47 343H400.522L403.457 336.633H399.609V335.891H404.414V336.398ZM408.901 339.875C408.713 340.1 408.486 340.28 408.223 340.417C407.962 340.554 407.676 340.622 407.363 340.622C406.953 340.622 406.595 340.521 406.289 340.319C405.986 340.118 405.752 339.834 405.586 339.47C405.42 339.102 405.337 338.697 405.337 338.254C405.337 337.779 405.426 337.351 405.605 336.97C405.788 336.589 406.045 336.298 406.377 336.096C406.709 335.894 407.096 335.793 407.539 335.793C408.242 335.793 408.796 336.057 409.199 336.584C409.606 337.108 409.81 337.824 409.81 338.732V338.996C409.81 340.38 409.536 341.39 408.989 342.028C408.442 342.663 407.617 342.989 406.514 343.005H406.338V342.243H406.528C407.274 342.23 407.847 342.036 408.247 341.662C408.647 341.285 408.866 340.689 408.901 339.875ZM407.51 339.875C407.812 339.875 408.091 339.782 408.345 339.597C408.602 339.411 408.789 339.182 408.906 338.908V338.547C408.906 337.954 408.778 337.473 408.521 337.102C408.263 336.73 407.938 336.545 407.544 336.545C407.147 336.545 406.828 336.698 406.587 337.004C406.346 337.307 406.226 337.707 406.226 338.205C406.226 338.69 406.341 339.09 406.572 339.406C406.807 339.719 407.119 339.875 407.51 339.875ZM415.513 339.968C415.513 341.026 415.332 341.812 414.971 342.326C414.609 342.84 414.045 343.098 413.276 343.098C412.518 343.098 411.956 342.847 411.592 342.346C411.227 341.841 411.038 341.089 411.025 340.09V338.884C411.025 337.839 411.206 337.062 411.567 336.555C411.929 336.047 412.495 335.793 413.267 335.793C414.032 335.793 414.595 336.039 414.956 336.53C415.317 337.019 415.503 337.774 415.513 338.796V339.968ZM414.609 338.732C414.609 337.967 414.502 337.411 414.287 337.062C414.072 336.711 413.732 336.535 413.267 336.535C412.804 336.535 412.467 336.709 412.256 337.058C412.044 337.406 411.935 337.941 411.929 338.664V340.109C411.929 340.878 412.039 341.446 412.261 341.813C412.485 342.178 412.824 342.36 413.276 342.36C413.722 342.36 414.053 342.188 414.268 341.843C414.486 341.498 414.6 340.954 414.609 340.212V338.732ZM421.328 343H416.67V342.351L419.131 339.616C419.495 339.203 419.746 338.868 419.883 338.61C420.023 338.35 420.093 338.081 420.093 337.805C420.093 337.434 419.98 337.129 419.756 336.892C419.531 336.654 419.232 336.535 418.857 336.535C418.408 336.535 418.058 336.664 417.808 336.921C417.56 337.175 417.437 337.53 417.437 337.985H416.533C416.533 337.331 416.743 336.802 417.163 336.398C417.586 335.995 418.151 335.793 418.857 335.793C419.518 335.793 420.041 335.967 420.425 336.315C420.809 336.66 421.001 337.121 421.001 337.697C421.001 338.397 420.555 339.23 419.663 340.197L417.759 342.263H421.328V343ZM424.57 343.098C423.854 343.098 423.271 342.863 422.822 342.395C422.373 341.923 422.148 341.293 422.148 340.505V340.339C422.148 339.815 422.248 339.348 422.446 338.938C422.648 338.524 422.928 338.202 423.286 337.971C423.647 337.736 424.038 337.619 424.458 337.619C425.145 337.619 425.679 337.845 426.06 338.298C426.44 338.75 426.631 339.398 426.631 340.241V340.617H423.052C423.065 341.138 423.216 341.56 423.506 341.882C423.799 342.201 424.17 342.36 424.619 342.36C424.938 342.36 425.208 342.295 425.43 342.165C425.651 342.035 425.845 341.862 426.011 341.647L426.562 342.077C426.12 342.757 425.456 343.098 424.57 343.098ZM424.458 338.361C424.093 338.361 423.787 338.495 423.54 338.762C423.293 339.025 423.14 339.396 423.081 339.875H425.728V339.807C425.701 339.348 425.578 338.993 425.356 338.742C425.135 338.488 424.836 338.361 424.458 338.361ZM376.562 349.717L376.587 350.303C376.974 349.847 377.497 349.619 378.154 349.619C378.893 349.619 379.396 349.902 379.663 350.469C379.839 350.215 380.067 350.01 380.347 349.854C380.63 349.697 380.964 349.619 381.348 349.619C382.507 349.619 383.096 350.233 383.115 351.46V355H382.212V351.514C382.212 351.136 382.126 350.854 381.953 350.669C381.781 350.48 381.491 350.386 381.084 350.386C380.749 350.386 380.47 350.487 380.249 350.688C380.028 350.887 379.899 351.156 379.863 351.494V355H378.955V351.538C378.955 350.77 378.579 350.386 377.827 350.386C377.235 350.386 376.829 350.638 376.611 351.143V355H375.708V349.717H376.562ZM386.675 355.098C385.959 355.098 385.376 354.863 384.927 354.395C384.478 353.923 384.253 353.293 384.253 352.505V352.339C384.253 351.815 384.352 351.348 384.551 350.938C384.753 350.524 385.033 350.202 385.391 349.971C385.752 349.736 386.143 349.619 386.562 349.619C387.249 349.619 387.783 349.845 388.164 350.298C388.545 350.75 388.735 351.398 388.735 352.241V352.617H385.156C385.169 353.138 385.321 353.56 385.61 353.882C385.903 354.201 386.274 354.36 386.724 354.36C387.043 354.36 387.313 354.295 387.534 354.165C387.756 354.035 387.949 353.862 388.115 353.647L388.667 354.077C388.224 354.757 387.56 355.098 386.675 355.098ZM386.562 350.361C386.198 350.361 385.892 350.495 385.645 350.762C385.397 351.025 385.244 351.396 385.186 351.875H387.832V351.807C387.806 351.348 387.682 350.993 387.461 350.742C387.24 350.488 386.94 350.361 386.562 350.361ZM392.339 350.527C392.202 350.505 392.054 350.493 391.895 350.493C391.302 350.493 390.9 350.745 390.688 351.25V355H389.785V349.717H390.664L390.679 350.327C390.975 349.855 391.395 349.619 391.938 349.619C392.114 349.619 392.248 349.642 392.339 349.688V350.527ZM392.861 352.314C392.861 351.491 393.052 350.837 393.433 350.352C393.813 349.863 394.318 349.619 394.946 349.619C395.591 349.619 396.094 349.847 396.455 350.303L396.499 349.717H397.324V354.873C397.324 355.557 397.121 356.095 396.714 356.489C396.31 356.883 395.767 357.08 395.083 357.08C394.702 357.08 394.329 356.999 393.965 356.836C393.6 356.673 393.322 356.45 393.13 356.167L393.599 355.625C393.986 356.104 394.46 356.343 395.02 356.343C395.459 356.343 395.801 356.219 396.045 355.972C396.292 355.724 396.416 355.376 396.416 354.927V354.473C396.055 354.889 395.562 355.098 394.937 355.098C394.318 355.098 393.817 354.849 393.433 354.351C393.052 353.853 392.861 353.174 392.861 352.314ZM393.77 352.417C393.77 353.013 393.892 353.481 394.136 353.823C394.38 354.162 394.722 354.331 395.161 354.331C395.731 354.331 396.149 354.072 396.416 353.555V351.143C396.139 350.638 395.724 350.386 395.171 350.386C394.731 350.386 394.388 350.557 394.141 350.898C393.893 351.24 393.77 351.746 393.77 352.417ZM400.884 355.098C400.168 355.098 399.585 354.863 399.136 354.395C398.687 353.923 398.462 353.293 398.462 352.505V352.339C398.462 351.815 398.561 351.348 398.76 350.938C398.962 350.524 399.242 350.202 399.6 349.971C399.961 349.736 400.352 349.619 400.771 349.619C401.458 349.619 401.992 349.845 402.373 350.298C402.754 350.75 402.944 351.398 402.944 352.241V352.617H399.365C399.378 353.138 399.53 353.56 399.819 353.882C400.112 354.201 400.483 354.36 400.933 354.36C401.252 354.36 401.522 354.295 401.743 354.165C401.965 354.035 402.158 353.862 402.324 353.647L402.876 354.077C402.433 354.757 401.769 355.098 400.884 355.098ZM400.771 350.361C400.407 350.361 400.101 350.495 399.854 350.762C399.606 351.025 399.453 351.396 399.395 351.875H402.041V351.807C402.015 351.348 401.891 350.993 401.67 350.742C401.449 350.488 401.149 350.361 400.771 350.361ZM408.594 354.36C408.916 354.36 409.198 354.263 409.438 354.067C409.679 353.872 409.813 353.628 409.839 353.335H410.693C410.677 353.638 410.573 353.926 410.381 354.199C410.189 354.473 409.932 354.691 409.609 354.854C409.29 355.016 408.952 355.098 408.594 355.098C407.874 355.098 407.301 354.858 406.875 354.38C406.452 353.898 406.24 353.241 406.24 352.407V352.256C406.24 351.742 406.335 351.284 406.523 350.884C406.712 350.483 406.982 350.173 407.334 349.951C407.689 349.73 408.107 349.619 408.589 349.619C409.181 349.619 409.673 349.797 410.063 350.151C410.457 350.506 410.667 350.967 410.693 351.533H409.839C409.813 351.191 409.683 350.911 409.448 350.693C409.217 350.472 408.931 350.361 408.589 350.361C408.13 350.361 407.773 350.527 407.52 350.859C407.269 351.188 407.144 351.665 407.144 352.29V352.461C407.144 353.07 407.269 353.538 407.52 353.867C407.77 354.196 408.128 354.36 408.594 354.36ZM411.47 352.31C411.47 351.792 411.571 351.326 411.772 350.913C411.978 350.5 412.261 350.181 412.622 349.956C412.987 349.731 413.402 349.619 413.867 349.619C414.587 349.619 415.168 349.868 415.61 350.366C416.056 350.864 416.279 351.527 416.279 352.354V352.417C416.279 352.931 416.18 353.394 415.981 353.804C415.786 354.211 415.505 354.528 415.137 354.756C414.772 354.984 414.352 355.098 413.877 355.098C413.161 355.098 412.58 354.849 412.134 354.351C411.691 353.853 411.47 353.193 411.47 352.373V352.31ZM412.378 352.417C412.378 353.003 412.513 353.473 412.783 353.828C413.057 354.183 413.421 354.36 413.877 354.36C414.336 354.36 414.701 354.181 414.971 353.823C415.241 353.462 415.376 352.957 415.376 352.31C415.376 351.73 415.238 351.261 414.961 350.903C414.688 350.542 414.323 350.361 413.867 350.361C413.421 350.361 413.062 350.539 412.788 350.894C412.515 351.248 412.378 351.756 412.378 352.417ZM418.262 349.717L418.286 350.303C418.674 349.847 419.196 349.619 419.854 349.619C420.592 349.619 421.095 349.902 421.362 350.469C421.538 350.215 421.766 350.01 422.046 349.854C422.329 349.697 422.663 349.619 423.047 349.619C424.206 349.619 424.795 350.233 424.814 351.46V355H423.911V351.514C423.911 351.136 423.825 350.854 423.652 350.669C423.48 350.48 423.19 350.386 422.783 350.386C422.448 350.386 422.17 350.487 421.948 350.688C421.727 350.887 421.598 351.156 421.562 351.494V355H420.654V351.538C420.654 350.77 420.278 350.386 419.526 350.386C418.934 350.386 418.529 350.638 418.311 351.143V355H417.407V349.717H418.262ZM427.031 349.717L427.056 350.303C427.443 349.847 427.965 349.619 428.623 349.619C429.362 349.619 429.865 349.902 430.132 350.469C430.308 350.215 430.535 350.01 430.815 349.854C431.099 349.697 431.432 349.619 431.816 349.619C432.975 349.619 433.564 350.233 433.584 351.46V355H432.681V351.514C432.681 351.136 432.594 350.854 432.422 350.669C432.249 350.48 431.96 350.386 431.553 350.386C431.217 350.386 430.939 350.487 430.718 350.688C430.496 350.887 430.368 351.156 430.332 351.494V355H429.424V351.538C429.424 350.77 429.048 350.386 428.296 350.386C427.703 350.386 427.298 350.638 427.08 351.143V355H426.177V349.717H427.031ZM435.933 355H435.029V349.717H435.933V355ZM434.956 348.315C434.956 348.169 435 348.045 435.088 347.944C435.179 347.843 435.312 347.793 435.488 347.793C435.664 347.793 435.798 347.843 435.889 347.944C435.98 348.045 436.025 348.169 436.025 348.315C436.025 348.462 435.98 348.584 435.889 348.682C435.798 348.779 435.664 348.828 435.488 348.828C435.312 348.828 435.179 348.779 435.088 348.682C435 348.584 434.956 348.462 434.956 348.315ZM438.608 348.438V349.717H439.595V350.415H438.608V353.691C438.608 353.903 438.652 354.062 438.74 354.17C438.828 354.274 438.978 354.326 439.189 354.326C439.294 354.326 439.437 354.307 439.619 354.268V355C439.382 355.065 439.15 355.098 438.926 355.098C438.522 355.098 438.218 354.976 438.013 354.731C437.808 354.487 437.705 354.141 437.705 353.691V350.415H436.743V349.717H437.705V348.438H438.608Z" fill="black"/>
<path d="M312.048 307H311.14V300.979L309.318 301.648V300.828L311.906 299.856H312.048V307ZM314.567 304.314C314.567 303.504 314.759 302.853 315.144 302.361C315.528 301.867 316.031 301.619 316.652 301.619C317.271 301.619 317.761 301.831 318.122 302.254V299.5H319.025V307H318.195L318.151 306.434C317.79 306.876 317.287 307.098 316.643 307.098C316.031 307.098 315.531 306.847 315.144 306.346C314.759 305.844 314.567 305.19 314.567 304.383V304.314ZM315.471 304.417C315.471 305.016 315.594 305.485 315.842 305.823C316.089 306.162 316.431 306.331 316.867 306.331C317.44 306.331 317.858 306.074 318.122 305.56V303.133C317.852 302.635 317.437 302.386 316.877 302.386C316.434 302.386 316.089 302.557 315.842 302.898C315.594 303.24 315.471 303.746 315.471 304.417ZM322.624 307.098C321.908 307.098 321.325 306.863 320.876 306.395C320.427 305.923 320.202 305.293 320.202 304.505V304.339C320.202 303.815 320.301 303.348 320.5 302.938C320.702 302.524 320.982 302.202 321.34 301.971C321.701 301.736 322.092 301.619 322.512 301.619C323.199 301.619 323.732 301.845 324.113 302.298C324.494 302.75 324.685 303.398 324.685 304.241V304.617H321.105C321.118 305.138 321.27 305.56 321.56 305.882C321.853 306.201 322.224 306.36 322.673 306.36C322.992 306.36 323.262 306.295 323.483 306.165C323.705 306.035 323.898 305.862 324.064 305.647L324.616 306.077C324.174 306.757 323.509 307.098 322.624 307.098ZM322.512 302.361C322.147 302.361 321.841 302.495 321.594 302.762C321.346 303.025 321.193 303.396 321.135 303.875H323.781V303.807C323.755 303.348 323.632 302.993 323.41 302.742C323.189 302.488 322.889 302.361 322.512 302.361ZM329.953 301.746C329.953 302.101 329.859 302.417 329.67 302.693C329.484 302.97 329.232 303.187 328.913 303.343C329.284 303.502 329.577 303.735 329.792 304.041C330.01 304.347 330.119 304.694 330.119 305.081C330.119 305.696 329.911 306.186 329.494 306.551C329.081 306.915 328.535 307.098 327.858 307.098C327.175 307.098 326.626 306.915 326.213 306.551C325.803 306.183 325.598 305.693 325.598 305.081C325.598 304.697 325.702 304.35 325.91 304.041C326.122 303.732 326.413 303.497 326.784 303.338C326.468 303.182 326.219 302.965 326.037 302.688C325.855 302.412 325.764 302.098 325.764 301.746C325.764 301.147 325.956 300.672 326.34 300.32C326.724 299.969 327.23 299.793 327.858 299.793C328.483 299.793 328.988 299.969 329.372 300.32C329.759 300.672 329.953 301.147 329.953 301.746ZM329.216 305.062C329.216 304.664 329.089 304.34 328.835 304.09C328.584 303.839 328.256 303.714 327.849 303.714C327.442 303.714 327.115 303.838 326.867 304.085C326.623 304.332 326.501 304.658 326.501 305.062C326.501 305.465 326.62 305.783 326.857 306.014C327.098 306.245 327.432 306.36 327.858 306.36C328.282 306.36 328.614 306.245 328.854 306.014C329.095 305.779 329.216 305.462 329.216 305.062ZM327.858 300.535C327.504 300.535 327.215 300.646 326.994 300.867C326.776 301.085 326.667 301.383 326.667 301.761C326.667 302.122 326.774 302.415 326.989 302.64C327.207 302.861 327.497 302.972 327.858 302.972C328.22 302.972 328.508 302.861 328.723 302.64C328.941 302.415 329.05 302.122 329.05 301.761C329.05 301.399 328.938 301.105 328.713 300.877C328.488 300.649 328.203 300.535 327.858 300.535ZM335.847 300.398L332.902 307H331.955L334.89 300.633H331.042V299.891H335.847V300.398ZM341.53 307H336.872V306.351L339.333 303.616C339.698 303.203 339.948 302.868 340.085 302.61C340.225 302.35 340.295 302.081 340.295 301.805C340.295 301.434 340.183 301.129 339.958 300.892C339.733 300.654 339.434 300.535 339.06 300.535C338.61 300.535 338.26 300.664 338.01 300.921C337.762 301.175 337.639 301.53 337.639 301.985H336.735C336.735 301.331 336.945 300.802 337.365 300.398C337.788 299.995 338.353 299.793 339.06 299.793C339.72 299.793 340.243 299.967 340.627 300.315C341.011 300.66 341.203 301.121 341.203 301.697C341.203 302.397 340.757 303.23 339.865 304.197L337.961 306.263H341.53V307ZM347.053 304.417C347.053 305.224 346.867 305.874 346.496 306.365C346.125 306.854 345.627 307.098 345.002 307.098C344.335 307.098 343.819 306.862 343.454 306.39L343.41 307H342.58V299.5H343.483V302.298C343.848 301.845 344.351 301.619 344.992 301.619C345.633 301.619 346.136 301.862 346.501 302.347C346.869 302.832 347.053 303.496 347.053 304.339V304.417ZM346.149 304.314C346.149 303.699 346.031 303.224 345.793 302.889C345.555 302.553 345.214 302.386 344.768 302.386C344.172 302.386 343.744 302.662 343.483 303.216V305.501C343.76 306.054 344.191 306.331 344.777 306.331C345.21 306.331 345.547 306.163 345.788 305.828C346.029 305.493 346.149 304.988 346.149 304.314ZM313.291 312.31H311.481V311H310.671V312.31H308.881V312.97H313.291V312.31ZM311.081 316.99C310.401 316.99 309.921 316.42 309.921 315.63C309.921 314.84 310.401 314.27 311.081 314.27C311.741 314.27 312.231 314.84 312.231 315.63C312.231 316.42 311.741 316.99 311.081 316.99ZM311.081 313.58C309.991 313.58 309.201 314.42 309.201 315.63C309.201 316.84 309.991 317.68 311.081 317.68C312.161 317.68 312.951 316.84 312.951 315.63C312.951 314.42 312.161 313.58 311.081 313.58ZM314.041 314.23H313.041V314.92H314.041V319.29H314.821V310.97H314.041V314.23ZM315.731 310.77V319.74H316.511V310.77H315.731ZM319.361 312.3H322.621V311.62H318.541V317.54H319.231C320.931 317.54 322.011 317.48 323.311 317.24L323.211 316.56C322.001 316.79 320.951 316.85 319.361 316.85V312.3ZM324.661 310.77V314.02H322.091V314.7H324.661V319.76H325.481V310.77H324.661ZM330.58 315.51C331.97 315.3 333.26 314.61 333.83 313.64C334.4 314.61 335.68 315.3 337.07 315.51L337.36 314.85C335.76 314.63 334.24 313.64 334.24 312.54H337.1V311.88H334.24V310.77H333.42V311.88H330.56V312.54H333.41C333.41 313.65 331.9 314.63 330.28 314.85L330.58 315.51ZM337.89 316.19H329.78V316.86H333.42V319.75H334.24V316.86H337.89V316.19ZM339.449 311.73V312.41H342.739C342.549 314.53 341.319 316.25 339.029 317.4L339.479 318.04C342.379 316.59 343.549 314.28 343.549 311.73H339.449ZM347.309 314.41H345.869V310.77H345.049V319.74H345.869V315.09H347.309V314.41Z" fill="black"/>
<path d="M235.466 186H230.808V185.351L233.269 182.616C233.633 182.203 233.884 181.868 234.021 181.61C234.16 181.35 234.23 181.081 234.23 180.805C234.23 180.434 234.118 180.129 233.894 179.892C233.669 179.654 233.369 179.535 232.995 179.535C232.546 179.535 232.196 179.664 231.945 179.921C231.698 180.175 231.574 180.53 231.574 180.985H230.671C230.671 180.331 230.881 179.802 231.301 179.398C231.724 178.995 232.289 178.793 232.995 178.793C233.656 178.793 234.178 178.967 234.562 179.315C234.947 179.66 235.139 180.121 235.139 180.697C235.139 181.397 234.693 182.23 233.801 183.197L231.896 185.263H235.466V186ZM238.635 185.36C238.957 185.36 239.239 185.263 239.479 185.067C239.72 184.872 239.854 184.628 239.88 184.335H240.734C240.718 184.638 240.614 184.926 240.422 185.199C240.23 185.473 239.973 185.691 239.65 185.854C239.331 186.016 238.993 186.098 238.635 186.098C237.915 186.098 237.342 185.858 236.916 185.38C236.493 184.898 236.281 184.241 236.281 183.407V183.256C236.281 182.742 236.376 182.284 236.564 181.884C236.753 181.483 237.023 181.173 237.375 180.951C237.73 180.73 238.148 180.619 238.63 180.619C239.222 180.619 239.714 180.797 240.104 181.151C240.498 181.506 240.708 181.967 240.734 182.533H239.88C239.854 182.191 239.724 181.911 239.489 181.693C239.258 181.472 238.972 181.361 238.63 181.361C238.171 181.361 237.814 181.527 237.561 181.859C237.31 182.188 237.185 182.665 237.185 183.29V183.461C237.185 184.07 237.31 184.538 237.561 184.867C237.811 185.196 238.169 185.36 238.635 185.36ZM245.012 186C244.96 185.896 244.917 185.71 244.885 185.443C244.465 185.88 243.964 186.098 243.381 186.098C242.86 186.098 242.432 185.951 242.097 185.658C241.765 185.362 241.599 184.988 241.599 184.535C241.599 183.985 241.807 183.559 242.224 183.256C242.644 182.95 243.233 182.797 243.991 182.797H244.87V182.382C244.87 182.066 244.776 181.815 244.587 181.63C244.398 181.441 244.12 181.347 243.752 181.347C243.43 181.347 243.16 181.428 242.941 181.591C242.723 181.754 242.614 181.951 242.614 182.182H241.706C241.706 181.918 241.799 181.664 241.984 181.42C242.173 181.173 242.427 180.977 242.746 180.834C243.068 180.691 243.422 180.619 243.806 180.619C244.414 180.619 244.891 180.772 245.236 181.078C245.581 181.381 245.76 181.799 245.773 182.333V184.765C245.773 185.25 245.835 185.635 245.959 185.922V186H245.012ZM243.513 185.312C243.796 185.312 244.064 185.238 244.318 185.092C244.572 184.945 244.756 184.755 244.87 184.521V183.437H244.162C243.055 183.437 242.502 183.76 242.502 184.408C242.502 184.691 242.596 184.913 242.785 185.072C242.974 185.232 243.216 185.312 243.513 185.312ZM251.755 186H247.097V185.351L249.558 182.616C249.922 182.203 250.173 181.868 250.31 181.61C250.45 181.35 250.52 181.081 250.52 180.805C250.52 180.434 250.407 180.129 250.183 179.892C249.958 179.654 249.659 179.535 249.284 179.535C248.835 179.535 248.485 179.664 248.234 179.921C247.987 180.175 247.863 180.53 247.863 180.985H246.96C246.96 180.331 247.17 179.802 247.59 179.398C248.013 178.995 248.578 178.793 249.284 178.793C249.945 178.793 250.467 178.967 250.852 179.315C251.236 179.66 251.428 180.121 251.428 180.697C251.428 181.397 250.982 182.23 250.09 183.197L248.186 185.263H251.755V186ZM256.257 178.886V179.652H256.091C255.388 179.665 254.828 179.874 254.411 180.277C253.994 180.681 253.754 181.249 253.688 181.981C254.063 181.552 254.574 181.337 255.222 181.337C255.84 181.337 256.333 181.555 256.701 181.991C257.072 182.427 257.258 182.991 257.258 183.681C257.258 184.413 257.058 184.999 256.657 185.438C256.26 185.878 255.726 186.098 255.056 186.098C254.375 186.098 253.824 185.837 253.4 185.316C252.977 184.792 252.766 184.118 252.766 183.295V182.948C252.766 181.64 253.044 180.64 253.601 179.95C254.16 179.257 254.992 178.902 256.096 178.886H256.257ZM255.07 182.089C254.761 182.089 254.476 182.182 254.216 182.367C253.955 182.553 253.775 182.785 253.674 183.065V183.397C253.674 183.983 253.806 184.455 254.069 184.813C254.333 185.172 254.662 185.351 255.056 185.351C255.463 185.351 255.782 185.201 256.013 184.901C256.247 184.602 256.364 184.21 256.364 183.725C256.364 183.236 256.245 182.842 256.008 182.543C255.773 182.24 255.461 182.089 255.07 182.089ZM262.141 183.612H263.127V184.35H262.141V186H261.232V184.35H257.995V183.817L261.179 178.891H262.141V183.612ZM259.021 183.612H261.232V180.126L261.125 180.321L259.021 183.612ZM265.017 186H264.113V180.717H265.017V186ZM264.04 179.315C264.04 179.169 264.084 179.045 264.172 178.944C264.263 178.843 264.396 178.793 264.572 178.793C264.748 178.793 264.882 178.843 264.973 178.944C265.064 179.045 265.109 179.169 265.109 179.315C265.109 179.462 265.064 179.584 264.973 179.682C264.882 179.779 264.748 179.828 264.572 179.828C264.396 179.828 264.263 179.779 264.172 179.682C264.084 179.584 264.04 179.462 264.04 179.315ZM234.061 193.38H231.831V190.94H234.061V193.38ZM231.011 193.38H229.691V194.05H236.201V193.38H234.881V190.94H236.231V190.27H229.661V190.94H231.011V193.38ZM237.011 195.09H228.881V195.76H232.531V198.74H233.361V195.76H237.011V195.09ZM239.321 193.77H242.261V193.11H239.321V191.26H242.651V190.58H238.501V196.59H239.191C240.901 196.59 241.991 196.54 243.291 196.31L243.201 195.64C241.981 195.86 240.941 195.92 239.321 195.92V193.77ZM244.661 189.76V193.15H242.811V193.83H244.661V198.75H245.481V189.76H244.661ZM250.58 194.51C251.97 194.3 253.26 193.61 253.83 192.64C254.4 193.61 255.68 194.3 257.07 194.51L257.36 193.85C255.76 193.63 254.24 192.64 254.24 191.54H257.1V190.88H254.24V189.77H253.42V190.88H250.56V191.54H253.41C253.41 192.65 251.9 193.63 250.28 193.85L250.58 194.51ZM257.89 195.19H249.78V195.86H253.42V198.75H254.24V195.86H257.89V195.19ZM259.449 190.73V191.41H262.739C262.549 193.53 261.319 195.25 259.029 196.4L259.479 197.04C262.379 195.59 263.549 193.28 263.549 190.73H259.449ZM267.309 193.41H265.869V189.77H265.049V198.74H265.869V194.09H267.309V193.41Z" fill="black"/>
<path d="M235.466 340H230.808V339.351L233.269 336.616C233.633 336.203 233.884 335.868 234.021 335.61C234.16 335.35 234.23 335.081 234.23 334.805C234.23 334.434 234.118 334.129 233.894 333.892C233.669 333.654 233.369 333.535 232.995 333.535C232.546 333.535 232.196 333.664 231.945 333.921C231.698 334.175 231.574 334.53 231.574 334.985H230.671C230.671 334.331 230.881 333.802 231.301 333.398C231.724 332.995 232.289 332.793 232.995 332.793C233.656 332.793 234.178 332.967 234.562 333.315C234.947 333.66 235.139 334.121 235.139 334.697C235.139 335.397 234.693 336.23 233.801 337.197L231.896 339.263H235.466V340ZM238.635 339.36C238.957 339.36 239.239 339.263 239.479 339.067C239.72 338.872 239.854 338.628 239.88 338.335H240.734C240.718 338.638 240.614 338.926 240.422 339.199C240.23 339.473 239.973 339.691 239.65 339.854C239.331 340.016 238.993 340.098 238.635 340.098C237.915 340.098 237.342 339.858 236.916 339.38C236.493 338.898 236.281 338.241 236.281 337.407V337.256C236.281 336.742 236.376 336.284 236.564 335.884C236.753 335.483 237.023 335.173 237.375 334.951C237.73 334.73 238.148 334.619 238.63 334.619C239.222 334.619 239.714 334.797 240.104 335.151C240.498 335.506 240.708 335.967 240.734 336.533H239.88C239.854 336.191 239.724 335.911 239.489 335.693C239.258 335.472 238.972 335.361 238.63 335.361C238.171 335.361 237.814 335.527 237.561 335.859C237.31 336.188 237.185 336.665 237.185 337.29V337.461C237.185 338.07 237.31 338.538 237.561 338.867C237.811 339.196 238.169 339.36 238.635 339.36ZM245.012 340C244.96 339.896 244.917 339.71 244.885 339.443C244.465 339.88 243.964 340.098 243.381 340.098C242.86 340.098 242.432 339.951 242.097 339.658C241.765 339.362 241.599 338.988 241.599 338.535C241.599 337.985 241.807 337.559 242.224 337.256C242.644 336.95 243.233 336.797 243.991 336.797H244.87V336.382C244.87 336.066 244.776 335.815 244.587 335.63C244.398 335.441 244.12 335.347 243.752 335.347C243.43 335.347 243.16 335.428 242.941 335.591C242.723 335.754 242.614 335.951 242.614 336.182H241.706C241.706 335.918 241.799 335.664 241.984 335.42C242.173 335.173 242.427 334.977 242.746 334.834C243.068 334.691 243.422 334.619 243.806 334.619C244.414 334.619 244.891 334.772 245.236 335.078C245.581 335.381 245.76 335.799 245.773 336.333V338.765C245.773 339.25 245.835 339.635 245.959 339.922V340H245.012ZM243.513 339.312C243.796 339.312 244.064 339.238 244.318 339.092C244.572 338.945 244.756 338.755 244.87 338.521V337.437H244.162C243.055 337.437 242.502 337.76 242.502 338.408C242.502 338.691 242.596 338.913 242.785 339.072C242.974 339.232 243.216 339.312 243.513 339.312ZM251.755 340H247.097V339.351L249.558 336.616C249.922 336.203 250.173 335.868 250.31 335.61C250.45 335.35 250.52 335.081 250.52 334.805C250.52 334.434 250.407 334.129 250.183 333.892C249.958 333.654 249.659 333.535 249.284 333.535C248.835 333.535 248.485 333.664 248.234 333.921C247.987 334.175 247.863 334.53 247.863 334.985H246.96C246.96 334.331 247.17 333.802 247.59 333.398C248.013 332.995 248.578 332.793 249.284 332.793C249.945 332.793 250.467 332.967 250.852 333.315C251.236 333.66 251.428 334.121 251.428 334.697C251.428 335.397 250.982 336.23 250.09 337.197L248.186 339.263H251.755V340ZM256.257 332.886V333.652H256.091C255.388 333.665 254.828 333.874 254.411 334.277C253.994 334.681 253.754 335.249 253.688 335.981C254.063 335.552 254.574 335.337 255.222 335.337C255.84 335.337 256.333 335.555 256.701 335.991C257.072 336.427 257.258 336.991 257.258 337.681C257.258 338.413 257.058 338.999 256.657 339.438C256.26 339.878 255.726 340.098 255.056 340.098C254.375 340.098 253.824 339.837 253.4 339.316C252.977 338.792 252.766 338.118 252.766 337.295V336.948C252.766 335.64 253.044 334.64 253.601 333.95C254.16 333.257 254.992 332.902 256.096 332.886H256.257ZM255.07 336.089C254.761 336.089 254.476 336.182 254.216 336.367C253.955 336.553 253.775 336.785 253.674 337.065V337.397C253.674 337.983 253.806 338.455 254.069 338.813C254.333 339.172 254.662 339.351 255.056 339.351C255.463 339.351 255.782 339.201 256.013 338.901C256.247 338.602 256.364 338.21 256.364 337.725C256.364 337.236 256.245 336.842 256.008 336.543C255.773 336.24 255.461 336.089 255.07 336.089ZM262.141 337.612H263.127V338.35H262.141V340H261.232V338.35H257.995V337.817L261.179 332.891H262.141V337.612ZM259.021 337.612H261.232V334.126L261.125 334.321L259.021 337.612ZM265.017 340H264.113V334.717H265.017V340ZM264.04 333.315C264.04 333.169 264.084 333.045 264.172 332.944C264.263 332.843 264.396 332.793 264.572 332.793C264.748 332.793 264.882 332.843 264.973 332.944C265.064 333.045 265.109 333.169 265.109 333.315C265.109 333.462 265.064 333.584 264.973 333.682C264.882 333.779 264.748 333.828 264.572 333.828C264.396 333.828 264.263 333.779 264.172 333.682C264.084 333.584 264.04 333.462 264.04 333.315ZM234.061 347.38H231.831V344.94H234.061V347.38ZM231.011 347.38H229.691V348.05H236.201V347.38H234.881V344.94H236.231V344.27H229.661V344.94H231.011V347.38ZM237.011 349.09H228.881V349.76H232.531V352.74H233.361V349.76H237.011V349.09ZM239.321 347.77H242.261V347.11H239.321V345.26H242.651V344.58H238.501V350.59H239.191C240.901 350.59 241.991 350.54 243.291 350.31L243.201 349.64C241.981 349.86 240.941 349.92 239.321 349.92V347.77ZM244.661 343.76V347.15H242.811V347.83H244.661V352.75H245.481V343.76H244.661ZM250.58 348.51C251.97 348.3 253.26 347.61 253.83 346.64C254.4 347.61 255.68 348.3 257.07 348.51L257.36 347.85C255.76 347.63 254.24 346.64 254.24 345.54H257.1V344.88H254.24V343.77H253.42V344.88H250.56V345.54H253.41C253.41 346.65 251.9 347.63 250.28 347.85L250.58 348.51ZM257.89 349.19H249.78V349.86H253.42V352.75H254.24V349.86H257.89V349.19ZM259.449 344.73V345.41H262.739C262.549 347.53 261.319 349.25 259.029 350.4L259.479 351.04C262.379 349.59 263.549 347.28 263.549 344.73H259.449ZM267.309 347.41H265.869V343.77H265.049V352.74H265.869V348.09H267.309V347.41Z" fill="black"/>
<path d="M165.559 361C160.694 351.652 185.557 330.945 321 332.042" stroke="#4000C7"/>
<path d="M406.738 361C409.015 351.652 397.38 330.945 334 332.042" stroke="#4000C7"/>
<rect x="358.824" y="100.124" width="18" height="41" rx="5" transform="rotate(-90.1738 358.824 100.124)" fill="black"/>
<path d="M351.001 91.1934L359.251 87.7304L359.25 94.6586L351.001 91.1934Z" fill="black"/>
<path d="M368.603 88.737L368.63 89.3815C369.056 88.8801 369.631 88.6294 370.354 88.6293C371.167 88.6291 371.72 88.9405 372.014 89.5635C372.207 89.2842 372.458 89.0586 372.766 88.8866C373.077 88.7147 373.444 88.6287 373.867 88.6286C375.142 88.6284 375.79 89.3032 375.812 90.6532L375.812 94.5472L374.819 94.5474L374.818 90.7124C374.818 90.2971 374.723 89.9874 374.533 89.7833C374.343 89.5756 374.025 89.4719 373.577 89.4719C373.208 89.472 372.902 89.5831 372.659 89.8051C372.415 90.0236 372.274 90.319 372.235 90.6914L372.235 94.5479L371.236 94.548L371.235 90.7399C371.235 89.8949 370.822 89.4724 369.995 89.4726C369.343 89.4727 368.897 89.7503 368.657 90.3053L368.658 94.5485L367.664 94.5487L367.663 88.7372L368.603 88.737ZM380.904 94.5463C380.847 94.4317 380.8 94.2276 380.764 93.934C380.303 94.4139 379.751 94.6539 379.11 94.654C378.537 94.6541 378.066 94.4931 377.698 94.1709C377.332 93.8451 377.15 93.4334 377.149 92.9356C377.149 92.3305 377.378 91.8614 377.837 91.5283C378.299 91.1916 378.947 91.0232 379.781 91.0231L380.748 91.0229L380.748 90.5663C380.748 90.219 380.644 89.9433 380.436 89.7393C380.228 89.5316 379.922 89.4278 379.517 89.4279C379.163 89.428 378.866 89.5175 378.626 89.6966C378.386 89.8757 378.266 90.0923 378.266 90.3466L377.267 90.3468C377.267 90.0567 377.369 89.7774 377.573 89.5088C377.781 89.2366 378.06 89.0217 378.411 88.8641C378.765 88.7065 379.154 88.6277 379.576 88.6276C380.246 88.6275 380.771 88.7957 381.15 89.1322C381.53 89.4651 381.727 89.9252 381.741 90.5125L381.742 93.1873C381.742 93.7208 381.81 94.1451 381.946 94.4602L381.946 94.5461L380.904 94.5463ZM379.255 93.7893C379.567 93.7892 379.862 93.7086 380.141 93.5474C380.421 93.3862 380.623 93.1767 380.748 92.9189L380.748 91.7265L379.969 91.7266C378.752 91.7269 378.143 92.0833 378.143 92.7958C378.143 93.1073 378.247 93.3508 378.455 93.5262C378.662 93.7016 378.929 93.7893 379.255 93.7893ZM384.379 94.5457L383.386 94.5458L383.385 88.7343L384.378 88.7341L384.379 94.5457ZM383.304 87.1928C383.304 87.0317 383.352 86.8956 383.449 86.7846C383.549 86.6736 383.696 86.6181 383.889 86.618C384.082 86.618 384.229 86.6735 384.33 86.7844C384.43 86.8954 384.48 87.0315 384.48 87.1926C384.48 87.3538 384.43 87.488 384.33 87.5955C384.229 87.7029 384.083 87.7567 383.889 87.7567C383.696 87.7567 383.549 87.703 383.449 87.5956C383.352 87.4882 383.304 87.354 383.304 87.1928ZM386.913 88.7337L386.946 89.4641C387.39 88.9055 387.97 88.6261 388.686 88.6259C389.914 88.6257 390.534 89.3185 390.545 90.7042L390.545 94.5445L389.552 94.5447L389.551 90.699C389.547 90.2801 389.451 89.9704 389.261 89.7699C389.074 89.5694 388.783 89.4692 388.385 89.4693C388.063 89.4693 387.78 89.5553 387.537 89.7272C387.293 89.8991 387.103 90.1248 386.967 90.4041L386.968 94.5452L385.974 94.5454L385.973 88.7339L386.913 88.7337Z" fill="white"/>
<circle cx="84.5" cy="366.5" r="9.5" fill="#4000C7"/>
<circle cx="84.5" cy="212.5" r="9.5" fill="#4000C7"/>
<circle cx="84.5" cy="91.5" r="9.5" fill="#4000C7"/>
<circle cx="165.5" cy="366.5" r="9.5" fill="#4000C7"/>
<circle cx="165.5" cy="212.5" r="9.5" fill="#4000C7"/>
<circle cx="247.5" cy="212.5" r="9.5" fill="#4000C7"/>
<circle cx="247.5" cy="366.5" r="9.5" fill="#4000C7"/>
<circle cx="406.5" cy="366.5" r="9.5" fill="#4000C7"/>
<circle cx="327.5" cy="331.5" r="9.5" fill="#4000C7"/>
<circle cx="165.5" cy="91.5" r="9.5" fill="#4000C7"/>
<line x1="85" y1="366.5" x2="407" y2="366.5" stroke="#4000C7"/>
<line x1="85" y1="212.5" x2="248" y2="212.5" stroke="#4000C7"/>
<line x1="89" y1="91.5" x2="321" y2="91.5" stroke="#4000C7"/>
<path d="M312.048 65H311.14V58.9795L309.318 59.6484V58.8281L311.906 57.8564H312.048V65ZM314.567 62.3145C314.567 61.5039 314.759 60.8529 315.144 60.3613C315.528 59.8665 316.031 59.6191 316.652 59.6191C317.271 59.6191 317.761 59.8307 318.122 60.2539V57.5H319.025V65H318.195L318.151 64.4336C317.79 64.8763 317.287 65.0977 316.643 65.0977C316.031 65.0977 315.531 64.847 315.144 64.3457C314.759 63.8444 314.567 63.1901 314.567 62.3828V62.3145ZM315.471 62.417C315.471 63.016 315.594 63.4847 315.842 63.8232C316.089 64.1618 316.431 64.3311 316.867 64.3311C317.44 64.3311 317.858 64.0739 318.122 63.5596V61.1328C317.852 60.6348 317.437 60.3857 316.877 60.3857C316.434 60.3857 316.089 60.5566 315.842 60.8984C315.594 61.2402 315.471 61.7464 315.471 62.417ZM322.624 65.0977C321.908 65.0977 321.325 64.8633 320.876 64.3945C320.427 63.9225 320.202 63.2926 320.202 62.5049V62.3389C320.202 61.8148 320.301 61.3477 320.5 60.9375C320.702 60.5241 320.982 60.2018 321.34 59.9707C321.701 59.7363 322.092 59.6191 322.512 59.6191C323.199 59.6191 323.732 59.8454 324.113 60.2979C324.494 60.7503 324.685 61.3981 324.685 62.2412V62.6172H321.105C321.118 63.138 321.27 63.5596 321.56 63.8818C321.853 64.2008 322.224 64.3604 322.673 64.3604C322.992 64.3604 323.262 64.2952 323.483 64.165C323.705 64.0348 323.898 63.8623 324.064 63.6475L324.616 64.0771C324.174 64.7575 323.509 65.0977 322.624 65.0977ZM322.512 60.3613C322.147 60.3613 321.841 60.4948 321.594 60.7617C321.346 61.0254 321.193 61.3965 321.135 61.875H323.781V61.8066C323.755 61.3477 323.632 60.9928 323.41 60.7422C323.189 60.4883 322.889 60.3613 322.512 60.3613ZM329.953 59.7461C329.953 60.1009 329.859 60.4167 329.67 60.6934C329.484 60.9701 329.232 61.1865 328.913 61.3428C329.284 61.5023 329.577 61.735 329.792 62.041C330.01 62.347 330.119 62.6937 330.119 63.0811C330.119 63.6963 329.911 64.1862 329.494 64.5508C329.081 64.9154 328.535 65.0977 327.858 65.0977C327.175 65.0977 326.626 64.9154 326.213 64.5508C325.803 64.1829 325.598 63.693 325.598 63.0811C325.598 62.6969 325.702 62.3503 325.91 62.041C326.122 61.7318 326.413 61.4974 326.784 61.3379C326.468 61.1816 326.219 60.9652 326.037 60.6885C325.855 60.4118 325.764 60.0977 325.764 59.7461C325.764 59.1471 325.956 58.6719 326.34 58.3203C326.724 57.9688 327.23 57.793 327.858 57.793C328.483 57.793 328.988 57.9688 329.372 58.3203C329.759 58.6719 329.953 59.1471 329.953 59.7461ZM329.216 63.0615C329.216 62.6644 329.089 62.3405 328.835 62.0898C328.584 61.8392 328.256 61.7139 327.849 61.7139C327.442 61.7139 327.115 61.8376 326.867 62.085C326.623 62.3324 326.501 62.6579 326.501 63.0615C326.501 63.4652 326.62 63.7826 326.857 64.0137C327.098 64.2448 327.432 64.3604 327.858 64.3604C328.282 64.3604 328.614 64.2448 328.854 64.0137C329.095 63.7793 329.216 63.4619 329.216 63.0615ZM327.858 58.5352C327.504 58.5352 327.215 58.6458 326.994 58.8672C326.776 59.0853 326.667 59.3831 326.667 59.7607C326.667 60.1221 326.774 60.415 326.989 60.6396C327.207 60.861 327.497 60.9717 327.858 60.9717C328.22 60.9717 328.508 60.861 328.723 60.6396C328.941 60.415 329.05 60.1221 329.05 59.7607C329.05 59.3994 328.938 59.1048 328.713 58.877C328.488 58.6491 328.203 58.5352 327.858 58.5352ZM335.847 58.3984L332.902 65H331.955L334.89 58.6328H331.042V57.8906H335.847V58.3984ZM341.53 65H336.872V64.3506L339.333 61.6162C339.698 61.2028 339.948 60.8675 340.085 60.6104C340.225 60.3499 340.295 60.0814 340.295 59.8047C340.295 59.4336 340.183 59.1292 339.958 58.8916C339.733 58.654 339.434 58.5352 339.06 58.5352C338.61 58.5352 338.26 58.6637 338.01 58.9209C337.762 59.1748 337.639 59.5296 337.639 59.9854H336.735C336.735 59.3311 336.945 58.8021 337.365 58.3984C337.788 57.9948 338.353 57.793 339.06 57.793C339.72 57.793 340.243 57.9671 340.627 58.3154C341.011 58.6605 341.203 59.1211 341.203 59.6973C341.203 60.3971 340.757 61.2305 339.865 62.1973L337.961 64.2627H341.53V65ZM347.053 62.417C347.053 63.2243 346.867 63.8737 346.496 64.3652C346.125 64.8535 345.627 65.0977 345.002 65.0977C344.335 65.0977 343.819 64.8617 343.454 64.3896L343.41 65H342.58V57.5H343.483V60.2979C343.848 59.8454 344.351 59.6191 344.992 59.6191C345.633 59.6191 346.136 59.8617 346.501 60.3467C346.869 60.8317 347.053 61.4958 347.053 62.3389V62.417ZM346.149 62.3145C346.149 61.6992 346.031 61.224 345.793 60.8887C345.555 60.5534 345.214 60.3857 344.768 60.3857C344.172 60.3857 343.744 60.6624 343.483 61.2158V63.501C343.76 64.0544 344.191 64.3311 344.777 64.3311C345.21 64.3311 345.547 64.1634 345.788 63.8281C346.029 63.4928 346.149 62.9883 346.149 62.3145ZM313.291 70.31H311.481V69H310.671V70.31H308.881V70.97H313.291V70.31ZM311.081 74.99C310.401 74.99 309.921 74.42 309.921 73.63C309.921 72.84 310.401 72.27 311.081 72.27C311.741 72.27 312.231 72.84 312.231 73.63C312.231 74.42 311.741 74.99 311.081 74.99ZM311.081 71.58C309.991 71.58 309.201 72.42 309.201 73.63C309.201 74.84 309.991 75.68 311.081 75.68C312.161 75.68 312.951 74.84 312.951 73.63C312.951 72.42 312.161 71.58 311.081 71.58ZM314.041 72.23H313.041V72.92H314.041V77.29H314.821V68.97H314.041V72.23ZM315.731 68.77V77.74H316.511V68.77H315.731ZM319.361 70.3H322.621V69.62H318.541V75.54H319.231C320.931 75.54 322.011 75.48 323.311 75.24L323.211 74.56C322.001 74.79 320.951 74.85 319.361 74.85V70.3ZM324.661 68.77V72.02H322.091V72.7H324.661V77.76H325.481V68.77H324.661ZM330.58 73.51C331.97 73.3 333.26 72.61 333.83 71.64C334.4 72.61 335.68 73.3 337.07 73.51L337.36 72.85C335.76 72.63 334.24 71.64 334.24 70.54H337.1V69.88H334.24V68.77H333.42V69.88H330.56V70.54H333.41C333.41 71.65 331.9 72.63 330.28 72.85L330.58 73.51ZM337.89 74.19H329.78V74.86H333.42V77.75H334.24V74.86H337.89V74.19ZM339.449 69.73V70.41H342.739C342.549 72.53 341.319 74.25 339.029 75.4L339.479 76.04C342.379 74.59 343.549 72.28 343.549 69.73H339.449ZM347.309 72.41H345.869V68.77H345.049V77.74H345.869V73.09H347.309V72.41Z" fill="black"/>
<circle cx="327.5" cy="91.5" r="9.5" fill="#4000C7"/>
</svg>
