<svg width="1152" height="587" viewBox="0 0 1152 587" fill="none" xmlns="http://www.w3.org/2000/svg">
<path d="M0 0H1152V587H0V0Z" fill="white" fill-opacity="0.01"/>
<path d="M392.905 337.746C392.905 338.101 392.811 338.417 392.622 338.693C392.437 338.97 392.184 339.187 391.865 339.343C392.236 339.502 392.529 339.735 392.744 340.041C392.962 340.347 393.071 340.694 393.071 341.081C393.071 341.696 392.863 342.186 392.446 342.551C392.033 342.915 391.488 343.098 390.811 343.098C390.127 343.098 389.578 342.915 389.165 342.551C388.755 342.183 388.55 341.693 388.55 341.081C388.55 340.697 388.654 340.35 388.862 340.041C389.074 339.732 389.365 339.497 389.736 339.338C389.421 339.182 389.172 338.965 388.989 338.688C388.807 338.412 388.716 338.098 388.716 337.746C388.716 337.147 388.908 336.672 389.292 336.32C389.676 335.969 390.182 335.793 390.811 335.793C391.436 335.793 391.94 335.969 392.324 336.32C392.712 336.672 392.905 337.147 392.905 337.746ZM392.168 341.062C392.168 340.664 392.041 340.34 391.787 340.09C391.536 339.839 391.208 339.714 390.801 339.714C390.394 339.714 390.067 339.838 389.819 340.085C389.575 340.332 389.453 340.658 389.453 341.062C389.453 341.465 389.572 341.783 389.81 342.014C390.05 342.245 390.384 342.36 390.811 342.36C391.234 342.36 391.566 342.245 391.807 342.014C392.048 341.779 392.168 341.462 392.168 341.062ZM390.811 336.535C390.456 336.535 390.168 336.646 389.946 336.867C389.728 337.085 389.619 337.383 389.619 337.761C389.619 338.122 389.727 338.415 389.941 338.64C390.16 338.861 390.449 338.972 390.811 338.972C391.172 338.972 391.46 338.861 391.675 338.64C391.893 338.415 392.002 338.122 392.002 337.761C392.002 337.399 391.89 337.105 391.665 336.877C391.44 336.649 391.156 336.535 390.811 336.535ZM398.867 343H394.209V342.351L396.67 339.616C397.035 339.203 397.285 338.868 397.422 338.61C397.562 338.35 397.632 338.081 397.632 337.805C397.632 337.434 397.52 337.129 397.295 336.892C397.07 336.654 396.771 336.535 396.396 336.535C395.947 336.535 395.597 336.664 395.347 336.921C395.099 337.175 394.976 337.53 394.976 337.985H394.072C394.072 337.331 394.282 336.802 394.702 336.398C395.125 335.995 395.69 335.793 396.396 335.793C397.057 335.793 397.58 335.967 397.964 336.315C398.348 336.66 398.54 337.121 398.54 337.697C398.54 338.397 398.094 339.23 397.202 340.197L395.298 342.263H398.867V343ZM404.414 336.398L401.47 343H400.522L403.457 336.633H399.609V335.891H404.414V336.398ZM408.901 339.875C408.713 340.1 408.486 340.28 408.223 340.417C407.962 340.554 407.676 340.622 407.363 340.622C406.953 340.622 406.595 340.521 406.289 340.319C405.986 340.118 405.752 339.834 405.586 339.47C405.42 339.102 405.337 338.697 405.337 338.254C405.337 337.779 405.426 337.351 405.605 336.97C405.788 336.589 406.045 336.298 406.377 336.096C406.709 335.894 407.096 335.793 407.539 335.793C408.242 335.793 408.796 336.057 409.199 336.584C409.606 337.108 409.81 337.824 409.81 338.732V338.996C409.81 340.38 409.536 341.39 408.989 342.028C408.442 342.663 407.617 342.989 406.514 343.005H406.338V342.243H406.528C407.274 342.23 407.847 342.036 408.247 341.662C408.647 341.285 408.866 340.689 408.901 339.875ZM407.51 339.875C407.812 339.875 408.091 339.782 408.345 339.597C408.602 339.411 408.789 339.182 408.906 338.908V338.547C408.906 337.954 408.778 337.473 408.521 337.102C408.263 336.73 407.938 336.545 407.544 336.545C407.147 336.545 406.828 336.698 406.587 337.004C406.346 337.307 406.226 337.707 406.226 338.205C406.226 338.69 406.341 339.09 406.572 339.406C406.807 339.719 407.119 339.875 407.51 339.875ZM415.513 339.968C415.513 341.026 415.332 341.812 414.971 342.326C414.609 342.84 414.045 343.098 413.276 343.098C412.518 343.098 411.956 342.847 411.592 342.346C411.227 341.841 411.038 341.089 411.025 340.09V338.884C411.025 337.839 411.206 337.062 411.567 336.555C411.929 336.047 412.495 335.793 413.267 335.793C414.032 335.793 414.595 336.039 414.956 336.53C415.317 337.019 415.503 337.774 415.513 338.796V339.968ZM414.609 338.732C414.609 337.967 414.502 337.411 414.287 337.062C414.072 336.711 413.732 336.535 413.267 336.535C412.804 336.535 412.467 336.709 412.256 337.058C412.044 337.406 411.935 337.941 411.929 338.664V340.109C411.929 340.878 412.039 341.446 412.261 341.813C412.485 342.178 412.824 342.36 413.276 342.36C413.722 342.36 414.053 342.188 414.268 341.843C414.486 341.498 414.6 340.954 414.609 340.212V338.732ZM421.328 343H416.67V342.351L419.131 339.616C419.495 339.203 419.746 338.868 419.883 338.61C420.023 338.35 420.093 338.081 420.093 337.805C420.093 337.434 419.98 337.129 419.756 336.892C419.531 336.654 419.232 336.535 418.857 336.535C418.408 336.535 418.058 336.664 417.808 336.921C417.56 337.175 417.437 337.53 417.437 337.985H416.533C416.533 337.331 416.743 336.802 417.163 336.398C417.586 335.995 418.151 335.793 418.857 335.793C419.518 335.793 420.041 335.967 420.425 336.315C420.809 336.66 421.001 337.121 421.001 337.697C421.001 338.397 420.555 339.23 419.663 340.197L417.759 342.263H421.328V343ZM424.57 343.098C423.854 343.098 423.271 342.863 422.822 342.395C422.373 341.923 422.148 341.293 422.148 340.505V340.339C422.148 339.815 422.248 339.348 422.446 338.938C422.648 338.524 422.928 338.202 423.286 337.971C423.647 337.736 424.038 337.619 424.458 337.619C425.145 337.619 425.679 337.845 426.06 338.298C426.44 338.75 426.631 339.398 426.631 340.241V340.617H423.052C423.065 341.138 423.216 341.56 423.506 341.882C423.799 342.201 424.17 342.36 424.619 342.36C424.938 342.36 425.208 342.295 425.43 342.165C425.651 342.035 425.845 341.862 426.011 341.647L426.562 342.077C426.12 342.757 425.456 343.098 424.57 343.098ZM424.458 338.361C424.093 338.361 423.787 338.495 423.54 338.762C423.293 339.025 423.14 339.396 423.081 339.875H425.728V339.807C425.701 339.348 425.578 338.993 425.356 338.742C425.135 338.488 424.836 338.361 424.458 338.361ZM376.562 349.717L376.587 350.303C376.974 349.847 377.497 349.619 378.154 349.619C378.893 349.619 379.396 349.902 379.663 350.469C379.839 350.215 380.067 350.01 380.347 349.854C380.63 349.697 380.964 349.619 381.348 349.619C382.507 349.619 383.096 350.233 383.115 351.46V355H382.212V351.514C382.212 351.136 382.126 350.854 381.953 350.669C381.781 350.48 381.491 350.386 381.084 350.386C380.749 350.386 380.47 350.487 380.249 350.688C380.028 350.887 379.899 351.156 379.863 351.494V355H378.955V351.538C378.955 350.77 378.579 350.386 377.827 350.386C377.235 350.386 376.829 350.638 376.611 351.143V355H375.708V349.717H376.562ZM386.675 355.098C385.959 355.098 385.376 354.863 384.927 354.395C384.478 353.923 384.253 353.293 384.253 352.505V352.339C384.253 351.815 384.352 351.348 384.551 350.938C384.753 350.524 385.033 350.202 385.391 349.971C385.752 349.736 386.143 349.619 386.562 349.619C387.249 349.619 387.783 349.845 388.164 350.298C388.545 350.75 388.735 351.398 388.735 352.241V352.617H385.156C385.169 353.138 385.321 353.56 385.61 353.882C385.903 354.201 386.274 354.36 386.724 354.36C387.043 354.36 387.313 354.295 387.534 354.165C387.756 354.035 387.949 353.862 388.115 353.647L388.667 354.077C388.224 354.757 387.56 355.098 386.675 355.098ZM386.562 350.361C386.198 350.361 385.892 350.495 385.645 350.762C385.397 351.025 385.244 351.396 385.186 351.875H387.832V351.807C387.806 351.348 387.682 350.993 387.461 350.742C387.24 350.488 386.94 350.361 386.562 350.361ZM392.339 350.527C392.202 350.505 392.054 350.493 391.895 350.493C391.302 350.493 390.9 350.745 390.688 351.25V355H389.785V349.717H390.664L390.679 350.327C390.975 349.855 391.395 349.619 391.938 349.619C392.114 349.619 392.248 349.642 392.339 349.688V350.527ZM392.861 352.314C392.861 351.491 393.052 350.837 393.433 350.352C393.813 349.863 394.318 349.619 394.946 349.619C395.591 349.619 396.094 349.847 396.455 350.303L396.499 349.717H397.324V354.873C397.324 355.557 397.121 356.095 396.714 356.489C396.31 356.883 395.767 357.08 395.083 357.08C394.702 357.08 394.329 356.999 393.965 356.836C393.6 356.673 393.322 356.45 393.13 356.167L393.599 355.625C393.986 356.104 394.46 356.343 395.02 356.343C395.459 356.343 395.801 356.219 396.045 355.972C396.292 355.724 396.416 355.376 396.416 354.927V354.473C396.055 354.889 395.562 355.098 394.937 355.098C394.318 355.098 393.817 354.849 393.433 354.351C393.052 353.853 392.861 353.174 392.861 352.314ZM393.77 352.417C393.77 353.013 393.892 353.481 394.136 353.823C394.38 354.162 394.722 354.331 395.161 354.331C395.731 354.331 396.149 354.072 396.416 353.555V351.143C396.139 350.638 395.724 350.386 395.171 350.386C394.731 350.386 394.388 350.557 394.141 350.898C393.893 351.24 393.77 351.746 393.77 352.417ZM400.884 355.098C400.168 355.098 399.585 354.863 399.136 354.395C398.687 353.923 398.462 353.293 398.462 352.505V352.339C398.462 351.815 398.561 351.348 398.76 350.938C398.962 350.524 399.242 350.202 399.6 349.971C399.961 349.736 400.352 349.619 400.771 349.619C401.458 349.619 401.992 349.845 402.373 350.298C402.754 350.75 402.944 351.398 402.944 352.241V352.617H399.365C399.378 353.138 399.53 353.56 399.819 353.882C400.112 354.201 400.483 354.36 400.933 354.36C401.252 354.36 401.522 354.295 401.743 354.165C401.965 354.035 402.158 353.862 402.324 353.647L402.876 354.077C402.433 354.757 401.769 355.098 400.884 355.098ZM400.771 350.361C400.407 350.361 400.101 350.495 399.854 350.762C399.606 351.025 399.453 351.396 399.395 351.875H402.041V351.807C402.015 351.348 401.891 350.993 401.67 350.742C401.449 350.488 401.149 350.361 400.771 350.361ZM408.594 354.36C408.916 354.36 409.198 354.263 409.438 354.067C409.679 353.872 409.813 353.628 409.839 353.335H410.693C410.677 353.638 410.573 353.926 410.381 354.199C410.189 354.473 409.932 354.691 409.609 354.854C409.29 355.016 408.952 355.098 408.594 355.098C407.874 355.098 407.301 354.858 406.875 354.38C406.452 353.898 406.24 353.241 406.24 352.407V352.256C406.24 351.742 406.335 351.284 406.523 350.884C406.712 350.483 406.982 350.173 407.334 349.951C407.689 349.73 408.107 349.619 408.589 349.619C409.181 349.619 409.673 349.797 410.063 350.151C410.457 350.506 410.667 350.967 410.693 351.533H409.839C409.813 351.191 409.683 350.911 409.448 350.693C409.217 350.472 408.931 350.361 408.589 350.361C408.13 350.361 407.773 350.527 407.52 350.859C407.269 351.188 407.144 351.665 407.144 352.29V352.461C407.144 353.07 407.269 353.538 407.52 353.867C407.77 354.196 408.128 354.36 408.594 354.36ZM411.47 352.31C411.47 351.792 411.571 351.326 411.772 350.913C411.978 350.5 412.261 350.181 412.622 349.956C412.987 349.731 413.402 349.619 413.867 349.619C414.587 349.619 415.168 349.868 415.61 350.366C416.056 350.864 416.279 351.527 416.279 352.354V352.417C416.279 352.931 416.18 353.394 415.981 353.804C415.786 354.211 415.505 354.528 415.137 354.756C414.772 354.984 414.352 355.098 413.877 355.098C413.161 355.098 412.58 354.849 412.134 354.351C411.691 353.853 411.47 353.193 411.47 352.373V352.31ZM412.378 352.417C412.378 353.003 412.513 353.473 412.783 353.828C413.057 354.183 413.421 354.36 413.877 354.36C414.336 354.36 414.701 354.181 414.971 353.823C415.241 353.462 415.376 352.957 415.376 352.31C415.376 351.73 415.238 351.261 414.961 350.903C414.688 350.542 414.323 350.361 413.867 350.361C413.421 350.361 413.062 350.539 412.788 350.894C412.515 351.248 412.378 351.756 412.378 352.417ZM418.262 349.717L418.286 350.303C418.674 349.847 419.196 349.619 419.854 349.619C420.592 349.619 421.095 349.902 421.362 350.469C421.538 350.215 421.766 350.01 422.046 349.854C422.329 349.697 422.663 349.619 423.047 349.619C424.206 349.619 424.795 350.233 424.814 351.46V355H423.911V351.514C423.911 351.136 423.825 350.854 423.652 350.669C423.48 350.48 423.19 350.386 422.783 350.386C422.448 350.386 422.17 350.487 421.948 350.688C421.727 350.887 421.598 351.156 421.562 351.494V355H420.654V351.538C420.654 350.77 420.278 350.386 419.526 350.386C418.934 350.386 418.529 350.638 418.311 351.143V355H417.407V349.717H418.262ZM427.031 349.717L427.056 350.303C427.443 349.847 427.965 349.619 428.623 349.619C429.362 349.619 429.865 349.902 430.132 350.469C430.308 350.215 430.535 350.01 430.815 349.854C431.099 349.697 431.432 349.619 431.816 349.619C432.975 349.619 433.564 350.233 433.584 351.46V355H432.681V351.514C432.681 351.136 432.594 350.854 432.422 350.669C432.249 350.48 431.96 350.386 431.553 350.386C431.217 350.386 430.939 350.487 430.718 350.688C430.496 350.887 430.368 351.156 430.332 351.494V355H429.424V351.538C429.424 350.77 429.048 350.386 428.296 350.386C427.703 350.386 427.298 350.638 427.08 351.143V355H426.177V349.717H427.031ZM435.933 355H435.029V349.717H435.933V355ZM434.956 348.315C434.956 348.169 435 348.045 435.088 347.944C435.179 347.843 435.312 347.793 435.488 347.793C435.664 347.793 435.798 347.843 435.889 347.944C435.98 348.045 436.025 348.169 436.025 348.315C436.025 348.462 435.98 348.584 435.889 348.682C435.798 348.779 435.664 348.828 435.488 348.828C435.312 348.828 435.179 348.779 435.088 348.682C435 348.584 434.956 348.462 434.956 348.315ZM438.608 348.438V349.717H439.595V350.415H438.608V353.691C438.608 353.903 438.652 354.062 438.74 354.17C438.828 354.274 438.978 354.326 439.189 354.326C439.294 354.326 439.437 354.307 439.619 354.268V355C439.382 355.065 439.15 355.098 438.926 355.098C438.522 355.098 438.218 354.976 438.013 354.731C437.808 354.487 437.705 354.141 437.705 353.691V350.415H436.743V349.717H437.705V348.438H438.608Z" fill="black"/>
<path d="M312.048 307H311.14V300.979L309.318 301.648V300.828L311.906 299.856H312.048V307ZM314.567 304.314C314.567 303.504 314.759 302.853 315.144 302.361C315.528 301.867 316.031 301.619 316.652 301.619C317.271 301.619 317.761 301.831 318.122 302.254V299.5H319.025V307H318.195L318.151 306.434C317.79 306.876 317.287 307.098 316.643 307.098C316.031 307.098 315.531 306.847 315.144 306.346C314.759 305.844 314.567 305.19 314.567 304.383V304.314ZM315.471 304.417C315.471 305.016 315.594 305.485 315.842 305.823C316.089 306.162 316.431 306.331 316.867 306.331C317.44 306.331 317.858 306.074 318.122 305.56V303.133C317.852 302.635 317.437 302.386 316.877 302.386C316.434 302.386 316.089 302.557 315.842 302.898C315.594 303.24 315.471 303.746 315.471 304.417ZM322.624 307.098C321.908 307.098 321.325 306.863 320.876 306.395C320.427 305.923 320.202 305.293 320.202 304.505V304.339C320.202 303.815 320.301 303.348 320.5 302.938C320.702 302.524 320.982 302.202 321.34 301.971C321.701 301.736 322.092 301.619 322.512 301.619C323.199 301.619 323.732 301.845 324.113 302.298C324.494 302.75 324.685 303.398 324.685 304.241V304.617H321.105C321.118 305.138 321.27 305.56 321.56 305.882C321.853 306.201 322.224 306.36 322.673 306.36C322.992 306.36 323.262 306.295 323.483 306.165C323.705 306.035 323.898 305.862 324.064 305.647L324.616 306.077C324.174 306.757 323.509 307.098 322.624 307.098ZM322.512 302.361C322.147 302.361 321.841 302.495 321.594 302.762C321.346 303.025 321.193 303.396 321.135 303.875H323.781V303.807C323.755 303.348 323.632 302.993 323.41 302.742C323.189 302.488 322.889 302.361 322.512 302.361ZM329.953 301.746C329.953 302.101 329.859 302.417 329.67 302.693C329.484 302.97 329.232 303.187 328.913 303.343C329.284 303.502 329.577 303.735 329.792 304.041C330.01 304.347 330.119 304.694 330.119 305.081C330.119 305.696 329.911 306.186 329.494 306.551C329.081 306.915 328.535 307.098 327.858 307.098C327.175 307.098 326.626 306.915 326.213 306.551C325.803 306.183 325.598 305.693 325.598 305.081C325.598 304.697 325.702 304.35 325.91 304.041C326.122 303.732 326.413 303.497 326.784 303.338C326.468 303.182 326.219 302.965 326.037 302.688C325.855 302.412 325.764 302.098 325.764 301.746C325.764 301.147 325.956 300.672 326.34 300.32C326.724 299.969 327.23 299.793 327.858 299.793C328.483 299.793 328.988 299.969 329.372 300.32C329.759 300.672 329.953 301.147 329.953 301.746ZM329.216 305.062C329.216 304.664 329.089 304.34 328.835 304.09C328.584 303.839 328.256 303.714 327.849 303.714C327.442 303.714 327.115 303.838 326.867 304.085C326.623 304.332 326.501 304.658 326.501 305.062C326.501 305.465 326.62 305.783 326.857 306.014C327.098 306.245 327.432 306.36 327.858 306.36C328.282 306.36 328.614 306.245 328.854 306.014C329.095 305.779 329.216 305.462 329.216 305.062ZM327.858 300.535C327.504 300.535 327.215 300.646 326.994 300.867C326.776 301.085 326.667 301.383 326.667 301.761C326.667 302.122 326.774 302.415 326.989 302.64C327.207 302.861 327.497 302.972 327.858 302.972C328.22 302.972 328.508 302.861 328.723 302.64C328.941 302.415 329.05 302.122 329.05 301.761C329.05 301.399 328.938 301.105 328.713 300.877C328.488 300.649 328.203 300.535 327.858 300.535ZM335.847 300.398L332.902 307H331.955L334.89 300.633H331.042V299.891H335.847V300.398ZM341.53 307H336.872V306.351L339.333 303.616C339.698 303.203 339.948 302.868 340.085 302.61C340.225 302.35 340.295 302.081 340.295 301.805C340.295 301.434 340.183 301.129 339.958 300.892C339.733 300.654 339.434 300.535 339.06 300.535C338.61 300.535 338.26 300.664 338.01 300.921C337.762 301.175 337.639 301.53 337.639 301.985H336.735C336.735 301.331 336.945 300.802 337.365 300.398C337.788 299.995 338.353 299.793 339.06 299.793C339.72 299.793 340.243 299.967 340.627 300.315C341.011 300.66 341.203 301.121 341.203 301.697C341.203 302.397 340.757 303.23 339.865 304.197L337.961 306.263H341.53V307ZM347.053 304.417C347.053 305.224 346.867 305.874 346.496 306.365C346.125 306.854 345.627 307.098 345.002 307.098C344.335 307.098 343.819 306.862 343.454 306.39L343.41 307H342.58V299.5H343.483V302.298C343.848 301.845 344.351 301.619 344.992 301.619C345.633 301.619 346.136 301.862 346.501 302.347C346.869 302.832 347.053 303.496 347.053 304.339V304.417ZM346.149 304.314C346.149 303.699 346.031 303.224 345.793 302.889C345.555 302.553 345.214 302.386 344.768 302.386C344.172 302.386 343.744 302.662 343.483 303.216V305.501C343.76 306.054 344.191 306.331 344.777 306.331C345.21 306.331 345.547 306.163 345.788 305.828C346.029 305.493 346.149 304.988 346.149 304.314ZM313.291 312.31H311.481V311H310.671V312.31H308.881V312.97H313.291V312.31ZM311.081 316.99C310.401 316.99 309.921 316.42 309.921 315.63C309.921 314.84 310.401 314.27 311.081 314.27C311.741 314.27 312.231 314.84 312.231 315.63C312.231 316.42 311.741 316.99 311.081 316.99ZM311.081 313.58C309.991 313.58 309.201 314.42 309.201 315.63C309.201 316.84 309.991 317.68 311.081 317.68C312.161 317.68 312.951 316.84 312.951 315.63C312.951 314.42 312.161 313.58 311.081 313.58ZM314.041 314.23H313.041V314.92H314.041V319.29H314.821V310.97H314.041V314.23ZM315.731 310.77V319.74H316.511V310.77H315.731ZM319.361 312.3H322.621V311.62H318.541V317.54H319.231C320.931 317.54 322.011 317.48 323.311 317.24L323.211 316.56C322.001 316.79 320.951 316.85 319.361 316.85V312.3ZM324.661 310.77V314.02H322.091V314.7H324.661V319.76H325.481V310.77H324.661ZM330.58 315.51C331.97 315.3 333.26 314.61 333.83 313.64C334.4 314.61 335.68 315.3 337.07 315.51L337.36 314.85C335.76 314.63 334.24 313.64 334.24 312.54H337.1V311.88H334.24V310.77H333.42V311.88H330.56V312.54H333.41C333.41 313.65 331.9 314.63 330.28 314.85L330.58 315.51ZM337.89 316.19H329.78V316.86H333.42V319.75H334.24V316.86H337.89V316.19ZM339.449 311.73V312.41H342.739C342.549 314.53 341.319 316.25 339.029 317.4L339.479 318.04C342.379 316.59 343.549 314.28 343.549 311.73H339.449ZM347.309 314.41H345.869V310.77H345.049V319.74H345.869V315.09H347.309V314.41Z" fill="black"/>
<path d="M303.168 353.145H300.189L299.521 355H298.554L301.269 347.891H302.089L304.809 355H303.847L303.168 353.145ZM300.473 352.373H302.89L301.679 349.048L300.473 352.373ZM308.827 354.478C308.476 354.891 307.96 355.098 307.279 355.098C306.716 355.098 306.286 354.935 305.99 354.609C305.697 354.281 305.549 353.796 305.546 353.154V349.717H306.449V353.13C306.449 353.931 306.775 354.331 307.426 354.331C308.116 354.331 308.575 354.074 308.803 353.56V349.717H309.706V355H308.847L308.827 354.478ZM312.309 348.438V349.717H313.295V350.415H312.309V353.691C312.309 353.903 312.353 354.062 312.44 354.17C312.528 354.274 312.678 354.326 312.89 354.326C312.994 354.326 313.137 354.307 313.319 354.268V355C313.082 355.065 312.851 355.098 312.626 355.098C312.222 355.098 311.918 354.976 311.713 354.731C311.508 354.487 311.405 354.141 311.405 353.691V350.415H310.443V349.717H311.405V348.438H312.309ZM314.018 352.31C314.018 351.792 314.118 351.326 314.32 350.913C314.525 350.5 314.809 350.181 315.17 349.956C315.535 349.731 315.95 349.619 316.415 349.619C317.134 349.619 317.715 349.868 318.158 350.366C318.604 350.864 318.827 351.527 318.827 352.354V352.417C318.827 352.931 318.728 353.394 318.529 353.804C318.334 354.211 318.052 354.528 317.685 354.756C317.32 354.984 316.9 355.098 316.425 355.098C315.709 355.098 315.128 354.849 314.682 354.351C314.239 353.853 314.018 353.193 314.018 352.373V352.31ZM314.926 352.417C314.926 353.003 315.061 353.473 315.331 353.828C315.604 354.183 315.969 354.36 316.425 354.36C316.884 354.36 317.248 354.181 317.519 353.823C317.789 353.462 317.924 352.957 317.924 352.31C317.924 351.73 317.785 351.261 317.509 350.903C317.235 350.542 316.871 350.361 316.415 350.361C315.969 350.361 315.609 350.539 315.336 350.894C315.062 351.248 314.926 351.756 314.926 352.417ZM321.84 352.349H319.457V351.611H321.84V352.349ZM323.573 349.717L323.598 350.303C323.985 349.847 324.507 349.619 325.165 349.619C325.904 349.619 326.407 349.902 326.674 350.469C326.85 350.215 327.077 350.01 327.357 349.854C327.641 349.697 327.974 349.619 328.358 349.619C329.517 349.619 330.106 350.233 330.126 351.46V355H329.223V351.514C329.223 351.136 329.136 350.854 328.964 350.669C328.791 350.48 328.502 350.386 328.095 350.386C327.759 350.386 327.481 350.487 327.26 350.688C327.038 350.887 326.91 351.156 326.874 351.494V355H325.966V351.538C325.966 350.77 325.59 350.386 324.838 350.386C324.245 350.386 323.84 350.638 323.622 351.143V355H322.719V349.717H323.573ZM333.686 355.098C332.969 355.098 332.387 354.863 331.938 354.395C331.488 353.923 331.264 353.293 331.264 352.505V352.339C331.264 351.815 331.363 351.348 331.562 350.938C331.763 350.524 332.043 350.202 332.401 349.971C332.763 349.736 333.153 349.619 333.573 349.619C334.26 349.619 334.794 349.845 335.175 350.298C335.556 350.75 335.746 351.398 335.746 352.241V352.617H332.167C332.18 353.138 332.331 353.56 332.621 353.882C332.914 354.201 333.285 354.36 333.734 354.36C334.053 354.36 334.324 354.295 334.545 354.165C334.766 354.035 334.96 353.862 335.126 353.647L335.678 354.077C335.235 354.757 334.571 355.098 333.686 355.098ZM333.573 350.361C333.209 350.361 332.903 350.495 332.655 350.762C332.408 351.025 332.255 351.396 332.196 351.875H334.843V351.807C334.817 351.348 334.693 350.993 334.472 350.742C334.25 350.488 333.951 350.361 333.573 350.361ZM339.35 350.527C339.213 350.505 339.065 350.493 338.905 350.493C338.313 350.493 337.911 350.745 337.699 351.25V355H336.796V349.717H337.675L337.689 350.327C337.986 349.855 338.406 349.619 338.949 349.619C339.125 349.619 339.258 349.642 339.35 349.688V350.527ZM339.872 352.314C339.872 351.491 340.062 350.837 340.443 350.352C340.824 349.863 341.329 349.619 341.957 349.619C342.602 349.619 343.104 349.847 343.466 350.303L343.51 349.717H344.335V354.873C344.335 355.557 344.132 356.095 343.725 356.489C343.321 356.883 342.777 357.08 342.094 357.08C341.713 357.08 341.34 356.999 340.976 356.836C340.611 356.673 340.333 356.45 340.141 356.167L340.609 355.625C340.997 356.104 341.47 356.343 342.03 356.343C342.47 356.343 342.812 356.219 343.056 355.972C343.303 355.724 343.427 355.376 343.427 354.927V354.473C343.065 354.889 342.572 355.098 341.947 355.098C341.329 355.098 340.827 354.849 340.443 354.351C340.062 353.853 339.872 353.174 339.872 352.314ZM340.78 352.417C340.78 353.013 340.902 353.481 341.146 353.823C341.391 354.162 341.732 354.331 342.172 354.331C342.742 354.331 343.16 354.072 343.427 353.555V351.143C343.15 350.638 342.735 350.386 342.182 350.386C341.742 350.386 341.399 350.557 341.151 350.898C340.904 351.24 340.78 351.746 340.78 352.417ZM346.684 355H345.78V349.717H346.684V355ZM345.707 348.315C345.707 348.169 345.751 348.045 345.839 347.944C345.93 347.843 346.063 347.793 346.239 347.793C346.415 347.793 346.549 347.843 346.64 347.944C346.731 348.045 346.776 348.169 346.776 348.315C346.776 348.462 346.731 348.584 346.64 348.682C346.549 348.779 346.415 348.828 346.239 348.828C346.063 348.828 345.93 348.779 345.839 348.682C345.751 348.584 345.707 348.462 345.707 348.315ZM348.988 349.717L349.018 350.381C349.421 349.873 349.949 349.619 350.6 349.619C351.716 349.619 352.279 350.249 352.289 351.509V355H351.386V351.504C351.382 351.123 351.295 350.841 351.122 350.659C350.953 350.477 350.688 350.386 350.326 350.386C350.033 350.386 349.776 350.464 349.555 350.62C349.333 350.776 349.161 350.981 349.037 351.235V355H348.134V349.717H348.988ZM353.437 352.314C353.437 351.491 353.627 350.837 354.008 350.352C354.389 349.863 354.893 349.619 355.521 349.619C356.166 349.619 356.669 349.847 357.03 350.303L357.074 349.717H357.899V354.873C357.899 355.557 357.696 356.095 357.289 356.489C356.885 356.883 356.342 357.08 355.658 357.08C355.277 357.08 354.905 356.999 354.54 356.836C354.175 356.673 353.897 356.45 353.705 356.167L354.174 355.625C354.561 356.104 355.035 356.343 355.595 356.343C356.034 356.343 356.376 356.219 356.62 355.972C356.868 355.724 356.991 355.376 356.991 354.927V354.473C356.63 354.889 356.137 355.098 355.512 355.098C354.893 355.098 354.392 354.849 354.008 354.351C353.627 353.853 353.437 353.174 353.437 352.314ZM354.345 352.417C354.345 353.013 354.467 353.481 354.711 353.823C354.955 354.162 355.297 354.331 355.736 354.331C356.306 354.331 356.724 354.072 356.991 353.555V351.143C356.715 350.638 356.299 350.386 355.746 350.386C355.307 350.386 354.963 350.557 354.716 350.898C354.468 351.24 354.345 351.746 354.345 352.417Z" fill="#19B500"/>
<path d="M165.559 361C160.694 351.652 185.557 330.945 321 332.042" stroke="#4000C7"/>
<path d="M406.738 361C409.015 351.652 397.38 330.945 334 332.042" stroke="#4000C7"/>
<rect x="439.824" y="375.124" width="18" height="41" rx="5" transform="rotate(-90.1738 439.824 375.124)" fill="black"/>
<path d="M432.001 366.193L440.251 362.73L440.25 369.659L432.001 366.193Z" fill="black"/>
<path d="M449.603 363.737L449.63 364.382C450.056 363.88 450.631 363.629 451.354 363.629C452.167 363.629 452.72 363.941 453.014 364.564C453.207 364.284 453.458 364.059 453.766 363.887C454.077 363.715 454.444 363.629 454.867 363.629C456.142 363.628 456.79 364.303 456.812 365.653L456.812 369.547L455.819 369.547L455.818 365.712C455.818 365.297 455.723 364.987 455.533 364.783C455.343 364.576 455.025 364.472 454.577 364.472C454.208 364.472 453.902 364.583 453.659 364.805C453.415 365.024 453.274 365.319 453.235 365.691L453.235 369.548L452.236 369.548L452.235 365.74C452.235 364.895 451.822 364.472 450.995 364.473C450.343 364.473 449.897 364.75 449.657 365.305L449.658 369.549L448.664 369.549L448.663 363.737L449.603 363.737ZM461.904 369.546C461.847 369.432 461.8 369.228 461.764 368.934C461.303 369.414 460.751 369.654 460.11 369.654C459.537 369.654 459.066 369.493 458.698 369.171C458.332 368.845 458.15 368.433 458.149 367.936C458.149 367.331 458.378 366.861 458.837 366.528C459.299 366.192 459.947 366.023 460.781 366.023L461.748 366.023L461.748 365.566C461.748 365.219 461.644 364.943 461.436 364.739C461.228 364.532 460.922 364.428 460.517 364.428C460.163 364.428 459.866 364.518 459.626 364.697C459.386 364.876 459.266 365.092 459.266 365.347L458.267 365.347C458.267 365.057 458.369 364.777 458.573 364.509C458.781 364.237 459.06 364.022 459.411 363.864C459.765 363.707 460.154 363.628 460.576 363.628C461.246 363.627 461.771 363.796 462.15 364.132C462.53 364.465 462.727 364.925 462.741 365.512L462.742 368.187C462.742 368.721 462.81 369.145 462.946 369.46L462.946 369.546L461.904 369.546ZM460.255 368.789C460.567 368.789 460.862 368.709 461.141 368.547C461.421 368.386 461.623 368.177 461.748 367.919L461.748 366.726L460.969 366.727C459.752 366.727 459.143 367.083 459.143 367.796C459.143 368.107 459.247 368.351 459.455 368.526C459.662 368.702 459.929 368.789 460.255 368.789ZM465.379 369.546L464.386 369.546L464.385 363.734L465.378 363.734L465.379 369.546ZM464.304 362.193C464.304 362.032 464.352 361.896 464.449 361.785C464.549 361.674 464.696 361.618 464.889 361.618C465.082 361.618 465.229 361.673 465.33 361.784C465.43 361.895 465.48 362.031 465.48 362.193C465.48 362.354 465.43 362.488 465.33 362.595C465.229 362.703 465.083 362.757 464.889 362.757C464.696 362.757 464.549 362.703 464.449 362.596C464.352 362.488 464.304 362.354 464.304 362.193ZM467.913 363.734L467.946 364.464C468.39 363.905 468.97 363.626 469.686 363.626C470.914 363.626 471.534 364.318 471.545 365.704L471.545 369.545L470.552 369.545L470.551 365.699C470.547 365.28 470.451 364.97 470.261 364.77C470.074 364.569 469.783 364.469 469.385 364.469C469.063 364.469 468.78 364.555 468.537 364.727C468.293 364.899 468.103 365.125 467.967 365.404L467.968 369.545L466.974 369.545L466.973 363.734L467.913 363.734Z" fill="white"/>
<circle cx="406.5" cy="366.5" r="9.5" fill="#4000C7"/>
<circle cx="327.5" cy="331.5" r="9.5" fill="#4000C7"/>
<line x1="248" y1="366.5" x2="408" y2="366.5" stroke="#4000C7"/>
<path d="M327.646 289.354C327.842 289.549 328.158 289.549 328.354 289.354L331.536 286.172C331.731 285.976 331.731 285.66 331.536 285.464C331.34 285.269 331.024 285.269 330.828 285.464L328 288.293L325.172 285.464C324.976 285.269 324.66 285.269 324.464 285.464C324.269 285.66 324.269 285.976 324.464 286.172L327.646 289.354ZM327.5 101L327.5 289L328.5 289L328.5 101L327.5 101Z" fill="#4000C7"/>
</svg>
