<svg width="1152" height="587" viewBox="0 0 1152 587" fill="none" xmlns="http://www.w3.org/2000/svg">
<path d="M0 0H1152V587H0V0Z" fill="white" fill-opacity="0.01"/>
<path d="M401.168 309.145H398.189L397.521 311H396.554L399.269 303.891H400.089L402.809 311H401.847L401.168 309.145ZM398.473 308.373H400.89L399.679 305.048L398.473 308.373ZM406.827 310.478C406.476 310.891 405.96 311.098 405.279 311.098C404.716 311.098 404.286 310.935 403.99 310.609C403.697 310.281 403.549 309.796 403.546 309.154V305.717H404.449V309.13C404.449 309.931 404.775 310.331 405.426 310.331C406.116 310.331 406.575 310.074 406.803 309.56V305.717H407.706V311H406.847L406.827 310.478ZM410.309 304.438V305.717H411.295V306.415H410.309V309.691C410.309 309.903 410.353 310.062 410.44 310.17C410.528 310.274 410.678 310.326 410.89 310.326C410.994 310.326 411.137 310.307 411.319 310.268V311C411.082 311.065 410.851 311.098 410.626 311.098C410.222 311.098 409.918 310.976 409.713 310.731C409.508 310.487 409.405 310.141 409.405 309.691V306.415H408.443V305.717H409.405V304.438H410.309ZM412.018 308.31C412.018 307.792 412.118 307.326 412.32 306.913C412.525 306.5 412.809 306.181 413.17 305.956C413.535 305.731 413.95 305.619 414.415 305.619C415.134 305.619 415.715 305.868 416.158 306.366C416.604 306.864 416.827 307.527 416.827 308.354V308.417C416.827 308.931 416.728 309.394 416.529 309.804C416.334 310.211 416.052 310.528 415.685 310.756C415.32 310.984 414.9 311.098 414.425 311.098C413.709 311.098 413.128 310.849 412.682 310.351C412.239 309.853 412.018 309.193 412.018 308.373V308.31ZM412.926 308.417C412.926 309.003 413.061 309.473 413.331 309.828C413.604 310.183 413.969 310.36 414.425 310.36C414.884 310.36 415.248 310.181 415.519 309.823C415.789 309.462 415.924 308.957 415.924 308.31C415.924 307.73 415.785 307.261 415.509 306.903C415.235 306.542 414.871 306.361 414.415 306.361C413.969 306.361 413.609 306.539 413.336 306.894C413.062 307.248 412.926 307.756 412.926 308.417ZM419.84 308.349H417.457V307.611H419.84V308.349ZM421.573 305.717L421.598 306.303C421.985 305.847 422.507 305.619 423.165 305.619C423.904 305.619 424.407 305.902 424.674 306.469C424.85 306.215 425.077 306.01 425.357 305.854C425.641 305.697 425.974 305.619 426.358 305.619C427.517 305.619 428.106 306.233 428.126 307.46V311H427.223V307.514C427.223 307.136 427.136 306.854 426.964 306.669C426.791 306.48 426.502 306.386 426.095 306.386C425.759 306.386 425.481 306.487 425.26 306.688C425.038 306.887 424.91 307.156 424.874 307.494V311H423.966V307.538C423.966 306.77 423.59 306.386 422.838 306.386C422.245 306.386 421.84 306.638 421.622 307.143V311H420.719V305.717H421.573ZM431.686 311.098C430.969 311.098 430.387 310.863 429.938 310.395C429.488 309.923 429.264 309.293 429.264 308.505V308.339C429.264 307.815 429.363 307.348 429.562 306.938C429.763 306.524 430.043 306.202 430.401 305.971C430.763 305.736 431.153 305.619 431.573 305.619C432.26 305.619 432.794 305.845 433.175 306.298C433.556 306.75 433.746 307.398 433.746 308.241V308.617H430.167C430.18 309.138 430.331 309.56 430.621 309.882C430.914 310.201 431.285 310.36 431.734 310.36C432.053 310.36 432.324 310.295 432.545 310.165C432.766 310.035 432.96 309.862 433.126 309.647L433.678 310.077C433.235 310.757 432.571 311.098 431.686 311.098ZM431.573 306.361C431.209 306.361 430.903 306.495 430.655 306.762C430.408 307.025 430.255 307.396 430.196 307.875H432.843V307.807C432.817 307.348 432.693 306.993 432.472 306.742C432.25 306.488 431.951 306.361 431.573 306.361ZM437.35 306.527C437.213 306.505 437.065 306.493 436.905 306.493C436.313 306.493 435.911 306.745 435.699 307.25V311H434.796V305.717H435.675L435.689 306.327C435.986 305.855 436.406 305.619 436.949 305.619C437.125 305.619 437.258 305.642 437.35 305.688V306.527ZM437.872 308.314C437.872 307.491 438.062 306.837 438.443 306.352C438.824 305.863 439.329 305.619 439.957 305.619C440.602 305.619 441.104 305.847 441.466 306.303L441.51 305.717H442.335V310.873C442.335 311.557 442.132 312.095 441.725 312.489C441.321 312.883 440.777 313.08 440.094 313.08C439.713 313.08 439.34 312.999 438.976 312.836C438.611 312.673 438.333 312.45 438.141 312.167L438.609 311.625C438.997 312.104 439.47 312.343 440.03 312.343C440.47 312.343 440.812 312.219 441.056 311.972C441.303 311.724 441.427 311.376 441.427 310.927V310.473C441.065 310.889 440.572 311.098 439.947 311.098C439.329 311.098 438.827 310.849 438.443 310.351C438.062 309.853 437.872 309.174 437.872 308.314ZM438.78 308.417C438.78 309.013 438.902 309.481 439.146 309.823C439.391 310.162 439.732 310.331 440.172 310.331C440.742 310.331 441.16 310.072 441.427 309.555V307.143C441.15 306.638 440.735 306.386 440.182 306.386C439.742 306.386 439.399 306.557 439.151 306.898C438.904 307.24 438.78 307.746 438.78 308.417ZM444.684 311H443.78V305.717H444.684V311ZM443.707 304.315C443.707 304.169 443.751 304.045 443.839 303.944C443.93 303.843 444.063 303.793 444.239 303.793C444.415 303.793 444.549 303.843 444.64 303.944C444.731 304.045 444.776 304.169 444.776 304.315C444.776 304.462 444.731 304.584 444.64 304.682C444.549 304.779 444.415 304.828 444.239 304.828C444.063 304.828 443.93 304.779 443.839 304.682C443.751 304.584 443.707 304.462 443.707 304.315ZM446.988 305.717L447.018 306.381C447.421 305.873 447.949 305.619 448.6 305.619C449.716 305.619 450.279 306.249 450.289 307.509V311H449.386V307.504C449.382 307.123 449.295 306.841 449.122 306.659C448.953 306.477 448.688 306.386 448.326 306.386C448.033 306.386 447.776 306.464 447.555 306.62C447.333 306.776 447.161 306.981 447.037 307.235V311H446.134V305.717H446.988ZM451.437 308.314C451.437 307.491 451.627 306.837 452.008 306.352C452.389 305.863 452.893 305.619 453.521 305.619C454.166 305.619 454.669 305.847 455.03 306.303L455.074 305.717H455.899V310.873C455.899 311.557 455.696 312.095 455.289 312.489C454.885 312.883 454.342 313.08 453.658 313.08C453.277 313.08 452.905 312.999 452.54 312.836C452.175 312.673 451.897 312.45 451.705 312.167L452.174 311.625C452.561 312.104 453.035 312.343 453.595 312.343C454.034 312.343 454.376 312.219 454.62 311.972C454.868 311.724 454.991 311.376 454.991 310.927V310.473C454.63 310.889 454.137 311.098 453.512 311.098C452.893 311.098 452.392 310.849 452.008 310.351C451.627 309.853 451.437 309.174 451.437 308.314ZM452.345 308.417C452.345 309.013 452.467 309.481 452.711 309.823C452.955 310.162 453.297 310.331 453.736 310.331C454.306 310.331 454.724 310.072 454.991 309.555V307.143C454.715 306.638 454.299 306.386 453.746 306.386C453.307 306.386 452.963 306.557 452.716 306.898C452.468 307.24 452.345 307.746 452.345 308.417Z" fill="#19B500"/>
<path d="M268.262 348C265.985 338.652 277.62 317.945 341 319.042" stroke="#4000C7"/>
<path d="M426.738 348C429.015 338.652 417.38 317.945 354 319.042" stroke="#4000C7"/>
<rect x="443.031" y="367.209" width="18" height="41" rx="5" transform="rotate(-64.2277 443.031 367.209)" fill="black"/>
<path d="M439.739 355.626L448.675 356.094L445.662 362.333L439.739 355.626Z" fill="black"/>
<path d="M456.791 361.219L456.535 361.811C457.137 361.545 457.764 361.569 458.415 361.884C459.147 362.237 459.51 362.758 459.503 363.447C459.799 363.279 460.122 363.185 460.475 363.164C460.83 363.145 461.198 363.227 461.578 363.411C462.726 363.965 463.016 364.855 462.449 366.08L460.756 369.586L459.861 369.154L461.528 365.701C461.709 365.327 461.758 365.007 461.676 364.74C461.595 364.471 461.353 364.239 460.95 364.044C460.618 363.884 460.294 363.851 459.978 363.945C459.664 364.036 459.408 364.24 459.211 364.558L457.534 368.031L456.635 367.597L458.29 364.167C458.658 363.406 458.469 362.846 457.724 362.487C457.137 362.203 456.615 362.259 456.158 362.655L454.313 366.476L453.418 366.044L455.945 360.81L456.791 361.219ZM465.341 371.8C465.339 371.672 465.386 371.468 465.481 371.188C464.857 371.419 464.256 371.396 463.679 371.117C463.163 370.868 462.809 370.518 462.617 370.068C462.43 369.615 462.444 369.165 462.661 368.717C462.924 368.172 463.334 367.849 463.892 367.749C464.454 367.646 465.111 367.777 465.862 368.139L466.733 368.56L466.931 368.149C467.082 367.836 467.108 367.542 467.01 367.268C466.913 366.991 466.683 366.764 466.319 366.588C465.999 366.434 465.693 366.386 465.399 366.443C465.105 366.499 464.903 366.642 464.792 366.871L463.893 366.437C464.019 366.176 464.232 365.969 464.533 365.816C464.838 365.661 465.183 365.589 465.567 365.599C465.955 365.612 466.339 365.71 466.72 365.893C467.323 366.184 467.722 366.564 467.917 367.032C468.114 367.497 468.092 367.997 467.849 368.532L466.686 370.941C466.454 371.421 466.331 371.833 466.317 372.176L466.279 372.253L465.341 371.8ZM464.185 370.401C464.466 370.537 464.767 370.593 465.088 370.569C465.41 370.545 465.683 370.445 465.908 370.267L466.427 369.193L465.725 368.855C464.629 368.325 463.926 368.381 463.616 369.023C463.481 369.304 463.468 369.568 463.579 369.816C463.69 370.065 463.892 370.26 464.185 370.401ZM468.47 373.311L467.576 372.879L470.102 367.646L470.997 368.078L468.47 373.311ZM470.7 366.223C470.77 366.078 470.873 365.976 471.008 365.918C471.147 365.862 471.303 365.876 471.477 365.96C471.651 366.044 471.759 366.158 471.801 366.301C471.843 366.445 471.829 366.589 471.759 366.734C471.689 366.879 471.586 366.978 471.449 367.031C471.312 367.085 471.156 367.069 470.982 366.985C470.808 366.901 470.699 366.789 470.655 366.648C470.615 366.51 470.63 366.368 470.7 366.223ZM473.28 369.18L472.992 369.852C473.634 369.542 474.278 369.543 474.923 369.854C476.029 370.388 476.286 371.281 475.693 372.534L474.023 375.992L473.128 375.56L474.8 372.097C474.979 371.718 475.027 371.397 474.943 371.134C474.863 370.873 474.643 370.655 474.285 370.483C473.995 370.343 473.703 370.297 473.409 370.346C473.115 370.395 472.846 370.515 472.602 370.708L470.802 374.437L469.907 374.005L472.434 368.771L473.28 369.18Z" fill="white"/>
<circle cx="347.5" cy="318.5" r="9.5" fill="#4000C7"/>
<line x1="275" y1="350.5" x2="420" y2="350.5" stroke="#4000C7"/>
<path d="M347.646 300.354C347.842 300.549 348.158 300.549 348.354 300.354L351.536 297.172C351.731 296.976 351.731 296.66 351.536 296.464C351.34 296.269 351.024 296.269 350.828 296.464L348 299.293L345.172 296.464C344.976 296.269 344.66 296.269 344.464 296.464C344.269 296.66 344.269 296.976 344.464 297.172L347.646 300.354ZM347.5 77L347.5 300L348.5 300L348.5 77L347.5 77Z" fill="#4000C7"/>
<circle cx="426.5" cy="350.5" r="9" fill="white" stroke="#4000C7" stroke-dasharray="2 2"/>
</svg>
