<svg width="1152" height="587" viewBox="0 0 1152 587" fill="none" xmlns="http://www.w3.org/2000/svg">
<path d="M0 0H1152V587H0V0Z" fill="white" fill-opacity="0.01"/>
<path d="M552.874 59.8857V60.6523H552.708C552.005 60.6654 551.445 60.8737 551.028 61.2773C550.612 61.681 550.371 62.249 550.306 62.9814C550.68 62.5518 551.191 62.3369 551.839 62.3369C552.457 62.3369 552.951 62.555 553.318 62.9912C553.689 63.4274 553.875 63.9906 553.875 64.6807C553.875 65.4131 553.675 65.999 553.274 66.4385C552.877 66.8779 552.343 67.0977 551.673 67.0977C550.993 67.0977 550.441 66.8372 550.018 66.3164C549.594 65.7923 549.383 65.1185 549.383 64.2949V63.9482C549.383 62.6396 549.661 61.6403 550.218 60.9502C550.778 60.2568 551.609 59.902 552.713 59.8857H552.874ZM551.688 63.0889C551.378 63.0889 551.093 63.1816 550.833 63.3672C550.573 63.5527 550.392 63.7855 550.291 64.0654V64.3975C550.291 64.9834 550.423 65.4554 550.687 65.8135C550.95 66.1715 551.279 66.3506 551.673 66.3506C552.08 66.3506 552.399 66.2008 552.63 65.9014C552.864 65.6019 552.981 65.2096 552.981 64.7246C552.981 64.2363 552.863 63.8424 552.625 63.543C552.391 63.2402 552.078 63.0889 551.688 63.0889ZM555.481 67V62.415H554.646V61.7168H555.481V61.1748C555.481 60.6084 555.633 60.1706 555.936 59.8613C556.238 59.5521 556.666 59.3975 557.22 59.3975C557.428 59.3975 557.635 59.4251 557.84 59.4805L557.791 60.2129C557.638 60.1836 557.475 60.1689 557.303 60.1689C557.01 60.1689 556.784 60.2552 556.624 60.4277C556.465 60.597 556.385 60.8411 556.385 61.1602V61.7168H557.513V62.415H556.385V67H555.481ZM560.516 66.3604C560.838 66.3604 561.119 66.2627 561.36 66.0674C561.601 65.8721 561.735 65.6279 561.761 65.335H562.615C562.599 65.6377 562.495 65.9258 562.303 66.1992C562.111 66.4727 561.854 66.6908 561.531 66.8535C561.212 67.0163 560.874 67.0977 560.516 67.0977C559.796 67.0977 559.223 66.8584 558.797 66.3799C558.374 65.8981 558.162 65.2406 558.162 64.4072V64.2559C558.162 63.7415 558.257 63.2842 558.445 62.8838C558.634 62.4834 558.904 62.1725 559.256 61.9512C559.611 61.7298 560.029 61.6191 560.511 61.6191C561.103 61.6191 561.595 61.7965 561.985 62.1514C562.379 62.5062 562.589 62.9668 562.615 63.5332H561.761C561.735 63.1914 561.604 62.9115 561.37 62.6934C561.139 62.472 560.853 62.3613 560.511 62.3613C560.052 62.3613 559.695 62.5273 559.441 62.8594C559.191 63.1882 559.065 63.665 559.065 64.29V64.4609C559.065 65.0697 559.191 65.5384 559.441 65.8672C559.692 66.196 560.05 66.3604 560.516 66.3604ZM568.196 67H563.538V66.3506L565.999 63.6162C566.364 63.2028 566.614 62.8675 566.751 62.6104C566.891 62.3499 566.961 62.0814 566.961 61.8047C566.961 61.4336 566.849 61.1292 566.624 60.8916C566.399 60.654 566.1 60.5352 565.726 60.5352C565.276 60.5352 564.926 60.6637 564.676 60.9209C564.428 61.1748 564.305 61.5296 564.305 61.9854H563.401C563.401 61.3311 563.611 60.8021 564.031 60.3984C564.454 59.9948 565.019 59.793 565.726 59.793C566.386 59.793 566.909 59.9671 567.293 60.3154C567.677 60.6605 567.869 61.1211 567.869 61.6973C567.869 62.3971 567.423 63.2305 566.531 64.1973L564.627 66.2627H568.196V67ZM569.568 63.4355L569.93 59.8906H573.572V60.7256H570.696L570.481 62.6641C570.83 62.459 571.225 62.3564 571.668 62.3564C572.316 62.3564 572.83 62.5713 573.211 63.001C573.592 63.4274 573.782 64.0052 573.782 64.7344C573.782 65.4668 573.584 66.0446 573.187 66.4678C572.793 66.8877 572.241 67.0977 571.531 67.0977C570.903 67.0977 570.39 66.9235 569.993 66.5752C569.596 66.2269 569.37 65.7451 569.314 65.1299H570.169C570.224 65.5368 570.369 65.8444 570.604 66.0527C570.838 66.2578 571.147 66.3604 571.531 66.3604C571.951 66.3604 572.28 66.2171 572.518 65.9307C572.758 65.6442 572.879 65.2487 572.879 64.7441C572.879 64.2689 572.749 63.888 572.488 63.6016C572.231 63.3118 571.888 63.167 571.458 63.167C571.064 63.167 570.755 63.2533 570.53 63.4258L570.291 63.6211L569.568 63.4355ZM578.123 67C578.071 66.8958 578.029 66.7103 577.996 66.4434C577.576 66.8796 577.075 67.0977 576.492 67.0977C575.971 67.0977 575.543 66.9512 575.208 66.6582C574.876 66.362 574.71 65.9876 574.71 65.5352C574.71 64.985 574.918 64.5586 575.335 64.2559C575.755 63.9499 576.344 63.7969 577.103 63.7969H577.981V63.3818C577.981 63.0661 577.887 62.8154 577.698 62.6299C577.509 62.4411 577.231 62.3467 576.863 62.3467C576.541 62.3467 576.271 62.4281 576.053 62.5908C575.835 62.7536 575.726 62.9505 575.726 63.1816H574.817C574.817 62.918 574.91 62.6641 575.096 62.4199C575.285 62.1725 575.538 61.9772 575.857 61.834C576.18 61.6908 576.533 61.6191 576.917 61.6191C577.526 61.6191 578.003 61.7721 578.348 62.0781C578.693 62.3809 578.872 62.7992 578.885 63.333V65.7646C578.885 66.2497 578.947 66.6354 579.07 66.9219V67H578.123ZM576.624 66.3115C576.907 66.3115 577.176 66.2383 577.43 66.0918C577.684 65.9453 577.868 65.7549 577.981 65.5205V64.4365H577.273C576.167 64.4365 575.613 64.7604 575.613 65.4082C575.613 65.6914 575.708 65.9128 575.896 66.0723C576.085 66.2318 576.328 66.3115 576.624 66.3115ZM580.081 64.3145C580.081 63.5039 580.273 62.8529 580.657 62.3613C581.041 61.8665 581.544 61.6191 582.166 61.6191C582.785 61.6191 583.274 61.8307 583.636 62.2539V59.5H584.539V67H583.709L583.665 66.4336C583.304 66.8763 582.801 67.0977 582.156 67.0977C581.544 67.0977 581.045 66.847 580.657 66.3457C580.273 65.8444 580.081 65.1901 580.081 64.3828V64.3145ZM580.984 64.417C580.984 65.016 581.108 65.4847 581.355 65.8232C581.603 66.1618 581.945 66.3311 582.381 66.3311C582.954 66.3311 583.372 66.0739 583.636 65.5596V63.1328C583.366 62.6348 582.951 62.3857 582.391 62.3857C581.948 62.3857 581.603 62.5566 581.355 62.8984C581.108 63.2402 580.984 63.7464 580.984 64.417ZM553.061 74.38H550.831V71.94H553.061V74.38ZM550.011 74.38H548.691V75.05H555.201V74.38H553.881V71.94H555.231V71.27H548.661V71.94H550.011V74.38ZM556.011 76.09H547.881V76.76H551.531V79.74H552.361V76.76H556.011V76.09ZM558.321 74.77H561.261V74.11H558.321V72.26H561.651V71.58H557.501V77.59H558.191C559.901 77.59 560.991 77.54 562.291 77.31L562.201 76.64C560.981 76.86 559.941 76.92 558.321 76.92V74.77ZM563.661 70.76V74.15H561.811V74.83H563.661V79.75H564.481V70.76H563.661ZM575.33 73.08V74.35H573.26V73.08H575.33ZM572.45 75.22H570.03V73.6H572.45V75.22ZM573.26 75.02H575.33V77.41H576.16V70.78H575.33V72.42H573.26V71.37H572.45V72.95H570.03V71.37H569.22V75.88H573.26V75.02ZM571.21 78.87V76.76H570.39V79.54H576.37V78.87H571.21ZM584.529 73.09V74.29H582.179V74.96H584.529V76.14H585.359V70.78H584.529V72.42H582.499C582.559 72.11 582.599 71.78 582.599 71.45H578.549V72.11H581.709C581.559 73.66 580.229 74.85 578.089 75.49L578.419 76.14C580.349 75.58 581.709 74.53 582.289 73.09H584.529ZM582.429 79.06C581.109 79.06 580.269 78.65 580.269 77.97C580.269 77.3 581.109 76.89 582.429 76.89C583.749 76.89 584.589 77.3 584.589 77.97C584.589 78.65 583.749 79.06 582.429 79.06ZM582.429 76.24C580.619 76.24 579.459 76.89 579.459 77.97C579.459 79.05 580.619 79.7 582.429 79.7C584.239 79.7 585.399 79.05 585.399 77.97C585.399 76.89 584.239 76.24 582.429 76.24Z" fill="black"/>
<path d="M474.749 340.612H475.735V341.35H474.749V343H473.841V341.35H470.604V340.817L473.787 335.891H474.749V340.612ZM471.629 340.612H473.841V337.126L473.733 337.321L471.629 340.612ZM480.013 339.875C479.824 340.1 479.598 340.28 479.334 340.417C479.074 340.554 478.787 340.622 478.475 340.622C478.064 340.622 477.706 340.521 477.4 340.319C477.098 340.118 476.863 339.834 476.697 339.47C476.531 339.102 476.448 338.697 476.448 338.254C476.448 337.779 476.538 337.351 476.717 336.97C476.899 336.589 477.156 336.298 477.488 336.096C477.82 335.894 478.208 335.793 478.65 335.793C479.354 335.793 479.907 336.057 480.311 336.584C480.717 337.108 480.921 337.824 480.921 338.732V338.996C480.921 340.38 480.647 341.39 480.101 342.028C479.554 342.663 478.729 342.989 477.625 343.005H477.449V342.243H477.64C478.385 342.23 478.958 342.036 479.358 341.662C479.759 341.285 479.977 340.689 480.013 339.875ZM478.621 339.875C478.924 339.875 479.202 339.782 479.456 339.597C479.713 339.411 479.9 339.182 480.018 338.908V338.547C480.018 337.954 479.889 337.473 479.632 337.102C479.375 336.73 479.049 336.545 478.655 336.545C478.258 336.545 477.939 336.698 477.698 337.004C477.457 337.307 477.337 337.707 477.337 338.205C477.337 338.69 477.452 339.09 477.684 339.406C477.918 339.719 478.23 339.875 478.621 339.875ZM486.731 340.417C486.731 341.224 486.546 341.874 486.175 342.365C485.804 342.854 485.306 343.098 484.681 343.098C484.013 343.098 483.497 342.862 483.133 342.39L483.089 343H482.259V335.5H483.162V338.298C483.527 337.845 484.03 337.619 484.671 337.619C485.312 337.619 485.815 337.862 486.18 338.347C486.548 338.832 486.731 339.496 486.731 340.339V340.417ZM485.828 340.314C485.828 339.699 485.709 339.224 485.472 338.889C485.234 338.553 484.892 338.386 484.446 338.386C483.851 338.386 483.423 338.662 483.162 339.216V341.501C483.439 342.054 483.87 342.331 484.456 342.331C484.889 342.331 485.226 342.163 485.467 341.828C485.708 341.493 485.828 340.988 485.828 340.314ZM489.993 342.36C490.315 342.36 490.597 342.263 490.838 342.067C491.079 341.872 491.212 341.628 491.238 341.335H492.093C492.076 341.638 491.972 341.926 491.78 342.199C491.588 342.473 491.331 342.691 491.009 342.854C490.69 343.016 490.351 343.098 489.993 343.098C489.274 343.098 488.701 342.858 488.274 342.38C487.851 341.898 487.64 341.241 487.64 340.407V340.256C487.64 339.742 487.734 339.284 487.923 338.884C488.112 338.483 488.382 338.173 488.733 337.951C489.088 337.73 489.507 337.619 489.988 337.619C490.581 337.619 491.072 337.797 491.463 338.151C491.857 338.506 492.067 338.967 492.093 339.533H491.238C491.212 339.191 491.082 338.911 490.848 338.693C490.617 338.472 490.33 338.361 489.988 338.361C489.529 338.361 489.173 338.527 488.919 338.859C488.668 339.188 488.543 339.665 488.543 340.29V340.461C488.543 341.07 488.668 341.538 488.919 341.867C489.17 342.196 489.528 342.36 489.993 342.36ZM497.674 343H493.016V342.351L495.477 339.616C495.841 339.203 496.092 338.868 496.229 338.61C496.368 338.35 496.438 338.081 496.438 337.805C496.438 337.434 496.326 337.129 496.102 336.892C495.877 336.654 495.577 336.535 495.203 336.535C494.754 336.535 494.404 336.664 494.153 336.921C493.906 337.175 493.782 337.53 493.782 337.985H492.879C492.879 337.331 493.089 336.802 493.509 336.398C493.932 335.995 494.497 335.793 495.203 335.793C495.864 335.793 496.386 335.967 496.771 336.315C497.155 336.66 497.347 337.121 497.347 337.697C497.347 338.397 496.901 339.23 496.009 340.197L494.104 342.263H497.674V343ZM502.176 335.886V336.652H502.01C501.307 336.665 500.747 336.874 500.33 337.277C499.913 337.681 499.673 338.249 499.607 338.981C499.982 338.552 500.493 338.337 501.141 338.337C501.759 338.337 502.252 338.555 502.62 338.991C502.991 339.427 503.177 339.991 503.177 340.681C503.177 341.413 502.977 341.999 502.576 342.438C502.179 342.878 501.645 343.098 500.975 343.098C500.294 343.098 499.743 342.837 499.319 342.316C498.896 341.792 498.685 341.118 498.685 340.295V339.948C498.685 338.64 498.963 337.64 499.52 336.95C500.079 336.257 500.911 335.902 502.015 335.886H502.176ZM500.989 339.089C500.68 339.089 500.395 339.182 500.135 339.367C499.874 339.553 499.694 339.785 499.593 340.065V340.397C499.593 340.983 499.725 341.455 499.988 341.813C500.252 342.172 500.581 342.351 500.975 342.351C501.382 342.351 501.701 342.201 501.932 341.901C502.166 341.602 502.283 341.21 502.283 340.725C502.283 340.236 502.164 339.842 501.927 339.543C501.692 339.24 501.38 339.089 500.989 339.089ZM473.061 350.38H470.831V347.94H473.061V350.38ZM470.011 350.38H468.691V351.05H475.201V350.38H473.881V347.94H475.231V347.27H468.661V347.94H470.011V350.38ZM476.011 352.09H467.881V352.76H471.531V355.74H472.361V352.76H476.011V352.09ZM478.321 350.77H481.261V350.11H478.321V348.26H481.651V347.58H477.501V353.59H478.191C479.901 353.59 480.991 353.54 482.291 353.31L482.201 352.64C480.981 352.86 479.941 352.92 478.321 352.92V350.77ZM483.661 346.76V350.15H481.811V350.83H483.661V355.75H484.481V346.76H483.661ZM496.49 350.19C494.86 349.95 493.26 348.84 493.26 347.59V347.09H492.4V347.59C492.4 348.87 490.82 349.95 489.19 350.19L489.52 350.85C490.92 350.61 492.27 349.84 492.83 348.75C493.41 349.83 494.76 350.61 496.15 350.85L496.49 350.19ZM496.88 351.82H488.78V352.5H492.4V355.75H493.22V352.5H496.89L496.88 351.82ZM502.759 349.1V349.77H504.529V352.12H505.359V346.78H504.529V349.1H502.759ZM503.259 351.14C501.959 350.68 501.079 349.55 501.079 348.4V348.09H503.049V347.43H498.259V348.09H500.259V348.4C500.259 349.69 499.339 350.9 497.999 351.39L498.429 352.04C499.479 351.64 500.309 350.8 500.689 349.76C501.079 350.68 501.849 351.42 502.849 351.78L503.259 351.14ZM502.399 355.1C501.049 355.1 500.229 354.72 500.229 354.07C500.229 353.42 501.049 353.03 502.399 353.03C503.749 353.03 504.569 353.42 504.569 354.07C504.569 354.72 503.749 355.1 502.399 355.1ZM502.399 352.4C500.559 352.4 499.409 353.01 499.409 354.07C499.409 355.13 500.559 355.74 502.399 355.74C504.239 355.74 505.389 355.13 505.389 354.07C505.389 353.01 504.239 352.4 502.399 352.4Z" fill="black"/>
<rect x="595.824" y="100.124" width="18" height="41" rx="5" transform="rotate(-90.1738 595.824 100.124)" fill="black"/>
<rect x="514.824" y="375.124" width="18" height="41" rx="5" transform="rotate(-90.1738 514.824 375.124)" fill="black"/>
<path d="M588.001 91.1934L596.251 87.7304L596.25 94.6586L588.001 91.1934Z" fill="black"/>
<path d="M507.001 366.193L515.251 362.73L515.25 369.659L507.001 366.193Z" fill="black"/>
<path d="M605.603 88.737L605.63 89.3815C606.056 88.8801 606.631 88.6294 607.354 88.6293C608.167 88.6291 608.72 88.9405 609.014 89.5635C609.207 89.2842 609.458 89.0586 609.766 88.8866C610.077 88.7147 610.444 88.6287 610.867 88.6286C612.142 88.6284 612.79 89.3032 612.812 90.6532L612.812 94.5472L611.819 94.5474L611.818 90.7124C611.818 90.2971 611.723 89.9874 611.533 89.7833C611.343 89.5756 611.025 89.4719 610.577 89.4719C610.208 89.472 609.902 89.5831 609.659 89.8051C609.415 90.0236 609.274 90.319 609.235 90.6914L609.235 94.5479L608.236 94.548L608.235 90.7399C608.235 89.8949 607.822 89.4724 606.995 89.4726C606.343 89.4727 605.897 89.7503 605.657 90.3053L605.658 94.5485L604.664 94.5487L604.663 88.7372L605.603 88.737ZM617.904 94.5463C617.847 94.4317 617.8 94.2276 617.764 93.934C617.303 94.4139 616.751 94.6539 616.11 94.654C615.537 94.6541 615.066 94.4931 614.698 94.1709C614.332 93.8451 614.15 93.4334 614.149 92.9356C614.149 92.3305 614.378 91.8614 614.837 91.5283C615.299 91.1916 615.947 91.0232 616.781 91.0231L617.748 91.0229L617.748 90.5663C617.748 90.219 617.644 89.9433 617.436 89.7393C617.228 89.5316 616.922 89.4278 616.517 89.4279C616.163 89.428 615.866 89.5175 615.626 89.6966C615.386 89.8757 615.266 90.0923 615.266 90.3466L614.267 90.3468C614.267 90.0567 614.369 89.7774 614.573 89.5088C614.781 89.2366 615.06 89.0217 615.411 88.8641C615.765 88.7065 616.154 88.6277 616.576 88.6276C617.246 88.6275 617.771 88.7957 618.15 89.1322C618.53 89.4651 618.727 89.9252 618.741 90.5125L618.742 93.1873C618.742 93.7208 618.81 94.1451 618.946 94.4602L618.946 94.5461L617.904 94.5463ZM616.255 93.7893C616.567 93.7892 616.862 93.7086 617.141 93.5474C617.421 93.3862 617.623 93.1767 617.748 92.9189L617.748 91.7265L616.969 91.7266C615.752 91.7269 615.143 92.0833 615.143 92.7958C615.143 93.1073 615.247 93.3508 615.455 93.5262C615.662 93.7016 615.929 93.7893 616.255 93.7893ZM621.379 94.5457L620.386 94.5458L620.385 88.7343L621.378 88.7341L621.379 94.5457ZM620.304 87.1928C620.304 87.0317 620.352 86.8956 620.449 86.7846C620.549 86.6736 620.696 86.6181 620.889 86.618C621.082 86.618 621.229 86.6735 621.33 86.7844C621.43 86.8954 621.48 87.0315 621.48 87.1926C621.48 87.3538 621.43 87.488 621.33 87.5955C621.229 87.7029 621.083 87.7567 620.889 87.7567C620.696 87.7567 620.549 87.703 620.449 87.5956C620.352 87.4882 620.304 87.354 620.304 87.1928ZM623.913 88.7337L623.946 89.4641C624.39 88.9055 624.97 88.6261 625.686 88.6259C626.914 88.6257 627.534 89.3185 627.545 90.7042L627.545 94.5445L626.552 94.5447L626.551 90.699C626.547 90.2801 626.451 89.9704 626.261 89.7699C626.074 89.5694 625.783 89.4692 625.385 89.4693C625.063 89.4693 624.78 89.5553 624.537 89.7272C624.293 89.8991 624.103 90.1248 623.967 90.4041L623.968 94.5452L622.974 94.5454L622.973 88.7339L623.913 88.7337Z" fill="white"/>
<path d="M524.603 363.737L524.63 364.382C525.056 363.88 525.631 363.629 526.354 363.629C527.167 363.629 527.72 363.941 528.014 364.564C528.207 364.284 528.458 364.059 528.766 363.887C529.077 363.715 529.444 363.629 529.867 363.629C531.142 363.628 531.79 364.303 531.812 365.653L531.812 369.547L530.819 369.547L530.818 365.712C530.818 365.297 530.723 364.987 530.533 364.783C530.343 364.576 530.025 364.472 529.577 364.472C529.208 364.472 528.902 364.583 528.659 364.805C528.415 365.024 528.274 365.319 528.235 365.691L528.235 369.548L527.236 369.548L527.235 365.74C527.235 364.895 526.822 364.472 525.995 364.473C525.343 364.473 524.897 364.75 524.657 365.305L524.658 369.549L523.664 369.549L523.663 363.737L524.603 363.737ZM536.904 369.546C536.847 369.432 536.8 369.228 536.764 368.934C536.303 369.414 535.751 369.654 535.11 369.654C534.537 369.654 534.066 369.493 533.698 369.171C533.332 368.845 533.15 368.433 533.149 367.936C533.149 367.331 533.378 366.861 533.837 366.528C534.299 366.192 534.947 366.023 535.781 366.023L536.748 366.023L536.748 365.566C536.748 365.219 536.644 364.943 536.436 364.739C536.228 364.532 535.922 364.428 535.517 364.428C535.163 364.428 534.866 364.518 534.626 364.697C534.386 364.876 534.266 365.092 534.266 365.347L533.267 365.347C533.267 365.057 533.369 364.777 533.573 364.509C533.781 364.237 534.06 364.022 534.411 363.864C534.765 363.707 535.154 363.628 535.576 363.628C536.246 363.627 536.771 363.796 537.15 364.132C537.53 364.465 537.727 364.925 537.741 365.512L537.742 368.187C537.742 368.721 537.81 369.145 537.946 369.46L537.946 369.546L536.904 369.546ZM535.255 368.789C535.567 368.789 535.862 368.709 536.141 368.547C536.421 368.386 536.623 368.177 536.748 367.919L536.748 366.726L535.969 366.727C534.752 366.727 534.143 367.083 534.143 367.796C534.143 368.107 534.247 368.351 534.455 368.526C534.662 368.702 534.929 368.789 535.255 368.789ZM540.379 369.546L539.386 369.546L539.385 363.734L540.378 363.734L540.379 369.546ZM539.304 362.193C539.304 362.032 539.352 361.896 539.449 361.785C539.549 361.674 539.696 361.618 539.889 361.618C540.082 361.618 540.229 361.673 540.33 361.784C540.43 361.895 540.48 362.031 540.48 362.193C540.48 362.354 540.43 362.488 540.33 362.595C540.229 362.703 540.083 362.757 539.889 362.757C539.696 362.757 539.549 362.703 539.449 362.596C539.352 362.488 539.304 362.354 539.304 362.193ZM542.913 363.734L542.946 364.464C543.39 363.905 543.97 363.626 544.686 363.626C545.914 363.626 546.534 364.318 546.545 365.704L546.545 369.545L545.552 369.545L545.551 365.699C545.547 365.28 545.451 364.97 545.261 364.77C545.074 364.569 544.783 364.469 544.385 364.469C544.063 364.469 543.78 364.555 543.537 364.727C543.293 364.899 543.103 365.125 542.967 365.404L542.968 369.545L541.974 369.545L541.973 363.734L542.913 363.734Z" fill="white"/>
<circle cx="487.5" cy="366.5" r="9.5" fill="#4000C7"/>
<circle cx="566.5" cy="91.5" r="9.5" fill="#4000C7"/>
<line x1="408" y1="366.5" x2="487" y2="366.5" stroke="#4000C7"/>
<line x1="408" y1="91.5" x2="560" y2="91.5" stroke="#4000C7"/>
</svg>
