<svg width="1152" height="587" viewBox="0 0 1152 587" fill="none" xmlns="http://www.w3.org/2000/svg">
<path d="M0 0H1152V587H0V0Z" fill="white" fill-opacity="0.01"/>
<path d="M330.269 319.436L330.63 315.891H334.272V316.726H331.396L331.182 318.664C331.53 318.459 331.925 318.356 332.368 318.356C333.016 318.356 333.53 318.571 333.911 319.001C334.292 319.427 334.482 320.005 334.482 320.734C334.482 321.467 334.284 322.045 333.887 322.468C333.493 322.888 332.941 323.098 332.231 323.098C331.603 323.098 331.09 322.924 330.693 322.575C330.296 322.227 330.07 321.745 330.015 321.13H330.869C330.924 321.537 331.069 321.844 331.304 322.053C331.538 322.258 331.847 322.36 332.231 322.36C332.651 322.36 332.98 322.217 333.218 321.931C333.459 321.644 333.579 321.249 333.579 320.744C333.579 320.269 333.449 319.888 333.188 319.602C332.931 319.312 332.588 319.167 332.158 319.167C331.764 319.167 331.455 319.253 331.23 319.426L330.991 319.621L330.269 319.436ZM337.754 323.098C337.038 323.098 336.455 322.863 336.006 322.395C335.557 321.923 335.332 321.293 335.332 320.505V320.339C335.332 319.815 335.431 319.348 335.63 318.938C335.832 318.524 336.112 318.202 336.47 317.971C336.831 317.736 337.222 317.619 337.642 317.619C338.328 317.619 338.862 317.845 339.243 318.298C339.624 318.75 339.814 319.398 339.814 320.241V320.617H336.235C336.248 321.138 336.4 321.56 336.689 321.882C336.982 322.201 337.354 322.36 337.803 322.36C338.122 322.36 338.392 322.295 338.613 322.165C338.835 322.035 339.028 321.862 339.194 321.647L339.746 322.077C339.303 322.757 338.639 323.098 337.754 323.098ZM337.642 318.361C337.277 318.361 336.971 318.495 336.724 318.762C336.476 319.025 336.323 319.396 336.265 319.875H338.911V319.807C338.885 319.348 338.761 318.993 338.54 318.742C338.319 318.488 338.019 318.361 337.642 318.361ZM342.983 322.36C343.306 322.36 343.587 322.263 343.828 322.067C344.069 321.872 344.202 321.628 344.229 321.335H345.083C345.067 321.638 344.963 321.926 344.771 322.199C344.578 322.473 344.321 322.691 343.999 322.854C343.68 323.016 343.341 323.098 342.983 323.098C342.264 323.098 341.691 322.858 341.265 322.38C340.841 321.898 340.63 321.241 340.63 320.407V320.256C340.63 319.742 340.724 319.284 340.913 318.884C341.102 318.483 341.372 318.173 341.724 317.951C342.078 317.73 342.497 317.619 342.979 317.619C343.571 317.619 344.062 317.797 344.453 318.151C344.847 318.506 345.057 318.967 345.083 319.533H344.229C344.202 319.191 344.072 318.911 343.838 318.693C343.607 318.472 343.32 318.361 342.979 318.361C342.52 318.361 342.163 318.527 341.909 318.859C341.659 319.188 341.533 319.665 341.533 320.29V320.461C341.533 321.07 341.659 321.538 341.909 321.867C342.16 322.196 342.518 322.36 342.983 322.36ZM347.319 319.006H347.998C348.424 318.999 348.76 318.887 349.004 318.669C349.248 318.451 349.37 318.156 349.37 317.785C349.37 316.952 348.955 316.535 348.125 316.535C347.734 316.535 347.422 316.647 347.188 316.872C346.956 317.093 346.841 317.388 346.841 317.756H345.938C345.938 317.193 346.143 316.726 346.553 316.354C346.966 315.98 347.49 315.793 348.125 315.793C348.796 315.793 349.321 315.97 349.702 316.325C350.083 316.68 350.273 317.173 350.273 317.805C350.273 318.114 350.173 318.413 349.971 318.703C349.772 318.993 349.5 319.209 349.155 319.353C349.546 319.476 349.847 319.681 350.059 319.968C350.273 320.254 350.381 320.604 350.381 321.018C350.381 321.656 350.173 322.162 349.756 322.536C349.339 322.91 348.797 323.098 348.13 323.098C347.463 323.098 346.919 322.917 346.499 322.556C346.082 322.194 345.874 321.717 345.874 321.125H346.782C346.782 321.499 346.904 321.799 347.148 322.023C347.393 322.248 347.72 322.36 348.13 322.36C348.566 322.36 348.9 322.246 349.131 322.019C349.362 321.791 349.478 321.464 349.478 321.037C349.478 320.624 349.351 320.306 349.097 320.085C348.843 319.864 348.477 319.75 347.998 319.743H347.319V319.006ZM354.59 323H353.682V316.979L351.86 317.648V316.828L354.448 315.856H354.59V323ZM361.895 323H357.236V322.351L359.697 319.616C360.062 319.203 360.312 318.868 360.449 318.61C360.589 318.35 360.659 318.081 360.659 317.805C360.659 317.434 360.547 317.129 360.322 316.892C360.098 316.654 359.798 316.535 359.424 316.535C358.975 316.535 358.625 316.664 358.374 316.921C358.127 317.175 358.003 317.53 358.003 317.985H357.1C357.1 317.331 357.31 316.802 357.729 316.398C358.153 315.995 358.717 315.793 359.424 315.793C360.085 315.793 360.607 315.967 360.991 316.315C361.375 316.66 361.567 317.121 361.567 317.697C361.567 318.397 361.121 319.23 360.229 320.197L358.325 322.263H361.895V323ZM363.389 323V318.415H362.554V317.717H363.389V317.175C363.389 316.608 363.54 316.171 363.843 315.861C364.146 315.552 364.574 315.397 365.127 315.397C365.335 315.397 365.542 315.425 365.747 315.48L365.698 316.213C365.545 316.184 365.382 316.169 365.21 316.169C364.917 316.169 364.691 316.255 364.531 316.428C364.372 316.597 364.292 316.841 364.292 317.16V317.717H365.42V318.415H364.292V323H363.389ZM317.085 327.891L319.409 333.691L321.733 327.891H322.949V335H322.012V332.231L322.1 329.243L319.766 335H319.048L316.719 329.258L316.812 332.231V335H315.874V327.891H317.085ZM326.655 335.098C325.939 335.098 325.356 334.863 324.907 334.395C324.458 333.923 324.233 333.293 324.233 332.505V332.339C324.233 331.815 324.333 331.348 324.531 330.938C324.733 330.524 325.013 330.202 325.371 329.971C325.732 329.736 326.123 329.619 326.543 329.619C327.23 329.619 327.764 329.845 328.145 330.298C328.525 330.75 328.716 331.398 328.716 332.241V332.617H325.137C325.15 333.138 325.301 333.56 325.591 333.882C325.884 334.201 326.255 334.36 326.704 334.36C327.023 334.36 327.293 334.295 327.515 334.165C327.736 334.035 327.93 333.862 328.096 333.647L328.647 334.077C328.205 334.757 327.541 335.098 326.655 335.098ZM326.543 330.361C326.178 330.361 325.872 330.495 325.625 330.762C325.378 331.025 325.225 331.396 325.166 331.875H327.812V331.807C327.786 331.348 327.663 330.993 327.441 330.742C327.22 330.488 326.921 330.361 326.543 330.361ZM332.319 330.527C332.183 330.505 332.035 330.493 331.875 330.493C331.283 330.493 330.881 330.745 330.669 331.25V335H329.766V329.717H330.645L330.659 330.327C330.955 329.855 331.375 329.619 331.919 329.619C332.095 329.619 332.228 329.642 332.319 329.688V330.527ZM332.842 332.314C332.842 331.491 333.032 330.837 333.413 330.352C333.794 329.863 334.299 329.619 334.927 329.619C335.571 329.619 336.074 329.847 336.436 330.303L336.479 329.717H337.305V334.873C337.305 335.557 337.101 336.095 336.694 336.489C336.291 336.883 335.747 337.08 335.063 337.08C334.683 337.08 334.31 336.999 333.945 336.836C333.581 336.673 333.302 336.45 333.11 336.167L333.579 335.625C333.966 336.104 334.44 336.343 335 336.343C335.439 336.343 335.781 336.219 336.025 335.972C336.273 335.724 336.396 335.376 336.396 334.927V334.473C336.035 334.889 335.542 335.098 334.917 335.098C334.299 335.098 333.797 334.849 333.413 334.351C333.032 333.853 332.842 333.174 332.842 332.314ZM333.75 332.417C333.75 333.013 333.872 333.481 334.116 333.823C334.36 334.162 334.702 334.331 335.142 334.331C335.711 334.331 336.13 334.072 336.396 333.555V331.143C336.12 330.638 335.705 330.386 335.151 330.386C334.712 330.386 334.368 330.557 334.121 330.898C333.874 331.24 333.75 331.746 333.75 332.417ZM340.864 335.098C340.148 335.098 339.565 334.863 339.116 334.395C338.667 333.923 338.442 333.293 338.442 332.505V332.339C338.442 331.815 338.542 331.348 338.74 330.938C338.942 330.524 339.222 330.202 339.58 329.971C339.941 329.736 340.332 329.619 340.752 329.619C341.439 329.619 341.973 329.845 342.354 330.298C342.734 330.75 342.925 331.398 342.925 332.241V332.617H339.346C339.359 333.138 339.51 333.56 339.8 333.882C340.093 334.201 340.464 334.36 340.913 334.36C341.232 334.36 341.502 334.295 341.724 334.165C341.945 334.035 342.139 333.862 342.305 333.647L342.856 334.077C342.414 334.757 341.75 335.098 340.864 335.098ZM340.752 330.361C340.387 330.361 340.081 330.495 339.834 330.762C339.587 331.025 339.434 331.396 339.375 331.875H342.021V331.807C341.995 331.348 341.872 330.993 341.65 330.742C341.429 330.488 341.13 330.361 340.752 330.361ZM348.574 334.36C348.896 334.36 349.178 334.263 349.419 334.067C349.66 333.872 349.793 333.628 349.819 333.335H350.674C350.658 333.638 350.553 333.926 350.361 334.199C350.169 334.473 349.912 334.691 349.59 334.854C349.271 335.016 348.932 335.098 348.574 335.098C347.855 335.098 347.282 334.858 346.855 334.38C346.432 333.898 346.221 333.241 346.221 332.407V332.256C346.221 331.742 346.315 331.284 346.504 330.884C346.693 330.483 346.963 330.173 347.314 329.951C347.669 329.73 348.088 329.619 348.569 329.619C349.162 329.619 349.653 329.797 350.044 330.151C350.438 330.506 350.648 330.967 350.674 331.533H349.819C349.793 331.191 349.663 330.911 349.429 330.693C349.198 330.472 348.911 330.361 348.569 330.361C348.11 330.361 347.754 330.527 347.5 330.859C347.249 331.188 347.124 331.665 347.124 332.29V332.461C347.124 333.07 347.249 333.538 347.5 333.867C347.751 334.196 348.109 334.36 348.574 334.36ZM351.45 332.31C351.45 331.792 351.551 331.326 351.753 330.913C351.958 330.5 352.241 330.181 352.603 329.956C352.967 329.731 353.382 329.619 353.848 329.619C354.567 329.619 355.148 329.868 355.591 330.366C356.037 330.864 356.26 331.527 356.26 332.354V332.417C356.26 332.931 356.16 333.394 355.962 333.804C355.767 334.211 355.485 334.528 355.117 334.756C354.753 334.984 354.333 335.098 353.857 335.098C353.141 335.098 352.56 334.849 352.114 334.351C351.672 333.853 351.45 333.193 351.45 332.373V332.31ZM352.358 332.417C352.358 333.003 352.493 333.473 352.764 333.828C353.037 334.183 353.402 334.36 353.857 334.36C354.316 334.36 354.681 334.181 354.951 333.823C355.221 333.462 355.356 332.957 355.356 332.31C355.356 331.73 355.218 331.261 354.941 330.903C354.668 330.542 354.303 330.361 353.848 330.361C353.402 330.361 353.042 330.539 352.769 330.894C352.495 331.248 352.358 331.756 352.358 332.417ZM358.242 329.717L358.267 330.303C358.654 329.847 359.176 329.619 359.834 329.619C360.573 329.619 361.076 329.902 361.343 330.469C361.519 330.215 361.746 330.01 362.026 329.854C362.31 329.697 362.643 329.619 363.027 329.619C364.186 329.619 364.775 330.233 364.795 331.46V335H363.892V331.514C363.892 331.136 363.805 330.854 363.633 330.669C363.46 330.48 363.171 330.386 362.764 330.386C362.428 330.386 362.15 330.487 361.929 330.688C361.707 330.887 361.579 331.156 361.543 331.494V335H360.635V331.538C360.635 330.77 360.259 330.386 359.507 330.386C358.914 330.386 358.509 330.638 358.291 331.143V335H357.388V329.717H358.242ZM367.012 329.717L367.036 330.303C367.424 329.847 367.946 329.619 368.604 329.619C369.342 329.619 369.845 329.902 370.112 330.469C370.288 330.215 370.516 330.01 370.796 329.854C371.079 329.697 371.413 329.619 371.797 329.619C372.956 329.619 373.545 330.233 373.564 331.46V335H372.661V331.514C372.661 331.136 372.575 330.854 372.402 330.669C372.23 330.48 371.94 330.386 371.533 330.386C371.198 330.386 370.92 330.487 370.698 330.688C370.477 330.887 370.348 331.156 370.312 331.494V335H369.404V331.538C369.404 330.77 369.028 330.386 368.276 330.386C367.684 330.386 367.279 330.638 367.061 331.143V335H366.157V329.717H367.012ZM375.913 335H375.01V329.717H375.913V335ZM374.937 328.315C374.937 328.169 374.98 328.045 375.068 327.944C375.16 327.843 375.293 327.793 375.469 327.793C375.645 327.793 375.778 327.843 375.869 327.944C375.96 328.045 376.006 328.169 376.006 328.315C376.006 328.462 375.96 328.584 375.869 328.682C375.778 328.779 375.645 328.828 375.469 328.828C375.293 328.828 375.16 328.779 375.068 328.682C374.98 328.584 374.937 328.462 374.937 328.315ZM378.589 328.438V329.717H379.575V330.415H378.589V333.691C378.589 333.903 378.633 334.062 378.721 334.17C378.809 334.274 378.958 334.326 379.17 334.326C379.274 334.326 379.417 334.307 379.6 334.268V335C379.362 335.065 379.131 335.098 378.906 335.098C378.503 335.098 378.198 334.976 377.993 334.731C377.788 334.487 377.686 334.141 377.686 333.691V330.415H376.724V329.717H377.686V328.438H378.589Z" fill="black"/>
<path d="M332.048 44H331.14V37.9795L329.318 38.6484V37.8281L331.906 36.8564H332.048V44ZM334.567 41.3145C334.567 40.5039 334.759 39.8529 335.144 39.3613C335.528 38.8665 336.031 38.6191 336.652 38.6191C337.271 38.6191 337.761 38.8307 338.122 39.2539V36.5H339.025V44H338.195L338.151 43.4336C337.79 43.8763 337.287 44.0977 336.643 44.0977C336.031 44.0977 335.531 43.847 335.144 43.3457C334.759 42.8444 334.567 42.1901 334.567 41.3828V41.3145ZM335.471 41.417C335.471 42.016 335.594 42.4847 335.842 42.8232C336.089 43.1618 336.431 43.3311 336.867 43.3311C337.44 43.3311 337.858 43.0739 338.122 42.5596V40.1328C337.852 39.6348 337.437 39.3857 336.877 39.3857C336.434 39.3857 336.089 39.5566 335.842 39.8984C335.594 40.2402 335.471 40.7464 335.471 41.417ZM342.624 44.0977C341.908 44.0977 341.325 43.8633 340.876 43.3945C340.427 42.9225 340.202 42.2926 340.202 41.5049V41.3389C340.202 40.8148 340.301 40.3477 340.5 39.9375C340.702 39.5241 340.982 39.2018 341.34 38.9707C341.701 38.7363 342.092 38.6191 342.512 38.6191C343.199 38.6191 343.732 38.8454 344.113 39.2979C344.494 39.7503 344.685 40.3981 344.685 41.2412V41.6172H341.105C341.118 42.138 341.27 42.5596 341.56 42.8818C341.853 43.2008 342.224 43.3604 342.673 43.3604C342.992 43.3604 343.262 43.2952 343.483 43.165C343.705 43.0348 343.898 42.8623 344.064 42.6475L344.616 43.0771C344.174 43.7575 343.509 44.0977 342.624 44.0977ZM342.512 39.3613C342.147 39.3613 341.841 39.4948 341.594 39.7617C341.346 40.0254 341.193 40.3965 341.135 40.875H343.781V40.8066C343.755 40.3477 343.632 39.9928 343.41 39.7422C343.189 39.4883 342.889 39.3613 342.512 39.3613ZM349.953 38.7461C349.953 39.1009 349.859 39.4167 349.67 39.6934C349.484 39.9701 349.232 40.1865 348.913 40.3428C349.284 40.5023 349.577 40.735 349.792 41.041C350.01 41.347 350.119 41.6937 350.119 42.0811C350.119 42.6963 349.911 43.1862 349.494 43.5508C349.081 43.9154 348.535 44.0977 347.858 44.0977C347.175 44.0977 346.626 43.9154 346.213 43.5508C345.803 43.1829 345.598 42.693 345.598 42.0811C345.598 41.6969 345.702 41.3503 345.91 41.041C346.122 40.7318 346.413 40.4974 346.784 40.3379C346.468 40.1816 346.219 39.9652 346.037 39.6885C345.855 39.4118 345.764 39.0977 345.764 38.7461C345.764 38.1471 345.956 37.6719 346.34 37.3203C346.724 36.9688 347.23 36.793 347.858 36.793C348.483 36.793 348.988 36.9688 349.372 37.3203C349.759 37.6719 349.953 38.1471 349.953 38.7461ZM349.216 42.0615C349.216 41.6644 349.089 41.3405 348.835 41.0898C348.584 40.8392 348.256 40.7139 347.849 40.7139C347.442 40.7139 347.115 40.8376 346.867 41.085C346.623 41.3324 346.501 41.6579 346.501 42.0615C346.501 42.4652 346.62 42.7826 346.857 43.0137C347.098 43.2448 347.432 43.3604 347.858 43.3604C348.282 43.3604 348.614 43.2448 348.854 43.0137C349.095 42.7793 349.216 42.4619 349.216 42.0615ZM347.858 37.5352C347.504 37.5352 347.215 37.6458 346.994 37.8672C346.776 38.0853 346.667 38.3831 346.667 38.7607C346.667 39.1221 346.774 39.415 346.989 39.6396C347.207 39.861 347.497 39.9717 347.858 39.9717C348.22 39.9717 348.508 39.861 348.723 39.6396C348.941 39.415 349.05 39.1221 349.05 38.7607C349.05 38.3994 348.938 38.1048 348.713 37.877C348.488 37.6491 348.203 37.5352 347.858 37.5352ZM355.847 37.3984L352.902 44H351.955L354.89 37.6328H351.042V36.8906H355.847V37.3984ZM361.53 44H356.872V43.3506L359.333 40.6162C359.698 40.2028 359.948 39.8675 360.085 39.6104C360.225 39.3499 360.295 39.0814 360.295 38.8047C360.295 38.4336 360.183 38.1292 359.958 37.8916C359.733 37.654 359.434 37.5352 359.06 37.5352C358.61 37.5352 358.26 37.6637 358.01 37.9209C357.762 38.1748 357.639 38.5296 357.639 38.9854H356.735C356.735 38.3311 356.945 37.8021 357.365 37.3984C357.788 36.9948 358.353 36.793 359.06 36.793C359.72 36.793 360.243 36.9671 360.627 37.3154C361.011 37.6605 361.203 38.1211 361.203 38.6973C361.203 39.3971 360.757 40.2305 359.865 41.1973L357.961 43.2627H361.53V44ZM367.053 41.417C367.053 42.2243 366.867 42.8737 366.496 43.3652C366.125 43.8535 365.627 44.0977 365.002 44.0977C364.335 44.0977 363.819 43.8617 363.454 43.3896L363.41 44H362.58V36.5H363.483V39.2979C363.848 38.8454 364.351 38.6191 364.992 38.6191C365.633 38.6191 366.136 38.8617 366.501 39.3467C366.869 39.8317 367.053 40.4958 367.053 41.3389V41.417ZM366.149 41.3145C366.149 40.6992 366.031 40.224 365.793 39.8887C365.555 39.5534 365.214 39.3857 364.768 39.3857C364.172 39.3857 363.744 39.6624 363.483 40.2158V42.501C363.76 43.0544 364.191 43.3311 364.777 43.3311C365.21 43.3311 365.547 43.1634 365.788 42.8281C366.029 42.4928 366.149 41.9883 366.149 41.3145ZM333.291 49.31H331.481V48H330.671V49.31H328.881V49.97H333.291V49.31ZM331.081 53.99C330.401 53.99 329.921 53.42 329.921 52.63C329.921 51.84 330.401 51.27 331.081 51.27C331.741 51.27 332.231 51.84 332.231 52.63C332.231 53.42 331.741 53.99 331.081 53.99ZM331.081 50.58C329.991 50.58 329.201 51.42 329.201 52.63C329.201 53.84 329.991 54.68 331.081 54.68C332.161 54.68 332.951 53.84 332.951 52.63C332.951 51.42 332.161 50.58 331.081 50.58ZM334.041 51.23H333.041V51.92H334.041V56.29H334.821V47.97H334.041V51.23ZM335.731 47.77V56.74H336.511V47.77H335.731ZM339.361 49.3H342.621V48.62H338.541V54.54H339.231C340.931 54.54 342.011 54.48 343.311 54.24L343.211 53.56C342.001 53.79 340.951 53.85 339.361 53.85V49.3ZM344.661 47.77V51.02H342.091V51.7H344.661V56.76H345.481V47.77H344.661ZM357.49 51.19C355.86 50.95 354.26 49.84 354.26 48.59V48.09H353.4V48.59C353.4 49.87 351.82 50.95 350.19 51.19L350.52 51.85C351.92 51.61 353.27 50.84 353.83 49.75C354.41 50.83 355.76 51.61 357.15 51.85L357.49 51.19ZM357.88 52.82H349.78V53.5H353.4V56.75H354.22V53.5H357.89L357.88 52.82ZM363.759 50.1V50.77H365.529V53.12H366.359V47.78H365.529V50.1H363.759ZM364.259 52.14C362.959 51.68 362.079 50.55 362.079 49.4V49.09H364.049V48.43H359.259V49.09H361.259V49.4C361.259 50.69 360.339 51.9 358.999 52.39L359.429 53.04C360.479 52.64 361.309 51.8 361.689 50.76C362.079 51.68 362.849 52.42 363.849 52.78L364.259 52.14ZM363.399 56.1C362.049 56.1 361.229 55.72 361.229 55.07C361.229 54.42 362.049 54.03 363.399 54.03C364.749 54.03 365.569 54.42 365.569 55.07C365.569 55.72 364.749 56.1 363.399 56.1ZM363.399 53.4C361.559 53.4 360.409 54.01 360.409 55.07C360.409 56.13 361.559 56.74 363.399 56.74C365.239 56.74 366.389 56.13 366.389 55.07C366.389 54.01 365.239 53.4 363.399 53.4Z" fill="black"/>
<rect x="386" y="302" width="88" height="27" rx="13.5" fill="#7D7D7D"/>
<path d="M406.241 312.408V313.279H408.204V314.852H406.241V315.723H408.204V318.193H409.283V309.314H408.204V312.408H406.241ZM406.241 310.731H403.563V309.288H402.497V310.731H399.715V311.589H406.241V310.731ZM401.392 314.449C401.392 313.63 402.055 313.071 403.017 313.071C403.979 313.071 404.642 313.63 404.642 314.449C404.642 315.281 403.979 315.853 403.017 315.853C402.055 315.853 401.392 315.281 401.392 314.449ZM405.656 314.449C405.656 313.123 404.564 312.239 403.017 312.239C401.47 312.239 400.378 313.123 400.378 314.449C400.378 315.788 401.47 316.685 403.017 316.685C404.564 316.685 405.656 315.788 405.656 314.449ZM402.861 319.831V317.439H401.795V320.702H409.556V319.831H402.861ZM415.093 311.55H417.212V310.679H411.804V311.55H414.066V312.46C414.066 314.826 413.195 316.815 411.531 317.751L412.181 318.557C413.39 317.855 414.209 316.594 414.599 315.008C415.015 316.386 415.821 317.517 416.965 318.154L417.589 317.335C415.938 316.477 415.093 314.592 415.093 312.46V311.55ZM420.566 309.288V314.007H419.032V309.561H418.031V320.39H419.032V314.891H420.566V320.962H421.593V309.288H420.566ZM436.4 309.314H435.334V317.842H436.4V309.314ZM433.956 315.333C432.24 314.761 431.031 313.344 431.031 311.771V311.134H433.67V310.276H427.274V311.134H429.939V311.771C429.939 313.435 428.756 314.956 426.988 315.567L427.547 316.399C428.925 315.905 430.004 314.852 430.498 313.526C431.031 314.748 432.097 315.71 433.436 316.178L433.956 315.333ZM429.965 319.831V317.036H428.899V320.702H436.751V319.831H429.965ZM446.123 313.344H447.605V316.685H448.632V309.301H447.605V312.473H446.123V309.522H445.109V316.256H446.123V313.344ZM444.641 310.692H442.223V309.392H441.17V310.692H438.726V311.537H444.654L444.641 310.692ZM440.169 314.137C440.169 313.422 440.78 312.941 441.703 312.941C442.613 312.941 443.237 313.422 443.237 314.137C443.237 314.865 442.613 315.346 441.703 315.346C440.78 315.346 440.169 314.865 440.169 314.137ZM444.186 314.137C444.186 312.941 443.172 312.148 441.703 312.148C440.234 312.148 439.207 312.941 439.207 314.137C439.207 315.359 440.234 316.139 441.703 316.139C443.172 316.139 444.186 315.359 444.186 314.137ZM444.797 320.13C443.016 320.13 441.95 319.688 441.95 318.921C441.95 318.141 443.016 317.699 444.797 317.699C446.565 317.699 447.631 318.141 447.631 318.921C447.631 319.688 446.565 320.13 444.797 320.13ZM444.797 316.88C442.366 316.88 440.897 317.608 440.897 318.921C440.897 320.221 442.366 320.949 444.797 320.949C447.228 320.949 448.697 320.221 448.697 318.921C448.697 317.608 447.228 316.88 444.797 316.88ZM451.725 314.059C453.636 313.825 455.391 312.967 456.028 311.68C456.678 312.967 458.42 313.825 460.331 314.059L460.708 313.214C458.667 312.98 456.808 311.979 456.717 310.692H460.344V309.834H451.725V310.692H455.339C455.248 311.979 453.389 312.98 451.348 313.214L451.725 314.059ZM458.927 318.895C458.927 319.675 457.835 320.13 456.015 320.13C454.182 320.13 453.103 319.675 453.103 318.895C453.103 318.115 454.182 317.673 456.015 317.673C457.835 317.673 458.927 318.115 458.927 318.895ZM461.293 315.619V314.761H450.75V315.619H455.482V316.867C453.311 316.971 452.024 317.686 452.024 318.895C452.024 320.221 453.532 320.949 456.028 320.949C458.511 320.949 460.006 320.221 460.006 318.895C460.006 317.686 458.732 316.971 456.561 316.867V315.619H461.293Z" fill="white"/>
<rect x="451.031" y="367.209" width="18" height="41" rx="5" transform="rotate(-64.2277 451.031 367.209)" fill="black"/>
<rect x="370.031" y="211.209" width="18" height="41" rx="5" transform="rotate(-64.2277 370.031 211.209)" fill="black"/>
<rect x="370.031" y="89.209" width="18" height="41" rx="5" transform="rotate(-64.2277 370.031 89.209)" fill="black"/>
<path d="M447.739 355.626L456.675 356.094L453.662 362.333L447.739 355.626Z" fill="black"/>
<path d="M366.739 199.626L375.675 200.094L372.662 206.333L366.739 199.626Z" fill="black"/>
<path d="M366.739 77.6264L375.675 78.0939L372.662 84.333L366.739 77.6264Z" fill="black"/>
<path d="M464.791 361.219L464.535 361.811C465.137 361.545 465.764 361.569 466.415 361.884C467.147 362.237 467.51 362.758 467.503 363.447C467.799 363.279 468.122 363.185 468.475 363.164C468.83 363.145 469.198 363.227 469.578 363.411C470.726 363.965 471.016 364.855 470.449 366.08L468.756 369.586L467.861 369.154L469.528 365.701C469.709 365.327 469.758 365.007 469.676 364.74C469.595 364.471 469.353 364.239 468.95 364.044C468.618 363.884 468.294 363.851 467.978 363.945C467.664 364.036 467.408 364.24 467.211 364.558L465.534 368.031L464.635 367.597L466.29 364.167C466.658 363.406 466.469 362.846 465.724 362.487C465.137 362.203 464.615 362.259 464.158 362.655L462.313 366.476L461.418 366.044L463.945 360.81L464.791 361.219ZM473.341 371.8C473.339 371.672 473.386 371.468 473.481 371.188C472.857 371.419 472.256 371.396 471.679 371.117C471.163 370.868 470.809 370.518 470.617 370.068C470.43 369.615 470.444 369.165 470.661 368.717C470.924 368.172 471.334 367.849 471.892 367.749C472.454 367.646 473.111 367.777 473.862 368.139L474.733 368.56L474.931 368.149C475.082 367.836 475.108 367.542 475.01 367.268C474.913 366.991 474.683 366.764 474.319 366.588C473.999 366.434 473.693 366.386 473.399 366.443C473.105 366.499 472.903 366.642 472.792 366.871L471.893 366.437C472.019 366.176 472.232 365.969 472.533 365.816C472.838 365.661 473.183 365.589 473.567 365.599C473.955 365.612 474.339 365.71 474.72 365.893C475.323 366.184 475.722 366.564 475.917 367.032C476.114 367.497 476.092 367.997 475.849 368.532L474.686 370.941C474.454 371.421 474.331 371.833 474.317 372.176L474.279 372.253L473.341 371.8ZM472.185 370.401C472.466 370.537 472.767 370.593 473.088 370.569C473.41 370.545 473.683 370.445 473.908 370.267L474.427 369.193L473.725 368.855C472.629 368.325 471.926 368.381 471.616 369.023C471.481 369.304 471.468 369.568 471.579 369.816C471.69 370.065 471.892 370.26 472.185 370.401ZM476.47 373.311L475.576 372.879L478.102 367.646L478.997 368.078L476.47 373.311ZM478.7 366.223C478.77 366.078 478.873 365.976 479.008 365.918C479.147 365.862 479.303 365.876 479.477 365.96C479.651 366.044 479.759 366.158 479.801 366.301C479.843 366.445 479.829 366.589 479.759 366.734C479.689 366.879 479.586 366.978 479.449 367.031C479.312 367.085 479.156 367.069 478.982 366.985C478.808 366.901 478.699 366.789 478.655 366.648C478.615 366.51 478.63 366.368 478.7 366.223ZM481.28 369.18L480.992 369.852C481.634 369.542 482.278 369.543 482.923 369.854C484.029 370.388 484.286 371.281 483.693 372.534L482.023 375.992L481.128 375.56L482.8 372.097C482.979 371.718 483.027 371.397 482.943 371.134C482.863 370.873 482.643 370.655 482.285 370.483C481.995 370.343 481.703 370.297 481.409 370.346C481.115 370.395 480.846 370.515 480.602 370.708L478.802 374.437L477.907 374.005L480.434 368.771L481.28 369.18Z" fill="white"/>
<path d="M383.791 205.219L383.535 205.811C384.137 205.545 384.764 205.569 385.415 205.884C386.147 206.237 386.51 206.758 386.503 207.447C386.799 207.279 387.122 207.185 387.475 207.164C387.83 207.145 388.198 207.227 388.578 207.411C389.726 207.965 390.016 208.855 389.449 210.08L387.756 213.586L386.861 213.154L388.528 209.701C388.709 209.327 388.758 209.007 388.676 208.74C388.595 208.471 388.353 208.239 387.95 208.044C387.618 207.884 387.294 207.851 386.978 207.945C386.664 208.036 386.408 208.24 386.211 208.558L384.534 212.031L383.635 211.597L385.29 208.167C385.658 207.406 385.469 206.846 384.724 206.487C384.137 206.203 383.615 206.259 383.158 206.655L381.313 210.476L380.418 210.044L382.945 204.81L383.791 205.219ZM392.341 215.8C392.339 215.672 392.386 215.468 392.481 215.188C391.857 215.419 391.256 215.396 390.679 215.117C390.163 214.868 389.809 214.518 389.617 214.068C389.43 213.615 389.444 213.165 389.661 212.717C389.924 212.172 390.334 211.849 390.892 211.749C391.454 211.646 392.111 211.777 392.862 212.139L393.733 212.56L393.931 212.149C394.082 211.836 394.108 211.542 394.01 211.268C393.913 210.991 393.683 210.764 393.319 210.588C392.999 210.434 392.693 210.386 392.399 210.443C392.105 210.499 391.903 210.642 391.792 210.871L390.893 210.437C391.019 210.176 391.232 209.969 391.533 209.816C391.838 209.661 392.183 209.589 392.567 209.599C392.955 209.612 393.339 209.71 393.72 209.893C394.323 210.184 394.722 210.564 394.917 211.032C395.114 211.497 395.092 211.997 394.849 212.532L393.686 214.941C393.454 215.421 393.331 215.833 393.317 216.176L393.279 216.253L392.341 215.8ZM391.185 214.401C391.466 214.537 391.767 214.593 392.088 214.569C392.41 214.545 392.683 214.445 392.908 214.267L393.427 213.193L392.725 212.855C391.629 212.325 390.926 212.381 390.616 213.023C390.481 213.304 390.468 213.568 390.579 213.816C390.69 214.065 390.892 214.26 391.185 214.401ZM395.47 217.311L394.576 216.879L397.102 211.646L397.997 212.078L395.47 217.311ZM397.7 210.223C397.77 210.078 397.873 209.976 398.008 209.918C398.147 209.862 398.303 209.876 398.477 209.96C398.651 210.044 398.759 210.158 398.801 210.301C398.843 210.445 398.829 210.589 398.759 210.734C398.689 210.879 398.586 210.978 398.449 211.031C398.312 211.085 398.156 211.069 397.982 210.985C397.808 210.901 397.699 210.789 397.655 210.648C397.615 210.51 397.63 210.368 397.7 210.223ZM400.28 213.18L399.992 213.852C400.634 213.542 401.278 213.543 401.923 213.854C403.029 214.388 403.286 215.281 402.693 216.534L401.023 219.992L400.128 219.56L401.8 216.097C401.979 215.718 402.027 215.397 401.943 215.134C401.863 214.873 401.643 214.655 401.285 214.483C400.995 214.343 400.703 214.297 400.409 214.346C400.115 214.395 399.846 214.515 399.602 214.708L397.802 218.437L396.907 218.005L399.434 212.771L400.28 213.18Z" fill="white"/>
<path d="M383.791 83.219L383.535 83.8111C384.137 83.5449 384.764 83.5691 385.415 83.8836C386.147 84.237 386.51 84.7581 386.503 85.4468C386.799 85.2794 387.122 85.1852 387.475 85.1643C387.83 85.145 388.198 85.2272 388.578 85.4109C389.726 85.9651 390.016 86.8548 389.449 88.0798L387.756 91.5865L386.861 91.1544L388.528 87.7009C388.709 87.3269 388.758 87.0067 388.676 86.7404C388.595 86.4708 388.353 86.2388 387.95 86.0442C387.618 85.8838 387.294 85.8507 386.978 85.9447C386.664 86.0355 386.408 86.2401 386.211 86.5583L384.534 90.0311L383.635 89.5968L385.29 86.1675C385.658 85.4065 385.469 84.8461 384.724 84.4865C384.137 84.2031 383.615 84.2592 383.158 84.6547L381.313 88.4758L380.418 88.0438L382.945 82.8103L383.791 83.219ZM392.341 93.8003C392.339 93.6723 392.386 93.4682 392.481 93.1882C391.857 93.4195 391.256 93.3958 390.679 93.1171C390.163 92.868 389.809 92.5181 389.617 92.0676C389.43 91.6153 389.444 91.1651 389.661 90.7169C389.924 90.172 390.334 89.8492 390.892 89.7486C391.454 89.6463 392.111 89.7766 392.862 90.1393L393.733 90.5597L393.931 90.1485C394.082 89.8358 394.108 89.5423 394.01 89.2682C393.913 88.9909 393.683 88.7643 393.319 88.5883C392.999 88.4342 392.693 88.3856 392.399 88.4425C392.105 88.4994 391.903 88.6424 391.792 88.8713L390.893 88.4369C391.019 88.1757 391.232 87.9686 391.533 87.8155C391.838 87.6607 392.183 87.5887 392.567 87.5994C392.955 87.6116 393.339 87.7096 393.72 87.8933C394.323 88.1845 394.722 88.5641 394.917 89.0323C395.114 89.4972 395.092 89.9971 394.849 90.5322L393.686 92.9409C393.454 93.4214 393.331 93.8331 393.317 94.176L393.279 94.2534L392.341 93.8003ZM391.185 92.4014C391.466 92.5369 391.767 92.5927 392.088 92.5691C392.41 92.5454 392.683 92.4447 392.908 92.2671L393.427 91.1933L392.725 90.8547C391.629 90.3253 390.926 90.3815 390.616 91.0232C390.481 91.3037 390.468 91.5681 390.579 91.8164C390.69 92.0647 390.892 92.2597 391.185 92.4014ZM395.47 95.3113L394.576 94.8793L397.102 89.6458L397.997 90.0779L395.47 95.3113ZM397.7 88.2226C397.77 88.0775 397.873 87.976 398.008 87.9181C398.147 87.8617 398.303 87.8756 398.477 87.9596C398.651 88.0437 398.759 88.1575 398.801 88.3011C398.843 88.4446 398.829 88.589 398.759 88.7341C398.689 88.8792 398.586 88.9783 398.449 89.0314C398.312 89.0846 398.156 89.0691 397.982 88.985C397.808 88.901 397.699 88.7888 397.655 88.6484C397.615 88.5097 397.63 88.3677 397.7 88.2226ZM400.28 91.1801L399.992 91.852C400.634 91.542 401.278 91.5427 401.923 91.8541C403.029 92.3881 403.286 93.2814 402.693 94.5339L401.023 97.9923L400.128 97.5602L401.8 94.0971C401.979 93.7182 402.027 93.3973 401.943 93.1342C401.863 92.8726 401.643 92.6555 401.285 92.4827C400.995 92.3425 400.703 92.2969 400.409 92.3458C400.115 92.3948 399.846 92.5154 399.602 92.7077L397.802 96.4369L396.907 96.0049L399.434 90.7714L400.28 91.1801Z" fill="white"/>
<circle cx="104.5" cy="350.5" r="9.5" fill="#4000C7"/>
<circle cx="104.5" cy="194.5" r="9.5" fill="#4000C7"/>
<circle cx="104.5" cy="72.5" r="9.5" fill="#4000C7"/>
<circle cx="184.5" cy="350.5" r="9.5" fill="#4000C7"/>
<circle cx="184.5" cy="194.5" r="9.5" fill="#4000C7"/>
<circle cx="184.5" cy="72.5" r="9.5" fill="#4000C7"/>
<circle cx="265.5" cy="350.5" r="9.5" fill="#4000C7"/>
<circle cx="265.5" cy="194.5" r="9.5" fill="#4000C7"/>
<circle cx="347.5" cy="194.5" r="9.5" fill="#4000C7"/>
<circle cx="347.5" cy="350.5" r="9.5" fill="#4000C7"/>
<circle cx="429.5" cy="350.5" r="9" fill="white" stroke="#4000C7" stroke-dasharray="2 2"/>
<circle cx="265.5" cy="72.5" r="9.5" fill="#4000C7"/>
<circle cx="347.5" cy="72.5" r="9.5" fill="#4000C7"/>
<line x1="111" y1="350.5" x2="420" y2="350.5" stroke="#4000C7"/>
<line x1="108" y1="194.5" x2="344" y2="194.5" stroke="#4000C7"/>
<line x1="108" y1="72.5" x2="344" y2="72.5" stroke="#4000C7"/>
<path d="M412.665 458H411.762V450.5H412.665V458ZM413.876 455.31C413.876 454.792 413.977 454.326 414.179 453.913C414.384 453.5 414.667 453.181 415.028 452.956C415.393 452.731 415.808 452.619 416.273 452.619C416.993 452.619 417.574 452.868 418.017 453.366C418.463 453.864 418.686 454.527 418.686 455.354V455.417C418.686 455.931 418.586 456.394 418.388 456.804C418.192 457.211 417.911 457.528 417.543 457.756C417.178 457.984 416.758 458.098 416.283 458.098C415.567 458.098 414.986 457.849 414.54 457.351C414.097 456.853 413.876 456.193 413.876 455.373V455.31ZM414.784 455.417C414.784 456.003 414.919 456.473 415.189 456.828C415.463 457.183 415.827 457.36 416.283 457.36C416.742 457.36 417.107 457.181 417.377 456.823C417.647 456.462 417.782 455.957 417.782 455.31C417.782 454.73 417.644 454.261 417.367 453.903C417.094 453.542 416.729 453.361 416.273 453.361C415.827 453.361 415.468 453.539 415.194 453.894C414.921 454.248 414.784 454.756 414.784 455.417ZM419.604 455.314C419.604 454.491 419.794 453.837 420.175 453.352C420.556 452.863 421.06 452.619 421.688 452.619C422.333 452.619 422.836 452.847 423.197 453.303L423.241 452.717H424.066V457.873C424.066 458.557 423.863 459.095 423.456 459.489C423.052 459.883 422.509 460.08 421.825 460.08C421.444 460.08 421.072 459.999 420.707 459.836C420.342 459.673 420.064 459.45 419.872 459.167L420.341 458.625C420.728 459.104 421.202 459.343 421.762 459.343C422.201 459.343 422.543 459.219 422.787 458.972C423.035 458.724 423.158 458.376 423.158 457.927V457.473C422.797 457.889 422.304 458.098 421.679 458.098C421.06 458.098 420.559 457.849 420.175 457.351C419.794 456.853 419.604 456.174 419.604 455.314ZM420.512 455.417C420.512 456.013 420.634 456.481 420.878 456.823C421.122 457.162 421.464 457.331 421.903 457.331C422.473 457.331 422.891 457.072 423.158 456.555V454.143C422.882 453.638 422.466 453.386 421.913 453.386C421.474 453.386 421.13 453.557 420.883 453.898C420.635 454.24 420.512 454.746 420.512 455.417ZM426.415 458H425.512V452.717H426.415V458ZM425.438 451.315C425.438 451.169 425.482 451.045 425.57 450.944C425.661 450.843 425.795 450.793 425.971 450.793C426.146 450.793 426.28 450.843 426.371 450.944C426.462 451.045 426.508 451.169 426.508 451.315C426.508 451.462 426.462 451.584 426.371 451.682C426.28 451.779 426.146 451.828 425.971 451.828C425.795 451.828 425.661 451.779 425.57 451.682C425.482 451.584 425.438 451.462 425.438 451.315ZM428.72 452.717L428.749 453.381C429.153 452.873 429.68 452.619 430.331 452.619C431.448 452.619 432.011 453.249 432.021 454.509V458H431.117V454.504C431.114 454.123 431.026 453.841 430.854 453.659C430.684 453.477 430.419 453.386 430.058 453.386C429.765 453.386 429.507 453.464 429.286 453.62C429.065 453.776 428.892 453.981 428.769 454.235V458H427.865V452.717H428.72ZM433.402 457.526C433.402 457.37 433.448 457.24 433.539 457.136C433.633 457.032 433.773 456.979 433.959 456.979C434.145 456.979 434.285 457.032 434.379 457.136C434.477 457.24 434.525 457.37 434.525 457.526C434.525 457.676 434.477 457.801 434.379 457.902C434.285 458.003 434.145 458.054 433.959 458.054C433.773 458.054 433.633 458.003 433.539 457.902C433.448 457.801 433.402 457.676 433.402 457.526ZM436.952 452.717V458.61C436.952 459.626 436.492 460.134 435.57 460.134C435.372 460.134 435.188 460.104 435.019 460.046V459.323C435.123 459.349 435.259 459.362 435.429 459.362C435.631 459.362 435.784 459.307 435.888 459.196C435.995 459.089 436.049 458.9 436.049 458.63V452.717H436.952ZM435.956 451.315C435.956 451.172 436 451.05 436.088 450.949C436.179 450.845 436.311 450.793 436.483 450.793C436.659 450.793 436.793 450.843 436.884 450.944C436.975 451.045 437.021 451.169 437.021 451.315C437.021 451.462 436.975 451.584 436.884 451.682C436.793 451.779 436.659 451.828 436.483 451.828C436.308 451.828 436.176 451.779 436.088 451.682C436 451.584 435.956 451.462 435.956 451.315ZM441.488 456.599C441.488 456.354 441.396 456.166 441.21 456.032C441.028 455.896 440.707 455.778 440.248 455.681C439.792 455.583 439.429 455.466 439.159 455.329C438.892 455.192 438.694 455.03 438.563 454.841C438.437 454.652 438.373 454.427 438.373 454.167C438.373 453.734 438.555 453.368 438.92 453.068C439.288 452.769 439.757 452.619 440.326 452.619C440.925 452.619 441.41 452.774 441.781 453.083C442.156 453.392 442.343 453.788 442.343 454.27H441.435C441.435 454.022 441.329 453.809 441.117 453.63C440.909 453.451 440.645 453.361 440.326 453.361C439.997 453.361 439.74 453.433 439.555 453.576C439.369 453.719 439.276 453.907 439.276 454.138C439.276 454.356 439.363 454.52 439.535 454.631C439.708 454.742 440.019 454.847 440.468 454.948C440.92 455.049 441.286 455.17 441.566 455.31C441.846 455.45 442.053 455.619 442.187 455.817C442.323 456.013 442.392 456.252 442.392 456.535C442.392 457.007 442.203 457.386 441.825 457.673C441.448 457.956 440.958 458.098 440.355 458.098C439.932 458.098 439.558 458.023 439.232 457.873C438.907 457.723 438.651 457.515 438.466 457.248C438.284 456.978 438.192 456.687 438.192 456.374H439.096C439.112 456.677 439.232 456.918 439.457 457.097C439.685 457.272 439.984 457.36 440.355 457.36C440.697 457.36 440.971 457.292 441.176 457.155C441.384 457.015 441.488 456.83 441.488 456.599Z" fill="#4000C7"/>
<path d="M437.746 428.016L431.938 422.252C431.776 422.091 431.558 422 431.328 422H419.864C419.386 422 419 422.383 419 422.857V445.143C419 445.617 419.386 446 419.864 446H437.136C437.614 446 438 445.617 438 445.143V428.624C438 428.396 437.908 428.177 437.746 428.016ZM436.008 429.018H430.929V423.977L436.008 429.018ZM436.057 444.071H420.943V423.929H429.094V429.714C429.094 430.013 429.213 430.299 429.426 430.51C429.638 430.721 429.927 430.839 430.227 430.839H436.057V444.071ZM428.284 436.839H423.318C423.199 436.839 423.102 436.936 423.102 437.054V438.339C423.102 438.457 423.199 438.554 423.318 438.554H428.284C428.403 438.554 428.5 438.457 428.5 438.339V437.054C428.5 436.936 428.403 436.839 428.284 436.839ZM423.102 433.411V434.696C423.102 434.814 423.199 434.911 423.318 434.911H433.682C433.801 434.911 433.898 434.814 433.898 434.696V433.411C433.898 433.293 433.801 433.196 433.682 433.196H423.318C423.199 433.196 423.102 433.293 423.102 433.411Z" fill="#4000C7"/>
</svg>
