<svg width="1152" height="587" viewBox="0 0 1152 587" fill="none" xmlns="http://www.w3.org/2000/svg">
<path d="M0 0H1152V587H0V0Z" fill="white" fill-opacity="0.01"/>
<path d="M384.34 342H383.397V338.714H379.813V342H378.876V334.891H379.813V337.947H383.397V334.891H384.34V342ZM390.023 338.714H386.942V341.233H390.521V342H386.005V334.891H390.473V335.662H386.942V337.947H390.023V338.714ZM395.614 340.145H392.636L391.967 342H391L393.715 334.891H394.535L397.255 342H396.293L395.614 340.145ZM392.919 339.373H395.336L394.125 336.048L392.919 339.373ZM398.212 342V334.891H400.219C400.837 334.891 401.384 335.027 401.859 335.301C402.335 335.574 402.701 335.963 402.958 336.468C403.218 336.972 403.35 337.552 403.354 338.206V338.66C403.354 339.331 403.223 339.918 402.963 340.423C402.706 340.927 402.336 341.315 401.854 341.585C401.376 341.855 400.818 341.993 400.18 342H398.212ZM399.149 335.662V341.233H400.136C400.858 341.233 401.42 341.009 401.82 340.56C402.224 340.11 402.426 339.471 402.426 338.641V338.226C402.426 337.418 402.235 336.792 401.854 336.346C401.477 335.896 400.94 335.669 400.243 335.662H399.149Z" fill="#4000C7"/>
<path d="M85.1863 359C83.5646 352.553 91.8523 338.272 137 339.029" stroke="#4000C7"/>
<rect x="115.824" y="100.124" width="18" height="41" rx="5" transform="rotate(-90.1738 115.824 100.124)" fill="black"/>
<rect x="115.824" y="221.124" width="18" height="41" rx="5" transform="rotate(-90.1738 115.824 221.124)" fill="black"/>
<rect x="297.824" y="348.124" width="18" height="70.7284" rx="5" transform="rotate(-90.1738 297.824 348.124)" fill="black"/>
<rect x="419.824" y="348.31" width="18" height="102.065" rx="5" transform="rotate(-90.1738 419.824 348.31)" fill="black"/>
<path d="M108.001 91.1934L116.251 87.7304L116.25 94.6586L108.001 91.1934Z" fill="black"/>
<path d="M108.001 212.193L116.251 208.73L116.25 215.659L108.001 212.193Z" fill="black"/>
<path d="M108.001 366.193L116.251 362.73L116.25 369.659L108.001 366.193Z" fill="black"/>
<path d="M290.001 339.193L298.251 335.73L298.25 342.659L290.001 339.193Z" fill="black"/>
<path d="M412.001 339.379L420.251 335.916L420.25 342.844L412.001 339.379Z" fill="black"/>
<path d="M125.601 88.737L125.628 89.3815C126.054 88.8801 126.629 88.6294 127.352 88.6293C128.165 88.6291 128.718 88.9405 129.012 89.5635C129.205 89.2842 129.456 89.0586 129.764 88.8866C130.075 88.7147 130.442 88.6287 130.865 88.6286C132.14 88.6284 132.788 89.3032 132.81 90.6532L132.81 94.5472L131.817 94.5474L131.816 90.7124C131.816 90.2971 131.721 89.9874 131.531 89.7833C131.341 89.5756 131.023 89.4719 130.575 89.4719C130.206 89.472 129.9 89.5831 129.657 89.8051C129.413 90.0236 129.272 90.319 129.233 90.6914L129.233 94.5479L128.234 94.548L128.234 90.7399C128.233 89.8949 127.82 89.4724 126.993 89.4726C126.341 89.4727 125.895 89.7503 125.655 90.3053L125.656 94.5485L124.662 94.5487L124.661 88.7372L125.601 88.737ZM137.902 94.5463C137.845 94.4317 137.798 94.2276 137.762 93.934C137.301 94.4139 136.749 94.6539 136.108 94.654C135.535 94.6541 135.064 94.4931 134.696 94.1709C134.33 93.8451 134.148 93.4334 134.148 92.9356C134.147 92.3305 134.376 91.8614 134.835 91.5283C135.297 91.1916 135.945 91.0232 136.779 91.0231L137.746 91.0229L137.746 90.5663C137.746 90.219 137.642 89.9433 137.434 89.7393C137.226 89.5316 136.92 89.4278 136.516 89.4279C136.161 89.428 135.864 89.5175 135.624 89.6966C135.384 89.8757 135.264 90.0923 135.264 90.3466L134.265 90.3468C134.265 90.0567 134.367 89.7774 134.571 89.5088C134.779 89.2366 135.058 89.0217 135.409 88.8641C135.763 88.7065 136.152 88.6277 136.574 88.6276C137.244 88.6275 137.769 88.7957 138.148 89.1322C138.528 89.4651 138.725 89.9252 138.739 90.5125L138.74 93.1873C138.74 93.7208 138.808 94.1451 138.944 94.4602L138.944 94.5461L137.902 94.5463ZM136.253 93.7893C136.565 93.7892 136.86 93.7086 137.139 93.5474C137.419 93.3862 137.621 93.1767 137.746 92.9189L137.746 91.7265L136.967 91.7266C135.75 91.7269 135.141 92.0833 135.141 92.7958C135.141 93.1073 135.245 93.3508 135.453 93.5262C135.661 93.7016 135.927 93.7893 136.253 93.7893ZM141.377 94.5457L140.384 94.5458L140.383 88.7343L141.376 88.7341L141.377 94.5457ZM140.302 87.1928C140.302 87.0317 140.35 86.8956 140.447 86.7846C140.547 86.6736 140.694 86.6181 140.887 86.618C141.08 86.618 141.227 86.6735 141.328 86.7844C141.428 86.8954 141.478 87.0315 141.478 87.1926C141.478 87.3538 141.428 87.488 141.328 87.5955C141.227 87.7029 141.081 87.7567 140.887 87.7567C140.694 87.7567 140.547 87.703 140.447 87.5956C140.35 87.4882 140.302 87.354 140.302 87.1928ZM143.911 88.7337L143.944 89.4641C144.388 88.9055 144.968 88.6261 145.684 88.6259C146.912 88.6257 147.532 89.3185 147.543 90.7042L147.543 94.5445L146.55 94.5447L146.549 90.699C146.545 90.2801 146.449 89.9704 146.259 89.7699C146.073 89.5694 145.781 89.4692 145.383 89.4693C145.061 89.4693 144.778 89.5553 144.535 89.7272C144.291 89.8991 144.101 90.1248 143.965 90.4041L143.966 94.5452L142.973 94.5454L142.971 88.7339L143.911 88.7337Z" fill="white"/>
<path d="M125.601 209.737L125.628 210.382C126.054 209.88 126.629 209.629 127.352 209.629C128.165 209.629 128.718 209.941 129.012 210.564C129.205 210.284 129.456 210.059 129.764 209.887C130.075 209.715 130.442 209.629 130.865 209.629C132.14 209.628 132.788 210.303 132.81 211.653L132.81 215.547L131.817 215.547L131.816 211.712C131.816 211.297 131.721 210.987 131.531 210.783C131.341 210.576 131.023 210.472 130.575 210.472C130.206 210.472 129.9 210.583 129.657 210.805C129.413 211.024 129.272 211.319 129.233 211.691L129.233 215.548L128.234 215.548L128.234 211.74C128.233 210.895 127.82 210.472 126.993 210.473C126.341 210.473 125.895 210.75 125.655 211.305L125.656 215.549L124.662 215.549L124.661 209.737L125.601 209.737ZM137.902 215.546C137.845 215.432 137.798 215.228 137.762 214.934C137.301 215.414 136.749 215.654 136.108 215.654C135.535 215.654 135.064 215.493 134.696 215.171C134.33 214.845 134.148 214.433 134.148 213.936C134.147 213.331 134.376 212.861 134.835 212.528C135.297 212.192 135.945 212.023 136.779 212.023L137.746 212.023L137.746 211.566C137.746 211.219 137.642 210.943 137.434 210.739C137.226 210.532 136.92 210.428 136.516 210.428C136.161 210.428 135.864 210.518 135.624 210.697C135.384 210.876 135.264 211.092 135.264 211.347L134.265 211.347C134.265 211.057 134.367 210.777 134.571 210.509C134.779 210.237 135.058 210.022 135.409 209.864C135.763 209.707 136.152 209.628 136.574 209.628C137.244 209.627 137.769 209.796 138.148 210.132C138.528 210.465 138.725 210.925 138.739 211.512L138.74 214.187C138.74 214.721 138.808 215.145 138.944 215.46L138.944 215.546L137.902 215.546ZM136.253 214.789C136.565 214.789 136.86 214.709 137.139 214.547C137.419 214.386 137.621 214.177 137.746 213.919L137.746 212.726L136.967 212.727C135.75 212.727 135.141 213.083 135.141 213.796C135.141 214.107 135.245 214.351 135.453 214.526C135.661 214.702 135.927 214.789 136.253 214.789ZM141.377 215.546L140.384 215.546L140.383 209.734L141.376 209.734L141.377 215.546ZM140.302 208.193C140.302 208.032 140.35 207.896 140.447 207.785C140.547 207.674 140.694 207.618 140.887 207.618C141.08 207.618 141.227 207.673 141.328 207.784C141.428 207.895 141.478 208.031 141.478 208.193C141.478 208.354 141.428 208.488 141.328 208.595C141.227 208.703 141.081 208.757 140.887 208.757C140.694 208.757 140.547 208.703 140.447 208.596C140.35 208.488 140.302 208.354 140.302 208.193ZM143.911 209.734L143.944 210.464C144.388 209.905 144.968 209.626 145.684 209.626C146.912 209.626 147.532 210.318 147.543 211.704L147.543 215.545L146.55 215.545L146.549 211.699C146.545 211.28 146.449 210.97 146.259 210.77C146.073 210.569 145.781 210.469 145.383 210.469C145.061 210.469 144.778 210.555 144.535 210.727C144.291 210.899 144.101 211.125 143.965 211.404L143.966 215.545L142.973 215.545L142.971 209.734L143.911 209.734Z" fill="white"/>
<path d="M307.157 342.549L307.156 337.505L306.237 337.505L306.237 336.737L307.156 336.737L307.155 336.141C307.155 335.518 307.322 335.036 307.655 334.696C307.988 334.356 308.458 334.186 309.067 334.185C309.296 334.185 309.524 334.216 309.749 334.277L309.696 335.082C309.527 335.05 309.348 335.034 309.159 335.034C308.836 335.034 308.588 335.129 308.412 335.319C308.237 335.505 308.149 335.774 308.149 336.125L308.149 336.737L309.39 336.737L309.39 337.505L308.149 337.505L308.15 342.548L307.157 342.549ZM312.775 342.655C311.987 342.655 311.346 342.397 310.852 341.882C310.358 341.363 310.11 340.67 310.11 339.803L310.11 339.621C310.11 339.044 310.219 338.53 310.438 338.079C310.659 337.624 310.967 337.27 311.361 337.016C311.759 336.758 312.188 336.629 312.65 336.629C313.406 336.629 313.993 336.877 314.412 337.375C314.831 337.873 315.041 338.585 315.041 339.513L315.041 339.926L311.104 339.927C311.118 340.5 311.285 340.963 311.604 341.318C311.926 341.669 312.334 341.844 312.828 341.844C313.179 341.844 313.476 341.772 313.72 341.629C313.963 341.486 314.176 341.296 314.359 341.06L314.966 341.532C314.479 342.281 313.749 342.655 312.775 342.655ZM312.65 337.445C312.249 337.445 311.913 337.592 311.641 337.886C311.369 338.176 311.2 338.584 311.136 339.11L314.047 339.11L314.047 339.035C314.018 338.53 313.882 338.14 313.639 337.864C313.395 337.585 313.066 337.445 312.65 337.445ZM319.784 342.546C319.727 342.432 319.68 342.228 319.644 341.934C319.182 342.414 318.631 342.654 317.99 342.654C317.417 342.654 316.946 342.493 316.577 342.171C316.212 341.845 316.029 341.433 316.029 340.936C316.029 340.331 316.258 339.861 316.717 339.528C317.178 339.192 317.827 339.023 318.661 339.023L319.628 339.023L319.628 338.566C319.627 338.219 319.524 337.943 319.316 337.739C319.108 337.532 318.802 337.428 318.397 337.428C318.043 337.428 317.746 337.518 317.506 337.697C317.266 337.876 317.146 338.092 317.146 338.347L316.147 338.347C316.147 338.057 316.249 337.777 316.453 337.509C316.661 337.237 316.94 337.022 317.291 336.864C317.645 336.707 318.034 336.628 318.456 336.628C319.126 336.627 319.651 336.796 320.03 337.132C320.41 337.465 320.607 337.925 320.621 338.512L320.622 341.187C320.622 341.721 320.69 342.145 320.826 342.46L320.826 342.546L319.784 342.546ZM318.135 341.789C318.446 341.789 318.742 341.709 319.021 341.547C319.3 341.386 319.503 341.177 319.628 340.919L319.628 339.727L318.849 339.727C317.632 339.727 317.023 340.083 317.023 340.796C317.023 341.107 317.127 341.351 317.335 341.526C317.542 341.702 317.809 341.789 318.135 341.789ZM323.526 335.327L323.527 336.734L324.612 336.734L324.612 337.502L323.527 337.502L323.527 341.106C323.527 341.339 323.576 341.514 323.673 341.633C323.769 341.747 323.934 341.804 324.167 341.804C324.281 341.804 324.439 341.783 324.639 341.74L324.64 342.545C324.378 342.617 324.124 342.653 323.877 342.653C323.433 342.653 323.098 342.519 322.872 342.25C322.647 341.982 322.534 341.601 322.534 341.106L322.533 337.502L321.475 337.503L321.475 336.734L322.533 336.734L322.533 335.327L323.526 335.327ZM325.977 343.217L325.123 343.217L328.387 334.724L329.236 334.724L325.977 343.217ZM333.695 341.002C333.695 340.734 333.593 340.526 333.389 340.379C333.188 340.229 332.835 340.1 332.33 339.993C331.829 339.885 331.43 339.757 331.133 339.606C330.839 339.456 330.621 339.277 330.477 339.069C330.338 338.862 330.268 338.615 330.268 338.328C330.268 337.852 330.468 337.449 330.869 337.12C331.274 336.79 331.789 336.625 332.416 336.625C333.075 336.625 333.608 336.795 334.016 337.135C334.428 337.475 334.634 337.91 334.634 338.44L333.635 338.44C333.635 338.168 333.519 337.934 333.286 337.737C333.057 337.54 332.767 337.441 332.416 337.441C332.054 337.442 331.771 337.52 331.567 337.678C331.363 337.836 331.261 338.041 331.261 338.296C331.261 338.536 331.356 338.716 331.546 338.838C331.736 338.96 332.078 339.076 332.572 339.187C333.07 339.298 333.473 339.43 333.781 339.584C334.089 339.738 334.316 339.924 334.463 340.143C334.613 340.358 334.688 340.621 334.689 340.932C334.689 341.451 334.481 341.869 334.066 342.184C333.65 342.495 333.112 342.651 332.449 342.651C331.984 342.652 331.572 342.569 331.214 342.405C330.856 342.24 330.574 342.011 330.37 341.717C330.17 341.42 330.069 341.1 330.069 340.756L331.063 340.756C331.081 341.089 331.214 341.354 331.461 341.551C331.711 341.744 332.041 341.84 332.449 341.84C332.825 341.84 333.126 341.765 333.351 341.615C333.58 341.461 333.695 341.257 333.695 341.002ZM337.063 342.543L336.069 342.543L336.068 336.732L337.062 336.732L337.063 342.543ZM335.987 335.19C335.987 335.029 336.036 334.893 336.132 334.782C336.232 334.671 336.379 334.616 336.573 334.616C336.766 334.616 336.913 334.671 337.013 334.782C337.113 334.893 337.164 335.029 337.164 335.19C337.164 335.351 337.113 335.486 337.013 335.593C336.913 335.7 336.766 335.754 336.573 335.754C336.379 335.754 336.233 335.701 336.132 335.593C336.036 335.486 335.987 335.351 335.987 335.19ZM338.421 339.589C338.421 338.683 338.63 337.963 339.049 337.43C339.468 336.892 340.023 336.624 340.714 336.624C341.423 336.623 341.976 336.874 342.374 337.375L342.422 336.731L343.33 336.731L343.331 342.402C343.331 343.154 343.107 343.747 342.66 344.18C342.216 344.614 341.618 344.83 340.866 344.831C340.447 344.831 340.037 344.741 339.636 344.562C339.235 344.383 338.929 344.138 338.717 343.827L339.233 343.23C339.659 343.757 340.18 344.02 340.796 344.02C341.279 344.019 341.655 343.883 341.924 343.611C342.196 343.339 342.332 342.956 342.332 342.462L342.332 341.962C341.934 342.421 341.392 342.65 340.704 342.65C340.024 342.65 339.473 342.376 339.05 341.828C338.631 341.281 338.421 340.534 338.421 339.589ZM339.42 339.701C339.42 340.357 339.555 340.872 339.823 341.248C340.092 341.621 340.468 341.807 340.951 341.807C341.578 341.807 342.038 341.522 342.332 340.952L342.331 338.299C342.027 337.744 341.57 337.467 340.961 337.467C340.478 337.467 340.1 337.655 339.828 338.031C339.556 338.407 339.42 338.964 339.42 339.701ZM345.774 336.73L345.806 337.461C346.25 336.902 346.83 336.622 347.546 336.622C348.774 336.622 349.394 337.315 349.405 338.701L349.406 342.541L348.412 342.541L348.411 338.695C348.408 338.276 348.311 337.967 348.121 337.766C347.935 337.566 347.643 337.466 347.246 337.466C346.923 337.466 346.64 337.552 346.397 337.724C346.153 337.896 345.964 338.121 345.828 338.4L345.828 342.542L344.835 342.542L344.834 336.73L345.774 336.73ZM354.492 341.965C354.105 342.42 353.538 342.648 352.789 342.648C352.17 342.648 351.697 342.469 351.371 342.111C351.049 341.749 350.886 341.216 350.882 340.51L350.882 336.729L351.875 336.729L351.876 340.483C351.876 341.364 352.234 341.805 352.95 341.804C353.71 341.804 354.214 341.521 354.465 340.956L354.464 336.729L355.458 336.728L355.459 342.54L354.514 342.54L354.492 341.965ZM361.882 339.697C361.882 340.582 361.68 341.294 361.276 341.835C360.871 342.376 360.323 342.646 359.632 342.647C358.927 342.647 358.372 342.423 357.967 341.975L357.968 344.774L356.974 344.774L356.972 336.728L357.88 336.728L357.929 337.372C358.333 336.871 358.895 336.62 359.615 336.62C360.313 336.62 360.865 336.883 361.269 337.409C361.678 337.936 361.882 338.668 361.882 339.606L361.882 339.697ZM360.888 339.585C360.888 338.93 360.749 338.412 360.469 338.033C360.19 337.653 359.807 337.463 359.32 337.463C358.718 337.464 358.267 337.73 357.966 338.264L357.967 341.041C358.264 341.571 358.719 341.836 359.331 341.836C359.808 341.835 360.185 341.647 360.464 341.271C360.747 340.892 360.889 340.33 360.888 339.585Z" fill="white"/>
<path d="M429.157 342.734L429.156 337.691L428.237 337.691L428.237 336.923L429.156 336.923L429.155 336.326C429.155 335.703 429.322 335.222 429.655 334.882C429.988 334.541 430.458 334.371 431.067 334.371C431.296 334.371 431.524 334.401 431.749 334.462L431.696 335.268C431.527 335.236 431.348 335.22 431.159 335.22C430.836 335.22 430.588 335.315 430.412 335.504C430.237 335.691 430.149 335.959 430.149 336.31L430.149 336.922L431.39 336.922L431.39 337.69L430.149 337.691L430.15 342.734L429.157 342.734ZM434.775 342.841C433.987 342.841 433.346 342.583 432.852 342.067C432.358 341.548 432.11 340.856 432.11 339.989L432.11 339.806C432.11 339.23 432.219 338.716 432.438 338.265C432.659 337.81 432.967 337.455 433.361 337.201C433.759 336.943 434.188 336.814 434.65 336.814C435.406 336.814 435.993 337.063 436.412 337.56C436.831 338.058 437.041 338.771 437.041 339.698L437.041 340.112L433.104 340.112C433.118 340.685 433.285 341.149 433.604 341.503C433.926 341.854 434.334 342.03 434.828 342.03C435.179 342.029 435.476 341.958 435.72 341.815C435.963 341.671 436.176 341.481 436.359 341.245L436.966 341.718C436.479 342.466 435.749 342.84 434.775 342.841ZM434.65 337.631C434.249 337.631 433.913 337.778 433.641 338.071C433.369 338.361 433.2 338.77 433.136 339.296L436.047 339.295L436.047 339.22C436.018 338.715 435.882 338.325 435.639 338.049C435.395 337.77 435.066 337.631 434.65 337.631ZM441.784 342.732C441.727 342.617 441.68 342.413 441.644 342.12C441.182 342.599 440.631 342.839 439.99 342.84C439.417 342.84 438.946 342.679 438.577 342.356C438.212 342.031 438.029 341.619 438.029 341.121C438.029 340.516 438.258 340.047 438.717 339.714C439.178 339.377 439.827 339.209 440.661 339.209L441.628 339.208L441.628 338.752C441.627 338.405 441.524 338.129 441.316 337.925C441.108 337.717 440.802 337.613 440.397 337.613C440.043 337.614 439.746 337.703 439.506 337.882C439.266 338.061 439.146 338.278 439.146 338.532L438.147 338.532C438.147 338.242 438.249 337.963 438.453 337.694C438.661 337.422 438.94 337.207 439.291 337.05C439.645 336.892 440.034 336.813 440.456 336.813C441.126 336.813 441.651 336.981 442.03 337.318C442.41 337.651 442.607 338.111 442.621 338.698L442.622 341.373C442.622 341.906 442.69 342.331 442.826 342.646L442.826 342.732L441.784 342.732ZM440.135 341.975C440.446 341.975 440.742 341.894 441.021 341.733C441.3 341.572 441.503 341.362 441.628 341.104L441.628 339.912L440.849 339.912C439.632 339.912 439.023 340.269 439.023 340.981C439.023 341.293 439.127 341.536 439.335 341.712C439.542 341.887 439.809 341.975 440.135 341.975ZM445.526 335.512L445.527 336.92L446.612 336.919L446.612 337.688L445.527 337.688L445.527 341.292C445.527 341.524 445.576 341.7 445.673 341.818C445.769 341.933 445.934 341.99 446.167 341.99C446.281 341.99 446.439 341.968 446.639 341.925L446.64 342.731C446.378 342.803 446.124 342.838 445.877 342.839C445.433 342.839 445.098 342.704 444.872 342.436C444.647 342.167 444.534 341.786 444.534 341.292L444.533 337.688L443.475 337.688L443.475 336.92L444.533 336.92L444.533 335.513L445.526 335.512ZM447.977 343.402L447.123 343.402L450.387 334.91L451.236 334.91L447.977 343.402ZM455.695 341.188C455.695 340.919 455.593 340.712 455.389 340.565C455.188 340.414 454.835 340.286 454.33 340.178C453.829 340.071 453.43 339.942 453.133 339.792C452.839 339.641 452.621 339.462 452.477 339.255C452.338 339.047 452.268 338.8 452.268 338.514C452.268 338.037 452.468 337.635 452.869 337.305C453.274 336.976 453.789 336.811 454.416 336.811C455.075 336.811 455.608 336.981 456.016 337.321C456.428 337.661 456.634 338.096 456.634 338.626L455.635 338.626C455.635 338.354 455.519 338.119 455.286 337.922C455.057 337.725 454.767 337.627 454.416 337.627C454.054 337.627 453.771 337.706 453.567 337.864C453.363 338.021 453.261 338.227 453.261 338.481C453.261 338.721 453.356 338.902 453.546 339.024C453.736 339.145 454.078 339.262 454.572 339.373C455.07 339.484 455.473 339.616 455.781 339.77C456.089 339.924 456.316 340.11 456.463 340.328C456.613 340.543 456.688 340.806 456.689 341.118C456.689 341.637 456.481 342.054 456.066 342.369C455.65 342.681 455.112 342.837 454.449 342.837C453.984 342.837 453.572 342.755 453.214 342.59C452.856 342.425 452.574 342.196 452.37 341.903C452.17 341.606 452.069 341.285 452.069 340.941L453.063 340.941C453.081 341.274 453.214 341.539 453.461 341.736C453.711 341.929 454.041 342.026 454.449 342.026C454.825 342.026 455.126 341.951 455.351 341.8C455.58 341.646 455.695 341.442 455.695 341.188ZM459.063 342.729L458.069 342.729L458.068 336.917L459.062 336.917L459.063 342.729ZM457.987 335.376C457.987 335.215 458.036 335.079 458.132 334.968C458.232 334.857 458.379 334.801 458.573 334.801C458.766 334.801 458.913 334.857 459.013 334.968C459.113 335.078 459.164 335.215 459.164 335.376C459.164 335.537 459.113 335.671 459.013 335.779C458.913 335.886 458.766 335.94 458.573 335.94C458.379 335.94 458.233 335.886 458.132 335.779C458.036 335.671 457.987 335.537 457.987 335.376ZM460.421 339.774C460.421 338.868 460.63 338.149 461.049 337.615C461.468 337.078 462.023 336.809 462.714 336.809C463.423 336.809 463.976 337.06 464.374 337.561L464.422 336.916L465.33 336.916L465.331 342.588C465.331 343.34 465.107 343.933 464.66 344.366C464.216 344.799 463.618 345.016 462.866 345.016C462.447 345.016 462.037 344.927 461.636 344.748C461.235 344.569 460.929 344.324 460.717 344.012L461.233 343.416C461.659 343.942 462.18 344.205 462.796 344.205C463.279 344.205 463.655 344.069 463.924 343.797C464.196 343.525 464.332 343.141 464.332 342.647L464.332 342.148C463.934 342.606 463.392 342.835 462.704 342.835C462.024 342.836 461.473 342.562 461.05 342.014C460.631 341.466 460.421 340.72 460.421 339.774ZM461.42 339.887C461.42 340.542 461.555 341.058 461.823 341.434C462.092 341.806 462.468 341.992 462.951 341.992C463.578 341.992 464.038 341.707 464.332 341.138L464.331 338.485C464.027 337.93 463.57 337.652 462.961 337.652C462.478 337.652 462.1 337.84 461.828 338.217C461.556 338.593 461.42 339.149 461.42 339.887ZM467.774 336.916L467.806 337.646C468.25 337.087 468.83 336.808 469.546 336.808C470.774 336.808 471.394 337.5 471.405 338.886L471.406 342.727L470.412 342.727L470.411 338.881C470.408 338.462 470.311 338.152 470.121 337.952C469.935 337.751 469.643 337.651 469.246 337.651C468.923 337.651 468.64 337.737 468.397 337.909C468.153 338.081 467.964 338.307 467.828 338.586L467.828 342.727L466.835 342.727L466.834 336.916L467.774 336.916ZM476.492 342.151C476.105 342.606 475.538 342.833 474.789 342.833C474.17 342.833 473.697 342.654 473.371 342.296C473.049 341.935 472.886 341.401 472.882 340.696L472.882 336.915L473.875 336.915L473.876 340.669C473.876 341.55 474.234 341.99 474.95 341.99C475.71 341.99 476.214 341.707 476.465 341.141L476.464 336.914L477.458 336.914L477.459 342.725L476.514 342.726L476.492 342.151ZM483.882 339.883C483.882 340.767 483.68 341.48 483.276 342.021C482.871 342.562 482.323 342.832 481.632 342.832C480.927 342.832 480.372 342.609 479.967 342.161L479.968 344.959L478.974 344.96L478.972 336.914L479.88 336.913L479.929 337.558C480.333 337.057 480.895 336.806 481.615 336.806C482.313 336.806 482.865 337.069 483.269 337.595C483.678 338.121 483.882 338.853 483.882 339.792L483.882 339.883ZM482.888 339.77C482.888 339.115 482.749 338.598 482.469 338.218C482.19 337.839 481.807 337.649 481.32 337.649C480.718 337.649 480.267 337.916 479.966 338.45L479.967 341.226C480.264 341.756 480.719 342.021 481.331 342.021C481.808 342.021 482.185 341.833 482.464 341.457C482.747 341.077 482.889 340.515 482.888 339.77ZM487.218 339.807L484.596 339.808L484.596 338.997L487.217 338.996L487.218 339.807ZM487.927 339.764C487.926 339.195 488.037 338.683 488.259 338.228C488.485 337.773 488.796 337.422 489.194 337.175C489.595 336.928 490.051 336.804 490.563 336.804C491.355 336.804 491.994 337.078 492.481 337.626C492.972 338.173 493.217 338.902 493.217 339.811L493.217 339.881C493.217 340.447 493.108 340.955 492.89 341.407C492.675 341.854 492.365 342.204 491.961 342.454C491.56 342.705 491.098 342.83 490.575 342.83C489.787 342.831 489.148 342.557 488.657 342.009C488.17 341.461 487.927 340.736 487.927 339.834L487.927 339.764ZM488.926 339.882C488.926 340.527 489.074 341.044 489.372 341.434C489.673 341.824 490.074 342.02 490.575 342.019C491.08 342.019 491.481 341.822 491.778 341.428C492.075 341.031 492.224 340.476 492.223 339.763C492.223 339.126 492.071 338.61 491.767 338.216C491.466 337.819 491.065 337.62 490.563 337.62C490.073 337.621 489.677 337.816 489.376 338.206C489.076 338.597 488.925 339.155 488.926 339.882ZM498.052 342.722C497.994 342.607 497.948 342.403 497.912 342.109C497.45 342.589 496.899 342.829 496.258 342.829C495.685 342.83 495.214 342.668 494.845 342.346C494.48 342.021 494.297 341.609 494.297 341.111C494.297 340.506 494.526 340.037 494.984 339.704C495.446 339.367 496.094 339.199 496.928 339.198L497.895 339.198L497.895 338.742C497.895 338.394 497.791 338.119 497.583 337.915C497.376 337.707 497.07 337.603 496.665 337.603C496.31 337.603 496.013 337.693 495.773 337.872C495.534 338.051 495.414 338.268 495.414 338.522L494.415 338.522C494.415 338.232 494.517 337.953 494.721 337.684C494.928 337.412 495.208 337.197 495.558 337.04C495.913 336.882 496.301 336.803 496.724 336.803C497.393 336.803 497.918 336.971 498.298 337.308C498.677 337.641 498.874 338.101 498.889 338.688L498.889 341.363C498.889 341.896 498.957 342.32 499.094 342.636L499.094 342.721L498.052 342.722ZM496.403 341.965C496.714 341.965 497.009 341.884 497.289 341.723C497.568 341.562 497.77 341.352 497.896 341.094L497.895 339.902L497.117 339.902C495.899 339.902 495.29 340.259 495.291 340.971C495.291 341.283 495.394 341.526 495.602 341.702C495.81 341.877 496.077 341.965 496.403 341.965ZM504.035 342.146C503.648 342.601 503.081 342.828 502.332 342.828C501.713 342.828 501.24 342.649 500.914 342.291C500.592 341.93 500.429 341.396 500.425 340.691L500.425 336.91L501.418 336.91L501.419 340.664C501.419 341.545 501.777 341.985 502.493 341.985C503.252 341.985 503.757 341.702 504.008 341.136L504.007 336.909L505.001 336.909L505.002 342.72L504.056 342.721L504.035 342.146ZM507.863 335.501L507.864 336.908L508.949 336.908L508.949 337.676L507.864 337.676L507.864 341.28C507.864 341.513 507.913 341.689 508.009 341.807C508.106 341.921 508.271 341.979 508.504 341.979C508.618 341.979 508.776 341.957 508.976 341.914L508.976 342.72C508.715 342.791 508.461 342.827 508.214 342.827C507.77 342.827 507.435 342.693 507.209 342.425C506.984 342.156 506.871 341.775 506.871 341.281L506.87 337.677L505.812 337.677L505.812 336.909L506.87 336.909L506.87 335.501L507.863 335.501ZM511.108 337.611C511.548 337.071 512.121 336.8 512.826 336.8C514.055 336.8 514.674 337.493 514.685 338.878L514.686 342.719L513.692 342.719L513.692 338.873C513.688 338.454 513.591 338.144 513.401 337.944C513.215 337.744 512.923 337.643 512.526 337.643C512.204 337.643 511.921 337.729 511.677 337.901C511.434 338.073 511.244 338.299 511.108 338.578L511.109 342.719L510.115 342.719L510.114 334.469L511.107 334.469L511.108 337.611Z" fill="white"/>
<circle cx="84.5" cy="366.5" r="9.5" fill="#4000C7"/>
<circle cx="84.5" cy="212.5" r="9.5" fill="#4000C7"/>
<circle cx="84.5" cy="91.5" r="9.5" fill="#4000C7"/>
<circle cx="145.5" cy="339.5" r="9.5" fill="#4000C7"/>
<circle cx="268.5" cy="339.5" r="9.5" fill="#4000C7"/>
<rect x="115.824" y="375.124" width="18" height="41" rx="5" transform="rotate(-90.1738 115.824 375.124)" fill="black"/>
<path d="M125.601 363.737L125.628 364.382C126.054 363.88 126.629 363.629 127.352 363.629C128.165 363.629 128.718 363.941 129.012 364.564C129.205 364.284 129.456 364.059 129.764 363.887C130.075 363.715 130.442 363.629 130.865 363.629C132.14 363.628 132.788 364.303 132.81 365.653L132.81 369.547L131.817 369.547L131.816 365.712C131.816 365.297 131.721 364.987 131.531 364.783C131.341 364.576 131.023 364.472 130.575 364.472C130.206 364.472 129.9 364.583 129.657 364.805C129.413 365.024 129.272 365.319 129.233 365.691L129.233 369.548L128.234 369.548L128.234 365.74C128.233 364.895 127.82 364.472 126.993 364.473C126.341 364.473 125.895 364.75 125.655 365.305L125.656 369.549L124.662 369.549L124.661 363.737L125.601 363.737ZM137.902 369.546C137.845 369.432 137.798 369.228 137.762 368.934C137.301 369.414 136.749 369.654 136.108 369.654C135.535 369.654 135.064 369.493 134.696 369.171C134.33 368.845 134.148 368.433 134.148 367.936C134.147 367.331 134.376 366.861 134.835 366.528C135.297 366.192 135.945 366.023 136.779 366.023L137.746 366.023L137.746 365.566C137.746 365.219 137.642 364.943 137.434 364.739C137.226 364.532 136.92 364.428 136.516 364.428C136.161 364.428 135.864 364.518 135.624 364.697C135.384 364.876 135.264 365.092 135.264 365.347L134.265 365.347C134.265 365.057 134.367 364.777 134.571 364.509C134.779 364.237 135.058 364.022 135.409 363.864C135.763 363.707 136.152 363.628 136.574 363.628C137.244 363.627 137.769 363.796 138.148 364.132C138.528 364.465 138.725 364.925 138.739 365.512L138.74 368.187C138.74 368.721 138.808 369.145 138.944 369.46L138.944 369.546L137.902 369.546ZM136.253 368.789C136.565 368.789 136.86 368.709 137.139 368.547C137.419 368.386 137.621 368.177 137.746 367.919L137.746 366.726L136.967 366.727C135.75 366.727 135.141 367.083 135.141 367.796C135.141 368.107 135.245 368.351 135.453 368.526C135.661 368.702 135.927 368.789 136.253 368.789ZM141.377 369.546L140.384 369.546L140.383 363.734L141.376 363.734L141.377 369.546ZM140.302 362.193C140.302 362.032 140.35 361.896 140.447 361.785C140.547 361.674 140.694 361.618 140.887 361.618C141.08 361.618 141.227 361.673 141.328 361.784C141.428 361.895 141.478 362.031 141.478 362.193C141.478 362.354 141.428 362.488 141.328 362.595C141.227 362.703 141.081 362.757 140.887 362.757C140.694 362.757 140.547 362.703 140.447 362.596C140.35 362.488 140.302 362.354 140.302 362.193ZM143.911 363.734L143.944 364.464C144.388 363.905 144.968 363.626 145.684 363.626C146.912 363.626 147.532 364.318 147.543 365.704L147.543 369.545L146.55 369.545L146.549 365.699C146.545 365.28 146.449 364.97 146.259 364.77C146.073 364.569 145.781 364.469 145.383 364.469C145.061 364.469 144.778 364.555 144.535 364.727C144.291 364.899 144.101 365.125 143.965 365.404L143.966 369.545L142.973 369.545L142.971 363.734L143.911 363.734Z" fill="white"/>
<line x1="155" y1="339.5" x2="259" y2="339.5" stroke="#4000C7"/>
<path d="M250.083 303.006H250.762C251.188 302.999 251.523 302.887 251.768 302.669C252.012 302.451 252.134 302.156 252.134 301.785C252.134 300.952 251.719 300.535 250.889 300.535C250.498 300.535 250.186 300.647 249.951 300.872C249.72 301.093 249.604 301.388 249.604 301.756H248.701C248.701 301.193 248.906 300.726 249.316 300.354C249.73 299.98 250.254 299.793 250.889 299.793C251.559 299.793 252.085 299.97 252.466 300.325C252.847 300.68 253.037 301.173 253.037 301.805C253.037 302.114 252.936 302.413 252.734 302.703C252.536 302.993 252.264 303.209 251.919 303.353C252.31 303.476 252.611 303.681 252.822 303.968C253.037 304.254 253.145 304.604 253.145 305.018C253.145 305.656 252.936 306.162 252.52 306.536C252.103 306.91 251.561 307.098 250.894 307.098C250.226 307.098 249.683 306.917 249.263 306.556C248.846 306.194 248.638 305.717 248.638 305.125H249.546C249.546 305.499 249.668 305.799 249.912 306.023C250.156 306.248 250.483 306.36 250.894 306.36C251.33 306.36 251.663 306.246 251.895 306.019C252.126 305.791 252.241 305.464 252.241 305.037C252.241 304.624 252.114 304.306 251.86 304.085C251.606 303.864 251.24 303.75 250.762 303.743H250.083V303.006ZM256.597 306.36C256.919 306.36 257.201 306.263 257.441 306.067C257.682 305.872 257.816 305.628 257.842 305.335H258.696C258.68 305.638 258.576 305.926 258.384 306.199C258.192 306.473 257.935 306.691 257.612 306.854C257.293 307.016 256.955 307.098 256.597 307.098C255.877 307.098 255.304 306.858 254.878 306.38C254.455 305.898 254.243 305.241 254.243 304.407V304.256C254.243 303.742 254.338 303.284 254.526 302.884C254.715 302.483 254.985 302.173 255.337 301.951C255.692 301.73 256.11 301.619 256.592 301.619C257.184 301.619 257.676 301.797 258.066 302.151C258.46 302.506 258.67 302.967 258.696 303.533H257.842C257.816 303.191 257.686 302.911 257.451 302.693C257.22 302.472 256.934 302.361 256.592 302.361C256.133 302.361 255.776 302.527 255.522 302.859C255.272 303.188 255.146 303.665 255.146 304.29V304.461C255.146 305.07 255.272 305.538 255.522 305.867C255.773 306.196 256.131 306.36 256.597 306.36ZM261.904 307.098C261.188 307.098 260.605 306.863 260.156 306.395C259.707 305.923 259.482 305.293 259.482 304.505V304.339C259.482 303.815 259.582 303.348 259.78 302.938C259.982 302.524 260.262 302.202 260.62 301.971C260.981 301.736 261.372 301.619 261.792 301.619C262.479 301.619 263.013 301.845 263.394 302.298C263.774 302.75 263.965 303.398 263.965 304.241V304.617H260.386C260.399 305.138 260.55 305.56 260.84 305.882C261.133 306.201 261.504 306.36 261.953 306.36C262.272 306.36 262.542 306.295 262.764 306.165C262.985 306.035 263.179 305.862 263.345 305.647L263.896 306.077C263.454 306.757 262.79 307.098 261.904 307.098ZM261.792 302.361C261.427 302.361 261.121 302.495 260.874 302.762C260.627 303.025 260.474 303.396 260.415 303.875H263.062V303.807C263.035 303.348 262.912 302.993 262.69 302.742C262.469 302.488 262.17 302.361 261.792 302.361ZM266.235 303.006H266.914C267.34 302.999 267.676 302.887 267.92 302.669C268.164 302.451 268.286 302.156 268.286 301.785C268.286 300.952 267.871 300.535 267.041 300.535C266.65 300.535 266.338 300.647 266.104 300.872C265.872 301.093 265.757 301.388 265.757 301.756H264.854C264.854 301.193 265.059 300.726 265.469 300.354C265.882 299.98 266.406 299.793 267.041 299.793C267.712 299.793 268.237 299.97 268.618 300.325C268.999 300.68 269.189 301.173 269.189 301.805C269.189 302.114 269.089 302.413 268.887 302.703C268.688 302.993 268.416 303.209 268.071 303.353C268.462 303.476 268.763 303.681 268.975 303.968C269.189 304.254 269.297 304.604 269.297 305.018C269.297 305.656 269.089 306.162 268.672 306.536C268.255 306.91 267.713 307.098 267.046 307.098C266.379 307.098 265.835 306.917 265.415 306.556C264.998 306.194 264.79 305.717 264.79 305.125H265.698C265.698 305.499 265.82 305.799 266.064 306.023C266.309 306.248 266.636 306.36 267.046 306.36C267.482 306.36 267.816 306.246 268.047 306.019C268.278 305.791 268.394 305.464 268.394 305.037C268.394 304.624 268.267 304.306 268.013 304.085C267.759 303.864 267.393 303.75 266.914 303.743H266.235V303.006ZM273.999 303.875C273.81 304.1 273.584 304.28 273.32 304.417C273.06 304.554 272.773 304.622 272.461 304.622C272.051 304.622 271.693 304.521 271.387 304.319C271.084 304.118 270.85 303.834 270.684 303.47C270.518 303.102 270.435 302.697 270.435 302.254C270.435 301.779 270.524 301.351 270.703 300.97C270.885 300.589 271.143 300.298 271.475 300.096C271.807 299.894 272.194 299.793 272.637 299.793C273.34 299.793 273.893 300.057 274.297 300.584C274.704 301.108 274.907 301.824 274.907 302.732V302.996C274.907 304.38 274.634 305.39 274.087 306.028C273.54 306.663 272.715 306.989 271.611 307.005H271.436V306.243H271.626C272.371 306.23 272.944 306.036 273.345 305.662C273.745 305.285 273.963 304.689 273.999 303.875ZM272.607 303.875C272.91 303.875 273.188 303.782 273.442 303.597C273.7 303.411 273.887 303.182 274.004 302.908V302.547C274.004 301.954 273.875 301.473 273.618 301.102C273.361 300.73 273.035 300.545 272.642 300.545C272.244 300.545 271.925 300.698 271.685 301.004C271.444 301.307 271.323 301.707 271.323 302.205C271.323 302.69 271.439 303.09 271.67 303.406C271.904 303.719 272.217 303.875 272.607 303.875ZM279.966 304.612H280.952V305.35H279.966V307H279.058V305.35H275.82V304.817L279.004 299.891H279.966V304.612ZM276.846 304.612H279.058V301.126L278.95 301.321L276.846 304.612ZM281.641 304.314C281.641 303.504 281.833 302.853 282.217 302.361C282.601 301.867 283.104 301.619 283.726 301.619C284.344 301.619 284.834 301.831 285.195 302.254V299.5H286.099V307H285.269L285.225 306.434C284.863 306.876 284.36 307.098 283.716 307.098C283.104 307.098 282.604 306.847 282.217 306.346C281.833 305.844 281.641 305.19 281.641 304.383V304.314ZM282.544 304.417C282.544 305.016 282.668 305.485 282.915 305.823C283.162 306.162 283.504 306.331 283.94 306.331C284.513 306.331 284.932 306.074 285.195 305.56V303.133C284.925 302.635 284.51 302.386 283.95 302.386C283.507 302.386 283.162 302.557 282.915 302.898C282.668 303.24 282.544 303.746 282.544 304.417ZM245.692 315.15C244.122 314.87 242.412 313.55 242.412 312.06V311.37H241.552V312.06C241.552 313.55 239.852 314.87 238.282 315.15L238.622 315.83C240.002 315.54 241.402 314.61 241.982 313.33C242.562 314.61 243.972 315.54 245.342 315.83L245.692 315.15ZM242.392 317.9V315.72H241.572V317.9H237.952V318.57H246.092V317.9H242.392ZM253.711 315.48H254.541V310.78H253.711V311.69H251.951V312.34H253.711V313.3H251.951V313.95H253.711V315.48ZM252.391 314.69C251.101 314.25 250.191 313.14 250.191 311.94V311H249.381V311.94C249.381 313.19 248.481 314.39 247.151 314.88L247.571 315.5C248.611 315.12 249.421 314.3 249.801 313.28C250.191 314.21 250.971 314.96 251.971 315.33L252.391 314.69ZM249.591 318.98V318.03H254.541V315.92H248.761V316.55H253.731V317.42H248.781V319.62H254.881V318.98H249.591ZM259.311 311.73V312.41H262.601C262.411 314.53 261.181 316.25 258.891 317.4L259.341 318.04C262.241 316.59 263.411 314.28 263.411 311.73H259.311ZM267.171 314.41H265.731V310.77H264.911V319.74H265.731V315.09H267.171V314.41ZM274.57 310.78V315.59H275.39V310.78H274.57ZM269.61 316.03V319.62H275.39V316.03H274.58V317.13H270.42V316.03H269.61ZM270.42 317.77H274.58V318.96H270.42V317.77ZM270.57 311.2C269.22 311.2 268.24 312.04 268.24 313.26C268.24 314.5 269.22 315.33 270.57 315.33C271.93 315.33 272.92 314.5 272.92 313.26C272.92 312.04 271.93 311.2 270.57 311.2ZM270.57 311.88C271.48 311.88 272.12 312.45 272.12 313.26C272.12 314.08 271.48 314.65 270.57 314.65C269.68 314.65 269.04 314.08 269.04 313.26C269.04 312.45 269.68 311.88 270.57 311.88ZM287.83 315.21H286.5C286.75 313.92 286.75 312.97 286.75 312.13V311.35H280.73V312.01H285.95V312.13C285.95 312.97 285.95 313.92 285.67 315.21H279.72V315.88H283.34V319.75H284.17V315.88H287.83V315.21ZM293.949 313.16V313.83H295.459V315.04H293.949V315.71H295.459V317.61H296.289V310.78H295.459V313.16H293.949ZM293.949 311.87H291.889V310.76H291.069V311.87H288.929V312.53H293.949V311.87ZM290.219 314.73C290.219 314.1 290.729 313.67 291.469 313.67C292.209 313.67 292.719 314.1 292.719 314.73C292.719 315.37 292.209 315.81 291.469 315.81C290.729 315.81 290.219 315.37 290.219 314.73ZM293.499 314.73C293.499 313.71 292.659 313.03 291.469 313.03C290.279 313.03 289.439 313.71 289.439 314.73C289.439 315.76 290.279 316.45 291.469 316.45C292.659 316.45 293.499 315.76 293.499 314.73ZM291.349 318.87V317.03H290.529V319.54H296.499V318.87H291.349Z" fill="black"/>
<path d="M133.466 307H128.808V306.351L131.269 303.616C131.633 303.203 131.884 302.868 132.021 302.61C132.16 302.35 132.23 302.081 132.23 301.805C132.23 301.434 132.118 301.129 131.894 300.892C131.669 300.654 131.369 300.535 130.995 300.535C130.546 300.535 130.196 300.664 129.945 300.921C129.698 301.175 129.574 301.53 129.574 301.985H128.671C128.671 301.331 128.881 300.802 129.301 300.398C129.724 299.995 130.289 299.793 130.995 299.793C131.656 299.793 132.178 299.967 132.562 300.315C132.947 300.66 133.139 301.121 133.139 301.697C133.139 302.397 132.693 303.23 131.801 304.197L129.896 306.263H133.466V307ZM136.635 306.36C136.957 306.36 137.239 306.263 137.479 306.067C137.72 305.872 137.854 305.628 137.88 305.335H138.734C138.718 305.638 138.614 305.926 138.422 306.199C138.23 306.473 137.973 306.691 137.65 306.854C137.331 307.016 136.993 307.098 136.635 307.098C135.915 307.098 135.342 306.858 134.916 306.38C134.493 305.898 134.281 305.241 134.281 304.407V304.256C134.281 303.742 134.376 303.284 134.564 302.884C134.753 302.483 135.023 302.173 135.375 301.951C135.73 301.73 136.148 301.619 136.63 301.619C137.222 301.619 137.714 301.797 138.104 302.151C138.498 302.506 138.708 302.967 138.734 303.533H137.88C137.854 303.191 137.724 302.911 137.489 302.693C137.258 302.472 136.972 302.361 136.63 302.361C136.171 302.361 135.814 302.527 135.561 302.859C135.31 303.188 135.185 303.665 135.185 304.29V304.461C135.185 305.07 135.31 305.538 135.561 305.867C135.811 306.196 136.169 306.36 136.635 306.36ZM143.012 307C142.96 306.896 142.917 306.71 142.885 306.443C142.465 306.88 141.964 307.098 141.381 307.098C140.86 307.098 140.432 306.951 140.097 306.658C139.765 306.362 139.599 305.988 139.599 305.535C139.599 304.985 139.807 304.559 140.224 304.256C140.644 303.95 141.233 303.797 141.991 303.797H142.87V303.382C142.87 303.066 142.776 302.815 142.587 302.63C142.398 302.441 142.12 302.347 141.752 302.347C141.43 302.347 141.16 302.428 140.941 302.591C140.723 302.754 140.614 302.951 140.614 303.182H139.706C139.706 302.918 139.799 302.664 139.984 302.42C140.173 302.173 140.427 301.977 140.746 301.834C141.068 301.691 141.422 301.619 141.806 301.619C142.414 301.619 142.891 301.772 143.236 302.078C143.581 302.381 143.76 302.799 143.773 303.333V305.765C143.773 306.25 143.835 306.635 143.959 306.922V307H143.012ZM141.513 306.312C141.796 306.312 142.064 306.238 142.318 306.092C142.572 305.945 142.756 305.755 142.87 305.521V304.437H142.162C141.055 304.437 140.502 304.76 140.502 305.408C140.502 305.691 140.596 305.913 140.785 306.072C140.974 306.232 141.216 306.312 141.513 306.312ZM149.755 307H145.097V306.351L147.558 303.616C147.922 303.203 148.173 302.868 148.31 302.61C148.45 302.35 148.52 302.081 148.52 301.805C148.52 301.434 148.407 301.129 148.183 300.892C147.958 300.654 147.659 300.535 147.284 300.535C146.835 300.535 146.485 300.664 146.234 300.921C145.987 301.175 145.863 301.53 145.863 301.985H144.96C144.96 301.331 145.17 300.802 145.59 300.398C146.013 299.995 146.578 299.793 147.284 299.793C147.945 299.793 148.467 299.967 148.852 300.315C149.236 300.66 149.428 301.121 149.428 301.697C149.428 302.397 148.982 303.23 148.09 304.197L146.186 306.263H149.755V307ZM154.257 299.886V300.652H154.091C153.388 300.665 152.828 300.874 152.411 301.277C151.994 301.681 151.754 302.249 151.688 302.981C152.063 302.552 152.574 302.337 153.222 302.337C153.84 302.337 154.333 302.555 154.701 302.991C155.072 303.427 155.258 303.991 155.258 304.681C155.258 305.413 155.058 305.999 154.657 306.438C154.26 306.878 153.726 307.098 153.056 307.098C152.375 307.098 151.824 306.837 151.4 306.316C150.977 305.792 150.766 305.118 150.766 304.295V303.948C150.766 302.64 151.044 301.64 151.601 300.95C152.16 300.257 152.992 299.902 154.096 299.886H154.257ZM153.07 303.089C152.761 303.089 152.476 303.182 152.216 303.367C151.955 303.553 151.775 303.785 151.674 304.065V304.397C151.674 304.983 151.806 305.455 152.069 305.813C152.333 306.172 152.662 306.351 153.056 306.351C153.463 306.351 153.782 306.201 154.013 305.901C154.247 305.602 154.364 305.21 154.364 304.725C154.364 304.236 154.245 303.842 154.008 303.543C153.773 303.24 153.461 303.089 153.07 303.089ZM160.141 304.612H161.127V305.35H160.141V307H159.232V305.35H155.995V304.817L159.179 299.891H160.141V304.612ZM157.021 304.612H159.232V301.126L159.125 301.321L157.021 304.612ZM163.017 307H162.113V301.717H163.017V307ZM162.04 300.315C162.04 300.169 162.084 300.045 162.172 299.944C162.263 299.843 162.396 299.793 162.572 299.793C162.748 299.793 162.882 299.843 162.973 299.944C163.064 300.045 163.109 300.169 163.109 300.315C163.109 300.462 163.064 300.584 162.973 300.682C162.882 300.779 162.748 300.828 162.572 300.828C162.396 300.828 162.263 300.779 162.172 300.682C162.084 300.584 162.04 300.462 162.04 300.315ZM123.382 311.87H121.072V310.77H120.252V311.87H117.932V312.53H123.382V311.87ZM119.282 314.7C119.282 314.07 119.842 313.67 120.662 313.67C121.472 313.67 122.032 314.07 122.032 314.7C122.032 315.32 121.472 315.72 120.662 315.72C119.842 315.72 119.282 315.32 119.282 314.7ZM121.072 316.34C122.132 316.21 122.812 315.59 122.812 314.7C122.812 313.69 121.942 313.04 120.662 313.04C119.382 313.04 118.502 313.69 118.502 314.7C118.502 315.6 119.192 316.22 120.252 316.35V317.31C119.362 317.34 118.502 317.35 117.742 317.35L117.862 318.04C119.512 318.04 121.672 318.01 123.672 317.68L123.612 317.07C122.792 317.18 121.922 317.24 121.072 317.28V316.34ZM124.182 310.77V319.74H125.002V310.77H124.182ZM131.591 316.07V316.68H133.411V317.6H134.231V310.77H133.411V316.07H131.591ZM129.761 311.74C130.611 311.74 131.191 312.12 131.191 312.69C131.191 313.27 130.611 313.65 129.761 313.65C128.911 313.65 128.331 313.27 128.331 312.69C128.331 312.12 128.911 311.74 129.761 311.74ZM129.761 314.26C131.071 314.26 131.971 313.65 131.971 312.69C131.971 311.75 131.071 311.13 129.761 311.13C128.451 311.13 127.551 311.75 127.551 312.69C127.551 313.65 128.451 314.26 129.761 314.26ZM129.441 317.28H130.261V315.51C131.071 315.46 131.901 315.37 132.691 315.25L132.621 314.66C130.721 314.9 128.501 314.92 126.841 314.92L126.951 315.6C127.691 315.6 128.551 315.59 129.441 315.55V317.28ZM128.941 318.87V316.93H128.121V319.54H134.461V318.87H128.941ZM136.571 311.73V312.41H139.861C139.671 314.53 138.441 316.25 136.151 317.4L136.601 318.04C139.501 316.59 140.671 314.28 140.671 311.73H136.571ZM144.431 314.41H142.991V310.77H142.171V319.74H142.991V315.09H144.431V314.41ZM151.83 310.78V315.59H152.65V310.78H151.83ZM146.87 316.03V319.62H152.65V316.03H151.84V317.13H147.68V316.03H146.87ZM147.68 317.77H151.84V318.96H147.68V317.77ZM147.83 311.2C146.48 311.2 145.5 312.04 145.5 313.26C145.5 314.5 146.48 315.33 147.83 315.33C149.19 315.33 150.18 314.5 150.18 313.26C150.18 312.04 149.19 311.2 147.83 311.2ZM147.83 311.88C148.74 311.88 149.38 312.45 149.38 313.26C149.38 314.08 148.74 314.65 147.83 314.65C146.94 314.65 146.3 314.08 146.3 313.26C146.3 312.45 146.94 311.88 147.83 311.88ZM165.089 315.21H163.759C164.009 313.92 164.009 312.97 164.009 312.13V311.35H157.989V312.01H163.209V312.13C163.209 312.97 163.209 313.92 162.929 315.21H156.979V315.88H160.599V319.75H161.429V315.88H165.089V315.21ZM171.209 313.16V313.83H172.719V315.04H171.209V315.71H172.719V317.61H173.549V310.78H172.719V313.16H171.209ZM171.209 311.87H169.149V310.76H168.329V311.87H166.189V312.53H171.209V311.87ZM167.479 314.73C167.479 314.1 167.989 313.67 168.729 313.67C169.469 313.67 169.979 314.1 169.979 314.73C169.979 315.37 169.469 315.81 168.729 315.81C167.989 315.81 167.479 315.37 167.479 314.73ZM170.759 314.73C170.759 313.71 169.919 313.03 168.729 313.03C167.539 313.03 166.699 313.71 166.699 314.73C166.699 315.76 167.539 316.45 168.729 316.45C169.919 316.45 170.759 315.76 170.759 314.73ZM168.609 318.87V317.03H167.789V319.54H173.759V318.87H168.609Z" fill="black"/>
</svg>
