<svg width="1152" height="587" viewBox="0 0 1152 587" fill="none" xmlns="http://www.w3.org/2000/svg">
<path d="M0 0H1152V587H0V0Z" fill="white" fill-opacity="0.01"/>
<path d="M816.665 514H815.762V508.717H816.665V514ZM815.688 507.315C815.688 507.169 815.732 507.045 815.82 506.944C815.911 506.843 816.045 506.793 816.221 506.793C816.396 506.793 816.53 506.843 816.621 506.944C816.712 507.045 816.758 507.169 816.758 507.315C816.758 507.462 816.712 507.584 816.621 507.682C816.53 507.779 816.396 507.828 816.221 507.828C816.045 507.828 815.911 507.779 815.82 507.682C815.732 507.584 815.688 507.462 815.688 507.315ZM818.97 508.717L818.999 509.381C819.403 508.873 819.93 508.619 820.581 508.619C821.698 508.619 822.261 509.249 822.271 510.509V514H821.367V510.504C821.364 510.123 821.276 509.841 821.104 509.659C820.934 509.477 820.669 509.386 820.308 509.386C820.015 509.386 819.757 509.464 819.536 509.62C819.315 509.776 819.142 509.981 819.019 510.235V514H818.115V508.717H818.97ZM823.413 511.314C823.413 510.504 823.605 509.853 823.989 509.361C824.373 508.867 824.876 508.619 825.498 508.619C826.117 508.619 826.606 508.831 826.968 509.254V506.5H827.871V514H827.041L826.997 513.434C826.636 513.876 826.133 514.098 825.488 514.098C824.876 514.098 824.377 513.847 823.989 513.346C823.605 512.844 823.413 512.19 823.413 511.383V511.314ZM824.316 511.417C824.316 512.016 824.44 512.485 824.688 512.823C824.935 513.162 825.277 513.331 825.713 513.331C826.286 513.331 826.704 513.074 826.968 512.56V510.133C826.698 509.635 826.283 509.386 825.723 509.386C825.28 509.386 824.935 509.557 824.688 509.898C824.44 510.24 824.316 510.746 824.316 511.417ZM831.47 514.098C830.754 514.098 830.171 513.863 829.722 513.395C829.272 512.923 829.048 512.293 829.048 511.505V511.339C829.048 510.815 829.147 510.348 829.346 509.938C829.548 509.524 829.827 509.202 830.186 508.971C830.547 508.736 830.938 508.619 831.357 508.619C832.044 508.619 832.578 508.845 832.959 509.298C833.34 509.75 833.53 510.398 833.53 511.241V511.617H829.951C829.964 512.138 830.116 512.56 830.405 512.882C830.698 513.201 831.069 513.36 831.519 513.36C831.838 513.36 832.108 513.295 832.329 513.165C832.55 513.035 832.744 512.862 832.91 512.647L833.462 513.077C833.019 513.757 832.355 514.098 831.47 514.098ZM831.357 509.361C830.993 509.361 830.687 509.495 830.439 509.762C830.192 510.025 830.039 510.396 829.98 510.875H832.627V510.807C832.601 510.348 832.477 509.993 832.256 509.742C832.035 509.488 831.735 509.361 831.357 509.361ZM836.353 510.646L837.524 508.717H838.579L836.851 511.329L838.633 514H837.588L836.367 512.022L835.146 514H834.097L835.879 511.329L834.15 508.717H835.195L836.353 510.646ZM839.561 513.526C839.561 513.37 839.606 513.24 839.697 513.136C839.792 513.032 839.932 512.979 840.117 512.979C840.303 512.979 840.443 513.032 840.537 513.136C840.635 513.24 840.684 513.37 840.684 513.526C840.684 513.676 840.635 513.801 840.537 513.902C840.443 514.003 840.303 514.054 840.117 514.054C839.932 514.054 839.792 514.003 839.697 513.902C839.606 513.801 839.561 513.676 839.561 513.526ZM843.11 508.717V514.61C843.11 515.626 842.65 516.134 841.729 516.134C841.53 516.134 841.346 516.104 841.177 516.046V515.323C841.281 515.349 841.418 515.362 841.587 515.362C841.789 515.362 841.942 515.307 842.046 515.196C842.153 515.089 842.207 514.9 842.207 514.63V508.717H843.11ZM842.114 507.315C842.114 507.172 842.158 507.05 842.246 506.949C842.337 506.845 842.469 506.793 842.642 506.793C842.817 506.793 842.951 506.843 843.042 506.944C843.133 507.045 843.179 507.169 843.179 507.315C843.179 507.462 843.133 507.584 843.042 507.682C842.951 507.779 842.817 507.828 842.642 507.828C842.466 507.828 842.334 507.779 842.246 507.682C842.158 507.584 842.114 507.462 842.114 507.315ZM847.646 512.599C847.646 512.354 847.554 512.166 847.368 512.032C847.186 511.896 846.865 511.778 846.406 511.681C845.951 511.583 845.588 511.466 845.317 511.329C845.05 511.192 844.852 511.03 844.722 510.841C844.595 510.652 844.531 510.427 844.531 510.167C844.531 509.734 844.714 509.368 845.078 509.068C845.446 508.769 845.915 508.619 846.484 508.619C847.083 508.619 847.568 508.774 847.939 509.083C848.314 509.392 848.501 509.788 848.501 510.27H847.593C847.593 510.022 847.487 509.809 847.275 509.63C847.067 509.451 846.803 509.361 846.484 509.361C846.156 509.361 845.898 509.433 845.713 509.576C845.527 509.719 845.435 509.907 845.435 510.138C845.435 510.356 845.521 510.52 845.693 510.631C845.866 510.742 846.177 510.847 846.626 510.948C847.078 511.049 847.445 511.17 847.725 511.31C848.005 511.45 848.211 511.619 848.345 511.817C848.481 512.013 848.55 512.252 848.55 512.535C848.55 513.007 848.361 513.386 847.983 513.673C847.606 513.956 847.116 514.098 846.514 514.098C846.09 514.098 845.716 514.023 845.391 513.873C845.065 513.723 844.81 513.515 844.624 513.248C844.442 512.978 844.351 512.687 844.351 512.374H845.254C845.27 512.677 845.391 512.918 845.615 513.097C845.843 513.272 846.143 513.36 846.514 513.36C846.855 513.36 847.129 513.292 847.334 513.155C847.542 513.015 847.646 512.83 847.646 512.599Z" fill="#4000C7"/>
<path d="M841.746 484.016L835.938 478.252C835.776 478.091 835.558 478 835.328 478H823.864C823.386 478 823 478.383 823 478.857V501.143C823 501.617 823.386 502 823.864 502H841.136C841.614 502 842 501.617 842 501.143V484.624C842 484.396 841.908 484.177 841.746 484.016ZM840.008 485.018H834.929V479.977L840.008 485.018ZM840.057 500.071H824.943V479.929H833.094V485.714C833.094 486.013 833.213 486.299 833.426 486.51C833.638 486.721 833.927 486.839 834.227 486.839H840.057V500.071ZM832.284 492.839H827.318C827.199 492.839 827.102 492.936 827.102 493.054V494.339C827.102 494.457 827.199 494.554 827.318 494.554H832.284C832.403 494.554 832.5 494.457 832.5 494.339V493.054C832.5 492.936 832.403 492.839 832.284 492.839ZM827.102 489.411V490.696C827.102 490.814 827.199 490.911 827.318 490.911H837.682C837.801 490.911 837.898 490.814 837.898 490.696V489.411C837.898 489.293 837.801 489.196 837.682 489.196H827.318C827.199 489.196 827.102 489.293 827.102 489.411Z" fill="#4000C7"/>
<path d="M802.374 492.332C802.557 492.125 802.538 491.809 802.332 491.626L798.963 488.642C798.756 488.459 798.44 488.478 798.257 488.685C798.074 488.892 798.093 489.208 798.3 489.391L801.294 492.043L798.642 495.037C798.459 495.244 798.478 495.56 798.685 495.743C798.892 495.926 799.208 495.907 799.391 495.7L802.374 492.332ZM173.03 530.626L802.03 492.499L801.97 491.501L172.97 529.628L173.03 530.626Z" fill="#4000C7"/>
</svg>
