<svg width="1152" height="587" viewBox="0 0 1152 587" fill="none" xmlns="http://www.w3.org/2000/svg">
<path d="M0 0H1152V587H0V0Z" fill="white" fill-opacity="0.01"/>
<path d="M384.34 190H383.397V186.714H379.813V190H378.876V182.891H379.813V185.947H383.397V182.891H384.34V190ZM390.023 186.714H386.942V189.233H390.521V190H386.005V182.891H390.473V183.662H386.942V185.947H390.023V186.714ZM395.614 188.145H392.636L391.967 190H391L393.715 182.891H394.535L397.255 190H396.293L395.614 188.145ZM392.919 187.373H395.336L394.125 184.048L392.919 187.373ZM398.212 190V182.891H400.219C400.837 182.891 401.384 183.027 401.859 183.301C402.335 183.574 402.701 183.963 402.958 184.468C403.218 184.972 403.35 185.552 403.354 186.206V186.66C403.354 187.331 403.223 187.918 402.963 188.423C402.706 188.927 402.336 189.315 401.854 189.585C401.376 189.855 400.818 189.993 400.18 190H398.212ZM399.149 183.662V189.233H400.136C400.858 189.233 401.42 189.009 401.82 188.56C402.224 188.11 402.426 187.471 402.426 186.641V186.226C402.426 185.418 402.235 184.792 401.854 184.346C401.477 183.896 400.94 183.669 400.243 183.662H399.149Z" fill="#4000C7"/>
<path d="M85.1863 207C83.5646 200.553 91.8523 186.272 137 187.029" stroke="#4000C7"/>
<rect x="297.824" y="196.124" width="18" height="70.7284" rx="5" transform="rotate(-90.1738 297.824 196.124)" fill="black"/>
<path d="M290.001 187.193L298.251 183.73L298.25 190.659L290.001 187.193Z" fill="black"/>
<path d="M307.157 190.549L307.156 185.505L306.237 185.505L306.237 184.737L307.156 184.737L307.155 184.141C307.155 183.518 307.322 183.036 307.655 182.696C307.988 182.356 308.458 182.186 309.067 182.185C309.296 182.185 309.524 182.216 309.749 182.277L309.696 183.082C309.527 183.05 309.348 183.034 309.159 183.034C308.836 183.034 308.588 183.129 308.412 183.319C308.237 183.505 308.149 183.774 308.149 184.125L308.149 184.737L309.39 184.737L309.39 185.505L308.149 185.505L308.15 190.548L307.157 190.549ZM312.775 190.655C311.987 190.655 311.346 190.397 310.852 189.882C310.358 189.363 310.11 188.67 310.11 187.803L310.11 187.621C310.11 187.044 310.219 186.53 310.438 186.079C310.659 185.624 310.967 185.27 311.361 185.016C311.759 184.758 312.188 184.629 312.65 184.629C313.406 184.629 313.993 184.877 314.412 185.375C314.831 185.873 315.041 186.585 315.041 187.513L315.041 187.926L311.104 187.927C311.118 188.5 311.285 188.963 311.604 189.318C311.926 189.669 312.334 189.844 312.828 189.844C313.179 189.844 313.476 189.772 313.72 189.629C313.963 189.486 314.176 189.296 314.359 189.06L314.966 189.532C314.479 190.281 313.749 190.655 312.775 190.655ZM312.65 185.445C312.249 185.445 311.913 185.592 311.641 185.886C311.369 186.176 311.2 186.584 311.136 187.11L314.047 187.11L314.047 187.035C314.018 186.53 313.882 186.14 313.639 185.864C313.395 185.585 313.066 185.445 312.65 185.445ZM319.784 190.546C319.727 190.432 319.68 190.228 319.644 189.934C319.182 190.414 318.631 190.654 317.99 190.654C317.417 190.654 316.946 190.493 316.577 190.171C316.212 189.845 316.029 189.433 316.029 188.936C316.029 188.331 316.258 187.861 316.717 187.528C317.178 187.192 317.827 187.023 318.661 187.023L319.628 187.023L319.628 186.566C319.627 186.219 319.524 185.943 319.316 185.739C319.108 185.532 318.802 185.428 318.397 185.428C318.043 185.428 317.746 185.518 317.506 185.697C317.266 185.876 317.146 186.092 317.146 186.347L316.147 186.347C316.147 186.057 316.249 185.777 316.453 185.509C316.661 185.237 316.94 185.022 317.291 184.864C317.645 184.707 318.034 184.628 318.456 184.628C319.126 184.627 319.651 184.796 320.03 185.132C320.41 185.465 320.607 185.925 320.621 186.512L320.622 189.187C320.622 189.721 320.69 190.145 320.826 190.46L320.826 190.546L319.784 190.546ZM318.135 189.789C318.446 189.789 318.742 189.709 319.021 189.547C319.3 189.386 319.503 189.177 319.628 188.919L319.628 187.727L318.849 187.727C317.632 187.727 317.023 188.083 317.023 188.796C317.023 189.107 317.127 189.351 317.335 189.526C317.542 189.702 317.809 189.789 318.135 189.789ZM323.526 183.327L323.527 184.734L324.612 184.734L324.612 185.502L323.527 185.502L323.527 189.106C323.527 189.339 323.576 189.514 323.673 189.633C323.769 189.747 323.934 189.804 324.167 189.804C324.281 189.804 324.439 189.783 324.639 189.74L324.64 190.545C324.378 190.617 324.124 190.653 323.877 190.653C323.433 190.653 323.098 190.519 322.872 190.25C322.647 189.982 322.534 189.601 322.534 189.106L322.533 185.502L321.475 185.503L321.475 184.734L322.533 184.734L322.533 183.327L323.526 183.327ZM325.977 191.217L325.123 191.217L328.387 182.724L329.236 182.724L325.977 191.217ZM333.695 189.002C333.695 188.734 333.593 188.526 333.389 188.379C333.188 188.229 332.835 188.1 332.33 187.993C331.829 187.885 331.43 187.757 331.133 187.606C330.839 187.456 330.621 187.277 330.477 187.069C330.338 186.862 330.268 186.615 330.268 186.328C330.268 185.852 330.468 185.449 330.869 185.12C331.274 184.79 331.789 184.625 332.416 184.625C333.075 184.625 333.608 184.795 334.016 185.135C334.428 185.475 334.634 185.91 334.634 186.44L333.635 186.44C333.635 186.168 333.519 185.934 333.286 185.737C333.057 185.54 332.767 185.441 332.416 185.441C332.054 185.442 331.771 185.52 331.567 185.678C331.363 185.836 331.261 186.041 331.261 186.296C331.261 186.536 331.356 186.716 331.546 186.838C331.736 186.96 332.078 187.076 332.572 187.187C333.07 187.298 333.473 187.43 333.781 187.584C334.089 187.738 334.316 187.924 334.463 188.143C334.613 188.358 334.688 188.621 334.689 188.932C334.689 189.451 334.481 189.869 334.066 190.184C333.65 190.495 333.112 190.651 332.449 190.651C331.984 190.652 331.572 190.569 331.214 190.405C330.856 190.24 330.574 190.011 330.37 189.717C330.17 189.42 330.069 189.1 330.069 188.756L331.063 188.756C331.081 189.089 331.214 189.354 331.461 189.551C331.711 189.744 332.041 189.84 332.449 189.84C332.825 189.84 333.126 189.765 333.351 189.615C333.58 189.461 333.695 189.257 333.695 189.002ZM337.063 190.543L336.069 190.543L336.068 184.732L337.062 184.732L337.063 190.543ZM335.987 183.19C335.987 183.029 336.036 182.893 336.132 182.782C336.232 182.671 336.379 182.616 336.573 182.616C336.766 182.616 336.913 182.671 337.013 182.782C337.113 182.893 337.164 183.029 337.164 183.19C337.164 183.351 337.113 183.486 337.013 183.593C336.913 183.7 336.766 183.754 336.573 183.754C336.379 183.754 336.233 183.701 336.132 183.593C336.036 183.486 335.987 183.351 335.987 183.19ZM338.421 187.589C338.421 186.683 338.63 185.963 339.049 185.43C339.468 184.892 340.023 184.624 340.714 184.624C341.423 184.623 341.976 184.874 342.374 185.375L342.422 184.731L343.33 184.731L343.331 190.402C343.331 191.154 343.107 191.747 342.66 192.18C342.216 192.614 341.618 192.83 340.866 192.831C340.447 192.831 340.037 192.741 339.636 192.562C339.235 192.383 338.929 192.138 338.717 191.827L339.233 191.23C339.659 191.757 340.18 192.02 340.796 192.02C341.279 192.019 341.655 191.883 341.924 191.611C342.196 191.339 342.332 190.956 342.332 190.462L342.332 189.962C341.934 190.421 341.392 190.65 340.704 190.65C340.024 190.65 339.473 190.376 339.05 189.828C338.631 189.281 338.421 188.534 338.421 187.589ZM339.42 187.701C339.42 188.357 339.555 188.872 339.823 189.248C340.092 189.621 340.468 189.807 340.951 189.807C341.578 189.807 342.038 189.522 342.332 188.952L342.331 186.299C342.027 185.744 341.57 185.467 340.961 185.467C340.478 185.467 340.1 185.655 339.828 186.031C339.556 186.407 339.42 186.964 339.42 187.701ZM345.774 184.73L345.806 185.461C346.25 184.902 346.83 184.622 347.546 184.622C348.774 184.622 349.394 185.315 349.405 186.701L349.406 190.541L348.412 190.541L348.411 186.695C348.408 186.276 348.311 185.967 348.121 185.766C347.935 185.566 347.643 185.466 347.246 185.466C346.923 185.466 346.64 185.552 346.397 185.724C346.153 185.896 345.964 186.121 345.828 186.4L345.828 190.542L344.835 190.542L344.834 184.73L345.774 184.73ZM354.492 189.965C354.105 190.42 353.538 190.648 352.789 190.648C352.17 190.648 351.697 190.469 351.371 190.111C351.049 189.749 350.886 189.216 350.882 188.51L350.882 184.729L351.875 184.729L351.876 188.483C351.876 189.364 352.234 189.805 352.95 189.804C353.71 189.804 354.214 189.521 354.465 188.956L354.464 184.729L355.458 184.728L355.459 190.54L354.514 190.54L354.492 189.965ZM361.882 187.697C361.882 188.582 361.68 189.294 361.276 189.835C360.871 190.376 360.323 190.646 359.632 190.647C358.927 190.647 358.372 190.423 357.967 189.975L357.968 192.774L356.974 192.774L356.972 184.728L357.88 184.728L357.929 185.372C358.333 184.871 358.895 184.62 359.615 184.62C360.313 184.62 360.865 184.883 361.269 185.409C361.678 185.936 361.882 186.668 361.882 187.606L361.882 187.697ZM360.888 187.585C360.888 186.93 360.749 186.412 360.469 186.033C360.19 185.653 359.807 185.463 359.32 185.463C358.718 185.464 358.267 185.73 357.966 186.264L357.967 189.041C358.264 189.571 358.719 189.836 359.331 189.836C359.808 189.835 360.185 189.647 360.464 189.271C360.747 188.892 360.889 188.33 360.888 187.585Z" fill="white"/>
<circle cx="145.5" cy="187.5" r="9.5" fill="#4000C7"/>
<circle cx="268.5" cy="187.5" r="9.5" fill="#4000C7"/>
<path d="M250.76 543.599C250.76 543.354 250.667 543.166 250.481 543.032C250.299 542.896 249.979 542.778 249.52 542.681C249.064 542.583 248.701 542.466 248.431 542.329C248.164 542.192 247.965 542.03 247.835 541.841C247.708 541.652 247.645 541.427 247.645 541.167C247.645 540.734 247.827 540.368 248.191 540.068C248.559 539.769 249.028 539.619 249.598 539.619C250.197 539.619 250.682 539.774 251.053 540.083C251.427 540.392 251.614 540.788 251.614 541.27H250.706C250.706 541.022 250.6 540.809 250.389 540.63C250.18 540.451 249.917 540.361 249.598 540.361C249.269 540.361 249.012 540.433 248.826 540.576C248.641 540.719 248.548 540.907 248.548 541.138C248.548 541.356 248.634 541.52 248.807 541.631C248.979 541.742 249.29 541.847 249.739 541.948C250.192 542.049 250.558 542.17 250.838 542.31C251.118 542.45 251.325 542.619 251.458 542.817C251.595 543.013 251.663 543.252 251.663 543.535C251.663 544.007 251.474 544.386 251.097 544.673C250.719 544.956 250.229 545.098 249.627 545.098C249.204 545.098 248.829 545.023 248.504 544.873C248.178 544.723 247.923 544.515 247.737 544.248C247.555 543.978 247.464 543.687 247.464 543.374H248.367C248.383 543.677 248.504 543.918 248.729 544.097C248.956 544.272 249.256 544.36 249.627 544.36C249.969 544.36 250.242 544.292 250.447 544.155C250.656 544.015 250.76 543.83 250.76 543.599ZM253.821 545H252.918V539.717H253.821V545ZM252.845 538.315C252.845 538.169 252.889 538.045 252.977 537.944C253.068 537.843 253.201 537.793 253.377 537.793C253.553 537.793 253.686 537.843 253.777 537.944C253.868 538.045 253.914 538.169 253.914 538.315C253.914 538.462 253.868 538.584 253.777 538.682C253.686 538.779 253.553 538.828 253.377 538.828C253.201 538.828 253.068 538.779 252.977 538.682C252.889 538.584 252.845 538.462 252.845 538.315ZM255.057 542.314C255.057 541.491 255.247 540.837 255.628 540.352C256.009 539.863 256.513 539.619 257.142 539.619C257.786 539.619 258.289 539.847 258.65 540.303L258.694 539.717H259.52V544.873C259.52 545.557 259.316 546.095 258.909 546.489C258.506 546.883 257.962 547.08 257.278 547.08C256.897 547.08 256.525 546.999 256.16 546.836C255.796 546.673 255.517 546.45 255.325 546.167L255.794 545.625C256.181 546.104 256.655 546.343 257.215 546.343C257.654 546.343 257.996 546.219 258.24 545.972C258.488 545.724 258.611 545.376 258.611 544.927V544.473C258.25 544.889 257.757 545.098 257.132 545.098C256.513 545.098 256.012 544.849 255.628 544.351C255.247 543.853 255.057 543.174 255.057 542.314ZM255.965 542.417C255.965 543.013 256.087 543.481 256.331 543.823C256.575 544.162 256.917 544.331 257.356 544.331C257.926 544.331 258.344 544.072 258.611 543.555V541.143C258.335 540.638 257.92 540.386 257.366 540.386C256.927 540.386 256.583 540.557 256.336 540.898C256.089 541.24 255.965 541.746 255.965 542.417ZM261.741 539.717L261.771 540.381C262.174 539.873 262.701 539.619 263.353 539.619C264.469 539.619 265.032 540.249 265.042 541.509V545H264.139V541.504C264.135 541.123 264.048 540.841 263.875 540.659C263.706 540.477 263.44 540.386 263.079 540.386C262.786 540.386 262.529 540.464 262.308 540.62C262.086 540.776 261.914 540.981 261.79 541.235V545H260.887V539.717H261.741ZM269.666 544.478C269.314 544.891 268.799 545.098 268.118 545.098C267.555 545.098 267.125 544.935 266.829 544.609C266.536 544.281 266.388 543.796 266.385 543.154V539.717H267.288V543.13C267.288 543.931 267.614 544.331 268.265 544.331C268.955 544.331 269.414 544.074 269.642 543.56V539.717H270.545V545H269.686L269.666 544.478ZM276.385 542.417C276.385 543.221 276.201 543.869 275.833 544.36C275.465 544.852 274.967 545.098 274.339 545.098C273.698 545.098 273.193 544.894 272.825 544.487V547.031H271.922V539.717H272.747L272.791 540.303C273.159 539.847 273.67 539.619 274.324 539.619C274.959 539.619 275.46 539.858 275.828 540.337C276.199 540.815 276.385 541.481 276.385 542.334V542.417ZM275.481 542.314C275.481 541.719 275.354 541.248 275.101 540.903C274.847 540.558 274.498 540.386 274.056 540.386C273.509 540.386 273.099 540.628 272.825 541.113V543.638C273.095 544.119 273.509 544.36 274.065 544.36C274.498 544.36 274.842 544.189 275.096 543.848C275.353 543.503 275.481 542.992 275.481 542.314ZM277.557 544.526C277.557 544.37 277.602 544.24 277.693 544.136C277.788 544.032 277.928 543.979 278.113 543.979C278.299 543.979 278.439 544.032 278.533 544.136C278.631 544.24 278.68 544.37 278.68 544.526C278.68 544.676 278.631 544.801 278.533 544.902C278.439 545.003 278.299 545.054 278.113 545.054C277.928 545.054 277.788 545.003 277.693 544.902C277.602 544.801 277.557 544.676 277.557 544.526ZM281.106 539.717V545.61C281.106 546.626 280.646 547.134 279.725 547.134C279.526 547.134 279.342 547.104 279.173 547.046V546.323C279.277 546.349 279.414 546.362 279.583 546.362C279.785 546.362 279.938 546.307 280.042 546.196C280.149 546.089 280.203 545.9 280.203 545.63V539.717H281.106ZM280.11 538.315C280.11 538.172 280.154 538.05 280.242 537.949C280.333 537.845 280.465 537.793 280.638 537.793C280.813 537.793 280.947 537.843 281.038 537.944C281.129 538.045 281.175 538.169 281.175 538.315C281.175 538.462 281.129 538.584 281.038 538.682C280.947 538.779 280.813 538.828 280.638 538.828C280.462 538.828 280.33 538.779 280.242 538.682C280.154 538.584 280.11 538.462 280.11 538.315ZM285.643 543.599C285.643 543.354 285.55 543.166 285.364 543.032C285.182 542.896 284.861 542.778 284.402 542.681C283.947 542.583 283.584 542.466 283.313 542.329C283.047 542.192 282.848 542.03 282.718 541.841C282.591 541.652 282.527 541.427 282.527 541.167C282.527 540.734 282.71 540.368 283.074 540.068C283.442 539.769 283.911 539.619 284.48 539.619C285.079 539.619 285.564 539.774 285.936 540.083C286.31 540.392 286.497 540.788 286.497 541.27H285.589C285.589 541.022 285.483 540.809 285.271 540.63C285.063 540.451 284.799 540.361 284.48 540.361C284.152 540.361 283.895 540.433 283.709 540.576C283.523 540.719 283.431 540.907 283.431 541.138C283.431 541.356 283.517 541.52 283.689 541.631C283.862 541.742 284.173 541.847 284.622 541.948C285.075 542.049 285.441 542.17 285.721 542.31C286.001 542.45 286.207 542.619 286.341 542.817C286.478 543.013 286.546 543.252 286.546 543.535C286.546 544.007 286.357 544.386 285.979 544.673C285.602 544.956 285.112 545.098 284.51 545.098C284.087 545.098 283.712 545.023 283.387 544.873C283.061 544.723 282.806 544.515 282.62 544.248C282.438 543.978 282.347 543.687 282.347 543.374H283.25C283.266 543.677 283.387 543.918 283.611 544.097C283.839 544.272 284.139 544.36 284.51 544.36C284.852 544.36 285.125 544.292 285.33 544.155C285.538 544.015 285.643 543.83 285.643 543.599Z" fill="#4000C7"/>
<path d="M276.746 515.016L270.938 509.252C270.776 509.091 270.558 509 270.328 509H258.864C258.386 509 258 509.383 258 509.857V532.143C258 532.617 258.386 533 258.864 533H276.136C276.614 533 277 532.617 277 532.143V515.624C277 515.396 276.908 515.177 276.746 515.016ZM275.008 516.018H269.929V510.977L275.008 516.018ZM275.057 531.071H259.943V510.929H268.094V516.714C268.094 517.013 268.213 517.299 268.426 517.51C268.638 517.721 268.927 517.839 269.227 517.839H275.057V531.071ZM267.284 523.839H262.318C262.199 523.839 262.102 523.936 262.102 524.054V525.339C262.102 525.457 262.199 525.554 262.318 525.554H267.284C267.403 525.554 267.5 525.457 267.5 525.339V524.054C267.5 523.936 267.403 523.839 267.284 523.839ZM262.102 520.411V521.696C262.102 521.814 262.199 521.911 262.318 521.911H272.682C272.801 521.911 272.898 521.814 272.898 521.696V520.411C272.898 520.293 272.801 520.196 272.682 520.196H262.318C262.199 520.196 262.102 520.293 262.102 520.411Z" fill="#4000C7"/>
<line x1="155" y1="187.5" x2="259" y2="187.5" stroke="#4000C7"/>
<path d="M250.083 151.006H250.762C251.188 150.999 251.523 150.887 251.768 150.669C252.012 150.451 252.134 150.156 252.134 149.785C252.134 148.952 251.719 148.535 250.889 148.535C250.498 148.535 250.186 148.647 249.951 148.872C249.72 149.093 249.604 149.388 249.604 149.756H248.701C248.701 149.193 248.906 148.726 249.316 148.354C249.73 147.98 250.254 147.793 250.889 147.793C251.559 147.793 252.085 147.97 252.466 148.325C252.847 148.68 253.037 149.173 253.037 149.805C253.037 150.114 252.936 150.413 252.734 150.703C252.536 150.993 252.264 151.209 251.919 151.353C252.31 151.476 252.611 151.681 252.822 151.968C253.037 152.254 253.145 152.604 253.145 153.018C253.145 153.656 252.936 154.162 252.52 154.536C252.103 154.91 251.561 155.098 250.894 155.098C250.226 155.098 249.683 154.917 249.263 154.556C248.846 154.194 248.638 153.717 248.638 153.125H249.546C249.546 153.499 249.668 153.799 249.912 154.023C250.156 154.248 250.483 154.36 250.894 154.36C251.33 154.36 251.663 154.246 251.895 154.019C252.126 153.791 252.241 153.464 252.241 153.037C252.241 152.624 252.114 152.306 251.86 152.085C251.606 151.864 251.24 151.75 250.762 151.743H250.083V151.006ZM256.597 154.36C256.919 154.36 257.201 154.263 257.441 154.067C257.682 153.872 257.816 153.628 257.842 153.335H258.696C258.68 153.638 258.576 153.926 258.384 154.199C258.192 154.473 257.935 154.691 257.612 154.854C257.293 155.016 256.955 155.098 256.597 155.098C255.877 155.098 255.304 154.858 254.878 154.38C254.455 153.898 254.243 153.241 254.243 152.407V152.256C254.243 151.742 254.338 151.284 254.526 150.884C254.715 150.483 254.985 150.173 255.337 149.951C255.692 149.73 256.11 149.619 256.592 149.619C257.184 149.619 257.676 149.797 258.066 150.151C258.46 150.506 258.67 150.967 258.696 151.533H257.842C257.816 151.191 257.686 150.911 257.451 150.693C257.22 150.472 256.934 150.361 256.592 150.361C256.133 150.361 255.776 150.527 255.522 150.859C255.272 151.188 255.146 151.665 255.146 152.29V152.461C255.146 153.07 255.272 153.538 255.522 153.867C255.773 154.196 256.131 154.36 256.597 154.36ZM261.904 155.098C261.188 155.098 260.605 154.863 260.156 154.395C259.707 153.923 259.482 153.293 259.482 152.505V152.339C259.482 151.815 259.582 151.348 259.78 150.938C259.982 150.524 260.262 150.202 260.62 149.971C260.981 149.736 261.372 149.619 261.792 149.619C262.479 149.619 263.013 149.845 263.394 150.298C263.774 150.75 263.965 151.398 263.965 152.241V152.617H260.386C260.399 153.138 260.55 153.56 260.84 153.882C261.133 154.201 261.504 154.36 261.953 154.36C262.272 154.36 262.542 154.295 262.764 154.165C262.985 154.035 263.179 153.862 263.345 153.647L263.896 154.077C263.454 154.757 262.79 155.098 261.904 155.098ZM261.792 150.361C261.427 150.361 261.121 150.495 260.874 150.762C260.627 151.025 260.474 151.396 260.415 151.875H263.062V151.807C263.035 151.348 262.912 150.993 262.69 150.742C262.469 150.488 262.17 150.361 261.792 150.361ZM266.235 151.006H266.914C267.34 150.999 267.676 150.887 267.92 150.669C268.164 150.451 268.286 150.156 268.286 149.785C268.286 148.952 267.871 148.535 267.041 148.535C266.65 148.535 266.338 148.647 266.104 148.872C265.872 149.093 265.757 149.388 265.757 149.756H264.854C264.854 149.193 265.059 148.726 265.469 148.354C265.882 147.98 266.406 147.793 267.041 147.793C267.712 147.793 268.237 147.97 268.618 148.325C268.999 148.68 269.189 149.173 269.189 149.805C269.189 150.114 269.089 150.413 268.887 150.703C268.688 150.993 268.416 151.209 268.071 151.353C268.462 151.476 268.763 151.681 268.975 151.968C269.189 152.254 269.297 152.604 269.297 153.018C269.297 153.656 269.089 154.162 268.672 154.536C268.255 154.91 267.713 155.098 267.046 155.098C266.379 155.098 265.835 154.917 265.415 154.556C264.998 154.194 264.79 153.717 264.79 153.125H265.698C265.698 153.499 265.82 153.799 266.064 154.023C266.309 154.248 266.636 154.36 267.046 154.36C267.482 154.36 267.816 154.246 268.047 154.019C268.278 153.791 268.394 153.464 268.394 153.037C268.394 152.624 268.267 152.306 268.013 152.085C267.759 151.864 267.393 151.75 266.914 151.743H266.235V151.006ZM273.999 151.875C273.81 152.1 273.584 152.28 273.32 152.417C273.06 152.554 272.773 152.622 272.461 152.622C272.051 152.622 271.693 152.521 271.387 152.319C271.084 152.118 270.85 151.834 270.684 151.47C270.518 151.102 270.435 150.697 270.435 150.254C270.435 149.779 270.524 149.351 270.703 148.97C270.885 148.589 271.143 148.298 271.475 148.096C271.807 147.894 272.194 147.793 272.637 147.793C273.34 147.793 273.893 148.057 274.297 148.584C274.704 149.108 274.907 149.824 274.907 150.732V150.996C274.907 152.38 274.634 153.39 274.087 154.028C273.54 154.663 272.715 154.989 271.611 155.005H271.436V154.243H271.626C272.371 154.23 272.944 154.036 273.345 153.662C273.745 153.285 273.963 152.689 273.999 151.875ZM272.607 151.875C272.91 151.875 273.188 151.782 273.442 151.597C273.7 151.411 273.887 151.182 274.004 150.908V150.547C274.004 149.954 273.875 149.473 273.618 149.102C273.361 148.73 273.035 148.545 272.642 148.545C272.244 148.545 271.925 148.698 271.685 149.004C271.444 149.307 271.323 149.707 271.323 150.205C271.323 150.69 271.439 151.09 271.67 151.406C271.904 151.719 272.217 151.875 272.607 151.875ZM279.966 152.612H280.952V153.35H279.966V155H279.058V153.35H275.82V152.817L279.004 147.891H279.966V152.612ZM276.846 152.612H279.058V149.126L278.95 149.321L276.846 152.612ZM281.641 152.314C281.641 151.504 281.833 150.853 282.217 150.361C282.601 149.867 283.104 149.619 283.726 149.619C284.344 149.619 284.834 149.831 285.195 150.254V147.5H286.099V155H285.269L285.225 154.434C284.863 154.876 284.36 155.098 283.716 155.098C283.104 155.098 282.604 154.847 282.217 154.346C281.833 153.844 281.641 153.19 281.641 152.383V152.314ZM282.544 152.417C282.544 153.016 282.668 153.485 282.915 153.823C283.162 154.162 283.504 154.331 283.94 154.331C284.513 154.331 284.932 154.074 285.195 153.56V151.133C284.925 150.635 284.51 150.386 283.95 150.386C283.507 150.386 283.162 150.557 282.915 150.898C282.668 151.24 282.544 151.746 282.544 152.417ZM245.692 163.15C244.122 162.87 242.412 161.55 242.412 160.06V159.37H241.552V160.06C241.552 161.55 239.852 162.87 238.282 163.15L238.622 163.83C240.002 163.54 241.402 162.61 241.982 161.33C242.562 162.61 243.972 163.54 245.342 163.83L245.692 163.15ZM242.392 165.9V163.72H241.572V165.9H237.952V166.57H246.092V165.9H242.392ZM253.711 163.48H254.541V158.78H253.711V159.69H251.951V160.34H253.711V161.3H251.951V161.95H253.711V163.48ZM252.391 162.69C251.101 162.25 250.191 161.14 250.191 159.94V159H249.381V159.94C249.381 161.19 248.481 162.39 247.151 162.88L247.571 163.5C248.611 163.12 249.421 162.3 249.801 161.28C250.191 162.21 250.971 162.96 251.971 163.33L252.391 162.69ZM249.591 166.98V166.03H254.541V163.92H248.761V164.55H253.731V165.42H248.781V167.62H254.881V166.98H249.591ZM259.311 159.73V160.41H262.601C262.411 162.53 261.181 164.25 258.891 165.4L259.341 166.04C262.241 164.59 263.411 162.28 263.411 159.73H259.311ZM267.171 162.41H265.731V158.77H264.911V167.74H265.731V163.09H267.171V162.41ZM274.57 158.78V163.59H275.39V158.78H274.57ZM269.61 164.03V167.62H275.39V164.03H274.58V165.13H270.42V164.03H269.61ZM270.42 165.77H274.58V166.96H270.42V165.77ZM270.57 159.2C269.22 159.2 268.24 160.04 268.24 161.26C268.24 162.5 269.22 163.33 270.57 163.33C271.93 163.33 272.92 162.5 272.92 161.26C272.92 160.04 271.93 159.2 270.57 159.2ZM270.57 159.88C271.48 159.88 272.12 160.45 272.12 161.26C272.12 162.08 271.48 162.65 270.57 162.65C269.68 162.65 269.04 162.08 269.04 161.26C269.04 160.45 269.68 159.88 270.57 159.88ZM287.83 163.21H286.5C286.75 161.92 286.75 160.97 286.75 160.13V159.35H280.73V160.01H285.95V160.13C285.95 160.97 285.95 161.92 285.67 163.21H279.72V163.88H283.34V167.75H284.17V163.88H287.83V163.21ZM293.949 161.16V161.83H295.459V163.04H293.949V163.71H295.459V165.61H296.289V158.78H295.459V161.16H293.949ZM293.949 159.87H291.889V158.76H291.069V159.87H288.929V160.53H293.949V159.87ZM290.219 162.73C290.219 162.1 290.729 161.67 291.469 161.67C292.209 161.67 292.719 162.1 292.719 162.73C292.719 163.37 292.209 163.81 291.469 163.81C290.729 163.81 290.219 163.37 290.219 162.73ZM293.499 162.73C293.499 161.71 292.659 161.03 291.469 161.03C290.279 161.03 289.439 161.71 289.439 162.73C289.439 163.76 290.279 164.45 291.469 164.45C292.659 164.45 293.499 163.76 293.499 162.73ZM291.349 166.87V165.03H290.529V167.54H296.499V166.87H291.349Z" fill="black"/>
<path d="M133.466 155H128.808V154.351L131.269 151.616C131.633 151.203 131.884 150.868 132.021 150.61C132.16 150.35 132.23 150.081 132.23 149.805C132.23 149.434 132.118 149.129 131.894 148.892C131.669 148.654 131.369 148.535 130.995 148.535C130.546 148.535 130.196 148.664 129.945 148.921C129.698 149.175 129.574 149.53 129.574 149.985H128.671C128.671 149.331 128.881 148.802 129.301 148.398C129.724 147.995 130.289 147.793 130.995 147.793C131.656 147.793 132.178 147.967 132.562 148.315C132.947 148.66 133.139 149.121 133.139 149.697C133.139 150.397 132.693 151.23 131.801 152.197L129.896 154.263H133.466V155ZM136.635 154.36C136.957 154.36 137.239 154.263 137.479 154.067C137.72 153.872 137.854 153.628 137.88 153.335H138.734C138.718 153.638 138.614 153.926 138.422 154.199C138.23 154.473 137.973 154.691 137.65 154.854C137.331 155.016 136.993 155.098 136.635 155.098C135.915 155.098 135.342 154.858 134.916 154.38C134.493 153.898 134.281 153.241 134.281 152.407V152.256C134.281 151.742 134.376 151.284 134.564 150.884C134.753 150.483 135.023 150.173 135.375 149.951C135.73 149.73 136.148 149.619 136.63 149.619C137.222 149.619 137.714 149.797 138.104 150.151C138.498 150.506 138.708 150.967 138.734 151.533H137.88C137.854 151.191 137.724 150.911 137.489 150.693C137.258 150.472 136.972 150.361 136.63 150.361C136.171 150.361 135.814 150.527 135.561 150.859C135.31 151.188 135.185 151.665 135.185 152.29V152.461C135.185 153.07 135.31 153.538 135.561 153.867C135.811 154.196 136.169 154.36 136.635 154.36ZM143.012 155C142.96 154.896 142.917 154.71 142.885 154.443C142.465 154.88 141.964 155.098 141.381 155.098C140.86 155.098 140.432 154.951 140.097 154.658C139.765 154.362 139.599 153.988 139.599 153.535C139.599 152.985 139.807 152.559 140.224 152.256C140.644 151.95 141.233 151.797 141.991 151.797H142.87V151.382C142.87 151.066 142.776 150.815 142.587 150.63C142.398 150.441 142.12 150.347 141.752 150.347C141.43 150.347 141.16 150.428 140.941 150.591C140.723 150.754 140.614 150.951 140.614 151.182H139.706C139.706 150.918 139.799 150.664 139.984 150.42C140.173 150.173 140.427 149.977 140.746 149.834C141.068 149.691 141.422 149.619 141.806 149.619C142.414 149.619 142.891 149.772 143.236 150.078C143.581 150.381 143.76 150.799 143.773 151.333V153.765C143.773 154.25 143.835 154.635 143.959 154.922V155H143.012ZM141.513 154.312C141.796 154.312 142.064 154.238 142.318 154.092C142.572 153.945 142.756 153.755 142.87 153.521V152.437H142.162C141.055 152.437 140.502 152.76 140.502 153.408C140.502 153.691 140.596 153.913 140.785 154.072C140.974 154.232 141.216 154.312 141.513 154.312ZM149.755 155H145.097V154.351L147.558 151.616C147.922 151.203 148.173 150.868 148.31 150.61C148.45 150.35 148.52 150.081 148.52 149.805C148.52 149.434 148.407 149.129 148.183 148.892C147.958 148.654 147.659 148.535 147.284 148.535C146.835 148.535 146.485 148.664 146.234 148.921C145.987 149.175 145.863 149.53 145.863 149.985H144.96C144.96 149.331 145.17 148.802 145.59 148.398C146.013 147.995 146.578 147.793 147.284 147.793C147.945 147.793 148.467 147.967 148.852 148.315C149.236 148.66 149.428 149.121 149.428 149.697C149.428 150.397 148.982 151.23 148.09 152.197L146.186 154.263H149.755V155ZM154.257 147.886V148.652H154.091C153.388 148.665 152.828 148.874 152.411 149.277C151.994 149.681 151.754 150.249 151.688 150.981C152.063 150.552 152.574 150.337 153.222 150.337C153.84 150.337 154.333 150.555 154.701 150.991C155.072 151.427 155.258 151.991 155.258 152.681C155.258 153.413 155.058 153.999 154.657 154.438C154.26 154.878 153.726 155.098 153.056 155.098C152.375 155.098 151.824 154.837 151.4 154.316C150.977 153.792 150.766 153.118 150.766 152.295V151.948C150.766 150.64 151.044 149.64 151.601 148.95C152.16 148.257 152.992 147.902 154.096 147.886H154.257ZM153.07 151.089C152.761 151.089 152.476 151.182 152.216 151.367C151.955 151.553 151.775 151.785 151.674 152.065V152.397C151.674 152.983 151.806 153.455 152.069 153.813C152.333 154.172 152.662 154.351 153.056 154.351C153.463 154.351 153.782 154.201 154.013 153.901C154.247 153.602 154.364 153.21 154.364 152.725C154.364 152.236 154.245 151.842 154.008 151.543C153.773 151.24 153.461 151.089 153.07 151.089ZM160.141 152.612H161.127V153.35H160.141V155H159.232V153.35H155.995V152.817L159.179 147.891H160.141V152.612ZM157.021 152.612H159.232V149.126L159.125 149.321L157.021 152.612ZM163.017 155H162.113V149.717H163.017V155ZM162.04 148.315C162.04 148.169 162.084 148.045 162.172 147.944C162.263 147.843 162.396 147.793 162.572 147.793C162.748 147.793 162.882 147.843 162.973 147.944C163.064 148.045 163.109 148.169 163.109 148.315C163.109 148.462 163.064 148.584 162.973 148.682C162.882 148.779 162.748 148.828 162.572 148.828C162.396 148.828 162.263 148.779 162.172 148.682C162.084 148.584 162.04 148.462 162.04 148.315ZM123.382 159.87H121.072V158.77H120.252V159.87H117.932V160.53H123.382V159.87ZM119.282 162.7C119.282 162.07 119.842 161.67 120.662 161.67C121.472 161.67 122.032 162.07 122.032 162.7C122.032 163.32 121.472 163.72 120.662 163.72C119.842 163.72 119.282 163.32 119.282 162.7ZM121.072 164.34C122.132 164.21 122.812 163.59 122.812 162.7C122.812 161.69 121.942 161.04 120.662 161.04C119.382 161.04 118.502 161.69 118.502 162.7C118.502 163.6 119.192 164.22 120.252 164.35V165.31C119.362 165.34 118.502 165.35 117.742 165.35L117.862 166.04C119.512 166.04 121.672 166.01 123.672 165.68L123.612 165.07C122.792 165.18 121.922 165.24 121.072 165.28V164.34ZM124.182 158.77V167.74H125.002V158.77H124.182ZM131.591 164.07V164.68H133.411V165.6H134.231V158.77H133.411V164.07H131.591ZM129.761 159.74C130.611 159.74 131.191 160.12 131.191 160.69C131.191 161.27 130.611 161.65 129.761 161.65C128.911 161.65 128.331 161.27 128.331 160.69C128.331 160.12 128.911 159.74 129.761 159.74ZM129.761 162.26C131.071 162.26 131.971 161.65 131.971 160.69C131.971 159.75 131.071 159.13 129.761 159.13C128.451 159.13 127.551 159.75 127.551 160.69C127.551 161.65 128.451 162.26 129.761 162.26ZM129.441 165.28H130.261V163.51C131.071 163.46 131.901 163.37 132.691 163.25L132.621 162.66C130.721 162.9 128.501 162.92 126.841 162.92L126.951 163.6C127.691 163.6 128.551 163.59 129.441 163.55V165.28ZM128.941 166.87V164.93H128.121V167.54H134.461V166.87H128.941ZM136.571 159.73V160.41H139.861C139.671 162.53 138.441 164.25 136.151 165.4L136.601 166.04C139.501 164.59 140.671 162.28 140.671 159.73H136.571ZM144.431 162.41H142.991V158.77H142.171V167.74H142.991V163.09H144.431V162.41ZM151.83 158.78V163.59H152.65V158.78H151.83ZM146.87 164.03V167.62H152.65V164.03H151.84V165.13H147.68V164.03H146.87ZM147.68 165.77H151.84V166.96H147.68V165.77ZM147.83 159.2C146.48 159.2 145.5 160.04 145.5 161.26C145.5 162.5 146.48 163.33 147.83 163.33C149.19 163.33 150.18 162.5 150.18 161.26C150.18 160.04 149.19 159.2 147.83 159.2ZM147.83 159.88C148.74 159.88 149.38 160.45 149.38 161.26C149.38 162.08 148.74 162.65 147.83 162.65C146.94 162.65 146.3 162.08 146.3 161.26C146.3 160.45 146.94 159.88 147.83 159.88ZM165.089 163.21H163.759C164.009 161.92 164.009 160.97 164.009 160.13V159.35H157.989V160.01H163.209V160.13C163.209 160.97 163.209 161.92 162.929 163.21H156.979V163.88H160.599V167.75H161.429V163.88H165.089V163.21ZM171.209 161.16V161.83H172.719V163.04H171.209V163.71H172.719V165.61H173.549V158.78H172.719V161.16H171.209ZM171.209 159.87H169.149V158.76H168.329V159.87H166.189V160.53H171.209V159.87ZM167.479 162.73C167.479 162.1 167.989 161.67 168.729 161.67C169.469 161.67 169.979 162.1 169.979 162.73C169.979 163.37 169.469 163.81 168.729 163.81C167.989 163.81 167.479 163.37 167.479 162.73ZM170.759 162.73C170.759 161.71 169.919 161.03 168.729 161.03C167.539 161.03 166.699 161.71 166.699 162.73C166.699 163.76 167.539 164.45 168.729 164.45C169.919 164.45 170.759 163.76 170.759 162.73ZM168.609 166.87V165.03H167.789V167.54H173.759V166.87H168.609Z" fill="black"/>
</svg>
