<svg width="1152" height="587" viewBox="0 0 1152 587" fill="none" xmlns="http://www.w3.org/2000/svg">
<path d="M0 0H1152V587H0V0Z" fill="white" fill-opacity="0.01"/>
<path d="M384.34 342H383.397V338.714H379.813V342H378.876V334.891H379.813V337.947H383.397V334.891H384.34V342ZM390.023 338.714H386.942V341.233H390.521V342H386.005V334.891H390.473V335.662H386.942V337.947H390.023V338.714ZM395.614 340.145H392.636L391.967 342H391L393.715 334.891H394.535L397.255 342H396.293L395.614 340.145ZM392.919 339.373H395.336L394.125 336.048L392.919 339.373ZM398.212 342V334.891H400.219C400.837 334.891 401.384 335.027 401.859 335.301C402.335 335.574 402.701 335.963 402.958 336.468C403.218 336.972 403.35 337.552 403.354 338.206V338.66C403.354 339.331 403.223 339.918 402.963 340.423C402.706 340.927 402.336 341.315 401.854 341.585C401.376 341.855 400.818 341.993 400.18 342H398.212ZM399.149 335.662V341.233H400.136C400.858 341.233 401.42 341.009 401.82 340.56C402.224 340.11 402.426 339.471 402.426 338.641V338.226C402.426 337.418 402.235 336.792 401.854 336.346C401.477 335.896 400.94 335.669 400.243 335.662H399.149Z" fill="#4000C7"/>
<rect x="297.824" y="348.124" width="18" height="70.7284" rx="5" transform="rotate(-90.1738 297.824 348.124)" fill="black"/>
<rect x="420.824" y="347.31" width="18" height="102.065" rx="5" transform="rotate(-90.1738 420.824 347.31)" fill="black"/>
<path d="M290.001 339.193L298.251 335.73L298.25 342.659L290.001 339.193Z" fill="black"/>
<path d="M413.001 338.379L421.251 334.916L421.25 341.844L413.001 338.379Z" fill="black"/>
<path d="M307.157 342.549L307.156 337.505L306.237 337.505L306.237 336.737L307.156 336.737L307.155 336.141C307.155 335.518 307.322 335.036 307.655 334.696C307.988 334.356 308.458 334.186 309.067 334.185C309.296 334.185 309.524 334.216 309.749 334.277L309.696 335.082C309.527 335.05 309.348 335.034 309.159 335.034C308.836 335.034 308.588 335.129 308.412 335.319C308.237 335.505 308.149 335.774 308.149 336.125L308.149 336.737L309.39 336.737L309.39 337.505L308.149 337.505L308.15 342.548L307.157 342.549ZM312.775 342.655C311.987 342.655 311.346 342.397 310.852 341.882C310.358 341.363 310.11 340.67 310.11 339.803L310.11 339.621C310.11 339.044 310.219 338.53 310.438 338.079C310.659 337.624 310.967 337.27 311.361 337.016C311.759 336.758 312.188 336.629 312.65 336.629C313.406 336.629 313.993 336.877 314.412 337.375C314.831 337.873 315.041 338.585 315.041 339.513L315.041 339.926L311.104 339.927C311.118 340.5 311.285 340.963 311.604 341.318C311.926 341.669 312.334 341.844 312.828 341.844C313.179 341.844 313.476 341.772 313.72 341.629C313.963 341.486 314.176 341.296 314.359 341.06L314.966 341.532C314.479 342.281 313.749 342.655 312.775 342.655ZM312.65 337.445C312.249 337.445 311.913 337.592 311.641 337.886C311.369 338.176 311.2 338.584 311.136 339.11L314.047 339.11L314.047 339.035C314.018 338.53 313.882 338.14 313.639 337.864C313.395 337.585 313.066 337.445 312.65 337.445ZM319.784 342.546C319.727 342.432 319.68 342.228 319.644 341.934C319.182 342.414 318.631 342.654 317.99 342.654C317.417 342.654 316.946 342.493 316.577 342.171C316.212 341.845 316.029 341.433 316.029 340.936C316.029 340.331 316.258 339.861 316.717 339.528C317.178 339.192 317.827 339.023 318.661 339.023L319.628 339.023L319.628 338.566C319.627 338.219 319.524 337.943 319.316 337.739C319.108 337.532 318.802 337.428 318.397 337.428C318.043 337.428 317.746 337.518 317.506 337.697C317.266 337.876 317.146 338.092 317.146 338.347L316.147 338.347C316.147 338.057 316.249 337.777 316.453 337.509C316.661 337.237 316.94 337.022 317.291 336.864C317.645 336.707 318.034 336.628 318.456 336.628C319.126 336.627 319.651 336.796 320.03 337.132C320.41 337.465 320.607 337.925 320.621 338.512L320.622 341.187C320.622 341.721 320.69 342.145 320.826 342.46L320.826 342.546L319.784 342.546ZM318.135 341.789C318.446 341.789 318.742 341.709 319.021 341.547C319.3 341.386 319.503 341.177 319.628 340.919L319.628 339.727L318.849 339.727C317.632 339.727 317.023 340.083 317.023 340.796C317.023 341.107 317.127 341.351 317.335 341.526C317.542 341.702 317.809 341.789 318.135 341.789ZM323.526 335.327L323.527 336.734L324.612 336.734L324.612 337.502L323.527 337.502L323.527 341.106C323.527 341.339 323.576 341.514 323.673 341.633C323.769 341.747 323.934 341.804 324.167 341.804C324.281 341.804 324.439 341.783 324.639 341.74L324.64 342.545C324.378 342.617 324.124 342.653 323.877 342.653C323.433 342.653 323.098 342.519 322.872 342.25C322.647 341.982 322.534 341.601 322.534 341.106L322.533 337.502L321.475 337.503L321.475 336.734L322.533 336.734L322.533 335.327L323.526 335.327ZM325.977 343.217L325.123 343.217L328.387 334.724L329.236 334.724L325.977 343.217ZM333.695 341.002C333.695 340.734 333.593 340.526 333.389 340.379C333.188 340.229 332.835 340.1 332.33 339.993C331.829 339.885 331.43 339.757 331.133 339.606C330.839 339.456 330.621 339.277 330.477 339.069C330.338 338.862 330.268 338.615 330.268 338.328C330.268 337.852 330.468 337.449 330.869 337.12C331.274 336.79 331.789 336.625 332.416 336.625C333.075 336.625 333.608 336.795 334.016 337.135C334.428 337.475 334.634 337.91 334.634 338.44L333.635 338.44C333.635 338.168 333.519 337.934 333.286 337.737C333.057 337.54 332.767 337.441 332.416 337.441C332.054 337.442 331.771 337.52 331.567 337.678C331.363 337.836 331.261 338.041 331.261 338.296C331.261 338.536 331.356 338.716 331.546 338.838C331.736 338.96 332.078 339.076 332.572 339.187C333.07 339.298 333.473 339.43 333.781 339.584C334.089 339.738 334.316 339.924 334.463 340.143C334.613 340.358 334.688 340.621 334.689 340.932C334.689 341.451 334.481 341.869 334.066 342.184C333.65 342.495 333.112 342.651 332.449 342.651C331.984 342.652 331.572 342.569 331.214 342.405C330.856 342.24 330.574 342.011 330.37 341.717C330.17 341.42 330.069 341.1 330.069 340.756L331.063 340.756C331.081 341.089 331.214 341.354 331.461 341.551C331.711 341.744 332.041 341.84 332.449 341.84C332.825 341.84 333.126 341.765 333.351 341.615C333.58 341.461 333.695 341.257 333.695 341.002ZM337.063 342.543L336.069 342.543L336.068 336.732L337.062 336.732L337.063 342.543ZM335.987 335.19C335.987 335.029 336.036 334.893 336.132 334.782C336.232 334.671 336.379 334.616 336.573 334.616C336.766 334.616 336.913 334.671 337.013 334.782C337.113 334.893 337.164 335.029 337.164 335.19C337.164 335.351 337.113 335.486 337.013 335.593C336.913 335.7 336.766 335.754 336.573 335.754C336.379 335.754 336.233 335.701 336.132 335.593C336.036 335.486 335.987 335.351 335.987 335.19ZM338.421 339.589C338.421 338.683 338.63 337.963 339.049 337.43C339.468 336.892 340.023 336.624 340.714 336.624C341.423 336.623 341.976 336.874 342.374 337.375L342.422 336.731L343.33 336.731L343.331 342.402C343.331 343.154 343.107 343.747 342.66 344.18C342.216 344.614 341.618 344.83 340.866 344.831C340.447 344.831 340.037 344.741 339.636 344.562C339.235 344.383 338.929 344.138 338.717 343.827L339.233 343.23C339.659 343.757 340.18 344.02 340.796 344.02C341.279 344.019 341.655 343.883 341.924 343.611C342.196 343.339 342.332 342.956 342.332 342.462L342.332 341.962C341.934 342.421 341.392 342.65 340.704 342.65C340.024 342.65 339.473 342.376 339.05 341.828C338.631 341.281 338.421 340.534 338.421 339.589ZM339.42 339.701C339.42 340.357 339.555 340.872 339.823 341.248C340.092 341.621 340.468 341.807 340.951 341.807C341.578 341.807 342.038 341.522 342.332 340.952L342.331 338.299C342.027 337.744 341.57 337.467 340.961 337.467C340.478 337.467 340.1 337.655 339.828 338.031C339.556 338.407 339.42 338.964 339.42 339.701ZM345.774 336.73L345.806 337.461C346.25 336.902 346.83 336.622 347.546 336.622C348.774 336.622 349.394 337.315 349.405 338.701L349.406 342.541L348.412 342.541L348.411 338.695C348.408 338.276 348.311 337.967 348.121 337.766C347.935 337.566 347.643 337.466 347.246 337.466C346.923 337.466 346.64 337.552 346.397 337.724C346.153 337.896 345.964 338.121 345.828 338.4L345.828 342.542L344.835 342.542L344.834 336.73L345.774 336.73ZM354.492 341.965C354.105 342.42 353.538 342.648 352.789 342.648C352.17 342.648 351.697 342.469 351.371 342.111C351.049 341.749 350.886 341.216 350.882 340.51L350.882 336.729L351.875 336.729L351.876 340.483C351.876 341.364 352.234 341.805 352.95 341.804C353.71 341.804 354.214 341.521 354.465 340.956L354.464 336.729L355.458 336.728L355.459 342.54L354.514 342.54L354.492 341.965ZM361.882 339.697C361.882 340.582 361.68 341.294 361.276 341.835C360.871 342.376 360.323 342.646 359.632 342.647C358.927 342.647 358.372 342.423 357.967 341.975L357.968 344.774L356.974 344.774L356.972 336.728L357.88 336.728L357.929 337.372C358.333 336.871 358.895 336.62 359.615 336.62C360.313 336.62 360.865 336.883 361.269 337.409C361.678 337.936 361.882 338.668 361.882 339.606L361.882 339.697ZM360.888 339.585C360.888 338.93 360.749 338.412 360.469 338.033C360.19 337.653 359.807 337.463 359.32 337.463C358.718 337.464 358.267 337.73 357.966 338.264L357.967 341.041C358.264 341.571 358.719 341.836 359.331 341.836C359.808 341.835 360.185 341.647 360.464 341.271C360.747 340.892 360.889 340.33 360.888 339.585Z" fill="white"/>
<path d="M430.157 341.734L430.156 336.691L429.237 336.691L429.237 335.923L430.156 335.923L430.155 335.326C430.155 334.703 430.322 334.222 430.655 333.882C430.988 333.541 431.458 333.371 432.067 333.371C432.296 333.371 432.524 333.401 432.749 333.462L432.696 334.268C432.527 334.236 432.348 334.22 432.159 334.22C431.836 334.22 431.588 334.315 431.412 334.504C431.237 334.691 431.149 334.959 431.149 335.31L431.149 335.922L432.39 335.922L432.39 336.69L431.149 336.691L431.15 341.734L430.157 341.734ZM435.775 341.841C434.987 341.841 434.346 341.583 433.852 341.067C433.358 340.548 433.11 339.856 433.11 338.989L433.11 338.806C433.11 338.23 433.219 337.716 433.438 337.265C433.659 336.81 433.967 336.455 434.361 336.201C434.759 335.943 435.188 335.814 435.65 335.814C436.406 335.814 436.993 336.063 437.412 336.56C437.831 337.058 438.041 337.771 438.041 338.698L438.041 339.112L434.104 339.112C434.118 339.685 434.285 340.149 434.604 340.503C434.926 340.854 435.334 341.03 435.828 341.03C436.179 341.029 436.476 340.958 436.72 340.815C436.963 340.671 437.176 340.481 437.359 340.245L437.966 340.718C437.479 341.466 436.749 341.84 435.775 341.841ZM435.65 336.631C435.249 336.631 434.913 336.778 434.641 337.071C434.369 337.361 434.2 337.77 434.136 338.296L437.047 338.295L437.047 338.22C437.018 337.715 436.882 337.325 436.639 337.049C436.395 336.77 436.066 336.631 435.65 336.631ZM442.784 341.732C442.727 341.617 442.68 341.413 442.644 341.12C442.182 341.599 441.631 341.839 440.99 341.84C440.417 341.84 439.946 341.679 439.577 341.356C439.212 341.031 439.029 340.619 439.029 340.121C439.029 339.516 439.258 339.047 439.717 338.714C440.178 338.377 440.827 338.209 441.661 338.209L442.628 338.208L442.628 337.752C442.627 337.405 442.524 337.129 442.316 336.925C442.108 336.717 441.802 336.613 441.397 336.613C441.043 336.614 440.746 336.703 440.506 336.882C440.266 337.061 440.146 337.278 440.146 337.532L439.147 337.532C439.147 337.242 439.249 336.963 439.453 336.694C439.661 336.422 439.94 336.207 440.291 336.05C440.645 335.892 441.034 335.813 441.456 335.813C442.126 335.813 442.651 335.981 443.03 336.318C443.41 336.651 443.607 337.111 443.621 337.698L443.622 340.373C443.622 340.906 443.69 341.331 443.826 341.646L443.826 341.732L442.784 341.732ZM441.135 340.975C441.446 340.975 441.742 340.894 442.021 340.733C442.3 340.572 442.503 340.362 442.628 340.104L442.628 338.912L441.849 338.912C440.632 338.912 440.023 339.269 440.023 339.981C440.023 340.293 440.127 340.536 440.335 340.712C440.542 340.887 440.809 340.975 441.135 340.975ZM446.526 334.512L446.527 335.92L447.612 335.919L447.612 336.688L446.527 336.688L446.527 340.292C446.527 340.524 446.576 340.7 446.673 340.818C446.769 340.933 446.934 340.99 447.167 340.99C447.281 340.99 447.439 340.968 447.639 340.925L447.64 341.731C447.378 341.803 447.124 341.838 446.877 341.839C446.433 341.839 446.098 341.704 445.872 341.436C445.647 341.167 445.534 340.786 445.534 340.292L445.533 336.688L444.475 336.688L444.475 335.92L445.533 335.92L445.533 334.513L446.526 334.512ZM448.977 342.402L448.123 342.402L451.387 333.91L452.236 333.91L448.977 342.402ZM456.695 340.188C456.695 339.919 456.593 339.712 456.389 339.565C456.188 339.414 455.835 339.286 455.33 339.178C454.829 339.071 454.43 338.942 454.133 338.792C453.839 338.641 453.621 338.462 453.477 338.255C453.338 338.047 453.268 337.8 453.268 337.514C453.268 337.037 453.468 336.635 453.869 336.305C454.274 335.976 454.789 335.811 455.416 335.811C456.075 335.811 456.608 335.981 457.016 336.321C457.428 336.661 457.634 337.096 457.634 337.626L456.635 337.626C456.635 337.354 456.519 337.119 456.286 336.922C456.057 336.725 455.767 336.627 455.416 336.627C455.054 336.627 454.771 336.706 454.567 336.864C454.363 337.021 454.261 337.227 454.261 337.481C454.261 337.721 454.356 337.902 454.546 338.024C454.736 338.145 455.078 338.262 455.572 338.373C456.07 338.484 456.473 338.616 456.781 338.77C457.089 338.924 457.316 339.11 457.463 339.328C457.613 339.543 457.688 339.806 457.689 340.118C457.689 340.637 457.481 341.054 457.066 341.369C456.65 341.681 456.112 341.837 455.449 341.837C454.984 341.837 454.572 341.755 454.214 341.59C453.856 341.425 453.574 341.196 453.37 340.903C453.17 340.606 453.069 340.285 453.069 339.941L454.063 339.941C454.081 340.274 454.214 340.539 454.461 340.736C454.711 340.929 455.041 341.026 455.449 341.026C455.825 341.026 456.126 340.951 456.351 340.8C456.58 340.646 456.695 340.442 456.695 340.188ZM460.063 341.729L459.069 341.729L459.068 335.917L460.062 335.917L460.063 341.729ZM458.987 334.376C458.987 334.215 459.036 334.079 459.132 333.968C459.232 333.857 459.379 333.801 459.573 333.801C459.766 333.801 459.913 333.857 460.013 333.968C460.113 334.078 460.164 334.215 460.164 334.376C460.164 334.537 460.113 334.671 460.013 334.779C459.913 334.886 459.766 334.94 459.573 334.94C459.379 334.94 459.233 334.886 459.132 334.779C459.036 334.671 458.987 334.537 458.987 334.376ZM461.421 338.774C461.421 337.868 461.63 337.149 462.049 336.615C462.468 336.078 463.023 335.809 463.714 335.809C464.423 335.809 464.976 336.06 465.374 336.561L465.422 335.916L466.33 335.916L466.331 341.588C466.331 342.34 466.107 342.933 465.66 343.366C465.216 343.799 464.618 344.016 463.866 344.016C463.447 344.016 463.037 343.927 462.636 343.748C462.235 343.569 461.929 343.324 461.717 343.012L462.233 342.416C462.659 342.942 463.18 343.205 463.796 343.205C464.279 343.205 464.655 343.069 464.924 342.797C465.196 342.525 465.332 342.141 465.332 341.647L465.332 341.148C464.934 341.606 464.392 341.835 463.704 341.835C463.024 341.836 462.473 341.562 462.05 341.014C461.631 340.466 461.421 339.72 461.421 338.774ZM462.42 338.887C462.42 339.542 462.555 340.058 462.823 340.434C463.092 340.806 463.468 340.992 463.951 340.992C464.578 340.992 465.038 340.707 465.332 340.138L465.331 337.485C465.027 336.93 464.57 336.652 463.961 336.652C463.478 336.652 463.1 336.84 462.828 337.217C462.556 337.593 462.42 338.149 462.42 338.887ZM468.774 335.916L468.806 336.646C469.25 336.087 469.83 335.808 470.546 335.808C471.774 335.808 472.394 336.5 472.405 337.886L472.406 341.727L471.412 341.727L471.411 337.881C471.408 337.462 471.311 337.152 471.121 336.952C470.935 336.751 470.643 336.651 470.246 336.651C469.923 336.651 469.64 336.737 469.397 336.909C469.153 337.081 468.964 337.307 468.828 337.586L468.828 341.727L467.835 341.727L467.834 335.916L468.774 335.916ZM477.492 341.151C477.105 341.606 476.538 341.833 475.789 341.833C475.17 341.833 474.697 341.654 474.371 341.296C474.049 340.935 473.886 340.401 473.882 339.696L473.882 335.915L474.875 335.915L474.876 339.669C474.876 340.55 475.234 340.99 475.95 340.99C476.71 340.99 477.214 340.707 477.465 340.141L477.464 335.914L478.458 335.914L478.459 341.725L477.514 341.726L477.492 341.151ZM484.882 338.883C484.882 339.767 484.68 340.48 484.276 341.021C483.871 341.562 483.323 341.832 482.632 341.832C481.927 341.832 481.372 341.609 480.967 341.161L480.968 343.959L479.974 343.96L479.972 335.914L480.88 335.913L480.929 336.558C481.333 336.057 481.895 335.806 482.615 335.806C483.313 335.806 483.865 336.069 484.269 336.595C484.678 337.121 484.882 337.853 484.882 338.792L484.882 338.883ZM483.888 338.77C483.888 338.115 483.749 337.598 483.469 337.218C483.19 336.839 482.807 336.649 482.32 336.649C481.718 336.649 481.267 336.916 480.966 337.45L480.967 340.226C481.264 340.756 481.719 341.021 482.331 341.021C482.808 341.021 483.185 340.833 483.464 340.457C483.747 340.077 483.889 339.515 483.888 338.77ZM488.218 338.807L485.596 338.808L485.596 337.997L488.217 337.996L488.218 338.807ZM488.927 338.764C488.926 338.195 489.037 337.683 489.259 337.228C489.485 336.773 489.796 336.422 490.194 336.175C490.595 335.928 491.051 335.804 491.563 335.804C492.355 335.804 492.994 336.078 493.481 336.626C493.972 337.173 494.217 337.902 494.217 338.811L494.217 338.881C494.217 339.447 494.108 339.955 493.89 340.407C493.675 340.854 493.365 341.204 492.961 341.454C492.56 341.705 492.098 341.83 491.575 341.83C490.787 341.831 490.148 341.557 489.657 341.009C489.17 340.461 488.927 339.736 488.927 338.834L488.927 338.764ZM489.926 338.882C489.926 339.527 490.074 340.044 490.372 340.434C490.673 340.824 491.074 341.02 491.575 341.019C492.08 341.019 492.481 340.822 492.778 340.428C493.075 340.031 493.224 339.476 493.223 338.763C493.223 338.126 493.071 337.61 492.767 337.216C492.466 336.819 492.065 336.62 491.563 336.62C491.073 336.621 490.677 336.816 490.376 337.206C490.076 337.597 489.925 338.155 489.926 338.882ZM499.052 341.722C498.994 341.607 498.948 341.403 498.912 341.109C498.45 341.589 497.899 341.829 497.258 341.829C496.685 341.83 496.214 341.668 495.845 341.346C495.48 341.021 495.297 340.609 495.297 340.111C495.297 339.506 495.526 339.037 495.984 338.704C496.446 338.367 497.094 338.199 497.928 338.198L498.895 338.198L498.895 337.742C498.895 337.394 498.791 337.119 498.583 336.915C498.376 336.707 498.07 336.603 497.665 336.603C497.31 336.603 497.013 336.693 496.773 336.872C496.534 337.051 496.414 337.268 496.414 337.522L495.415 337.522C495.415 337.232 495.517 336.953 495.721 336.684C495.928 336.412 496.208 336.197 496.558 336.04C496.913 335.882 497.301 335.803 497.724 335.803C498.393 335.803 498.918 335.971 499.298 336.308C499.677 336.641 499.874 337.101 499.889 337.688L499.889 340.363C499.889 340.896 499.957 341.32 500.094 341.636L500.094 341.721L499.052 341.722ZM497.403 340.965C497.714 340.965 498.009 340.884 498.289 340.723C498.568 340.562 498.77 340.352 498.896 340.094L498.895 338.902L498.117 338.902C496.899 338.902 496.29 339.259 496.291 339.971C496.291 340.283 496.394 340.526 496.602 340.702C496.81 340.877 497.077 340.965 497.403 340.965ZM505.035 341.146C504.648 341.601 504.081 341.828 503.332 341.828C502.713 341.828 502.24 341.649 501.914 341.291C501.592 340.93 501.429 340.396 501.425 339.691L501.425 335.91L502.418 335.91L502.419 339.664C502.419 340.545 502.777 340.985 503.493 340.985C504.252 340.985 504.757 340.702 505.008 340.136L505.007 335.909L506.001 335.909L506.002 341.72L505.056 341.721L505.035 341.146ZM508.863 334.501L508.864 335.908L509.949 335.908L509.949 336.676L508.864 336.676L508.864 340.28C508.864 340.513 508.913 340.689 509.009 340.807C509.106 340.921 509.271 340.979 509.504 340.979C509.618 340.979 509.776 340.957 509.976 340.914L509.976 341.72C509.715 341.791 509.461 341.827 509.214 341.827C508.77 341.827 508.435 341.693 508.209 341.425C507.984 341.156 507.871 340.775 507.871 340.281L507.87 336.677L506.812 336.677L506.812 335.909L507.87 335.909L507.87 334.501L508.863 334.501ZM512.108 336.611C512.548 336.071 513.121 335.8 513.826 335.8C515.055 335.8 515.674 336.493 515.685 337.878L515.686 341.719L514.692 341.719L514.692 337.873C514.688 337.454 514.591 337.144 514.401 336.944C514.215 336.744 513.923 336.643 513.526 336.643C513.204 336.643 512.921 336.729 512.677 336.901C512.434 337.073 512.244 337.299 512.108 337.578L512.109 341.719L511.115 341.719L511.114 333.469L512.107 333.469L512.108 336.611Z" fill="white"/>
<circle cx="268.5" cy="339.5" r="9.5" fill="#4000C7"/>
<line x1="155" y1="339.5" x2="259" y2="339.5" stroke="#4000C7"/>
<path d="M250.083 303.006H250.762C251.188 302.999 251.523 302.887 251.768 302.669C252.012 302.451 252.134 302.156 252.134 301.785C252.134 300.952 251.719 300.535 250.889 300.535C250.498 300.535 250.186 300.647 249.951 300.872C249.72 301.093 249.604 301.388 249.604 301.756H248.701C248.701 301.193 248.906 300.726 249.316 300.354C249.73 299.98 250.254 299.793 250.889 299.793C251.559 299.793 252.085 299.97 252.466 300.325C252.847 300.68 253.037 301.173 253.037 301.805C253.037 302.114 252.936 302.413 252.734 302.703C252.536 302.993 252.264 303.209 251.919 303.353C252.31 303.476 252.611 303.681 252.822 303.968C253.037 304.254 253.145 304.604 253.145 305.018C253.145 305.656 252.936 306.162 252.52 306.536C252.103 306.91 251.561 307.098 250.894 307.098C250.226 307.098 249.683 306.917 249.263 306.556C248.846 306.194 248.638 305.717 248.638 305.125H249.546C249.546 305.499 249.668 305.799 249.912 306.023C250.156 306.248 250.483 306.36 250.894 306.36C251.33 306.36 251.663 306.246 251.895 306.019C252.126 305.791 252.241 305.464 252.241 305.037C252.241 304.624 252.114 304.306 251.86 304.085C251.606 303.864 251.24 303.75 250.762 303.743H250.083V303.006ZM256.597 306.36C256.919 306.36 257.201 306.263 257.441 306.067C257.682 305.872 257.816 305.628 257.842 305.335H258.696C258.68 305.638 258.576 305.926 258.384 306.199C258.192 306.473 257.935 306.691 257.612 306.854C257.293 307.016 256.955 307.098 256.597 307.098C255.877 307.098 255.304 306.858 254.878 306.38C254.455 305.898 254.243 305.241 254.243 304.407V304.256C254.243 303.742 254.338 303.284 254.526 302.884C254.715 302.483 254.985 302.173 255.337 301.951C255.692 301.73 256.11 301.619 256.592 301.619C257.184 301.619 257.676 301.797 258.066 302.151C258.46 302.506 258.67 302.967 258.696 303.533H257.842C257.816 303.191 257.686 302.911 257.451 302.693C257.22 302.472 256.934 302.361 256.592 302.361C256.133 302.361 255.776 302.527 255.522 302.859C255.272 303.188 255.146 303.665 255.146 304.29V304.461C255.146 305.07 255.272 305.538 255.522 305.867C255.773 306.196 256.131 306.36 256.597 306.36ZM261.904 307.098C261.188 307.098 260.605 306.863 260.156 306.395C259.707 305.923 259.482 305.293 259.482 304.505V304.339C259.482 303.815 259.582 303.348 259.78 302.938C259.982 302.524 260.262 302.202 260.62 301.971C260.981 301.736 261.372 301.619 261.792 301.619C262.479 301.619 263.013 301.845 263.394 302.298C263.774 302.75 263.965 303.398 263.965 304.241V304.617H260.386C260.399 305.138 260.55 305.56 260.84 305.882C261.133 306.201 261.504 306.36 261.953 306.36C262.272 306.36 262.542 306.295 262.764 306.165C262.985 306.035 263.179 305.862 263.345 305.647L263.896 306.077C263.454 306.757 262.79 307.098 261.904 307.098ZM261.792 302.361C261.427 302.361 261.121 302.495 260.874 302.762C260.627 303.025 260.474 303.396 260.415 303.875H263.062V303.807C263.035 303.348 262.912 302.993 262.69 302.742C262.469 302.488 262.17 302.361 261.792 302.361ZM266.235 303.006H266.914C267.34 302.999 267.676 302.887 267.92 302.669C268.164 302.451 268.286 302.156 268.286 301.785C268.286 300.952 267.871 300.535 267.041 300.535C266.65 300.535 266.338 300.647 266.104 300.872C265.872 301.093 265.757 301.388 265.757 301.756H264.854C264.854 301.193 265.059 300.726 265.469 300.354C265.882 299.98 266.406 299.793 267.041 299.793C267.712 299.793 268.237 299.97 268.618 300.325C268.999 300.68 269.189 301.173 269.189 301.805C269.189 302.114 269.089 302.413 268.887 302.703C268.688 302.993 268.416 303.209 268.071 303.353C268.462 303.476 268.763 303.681 268.975 303.968C269.189 304.254 269.297 304.604 269.297 305.018C269.297 305.656 269.089 306.162 268.672 306.536C268.255 306.91 267.713 307.098 267.046 307.098C266.379 307.098 265.835 306.917 265.415 306.556C264.998 306.194 264.79 305.717 264.79 305.125H265.698C265.698 305.499 265.82 305.799 266.064 306.023C266.309 306.248 266.636 306.36 267.046 306.36C267.482 306.36 267.816 306.246 268.047 306.019C268.278 305.791 268.394 305.464 268.394 305.037C268.394 304.624 268.267 304.306 268.013 304.085C267.759 303.864 267.393 303.75 266.914 303.743H266.235V303.006ZM273.999 303.875C273.81 304.1 273.584 304.28 273.32 304.417C273.06 304.554 272.773 304.622 272.461 304.622C272.051 304.622 271.693 304.521 271.387 304.319C271.084 304.118 270.85 303.834 270.684 303.47C270.518 303.102 270.435 302.697 270.435 302.254C270.435 301.779 270.524 301.351 270.703 300.97C270.885 300.589 271.143 300.298 271.475 300.096C271.807 299.894 272.194 299.793 272.637 299.793C273.34 299.793 273.893 300.057 274.297 300.584C274.704 301.108 274.907 301.824 274.907 302.732V302.996C274.907 304.38 274.634 305.39 274.087 306.028C273.54 306.663 272.715 306.989 271.611 307.005H271.436V306.243H271.626C272.371 306.23 272.944 306.036 273.345 305.662C273.745 305.285 273.963 304.689 273.999 303.875ZM272.607 303.875C272.91 303.875 273.188 303.782 273.442 303.597C273.7 303.411 273.887 303.182 274.004 302.908V302.547C274.004 301.954 273.875 301.473 273.618 301.102C273.361 300.73 273.035 300.545 272.642 300.545C272.244 300.545 271.925 300.698 271.685 301.004C271.444 301.307 271.323 301.707 271.323 302.205C271.323 302.69 271.439 303.09 271.67 303.406C271.904 303.719 272.217 303.875 272.607 303.875ZM279.966 304.612H280.952V305.35H279.966V307H279.058V305.35H275.82V304.817L279.004 299.891H279.966V304.612ZM276.846 304.612H279.058V301.126L278.95 301.321L276.846 304.612ZM281.641 304.314C281.641 303.504 281.833 302.853 282.217 302.361C282.601 301.867 283.104 301.619 283.726 301.619C284.344 301.619 284.834 301.831 285.195 302.254V299.5H286.099V307H285.269L285.225 306.434C284.863 306.876 284.36 307.098 283.716 307.098C283.104 307.098 282.604 306.847 282.217 306.346C281.833 305.844 281.641 305.19 281.641 304.383V304.314ZM282.544 304.417C282.544 305.016 282.668 305.485 282.915 305.823C283.162 306.162 283.504 306.331 283.94 306.331C284.513 306.331 284.932 306.074 285.195 305.56V303.133C284.925 302.635 284.51 302.386 283.95 302.386C283.507 302.386 283.162 302.557 282.915 302.898C282.668 303.24 282.544 303.746 282.544 304.417ZM245.692 315.15C244.122 314.87 242.412 313.55 242.412 312.06V311.37H241.552V312.06C241.552 313.55 239.852 314.87 238.282 315.15L238.622 315.83C240.002 315.54 241.402 314.61 241.982 313.33C242.562 314.61 243.972 315.54 245.342 315.83L245.692 315.15ZM242.392 317.9V315.72H241.572V317.9H237.952V318.57H246.092V317.9H242.392ZM253.711 315.48H254.541V310.78H253.711V311.69H251.951V312.34H253.711V313.3H251.951V313.95H253.711V315.48ZM252.391 314.69C251.101 314.25 250.191 313.14 250.191 311.94V311H249.381V311.94C249.381 313.19 248.481 314.39 247.151 314.88L247.571 315.5C248.611 315.12 249.421 314.3 249.801 313.28C250.191 314.21 250.971 314.96 251.971 315.33L252.391 314.69ZM249.591 318.98V318.03H254.541V315.92H248.761V316.55H253.731V317.42H248.781V319.62H254.881V318.98H249.591ZM259.311 311.73V312.41H262.601C262.411 314.53 261.181 316.25 258.891 317.4L259.341 318.04C262.241 316.59 263.411 314.28 263.411 311.73H259.311ZM267.171 314.41H265.731V310.77H264.911V319.74H265.731V315.09H267.171V314.41ZM274.57 310.78V315.59H275.39V310.78H274.57ZM269.61 316.03V319.62H275.39V316.03H274.58V317.13H270.42V316.03H269.61ZM270.42 317.77H274.58V318.96H270.42V317.77ZM270.57 311.2C269.22 311.2 268.24 312.04 268.24 313.26C268.24 314.5 269.22 315.33 270.57 315.33C271.93 315.33 272.92 314.5 272.92 313.26C272.92 312.04 271.93 311.2 270.57 311.2ZM270.57 311.88C271.48 311.88 272.12 312.45 272.12 313.26C272.12 314.08 271.48 314.65 270.57 314.65C269.68 314.65 269.04 314.08 269.04 313.26C269.04 312.45 269.68 311.88 270.57 311.88ZM287.83 315.21H286.5C286.75 313.92 286.75 312.97 286.75 312.13V311.35H280.73V312.01H285.95V312.13C285.95 312.97 285.95 313.92 285.67 315.21H279.72V315.88H283.34V319.75H284.17V315.88H287.83V315.21ZM293.949 313.16V313.83H295.459V315.04H293.949V315.71H295.459V317.61H296.289V310.78H295.459V313.16H293.949ZM293.949 311.87H291.889V310.76H291.069V311.87H288.929V312.53H293.949V311.87ZM290.219 314.73C290.219 314.1 290.729 313.67 291.469 313.67C292.209 313.67 292.719 314.1 292.719 314.73C292.719 315.37 292.209 315.81 291.469 315.81C290.729 315.81 290.219 315.37 290.219 314.73ZM293.499 314.73C293.499 313.71 292.659 313.03 291.469 313.03C290.279 313.03 289.439 313.71 289.439 314.73C289.439 315.76 290.279 316.45 291.469 316.45C292.659 316.45 293.499 315.76 293.499 314.73ZM291.349 318.87V317.03H290.529V319.54H296.499V318.87H291.349Z" fill="black"/>
<path d="M194.159 297V293.791H193.575V293.302H194.159V292.922C194.159 292.526 194.265 292.219 194.477 292.003C194.689 291.786 194.989 291.678 195.376 291.678C195.522 291.678 195.667 291.698 195.81 291.736L195.776 292.249C195.669 292.229 195.555 292.218 195.434 292.218C195.229 292.218 195.071 292.279 194.959 292.399C194.847 292.518 194.792 292.689 194.792 292.912V293.302H195.581V293.791H194.792V297H194.159ZM198.565 297C198.528 296.927 198.499 296.797 198.476 296.61C198.182 296.916 197.831 297.068 197.423 297.068C197.059 297.068 196.759 296.966 196.524 296.761C196.292 296.553 196.176 296.291 196.176 295.975C196.176 295.59 196.322 295.291 196.613 295.079C196.907 294.865 197.32 294.758 197.851 294.758H198.466V294.467C198.466 294.246 198.4 294.071 198.268 293.941C198.135 293.809 197.941 293.743 197.683 293.743C197.458 293.743 197.268 293.8 197.116 293.914C196.963 294.028 196.887 294.165 196.887 294.327H196.251C196.251 294.143 196.316 293.965 196.446 293.794C196.578 293.621 196.756 293.484 196.979 293.384C197.205 293.284 197.452 293.233 197.721 293.233C198.147 293.233 198.481 293.34 198.722 293.555C198.964 293.767 199.089 294.059 199.098 294.433V296.135C199.098 296.475 199.141 296.745 199.228 296.945V297H198.565ZM197.516 296.518C197.714 296.518 197.902 296.467 198.08 296.364C198.257 296.262 198.386 296.128 198.466 295.964V295.206H197.97C197.195 295.206 196.808 295.432 196.808 295.886C196.808 296.084 196.874 296.239 197.006 296.351C197.139 296.462 197.308 296.518 197.516 296.518ZM202.243 296.019C202.243 295.848 202.178 295.716 202.048 295.623C201.92 295.527 201.696 295.445 201.375 295.376C201.056 295.308 200.801 295.226 200.612 295.13C200.425 295.035 200.286 294.921 200.195 294.789C200.106 294.656 200.062 294.499 200.062 294.317C200.062 294.014 200.19 293.757 200.445 293.548C200.702 293.338 201.03 293.233 201.429 293.233C201.848 293.233 202.188 293.342 202.448 293.558C202.71 293.775 202.841 294.051 202.841 294.389H202.205C202.205 294.215 202.131 294.066 201.983 293.941C201.837 293.816 201.653 293.753 201.429 293.753C201.199 293.753 201.019 293.803 200.889 293.903C200.759 294.004 200.694 294.135 200.694 294.296C200.694 294.449 200.755 294.564 200.875 294.642C200.996 294.719 201.214 294.793 201.528 294.864C201.845 294.934 202.101 295.019 202.297 295.117C202.493 295.215 202.638 295.333 202.731 295.472C202.827 295.609 202.875 295.776 202.875 295.975C202.875 296.305 202.743 296.57 202.479 296.771C202.214 296.969 201.871 297.068 201.45 297.068C201.153 297.068 200.891 297.016 200.664 296.911C200.436 296.806 200.257 296.66 200.127 296.474C199.999 296.285 199.936 296.081 199.936 295.862H200.568C200.579 296.074 200.664 296.242 200.821 296.368C200.98 296.491 201.19 296.552 201.45 296.552C201.689 296.552 201.88 296.504 202.024 296.409C202.17 296.311 202.243 296.181 202.243 296.019ZM204.557 292.406V293.302H205.247V293.791H204.557V296.084C204.557 296.232 204.587 296.344 204.649 296.419C204.71 296.492 204.815 296.528 204.963 296.528C205.036 296.528 205.137 296.515 205.264 296.487V297C205.098 297.046 204.936 297.068 204.779 297.068C204.496 297.068 204.283 296.983 204.14 296.812C203.996 296.641 203.924 296.398 203.924 296.084V293.791H203.251V293.302H203.924V292.406H204.557ZM207.305 295.144H205.637V294.628H207.305V295.144ZM208.234 297V293.791H207.65V293.302H208.234V292.922C208.234 292.526 208.34 292.219 208.552 292.003C208.764 291.786 209.064 291.678 209.451 291.678C209.597 291.678 209.742 291.698 209.885 291.736L209.851 292.249C209.744 292.229 209.63 292.218 209.509 292.218C209.304 292.218 209.146 292.279 209.034 292.399C208.923 292.518 208.867 292.689 208.867 292.912V293.302H209.656V293.791H208.867V297H208.234ZM210.189 295.117C210.189 294.754 210.26 294.429 210.401 294.139C210.545 293.85 210.743 293.626 210.996 293.469C211.251 293.312 211.542 293.233 211.868 293.233C212.371 293.233 212.778 293.408 213.088 293.756C213.4 294.105 213.556 294.569 213.556 295.147V295.192C213.556 295.552 213.487 295.875 213.348 296.163C213.211 296.447 213.014 296.67 212.756 296.829C212.501 296.989 212.207 297.068 211.875 297.068C211.373 297.068 210.966 296.894 210.654 296.545C210.344 296.197 210.189 295.735 210.189 295.161V295.117ZM210.825 295.192C210.825 295.602 210.92 295.931 211.109 296.18C211.3 296.428 211.556 296.552 211.875 296.552C212.196 296.552 212.451 296.427 212.64 296.176C212.829 295.923 212.924 295.57 212.924 295.117C212.924 294.711 212.827 294.383 212.633 294.132C212.442 293.879 212.187 293.753 211.868 293.753C211.556 293.753 211.304 293.877 211.112 294.125C210.921 294.374 210.825 294.729 210.825 295.192ZM216.137 293.869C216.041 293.853 215.937 293.845 215.826 293.845C215.411 293.845 215.13 294.022 214.981 294.375V297H214.349V293.302H214.964L214.975 293.729C215.182 293.399 215.476 293.233 215.856 293.233C215.979 293.233 216.073 293.249 216.137 293.281V293.869ZM220.057 296.128L220.768 293.302H221.4L220.324 297H219.811L218.912 294.197L218.037 297H217.524L216.451 293.302H217.08L217.808 296.07L218.669 293.302H219.179L220.057 296.128ZM224.33 297C224.293 296.927 224.264 296.797 224.241 296.61C223.947 296.916 223.596 297.068 223.188 297.068C222.823 297.068 222.524 296.966 222.289 296.761C222.057 296.553 221.94 296.291 221.94 295.975C221.94 295.59 222.086 295.291 222.378 295.079C222.672 294.865 223.084 294.758 223.615 294.758H224.23V294.467C224.23 294.246 224.164 294.071 224.032 293.941C223.9 293.809 223.705 293.743 223.448 293.743C223.222 293.743 223.033 293.8 222.88 293.914C222.728 294.028 222.651 294.165 222.651 294.327H222.016C222.016 294.143 222.081 293.965 222.21 293.794C222.343 293.621 222.52 293.484 222.744 293.384C222.969 293.284 223.216 293.233 223.485 293.233C223.911 293.233 224.245 293.34 224.487 293.555C224.728 293.767 224.854 294.059 224.863 294.433V296.135C224.863 296.475 224.906 296.745 224.993 296.945V297H224.33ZM223.28 296.518C223.479 296.518 223.667 296.467 223.844 296.364C224.022 296.262 224.151 296.128 224.23 295.964V295.206H223.735C222.96 295.206 222.573 295.432 222.573 295.886C222.573 296.084 222.639 296.239 222.771 296.351C222.903 296.462 223.073 296.518 223.28 296.518ZM227.642 293.869C227.546 293.853 227.442 293.845 227.331 293.845C226.916 293.845 226.634 294.022 226.486 294.375V297H225.854V293.302H226.469L226.479 293.729C226.687 293.399 226.981 293.233 227.361 293.233C227.484 293.233 227.578 293.249 227.642 293.281V293.869ZM228.004 295.12C228.004 294.553 228.138 294.097 228.407 293.753C228.676 293.407 229.028 293.233 229.463 293.233C229.896 293.233 230.239 293.382 230.492 293.678V291.75H231.125V297H230.543L230.513 296.604C230.26 296.913 229.908 297.068 229.457 297.068C229.028 297.068 228.678 296.893 228.407 296.542C228.138 296.191 228.004 295.733 228.004 295.168V295.12ZM228.636 295.192C228.636 295.611 228.723 295.939 228.896 296.176C229.069 296.413 229.308 296.532 229.614 296.532C230.015 296.532 230.308 296.352 230.492 295.992V294.293C230.303 293.944 230.013 293.77 229.621 293.77C229.311 293.77 229.069 293.89 228.896 294.129C228.723 294.368 228.636 294.722 228.636 295.192Z" fill="#4000C7"/>
<path d="M156 323.5C196 296 227 295 262 323.5" stroke="#4000C7" stroke-dasharray="2 2"/>
</svg>
